%TF.GenerationSoftware,KiCad,Pcbnew,10.0.4-10.0.4~ubuntu26.04.1*%
%TF.CreationDate,2026-07-30T00:34:53-04:00*%
%TF.ProjectId,coupon,636f7570-6f6e-42e6-9b69-6361645f7063,rev?*%
%TF.SameCoordinates,Original*%
%TF.FileFunction,Copper,L2,Bot*%
%TF.FilePolarity,Positive*%
%FSLAX46Y46*%
G04 Gerber Fmt 4.6, Leading zero omitted, Abs format (unit mm)*
G04 Created by KiCad (PCBNEW 10.0.4-10.0.4~ubuntu26.04.1) date 2026-07-30 00:34:53*
%MOMM*%
%LPD*%
G01*
G04 APERTURE LIST*
G04 Aperture macros list*
%AMRoundRect*
0 Rectangle with rounded corners*
0 $1 Rounding radius*
0 $2 $3 $4 $5 $6 $7 $8 $9 X,Y pos of 4 corners*
0 Add a 4 corners polygon primitive as box body*
4,1,4,$2,$3,$4,$5,$6,$7,$8,$9,$2,$3,0*
0 Add four circle primitives for the rounded corners*
1,1,$1+$1,$2,$3*
1,1,$1+$1,$4,$5*
1,1,$1+$1,$6,$7*
1,1,$1+$1,$8,$9*
0 Add four rect primitives between the rounded corners*
20,1,$1+$1,$2,$3,$4,$5,0*
20,1,$1+$1,$4,$5,$6,$7,0*
20,1,$1+$1,$6,$7,$8,$9,0*
20,1,$1+$1,$8,$9,$2,$3,0*%
G04 Aperture macros list end*
%TA.AperFunction,NonConductor*%
%ADD10C,2.000000*%
%TD*%
%TA.AperFunction,ComponentPad*%
%ADD11C,2.100000*%
%TD*%
%TA.AperFunction,ComponentPad*%
%ADD12C,4.000000*%
%TD*%
%TA.AperFunction,ComponentPad*%
%ADD13C,2.300000*%
%TD*%
%TA.AperFunction,ComponentPad*%
%ADD14O,2.400000X2.000000*%
%TD*%
%TA.AperFunction,SMDPad,CuDef*%
%ADD15RoundRect,0.250000X0.625000X-0.400000X0.625000X0.400000X-0.625000X0.400000X-0.625000X-0.400000X0*%
%TD*%
%TA.AperFunction,SMDPad,CuDef*%
%ADD16RoundRect,0.237500X-0.237500X0.250000X-0.237500X-0.250000X0.237500X-0.250000X0.237500X0.250000X0*%
%TD*%
%TA.AperFunction,SMDPad,CuDef*%
%ADD17RoundRect,0.250000X-0.650000X0.412500X-0.650000X-0.412500X0.650000X-0.412500X0.650000X0.412500X0*%
%TD*%
%TA.AperFunction,SMDPad,CuDef*%
%ADD18RoundRect,0.150000X0.825000X0.150000X-0.825000X0.150000X-0.825000X-0.150000X0.825000X-0.150000X0*%
%TD*%
%TA.AperFunction,SMDPad,CuDef*%
%ADD19RoundRect,0.250000X-0.625000X0.400000X-0.625000X-0.400000X0.625000X-0.400000X0.625000X0.400000X0*%
%TD*%
%TA.AperFunction,SMDPad,CuDef*%
%ADD20RoundRect,0.250000X0.350000X0.450000X-0.350000X0.450000X-0.350000X-0.450000X0.350000X-0.450000X0*%
%TD*%
%TA.AperFunction,SMDPad,CuDef*%
%ADD21RoundRect,0.250000X0.475000X-0.337500X0.475000X0.337500X-0.475000X0.337500X-0.475000X-0.337500X0*%
%TD*%
%TA.AperFunction,SMDPad,CuDef*%
%ADD22RoundRect,0.250000X0.450000X-0.325000X0.450000X0.325000X-0.450000X0.325000X-0.450000X-0.325000X0*%
%TD*%
%TA.AperFunction,SMDPad,CuDef*%
%ADD23RoundRect,0.200000X0.200000X-0.750000X0.200000X0.750000X-0.200000X0.750000X-0.200000X-0.750000X0*%
%TD*%
%TA.AperFunction,SMDPad,CuDef*%
%ADD24RoundRect,0.237500X0.250000X0.237500X-0.250000X0.237500X-0.250000X-0.237500X0.250000X-0.237500X0*%
%TD*%
%TA.AperFunction,SMDPad,CuDef*%
%ADD25C,2.000000*%
%TD*%
%TA.AperFunction,SMDPad,CuDef*%
%ADD26RoundRect,0.237500X-0.237500X0.300000X-0.237500X-0.300000X0.237500X-0.300000X0.237500X0.300000X0*%
%TD*%
%TA.AperFunction,SMDPad,CuDef*%
%ADD27RoundRect,0.250000X-0.400000X-0.625000X0.400000X-0.625000X0.400000X0.625000X-0.400000X0.625000X0*%
%TD*%
%TA.AperFunction,SMDPad,CuDef*%
%ADD28RoundRect,0.250000X-0.450000X0.350000X-0.450000X-0.350000X0.450000X-0.350000X0.450000X0.350000X0*%
%TD*%
%TA.AperFunction,SMDPad,CuDef*%
%ADD29RoundRect,0.250000X0.450000X-0.350000X0.450000X0.350000X-0.450000X0.350000X-0.450000X-0.350000X0*%
%TD*%
%TA.AperFunction,SMDPad,CuDef*%
%ADD30RoundRect,0.250000X-0.350000X-0.450000X0.350000X-0.450000X0.350000X0.450000X-0.350000X0.450000X0*%
%TD*%
%TA.AperFunction,SMDPad,CuDef*%
%ADD31RoundRect,0.250000X-0.337500X-0.475000X0.337500X-0.475000X0.337500X0.475000X-0.337500X0.475000X0*%
%TD*%
%TA.AperFunction,SMDPad,CuDef*%
%ADD32RoundRect,0.250000X0.350000X-0.275000X0.350000X0.275000X-0.350000X0.275000X-0.350000X-0.275000X0*%
%TD*%
%TA.AperFunction,SMDPad,CuDef*%
%ADD33RoundRect,0.250000X-0.475000X0.337500X-0.475000X-0.337500X0.475000X-0.337500X0.475000X0.337500X0*%
%TD*%
%TA.AperFunction,SMDPad,CuDef*%
%ADD34RoundRect,0.250000X1.500000X0.650000X-1.500000X0.650000X-1.500000X-0.650000X1.500000X-0.650000X0*%
%TD*%
%TA.AperFunction,SMDPad,CuDef*%
%ADD35RoundRect,0.250000X0.400000X0.625000X-0.400000X0.625000X-0.400000X-0.625000X0.400000X-0.625000X0*%
%TD*%
%TA.AperFunction,Conductor*%
%ADD36C,0.600000*%
%TD*%
%TA.AperFunction,Conductor*%
%ADD37C,0.800000*%
%TD*%
%TA.AperFunction,Conductor*%
%ADD38C,0.500000*%
%TD*%
%TA.AperFunction,Conductor*%
%ADD39C,1.000000*%
%TD*%
%TA.AperFunction,Conductor*%
%ADD40C,0.400000*%
%TD*%
G04 APERTURE END LIST*
D10*
X152700000Y-127000000D02*
G75*
G02*
X146700000Y-127000000I-3000000J0D01*
G01*
X146700000Y-127000000D02*
G75*
G02*
X152700000Y-127000000I3000000J0D01*
G01*
D11*
%TO.P,JP1,1*%
%TO.N,/N_DISCH*%
X142500000Y-111240000D03*
%TO.P,JP1,2*%
X142500000Y-121400000D03*
%TD*%
%TO.P,JP5,1*%
%TO.N,GND*%
X131500000Y-136000000D03*
%TO.P,JP5,2*%
X119050528Y-133489646D03*
%TD*%
%TO.P,JP4,1*%
%TO.N,GND*%
X129600000Y-112700000D03*
%TO.P,JP4,2*%
X142999584Y-105439868D03*
%TD*%
%TO.P,JP3,1*%
%TO.N,VCC*%
X124100000Y-109860000D03*
%TO.P,JP3,2*%
X123993504Y-125099653D03*
%TD*%
D12*
%TO.P,PAD1,1*%
%TO.N,/VIN*%
X104800000Y-122500000D03*
%TD*%
D11*
%TO.P,SW1,1*%
%TO.N,/VIN*%
X109500000Y-125500000D03*
%TO.P,SW1,2*%
%TO.N,/VIN_SW*%
X109500000Y-128040000D03*
%TO.P,SW1,3*%
%TO.N,unconnected-(SW1-C-Pad3)*%
X109500000Y-130580000D03*
%TD*%
D12*
%TO.P,PAD2,1*%
%TO.N,GND*%
X104800000Y-129500000D03*
%TD*%
D11*
%TO.P,LED2,1*%
%TO.N,/LEDK*%
X124000000Y-105500000D03*
%TO.P,LED2,2*%
%TO.N,/N_LED2A*%
X126540000Y-105500000D03*
%TD*%
D13*
%TO.P,S2,1*%
%TO.N,/N_DISCH*%
X142500000Y-125700000D03*
X142500000Y-132200000D03*
%TO.P,S2,2*%
%TO.N,/N_KICK*%
X138000000Y-125700000D03*
X138000000Y-132200000D03*
%TD*%
D11*
%TO.P,JP6,1*%
%TO.N,GND*%
X123300000Y-128300000D03*
%TO.P,JP6,2*%
X121903461Y-118236451D03*
%TD*%
D14*
%TO.P,U1,1*%
%TO.N,GND*%
X126000000Y-117500000D03*
%TO.P,U1,2*%
%TO.N,/TRIG_THR*%
X126000000Y-120040000D03*
%TO.P,U1,3*%
%TO.N,/BLINK*%
X126000000Y-122580000D03*
%TO.P,U1,4*%
%TO.N,VCC*%
X126000000Y-125120000D03*
%TO.P,U1,5*%
%TO.N,/N_CV*%
X133620000Y-125120000D03*
%TO.P,U1,6*%
%TO.N,/TRIG_THR*%
X133620000Y-122580000D03*
%TO.P,U1,7*%
%TO.N,/N_DISCH*%
X133620000Y-120040000D03*
%TO.P,U1,8*%
%TO.N,VCC*%
X133620000Y-117500000D03*
%TD*%
D11*
%TO.P,JP2,1*%
%TO.N,VCC*%
X119300000Y-119030000D03*
%TO.P,JP2,2*%
X121701425Y-131500942D03*
%TD*%
%TO.P,LED3,1*%
%TO.N,/LEDK*%
X132000000Y-105500000D03*
%TO.P,LED3,2*%
%TO.N,/N_LED3A*%
X134540000Y-105500000D03*
%TD*%
D15*
%TO.P,R7,1*%
%TO.N,VCC*%
X135800000Y-111150000D03*
%TO.P,R7,2*%
%TO.N,/N_LED3A*%
X135800000Y-108050000D03*
%TD*%
D16*
%TO.P,R8,1*%
%TO.N,/TRIG_THR*%
X128700000Y-128687500D03*
%TO.P,R8,2*%
%TO.N,/N_U2AIN*%
X128700000Y-130512500D03*
%TD*%
D17*
%TO.P,C5,1*%
%TO.N,/N_CV*%
X134300000Y-126637500D03*
%TO.P,C5,2*%
%TO.N,GND*%
X134300000Y-129762500D03*
%TD*%
D18*
%TO.P,U2,1*%
%TO.N,/N_U2AOUT*%
X130675000Y-131595000D03*
%TO.P,U2,2*%
%TO.N,/VHALF*%
X130675000Y-132865000D03*
%TO.P,U2,3*%
%TO.N,/N_U2AIN*%
X130675000Y-134135000D03*
%TO.P,U2,4*%
%TO.N,GND*%
X130675000Y-135405000D03*
%TO.P,U2,5*%
X125725000Y-135405000D03*
%TO.P,U2,6*%
%TO.N,/N_U2BFB*%
X125725000Y-134135000D03*
%TO.P,U2,7*%
X125725000Y-132865000D03*
%TO.P,U2,8*%
%TO.N,VCC*%
X125725000Y-131595000D03*
%TD*%
D15*
%TO.P,R4,1*%
%TO.N,/N_KICK*%
X138000000Y-125150000D03*
%TO.P,R4,2*%
%TO.N,/TRIG_THR*%
X138000000Y-122050000D03*
%TD*%
D16*
%TO.P,R9,1*%
%TO.N,VCC*%
X123700000Y-132787500D03*
%TO.P,R9,2*%
%TO.N,/VHALF*%
X123700000Y-134612500D03*
%TD*%
D19*
%TO.P,R1,1*%
%TO.N,VCC*%
X110500000Y-114750000D03*
%TO.P,R1,2*%
%TO.N,/N_LED1*%
X110500000Y-117850000D03*
%TD*%
D20*
%TO.P,CP2,1*%
%TO.N,N/C*%
X150000000Y-138500000D03*
%TO.P,CP2,2*%
X148000000Y-138500000D03*
%TD*%
D21*
%TO.P,C7,1*%
%TO.N,VCC*%
X132700000Y-115437500D03*
%TO.P,C7,2*%
%TO.N,GND*%
X132700000Y-113362500D03*
%TD*%
D22*
%TO.P,LED4,1*%
%TO.N,GND*%
X139600000Y-138925000D03*
%TO.P,LED4,2*%
%TO.N,/N_LED4A*%
X139600000Y-136875000D03*
%TD*%
D23*
%TO.P,Q1,1*%
%TO.N,/N_Q1B*%
X118450000Y-111500000D03*
%TO.P,Q1,2*%
%TO.N,GND*%
X116550000Y-111500000D03*
%TO.P,Q1,3*%
%TO.N,/LEDK*%
X117500000Y-108500000D03*
%TD*%
D24*
%TO.P,CP3,1*%
%TO.N,N/C*%
X153562500Y-138500000D03*
%TO.P,CP3,2*%
X151737500Y-138500000D03*
%TD*%
D25*
%TO.P,TP2,1*%
%TO.N,/LADDER_040*%
X153100000Y-109750000D03*
%TD*%
D22*
%TO.P,LED1,1*%
%TO.N,GND*%
X110500000Y-121825000D03*
%TO.P,LED1,2*%
%TO.N,/N_LED1*%
X110500000Y-119775000D03*
%TD*%
D26*
%TO.P,C2,1*%
%TO.N,VCC*%
X118000000Y-123437500D03*
%TO.P,C2,2*%
%TO.N,GND*%
X118000000Y-125162500D03*
%TD*%
D24*
%TO.P,R5,1*%
%TO.N,/BLINK*%
X122412500Y-111900000D03*
%TO.P,R5,2*%
%TO.N,/N_Q1B*%
X120587500Y-111900000D03*
%TD*%
D25*
%TO.P,TP5,1*%
%TO.N,/LADDER_060*%
X144900000Y-120450000D03*
%TD*%
D16*
%TO.P,R2,1*%
%TO.N,VCC*%
X137000000Y-113587500D03*
%TO.P,R2,2*%
%TO.N,/N_DISCH*%
X137000000Y-115412500D03*
%TD*%
D27*
%TO.P,R11,1*%
%TO.N,/N_U2AOUT*%
X135750000Y-136450000D03*
%TO.P,R11,2*%
%TO.N,/N_LED4A*%
X138850000Y-136450000D03*
%TD*%
D28*
%TO.P,R10,1*%
%TO.N,/VHALF*%
X122000000Y-133600000D03*
%TO.P,R10,2*%
%TO.N,GND*%
X122000000Y-135600000D03*
%TD*%
D25*
%TO.P,TP1,1*%
%TO.N,/LADDER_040*%
X144900000Y-109750000D03*
%TD*%
D29*
%TO.P,R6,1*%
%TO.N,VCC*%
X127800000Y-110600000D03*
%TO.P,R6,2*%
%TO.N,/N_LED2A*%
X127800000Y-108600000D03*
%TD*%
D30*
%TO.P,R3,1*%
%TO.N,/N_DISCH*%
X137000000Y-120040000D03*
%TO.P,R3,2*%
%TO.N,/TRIG_THR*%
X139000000Y-120040000D03*
%TD*%
D25*
%TO.P,TP3,1*%
%TO.N,/LADDER_050*%
X144900000Y-115400000D03*
%TD*%
D31*
%TO.P,C6,1*%
%TO.N,/VHALF*%
X123862500Y-136900000D03*
%TO.P,C6,2*%
%TO.N,GND*%
X125937500Y-136900000D03*
%TD*%
D32*
%TO.P,L1,1*%
%TO.N,/VF*%
X121000000Y-127350000D03*
%TO.P,L1,2*%
%TO.N,VCC*%
X121000000Y-125050000D03*
%TD*%
D33*
%TO.P,C4,1*%
%TO.N,/TRIG_THR*%
X140300000Y-122582500D03*
%TO.P,C4,2*%
%TO.N,GND*%
X140300000Y-124657500D03*
%TD*%
D34*
%TO.P,D1,1*%
%TO.N,/VF*%
X118000000Y-128040000D03*
%TO.P,D1,2*%
%TO.N,/VIN_SW*%
X113000000Y-128040000D03*
%TD*%
D33*
%TO.P,C3,1*%
%TO.N,VCC*%
X115000000Y-123162500D03*
%TO.P,C3,2*%
%TO.N,GND*%
X115000000Y-125237500D03*
%TD*%
%TO.P,C1,1*%
%TO.N,/VF*%
X119500000Y-131262500D03*
%TO.P,C1,2*%
%TO.N,GND*%
X119500000Y-133337500D03*
%TD*%
D25*
%TO.P,TP4,1*%
%TO.N,/LADDER_050*%
X153100000Y-115400000D03*
%TD*%
D35*
%TO.P,CP1,1*%
%TO.N,N/C*%
X146250000Y-138500000D03*
%TO.P,CP1,2*%
X143150000Y-138500000D03*
%TD*%
D21*
%TO.P,C8,1*%
%TO.N,VCC*%
X125900000Y-131437500D03*
%TO.P,C8,2*%
%TO.N,GND*%
X125900000Y-129362500D03*
%TD*%
D25*
%TO.P,TP6,1*%
%TO.N,/LADDER_060*%
X153100000Y-120450000D03*
%TD*%
%TO.N,/N_DISCH*%
D36*
X133620000Y-120040000D02*
X137000000Y-120040000D01*
X138200000Y-116600000D02*
X137000000Y-116600000D01*
X142500000Y-121400000D02*
X142500000Y-124600000D01*
X137000000Y-115412500D02*
X137000000Y-119500000D01*
X142500000Y-125700000D02*
X142500000Y-132200000D01*
X142500000Y-111240000D02*
X138200000Y-111240000D01*
X138200000Y-111240000D02*
X138200000Y-116600000D01*
%TO.N,VCC*%
X108500000Y-114750000D02*
X110500000Y-114750000D01*
D37*
X123993504Y-125099653D02*
X121000000Y-125050000D01*
D38*
X125900000Y-131437500D02*
X125900000Y-131600000D01*
D37*
X134300000Y-110250000D02*
X134300000Y-117000000D01*
D36*
X134300000Y-113588000D02*
X137000000Y-113587500D01*
X124100000Y-109860000D02*
X125500000Y-110250000D01*
D37*
X125500000Y-110250000D02*
X135800000Y-110250000D01*
X121000000Y-125050000D02*
X121000000Y-123500000D01*
X108500000Y-114750000D02*
X108500000Y-123500000D01*
X123993504Y-125099653D02*
X125500000Y-126050000D01*
X122700000Y-131600000D02*
X125050000Y-131600000D01*
X108500000Y-123500000D02*
X121000000Y-123500000D01*
X119300000Y-119030000D02*
X119300000Y-123500000D01*
D36*
X132700000Y-115437500D02*
X132700000Y-116800000D01*
X123700000Y-131600000D02*
X123700000Y-132400000D01*
%TO.N,/VIN*%
D39*
X106500000Y-124500000D02*
X109500000Y-125500000D01*
X104800000Y-122500000D02*
X106500000Y-124500000D01*
%TO.N,/VIN_SW*%
X109500000Y-128040000D02*
X113000000Y-128040000D01*
%TO.N,/LEDK*%
D37*
X130980000Y-103600000D02*
X132000000Y-105500000D01*
X122980000Y-103600000D02*
X124000000Y-105500000D01*
X117500000Y-103600000D02*
X130980000Y-103600000D01*
X117500000Y-103600000D02*
X117500000Y-108500000D01*
%TO.N,/N_LED2A*%
D36*
X127800000Y-107900000D02*
X125030000Y-107900000D01*
X127800000Y-108600000D02*
X127800000Y-107900000D01*
X125030000Y-107900000D02*
X126540000Y-105500000D01*
%TO.N,/N_KICK*%
X138000000Y-125700000D02*
X138000000Y-132200000D01*
X138000000Y-125150000D02*
X138000000Y-125200000D01*
%TO.N,/TRIG_THR*%
X126000000Y-120040000D02*
X128700000Y-120040000D01*
X128700000Y-122580000D02*
X132600000Y-122580000D01*
X133620000Y-122580000D02*
X140300000Y-122582500D01*
X138000000Y-122050000D02*
X138000000Y-122580000D01*
X139000000Y-120040000D02*
X139000000Y-122580000D01*
X128700000Y-120040000D02*
X128700000Y-128687500D01*
%TO.N,/BLINK*%
X122412500Y-111900000D02*
X122410000Y-113500000D01*
X122410000Y-113500000D02*
X123700000Y-114800000D01*
X123700000Y-114800000D02*
X123700000Y-121600000D01*
X123700000Y-121600000D02*
X124800000Y-122580000D01*
X124800000Y-122580000D02*
X126000000Y-122580000D01*
%TO.N,/N_CV*%
X134300000Y-126637500D02*
X134300000Y-125600000D01*
%TO.N,/N_LED3A*%
X133030000Y-107900000D02*
X134540000Y-105500000D01*
X135800000Y-107900000D02*
X133030000Y-107900000D01*
X135800000Y-108050000D02*
X135800000Y-107900000D01*
%TO.N,/N_U2AIN*%
D38*
X128700000Y-134135000D02*
X129750000Y-134135000D01*
X128700000Y-130512500D02*
X128700000Y-134135000D01*
%TO.N,/N_U2AOUT*%
D36*
X135750000Y-131595000D02*
X135750000Y-136000000D01*
X130675000Y-131595000D02*
X135750000Y-131595000D01*
%TO.N,/VHALF*%
X123700000Y-134612500D02*
X122000000Y-133600000D01*
X133300000Y-138350000D02*
X133300000Y-132865000D01*
X123700000Y-134612500D02*
X123700000Y-138350000D01*
X123700000Y-138350000D02*
X133300000Y-138350000D01*
X133300000Y-132865000D02*
X131500000Y-132865000D01*
%TO.N,/N_U2BFB*%
D38*
X125725000Y-134135000D02*
X127450000Y-134135000D01*
X127450000Y-134135000D02*
X127450000Y-132865000D01*
X127450000Y-132865000D02*
X125725000Y-132865000D01*
%TO.N,/N_LED1*%
D36*
X110500000Y-117850000D02*
X110500000Y-119775000D01*
%TO.N,/N_LED4A*%
X138850000Y-136450000D02*
X139600000Y-136875000D01*
%TO.N,/N_Q1B*%
X118450000Y-111500000D02*
X120587500Y-111900000D01*
%TO.N,/LADDER_040*%
D40*
X147800000Y-108000000D02*
X147800000Y-111500000D01*
X147000000Y-108000000D02*
X147800000Y-108000000D01*
X148600000Y-108000000D02*
X149400000Y-108000000D01*
X146200000Y-111500000D02*
X147000000Y-111500000D01*
X150200000Y-111500000D02*
X150200000Y-108000000D01*
X147000000Y-111500000D02*
X147000000Y-108000000D01*
X147800000Y-111500000D02*
X148600000Y-111500000D01*
X150200000Y-108000000D02*
X151000000Y-108000000D01*
X151800000Y-111500000D02*
X151800000Y-108000000D01*
X146200000Y-108000000D02*
X146200000Y-111500000D01*
X144900000Y-109750000D02*
X146200000Y-109750000D01*
X151000000Y-111500000D02*
X151800000Y-111500000D01*
X151800000Y-109750000D02*
X153100000Y-109750000D01*
X149400000Y-108000000D02*
X149400000Y-111500000D01*
X148600000Y-111500000D02*
X148600000Y-108000000D01*
X146200000Y-109750000D02*
X146200000Y-108000000D01*
X151000000Y-108000000D02*
X151000000Y-111500000D01*
X149400000Y-111500000D02*
X150200000Y-111500000D01*
X151800000Y-108000000D02*
X151800000Y-109750000D01*
%TO.N,/LADDER_060*%
D36*
X146600000Y-119000000D02*
X146600000Y-121900000D01*
X144900000Y-120450000D02*
X146600000Y-120450000D01*
X146600000Y-120450000D02*
X146600000Y-119000000D01*
X147800000Y-119000000D02*
X149000000Y-119000000D01*
X147800000Y-121900000D02*
X147800000Y-119000000D01*
X151400000Y-121900000D02*
X151400000Y-120450000D01*
X146600000Y-121900000D02*
X147800000Y-121900000D01*
X149000000Y-119000000D02*
X149000000Y-121900000D01*
X150200000Y-119000000D02*
X151400000Y-119000000D01*
X150200000Y-121900000D02*
X150200000Y-119000000D01*
X151400000Y-119000000D02*
X151400000Y-121900000D01*
X151400000Y-120450000D02*
X153100000Y-120450000D01*
X149000000Y-121900000D02*
X150200000Y-121900000D01*
%TO.N,/LADDER_050*%
D38*
X146400000Y-117200000D02*
X147400000Y-117200000D01*
X146400000Y-113600000D02*
X146400000Y-117200000D01*
X146400000Y-115400000D02*
X146400000Y-113600000D01*
X150400000Y-113600000D02*
X150400000Y-117200000D01*
X144900000Y-115400000D02*
X146400000Y-115400000D01*
X147400000Y-117200000D02*
X147400000Y-113600000D01*
X149400000Y-113600000D02*
X150400000Y-113600000D01*
X150400000Y-117200000D02*
X151400000Y-117200000D01*
X151400000Y-115400000D02*
X153100000Y-115400000D01*
X148400000Y-113600000D02*
X148400000Y-117200000D01*
X151400000Y-117200000D02*
X151400000Y-113600000D01*
X151400000Y-113600000D02*
X151400000Y-115400000D01*
X148400000Y-117200000D02*
X149400000Y-117200000D01*
X149400000Y-117200000D02*
X149400000Y-113600000D01*
X147400000Y-113600000D02*
X148400000Y-113600000D01*
%TO.N,/VF*%
D39*
X121000000Y-128040000D02*
X121000000Y-127350000D01*
X119800000Y-128040000D02*
X119500000Y-131262500D01*
X119800000Y-128040000D02*
X121000000Y-128040000D01*
X118000000Y-128040000D02*
X119800000Y-128040000D01*
%TD*%
%TA.AperFunction,Conductor*%
%TO.N,GND*%
G36*
X154246288Y-100618954D02*
G01*
X154327070Y-100672930D01*
X154381046Y-100753712D01*
X154400000Y-100849000D01*
X154400000Y-106151000D01*
X154381046Y-106246288D01*
X154327070Y-106327070D01*
X154246288Y-106381046D01*
X154151000Y-106400000D01*
X153868044Y-106400000D01*
X153772756Y-106381046D01*
X153691974Y-106327070D01*
X153637998Y-106246288D01*
X153619044Y-106151000D01*
X153637998Y-106055712D01*
X153691971Y-105974933D01*
X153800000Y-105866905D01*
X153800000Y-103133095D01*
X151866905Y-101200000D01*
X149133095Y-101200000D01*
X147200000Y-103133095D01*
X147200000Y-105866905D01*
X147308028Y-105974933D01*
X147362002Y-106055712D01*
X147380956Y-106151000D01*
X147362002Y-106246288D01*
X147308026Y-106327070D01*
X147227244Y-106381046D01*
X147131956Y-106400000D01*
X143300000Y-106400000D01*
X143300000Y-106400001D01*
X143300000Y-109632070D01*
X143281046Y-109727358D01*
X143227070Y-109808140D01*
X143146288Y-109862116D01*
X143051000Y-109881070D01*
X142974056Y-109868883D01*
X142839659Y-109825215D01*
X142614168Y-109789501D01*
X142614159Y-109789500D01*
X142614157Y-109789500D01*
X142385843Y-109789500D01*
X142385840Y-109789500D01*
X142385831Y-109789501D01*
X142160343Y-109825215D01*
X141943205Y-109895767D01*
X141943200Y-109895769D01*
X141739775Y-109999418D01*
X141739774Y-109999419D01*
X141739772Y-109999421D01*
X141656083Y-110060225D01*
X141555065Y-110133619D01*
X141393619Y-110295065D01*
X141392182Y-110297043D01*
X141290598Y-110436860D01*
X141219257Y-110502808D01*
X141128107Y-110536434D01*
X141089155Y-110539500D01*
X138131002Y-110539500D01*
X137995675Y-110566418D01*
X137995672Y-110566419D01*
X137868191Y-110619224D01*
X137868187Y-110619225D01*
X137753461Y-110695883D01*
X137655883Y-110793461D01*
X137579225Y-110908187D01*
X137554546Y-110967770D01*
X137500569Y-111048551D01*
X137419788Y-111102527D01*
X137324500Y-111121481D01*
X137229211Y-111102527D01*
X137148430Y-111048550D01*
X137094454Y-110967769D01*
X137075500Y-110872481D01*
X137075500Y-110684308D01*
X137075499Y-110684295D01*
X137072598Y-110647436D01*
X137072598Y-110647431D01*
X137026744Y-110489602D01*
X136943081Y-110348135D01*
X136826865Y-110231919D01*
X136685398Y-110148256D01*
X136685396Y-110148255D01*
X136675996Y-110142696D01*
X136603626Y-110077876D01*
X136572701Y-110023658D01*
X136509396Y-109870826D01*
X136509393Y-109870819D01*
X136421791Y-109739714D01*
X136421789Y-109739711D01*
X136310289Y-109628211D01*
X136203020Y-109556536D01*
X136134321Y-109487837D01*
X136097141Y-109398077D01*
X136097141Y-109300922D01*
X136134321Y-109211163D01*
X136203020Y-109142464D01*
X136292780Y-109105284D01*
X136341357Y-109100500D01*
X136490692Y-109100500D01*
X136490694Y-109100500D01*
X136527569Y-109097598D01*
X136685398Y-109051744D01*
X136826865Y-108968081D01*
X136943081Y-108851865D01*
X137026744Y-108710398D01*
X137072598Y-108552569D01*
X137075500Y-108515694D01*
X137075500Y-107584306D01*
X137072598Y-107547431D01*
X137026744Y-107389602D01*
X136943081Y-107248135D01*
X136826865Y-107131919D01*
X136685398Y-107048256D01*
X136527569Y-107002402D01*
X136527566Y-107002401D01*
X136527563Y-107002401D01*
X136490704Y-106999500D01*
X136490694Y-106999500D01*
X135692955Y-106999500D01*
X135597667Y-106980546D01*
X135516885Y-106926570D01*
X135462909Y-106845788D01*
X135443955Y-106750500D01*
X135462909Y-106655212D01*
X135516882Y-106574433D01*
X135646379Y-106444937D01*
X135780579Y-106260228D01*
X135884231Y-106056799D01*
X135954784Y-105839660D01*
X135990500Y-105614157D01*
X135990500Y-105385843D01*
X135954784Y-105160340D01*
X135884231Y-104943201D01*
X135780579Y-104739772D01*
X135646379Y-104555063D01*
X135484937Y-104393621D01*
X135300228Y-104259421D01*
X135300224Y-104259419D01*
X135300224Y-104259418D01*
X135096799Y-104155769D01*
X135096794Y-104155767D01*
X134976048Y-104116534D01*
X134879660Y-104085216D01*
X134879658Y-104085215D01*
X134879656Y-104085215D01*
X134654168Y-104049501D01*
X134654159Y-104049500D01*
X134654157Y-104049500D01*
X134425843Y-104049500D01*
X134425840Y-104049500D01*
X134425831Y-104049501D01*
X134200343Y-104085215D01*
X133983205Y-104155767D01*
X133983200Y-104155769D01*
X133779775Y-104259418D01*
X133779774Y-104259419D01*
X133779772Y-104259421D01*
X133696083Y-104320225D01*
X133595065Y-104393619D01*
X133595063Y-104393620D01*
X133595063Y-104393621D01*
X133446066Y-104542617D01*
X133365288Y-104596591D01*
X133270000Y-104615545D01*
X133174712Y-104596591D01*
X133093933Y-104542617D01*
X132944937Y-104393621D01*
X132760228Y-104259421D01*
X132760224Y-104259419D01*
X132760224Y-104259418D01*
X132556799Y-104155769D01*
X132556794Y-104155767D01*
X132339663Y-104085217D01*
X132339660Y-104085216D01*
X132339657Y-104085215D01*
X132339651Y-104085214D01*
X132253332Y-104071542D01*
X132162182Y-104037915D01*
X132090840Y-103971965D01*
X132072901Y-103943383D01*
X131846233Y-103521158D01*
X131704237Y-103256655D01*
X131689394Y-103220821D01*
X131667037Y-103187361D01*
X131648002Y-103151904D01*
X131631257Y-103131576D01*
X131631257Y-103131575D01*
X131623335Y-103121957D01*
X131601789Y-103089711D01*
X131573334Y-103061256D01*
X131547747Y-103030193D01*
X131527359Y-103013523D01*
X131508915Y-102996836D01*
X131490293Y-102978214D01*
X131490288Y-102978210D01*
X131466802Y-102962517D01*
X131466802Y-102962516D01*
X131456820Y-102955846D01*
X131425674Y-102930380D01*
X131391433Y-102912157D01*
X131381075Y-102905236D01*
X131381074Y-102905235D01*
X131359182Y-102890608D01*
X131359172Y-102890602D01*
X131333086Y-102879797D01*
X131333086Y-102879798D01*
X131321995Y-102875204D01*
X131286474Y-102856300D01*
X131249335Y-102845107D01*
X131237820Y-102840337D01*
X131237818Y-102840336D01*
X131213497Y-102830262D01*
X131185790Y-102824751D01*
X131185790Y-102824750D01*
X131174012Y-102822407D01*
X131135496Y-102810800D01*
X131096899Y-102807068D01*
X131084688Y-102804639D01*
X131084684Y-102804639D01*
X131058846Y-102799500D01*
X131058842Y-102799500D01*
X131018598Y-102799500D01*
X130978543Y-102795628D01*
X130939947Y-102799500D01*
X123030608Y-102799500D01*
X123006650Y-102798345D01*
X122978548Y-102795628D01*
X122978537Y-102795628D01*
X122952346Y-102798256D01*
X122927492Y-102799500D01*
X117421153Y-102799500D01*
X117266507Y-102830261D01*
X117266502Y-102830263D01*
X117120826Y-102890603D01*
X117120819Y-102890606D01*
X116989714Y-102978208D01*
X116878208Y-103089714D01*
X116790606Y-103220819D01*
X116790603Y-103220826D01*
X116730263Y-103366502D01*
X116730261Y-103366507D01*
X116699500Y-103521153D01*
X116699500Y-109289360D01*
X116699501Y-109289362D01*
X116714955Y-109406761D01*
X116741345Y-109470472D01*
X116775464Y-109552841D01*
X116871718Y-109678282D01*
X116871722Y-109678285D01*
X116871723Y-109678286D01*
X116931859Y-109724430D01*
X116997159Y-109774536D01*
X117143238Y-109835044D01*
X117260639Y-109850500D01*
X117702291Y-109850499D01*
X117797580Y-109869453D01*
X117878361Y-109923429D01*
X117932338Y-110004210D01*
X117951292Y-110099498D01*
X117932338Y-110194787D01*
X117878362Y-110275568D01*
X117853874Y-110297043D01*
X117821725Y-110321711D01*
X117821713Y-110321723D01*
X117725466Y-110447155D01*
X117664955Y-110593239D01*
X117649500Y-110710637D01*
X117649500Y-112289360D01*
X117649501Y-112289362D01*
X117664955Y-112406761D01*
X117691345Y-112470472D01*
X117725464Y-112552841D01*
X117725465Y-112552843D01*
X117725466Y-112552844D01*
X117761417Y-112599697D01*
X117821718Y-112678282D01*
X117821722Y-112678285D01*
X117821723Y-112678286D01*
X117911689Y-112747319D01*
X117947159Y-112774536D01*
X118093238Y-112835044D01*
X118210639Y-112850500D01*
X118689360Y-112850499D01*
X118806762Y-112835044D01*
X118952841Y-112774536D01*
X119078282Y-112678282D01*
X119174536Y-112552841D01*
X119175885Y-112549583D01*
X119179793Y-112543733D01*
X119182694Y-112538710D01*
X119183023Y-112538900D01*
X119188729Y-112530358D01*
X119197337Y-112508892D01*
X119215454Y-112490359D01*
X119229854Y-112468806D01*
X119249086Y-112455954D01*
X119265252Y-112439418D01*
X119289081Y-112429228D01*
X119310634Y-112414827D01*
X119333317Y-112410314D01*
X119354583Y-112401221D01*
X119380499Y-112400926D01*
X119405921Y-112395869D01*
X119451730Y-112400117D01*
X119681183Y-112443056D01*
X119771356Y-112479212D01*
X119817314Y-112521547D01*
X119818297Y-112520565D01*
X119829372Y-112531640D01*
X119829374Y-112531643D01*
X119943357Y-112645626D01*
X120082106Y-112727681D01*
X120236902Y-112772654D01*
X120273065Y-112775500D01*
X120901934Y-112775499D01*
X120938098Y-112772654D01*
X121092894Y-112727681D01*
X121231643Y-112645626D01*
X121285574Y-112591694D01*
X121366352Y-112537720D01*
X121461640Y-112518765D01*
X121556928Y-112537718D01*
X121637710Y-112591694D01*
X121691687Y-112672475D01*
X121710642Y-112767763D01*
X121710642Y-112768154D01*
X121709501Y-113498152D01*
X121709501Y-113498237D01*
X121709239Y-113566289D01*
X121709394Y-113567085D01*
X121709393Y-113567898D01*
X121709396Y-113567913D01*
X121722451Y-113634085D01*
X121722506Y-113634655D01*
X121722561Y-113634645D01*
X121735637Y-113701732D01*
X121735866Y-113702498D01*
X121735883Y-113702554D01*
X121736089Y-113703243D01*
X121736101Y-113703274D01*
X121736102Y-113703275D01*
X121762102Y-113766326D01*
X121762205Y-113766577D01*
X121787952Y-113829420D01*
X121788474Y-113830405D01*
X121788595Y-113830633D01*
X121788695Y-113830822D01*
X121788705Y-113830838D01*
X121788707Y-113830841D01*
X121826491Y-113887579D01*
X121864166Y-113944439D01*
X121864736Y-113945013D01*
X121865183Y-113945684D01*
X121865187Y-113945688D01*
X121865189Y-113945691D01*
X121892085Y-113972671D01*
X121912896Y-113993549D01*
X121913295Y-113993950D01*
X122927248Y-115015761D01*
X122980912Y-115096751D01*
X122999500Y-115191150D01*
X122999500Y-121551334D01*
X122996689Y-121571467D01*
X122999500Y-121620188D01*
X122999500Y-121668993D01*
X123000091Y-121671965D01*
X123004461Y-121706186D01*
X123004636Y-121709220D01*
X123004636Y-121709225D01*
X123015095Y-121749517D01*
X123018295Y-121763486D01*
X123026420Y-121804328D01*
X123026421Y-121804330D01*
X123027578Y-121807123D01*
X123027580Y-121807129D01*
X123032426Y-121818830D01*
X123034199Y-121823109D01*
X123039307Y-121842785D01*
X123060540Y-121886706D01*
X123063288Y-121893340D01*
X123079222Y-121931805D01*
X123079229Y-121931818D01*
X123080904Y-121934325D01*
X123098049Y-121964290D01*
X123099366Y-121967015D01*
X123099368Y-121967017D01*
X123124452Y-122000243D01*
X123124453Y-122000243D01*
X123128774Y-122005966D01*
X123155886Y-122046542D01*
X123170258Y-122060914D01*
X123180682Y-122074721D01*
X123180686Y-122074726D01*
X123182506Y-122077138D01*
X123182508Y-122077139D01*
X123182509Y-122077141D01*
X123213622Y-122104860D01*
X123224001Y-122114657D01*
X123253458Y-122144114D01*
X123253461Y-122144116D01*
X123255975Y-122145796D01*
X123283276Y-122166915D01*
X124295824Y-123069003D01*
X124318951Y-123089607D01*
X124353458Y-123124114D01*
X124370355Y-123135403D01*
X124383275Y-123146914D01*
X124383277Y-123146917D01*
X124383281Y-123146920D01*
X124385534Y-123148927D01*
X124385538Y-123148930D01*
X124427613Y-123173663D01*
X124468189Y-123200775D01*
X124486966Y-123208553D01*
X124504494Y-123218856D01*
X124504495Y-123218856D01*
X124512412Y-123223510D01*
X124584954Y-123288138D01*
X124598543Y-123308079D01*
X124600959Y-123312022D01*
X124634581Y-123403173D01*
X124630762Y-123500253D01*
X124590083Y-123588482D01*
X124518736Y-123654427D01*
X124427585Y-123688049D01*
X124343091Y-123684729D01*
X124342827Y-123686399D01*
X124107672Y-123649154D01*
X124107663Y-123649153D01*
X124107661Y-123649153D01*
X123879347Y-123649153D01*
X123879344Y-123649153D01*
X123879335Y-123649154D01*
X123653847Y-123684868D01*
X123436709Y-123755420D01*
X123436704Y-123755422D01*
X123233279Y-123859071D01*
X123233278Y-123859072D01*
X123233276Y-123859074D01*
X123149587Y-123919878D01*
X123048569Y-123993272D01*
X122887121Y-124154720D01*
X122872792Y-124174442D01*
X122801447Y-124240388D01*
X122710296Y-124274013D01*
X122667222Y-124277043D01*
X122045371Y-124266729D01*
X121950410Y-124246197D01*
X121870535Y-124190888D01*
X121817905Y-124109223D01*
X121800500Y-124017763D01*
X121800500Y-123421158D01*
X121800499Y-123421153D01*
X121769738Y-123266507D01*
X121769737Y-123266505D01*
X121769737Y-123266503D01*
X121709394Y-123120821D01*
X121707252Y-123117616D01*
X121621791Y-122989714D01*
X121621789Y-122989711D01*
X121510289Y-122878211D01*
X121510285Y-122878208D01*
X121379180Y-122790606D01*
X121379173Y-122790603D01*
X121233497Y-122730263D01*
X121233492Y-122730261D01*
X121078846Y-122699500D01*
X121078842Y-122699500D01*
X120349500Y-122699500D01*
X120254212Y-122680546D01*
X120173430Y-122626570D01*
X120119454Y-122545788D01*
X120100500Y-122450500D01*
X120100500Y-120368191D01*
X120119454Y-120272903D01*
X120173430Y-120192121D01*
X120203142Y-120166745D01*
X120205973Y-120164687D01*
X120244937Y-120136379D01*
X120406379Y-119974937D01*
X120540579Y-119790228D01*
X120644231Y-119586799D01*
X120714784Y-119369660D01*
X120750500Y-119144157D01*
X120750500Y-118915843D01*
X120714784Y-118690340D01*
X120644231Y-118473201D01*
X120582763Y-118352563D01*
X120540581Y-118269775D01*
X120540580Y-118269774D01*
X120540579Y-118269772D01*
X120406379Y-118085063D01*
X120244937Y-117923621D01*
X120060228Y-117789421D01*
X120060224Y-117789419D01*
X120060224Y-117789418D01*
X119856799Y-117685769D01*
X119856794Y-117685767D01*
X119736048Y-117646534D01*
X119639660Y-117615216D01*
X119639658Y-117615215D01*
X119639656Y-117615215D01*
X119414168Y-117579501D01*
X119414159Y-117579500D01*
X119414157Y-117579500D01*
X119185843Y-117579500D01*
X119185840Y-117579500D01*
X119185831Y-117579501D01*
X118960343Y-117615215D01*
X118743205Y-117685767D01*
X118743200Y-117685769D01*
X118539775Y-117789418D01*
X118539774Y-117789419D01*
X118539772Y-117789421D01*
X118456083Y-117850225D01*
X118355065Y-117923619D01*
X118193619Y-118085065D01*
X118059420Y-118269774D01*
X118059418Y-118269775D01*
X117955769Y-118473200D01*
X117955767Y-118473205D01*
X117885215Y-118690343D01*
X117849501Y-118915831D01*
X117849500Y-118915847D01*
X117849500Y-119144152D01*
X117849501Y-119144168D01*
X117885215Y-119369656D01*
X117885216Y-119369660D01*
X117901321Y-119419225D01*
X117955767Y-119586794D01*
X117955769Y-119586799D01*
X118059418Y-119790224D01*
X118059419Y-119790224D01*
X118059421Y-119790228D01*
X118193621Y-119974937D01*
X118355063Y-120136379D01*
X118355066Y-120136381D01*
X118355067Y-120136382D01*
X118396858Y-120166745D01*
X118462807Y-120238088D01*
X118496434Y-120329238D01*
X118499500Y-120368191D01*
X118499500Y-122250500D01*
X118480546Y-122345788D01*
X118426570Y-122426570D01*
X118345788Y-122480546D01*
X118250500Y-122499500D01*
X117698075Y-122499500D01*
X117698061Y-122499501D01*
X117661903Y-122502345D01*
X117507105Y-122547319D01*
X117368356Y-122629374D01*
X117355981Y-122638974D01*
X117354826Y-122637485D01*
X117290380Y-122680546D01*
X117195092Y-122699500D01*
X116298549Y-122699500D01*
X116203261Y-122680546D01*
X116122479Y-122626570D01*
X116084224Y-122577251D01*
X116076744Y-122564604D01*
X116076744Y-122564602D01*
X115993081Y-122423135D01*
X115876865Y-122306919D01*
X115735398Y-122223256D01*
X115577569Y-122177402D01*
X115577566Y-122177401D01*
X115577563Y-122177401D01*
X115540704Y-122174500D01*
X115540694Y-122174500D01*
X114459306Y-122174500D01*
X114459295Y-122174500D01*
X114422436Y-122177401D01*
X114422427Y-122177403D01*
X114264601Y-122223256D01*
X114215915Y-122252049D01*
X114123135Y-122306919D01*
X114006919Y-122423135D01*
X113923256Y-122564602D01*
X113923255Y-122564603D01*
X113915776Y-122577251D01*
X113850956Y-122649621D01*
X113763375Y-122691677D01*
X113701451Y-122699500D01*
X109549500Y-122699500D01*
X109454212Y-122680546D01*
X109373430Y-122626570D01*
X109319454Y-122545788D01*
X109300500Y-122450500D01*
X109300500Y-120849033D01*
X109319454Y-120753745D01*
X109373430Y-120672963D01*
X109454212Y-120618987D01*
X109549500Y-120600033D01*
X109644788Y-120618987D01*
X109676243Y-120634704D01*
X109789602Y-120701744D01*
X109947431Y-120747598D01*
X109984306Y-120750500D01*
X109984308Y-120750500D01*
X111015692Y-120750500D01*
X111015694Y-120750500D01*
X111052569Y-120747598D01*
X111210398Y-120701744D01*
X111351865Y-120618081D01*
X111468081Y-120501865D01*
X111551744Y-120360398D01*
X111597598Y-120202569D01*
X111600500Y-120165694D01*
X111600500Y-119384306D01*
X111597598Y-119347431D01*
X111551744Y-119189602D01*
X111484168Y-119075337D01*
X111451978Y-118983676D01*
X111457316Y-118886667D01*
X111499372Y-118799086D01*
X111522425Y-118772520D01*
X111526862Y-118768082D01*
X111526865Y-118768081D01*
X111643081Y-118651865D01*
X111726744Y-118510398D01*
X111772598Y-118352569D01*
X111775500Y-118315694D01*
X111775500Y-117384306D01*
X111772598Y-117347431D01*
X111726744Y-117189602D01*
X111643081Y-117048135D01*
X111526865Y-116931919D01*
X111385398Y-116848256D01*
X111227569Y-116802402D01*
X111227566Y-116802401D01*
X111227563Y-116802401D01*
X111190704Y-116799500D01*
X111190694Y-116799500D01*
X109809306Y-116799500D01*
X109809295Y-116799500D01*
X109772436Y-116802401D01*
X109772424Y-116802403D01*
X109618969Y-116846987D01*
X109522177Y-116855370D01*
X109429544Y-116826075D01*
X109355173Y-116763560D01*
X109310387Y-116677343D01*
X109300500Y-116607874D01*
X109300500Y-115992125D01*
X109319454Y-115896837D01*
X109373430Y-115816055D01*
X109454212Y-115762079D01*
X109549500Y-115743125D01*
X109618962Y-115753010D01*
X109772431Y-115797598D01*
X109809306Y-115800500D01*
X109809308Y-115800500D01*
X111190692Y-115800500D01*
X111190694Y-115800500D01*
X111227569Y-115797598D01*
X111385398Y-115751744D01*
X111526865Y-115668081D01*
X111643081Y-115551865D01*
X111726744Y-115410398D01*
X111772598Y-115252569D01*
X111775500Y-115215694D01*
X111775500Y-114284306D01*
X111772598Y-114247431D01*
X111726744Y-114089602D01*
X111643081Y-113948135D01*
X111526865Y-113831919D01*
X111385398Y-113748256D01*
X111227569Y-113702402D01*
X111227566Y-113702401D01*
X111227563Y-113702401D01*
X111190704Y-113699500D01*
X111190694Y-113699500D01*
X109809306Y-113699500D01*
X109809295Y-113699500D01*
X109772436Y-113702401D01*
X109772427Y-113702403D01*
X109614601Y-113748256D01*
X109473135Y-113831919D01*
X109356918Y-113948136D01*
X109353060Y-113953111D01*
X109341144Y-113963450D01*
X109332379Y-113976570D01*
X109304763Y-113995021D01*
X109279682Y-114016787D01*
X109264715Y-114021780D01*
X109251597Y-114030546D01*
X109219024Y-114037025D01*
X109187521Y-114047536D01*
X109156309Y-114049500D01*
X108950180Y-114049500D01*
X108854895Y-114030547D01*
X108733497Y-113980263D01*
X108733492Y-113980262D01*
X108733490Y-113980261D01*
X108578846Y-113949500D01*
X108578842Y-113949500D01*
X108421158Y-113949500D01*
X108421153Y-113949500D01*
X108266507Y-113980261D01*
X108266502Y-113980263D01*
X108120826Y-114040603D01*
X108120819Y-114040606D01*
X107989714Y-114128208D01*
X107878208Y-114239714D01*
X107790606Y-114370819D01*
X107790603Y-114370826D01*
X107730263Y-114516502D01*
X107730261Y-114516507D01*
X107699500Y-114671153D01*
X107699500Y-123578848D01*
X107699735Y-123581236D01*
X107699500Y-123583620D01*
X107699500Y-123585032D01*
X107700307Y-123587979D01*
X107694645Y-123632885D01*
X107690208Y-123677922D01*
X107688585Y-123680957D01*
X107688155Y-123684371D01*
X107665747Y-123723679D01*
X107644406Y-123763603D01*
X107641745Y-123765786D01*
X107640041Y-123768776D01*
X107604290Y-123796522D01*
X107569301Y-123825235D01*
X107566007Y-123826233D01*
X107563290Y-123828343D01*
X107519634Y-123840298D01*
X107476328Y-123853433D01*
X107472905Y-123853095D01*
X107469585Y-123854005D01*
X107424678Y-123848343D01*
X107379642Y-123843906D01*
X107373193Y-123841853D01*
X107163240Y-123771869D01*
X107078835Y-123723755D01*
X107019268Y-123647004D01*
X106993606Y-123553299D01*
X107005758Y-123456907D01*
X107017641Y-123427606D01*
X107021267Y-123420079D01*
X107110316Y-123165591D01*
X107170312Y-122902732D01*
X107193211Y-122699500D01*
X107200499Y-122634821D01*
X107200500Y-122634808D01*
X107200500Y-122365191D01*
X107200499Y-122365178D01*
X107170312Y-122097268D01*
X107158734Y-122046542D01*
X107110316Y-121834409D01*
X107027384Y-121597402D01*
X107021270Y-121579929D01*
X107021264Y-121579915D01*
X107007500Y-121551334D01*
X106904284Y-121337003D01*
X106904280Y-121336997D01*
X106904279Y-121336994D01*
X106760838Y-121108711D01*
X106680588Y-121008081D01*
X106592734Y-120897915D01*
X106402085Y-120707266D01*
X106212032Y-120555704D01*
X106191288Y-120539161D01*
X105963005Y-120395720D01*
X105962999Y-120395717D01*
X105962997Y-120395716D01*
X105824954Y-120329238D01*
X105720084Y-120278735D01*
X105720070Y-120278729D01*
X105531961Y-120212908D01*
X105465591Y-120189684D01*
X105356969Y-120164891D01*
X105202731Y-120129687D01*
X104934821Y-120099500D01*
X104934809Y-120099500D01*
X104665191Y-120099500D01*
X104665178Y-120099500D01*
X104397268Y-120129687D01*
X104197413Y-120175303D01*
X104134409Y-120189684D01*
X104134406Y-120189684D01*
X104134406Y-120189685D01*
X103879929Y-120278729D01*
X103879915Y-120278735D01*
X103637001Y-120395717D01*
X103636994Y-120395720D01*
X103408711Y-120539161D01*
X103197918Y-120707263D01*
X103197910Y-120707270D01*
X103007270Y-120897910D01*
X103007263Y-120897918D01*
X102839161Y-121108711D01*
X102695720Y-121336994D01*
X102695717Y-121337001D01*
X102578735Y-121579915D01*
X102578729Y-121579929D01*
X102499052Y-121807637D01*
X102489684Y-121834409D01*
X102480092Y-121876434D01*
X102429687Y-122097268D01*
X102399500Y-122365178D01*
X102399500Y-122634821D01*
X102429687Y-122902731D01*
X102464891Y-123056969D01*
X102489684Y-123165591D01*
X102504717Y-123208553D01*
X102578729Y-123420070D01*
X102578735Y-123420084D01*
X102617343Y-123500253D01*
X102695716Y-123662997D01*
X102695717Y-123662998D01*
X102695720Y-123663005D01*
X102839161Y-123891288D01*
X102906028Y-123975136D01*
X103007266Y-124102085D01*
X103197915Y-124292734D01*
X103356746Y-124419397D01*
X103408711Y-124460838D01*
X103636994Y-124604279D01*
X103636997Y-124604280D01*
X103637003Y-124604284D01*
X103879921Y-124721267D01*
X103879926Y-124721268D01*
X103879929Y-124721270D01*
X103905227Y-124730122D01*
X104134409Y-124810316D01*
X104397268Y-124870312D01*
X104665178Y-124900499D01*
X104665191Y-124900500D01*
X104934809Y-124900500D01*
X104934821Y-124900499D01*
X105137780Y-124877630D01*
X105202732Y-124870312D01*
X105415728Y-124821696D01*
X105453608Y-124820634D01*
X105491257Y-124816268D01*
X105501842Y-124819280D01*
X105512842Y-124818972D01*
X105548247Y-124832486D01*
X105584701Y-124842861D01*
X105593327Y-124849694D01*
X105603609Y-124853619D01*
X105660857Y-124903189D01*
X105797319Y-125063732D01*
X105804296Y-125072321D01*
X105842988Y-125122176D01*
X105858240Y-125135404D01*
X105871314Y-125150785D01*
X105925116Y-125193405D01*
X105929298Y-125197032D01*
X105967578Y-125230232D01*
X105976993Y-125238397D01*
X105994536Y-125248397D01*
X106010357Y-125260930D01*
X106071432Y-125292231D01*
X106076238Y-125294971D01*
X106076258Y-125294982D01*
X106131097Y-125326243D01*
X106131654Y-125326428D01*
X106132272Y-125326635D01*
X106132277Y-125326637D01*
X106150254Y-125332629D01*
X106168215Y-125341835D01*
X106234249Y-125360627D01*
X108024807Y-125957479D01*
X108109209Y-126005592D01*
X108167924Y-126080654D01*
X108259421Y-126260228D01*
X108393621Y-126444937D01*
X108542617Y-126593933D01*
X108596591Y-126674712D01*
X108615545Y-126770000D01*
X108596591Y-126865288D01*
X108542617Y-126946066D01*
X108462578Y-127026106D01*
X108393619Y-127095065D01*
X108259420Y-127279774D01*
X108259418Y-127279775D01*
X108155769Y-127483200D01*
X108155767Y-127483205D01*
X108085215Y-127700343D01*
X108049501Y-127925831D01*
X108049500Y-127925847D01*
X108049500Y-128154152D01*
X108049501Y-128154168D01*
X108085215Y-128379656D01*
X108155767Y-128596794D01*
X108155769Y-128596799D01*
X108259418Y-128800224D01*
X108259419Y-128800224D01*
X108259421Y-128800228D01*
X108393621Y-128984937D01*
X108542617Y-129133933D01*
X108596591Y-129214712D01*
X108615545Y-129310000D01*
X108596591Y-129405288D01*
X108542617Y-129486066D01*
X108456030Y-129572654D01*
X108393619Y-129635065D01*
X108259420Y-129819774D01*
X108259418Y-129819775D01*
X108155769Y-130023200D01*
X108155767Y-130023205D01*
X108085215Y-130240343D01*
X108049501Y-130465831D01*
X108049500Y-130465847D01*
X108049500Y-130694152D01*
X108049501Y-130694168D01*
X108085215Y-130919656D01*
X108085216Y-130919660D01*
X108085788Y-130921419D01*
X108155767Y-131136794D01*
X108155769Y-131136799D01*
X108259418Y-131340224D01*
X108259419Y-131340224D01*
X108259421Y-131340228D01*
X108393621Y-131524937D01*
X108555063Y-131686379D01*
X108739772Y-131820579D01*
X108739774Y-131820580D01*
X108739775Y-131820581D01*
X108817921Y-131860398D01*
X108943201Y-131924231D01*
X109160340Y-131994784D01*
X109385843Y-132030500D01*
X109385847Y-132030500D01*
X109614153Y-132030500D01*
X109614157Y-132030500D01*
X109839660Y-131994784D01*
X110056799Y-131924231D01*
X110260228Y-131820579D01*
X110444937Y-131686379D01*
X110606379Y-131524937D01*
X110740579Y-131340228D01*
X110844231Y-131136799D01*
X110914784Y-130919660D01*
X110950500Y-130694157D01*
X110950500Y-130465843D01*
X110914784Y-130240340D01*
X110844231Y-130023201D01*
X110740579Y-129819772D01*
X110606379Y-129635063D01*
X110457382Y-129486066D01*
X110408849Y-129413430D01*
X110403409Y-129405289D01*
X110384455Y-129310001D01*
X110399951Y-129232100D01*
X110403409Y-129214712D01*
X110457385Y-129133931D01*
X110510741Y-129080575D01*
X110575638Y-129015677D01*
X110656416Y-128961703D01*
X110751704Y-128942749D01*
X110846992Y-128961703D01*
X110927774Y-129015679D01*
X110966028Y-129064994D01*
X110981919Y-129091865D01*
X111098135Y-129208081D01*
X111239602Y-129291744D01*
X111397431Y-129337598D01*
X111434306Y-129340500D01*
X111434308Y-129340500D01*
X114565692Y-129340500D01*
X114565694Y-129340500D01*
X114602569Y-129337598D01*
X114760398Y-129291744D01*
X114901865Y-129208081D01*
X115018081Y-129091865D01*
X115101744Y-128950398D01*
X115147598Y-128792569D01*
X115150500Y-128755694D01*
X115150500Y-127324306D01*
X115147598Y-127287431D01*
X115101744Y-127129602D01*
X115018081Y-126988135D01*
X114901865Y-126871919D01*
X114760398Y-126788256D01*
X114602569Y-126742402D01*
X114602566Y-126742401D01*
X114602563Y-126742401D01*
X114565704Y-126739500D01*
X114565694Y-126739500D01*
X111434306Y-126739500D01*
X111434295Y-126739500D01*
X111397436Y-126742401D01*
X111397427Y-126742403D01*
X111239601Y-126788256D01*
X111098135Y-126871919D01*
X110981917Y-126988137D01*
X110966027Y-127015006D01*
X110945156Y-127038306D01*
X110927775Y-127064320D01*
X110913032Y-127074170D01*
X110901206Y-127087374D01*
X110873007Y-127100914D01*
X110846993Y-127118296D01*
X110829604Y-127121754D01*
X110813624Y-127129428D01*
X110782389Y-127131146D01*
X110751705Y-127137250D01*
X110734316Y-127133791D01*
X110716616Y-127134765D01*
X110687100Y-127124399D01*
X110656417Y-127118296D01*
X110641675Y-127108446D01*
X110624949Y-127102572D01*
X110575639Y-127064323D01*
X110457382Y-126946066D01*
X110403409Y-126865288D01*
X110384455Y-126770000D01*
X110403409Y-126674712D01*
X110457382Y-126593933D01*
X110606379Y-126444937D01*
X110740579Y-126260228D01*
X110844231Y-126056799D01*
X110914784Y-125839660D01*
X110950500Y-125614157D01*
X110950500Y-125385843D01*
X110914784Y-125160340D01*
X110844231Y-124943201D01*
X110767218Y-124792054D01*
X110740581Y-124739775D01*
X110708673Y-124695858D01*
X110667999Y-124607627D01*
X110664185Y-124510547D01*
X110697812Y-124419397D01*
X110763761Y-124348054D01*
X110851992Y-124307380D01*
X110910119Y-124300500D01*
X117393026Y-124300500D01*
X117488314Y-124319454D01*
X117492650Y-124321621D01*
X117492722Y-124321457D01*
X117507100Y-124327678D01*
X117507101Y-124327678D01*
X117507106Y-124327681D01*
X117661902Y-124372654D01*
X117698065Y-124375500D01*
X118301934Y-124375499D01*
X118338098Y-124372654D01*
X118492894Y-124327681D01*
X118492898Y-124327678D01*
X118507278Y-124321457D01*
X118508863Y-124325120D01*
X118571846Y-124302990D01*
X118606974Y-124300500D01*
X119221158Y-124300500D01*
X119378842Y-124300500D01*
X119778821Y-124300500D01*
X119874109Y-124319454D01*
X119954891Y-124373430D01*
X120008867Y-124454212D01*
X120027821Y-124549500D01*
X120017934Y-124618969D01*
X120002403Y-124672424D01*
X120002401Y-124672436D01*
X119999500Y-124709295D01*
X119999500Y-125390704D01*
X120002401Y-125427563D01*
X120002401Y-125427566D01*
X120002402Y-125427569D01*
X120048256Y-125585398D01*
X120131919Y-125726865D01*
X120248135Y-125843081D01*
X120389602Y-125926744D01*
X120495388Y-125957478D01*
X120507122Y-125960887D01*
X120593339Y-126005674D01*
X120655853Y-126080045D01*
X120685148Y-126172678D01*
X120676765Y-126269470D01*
X120631978Y-126355687D01*
X120557607Y-126418201D01*
X120507122Y-126439113D01*
X120389601Y-126473256D01*
X120248135Y-126556919D01*
X120131919Y-126673135D01*
X120111959Y-126706886D01*
X120047138Y-126779256D01*
X119959557Y-126821311D01*
X119862549Y-126826649D01*
X119770885Y-126794458D01*
X119760398Y-126788256D01*
X119602569Y-126742402D01*
X119602566Y-126742401D01*
X119602563Y-126742401D01*
X119565704Y-126739500D01*
X119565694Y-126739500D01*
X116434306Y-126739500D01*
X116434295Y-126739500D01*
X116397436Y-126742401D01*
X116397427Y-126742403D01*
X116239601Y-126788256D01*
X116098135Y-126871919D01*
X115981919Y-126988135D01*
X115898256Y-127129601D01*
X115852403Y-127287427D01*
X115852401Y-127287436D01*
X115849500Y-127324295D01*
X115849500Y-128755704D01*
X115852401Y-128792563D01*
X115852401Y-128792566D01*
X115852402Y-128792569D01*
X115898256Y-128950398D01*
X115981919Y-129091865D01*
X116098135Y-129208081D01*
X116239602Y-129291744D01*
X116397431Y-129337598D01*
X116434306Y-129340500D01*
X118501278Y-129340500D01*
X118596566Y-129359454D01*
X118677348Y-129413430D01*
X118731324Y-129494212D01*
X118750278Y-129589500D01*
X118749206Y-129612581D01*
X118688934Y-130259988D01*
X118661229Y-130353109D01*
X118617077Y-130412975D01*
X118506922Y-130523131D01*
X118506919Y-130523134D01*
X118423256Y-130664601D01*
X118377403Y-130822427D01*
X118377401Y-130822436D01*
X118374500Y-130859295D01*
X118374500Y-131665704D01*
X118377401Y-131702563D01*
X118377401Y-131702566D01*
X118377402Y-131702569D01*
X118423256Y-131860398D01*
X118506919Y-132001865D01*
X118623135Y-132118081D01*
X118764602Y-132201744D01*
X118922431Y-132247598D01*
X118959306Y-132250500D01*
X118959308Y-132250500D01*
X120040692Y-132250500D01*
X120040694Y-132250500D01*
X120077569Y-132247598D01*
X120217852Y-132206841D01*
X120314640Y-132198457D01*
X120407273Y-132227752D01*
X120481644Y-132290266D01*
X120488756Y-132299584D01*
X120595046Y-132445879D01*
X120756488Y-132607321D01*
X120866857Y-132687509D01*
X120932803Y-132758850D01*
X120966430Y-132850000D01*
X120962616Y-132947080D01*
X120949023Y-132987829D01*
X120948257Y-132989597D01*
X120902403Y-133147427D01*
X120902401Y-133147436D01*
X120899500Y-133184295D01*
X120899500Y-134015704D01*
X120902401Y-134052563D01*
X120902401Y-134052566D01*
X120902402Y-134052569D01*
X120948256Y-134210398D01*
X121031919Y-134351865D01*
X121148135Y-134468081D01*
X121289602Y-134551744D01*
X121447431Y-134597598D01*
X121484306Y-134600500D01*
X122242368Y-134600500D01*
X122260130Y-134604033D01*
X122278216Y-134603094D01*
X122307344Y-134613424D01*
X122337656Y-134619454D01*
X122369783Y-134635569D01*
X122723702Y-134846359D01*
X122795871Y-134911403D01*
X122835399Y-134990818D01*
X122872319Y-135117894D01*
X122907511Y-135177401D01*
X122962349Y-135270128D01*
X122959436Y-135271850D01*
X122990672Y-135334355D01*
X122999500Y-135400071D01*
X122999500Y-135967561D01*
X122980546Y-136062849D01*
X122964825Y-136094312D01*
X122923257Y-136164600D01*
X122877403Y-136322427D01*
X122877401Y-136322436D01*
X122874500Y-136359295D01*
X122874500Y-137440704D01*
X122877401Y-137477563D01*
X122877403Y-137477572D01*
X122923256Y-137635398D01*
X122964825Y-137705687D01*
X122997016Y-137797354D01*
X122999500Y-137832438D01*
X122999500Y-138418997D01*
X123026418Y-138554324D01*
X123026419Y-138554327D01*
X123079224Y-138681808D01*
X123079225Y-138681812D01*
X123155883Y-138796538D01*
X123155886Y-138796542D01*
X123253458Y-138894114D01*
X123253461Y-138894116D01*
X123368187Y-138970774D01*
X123368189Y-138970775D01*
X123495672Y-139023580D01*
X123495675Y-139023581D01*
X123629203Y-139050141D01*
X123631007Y-139050500D01*
X133368993Y-139050500D01*
X133436660Y-139037040D01*
X133504324Y-139023581D01*
X133504325Y-139023580D01*
X133504328Y-139023580D01*
X133631811Y-138970775D01*
X133746542Y-138894114D01*
X133844114Y-138796542D01*
X133920775Y-138681811D01*
X133973580Y-138554328D01*
X134000500Y-138418993D01*
X134000500Y-132796007D01*
X133973580Y-132660672D01*
X133968437Y-132648256D01*
X133964929Y-132639785D01*
X133945976Y-132544497D01*
X133964931Y-132449209D01*
X134018909Y-132368428D01*
X134099691Y-132314453D01*
X134194976Y-132295500D01*
X134800500Y-132295500D01*
X134895788Y-132314454D01*
X134976570Y-132368430D01*
X135030546Y-132449212D01*
X135049500Y-132544500D01*
X135049500Y-135106308D01*
X135030546Y-135201596D01*
X134976570Y-135282378D01*
X134953118Y-135303054D01*
X134948137Y-135306917D01*
X134831919Y-135423135D01*
X134748256Y-135564601D01*
X134702403Y-135722427D01*
X134702401Y-135722436D01*
X134699500Y-135759295D01*
X134699500Y-137140704D01*
X134702401Y-137177563D01*
X134702401Y-137177566D01*
X134702402Y-137177569D01*
X134748256Y-137335398D01*
X134831919Y-137476865D01*
X134948135Y-137593081D01*
X135089602Y-137676744D01*
X135247431Y-137722598D01*
X135284306Y-137725500D01*
X135284308Y-137725500D01*
X136215692Y-137725500D01*
X136215694Y-137725500D01*
X136252569Y-137722598D01*
X136410398Y-137676744D01*
X136551865Y-137593081D01*
X136668081Y-137476865D01*
X136751744Y-137335398D01*
X136797598Y-137177569D01*
X136800500Y-137140694D01*
X136800500Y-135759306D01*
X136800499Y-135759295D01*
X137799500Y-135759295D01*
X137799500Y-137140704D01*
X137802401Y-137177563D01*
X137802401Y-137177566D01*
X137802402Y-137177569D01*
X137848256Y-137335398D01*
X137931919Y-137476865D01*
X138048135Y-137593081D01*
X138189602Y-137676744D01*
X138347431Y-137722598D01*
X138384306Y-137725500D01*
X138692562Y-137725500D01*
X138787850Y-137744454D01*
X138819309Y-137760173D01*
X138889602Y-137801744D01*
X139047431Y-137847598D01*
X139084306Y-137850500D01*
X139084308Y-137850500D01*
X140115692Y-137850500D01*
X140115694Y-137850500D01*
X140152569Y-137847598D01*
X140310398Y-137801744D01*
X140451865Y-137718081D01*
X140568081Y-137601865D01*
X140651744Y-137460398D01*
X140697598Y-137302569D01*
X140700500Y-137265694D01*
X140700500Y-136484306D01*
X140697598Y-136447431D01*
X140651744Y-136289602D01*
X140568081Y-136148135D01*
X140451865Y-136031919D01*
X140310398Y-135948256D01*
X140152569Y-135902402D01*
X140152567Y-135902401D01*
X140152564Y-135902401D01*
X140116704Y-135899579D01*
X140023197Y-135873207D01*
X139946900Y-135813058D01*
X139899428Y-135728291D01*
X139897129Y-135720817D01*
X139893326Y-135707728D01*
X139851744Y-135564602D01*
X139768081Y-135423135D01*
X139651865Y-135306919D01*
X139510398Y-135223256D01*
X139352569Y-135177402D01*
X139352566Y-135177401D01*
X139352563Y-135177401D01*
X139315704Y-135174500D01*
X139315694Y-135174500D01*
X138384306Y-135174500D01*
X138384295Y-135174500D01*
X138347436Y-135177401D01*
X138347427Y-135177403D01*
X138189601Y-135223256D01*
X138048135Y-135306919D01*
X137931919Y-135423135D01*
X137848256Y-135564601D01*
X137802403Y-135722427D01*
X137802401Y-135722436D01*
X137799500Y-135759295D01*
X136800499Y-135759295D01*
X136797598Y-135722431D01*
X136751744Y-135564602D01*
X136668081Y-135423135D01*
X136551865Y-135306919D01*
X136551862Y-135306917D01*
X136546882Y-135303054D01*
X136483208Y-135229673D01*
X136452463Y-135137511D01*
X136450500Y-135106308D01*
X136450500Y-133444377D01*
X136469454Y-133349089D01*
X136523430Y-133268307D01*
X136604212Y-133214331D01*
X136699500Y-133195377D01*
X136794788Y-133214331D01*
X136875566Y-133268304D01*
X136989917Y-133382655D01*
X137187361Y-133526106D01*
X137404815Y-133636904D01*
X137636924Y-133712321D01*
X137713818Y-133724500D01*
X137877963Y-133750499D01*
X137877970Y-133750499D01*
X137877973Y-133750500D01*
X137877976Y-133750500D01*
X138122024Y-133750500D01*
X138122027Y-133750500D01*
X138122030Y-133750499D01*
X138122036Y-133750499D01*
X138268213Y-133727346D01*
X138363076Y-133712321D01*
X138595185Y-133636904D01*
X138812639Y-133526106D01*
X139010083Y-133382655D01*
X139182655Y-133210083D01*
X139326106Y-133012639D01*
X139436904Y-132795185D01*
X139512321Y-132563076D01*
X139537035Y-132407041D01*
X139550499Y-132322036D01*
X139550500Y-132322024D01*
X139550500Y-132077975D01*
X139550499Y-132077963D01*
X139512321Y-131836926D01*
X139512321Y-131836924D01*
X139436904Y-131604815D01*
X139326106Y-131387361D01*
X139182655Y-131189917D01*
X139010083Y-131017345D01*
X138982668Y-130997427D01*
X138804724Y-130868143D01*
X138806312Y-130865956D01*
X138747992Y-130811999D01*
X138707355Y-130723751D01*
X138700500Y-130665727D01*
X138700500Y-127234271D01*
X138719454Y-127138983D01*
X138773430Y-127058201D01*
X138805500Y-127032924D01*
X138804724Y-127031856D01*
X138812636Y-127026107D01*
X138812639Y-127026106D01*
X139010083Y-126882655D01*
X139182655Y-126710083D01*
X139326106Y-126512639D01*
X139436904Y-126295185D01*
X139512321Y-126063076D01*
X139541993Y-125875738D01*
X139550499Y-125822036D01*
X139550500Y-125822024D01*
X139550500Y-125577975D01*
X139550499Y-125577963D01*
X139512321Y-125336926D01*
X139512321Y-125336924D01*
X139436904Y-125104815D01*
X139326106Y-124887361D01*
X139325610Y-124886678D01*
X139323049Y-124883152D01*
X139321598Y-124880004D01*
X139320993Y-124879017D01*
X139321109Y-124878945D01*
X139282377Y-124794920D01*
X139275500Y-124736802D01*
X139275500Y-124684308D01*
X139275499Y-124684295D01*
X139272598Y-124647436D01*
X139272598Y-124647431D01*
X139226744Y-124489602D01*
X139143081Y-124348135D01*
X139026865Y-124231919D01*
X138885398Y-124148256D01*
X138727569Y-124102402D01*
X138727566Y-124102401D01*
X138727563Y-124102401D01*
X138690704Y-124099500D01*
X138690694Y-124099500D01*
X137309306Y-124099500D01*
X137309295Y-124099500D01*
X137272436Y-124102401D01*
X137272427Y-124102403D01*
X137114601Y-124148256D01*
X136973135Y-124231919D01*
X136856919Y-124348135D01*
X136773256Y-124489601D01*
X136727403Y-124647427D01*
X136727401Y-124647436D01*
X136724500Y-124684295D01*
X136724500Y-124736802D01*
X136705546Y-124832090D01*
X136676951Y-124883152D01*
X136673899Y-124887353D01*
X136673897Y-124887356D01*
X136673894Y-124887361D01*
X136611520Y-125009778D01*
X136563094Y-125104819D01*
X136487678Y-125336926D01*
X136449500Y-125577963D01*
X136449500Y-125822036D01*
X136487678Y-126063073D01*
X136554740Y-126269470D01*
X136563096Y-126295185D01*
X136673894Y-126512639D01*
X136817345Y-126710083D01*
X136989917Y-126882655D01*
X137187361Y-127026106D01*
X137187363Y-127026107D01*
X137195276Y-127031856D01*
X137193676Y-127034058D01*
X137251915Y-127087871D01*
X137292608Y-127176093D01*
X137299500Y-127234271D01*
X137299500Y-130665727D01*
X137280546Y-130761015D01*
X137226570Y-130841797D01*
X137194506Y-130867083D01*
X137195276Y-130868143D01*
X136989920Y-131017342D01*
X136817341Y-131189921D01*
X136769206Y-131256173D01*
X136697862Y-131322122D01*
X136606712Y-131355748D01*
X136509632Y-131351933D01*
X136421402Y-131311257D01*
X136360726Y-131248150D01*
X136294116Y-131148461D01*
X136294114Y-131148458D01*
X136196542Y-131050886D01*
X136196538Y-131050883D01*
X136081812Y-130974225D01*
X136081809Y-130974224D01*
X136044470Y-130958758D01*
X135954327Y-130921419D01*
X135954324Y-130921418D01*
X135818997Y-130894500D01*
X135818993Y-130894500D01*
X131543102Y-130894500D01*
X129824500Y-130894500D01*
X129729212Y-130875546D01*
X129648430Y-130821570D01*
X129594454Y-130740788D01*
X129575500Y-130645501D01*
X129575499Y-130198075D01*
X129575499Y-130198066D01*
X129572654Y-130161902D01*
X129527681Y-130007106D01*
X129445626Y-129868357D01*
X129353335Y-129776066D01*
X129299362Y-129695288D01*
X129280408Y-129600000D01*
X129299362Y-129504712D01*
X129353335Y-129423933D01*
X129445626Y-129331643D01*
X129527681Y-129192894D01*
X129572654Y-129038098D01*
X129575500Y-129001935D01*
X129575499Y-128373066D01*
X129572654Y-128336902D01*
X129527681Y-128182106D01*
X129445626Y-128043357D01*
X129445625Y-128043356D01*
X129437651Y-128029872D01*
X129440561Y-128028150D01*
X129409319Y-127965608D01*
X129400500Y-127899928D01*
X129400500Y-123529500D01*
X129419454Y-123434212D01*
X129473430Y-123353430D01*
X129554212Y-123299454D01*
X129649500Y-123280500D01*
X132070958Y-123280500D01*
X132076983Y-123281698D01*
X132083063Y-123280794D01*
X132124435Y-123291137D01*
X132166246Y-123299454D01*
X132171354Y-123302867D01*
X132177317Y-123304358D01*
X132192863Y-123317238D01*
X132247028Y-123353430D01*
X132255379Y-123362198D01*
X132264457Y-123372205D01*
X132351758Y-123492365D01*
X132507635Y-123648242D01*
X132528859Y-123663662D01*
X132546128Y-123682698D01*
X132558151Y-123702738D01*
X132574014Y-123719898D01*
X132582901Y-123743988D01*
X132596113Y-123766008D01*
X132599552Y-123789124D01*
X132607641Y-123811048D01*
X132606633Y-123836703D01*
X132610413Y-123862105D01*
X132604744Y-123884779D01*
X132603827Y-123908128D01*
X132593077Y-123931445D01*
X132586849Y-123956359D01*
X132572935Y-123975136D01*
X132563152Y-123996359D01*
X132540218Y-124019292D01*
X132529009Y-124034421D01*
X132519211Y-124040299D01*
X132514622Y-124044888D01*
X132515068Y-124045410D01*
X132508443Y-124051067D01*
X132508066Y-124051444D01*
X132507997Y-124051494D01*
X132507634Y-124051758D01*
X132351759Y-124207633D01*
X132222184Y-124385979D01*
X132222179Y-124385986D01*
X132122109Y-124582383D01*
X132122105Y-124582392D01*
X132122105Y-124582394D01*
X132053985Y-124792049D01*
X132053984Y-124792052D01*
X132053984Y-124792054D01*
X132053982Y-124792061D01*
X132019501Y-125009767D01*
X132019500Y-125009782D01*
X132019500Y-125230217D01*
X132019501Y-125230232D01*
X132053982Y-125447938D01*
X132053984Y-125447945D01*
X132053985Y-125447951D01*
X132122105Y-125657606D01*
X132122106Y-125657607D01*
X132122109Y-125657616D01*
X132222179Y-125854013D01*
X132222183Y-125854019D01*
X132222185Y-125854022D01*
X132351758Y-126032365D01*
X132507635Y-126188242D01*
X132685978Y-126317815D01*
X132863548Y-126408292D01*
X132939841Y-126468437D01*
X132987313Y-126553205D01*
X132999500Y-126630150D01*
X132999500Y-127115704D01*
X133002401Y-127152563D01*
X133002401Y-127152566D01*
X133002402Y-127152569D01*
X133048256Y-127310398D01*
X133131919Y-127451865D01*
X133248135Y-127568081D01*
X133389602Y-127651744D01*
X133547431Y-127697598D01*
X133584306Y-127700500D01*
X133584308Y-127700500D01*
X135015692Y-127700500D01*
X135015694Y-127700500D01*
X135052569Y-127697598D01*
X135210398Y-127651744D01*
X135351865Y-127568081D01*
X135468081Y-127451865D01*
X135551744Y-127310398D01*
X135597598Y-127152569D01*
X135600500Y-127115694D01*
X135600500Y-126159306D01*
X135597598Y-126122431D01*
X135551744Y-125964602D01*
X135468081Y-125823135D01*
X135351865Y-125706919D01*
X135351862Y-125706917D01*
X135308370Y-125681196D01*
X135236000Y-125616376D01*
X135193945Y-125528795D01*
X135188606Y-125431787D01*
X135189188Y-125427920D01*
X135219205Y-125238397D01*
X135220500Y-125230222D01*
X135220500Y-125009778D01*
X135186015Y-124792049D01*
X135117895Y-124582394D01*
X135117891Y-124582386D01*
X135117890Y-124582383D01*
X135017820Y-124385986D01*
X135017816Y-124385981D01*
X135017815Y-124385978D01*
X134888242Y-124207635D01*
X134732365Y-124051758D01*
X134731941Y-124051450D01*
X134731704Y-124051193D01*
X134724932Y-124045410D01*
X134725616Y-124044608D01*
X134665992Y-123980114D01*
X134632360Y-123888966D01*
X134636169Y-123791886D01*
X134676838Y-123703653D01*
X134693901Y-123682665D01*
X134711156Y-123663650D01*
X134732365Y-123648242D01*
X134888242Y-123492365D01*
X134975136Y-123372764D01*
X134984230Y-123362744D01*
X135012598Y-123341732D01*
X135038518Y-123317772D01*
X135051328Y-123313046D01*
X135062302Y-123304918D01*
X135096551Y-123296362D01*
X135129667Y-123284145D01*
X135152694Y-123282336D01*
X135156561Y-123281371D01*
X135159471Y-123281804D01*
X135168711Y-123281079D01*
X139164584Y-123282574D01*
X139259863Y-123301564D01*
X139340555Y-123355501D01*
X139423135Y-123438081D01*
X139564602Y-123521744D01*
X139722431Y-123567598D01*
X139759306Y-123570500D01*
X139759308Y-123570500D01*
X140840692Y-123570500D01*
X140840694Y-123570500D01*
X140877569Y-123567598D01*
X141035398Y-123521744D01*
X141176865Y-123438081D01*
X141293081Y-123321865D01*
X141336176Y-123248994D01*
X141400994Y-123176625D01*
X141488575Y-123134569D01*
X141585583Y-123129230D01*
X141677250Y-123161421D01*
X141749621Y-123226240D01*
X141791677Y-123313821D01*
X141799500Y-123375746D01*
X141799500Y-124165727D01*
X141780546Y-124261015D01*
X141726570Y-124341797D01*
X141694506Y-124367083D01*
X141695276Y-124368143D01*
X141489920Y-124517342D01*
X141317343Y-124689919D01*
X141173895Y-124887359D01*
X141063094Y-125104819D01*
X140987678Y-125336926D01*
X140949500Y-125577963D01*
X140949500Y-125822036D01*
X140987678Y-126063073D01*
X141054740Y-126269470D01*
X141063096Y-126295185D01*
X141173894Y-126512639D01*
X141317345Y-126710083D01*
X141489917Y-126882655D01*
X141687361Y-127026106D01*
X141687363Y-127026107D01*
X141695276Y-127031856D01*
X141693676Y-127034058D01*
X141751915Y-127087871D01*
X141792608Y-127176093D01*
X141799500Y-127234271D01*
X141799500Y-130665727D01*
X141780546Y-130761015D01*
X141726570Y-130841797D01*
X141694506Y-130867083D01*
X141695276Y-130868143D01*
X141489920Y-131017342D01*
X141317343Y-131189919D01*
X141173895Y-131387359D01*
X141063094Y-131604819D01*
X140987678Y-131836926D01*
X140949500Y-132077963D01*
X140949500Y-132322036D01*
X140987678Y-132563073D01*
X141019388Y-132660668D01*
X141063096Y-132795185D01*
X141173894Y-133012639D01*
X141317345Y-133210083D01*
X141489917Y-133382655D01*
X141687361Y-133526106D01*
X141904815Y-133636904D01*
X142136924Y-133712321D01*
X142213818Y-133724500D01*
X142377963Y-133750499D01*
X142377970Y-133750499D01*
X142377973Y-133750500D01*
X142377976Y-133750500D01*
X142622024Y-133750500D01*
X142622027Y-133750500D01*
X142622030Y-133750499D01*
X142622036Y-133750499D01*
X142863071Y-133712322D01*
X142863072Y-133712321D01*
X142863076Y-133712321D01*
X142974058Y-133676260D01*
X143070535Y-133664841D01*
X143164042Y-133691213D01*
X143240340Y-133751360D01*
X143287813Y-133836128D01*
X143300000Y-133913074D01*
X143300000Y-136975500D01*
X143281046Y-137070788D01*
X143227070Y-137151570D01*
X143146288Y-137205546D01*
X143051000Y-137224500D01*
X142684295Y-137224500D01*
X142647436Y-137227401D01*
X142647427Y-137227403D01*
X142489601Y-137273256D01*
X142348135Y-137356919D01*
X142231919Y-137473135D01*
X142148256Y-137614601D01*
X142102403Y-137772427D01*
X142102401Y-137772436D01*
X142099500Y-137809295D01*
X142099500Y-139190704D01*
X142102401Y-139227563D01*
X142102404Y-139227578D01*
X142112268Y-139261529D01*
X142120653Y-139358322D01*
X142091357Y-139450955D01*
X142028843Y-139525326D01*
X141942627Y-139570112D01*
X141873156Y-139580000D01*
X100849000Y-139580000D01*
X100753712Y-139561046D01*
X100672930Y-139507070D01*
X100618954Y-139426288D01*
X100600000Y-139331000D01*
X100600000Y-134133095D01*
X101200000Y-134133095D01*
X101200000Y-136866905D01*
X103133095Y-138800000D01*
X103133096Y-138800000D01*
X105866904Y-138800000D01*
X105866905Y-138800000D01*
X107800000Y-136866905D01*
X107800000Y-134133095D01*
X105866905Y-132200000D01*
X105866904Y-132200000D01*
X105848512Y-132181608D01*
X105810150Y-132155976D01*
X105756173Y-132075195D01*
X105737219Y-131979907D01*
X105756173Y-131884619D01*
X105810149Y-131803837D01*
X105878183Y-131755564D01*
X106011196Y-131691508D01*
X106011207Y-131691502D01*
X106248954Y-131542116D01*
X106264240Y-131529927D01*
X104965989Y-130231676D01*
X105018767Y-130221178D01*
X105155258Y-130164641D01*
X105278097Y-130082563D01*
X105382563Y-129978097D01*
X105464641Y-129855258D01*
X105521178Y-129718767D01*
X105531676Y-129665989D01*
X106829927Y-130964240D01*
X106842116Y-130948954D01*
X106991502Y-130711207D01*
X106991512Y-130711188D01*
X107113332Y-130458227D01*
X107113341Y-130458206D01*
X107206076Y-130193181D01*
X107268561Y-129919424D01*
X107299999Y-129640409D01*
X107300000Y-129640396D01*
X107300000Y-129359603D01*
X107299999Y-129359590D01*
X107268561Y-129080575D01*
X107206076Y-128806818D01*
X107113341Y-128541793D01*
X107113332Y-128541772D01*
X106991512Y-128288811D01*
X106991506Y-128288800D01*
X106842108Y-128051033D01*
X106829927Y-128035758D01*
X105531675Y-129334009D01*
X105521178Y-129281233D01*
X105464641Y-129144742D01*
X105382563Y-129021903D01*
X105278097Y-128917437D01*
X105155258Y-128835359D01*
X105018767Y-128778822D01*
X104965987Y-128768323D01*
X106264240Y-127470071D01*
X106248949Y-127457878D01*
X106011208Y-127308497D01*
X106011188Y-127308487D01*
X105758227Y-127186667D01*
X105758206Y-127186658D01*
X105493181Y-127093923D01*
X105219424Y-127031438D01*
X104940409Y-127000000D01*
X104659590Y-127000000D01*
X104380575Y-127031438D01*
X104106818Y-127093923D01*
X103841793Y-127186658D01*
X103841772Y-127186667D01*
X103588811Y-127308487D01*
X103588791Y-127308497D01*
X103351044Y-127457883D01*
X103351041Y-127457884D01*
X103335758Y-127470071D01*
X104634010Y-128768323D01*
X104581233Y-128778822D01*
X104444742Y-128835359D01*
X104321903Y-128917437D01*
X104217437Y-129021903D01*
X104135359Y-129144742D01*
X104078822Y-129281233D01*
X104068323Y-129334010D01*
X102770071Y-128035758D01*
X102757884Y-128051041D01*
X102757883Y-128051044D01*
X102608497Y-128288791D01*
X102608487Y-128288811D01*
X102486667Y-128541772D01*
X102486658Y-128541793D01*
X102393923Y-128806818D01*
X102331438Y-129080575D01*
X102300000Y-129359590D01*
X102300000Y-129640409D01*
X102331438Y-129919424D01*
X102393923Y-130193181D01*
X102486658Y-130458206D01*
X102486667Y-130458227D01*
X102608487Y-130711188D01*
X102608497Y-130711208D01*
X102757878Y-130948949D01*
X102770071Y-130964240D01*
X104068323Y-129665987D01*
X104078822Y-129718767D01*
X104135359Y-129855258D01*
X104217437Y-129978097D01*
X104321903Y-130082563D01*
X104444742Y-130164641D01*
X104581233Y-130221178D01*
X104634009Y-130231675D01*
X103335758Y-131529927D01*
X103351033Y-131542108D01*
X103588800Y-131691506D01*
X103588811Y-131691512D01*
X103661793Y-131726659D01*
X103739421Y-131785080D01*
X103788783Y-131868760D01*
X103802364Y-131964961D01*
X103778097Y-132059037D01*
X103719676Y-132136665D01*
X103635996Y-132186027D01*
X103553756Y-132200000D01*
X103133095Y-132200000D01*
X101200000Y-134133095D01*
X100600000Y-134133095D01*
X100600000Y-103133095D01*
X101200000Y-103133095D01*
X101200000Y-105866905D01*
X103133095Y-107800000D01*
X103133096Y-107800000D01*
X105866904Y-107800000D01*
X105866905Y-107800000D01*
X107800000Y-105866905D01*
X107800000Y-103133095D01*
X105866905Y-101200000D01*
X103133095Y-101200000D01*
X101200000Y-103133095D01*
X100600000Y-103133095D01*
X100600000Y-100849000D01*
X100618954Y-100753712D01*
X100672930Y-100672930D01*
X100753712Y-100618954D01*
X100849000Y-100600000D01*
X154151000Y-100600000D01*
X154246288Y-100618954D01*
G37*
%TD.AperFunction*%
%TA.AperFunction,Conductor*%
G36*
X132445788Y-133584454D02*
G01*
X132526570Y-133638430D01*
X132580546Y-133719212D01*
X132599500Y-133814500D01*
X132599500Y-137400500D01*
X132580546Y-137495788D01*
X132526570Y-137576570D01*
X132445788Y-137630546D01*
X132350500Y-137649500D01*
X125099500Y-137649500D01*
X125004212Y-137630546D01*
X124923430Y-137576570D01*
X124869454Y-137495788D01*
X124850500Y-137400500D01*
X124850500Y-136359308D01*
X124850499Y-136359295D01*
X124847598Y-136322436D01*
X124847598Y-136322431D01*
X124801744Y-136164602D01*
X124718081Y-136023135D01*
X124601865Y-135906919D01*
X124594229Y-135902403D01*
X124522748Y-135860129D01*
X124499446Y-135839258D01*
X124473430Y-135821875D01*
X124463580Y-135807134D01*
X124450378Y-135795309D01*
X124436836Y-135767107D01*
X124419454Y-135741093D01*
X124415995Y-135723706D01*
X124408323Y-135707728D01*
X124400500Y-135645805D01*
X124400500Y-135400071D01*
X124419454Y-135304783D01*
X124439089Y-135270978D01*
X124437651Y-135270128D01*
X124461576Y-135229673D01*
X124527681Y-135117894D01*
X124559094Y-135009768D01*
X124603881Y-134923554D01*
X124678251Y-134861039D01*
X124770884Y-134831744D01*
X124827893Y-134832016D01*
X124856898Y-134835500D01*
X124856900Y-134835500D01*
X126593099Y-134835500D01*
X126593102Y-134835500D01*
X126681564Y-134824877D01*
X126737393Y-134802861D01*
X126828740Y-134785500D01*
X127514070Y-134785500D01*
X127514070Y-134785499D01*
X127639744Y-134760501D01*
X127758127Y-134711465D01*
X127864669Y-134640276D01*
X127898933Y-134606011D01*
X127979712Y-134552038D01*
X128075000Y-134533084D01*
X128170288Y-134552038D01*
X128251066Y-134606011D01*
X128285331Y-134640276D01*
X128391873Y-134711465D01*
X128391875Y-134711465D01*
X128391877Y-134711467D01*
X128426549Y-134725828D01*
X128510256Y-134760501D01*
X128635929Y-134785499D01*
X128635930Y-134785500D01*
X128635931Y-134785500D01*
X128764069Y-134785500D01*
X129571260Y-134785500D01*
X129662607Y-134802861D01*
X129718436Y-134824877D01*
X129806898Y-134835500D01*
X129806901Y-134835500D01*
X131543099Y-134835500D01*
X131543102Y-134835500D01*
X131631564Y-134824877D01*
X131731419Y-134785499D01*
X131772340Y-134769362D01*
X131772340Y-134769361D01*
X131772342Y-134769361D01*
X131892922Y-134677922D01*
X131984361Y-134557342D01*
X132039877Y-134416564D01*
X132050500Y-134328102D01*
X132050500Y-133941898D01*
X132039877Y-133853436D01*
X132039876Y-133853434D01*
X132038766Y-133844188D01*
X132046224Y-133747320D01*
X132090184Y-133660679D01*
X132163953Y-133597456D01*
X132256302Y-133567276D01*
X132285990Y-133565500D01*
X132350500Y-133565500D01*
X132445788Y-133584454D01*
G37*
%TD.AperFunction*%
%TA.AperFunction,Conductor*%
G36*
X127827444Y-125449133D02*
G01*
X127912211Y-125496605D01*
X127972360Y-125572902D01*
X127998732Y-125666409D01*
X127999500Y-125685947D01*
X127999500Y-127899928D01*
X127980546Y-127995216D01*
X127960912Y-128029022D01*
X127962349Y-128029872D01*
X127954374Y-128043356D01*
X127954374Y-128043357D01*
X127949830Y-128051041D01*
X127872320Y-128182104D01*
X127827346Y-128336900D01*
X127827345Y-128336906D01*
X127824500Y-128373054D01*
X127824500Y-129001924D01*
X127824501Y-129001938D01*
X127827345Y-129038096D01*
X127872319Y-129192894D01*
X127941574Y-129310000D01*
X127954374Y-129331643D01*
X128046664Y-129423933D01*
X128100638Y-129504712D01*
X128119592Y-129600000D01*
X128100638Y-129695288D01*
X128046664Y-129776066D01*
X127967473Y-129855258D01*
X127954372Y-129868359D01*
X127872320Y-130007104D01*
X127872319Y-130007106D01*
X127867643Y-130023201D01*
X127827346Y-130161900D01*
X127827345Y-130161906D01*
X127824500Y-130198054D01*
X127824500Y-130826924D01*
X127824501Y-130826938D01*
X127827345Y-130863096D01*
X127872319Y-131017894D01*
X127922569Y-131102864D01*
X127954374Y-131156643D01*
X127976572Y-131178841D01*
X128030546Y-131259620D01*
X128049500Y-131354908D01*
X128049500Y-132036570D01*
X128030546Y-132131858D01*
X127976570Y-132212640D01*
X127895788Y-132266616D01*
X127800500Y-132285570D01*
X127763883Y-132282863D01*
X127733544Y-132278352D01*
X127639744Y-132239499D01*
X127514069Y-132214500D01*
X127304058Y-132214500D01*
X127285850Y-132211793D01*
X127257114Y-132201500D01*
X127227179Y-132195546D01*
X127211798Y-132185269D01*
X127194385Y-132179032D01*
X127171779Y-132158529D01*
X127146397Y-132141570D01*
X127136118Y-132126186D01*
X127122420Y-132113763D01*
X127109379Y-132086168D01*
X127092421Y-132060788D01*
X127088812Y-132042647D01*
X127080909Y-132025923D01*
X127079421Y-131995434D01*
X127073467Y-131965500D01*
X127077042Y-131946685D01*
X127076174Y-131928883D01*
X127085232Y-131903593D01*
X127087360Y-131892396D01*
X127085964Y-131892044D01*
X127089874Y-131876571D01*
X127089877Y-131876564D01*
X127100500Y-131788102D01*
X127100500Y-131401898D01*
X127089877Y-131313436D01*
X127068655Y-131259620D01*
X127042861Y-131194211D01*
X127025500Y-131102864D01*
X127025500Y-131034308D01*
X127025499Y-131034295D01*
X127022598Y-130997436D01*
X127022598Y-130997431D01*
X126976744Y-130839602D01*
X126893081Y-130698135D01*
X126776865Y-130581919D01*
X126635398Y-130498256D01*
X126477569Y-130452402D01*
X126477566Y-130452401D01*
X126477563Y-130452401D01*
X126440704Y-130449500D01*
X126440694Y-130449500D01*
X125359306Y-130449500D01*
X125359295Y-130449500D01*
X125322436Y-130452401D01*
X125322427Y-130452403D01*
X125164601Y-130498256D01*
X125023135Y-130581919D01*
X124906918Y-130698136D01*
X124903060Y-130703111D01*
X124829682Y-130766787D01*
X124737521Y-130797536D01*
X124706309Y-130799500D01*
X123111586Y-130799500D01*
X123016298Y-130780546D01*
X122935516Y-130726570D01*
X122910141Y-130696859D01*
X122853298Y-130618622D01*
X122807804Y-130556005D01*
X122646362Y-130394563D01*
X122461653Y-130260363D01*
X122461649Y-130260361D01*
X122461649Y-130260360D01*
X122258224Y-130156711D01*
X122258219Y-130156709D01*
X122137473Y-130117476D01*
X122041085Y-130086158D01*
X122041083Y-130086157D01*
X122041081Y-130086157D01*
X121815593Y-130050443D01*
X121815584Y-130050442D01*
X121815582Y-130050442D01*
X121587268Y-130050442D01*
X121587265Y-130050442D01*
X121587256Y-130050443D01*
X121361768Y-130086157D01*
X121144630Y-130156709D01*
X121144625Y-130156711D01*
X120941200Y-130260360D01*
X120941194Y-130260365D01*
X120910820Y-130282433D01*
X120822590Y-130323107D01*
X120725510Y-130326921D01*
X120634360Y-130293294D01*
X120563017Y-130227344D01*
X120522343Y-130139114D01*
X120516535Y-130057909D01*
X120599529Y-129166419D01*
X120627234Y-129073298D01*
X120688466Y-128997868D01*
X120773903Y-128951612D01*
X120847457Y-128940500D01*
X121088691Y-128940500D01*
X121262666Y-128905894D01*
X121426547Y-128838013D01*
X121574035Y-128739464D01*
X121699464Y-128614035D01*
X121798013Y-128466547D01*
X121865894Y-128302666D01*
X121900500Y-128128691D01*
X121900500Y-128040165D01*
X121919454Y-127944877D01*
X121935175Y-127913414D01*
X121951744Y-127885398D01*
X121997598Y-127727569D01*
X122000500Y-127690694D01*
X122000500Y-127009306D01*
X121997598Y-126972431D01*
X121951744Y-126814602D01*
X121868081Y-126673135D01*
X121751865Y-126556919D01*
X121610398Y-126473256D01*
X121492875Y-126439112D01*
X121478496Y-126431643D01*
X121462668Y-126428178D01*
X121435759Y-126409442D01*
X121406661Y-126394327D01*
X121396234Y-126381922D01*
X121382935Y-126372663D01*
X121365243Y-126345055D01*
X121344146Y-126319956D01*
X121339259Y-126304505D01*
X121330517Y-126290862D01*
X121324737Y-126258585D01*
X121314851Y-126227323D01*
X121316249Y-126211179D01*
X121313393Y-126195228D01*
X121320404Y-126163197D01*
X121323234Y-126130530D01*
X121330703Y-126116149D01*
X121334169Y-126100321D01*
X121352904Y-126073412D01*
X121368020Y-126044314D01*
X121380424Y-126033887D01*
X121389684Y-126020588D01*
X121410732Y-126008410D01*
X121442391Y-125981799D01*
X121471485Y-125968170D01*
X121482013Y-125964043D01*
X121610398Y-125926744D01*
X121675665Y-125888144D01*
X121694311Y-125880837D01*
X121722787Y-125875738D01*
X121750086Y-125866151D01*
X121789294Y-125863701D01*
X122643227Y-125877864D01*
X122738184Y-125898396D01*
X122818059Y-125953704D01*
X122840539Y-125980471D01*
X122887120Y-126044584D01*
X122887122Y-126044586D01*
X122887125Y-126044590D01*
X123048567Y-126206032D01*
X123233276Y-126340232D01*
X123233278Y-126340233D01*
X123233279Y-126340234D01*
X123315097Y-126381922D01*
X123436705Y-126443884D01*
X123653844Y-126514437D01*
X123879347Y-126550153D01*
X123879351Y-126550153D01*
X124107657Y-126550153D01*
X124107661Y-126550153D01*
X124333164Y-126514437D01*
X124487925Y-126464151D01*
X124584405Y-126452733D01*
X124677912Y-126479104D01*
X124697721Y-126490367D01*
X124735877Y-126514437D01*
X125139583Y-126769108D01*
X125286799Y-126825604D01*
X125442209Y-126852295D01*
X125599839Y-126848154D01*
X125753633Y-126813340D01*
X125897679Y-126749191D01*
X126026443Y-126658173D01*
X126083427Y-126598114D01*
X126162762Y-126542036D01*
X126257520Y-126520586D01*
X126264059Y-126520500D01*
X126310218Y-126520500D01*
X126310222Y-126520500D01*
X126527951Y-126486015D01*
X126737606Y-126417895D01*
X126756459Y-126408289D01*
X126934013Y-126317820D01*
X126934015Y-126317818D01*
X126934022Y-126317815D01*
X127112365Y-126188242D01*
X127268242Y-126032365D01*
X127397815Y-125854022D01*
X127403391Y-125843080D01*
X127497890Y-125657616D01*
X127497890Y-125657615D01*
X127497895Y-125657606D01*
X127513687Y-125608999D01*
X127561158Y-125524236D01*
X127637455Y-125464087D01*
X127730962Y-125437715D01*
X127827444Y-125449133D01*
G37*
%TD.AperFunction*%
%TA.AperFunction,Conductor*%
G36*
X125207442Y-110995273D02*
G01*
X125266503Y-111019737D01*
X125266506Y-111019737D01*
X125266507Y-111019738D01*
X125346613Y-111035672D01*
X125421158Y-111050500D01*
X126515500Y-111050500D01*
X126610788Y-111069454D01*
X126691570Y-111123430D01*
X126744021Y-111200611D01*
X126748255Y-111210396D01*
X126748256Y-111210398D01*
X126831919Y-111351865D01*
X126948135Y-111468081D01*
X127089602Y-111551744D01*
X127247431Y-111597598D01*
X127284306Y-111600500D01*
X127284308Y-111600500D01*
X128315692Y-111600500D01*
X128315694Y-111600500D01*
X128352569Y-111597598D01*
X128510398Y-111551744D01*
X128651865Y-111468081D01*
X128768081Y-111351865D01*
X128851744Y-111210398D01*
X128851745Y-111210391D01*
X128855979Y-111200611D01*
X128911217Y-111120687D01*
X128992836Y-111067986D01*
X129084500Y-111050500D01*
X133250500Y-111050500D01*
X133345788Y-111069454D01*
X133426570Y-111123430D01*
X133480546Y-111204212D01*
X133499500Y-111299500D01*
X133499500Y-114200693D01*
X133480546Y-114295981D01*
X133426570Y-114376763D01*
X133345788Y-114430739D01*
X133250500Y-114449693D01*
X133240732Y-114449501D01*
X133240707Y-114449500D01*
X133240694Y-114449500D01*
X132159306Y-114449500D01*
X132159295Y-114449500D01*
X132122436Y-114452401D01*
X132122427Y-114452403D01*
X131964601Y-114498256D01*
X131823135Y-114581919D01*
X131706919Y-114698135D01*
X131623256Y-114839601D01*
X131577403Y-114997427D01*
X131577401Y-114997436D01*
X131574500Y-115034295D01*
X131574500Y-115840704D01*
X131577401Y-115877563D01*
X131577401Y-115877566D01*
X131577402Y-115877569D01*
X131623256Y-116035398D01*
X131706919Y-116176865D01*
X131823135Y-116293081D01*
X131877251Y-116325085D01*
X131949621Y-116389903D01*
X131991677Y-116477484D01*
X131999500Y-116539409D01*
X131999500Y-116868997D01*
X132026418Y-117004324D01*
X132026421Y-117004331D01*
X132038703Y-117033984D01*
X132057656Y-117129273D01*
X132054591Y-117168221D01*
X132041480Y-117251000D01*
X132020367Y-117384308D01*
X132019500Y-117389779D01*
X132019500Y-117610217D01*
X132019501Y-117610232D01*
X132053982Y-117827938D01*
X132053984Y-117827945D01*
X132053985Y-117827951D01*
X132122105Y-118037606D01*
X132122106Y-118037607D01*
X132122109Y-118037616D01*
X132222179Y-118234013D01*
X132222183Y-118234019D01*
X132222185Y-118234022D01*
X132351758Y-118412365D01*
X132507635Y-118568242D01*
X132508066Y-118568555D01*
X132508308Y-118568816D01*
X132515068Y-118574590D01*
X132514384Y-118575390D01*
X132574014Y-118639898D01*
X132607641Y-118731048D01*
X132603827Y-118828128D01*
X132563152Y-118916359D01*
X132514622Y-118964888D01*
X132515068Y-118965410D01*
X132508443Y-118971067D01*
X132508066Y-118971444D01*
X132507997Y-118971494D01*
X132507634Y-118971758D01*
X132351759Y-119127633D01*
X132222184Y-119305979D01*
X132222179Y-119305986D01*
X132122109Y-119502383D01*
X132122105Y-119502392D01*
X132122105Y-119502394D01*
X132053985Y-119712049D01*
X132053984Y-119712052D01*
X132053984Y-119712054D01*
X132053982Y-119712061D01*
X132019501Y-119929767D01*
X132019500Y-119929782D01*
X132019500Y-120150217D01*
X132019501Y-120150232D01*
X132053982Y-120367938D01*
X132053984Y-120367945D01*
X132053985Y-120367951D01*
X132122105Y-120577606D01*
X132122106Y-120577607D01*
X132122109Y-120577616D01*
X132222179Y-120774013D01*
X132222183Y-120774019D01*
X132222185Y-120774022D01*
X132351758Y-120952365D01*
X132351759Y-120952366D01*
X132507634Y-121108241D01*
X132508066Y-121108555D01*
X132508308Y-121108816D01*
X132515068Y-121114590D01*
X132514384Y-121115390D01*
X132574014Y-121179898D01*
X132607641Y-121271048D01*
X132603827Y-121368128D01*
X132563152Y-121456359D01*
X132546128Y-121477302D01*
X132528859Y-121496337D01*
X132507635Y-121511758D01*
X132351758Y-121667635D01*
X132264457Y-121787794D01*
X132255379Y-121797802D01*
X132226998Y-121818830D01*
X132201061Y-121842807D01*
X132188271Y-121847525D01*
X132177317Y-121855642D01*
X132143045Y-121864210D01*
X132109911Y-121876434D01*
X132086908Y-121878244D01*
X132083063Y-121879206D01*
X132080167Y-121878775D01*
X132070958Y-121879500D01*
X129649500Y-121879500D01*
X129554212Y-121860546D01*
X129473430Y-121806570D01*
X129419454Y-121725788D01*
X129400500Y-121630500D01*
X129400500Y-119971007D01*
X129400499Y-119971002D01*
X129373581Y-119835675D01*
X129373580Y-119835672D01*
X129320775Y-119708189D01*
X129244114Y-119593458D01*
X129146542Y-119495886D01*
X129133896Y-119487436D01*
X129031812Y-119419225D01*
X129031809Y-119419224D01*
X128947514Y-119384308D01*
X128904327Y-119366419D01*
X128904324Y-119366418D01*
X128768997Y-119339500D01*
X128768993Y-119339500D01*
X127549042Y-119339500D01*
X127540023Y-119337706D01*
X127530898Y-119338838D01*
X127492659Y-119328284D01*
X127453754Y-119320546D01*
X127446108Y-119315437D01*
X127437244Y-119312991D01*
X127418044Y-119296686D01*
X127372972Y-119266570D01*
X127360611Y-119253272D01*
X127353759Y-119245340D01*
X127268242Y-119127635D01*
X127149573Y-119008966D01*
X127143630Y-119002086D01*
X127124054Y-118967587D01*
X127102015Y-118934602D01*
X127100221Y-118925583D01*
X127095683Y-118917586D01*
X127090799Y-118878218D01*
X127083061Y-118839314D01*
X127084854Y-118830295D01*
X127083723Y-118821170D01*
X127094276Y-118782931D01*
X127102015Y-118744026D01*
X127107123Y-118736380D01*
X127109570Y-118727516D01*
X127133951Y-118696229D01*
X127155991Y-118663244D01*
X127169096Y-118651130D01*
X127169289Y-118650883D01*
X127169483Y-118650772D01*
X127170356Y-118649966D01*
X127177185Y-118644133D01*
X127344138Y-118477180D01*
X127482912Y-118286175D01*
X127590104Y-118075797D01*
X127590106Y-118075792D01*
X127647225Y-117900000D01*
X126249000Y-117900000D01*
X126153712Y-117881046D01*
X126145035Y-117875248D01*
X126154394Y-117872741D01*
X126245606Y-117820080D01*
X126320080Y-117745606D01*
X126372741Y-117654394D01*
X126400000Y-117552661D01*
X126400000Y-117447339D01*
X126372741Y-117345606D01*
X126320080Y-117254394D01*
X126245606Y-117179920D01*
X126154394Y-117127259D01*
X126052661Y-117100000D01*
X125947339Y-117100000D01*
X125845606Y-117127259D01*
X125754394Y-117179920D01*
X125679920Y-117254394D01*
X125627259Y-117345606D01*
X125624751Y-117354964D01*
X125618954Y-117346288D01*
X125600000Y-117251000D01*
X125600000Y-117099999D01*
X126400000Y-117099999D01*
X126400001Y-117100000D01*
X127647225Y-117100000D01*
X127647225Y-117099999D01*
X127590106Y-116924207D01*
X127590104Y-116924202D01*
X127482912Y-116713824D01*
X127344138Y-116522819D01*
X127177180Y-116355861D01*
X126986177Y-116217089D01*
X126775795Y-116109893D01*
X126551248Y-116036934D01*
X126400000Y-116012978D01*
X126400000Y-117099999D01*
X125600000Y-117099999D01*
X125600000Y-116012978D01*
X125448751Y-116036934D01*
X125224204Y-116109893D01*
X125013822Y-116217089D01*
X124822817Y-116355863D01*
X124815378Y-116362217D01*
X124814129Y-116360755D01*
X124744788Y-116407087D01*
X124649500Y-116426041D01*
X124554212Y-116407087D01*
X124473430Y-116353111D01*
X124419454Y-116272329D01*
X124400500Y-116177041D01*
X124400500Y-114801280D01*
X124400761Y-114733711D01*
X124400500Y-114732371D01*
X124400500Y-114731007D01*
X124387308Y-114664691D01*
X124374364Y-114598274D01*
X124373847Y-114597014D01*
X124373582Y-114595678D01*
X124365524Y-114576225D01*
X124347811Y-114533460D01*
X124347806Y-114533447D01*
X124347618Y-114532995D01*
X124322051Y-114470588D01*
X124321312Y-114469474D01*
X124320788Y-114468208D01*
X124295752Y-114430739D01*
X124283496Y-114412397D01*
X124283117Y-114411827D01*
X124245833Y-114355559D01*
X124244961Y-114354487D01*
X124244757Y-114354238D01*
X124244157Y-114353501D01*
X124196714Y-114306058D01*
X124196036Y-114305377D01*
X123940178Y-114047536D01*
X123183360Y-113284851D01*
X123156726Y-113244655D01*
X123129915Y-113204393D01*
X123129858Y-113204106D01*
X123129698Y-113203864D01*
X123111110Y-113109078D01*
X123111762Y-112692387D01*
X123130865Y-112597132D01*
X123164021Y-112540156D01*
X123170617Y-112531651D01*
X123170626Y-112531643D01*
X123252681Y-112392894D01*
X123297654Y-112238098D01*
X123300500Y-112201935D01*
X123300499Y-111598066D01*
X123297654Y-111561902D01*
X123288517Y-111530454D01*
X123280133Y-111433667D01*
X123309427Y-111341033D01*
X123371941Y-111266662D01*
X123458157Y-111221874D01*
X123554949Y-111213489D01*
X123604575Y-111224173D01*
X123641650Y-111236219D01*
X123760340Y-111274784D01*
X123985843Y-111310500D01*
X123985847Y-111310500D01*
X124214153Y-111310500D01*
X124214157Y-111310500D01*
X124439660Y-111274784D01*
X124656799Y-111204231D01*
X124860228Y-111100579D01*
X124965801Y-111023875D01*
X125054029Y-110983201D01*
X125151109Y-110979386D01*
X125207442Y-110995273D01*
G37*
%TD.AperFunction*%
%TD*%
M02*
