M48
; DRILL file KiCad 10.0.4-10.0.4~ubuntu26.04.1 date 2026-07-30T00:34:54
; FORMAT={-:-/ absolute / metric / decimal}
; #@! TF.CreationDate,2026-07-30T00:34:54-04:00
; #@! TF.GenerationSoftware,Kicad,Pcbnew,10.0.4-10.0.4~ubuntu26.04.1
; #@! TF.FileFunction,MixedPlating,1,2
FMAT,2
METRIC
; #@! TA.AperFunction,Plated,PTH,ComponentDrill
T1C0.800
; #@! TA.AperFunction,Plated,PTH,ComponentDrill
T2C0.900
; #@! TA.AperFunction,Plated,PTH,ComponentDrill
T3C1.100
; #@! TA.AperFunction,Plated,PTH,ComponentDrill
T4C1.500
; #@! TA.AperFunction,NonPlated,NPTH,ComponentDrill
T5C3.400
%
G90
G05
T1
X126.0Y-117.5
X126.0Y-120.04
X126.0Y-122.58
X126.0Y-125.12
X133.62Y-117.5
X133.62Y-120.04
X133.62Y-122.58
X133.62Y-125.12
T2
X109.5Y-125.5
X109.5Y-128.04
X109.5Y-130.58
X119.051Y-133.49
X119.3Y-119.03
X121.701Y-131.501
X121.903Y-118.236
X123.3Y-128.3
X123.994Y-125.1
X124.0Y-105.5
X124.1Y-109.86
X126.54Y-105.5
X129.6Y-112.7
X131.5Y-136.0
X132.0Y-105.5
X134.54Y-105.5
X142.5Y-111.24
X142.5Y-121.4
X143.0Y-105.44
T3
X138.0Y-125.7
X138.0Y-132.2
X142.5Y-125.7
X142.5Y-132.2
T4
X104.8Y-122.5
X104.8Y-129.5
T5
X104.5Y-104.5
X104.5Y-135.5
X150.5Y-104.5
X150.5Y-135.5
M30
