%TF.GenerationSoftware,KiCad,Pcbnew,10.0.4-10.0.4~ubuntu26.04.1*%
%TF.CreationDate,2026-07-30T15:38:26-04:00*%
%TF.ProjectId,coupon,636f7570-6f6e-42e6-9b69-6361645f7063,rev?*%
%TF.SameCoordinates,Original*%
%TF.FileFunction,Paste,Bot*%
%TF.FilePolarity,Positive*%
%FSLAX46Y46*%
G04 Gerber Fmt 4.6, Leading zero omitted, Abs format (unit mm)*
G04 Created by KiCad (PCBNEW 10.0.4-10.0.4~ubuntu26.04.1) date 2026-07-30 15:38:26*
%MOMM*%
%LPD*%
G01*
G04 APERTURE LIST*
G04 Aperture macros list*
%AMRoundRect*
0 Rectangle with rounded corners*
0 $1 Rounding radius*
0 $2 $3 $4 $5 $6 $7 $8 $9 X,Y pos of 4 corners*
0 Add a 4 corners polygon primitive as box body*
4,1,4,$2,$3,$4,$5,$6,$7,$8,$9,$2,$3,0*
0 Add four circle primitives for the rounded corners*
1,1,$1+$1,$2,$3*
1,1,$1+$1,$4,$5*
1,1,$1+$1,$6,$7*
1,1,$1+$1,$8,$9*
0 Add four rect primitives between the rounded corners*
20,1,$1+$1,$2,$3,$4,$5,0*
20,1,$1+$1,$4,$5,$6,$7,0*
20,1,$1+$1,$6,$7,$8,$9,0*
20,1,$1+$1,$8,$9,$2,$3,0*%
G04 Aperture macros list end*
%ADD10RoundRect,0.250000X0.400000X0.625000X-0.400000X0.625000X-0.400000X-0.625000X0.400000X-0.625000X0*%
%ADD11RoundRect,0.250000X0.450000X-0.350000X0.450000X0.350000X-0.450000X0.350000X-0.450000X-0.350000X0*%
%ADD12RoundRect,0.237500X0.250000X0.237500X-0.250000X0.237500X-0.250000X-0.237500X0.250000X-0.237500X0*%
%ADD13RoundRect,0.250000X0.450000X-0.325000X0.450000X0.325000X-0.450000X0.325000X-0.450000X-0.325000X0*%
%ADD14RoundRect,0.250000X0.350000X-0.275000X0.350000X0.275000X-0.350000X0.275000X-0.350000X-0.275000X0*%
%ADD15RoundRect,0.250000X-0.400000X-0.625000X0.400000X-0.625000X0.400000X0.625000X-0.400000X0.625000X0*%
%ADD16RoundRect,0.250000X0.625000X-0.400000X0.625000X0.400000X-0.625000X0.400000X-0.625000X-0.400000X0*%
%ADD17RoundRect,0.250000X0.475000X-0.337500X0.475000X0.337500X-0.475000X0.337500X-0.475000X-0.337500X0*%
%ADD18RoundRect,0.250000X1.500000X0.650000X-1.500000X0.650000X-1.500000X-0.650000X1.500000X-0.650000X0*%
%ADD19RoundRect,0.250000X0.337500X0.475000X-0.337500X0.475000X-0.337500X-0.475000X0.337500X-0.475000X0*%
%ADD20RoundRect,0.250000X-0.625000X0.400000X-0.625000X-0.400000X0.625000X-0.400000X0.625000X0.400000X0*%
%ADD21RoundRect,0.250000X-0.475000X0.337500X-0.475000X-0.337500X0.475000X-0.337500X0.475000X0.337500X0*%
%ADD22RoundRect,0.237500X-0.237500X0.300000X-0.237500X-0.300000X0.237500X-0.300000X0.237500X0.300000X0*%
%ADD23RoundRect,0.250000X-0.650000X0.412500X-0.650000X-0.412500X0.650000X-0.412500X0.650000X0.412500X0*%
%ADD24RoundRect,0.200000X0.775000X0.200000X-0.775000X0.200000X-0.775000X-0.200000X0.775000X-0.200000X0*%
%ADD25RoundRect,0.237500X-0.237500X0.250000X-0.237500X-0.250000X0.237500X-0.250000X0.237500X0.250000X0*%
%ADD26RoundRect,0.250000X0.350000X0.450000X-0.350000X0.450000X-0.350000X-0.450000X0.350000X-0.450000X0*%
%ADD27RoundRect,0.250000X-0.350000X-0.450000X0.350000X-0.450000X0.350000X0.450000X-0.350000X0.450000X0*%
%ADD28RoundRect,0.200000X0.200000X-0.750000X0.200000X0.750000X-0.200000X0.750000X-0.200000X-0.750000X0*%
G04 APERTURE END LIST*
D10*
%TO.C,CP1*%
X146250000Y-138500000D03*
X143150000Y-138500000D03*
%TD*%
D11*
%TO.C,R6*%
X127800000Y-110600000D03*
X127800000Y-108600000D03*
%TD*%
D12*
%TO.C,R5*%
X122412500Y-111900000D03*
X120587500Y-111900000D03*
%TD*%
D13*
%TO.C,LED1*%
X110500000Y-121825000D03*
X110500000Y-119775000D03*
%TD*%
D11*
%TO.C,R10*%
X122000000Y-135600000D03*
X122000000Y-133600000D03*
%TD*%
D14*
%TO.C,L1*%
X121000000Y-127350000D03*
X121000000Y-125050000D03*
%TD*%
D15*
%TO.C,R11*%
X135750000Y-136450000D03*
X138850000Y-136450000D03*
%TD*%
D12*
%TO.C,CP3*%
X153562500Y-138500000D03*
X151737500Y-138500000D03*
%TD*%
D16*
%TO.C,R4*%
X138000000Y-125150000D03*
X138000000Y-122050000D03*
%TD*%
D17*
%TO.C,C8*%
X125900000Y-131437500D03*
X125900000Y-129362500D03*
%TD*%
D18*
%TO.C,D1*%
X118000000Y-128040000D03*
X113000000Y-128040000D03*
%TD*%
D19*
%TO.C,C6*%
X123937500Y-137450000D03*
X121862500Y-137450000D03*
%TD*%
D16*
%TO.C,R7*%
X135800000Y-111150000D03*
X135800000Y-108050000D03*
%TD*%
D20*
%TO.C,R1*%
X110500000Y-114750000D03*
X110500000Y-117850000D03*
%TD*%
D21*
%TO.C,C1*%
X119500000Y-131262500D03*
X119500000Y-133337500D03*
%TD*%
D22*
%TO.C,C2*%
X118000000Y-123437500D03*
X118000000Y-125162500D03*
%TD*%
D23*
%TO.C,C5*%
X134300000Y-126637500D03*
X134300000Y-129762500D03*
%TD*%
D24*
%TO.C,U2*%
X130675000Y-131595000D03*
X130675000Y-132865000D03*
X130675000Y-134135000D03*
X130675000Y-135405000D03*
X125725000Y-135405000D03*
X125725000Y-134135000D03*
X125725000Y-132865000D03*
X125725000Y-131595000D03*
%TD*%
D25*
%TO.C,R2*%
X137000000Y-113587500D03*
X137000000Y-115412500D03*
%TD*%
D13*
%TO.C,LED4*%
X139600000Y-138925000D03*
X139600000Y-136875000D03*
%TD*%
D25*
%TO.C,R8*%
X128700000Y-128687500D03*
X128700000Y-130512500D03*
%TD*%
D26*
%TO.C,CP2*%
X150000000Y-138500000D03*
X148000000Y-138500000D03*
%TD*%
D17*
%TO.C,C7*%
X132700000Y-115437500D03*
X132700000Y-113362500D03*
%TD*%
D25*
%TO.C,R9*%
X123700000Y-132787500D03*
X123700000Y-134612500D03*
%TD*%
D21*
%TO.C,C4*%
X140300000Y-122582500D03*
X140300000Y-124657500D03*
%TD*%
D27*
%TO.C,R3*%
X137000000Y-120040000D03*
X139000000Y-120040000D03*
%TD*%
D28*
%TO.C,Q1*%
X118450000Y-111500000D03*
X116550000Y-111500000D03*
X117500000Y-108500000D03*
%TD*%
D21*
%TO.C,C3*%
X115000000Y-123162500D03*
X115000000Y-125237500D03*
%TD*%
M02*
