%TF.GenerationSoftware,KiCad,Pcbnew,10.0.4-10.0.4~ubuntu26.04.1*%
%TF.CreationDate,2026-07-30T15:38:26-04:00*%
%TF.ProjectId,coupon,636f7570-6f6e-42e6-9b69-6361645f7063,rev?*%
%TF.SameCoordinates,Original*%
%TF.FileFunction,Legend,Bot*%
%TF.FilePolarity,Positive*%
%FSLAX46Y46*%
G04 Gerber Fmt 4.6, Leading zero omitted, Abs format (unit mm)*
G04 Created by KiCad (PCBNEW 10.0.4-10.0.4~ubuntu26.04.1) date 2026-07-30 15:38:26*
%MOMM*%
%LPD*%
G01*
G04 APERTURE LIST*
%ADD10C,0.250000*%
%ADD11C,0.160000*%
%ADD12C,0.192000*%
%ADD13C,0.240000*%
%ADD14C,0.320000*%
G04 APERTURE END LIST*
D10*
X121300000Y-105450000D02*
X121300000Y-107250000D01*
X129300000Y-105450000D02*
X129300000Y-107250000D01*
D11*
X106301233Y-126241037D02*
X106301233Y-125241037D01*
X106301233Y-125241037D02*
X105958376Y-125241037D01*
X105958376Y-125241037D02*
X105872661Y-125288656D01*
X105872661Y-125288656D02*
X105829804Y-125336275D01*
X105829804Y-125336275D02*
X105786947Y-125431513D01*
X105786947Y-125431513D02*
X105786947Y-125574370D01*
X105786947Y-125574370D02*
X105829804Y-125669608D01*
X105829804Y-125669608D02*
X105872661Y-125717227D01*
X105872661Y-125717227D02*
X105958376Y-125764846D01*
X105958376Y-125764846D02*
X106301233Y-125764846D01*
X105444090Y-125955322D02*
X105015519Y-125955322D01*
X105529804Y-126241037D02*
X105229804Y-125241037D01*
X105229804Y-125241037D02*
X104929804Y-126241037D01*
X104629804Y-126241037D02*
X104629804Y-125241037D01*
X104629804Y-125241037D02*
X104415518Y-125241037D01*
X104415518Y-125241037D02*
X104286947Y-125288656D01*
X104286947Y-125288656D02*
X104201232Y-125383894D01*
X104201232Y-125383894D02*
X104158375Y-125479132D01*
X104158375Y-125479132D02*
X104115518Y-125669608D01*
X104115518Y-125669608D02*
X104115518Y-125812465D01*
X104115518Y-125812465D02*
X104158375Y-126002941D01*
X104158375Y-126002941D02*
X104201232Y-126098179D01*
X104201232Y-126098179D02*
X104286947Y-126193418D01*
X104286947Y-126193418D02*
X104415518Y-126241037D01*
X104415518Y-126241037D02*
X104629804Y-126241037D01*
X103772661Y-125336275D02*
X103729804Y-125288656D01*
X103729804Y-125288656D02*
X103644090Y-125241037D01*
X103644090Y-125241037D02*
X103429804Y-125241037D01*
X103429804Y-125241037D02*
X103344090Y-125288656D01*
X103344090Y-125288656D02*
X103301232Y-125336275D01*
X103301232Y-125336275D02*
X103258375Y-125431513D01*
X103258375Y-125431513D02*
X103258375Y-125526751D01*
X103258375Y-125526751D02*
X103301232Y-125669608D01*
X103301232Y-125669608D02*
X103815518Y-126241037D01*
X103815518Y-126241037D02*
X103258375Y-126241037D01*
X112749999Y-134162480D02*
X112621428Y-134210099D01*
X112621428Y-134210099D02*
X112407142Y-134210099D01*
X112407142Y-134210099D02*
X112321428Y-134162480D01*
X112321428Y-134162480D02*
X112278570Y-134114860D01*
X112278570Y-134114860D02*
X112235713Y-134019622D01*
X112235713Y-134019622D02*
X112235713Y-133924384D01*
X112235713Y-133924384D02*
X112278570Y-133829146D01*
X112278570Y-133829146D02*
X112321428Y-133781527D01*
X112321428Y-133781527D02*
X112407142Y-133733908D01*
X112407142Y-133733908D02*
X112578570Y-133686289D01*
X112578570Y-133686289D02*
X112664285Y-133638670D01*
X112664285Y-133638670D02*
X112707142Y-133591051D01*
X112707142Y-133591051D02*
X112749999Y-133495813D01*
X112749999Y-133495813D02*
X112749999Y-133400575D01*
X112749999Y-133400575D02*
X112707142Y-133305337D01*
X112707142Y-133305337D02*
X112664285Y-133257718D01*
X112664285Y-133257718D02*
X112578570Y-133210099D01*
X112578570Y-133210099D02*
X112364285Y-133210099D01*
X112364285Y-133210099D02*
X112235713Y-133257718D01*
X111935713Y-133210099D02*
X111721427Y-134210099D01*
X111721427Y-134210099D02*
X111549999Y-133495813D01*
X111549999Y-133495813D02*
X111378570Y-134210099D01*
X111378570Y-134210099D02*
X111164285Y-133210099D01*
X110349999Y-134210099D02*
X110864285Y-134210099D01*
X110607142Y-134210099D02*
X110607142Y-133210099D01*
X110607142Y-133210099D02*
X110692856Y-133352956D01*
X110692856Y-133352956D02*
X110778571Y-133448194D01*
X110778571Y-133448194D02*
X110864285Y-133495813D01*
X115199999Y-136406680D02*
X115071428Y-136454299D01*
X115071428Y-136454299D02*
X114857142Y-136454299D01*
X114857142Y-136454299D02*
X114771428Y-136406680D01*
X114771428Y-136406680D02*
X114728570Y-136359060D01*
X114728570Y-136359060D02*
X114685713Y-136263822D01*
X114685713Y-136263822D02*
X114685713Y-136168584D01*
X114685713Y-136168584D02*
X114728570Y-136073346D01*
X114728570Y-136073346D02*
X114771428Y-136025727D01*
X114771428Y-136025727D02*
X114857142Y-135978108D01*
X114857142Y-135978108D02*
X115028570Y-135930489D01*
X115028570Y-135930489D02*
X115114285Y-135882870D01*
X115114285Y-135882870D02*
X115157142Y-135835251D01*
X115157142Y-135835251D02*
X115199999Y-135740013D01*
X115199999Y-135740013D02*
X115199999Y-135644775D01*
X115199999Y-135644775D02*
X115157142Y-135549537D01*
X115157142Y-135549537D02*
X115114285Y-135501918D01*
X115114285Y-135501918D02*
X115028570Y-135454299D01*
X115028570Y-135454299D02*
X114814285Y-135454299D01*
X114814285Y-135454299D02*
X114685713Y-135501918D01*
X114299999Y-136454299D02*
X114299999Y-135454299D01*
X113442856Y-136454299D02*
X113871428Y-136454299D01*
X113871428Y-136454299D02*
X113871428Y-135454299D01*
X113142857Y-136454299D02*
X113142857Y-135454299D01*
X112628571Y-136454299D02*
X113014285Y-135882870D01*
X112628571Y-135454299D02*
X113142857Y-136025727D01*
X111085714Y-136454299D02*
X111600000Y-136454299D01*
X111342857Y-136454299D02*
X111342857Y-135454299D01*
X111342857Y-135454299D02*
X111428571Y-135597156D01*
X111428571Y-135597156D02*
X111514286Y-135692394D01*
X111514286Y-135692394D02*
X111600000Y-135740013D01*
X110700000Y-136359060D02*
X110657143Y-136406680D01*
X110657143Y-136406680D02*
X110700000Y-136454299D01*
X110700000Y-136454299D02*
X110742857Y-136406680D01*
X110742857Y-136406680D02*
X110700000Y-136359060D01*
X110700000Y-136359060D02*
X110700000Y-136454299D01*
X110100000Y-135454299D02*
X110014286Y-135454299D01*
X110014286Y-135454299D02*
X109928572Y-135501918D01*
X109928572Y-135501918D02*
X109885715Y-135549537D01*
X109885715Y-135549537D02*
X109842857Y-135644775D01*
X109842857Y-135644775D02*
X109800000Y-135835251D01*
X109800000Y-135835251D02*
X109800000Y-136073346D01*
X109800000Y-136073346D02*
X109842857Y-136263822D01*
X109842857Y-136263822D02*
X109885715Y-136359060D01*
X109885715Y-136359060D02*
X109928572Y-136406680D01*
X109928572Y-136406680D02*
X110014286Y-136454299D01*
X110014286Y-136454299D02*
X110100000Y-136454299D01*
X110100000Y-136454299D02*
X110185715Y-136406680D01*
X110185715Y-136406680D02*
X110228572Y-136359060D01*
X110228572Y-136359060D02*
X110271429Y-136263822D01*
X110271429Y-136263822D02*
X110314286Y-136073346D01*
X110314286Y-136073346D02*
X110314286Y-135835251D01*
X110314286Y-135835251D02*
X110271429Y-135644775D01*
X110271429Y-135644775D02*
X110228572Y-135549537D01*
X110228572Y-135549537D02*
X110185715Y-135501918D01*
X110185715Y-135501918D02*
X110100000Y-135454299D01*
X112796427Y-124559060D02*
X112839284Y-124606680D01*
X112839284Y-124606680D02*
X112967856Y-124654299D01*
X112967856Y-124654299D02*
X113053570Y-124654299D01*
X113053570Y-124654299D02*
X113182141Y-124606680D01*
X113182141Y-124606680D02*
X113267856Y-124511441D01*
X113267856Y-124511441D02*
X113310713Y-124416203D01*
X113310713Y-124416203D02*
X113353570Y-124225727D01*
X113353570Y-124225727D02*
X113353570Y-124082870D01*
X113353570Y-124082870D02*
X113310713Y-123892394D01*
X113310713Y-123892394D02*
X113267856Y-123797156D01*
X113267856Y-123797156D02*
X113182141Y-123701918D01*
X113182141Y-123701918D02*
X113053570Y-123654299D01*
X113053570Y-123654299D02*
X112967856Y-123654299D01*
X112967856Y-123654299D02*
X112839284Y-123701918D01*
X112839284Y-123701918D02*
X112796427Y-123749537D01*
X112496427Y-123654299D02*
X111939284Y-123654299D01*
X111939284Y-123654299D02*
X112239284Y-124035251D01*
X112239284Y-124035251D02*
X112110713Y-124035251D01*
X112110713Y-124035251D02*
X112024999Y-124082870D01*
X112024999Y-124082870D02*
X111982141Y-124130489D01*
X111982141Y-124130489D02*
X111939284Y-124225727D01*
X111939284Y-124225727D02*
X111939284Y-124463822D01*
X111939284Y-124463822D02*
X111982141Y-124559060D01*
X111982141Y-124559060D02*
X112024999Y-124606680D01*
X112024999Y-124606680D02*
X112110713Y-124654299D01*
X112110713Y-124654299D02*
X112367856Y-124654299D01*
X112367856Y-124654299D02*
X112453570Y-124606680D01*
X112453570Y-124606680D02*
X112496427Y-124559060D01*
X113153570Y-116754299D02*
X113453570Y-116278108D01*
X113667856Y-116754299D02*
X113667856Y-115754299D01*
X113667856Y-115754299D02*
X113324999Y-115754299D01*
X113324999Y-115754299D02*
X113239284Y-115801918D01*
X113239284Y-115801918D02*
X113196427Y-115849537D01*
X113196427Y-115849537D02*
X113153570Y-115944775D01*
X113153570Y-115944775D02*
X113153570Y-116087632D01*
X113153570Y-116087632D02*
X113196427Y-116182870D01*
X113196427Y-116182870D02*
X113239284Y-116230489D01*
X113239284Y-116230489D02*
X113324999Y-116278108D01*
X113324999Y-116278108D02*
X113667856Y-116278108D01*
X112296427Y-116754299D02*
X112810713Y-116754299D01*
X112553570Y-116754299D02*
X112553570Y-115754299D01*
X112553570Y-115754299D02*
X112639284Y-115897156D01*
X112639284Y-115897156D02*
X112724999Y-115992394D01*
X112724999Y-115992394D02*
X112810713Y-116040013D01*
X113891785Y-131455099D02*
X113891785Y-130455099D01*
X113891785Y-130455099D02*
X113677499Y-130455099D01*
X113677499Y-130455099D02*
X113548928Y-130502718D01*
X113548928Y-130502718D02*
X113463213Y-130597956D01*
X113463213Y-130597956D02*
X113420356Y-130693194D01*
X113420356Y-130693194D02*
X113377499Y-130883670D01*
X113377499Y-130883670D02*
X113377499Y-131026527D01*
X113377499Y-131026527D02*
X113420356Y-131217003D01*
X113420356Y-131217003D02*
X113463213Y-131312241D01*
X113463213Y-131312241D02*
X113548928Y-131407480D01*
X113548928Y-131407480D02*
X113677499Y-131455099D01*
X113677499Y-131455099D02*
X113891785Y-131455099D01*
X112520356Y-131455099D02*
X113034642Y-131455099D01*
X112777499Y-131455099D02*
X112777499Y-130455099D01*
X112777499Y-130455099D02*
X112863213Y-130597956D01*
X112863213Y-130597956D02*
X112948928Y-130693194D01*
X112948928Y-130693194D02*
X113034642Y-130740813D01*
X114602142Y-121254299D02*
X115030714Y-121254299D01*
X115030714Y-121254299D02*
X115030714Y-120254299D01*
X114302143Y-120730489D02*
X114002143Y-120730489D01*
X113873571Y-121254299D02*
X114302143Y-121254299D01*
X114302143Y-121254299D02*
X114302143Y-120254299D01*
X114302143Y-120254299D02*
X113873571Y-120254299D01*
X113487857Y-121254299D02*
X113487857Y-120254299D01*
X113487857Y-120254299D02*
X113273571Y-120254299D01*
X113273571Y-120254299D02*
X113145000Y-120301918D01*
X113145000Y-120301918D02*
X113059285Y-120397156D01*
X113059285Y-120397156D02*
X113016428Y-120492394D01*
X113016428Y-120492394D02*
X112973571Y-120682870D01*
X112973571Y-120682870D02*
X112973571Y-120825727D01*
X112973571Y-120825727D02*
X113016428Y-121016203D01*
X113016428Y-121016203D02*
X113059285Y-121111441D01*
X113059285Y-121111441D02*
X113145000Y-121206680D01*
X113145000Y-121206680D02*
X113273571Y-121254299D01*
X113273571Y-121254299D02*
X113487857Y-121254299D01*
X112116428Y-121254299D02*
X112630714Y-121254299D01*
X112373571Y-121254299D02*
X112373571Y-120254299D01*
X112373571Y-120254299D02*
X112459285Y-120397156D01*
X112459285Y-120397156D02*
X112545000Y-120492394D01*
X112545000Y-120492394D02*
X112630714Y-120540013D01*
X116829099Y-133046533D02*
X116829099Y-133760818D01*
X116829099Y-133760818D02*
X116871956Y-133903675D01*
X116871956Y-133903675D02*
X116957670Y-133998914D01*
X116957670Y-133998914D02*
X117086242Y-134046533D01*
X117086242Y-134046533D02*
X117171956Y-134046533D01*
X116400528Y-134046533D02*
X116400528Y-133046533D01*
X116400528Y-133046533D02*
X116057671Y-133046533D01*
X116057671Y-133046533D02*
X115971956Y-133094152D01*
X115971956Y-133094152D02*
X115929099Y-133141771D01*
X115929099Y-133141771D02*
X115886242Y-133237009D01*
X115886242Y-133237009D02*
X115886242Y-133379866D01*
X115886242Y-133379866D02*
X115929099Y-133475104D01*
X115929099Y-133475104D02*
X115971956Y-133522723D01*
X115971956Y-133522723D02*
X116057671Y-133570342D01*
X116057671Y-133570342D02*
X116400528Y-133570342D01*
X115071956Y-133046533D02*
X115500528Y-133046533D01*
X115500528Y-133046533D02*
X115543385Y-133522723D01*
X115543385Y-133522723D02*
X115500528Y-133475104D01*
X115500528Y-133475104D02*
X115414814Y-133427485D01*
X115414814Y-133427485D02*
X115200528Y-133427485D01*
X115200528Y-133427485D02*
X115114814Y-133475104D01*
X115114814Y-133475104D02*
X115071956Y-133522723D01*
X115071956Y-133522723D02*
X115029099Y-133617961D01*
X115029099Y-133617961D02*
X115029099Y-133856056D01*
X115029099Y-133856056D02*
X115071956Y-133951294D01*
X115071956Y-133951294D02*
X115114814Y-133998914D01*
X115114814Y-133998914D02*
X115200528Y-134046533D01*
X115200528Y-134046533D02*
X115414814Y-134046533D01*
X115414814Y-134046533D02*
X115500528Y-133998914D01*
X115500528Y-133998914D02*
X115543385Y-133951294D01*
X117078571Y-117434299D02*
X117078571Y-118148584D01*
X117078571Y-118148584D02*
X117121428Y-118291441D01*
X117121428Y-118291441D02*
X117207142Y-118386680D01*
X117207142Y-118386680D02*
X117335714Y-118434299D01*
X117335714Y-118434299D02*
X117421428Y-118434299D01*
X116650000Y-118434299D02*
X116650000Y-117434299D01*
X116650000Y-117434299D02*
X116307143Y-117434299D01*
X116307143Y-117434299D02*
X116221428Y-117481918D01*
X116221428Y-117481918D02*
X116178571Y-117529537D01*
X116178571Y-117529537D02*
X116135714Y-117624775D01*
X116135714Y-117624775D02*
X116135714Y-117767632D01*
X116135714Y-117767632D02*
X116178571Y-117862870D01*
X116178571Y-117862870D02*
X116221428Y-117910489D01*
X116221428Y-117910489D02*
X116307143Y-117958108D01*
X116307143Y-117958108D02*
X116650000Y-117958108D01*
X115792857Y-117529537D02*
X115750000Y-117481918D01*
X115750000Y-117481918D02*
X115664286Y-117434299D01*
X115664286Y-117434299D02*
X115450000Y-117434299D01*
X115450000Y-117434299D02*
X115364286Y-117481918D01*
X115364286Y-117481918D02*
X115321428Y-117529537D01*
X115321428Y-117529537D02*
X115278571Y-117624775D01*
X115278571Y-117624775D02*
X115278571Y-117720013D01*
X115278571Y-117720013D02*
X115321428Y-117862870D01*
X115321428Y-117862870D02*
X115835714Y-118434299D01*
X115835714Y-118434299D02*
X115278571Y-118434299D01*
X117296427Y-130734060D02*
X117339284Y-130781680D01*
X117339284Y-130781680D02*
X117467856Y-130829299D01*
X117467856Y-130829299D02*
X117553570Y-130829299D01*
X117553570Y-130829299D02*
X117682141Y-130781680D01*
X117682141Y-130781680D02*
X117767856Y-130686441D01*
X117767856Y-130686441D02*
X117810713Y-130591203D01*
X117810713Y-130591203D02*
X117853570Y-130400727D01*
X117853570Y-130400727D02*
X117853570Y-130257870D01*
X117853570Y-130257870D02*
X117810713Y-130067394D01*
X117810713Y-130067394D02*
X117767856Y-129972156D01*
X117767856Y-129972156D02*
X117682141Y-129876918D01*
X117682141Y-129876918D02*
X117553570Y-129829299D01*
X117553570Y-129829299D02*
X117467856Y-129829299D01*
X117467856Y-129829299D02*
X117339284Y-129876918D01*
X117339284Y-129876918D02*
X117296427Y-129924537D01*
X116439284Y-130829299D02*
X116953570Y-130829299D01*
X116696427Y-130829299D02*
X116696427Y-129829299D01*
X116696427Y-129829299D02*
X116782141Y-129972156D01*
X116782141Y-129972156D02*
X116867856Y-130067394D01*
X116867856Y-130067394D02*
X116953570Y-130115013D01*
X117374999Y-121798260D02*
X117417856Y-121845880D01*
X117417856Y-121845880D02*
X117546428Y-121893499D01*
X117546428Y-121893499D02*
X117632142Y-121893499D01*
X117632142Y-121893499D02*
X117760713Y-121845880D01*
X117760713Y-121845880D02*
X117846428Y-121750641D01*
X117846428Y-121750641D02*
X117889285Y-121655403D01*
X117889285Y-121655403D02*
X117932142Y-121464927D01*
X117932142Y-121464927D02*
X117932142Y-121322070D01*
X117932142Y-121322070D02*
X117889285Y-121131594D01*
X117889285Y-121131594D02*
X117846428Y-121036356D01*
X117846428Y-121036356D02*
X117760713Y-120941118D01*
X117760713Y-120941118D02*
X117632142Y-120893499D01*
X117632142Y-120893499D02*
X117546428Y-120893499D01*
X117546428Y-120893499D02*
X117417856Y-120941118D01*
X117417856Y-120941118D02*
X117374999Y-120988737D01*
X117032142Y-120988737D02*
X116989285Y-120941118D01*
X116989285Y-120941118D02*
X116903571Y-120893499D01*
X116903571Y-120893499D02*
X116689285Y-120893499D01*
X116689285Y-120893499D02*
X116603571Y-120941118D01*
X116603571Y-120941118D02*
X116560713Y-120988737D01*
X116560713Y-120988737D02*
X116517856Y-121083975D01*
X116517856Y-121083975D02*
X116517856Y-121179213D01*
X116517856Y-121179213D02*
X116560713Y-121322070D01*
X116560713Y-121322070D02*
X117074999Y-121893499D01*
X117074999Y-121893499D02*
X116517856Y-121893499D01*
X117585714Y-106638737D02*
X117671428Y-106591118D01*
X117671428Y-106591118D02*
X117757142Y-106495880D01*
X117757142Y-106495880D02*
X117885714Y-106353022D01*
X117885714Y-106353022D02*
X117971428Y-106305403D01*
X117971428Y-106305403D02*
X118057142Y-106305403D01*
X118014285Y-106543499D02*
X118100000Y-106495880D01*
X118100000Y-106495880D02*
X118185714Y-106400641D01*
X118185714Y-106400641D02*
X118228571Y-106210165D01*
X118228571Y-106210165D02*
X118228571Y-105876832D01*
X118228571Y-105876832D02*
X118185714Y-105686356D01*
X118185714Y-105686356D02*
X118100000Y-105591118D01*
X118100000Y-105591118D02*
X118014285Y-105543499D01*
X118014285Y-105543499D02*
X117842857Y-105543499D01*
X117842857Y-105543499D02*
X117757142Y-105591118D01*
X117757142Y-105591118D02*
X117671428Y-105686356D01*
X117671428Y-105686356D02*
X117628571Y-105876832D01*
X117628571Y-105876832D02*
X117628571Y-106210165D01*
X117628571Y-106210165D02*
X117671428Y-106400641D01*
X117671428Y-106400641D02*
X117757142Y-106495880D01*
X117757142Y-106495880D02*
X117842857Y-106543499D01*
X117842857Y-106543499D02*
X118014285Y-106543499D01*
X116771428Y-106543499D02*
X117285714Y-106543499D01*
X117028571Y-106543499D02*
X117028571Y-105543499D01*
X117028571Y-105543499D02*
X117114285Y-105686356D01*
X117114285Y-105686356D02*
X117200000Y-105781594D01*
X117200000Y-105781594D02*
X117285714Y-105829213D01*
X119080997Y-114162332D02*
X119080997Y-114876617D01*
X119080997Y-114876617D02*
X119123854Y-115019474D01*
X119123854Y-115019474D02*
X119209568Y-115114713D01*
X119209568Y-115114713D02*
X119338140Y-115162332D01*
X119338140Y-115162332D02*
X119423854Y-115162332D01*
X118652426Y-115162332D02*
X118652426Y-114162332D01*
X118652426Y-114162332D02*
X118309569Y-114162332D01*
X118309569Y-114162332D02*
X118223854Y-114209951D01*
X118223854Y-114209951D02*
X118180997Y-114257570D01*
X118180997Y-114257570D02*
X118138140Y-114352808D01*
X118138140Y-114352808D02*
X118138140Y-114495665D01*
X118138140Y-114495665D02*
X118180997Y-114590903D01*
X118180997Y-114590903D02*
X118223854Y-114638522D01*
X118223854Y-114638522D02*
X118309569Y-114686141D01*
X118309569Y-114686141D02*
X118652426Y-114686141D01*
X117366712Y-114162332D02*
X117538140Y-114162332D01*
X117538140Y-114162332D02*
X117623854Y-114209951D01*
X117623854Y-114209951D02*
X117666712Y-114257570D01*
X117666712Y-114257570D02*
X117752426Y-114400427D01*
X117752426Y-114400427D02*
X117795283Y-114590903D01*
X117795283Y-114590903D02*
X117795283Y-114971855D01*
X117795283Y-114971855D02*
X117752426Y-115067093D01*
X117752426Y-115067093D02*
X117709569Y-115114713D01*
X117709569Y-115114713D02*
X117623854Y-115162332D01*
X117623854Y-115162332D02*
X117452426Y-115162332D01*
X117452426Y-115162332D02*
X117366712Y-115114713D01*
X117366712Y-115114713D02*
X117323854Y-115067093D01*
X117323854Y-115067093D02*
X117280997Y-114971855D01*
X117280997Y-114971855D02*
X117280997Y-114733760D01*
X117280997Y-114733760D02*
X117323854Y-114638522D01*
X117323854Y-114638522D02*
X117366712Y-114590903D01*
X117366712Y-114590903D02*
X117452426Y-114543284D01*
X117452426Y-114543284D02*
X117623854Y-114543284D01*
X117623854Y-114543284D02*
X117709569Y-114590903D01*
X117709569Y-114590903D02*
X117752426Y-114638522D01*
X117752426Y-114638522D02*
X117795283Y-114733760D01*
X119826428Y-138115099D02*
X120126428Y-137638908D01*
X120340714Y-138115099D02*
X120340714Y-137115099D01*
X120340714Y-137115099D02*
X119997857Y-137115099D01*
X119997857Y-137115099D02*
X119912142Y-137162718D01*
X119912142Y-137162718D02*
X119869285Y-137210337D01*
X119869285Y-137210337D02*
X119826428Y-137305575D01*
X119826428Y-137305575D02*
X119826428Y-137448432D01*
X119826428Y-137448432D02*
X119869285Y-137543670D01*
X119869285Y-137543670D02*
X119912142Y-137591289D01*
X119912142Y-137591289D02*
X119997857Y-137638908D01*
X119997857Y-137638908D02*
X120340714Y-137638908D01*
X118969285Y-138115099D02*
X119483571Y-138115099D01*
X119226428Y-138115099D02*
X119226428Y-137115099D01*
X119226428Y-137115099D02*
X119312142Y-137257956D01*
X119312142Y-137257956D02*
X119397857Y-137353194D01*
X119397857Y-137353194D02*
X119483571Y-137400813D01*
X118412142Y-137115099D02*
X118326428Y-137115099D01*
X118326428Y-137115099D02*
X118240714Y-137162718D01*
X118240714Y-137162718D02*
X118197857Y-137210337D01*
X118197857Y-137210337D02*
X118154999Y-137305575D01*
X118154999Y-137305575D02*
X118112142Y-137496051D01*
X118112142Y-137496051D02*
X118112142Y-137734146D01*
X118112142Y-137734146D02*
X118154999Y-137924622D01*
X118154999Y-137924622D02*
X118197857Y-138019860D01*
X118197857Y-138019860D02*
X118240714Y-138067480D01*
X118240714Y-138067480D02*
X118326428Y-138115099D01*
X118326428Y-138115099D02*
X118412142Y-138115099D01*
X118412142Y-138115099D02*
X118497857Y-138067480D01*
X118497857Y-138067480D02*
X118540714Y-138019860D01*
X118540714Y-138019860D02*
X118583571Y-137924622D01*
X118583571Y-137924622D02*
X118626428Y-137734146D01*
X118626428Y-137734146D02*
X118626428Y-137496051D01*
X118626428Y-137496051D02*
X118583571Y-137305575D01*
X118583571Y-137305575D02*
X118540714Y-137210337D01*
X118540714Y-137210337D02*
X118497857Y-137162718D01*
X118497857Y-137162718D02*
X118412142Y-137115099D01*
X120922142Y-103549299D02*
X121350714Y-103549299D01*
X121350714Y-103549299D02*
X121350714Y-102549299D01*
X120622143Y-103025489D02*
X120322143Y-103025489D01*
X120193571Y-103549299D02*
X120622143Y-103549299D01*
X120622143Y-103549299D02*
X120622143Y-102549299D01*
X120622143Y-102549299D02*
X120193571Y-102549299D01*
X119807857Y-103549299D02*
X119807857Y-102549299D01*
X119807857Y-102549299D02*
X119593571Y-102549299D01*
X119593571Y-102549299D02*
X119465000Y-102596918D01*
X119465000Y-102596918D02*
X119379285Y-102692156D01*
X119379285Y-102692156D02*
X119336428Y-102787394D01*
X119336428Y-102787394D02*
X119293571Y-102977870D01*
X119293571Y-102977870D02*
X119293571Y-103120727D01*
X119293571Y-103120727D02*
X119336428Y-103311203D01*
X119336428Y-103311203D02*
X119379285Y-103406441D01*
X119379285Y-103406441D02*
X119465000Y-103501680D01*
X119465000Y-103501680D02*
X119593571Y-103549299D01*
X119593571Y-103549299D02*
X119807857Y-103549299D01*
X118950714Y-102644537D02*
X118907857Y-102596918D01*
X118907857Y-102596918D02*
X118822143Y-102549299D01*
X118822143Y-102549299D02*
X118607857Y-102549299D01*
X118607857Y-102549299D02*
X118522143Y-102596918D01*
X118522143Y-102596918D02*
X118479285Y-102644537D01*
X118479285Y-102644537D02*
X118436428Y-102739775D01*
X118436428Y-102739775D02*
X118436428Y-102835013D01*
X118436428Y-102835013D02*
X118479285Y-102977870D01*
X118479285Y-102977870D02*
X118993571Y-103549299D01*
X118993571Y-103549299D02*
X118436428Y-103549299D01*
X120254999Y-123513499D02*
X120683571Y-123513499D01*
X120683571Y-123513499D02*
X120683571Y-122513499D01*
X119483571Y-123513499D02*
X119997857Y-123513499D01*
X119740714Y-123513499D02*
X119740714Y-122513499D01*
X119740714Y-122513499D02*
X119826428Y-122656356D01*
X119826428Y-122656356D02*
X119912143Y-122751594D01*
X119912143Y-122751594D02*
X119997857Y-122799213D01*
X120802499Y-110413499D02*
X121102499Y-109937308D01*
X121316785Y-110413499D02*
X121316785Y-109413499D01*
X121316785Y-109413499D02*
X120973928Y-109413499D01*
X120973928Y-109413499D02*
X120888213Y-109461118D01*
X120888213Y-109461118D02*
X120845356Y-109508737D01*
X120845356Y-109508737D02*
X120802499Y-109603975D01*
X120802499Y-109603975D02*
X120802499Y-109746832D01*
X120802499Y-109746832D02*
X120845356Y-109842070D01*
X120845356Y-109842070D02*
X120888213Y-109889689D01*
X120888213Y-109889689D02*
X120973928Y-109937308D01*
X120973928Y-109937308D02*
X121316785Y-109937308D01*
X119988213Y-109413499D02*
X120416785Y-109413499D01*
X120416785Y-109413499D02*
X120459642Y-109889689D01*
X120459642Y-109889689D02*
X120416785Y-109842070D01*
X120416785Y-109842070D02*
X120331071Y-109794451D01*
X120331071Y-109794451D02*
X120116785Y-109794451D01*
X120116785Y-109794451D02*
X120031071Y-109842070D01*
X120031071Y-109842070D02*
X119988213Y-109889689D01*
X119988213Y-109889689D02*
X119945356Y-109984927D01*
X119945356Y-109984927D02*
X119945356Y-110223022D01*
X119945356Y-110223022D02*
X119988213Y-110318260D01*
X119988213Y-110318260D02*
X120031071Y-110365880D01*
X120031071Y-110365880D02*
X120116785Y-110413499D01*
X120116785Y-110413499D02*
X120331071Y-110413499D01*
X120331071Y-110413499D02*
X120416785Y-110365880D01*
X120416785Y-110365880D02*
X120459642Y-110318260D01*
X128403570Y-132684060D02*
X128446427Y-132731680D01*
X128446427Y-132731680D02*
X128574999Y-132779299D01*
X128574999Y-132779299D02*
X128660713Y-132779299D01*
X128660713Y-132779299D02*
X128789284Y-132731680D01*
X128789284Y-132731680D02*
X128874999Y-132636441D01*
X128874999Y-132636441D02*
X128917856Y-132541203D01*
X128917856Y-132541203D02*
X128960713Y-132350727D01*
X128960713Y-132350727D02*
X128960713Y-132207870D01*
X128960713Y-132207870D02*
X128917856Y-132017394D01*
X128917856Y-132017394D02*
X128874999Y-131922156D01*
X128874999Y-131922156D02*
X128789284Y-131826918D01*
X128789284Y-131826918D02*
X128660713Y-131779299D01*
X128660713Y-131779299D02*
X128574999Y-131779299D01*
X128574999Y-131779299D02*
X128446427Y-131826918D01*
X128446427Y-131826918D02*
X128403570Y-131874537D01*
X127889284Y-132207870D02*
X127974999Y-132160251D01*
X127974999Y-132160251D02*
X128017856Y-132112632D01*
X128017856Y-132112632D02*
X128060713Y-132017394D01*
X128060713Y-132017394D02*
X128060713Y-131969775D01*
X128060713Y-131969775D02*
X128017856Y-131874537D01*
X128017856Y-131874537D02*
X127974999Y-131826918D01*
X127974999Y-131826918D02*
X127889284Y-131779299D01*
X127889284Y-131779299D02*
X127717856Y-131779299D01*
X127717856Y-131779299D02*
X127632142Y-131826918D01*
X127632142Y-131826918D02*
X127589284Y-131874537D01*
X127589284Y-131874537D02*
X127546427Y-131969775D01*
X127546427Y-131969775D02*
X127546427Y-132017394D01*
X127546427Y-132017394D02*
X127589284Y-132112632D01*
X127589284Y-132112632D02*
X127632142Y-132160251D01*
X127632142Y-132160251D02*
X127717856Y-132207870D01*
X127717856Y-132207870D02*
X127889284Y-132207870D01*
X127889284Y-132207870D02*
X127974999Y-132255489D01*
X127974999Y-132255489D02*
X128017856Y-132303108D01*
X128017856Y-132303108D02*
X128060713Y-132398346D01*
X128060713Y-132398346D02*
X128060713Y-132588822D01*
X128060713Y-132588822D02*
X128017856Y-132684060D01*
X128017856Y-132684060D02*
X127974999Y-132731680D01*
X127974999Y-132731680D02*
X127889284Y-132779299D01*
X127889284Y-132779299D02*
X127717856Y-132779299D01*
X127717856Y-132779299D02*
X127632142Y-132731680D01*
X127632142Y-132731680D02*
X127589284Y-132684060D01*
X127589284Y-132684060D02*
X127546427Y-132588822D01*
X127546427Y-132588822D02*
X127546427Y-132398346D01*
X127546427Y-132398346D02*
X127589284Y-132303108D01*
X127589284Y-132303108D02*
X127632142Y-132255489D01*
X127632142Y-132255489D02*
X127717856Y-132207870D01*
X128849999Y-126093499D02*
X129149999Y-125617308D01*
X129364285Y-126093499D02*
X129364285Y-125093499D01*
X129364285Y-125093499D02*
X129021428Y-125093499D01*
X129021428Y-125093499D02*
X128935713Y-125141118D01*
X128935713Y-125141118D02*
X128892856Y-125188737D01*
X128892856Y-125188737D02*
X128849999Y-125283975D01*
X128849999Y-125283975D02*
X128849999Y-125426832D01*
X128849999Y-125426832D02*
X128892856Y-125522070D01*
X128892856Y-125522070D02*
X128935713Y-125569689D01*
X128935713Y-125569689D02*
X129021428Y-125617308D01*
X129021428Y-125617308D02*
X129364285Y-125617308D01*
X128335713Y-125522070D02*
X128421428Y-125474451D01*
X128421428Y-125474451D02*
X128464285Y-125426832D01*
X128464285Y-125426832D02*
X128507142Y-125331594D01*
X128507142Y-125331594D02*
X128507142Y-125283975D01*
X128507142Y-125283975D02*
X128464285Y-125188737D01*
X128464285Y-125188737D02*
X128421428Y-125141118D01*
X128421428Y-125141118D02*
X128335713Y-125093499D01*
X128335713Y-125093499D02*
X128164285Y-125093499D01*
X128164285Y-125093499D02*
X128078571Y-125141118D01*
X128078571Y-125141118D02*
X128035713Y-125188737D01*
X128035713Y-125188737D02*
X127992856Y-125283975D01*
X127992856Y-125283975D02*
X127992856Y-125331594D01*
X127992856Y-125331594D02*
X128035713Y-125426832D01*
X128035713Y-125426832D02*
X128078571Y-125474451D01*
X128078571Y-125474451D02*
X128164285Y-125522070D01*
X128164285Y-125522070D02*
X128335713Y-125522070D01*
X128335713Y-125522070D02*
X128421428Y-125569689D01*
X128421428Y-125569689D02*
X128464285Y-125617308D01*
X128464285Y-125617308D02*
X128507142Y-125712546D01*
X128507142Y-125712546D02*
X128507142Y-125903022D01*
X128507142Y-125903022D02*
X128464285Y-125998260D01*
X128464285Y-125998260D02*
X128421428Y-126045880D01*
X128421428Y-126045880D02*
X128335713Y-126093499D01*
X128335713Y-126093499D02*
X128164285Y-126093499D01*
X128164285Y-126093499D02*
X128078571Y-126045880D01*
X128078571Y-126045880D02*
X128035713Y-125998260D01*
X128035713Y-125998260D02*
X127992856Y-125903022D01*
X127992856Y-125903022D02*
X127992856Y-125712546D01*
X127992856Y-125712546D02*
X128035713Y-125617308D01*
X128035713Y-125617308D02*
X128078571Y-125569689D01*
X128078571Y-125569689D02*
X128164285Y-125522070D01*
X130273571Y-110054299D02*
X130573571Y-109578108D01*
X130787857Y-110054299D02*
X130787857Y-109054299D01*
X130787857Y-109054299D02*
X130445000Y-109054299D01*
X130445000Y-109054299D02*
X130359285Y-109101918D01*
X130359285Y-109101918D02*
X130316428Y-109149537D01*
X130316428Y-109149537D02*
X130273571Y-109244775D01*
X130273571Y-109244775D02*
X130273571Y-109387632D01*
X130273571Y-109387632D02*
X130316428Y-109482870D01*
X130316428Y-109482870D02*
X130359285Y-109530489D01*
X130359285Y-109530489D02*
X130445000Y-109578108D01*
X130445000Y-109578108D02*
X130787857Y-109578108D01*
X129502143Y-109054299D02*
X129673571Y-109054299D01*
X129673571Y-109054299D02*
X129759285Y-109101918D01*
X129759285Y-109101918D02*
X129802143Y-109149537D01*
X129802143Y-109149537D02*
X129887857Y-109292394D01*
X129887857Y-109292394D02*
X129930714Y-109482870D01*
X129930714Y-109482870D02*
X129930714Y-109863822D01*
X129930714Y-109863822D02*
X129887857Y-109959060D01*
X129887857Y-109959060D02*
X129845000Y-110006680D01*
X129845000Y-110006680D02*
X129759285Y-110054299D01*
X129759285Y-110054299D02*
X129587857Y-110054299D01*
X129587857Y-110054299D02*
X129502143Y-110006680D01*
X129502143Y-110006680D02*
X129459285Y-109959060D01*
X129459285Y-109959060D02*
X129416428Y-109863822D01*
X129416428Y-109863822D02*
X129416428Y-109625727D01*
X129416428Y-109625727D02*
X129459285Y-109530489D01*
X129459285Y-109530489D02*
X129502143Y-109482870D01*
X129502143Y-109482870D02*
X129587857Y-109435251D01*
X129587857Y-109435251D02*
X129759285Y-109435251D01*
X129759285Y-109435251D02*
X129845000Y-109482870D01*
X129845000Y-109482870D02*
X129887857Y-109530489D01*
X129887857Y-109530489D02*
X129930714Y-109625727D01*
X130496427Y-115721560D02*
X130539284Y-115769180D01*
X130539284Y-115769180D02*
X130667856Y-115816799D01*
X130667856Y-115816799D02*
X130753570Y-115816799D01*
X130753570Y-115816799D02*
X130882141Y-115769180D01*
X130882141Y-115769180D02*
X130967856Y-115673941D01*
X130967856Y-115673941D02*
X131010713Y-115578703D01*
X131010713Y-115578703D02*
X131053570Y-115388227D01*
X131053570Y-115388227D02*
X131053570Y-115245370D01*
X131053570Y-115245370D02*
X131010713Y-115054894D01*
X131010713Y-115054894D02*
X130967856Y-114959656D01*
X130967856Y-114959656D02*
X130882141Y-114864418D01*
X130882141Y-114864418D02*
X130753570Y-114816799D01*
X130753570Y-114816799D02*
X130667856Y-114816799D01*
X130667856Y-114816799D02*
X130539284Y-114864418D01*
X130539284Y-114864418D02*
X130496427Y-114912037D01*
X130196427Y-114816799D02*
X129596427Y-114816799D01*
X129596427Y-114816799D02*
X129982141Y-115816799D01*
X133446427Y-111301799D02*
X133746427Y-110825608D01*
X133960713Y-111301799D02*
X133960713Y-110301799D01*
X133960713Y-110301799D02*
X133617856Y-110301799D01*
X133617856Y-110301799D02*
X133532141Y-110349418D01*
X133532141Y-110349418D02*
X133489284Y-110397037D01*
X133489284Y-110397037D02*
X133446427Y-110492275D01*
X133446427Y-110492275D02*
X133446427Y-110635132D01*
X133446427Y-110635132D02*
X133489284Y-110730370D01*
X133489284Y-110730370D02*
X133532141Y-110777989D01*
X133532141Y-110777989D02*
X133617856Y-110825608D01*
X133617856Y-110825608D02*
X133960713Y-110825608D01*
X133146427Y-110301799D02*
X132546427Y-110301799D01*
X132546427Y-110301799D02*
X132932141Y-111301799D01*
X134449999Y-132249860D02*
X134492856Y-132297480D01*
X134492856Y-132297480D02*
X134621428Y-132345099D01*
X134621428Y-132345099D02*
X134707142Y-132345099D01*
X134707142Y-132345099D02*
X134835713Y-132297480D01*
X134835713Y-132297480D02*
X134921428Y-132202241D01*
X134921428Y-132202241D02*
X134964285Y-132107003D01*
X134964285Y-132107003D02*
X135007142Y-131916527D01*
X135007142Y-131916527D02*
X135007142Y-131773670D01*
X135007142Y-131773670D02*
X134964285Y-131583194D01*
X134964285Y-131583194D02*
X134921428Y-131487956D01*
X134921428Y-131487956D02*
X134835713Y-131392718D01*
X134835713Y-131392718D02*
X134707142Y-131345099D01*
X134707142Y-131345099D02*
X134621428Y-131345099D01*
X134621428Y-131345099D02*
X134492856Y-131392718D01*
X134492856Y-131392718D02*
X134449999Y-131440337D01*
X133635713Y-131345099D02*
X134064285Y-131345099D01*
X134064285Y-131345099D02*
X134107142Y-131821289D01*
X134107142Y-131821289D02*
X134064285Y-131773670D01*
X134064285Y-131773670D02*
X133978571Y-131726051D01*
X133978571Y-131726051D02*
X133764285Y-131726051D01*
X133764285Y-131726051D02*
X133678571Y-131773670D01*
X133678571Y-131773670D02*
X133635713Y-131821289D01*
X133635713Y-131821289D02*
X133592856Y-131916527D01*
X133592856Y-131916527D02*
X133592856Y-132154622D01*
X133592856Y-132154622D02*
X133635713Y-132249860D01*
X133635713Y-132249860D02*
X133678571Y-132297480D01*
X133678571Y-132297480D02*
X133764285Y-132345099D01*
X133764285Y-132345099D02*
X133978571Y-132345099D01*
X133978571Y-132345099D02*
X134064285Y-132297480D01*
X134064285Y-132297480D02*
X134107142Y-132249860D01*
X135383571Y-134563499D02*
X135683571Y-134087308D01*
X135897857Y-134563499D02*
X135897857Y-133563499D01*
X135897857Y-133563499D02*
X135555000Y-133563499D01*
X135555000Y-133563499D02*
X135469285Y-133611118D01*
X135469285Y-133611118D02*
X135426428Y-133658737D01*
X135426428Y-133658737D02*
X135383571Y-133753975D01*
X135383571Y-133753975D02*
X135383571Y-133896832D01*
X135383571Y-133896832D02*
X135426428Y-133992070D01*
X135426428Y-133992070D02*
X135469285Y-134039689D01*
X135469285Y-134039689D02*
X135555000Y-134087308D01*
X135555000Y-134087308D02*
X135897857Y-134087308D01*
X134526428Y-134563499D02*
X135040714Y-134563499D01*
X134783571Y-134563499D02*
X134783571Y-133563499D01*
X134783571Y-133563499D02*
X134869285Y-133706356D01*
X134869285Y-133706356D02*
X134955000Y-133801594D01*
X134955000Y-133801594D02*
X135040714Y-133849213D01*
X133669285Y-134563499D02*
X134183571Y-134563499D01*
X133926428Y-134563499D02*
X133926428Y-133563499D01*
X133926428Y-133563499D02*
X134012142Y-133706356D01*
X134012142Y-133706356D02*
X134097857Y-133801594D01*
X134097857Y-133801594D02*
X134183571Y-133849213D01*
X136974999Y-128815099D02*
X137274999Y-128338908D01*
X137489285Y-128815099D02*
X137489285Y-127815099D01*
X137489285Y-127815099D02*
X137146428Y-127815099D01*
X137146428Y-127815099D02*
X137060713Y-127862718D01*
X137060713Y-127862718D02*
X137017856Y-127910337D01*
X137017856Y-127910337D02*
X136974999Y-128005575D01*
X136974999Y-128005575D02*
X136974999Y-128148432D01*
X136974999Y-128148432D02*
X137017856Y-128243670D01*
X137017856Y-128243670D02*
X137060713Y-128291289D01*
X137060713Y-128291289D02*
X137146428Y-128338908D01*
X137146428Y-128338908D02*
X137489285Y-128338908D01*
X136203571Y-128148432D02*
X136203571Y-128815099D01*
X136417856Y-127767480D02*
X136632142Y-128481765D01*
X136632142Y-128481765D02*
X136074999Y-128481765D01*
X138149999Y-118333499D02*
X138449999Y-117857308D01*
X138664285Y-118333499D02*
X138664285Y-117333499D01*
X138664285Y-117333499D02*
X138321428Y-117333499D01*
X138321428Y-117333499D02*
X138235713Y-117381118D01*
X138235713Y-117381118D02*
X138192856Y-117428737D01*
X138192856Y-117428737D02*
X138149999Y-117523975D01*
X138149999Y-117523975D02*
X138149999Y-117666832D01*
X138149999Y-117666832D02*
X138192856Y-117762070D01*
X138192856Y-117762070D02*
X138235713Y-117809689D01*
X138235713Y-117809689D02*
X138321428Y-117857308D01*
X138321428Y-117857308D02*
X138664285Y-117857308D01*
X137849999Y-117333499D02*
X137292856Y-117333499D01*
X137292856Y-117333499D02*
X137592856Y-117714451D01*
X137592856Y-117714451D02*
X137464285Y-117714451D01*
X137464285Y-117714451D02*
X137378571Y-117762070D01*
X137378571Y-117762070D02*
X137335713Y-117809689D01*
X137335713Y-117809689D02*
X137292856Y-117904927D01*
X137292856Y-117904927D02*
X137292856Y-118143022D01*
X137292856Y-118143022D02*
X137335713Y-118238260D01*
X137335713Y-118238260D02*
X137378571Y-118285880D01*
X137378571Y-118285880D02*
X137464285Y-118333499D01*
X137464285Y-118333499D02*
X137721428Y-118333499D01*
X137721428Y-118333499D02*
X137807142Y-118285880D01*
X137807142Y-118285880D02*
X137849999Y-118238260D01*
X139253571Y-113259299D02*
X139553571Y-112783108D01*
X139767857Y-113259299D02*
X139767857Y-112259299D01*
X139767857Y-112259299D02*
X139425000Y-112259299D01*
X139425000Y-112259299D02*
X139339285Y-112306918D01*
X139339285Y-112306918D02*
X139296428Y-112354537D01*
X139296428Y-112354537D02*
X139253571Y-112449775D01*
X139253571Y-112449775D02*
X139253571Y-112592632D01*
X139253571Y-112592632D02*
X139296428Y-112687870D01*
X139296428Y-112687870D02*
X139339285Y-112735489D01*
X139339285Y-112735489D02*
X139425000Y-112783108D01*
X139425000Y-112783108D02*
X139767857Y-112783108D01*
X138910714Y-112354537D02*
X138867857Y-112306918D01*
X138867857Y-112306918D02*
X138782143Y-112259299D01*
X138782143Y-112259299D02*
X138567857Y-112259299D01*
X138567857Y-112259299D02*
X138482143Y-112306918D01*
X138482143Y-112306918D02*
X138439285Y-112354537D01*
X138439285Y-112354537D02*
X138396428Y-112449775D01*
X138396428Y-112449775D02*
X138396428Y-112545013D01*
X138396428Y-112545013D02*
X138439285Y-112687870D01*
X138439285Y-112687870D02*
X138953571Y-113259299D01*
X138953571Y-113259299D02*
X138396428Y-113259299D01*
X140449999Y-128769860D02*
X140492856Y-128817480D01*
X140492856Y-128817480D02*
X140621428Y-128865099D01*
X140621428Y-128865099D02*
X140707142Y-128865099D01*
X140707142Y-128865099D02*
X140835713Y-128817480D01*
X140835713Y-128817480D02*
X140921428Y-128722241D01*
X140921428Y-128722241D02*
X140964285Y-128627003D01*
X140964285Y-128627003D02*
X141007142Y-128436527D01*
X141007142Y-128436527D02*
X141007142Y-128293670D01*
X141007142Y-128293670D02*
X140964285Y-128103194D01*
X140964285Y-128103194D02*
X140921428Y-128007956D01*
X140921428Y-128007956D02*
X140835713Y-127912718D01*
X140835713Y-127912718D02*
X140707142Y-127865099D01*
X140707142Y-127865099D02*
X140621428Y-127865099D01*
X140621428Y-127865099D02*
X140492856Y-127912718D01*
X140492856Y-127912718D02*
X140449999Y-127960337D01*
X139678571Y-128198432D02*
X139678571Y-128865099D01*
X139892856Y-127817480D02*
X140107142Y-128531765D01*
X140107142Y-128531765D02*
X139549999Y-128531765D01*
X142821846Y-107656746D02*
X142307561Y-107656746D01*
X142564703Y-108656746D02*
X142564703Y-107656746D01*
X142007561Y-108656746D02*
X142007561Y-107656746D01*
X142007561Y-107656746D02*
X141664704Y-107656746D01*
X141664704Y-107656746D02*
X141578989Y-107704365D01*
X141578989Y-107704365D02*
X141536132Y-107751984D01*
X141536132Y-107751984D02*
X141493275Y-107847222D01*
X141493275Y-107847222D02*
X141493275Y-107990079D01*
X141493275Y-107990079D02*
X141536132Y-108085317D01*
X141536132Y-108085317D02*
X141578989Y-108132936D01*
X141578989Y-108132936D02*
X141664704Y-108180555D01*
X141664704Y-108180555D02*
X142007561Y-108180555D01*
X140636132Y-108656746D02*
X141150418Y-108656746D01*
X140893275Y-108656746D02*
X140893275Y-107656746D01*
X140893275Y-107656746D02*
X140978989Y-107799603D01*
X140978989Y-107799603D02*
X141064704Y-107894841D01*
X141064704Y-107894841D02*
X141150418Y-107942460D01*
X142821846Y-114854299D02*
X142307561Y-114854299D01*
X142564703Y-115854299D02*
X142564703Y-114854299D01*
X142007561Y-115854299D02*
X142007561Y-114854299D01*
X142007561Y-114854299D02*
X141664704Y-114854299D01*
X141664704Y-114854299D02*
X141578989Y-114901918D01*
X141578989Y-114901918D02*
X141536132Y-114949537D01*
X141536132Y-114949537D02*
X141493275Y-115044775D01*
X141493275Y-115044775D02*
X141493275Y-115187632D01*
X141493275Y-115187632D02*
X141536132Y-115282870D01*
X141536132Y-115282870D02*
X141578989Y-115330489D01*
X141578989Y-115330489D02*
X141664704Y-115378108D01*
X141664704Y-115378108D02*
X142007561Y-115378108D01*
X141193275Y-114854299D02*
X140636132Y-114854299D01*
X140636132Y-114854299D02*
X140936132Y-115235251D01*
X140936132Y-115235251D02*
X140807561Y-115235251D01*
X140807561Y-115235251D02*
X140721847Y-115282870D01*
X140721847Y-115282870D02*
X140678989Y-115330489D01*
X140678989Y-115330489D02*
X140636132Y-115425727D01*
X140636132Y-115425727D02*
X140636132Y-115663822D01*
X140636132Y-115663822D02*
X140678989Y-115759060D01*
X140678989Y-115759060D02*
X140721847Y-115806680D01*
X140721847Y-115806680D02*
X140807561Y-115854299D01*
X140807561Y-115854299D02*
X141064704Y-115854299D01*
X141064704Y-115854299D02*
X141150418Y-115806680D01*
X141150418Y-115806680D02*
X141193275Y-115759060D01*
X142821846Y-118356746D02*
X142307561Y-118356746D01*
X142564703Y-119356746D02*
X142564703Y-118356746D01*
X142007561Y-119356746D02*
X142007561Y-118356746D01*
X142007561Y-118356746D02*
X141664704Y-118356746D01*
X141664704Y-118356746D02*
X141578989Y-118404365D01*
X141578989Y-118404365D02*
X141536132Y-118451984D01*
X141536132Y-118451984D02*
X141493275Y-118547222D01*
X141493275Y-118547222D02*
X141493275Y-118690079D01*
X141493275Y-118690079D02*
X141536132Y-118785317D01*
X141536132Y-118785317D02*
X141578989Y-118832936D01*
X141578989Y-118832936D02*
X141664704Y-118880555D01*
X141664704Y-118880555D02*
X142007561Y-118880555D01*
X140678989Y-118356746D02*
X141107561Y-118356746D01*
X141107561Y-118356746D02*
X141150418Y-118832936D01*
X141150418Y-118832936D02*
X141107561Y-118785317D01*
X141107561Y-118785317D02*
X141021847Y-118737698D01*
X141021847Y-118737698D02*
X140807561Y-118737698D01*
X140807561Y-118737698D02*
X140721847Y-118785317D01*
X140721847Y-118785317D02*
X140678989Y-118832936D01*
X140678989Y-118832936D02*
X140636132Y-118928174D01*
X140636132Y-118928174D02*
X140636132Y-119166269D01*
X140636132Y-119166269D02*
X140678989Y-119261507D01*
X140678989Y-119261507D02*
X140721847Y-119309127D01*
X140721847Y-119309127D02*
X140807561Y-119356746D01*
X140807561Y-119356746D02*
X141021847Y-119356746D01*
X141021847Y-119356746D02*
X141107561Y-119309127D01*
X141107561Y-119309127D02*
X141150418Y-119261507D01*
X145585713Y-112054299D02*
X145499999Y-112054299D01*
X145499999Y-112054299D02*
X145414285Y-112101918D01*
X145414285Y-112101918D02*
X145371428Y-112149537D01*
X145371428Y-112149537D02*
X145328570Y-112244775D01*
X145328570Y-112244775D02*
X145285713Y-112435251D01*
X145285713Y-112435251D02*
X145285713Y-112673346D01*
X145285713Y-112673346D02*
X145328570Y-112863822D01*
X145328570Y-112863822D02*
X145371428Y-112959060D01*
X145371428Y-112959060D02*
X145414285Y-113006680D01*
X145414285Y-113006680D02*
X145499999Y-113054299D01*
X145499999Y-113054299D02*
X145585713Y-113054299D01*
X145585713Y-113054299D02*
X145671428Y-113006680D01*
X145671428Y-113006680D02*
X145714285Y-112959060D01*
X145714285Y-112959060D02*
X145757142Y-112863822D01*
X145757142Y-112863822D02*
X145799999Y-112673346D01*
X145799999Y-112673346D02*
X145799999Y-112435251D01*
X145799999Y-112435251D02*
X145757142Y-112244775D01*
X145757142Y-112244775D02*
X145714285Y-112149537D01*
X145714285Y-112149537D02*
X145671428Y-112101918D01*
X145671428Y-112101918D02*
X145585713Y-112054299D01*
X144899999Y-112959060D02*
X144857142Y-113006680D01*
X144857142Y-113006680D02*
X144899999Y-113054299D01*
X144899999Y-113054299D02*
X144942856Y-113006680D01*
X144942856Y-113006680D02*
X144899999Y-112959060D01*
X144899999Y-112959060D02*
X144899999Y-113054299D01*
X144085714Y-112387632D02*
X144085714Y-113054299D01*
X144299999Y-112006680D02*
X144514285Y-112720965D01*
X144514285Y-112720965D02*
X143957142Y-112720965D01*
X145585713Y-117354299D02*
X145499999Y-117354299D01*
X145499999Y-117354299D02*
X145414285Y-117401918D01*
X145414285Y-117401918D02*
X145371428Y-117449537D01*
X145371428Y-117449537D02*
X145328570Y-117544775D01*
X145328570Y-117544775D02*
X145285713Y-117735251D01*
X145285713Y-117735251D02*
X145285713Y-117973346D01*
X145285713Y-117973346D02*
X145328570Y-118163822D01*
X145328570Y-118163822D02*
X145371428Y-118259060D01*
X145371428Y-118259060D02*
X145414285Y-118306680D01*
X145414285Y-118306680D02*
X145499999Y-118354299D01*
X145499999Y-118354299D02*
X145585713Y-118354299D01*
X145585713Y-118354299D02*
X145671428Y-118306680D01*
X145671428Y-118306680D02*
X145714285Y-118259060D01*
X145714285Y-118259060D02*
X145757142Y-118163822D01*
X145757142Y-118163822D02*
X145799999Y-117973346D01*
X145799999Y-117973346D02*
X145799999Y-117735251D01*
X145799999Y-117735251D02*
X145757142Y-117544775D01*
X145757142Y-117544775D02*
X145714285Y-117449537D01*
X145714285Y-117449537D02*
X145671428Y-117401918D01*
X145671428Y-117401918D02*
X145585713Y-117354299D01*
X144899999Y-118259060D02*
X144857142Y-118306680D01*
X144857142Y-118306680D02*
X144899999Y-118354299D01*
X144899999Y-118354299D02*
X144942856Y-118306680D01*
X144942856Y-118306680D02*
X144899999Y-118259060D01*
X144899999Y-118259060D02*
X144899999Y-118354299D01*
X144042856Y-117354299D02*
X144471428Y-117354299D01*
X144471428Y-117354299D02*
X144514285Y-117830489D01*
X144514285Y-117830489D02*
X144471428Y-117782870D01*
X144471428Y-117782870D02*
X144385714Y-117735251D01*
X144385714Y-117735251D02*
X144171428Y-117735251D01*
X144171428Y-117735251D02*
X144085714Y-117782870D01*
X144085714Y-117782870D02*
X144042856Y-117830489D01*
X144042856Y-117830489D02*
X143999999Y-117925727D01*
X143999999Y-117925727D02*
X143999999Y-118163822D01*
X143999999Y-118163822D02*
X144042856Y-118259060D01*
X144042856Y-118259060D02*
X144085714Y-118306680D01*
X144085714Y-118306680D02*
X144171428Y-118354299D01*
X144171428Y-118354299D02*
X144385714Y-118354299D01*
X144385714Y-118354299D02*
X144471428Y-118306680D01*
X144471428Y-118306680D02*
X144514285Y-118259060D01*
X145585713Y-122654299D02*
X145499999Y-122654299D01*
X145499999Y-122654299D02*
X145414285Y-122701918D01*
X145414285Y-122701918D02*
X145371428Y-122749537D01*
X145371428Y-122749537D02*
X145328570Y-122844775D01*
X145328570Y-122844775D02*
X145285713Y-123035251D01*
X145285713Y-123035251D02*
X145285713Y-123273346D01*
X145285713Y-123273346D02*
X145328570Y-123463822D01*
X145328570Y-123463822D02*
X145371428Y-123559060D01*
X145371428Y-123559060D02*
X145414285Y-123606680D01*
X145414285Y-123606680D02*
X145499999Y-123654299D01*
X145499999Y-123654299D02*
X145585713Y-123654299D01*
X145585713Y-123654299D02*
X145671428Y-123606680D01*
X145671428Y-123606680D02*
X145714285Y-123559060D01*
X145714285Y-123559060D02*
X145757142Y-123463822D01*
X145757142Y-123463822D02*
X145799999Y-123273346D01*
X145799999Y-123273346D02*
X145799999Y-123035251D01*
X145799999Y-123035251D02*
X145757142Y-122844775D01*
X145757142Y-122844775D02*
X145714285Y-122749537D01*
X145714285Y-122749537D02*
X145671428Y-122701918D01*
X145671428Y-122701918D02*
X145585713Y-122654299D01*
X144899999Y-123559060D02*
X144857142Y-123606680D01*
X144857142Y-123606680D02*
X144899999Y-123654299D01*
X144899999Y-123654299D02*
X144942856Y-123606680D01*
X144942856Y-123606680D02*
X144899999Y-123559060D01*
X144899999Y-123559060D02*
X144899999Y-123654299D01*
X144085714Y-122654299D02*
X144257142Y-122654299D01*
X144257142Y-122654299D02*
X144342856Y-122701918D01*
X144342856Y-122701918D02*
X144385714Y-122749537D01*
X144385714Y-122749537D02*
X144471428Y-122892394D01*
X144471428Y-122892394D02*
X144514285Y-123082870D01*
X144514285Y-123082870D02*
X144514285Y-123463822D01*
X144514285Y-123463822D02*
X144471428Y-123559060D01*
X144471428Y-123559060D02*
X144428571Y-123606680D01*
X144428571Y-123606680D02*
X144342856Y-123654299D01*
X144342856Y-123654299D02*
X144171428Y-123654299D01*
X144171428Y-123654299D02*
X144085714Y-123606680D01*
X144085714Y-123606680D02*
X144042856Y-123559060D01*
X144042856Y-123559060D02*
X143999999Y-123463822D01*
X143999999Y-123463822D02*
X143999999Y-123225727D01*
X143999999Y-123225727D02*
X144042856Y-123130489D01*
X144042856Y-123130489D02*
X144085714Y-123082870D01*
X144085714Y-123082870D02*
X144171428Y-123035251D01*
X144171428Y-123035251D02*
X144342856Y-123035251D01*
X144342856Y-123035251D02*
X144428571Y-123082870D01*
X144428571Y-123082870D02*
X144471428Y-123130489D01*
X144471428Y-123130489D02*
X144514285Y-123225727D01*
X146202142Y-136459299D02*
X146630714Y-136459299D01*
X146630714Y-136459299D02*
X146630714Y-135459299D01*
X145902143Y-135935489D02*
X145602143Y-135935489D01*
X145473571Y-136459299D02*
X145902143Y-136459299D01*
X145902143Y-136459299D02*
X145902143Y-135459299D01*
X145902143Y-135459299D02*
X145473571Y-135459299D01*
X145087857Y-136459299D02*
X145087857Y-135459299D01*
X145087857Y-135459299D02*
X144873571Y-135459299D01*
X144873571Y-135459299D02*
X144745000Y-135506918D01*
X144745000Y-135506918D02*
X144659285Y-135602156D01*
X144659285Y-135602156D02*
X144616428Y-135697394D01*
X144616428Y-135697394D02*
X144573571Y-135887870D01*
X144573571Y-135887870D02*
X144573571Y-136030727D01*
X144573571Y-136030727D02*
X144616428Y-136221203D01*
X144616428Y-136221203D02*
X144659285Y-136316441D01*
X144659285Y-136316441D02*
X144745000Y-136411680D01*
X144745000Y-136411680D02*
X144873571Y-136459299D01*
X144873571Y-136459299D02*
X145087857Y-136459299D01*
X143802143Y-135792632D02*
X143802143Y-136459299D01*
X144016428Y-135411680D02*
X144230714Y-136125965D01*
X144230714Y-136125965D02*
X143673571Y-136125965D01*
X108965098Y-119726268D02*
X107965098Y-119726268D01*
X107965098Y-119726268D02*
X107965098Y-120069125D01*
X107965098Y-120069125D02*
X108012717Y-120154840D01*
X108012717Y-120154840D02*
X108060336Y-120197697D01*
X108060336Y-120197697D02*
X108155574Y-120240554D01*
X108155574Y-120240554D02*
X108298431Y-120240554D01*
X108298431Y-120240554D02*
X108393669Y-120197697D01*
X108393669Y-120197697D02*
X108441288Y-120154840D01*
X108441288Y-120154840D02*
X108488907Y-120069125D01*
X108488907Y-120069125D02*
X108488907Y-119726268D01*
X108679383Y-120583411D02*
X108679383Y-121011983D01*
X108965098Y-120497697D02*
X107965098Y-120797697D01*
X107965098Y-120797697D02*
X108965098Y-121097697D01*
X108965098Y-121397697D02*
X107965098Y-121397697D01*
X107965098Y-121397697D02*
X107965098Y-121611983D01*
X107965098Y-121611983D02*
X108012717Y-121740554D01*
X108012717Y-121740554D02*
X108107955Y-121826269D01*
X108107955Y-121826269D02*
X108203193Y-121869126D01*
X108203193Y-121869126D02*
X108393669Y-121911983D01*
X108393669Y-121911983D02*
X108536526Y-121911983D01*
X108536526Y-121911983D02*
X108727002Y-121869126D01*
X108727002Y-121869126D02*
X108822240Y-121826269D01*
X108822240Y-121826269D02*
X108917479Y-121740554D01*
X108917479Y-121740554D02*
X108965098Y-121611983D01*
X108965098Y-121611983D02*
X108965098Y-121397697D01*
X108965098Y-122769126D02*
X108965098Y-122254840D01*
X108965098Y-122511983D02*
X107965098Y-122511983D01*
X107965098Y-122511983D02*
X108107955Y-122426269D01*
X108107955Y-122426269D02*
X108203193Y-122340554D01*
X108203193Y-122340554D02*
X108250812Y-122254840D01*
X126349860Y-137812500D02*
X126397480Y-137769643D01*
X126397480Y-137769643D02*
X126445099Y-137641071D01*
X126445099Y-137641071D02*
X126445099Y-137555357D01*
X126445099Y-137555357D02*
X126397480Y-137426786D01*
X126397480Y-137426786D02*
X126302241Y-137341071D01*
X126302241Y-137341071D02*
X126207003Y-137298214D01*
X126207003Y-137298214D02*
X126016527Y-137255357D01*
X126016527Y-137255357D02*
X125873670Y-137255357D01*
X125873670Y-137255357D02*
X125683194Y-137298214D01*
X125683194Y-137298214D02*
X125587956Y-137341071D01*
X125587956Y-137341071D02*
X125492718Y-137426786D01*
X125492718Y-137426786D02*
X125445099Y-137555357D01*
X125445099Y-137555357D02*
X125445099Y-137641071D01*
X125445099Y-137641071D02*
X125492718Y-137769643D01*
X125492718Y-137769643D02*
X125540337Y-137812500D01*
X125445099Y-138583929D02*
X125445099Y-138412500D01*
X125445099Y-138412500D02*
X125492718Y-138326786D01*
X125492718Y-138326786D02*
X125540337Y-138283929D01*
X125540337Y-138283929D02*
X125683194Y-138198214D01*
X125683194Y-138198214D02*
X125873670Y-138155357D01*
X125873670Y-138155357D02*
X126254622Y-138155357D01*
X126254622Y-138155357D02*
X126349860Y-138198214D01*
X126349860Y-138198214D02*
X126397480Y-138241071D01*
X126397480Y-138241071D02*
X126445099Y-138326786D01*
X126445099Y-138326786D02*
X126445099Y-138498214D01*
X126445099Y-138498214D02*
X126397480Y-138583929D01*
X126397480Y-138583929D02*
X126349860Y-138626786D01*
X126349860Y-138626786D02*
X126254622Y-138669643D01*
X126254622Y-138669643D02*
X126016527Y-138669643D01*
X126016527Y-138669643D02*
X125921289Y-138626786D01*
X125921289Y-138626786D02*
X125873670Y-138583929D01*
X125873670Y-138583929D02*
X125826051Y-138498214D01*
X125826051Y-138498214D02*
X125826051Y-138326786D01*
X125826051Y-138326786D02*
X125873670Y-138241071D01*
X125873670Y-138241071D02*
X125921289Y-138198214D01*
X125921289Y-138198214D02*
X126016527Y-138155357D01*
X125770099Y-112394913D02*
X126484384Y-112394913D01*
X126484384Y-112394913D02*
X126627241Y-112352056D01*
X126627241Y-112352056D02*
X126722480Y-112266342D01*
X126722480Y-112266342D02*
X126770099Y-112137770D01*
X126770099Y-112137770D02*
X126770099Y-112052056D01*
X126770099Y-112823484D02*
X125770099Y-112823484D01*
X125770099Y-112823484D02*
X125770099Y-113166341D01*
X125770099Y-113166341D02*
X125817718Y-113252056D01*
X125817718Y-113252056D02*
X125865337Y-113294913D01*
X125865337Y-113294913D02*
X125960575Y-113337770D01*
X125960575Y-113337770D02*
X126103432Y-113337770D01*
X126103432Y-113337770D02*
X126198670Y-113294913D01*
X126198670Y-113294913D02*
X126246289Y-113252056D01*
X126246289Y-113252056D02*
X126293908Y-113166341D01*
X126293908Y-113166341D02*
X126293908Y-112823484D01*
X125770099Y-113637770D02*
X125770099Y-114194913D01*
X125770099Y-114194913D02*
X126151051Y-113894913D01*
X126151051Y-113894913D02*
X126151051Y-114023484D01*
X126151051Y-114023484D02*
X126198670Y-114109199D01*
X126198670Y-114109199D02*
X126246289Y-114152056D01*
X126246289Y-114152056D02*
X126341527Y-114194913D01*
X126341527Y-114194913D02*
X126579622Y-114194913D01*
X126579622Y-114194913D02*
X126674860Y-114152056D01*
X126674860Y-114152056D02*
X126722480Y-114109199D01*
X126722480Y-114109199D02*
X126770099Y-114023484D01*
X126770099Y-114023484D02*
X126770099Y-113766341D01*
X126770099Y-113766341D02*
X126722480Y-113680627D01*
X126722480Y-113680627D02*
X126674860Y-113637770D01*
X128595099Y-135245000D02*
X128118908Y-134945000D01*
X128595099Y-134730714D02*
X127595099Y-134730714D01*
X127595099Y-134730714D02*
X127595099Y-135073571D01*
X127595099Y-135073571D02*
X127642718Y-135159286D01*
X127642718Y-135159286D02*
X127690337Y-135202143D01*
X127690337Y-135202143D02*
X127785575Y-135245000D01*
X127785575Y-135245000D02*
X127928432Y-135245000D01*
X127928432Y-135245000D02*
X128023670Y-135202143D01*
X128023670Y-135202143D02*
X128071289Y-135159286D01*
X128071289Y-135159286D02*
X128118908Y-135073571D01*
X128118908Y-135073571D02*
X128118908Y-134730714D01*
X128595099Y-135673571D02*
X128595099Y-135845000D01*
X128595099Y-135845000D02*
X128547480Y-135930714D01*
X128547480Y-135930714D02*
X128499860Y-135973571D01*
X128499860Y-135973571D02*
X128357003Y-136059286D01*
X128357003Y-136059286D02*
X128166527Y-136102143D01*
X128166527Y-136102143D02*
X127785575Y-136102143D01*
X127785575Y-136102143D02*
X127690337Y-136059286D01*
X127690337Y-136059286D02*
X127642718Y-136016429D01*
X127642718Y-136016429D02*
X127595099Y-135930714D01*
X127595099Y-135930714D02*
X127595099Y-135759286D01*
X127595099Y-135759286D02*
X127642718Y-135673571D01*
X127642718Y-135673571D02*
X127690337Y-135630714D01*
X127690337Y-135630714D02*
X127785575Y-135587857D01*
X127785575Y-135587857D02*
X128023670Y-135587857D01*
X128023670Y-135587857D02*
X128118908Y-135630714D01*
X128118908Y-135630714D02*
X128166527Y-135673571D01*
X128166527Y-135673571D02*
X128214146Y-135759286D01*
X128214146Y-135759286D02*
X128214146Y-135930714D01*
X128214146Y-135930714D02*
X128166527Y-136016429D01*
X128166527Y-136016429D02*
X128118908Y-136059286D01*
X128118908Y-136059286D02*
X128023670Y-136102143D01*
X128004299Y-117171428D02*
X128718584Y-117171428D01*
X128718584Y-117171428D02*
X128861441Y-117128571D01*
X128861441Y-117128571D02*
X128956680Y-117042857D01*
X128956680Y-117042857D02*
X129004299Y-116914285D01*
X129004299Y-116914285D02*
X129004299Y-116828571D01*
X129004299Y-117599999D02*
X128004299Y-117599999D01*
X128004299Y-117599999D02*
X128004299Y-117942856D01*
X128004299Y-117942856D02*
X128051918Y-118028571D01*
X128051918Y-118028571D02*
X128099537Y-118071428D01*
X128099537Y-118071428D02*
X128194775Y-118114285D01*
X128194775Y-118114285D02*
X128337632Y-118114285D01*
X128337632Y-118114285D02*
X128432870Y-118071428D01*
X128432870Y-118071428D02*
X128480489Y-118028571D01*
X128480489Y-118028571D02*
X128528108Y-117942856D01*
X128528108Y-117942856D02*
X128528108Y-117599999D01*
X128337632Y-118885714D02*
X129004299Y-118885714D01*
X127956680Y-118671428D02*
X128670965Y-118457142D01*
X128670965Y-118457142D02*
X128670965Y-119014285D01*
X134639299Y-113839285D02*
X135448822Y-113839285D01*
X135448822Y-113839285D02*
X135544060Y-113882142D01*
X135544060Y-113882142D02*
X135591680Y-113925000D01*
X135591680Y-113925000D02*
X135639299Y-114010714D01*
X135639299Y-114010714D02*
X135639299Y-114182142D01*
X135639299Y-114182142D02*
X135591680Y-114267857D01*
X135591680Y-114267857D02*
X135544060Y-114310714D01*
X135544060Y-114310714D02*
X135448822Y-114353571D01*
X135448822Y-114353571D02*
X134639299Y-114353571D01*
X135639299Y-115253571D02*
X135639299Y-114739285D01*
X135639299Y-114996428D02*
X134639299Y-114996428D01*
X134639299Y-114996428D02*
X134782156Y-114910714D01*
X134782156Y-114910714D02*
X134877394Y-114824999D01*
X134877394Y-114824999D02*
X134925013Y-114739285D01*
X138405099Y-105342857D02*
X138405099Y-104914285D01*
X138405099Y-104914285D02*
X137405099Y-104914285D01*
X137881289Y-105642856D02*
X137881289Y-105942856D01*
X138405099Y-106071428D02*
X138405099Y-105642856D01*
X138405099Y-105642856D02*
X137405099Y-105642856D01*
X137405099Y-105642856D02*
X137405099Y-106071428D01*
X138405099Y-106457142D02*
X137405099Y-106457142D01*
X137405099Y-106457142D02*
X137405099Y-106671428D01*
X137405099Y-106671428D02*
X137452718Y-106799999D01*
X137452718Y-106799999D02*
X137547956Y-106885714D01*
X137547956Y-106885714D02*
X137643194Y-106928571D01*
X137643194Y-106928571D02*
X137833670Y-106971428D01*
X137833670Y-106971428D02*
X137976527Y-106971428D01*
X137976527Y-106971428D02*
X138167003Y-106928571D01*
X138167003Y-106928571D02*
X138262241Y-106885714D01*
X138262241Y-106885714D02*
X138357480Y-106799999D01*
X138357480Y-106799999D02*
X138405099Y-106671428D01*
X138405099Y-106671428D02*
X138405099Y-106457142D01*
X137405099Y-107271428D02*
X137405099Y-107828571D01*
X137405099Y-107828571D02*
X137786051Y-107528571D01*
X137786051Y-107528571D02*
X137786051Y-107657142D01*
X137786051Y-107657142D02*
X137833670Y-107742857D01*
X137833670Y-107742857D02*
X137881289Y-107785714D01*
X137881289Y-107785714D02*
X137976527Y-107828571D01*
X137976527Y-107828571D02*
X138214622Y-107828571D01*
X138214622Y-107828571D02*
X138309860Y-107785714D01*
X138309860Y-107785714D02*
X138357480Y-107742857D01*
X138357480Y-107742857D02*
X138405099Y-107657142D01*
X138405099Y-107657142D02*
X138405099Y-107399999D01*
X138405099Y-107399999D02*
X138357480Y-107314285D01*
X138357480Y-107314285D02*
X138309860Y-107271428D01*
X138038499Y-109440000D02*
X138752784Y-109440000D01*
X138752784Y-109440000D02*
X138895641Y-109397143D01*
X138895641Y-109397143D02*
X138990880Y-109311429D01*
X138990880Y-109311429D02*
X139038499Y-109182857D01*
X139038499Y-109182857D02*
X139038499Y-109097143D01*
X139038499Y-109868571D02*
X138038499Y-109868571D01*
X138038499Y-109868571D02*
X138038499Y-110211428D01*
X138038499Y-110211428D02*
X138086118Y-110297143D01*
X138086118Y-110297143D02*
X138133737Y-110340000D01*
X138133737Y-110340000D02*
X138228975Y-110382857D01*
X138228975Y-110382857D02*
X138371832Y-110382857D01*
X138371832Y-110382857D02*
X138467070Y-110340000D01*
X138467070Y-110340000D02*
X138514689Y-110297143D01*
X138514689Y-110297143D02*
X138562308Y-110211428D01*
X138562308Y-110211428D02*
X138562308Y-109868571D01*
X139038499Y-111240000D02*
X139038499Y-110725714D01*
X139038499Y-110982857D02*
X138038499Y-110982857D01*
X138038499Y-110982857D02*
X138181356Y-110897143D01*
X138181356Y-110897143D02*
X138276594Y-110811428D01*
X138276594Y-110811428D02*
X138324213Y-110725714D01*
X143170099Y-128474652D02*
X143884384Y-128474652D01*
X143884384Y-128474652D02*
X144027241Y-128431795D01*
X144027241Y-128431795D02*
X144122480Y-128346081D01*
X144122480Y-128346081D02*
X144170099Y-128217509D01*
X144170099Y-128217509D02*
X144170099Y-128131795D01*
X144170099Y-128903223D02*
X143170099Y-128903223D01*
X143170099Y-128903223D02*
X143170099Y-129246080D01*
X143170099Y-129246080D02*
X143217718Y-129331795D01*
X143217718Y-129331795D02*
X143265337Y-129374652D01*
X143265337Y-129374652D02*
X143360575Y-129417509D01*
X143360575Y-129417509D02*
X143503432Y-129417509D01*
X143503432Y-129417509D02*
X143598670Y-129374652D01*
X143598670Y-129374652D02*
X143646289Y-129331795D01*
X143646289Y-129331795D02*
X143693908Y-129246080D01*
X143693908Y-129246080D02*
X143693908Y-128903223D01*
X143170099Y-129717509D02*
X143170099Y-130317509D01*
X143170099Y-130317509D02*
X144170099Y-129931795D01*
X146306560Y-132446428D02*
X146354180Y-132403571D01*
X146354180Y-132403571D02*
X146401799Y-132274999D01*
X146401799Y-132274999D02*
X146401799Y-132189285D01*
X146401799Y-132189285D02*
X146354180Y-132060714D01*
X146354180Y-132060714D02*
X146258941Y-131974999D01*
X146258941Y-131974999D02*
X146163703Y-131932142D01*
X146163703Y-131932142D02*
X145973227Y-131889285D01*
X145973227Y-131889285D02*
X145830370Y-131889285D01*
X145830370Y-131889285D02*
X145639894Y-131932142D01*
X145639894Y-131932142D02*
X145544656Y-131974999D01*
X145544656Y-131974999D02*
X145449418Y-132060714D01*
X145449418Y-132060714D02*
X145401799Y-132189285D01*
X145401799Y-132189285D02*
X145401799Y-132274999D01*
X145401799Y-132274999D02*
X145449418Y-132403571D01*
X145449418Y-132403571D02*
X145497037Y-132446428D01*
X146401799Y-132832142D02*
X145401799Y-132832142D01*
X145401799Y-132832142D02*
X145401799Y-133174999D01*
X145401799Y-133174999D02*
X145449418Y-133260714D01*
X145449418Y-133260714D02*
X145497037Y-133303571D01*
X145497037Y-133303571D02*
X145592275Y-133346428D01*
X145592275Y-133346428D02*
X145735132Y-133346428D01*
X145735132Y-133346428D02*
X145830370Y-133303571D01*
X145830370Y-133303571D02*
X145877989Y-133260714D01*
X145877989Y-133260714D02*
X145925608Y-133174999D01*
X145925608Y-133174999D02*
X145925608Y-132832142D01*
X146401799Y-134203571D02*
X146401799Y-133689285D01*
X146401799Y-133946428D02*
X145401799Y-133946428D01*
X145401799Y-133946428D02*
X145544656Y-133860714D01*
X145544656Y-133860714D02*
X145639894Y-133774999D01*
X145639894Y-133774999D02*
X145687513Y-133689285D01*
D12*
X106188571Y-119288016D02*
X105365714Y-119288016D01*
X105777142Y-119745158D02*
X105777142Y-118830873D01*
X104337142Y-118545158D02*
X104851428Y-118545158D01*
X104851428Y-118545158D02*
X104902856Y-119116587D01*
X104902856Y-119116587D02*
X104851428Y-119059444D01*
X104851428Y-119059444D02*
X104748571Y-119002301D01*
X104748571Y-119002301D02*
X104491428Y-119002301D01*
X104491428Y-119002301D02*
X104388571Y-119059444D01*
X104388571Y-119059444D02*
X104337142Y-119116587D01*
X104337142Y-119116587D02*
X104285713Y-119230873D01*
X104285713Y-119230873D02*
X104285713Y-119516587D01*
X104285713Y-119516587D02*
X104337142Y-119630873D01*
X104337142Y-119630873D02*
X104388571Y-119688016D01*
X104388571Y-119688016D02*
X104491428Y-119745158D01*
X104491428Y-119745158D02*
X104748571Y-119745158D01*
X104748571Y-119745158D02*
X104851428Y-119688016D01*
X104851428Y-119688016D02*
X104902856Y-119630873D01*
X103977142Y-118545158D02*
X103617142Y-119745158D01*
X103617142Y-119745158D02*
X103257142Y-118545158D01*
X108822856Y-132302301D02*
X108925714Y-132245158D01*
X108925714Y-132245158D02*
X109079999Y-132245158D01*
X109079999Y-132245158D02*
X109234285Y-132302301D01*
X109234285Y-132302301D02*
X109337142Y-132416587D01*
X109337142Y-132416587D02*
X109388571Y-132530873D01*
X109388571Y-132530873D02*
X109439999Y-132759444D01*
X109439999Y-132759444D02*
X109439999Y-132930873D01*
X109439999Y-132930873D02*
X109388571Y-133159444D01*
X109388571Y-133159444D02*
X109337142Y-133273730D01*
X109337142Y-133273730D02*
X109234285Y-133388016D01*
X109234285Y-133388016D02*
X109079999Y-133445158D01*
X109079999Y-133445158D02*
X108977142Y-133445158D01*
X108977142Y-133445158D02*
X108822856Y-133388016D01*
X108822856Y-133388016D02*
X108771428Y-133330873D01*
X108771428Y-133330873D02*
X108771428Y-132930873D01*
X108771428Y-132930873D02*
X108977142Y-132930873D01*
X108308571Y-133445158D02*
X108308571Y-132245158D01*
X108308571Y-132245158D02*
X107691428Y-133445158D01*
X107691428Y-133445158D02*
X107691428Y-132245158D01*
X107177142Y-133445158D02*
X107177142Y-132245158D01*
X107177142Y-132245158D02*
X106919999Y-132245158D01*
X106919999Y-132245158D02*
X106765713Y-132302301D01*
X106765713Y-132302301D02*
X106662856Y-132416587D01*
X106662856Y-132416587D02*
X106611427Y-132530873D01*
X106611427Y-132530873D02*
X106559999Y-132759444D01*
X106559999Y-132759444D02*
X106559999Y-132930873D01*
X106559999Y-132930873D02*
X106611427Y-133159444D01*
X106611427Y-133159444D02*
X106662856Y-133273730D01*
X106662856Y-133273730D02*
X106765713Y-133388016D01*
X106765713Y-133388016D02*
X106919999Y-133445158D01*
X106919999Y-133445158D02*
X107177142Y-133445158D01*
X113239999Y-111988016D02*
X113085714Y-112045158D01*
X113085714Y-112045158D02*
X112828571Y-112045158D01*
X112828571Y-112045158D02*
X112725714Y-111988016D01*
X112725714Y-111988016D02*
X112674285Y-111930873D01*
X112674285Y-111930873D02*
X112622856Y-111816587D01*
X112622856Y-111816587D02*
X112622856Y-111702301D01*
X112622856Y-111702301D02*
X112674285Y-111588016D01*
X112674285Y-111588016D02*
X112725714Y-111530873D01*
X112725714Y-111530873D02*
X112828571Y-111473730D01*
X112828571Y-111473730D02*
X113034285Y-111416587D01*
X113034285Y-111416587D02*
X113137142Y-111359444D01*
X113137142Y-111359444D02*
X113188571Y-111302301D01*
X113188571Y-111302301D02*
X113239999Y-111188016D01*
X113239999Y-111188016D02*
X113239999Y-111073730D01*
X113239999Y-111073730D02*
X113188571Y-110959444D01*
X113188571Y-110959444D02*
X113137142Y-110902301D01*
X113137142Y-110902301D02*
X113034285Y-110845158D01*
X113034285Y-110845158D02*
X112777142Y-110845158D01*
X112777142Y-110845158D02*
X112622856Y-110902301D01*
X112160000Y-112045158D02*
X112160000Y-110845158D01*
X111131428Y-112045158D02*
X111645714Y-112045158D01*
X111645714Y-112045158D02*
X111645714Y-110845158D01*
X110771428Y-112045158D02*
X110771428Y-110845158D01*
X110154285Y-112045158D02*
X110617142Y-111359444D01*
X110154285Y-110845158D02*
X110771428Y-111530873D01*
X108302856Y-112045158D02*
X108919999Y-112045158D01*
X108611428Y-112045158D02*
X108611428Y-110845158D01*
X108611428Y-110845158D02*
X108714285Y-111016587D01*
X108714285Y-111016587D02*
X108817142Y-111130873D01*
X108817142Y-111130873D02*
X108919999Y-111188016D01*
X107840000Y-111930873D02*
X107788571Y-111988016D01*
X107788571Y-111988016D02*
X107840000Y-112045158D01*
X107840000Y-112045158D02*
X107891428Y-111988016D01*
X107891428Y-111988016D02*
X107840000Y-111930873D01*
X107840000Y-111930873D02*
X107840000Y-112045158D01*
X107377142Y-110959444D02*
X107325714Y-110902301D01*
X107325714Y-110902301D02*
X107222857Y-110845158D01*
X107222857Y-110845158D02*
X106965714Y-110845158D01*
X106965714Y-110845158D02*
X106862857Y-110902301D01*
X106862857Y-110902301D02*
X106811428Y-110959444D01*
X106811428Y-110959444D02*
X106759999Y-111073730D01*
X106759999Y-111073730D02*
X106759999Y-111188016D01*
X106759999Y-111188016D02*
X106811428Y-111359444D01*
X106811428Y-111359444D02*
X107428571Y-112045158D01*
X107428571Y-112045158D02*
X106759999Y-112045158D01*
D13*
X115935713Y-137124305D02*
X115871427Y-137052877D01*
X115871427Y-137052877D02*
X115742856Y-136981448D01*
X115742856Y-136981448D02*
X115421427Y-136981448D01*
X115421427Y-136981448D02*
X115292856Y-137052877D01*
X115292856Y-137052877D02*
X115228570Y-137124305D01*
X115228570Y-137124305D02*
X115164284Y-137267162D01*
X115164284Y-137267162D02*
X115164284Y-137410020D01*
X115164284Y-137410020D02*
X115228570Y-137624305D01*
X115228570Y-137624305D02*
X115999998Y-138481448D01*
X115999998Y-138481448D02*
X115164284Y-138481448D01*
X114328570Y-136981448D02*
X114199999Y-136981448D01*
X114199999Y-136981448D02*
X114071427Y-137052877D01*
X114071427Y-137052877D02*
X114007142Y-137124305D01*
X114007142Y-137124305D02*
X113942856Y-137267162D01*
X113942856Y-137267162D02*
X113878570Y-137552877D01*
X113878570Y-137552877D02*
X113878570Y-137910020D01*
X113878570Y-137910020D02*
X113942856Y-138195734D01*
X113942856Y-138195734D02*
X114007142Y-138338591D01*
X114007142Y-138338591D02*
X114071427Y-138410020D01*
X114071427Y-138410020D02*
X114199999Y-138481448D01*
X114199999Y-138481448D02*
X114328570Y-138481448D01*
X114328570Y-138481448D02*
X114457142Y-138410020D01*
X114457142Y-138410020D02*
X114521427Y-138338591D01*
X114521427Y-138338591D02*
X114585713Y-138195734D01*
X114585713Y-138195734D02*
X114649999Y-137910020D01*
X114649999Y-137910020D02*
X114649999Y-137552877D01*
X114649999Y-137552877D02*
X114585713Y-137267162D01*
X114585713Y-137267162D02*
X114521427Y-137124305D01*
X114521427Y-137124305D02*
X114457142Y-137052877D01*
X114457142Y-137052877D02*
X114328570Y-136981448D01*
X113364285Y-137124305D02*
X113299999Y-137052877D01*
X113299999Y-137052877D02*
X113171428Y-136981448D01*
X113171428Y-136981448D02*
X112849999Y-136981448D01*
X112849999Y-136981448D02*
X112721428Y-137052877D01*
X112721428Y-137052877D02*
X112657142Y-137124305D01*
X112657142Y-137124305D02*
X112592856Y-137267162D01*
X112592856Y-137267162D02*
X112592856Y-137410020D01*
X112592856Y-137410020D02*
X112657142Y-137624305D01*
X112657142Y-137624305D02*
X113428570Y-138481448D01*
X113428570Y-138481448D02*
X112592856Y-138481448D01*
X111435714Y-136981448D02*
X111692856Y-136981448D01*
X111692856Y-136981448D02*
X111821428Y-137052877D01*
X111821428Y-137052877D02*
X111885714Y-137124305D01*
X111885714Y-137124305D02*
X112014285Y-137338591D01*
X112014285Y-137338591D02*
X112078571Y-137624305D01*
X112078571Y-137624305D02*
X112078571Y-138195734D01*
X112078571Y-138195734D02*
X112014285Y-138338591D01*
X112014285Y-138338591D02*
X111949999Y-138410020D01*
X111949999Y-138410020D02*
X111821428Y-138481448D01*
X111821428Y-138481448D02*
X111564285Y-138481448D01*
X111564285Y-138481448D02*
X111435714Y-138410020D01*
X111435714Y-138410020D02*
X111371428Y-138338591D01*
X111371428Y-138338591D02*
X111307142Y-138195734D01*
X111307142Y-138195734D02*
X111307142Y-137838591D01*
X111307142Y-137838591D02*
X111371428Y-137695734D01*
X111371428Y-137695734D02*
X111435714Y-137624305D01*
X111435714Y-137624305D02*
X111564285Y-137552877D01*
X111564285Y-137552877D02*
X111821428Y-137552877D01*
X111821428Y-137552877D02*
X111949999Y-137624305D01*
X111949999Y-137624305D02*
X112014285Y-137695734D01*
X112014285Y-137695734D02*
X112078571Y-137838591D01*
X110728571Y-137910020D02*
X109700000Y-137910020D01*
X108799999Y-136981448D02*
X108671428Y-136981448D01*
X108671428Y-136981448D02*
X108542856Y-137052877D01*
X108542856Y-137052877D02*
X108478571Y-137124305D01*
X108478571Y-137124305D02*
X108414285Y-137267162D01*
X108414285Y-137267162D02*
X108349999Y-137552877D01*
X108349999Y-137552877D02*
X108349999Y-137910020D01*
X108349999Y-137910020D02*
X108414285Y-138195734D01*
X108414285Y-138195734D02*
X108478571Y-138338591D01*
X108478571Y-138338591D02*
X108542856Y-138410020D01*
X108542856Y-138410020D02*
X108671428Y-138481448D01*
X108671428Y-138481448D02*
X108799999Y-138481448D01*
X108799999Y-138481448D02*
X108928571Y-138410020D01*
X108928571Y-138410020D02*
X108992856Y-138338591D01*
X108992856Y-138338591D02*
X109057142Y-138195734D01*
X109057142Y-138195734D02*
X109121428Y-137910020D01*
X109121428Y-137910020D02*
X109121428Y-137552877D01*
X109121428Y-137552877D02*
X109057142Y-137267162D01*
X109057142Y-137267162D02*
X108992856Y-137124305D01*
X108992856Y-137124305D02*
X108928571Y-137052877D01*
X108928571Y-137052877D02*
X108799999Y-136981448D01*
X107899999Y-136981448D02*
X106999999Y-136981448D01*
X106999999Y-136981448D02*
X107578571Y-138481448D01*
X133757142Y-102138591D02*
X133821428Y-102210020D01*
X133821428Y-102210020D02*
X134014285Y-102281448D01*
X134014285Y-102281448D02*
X134142857Y-102281448D01*
X134142857Y-102281448D02*
X134335714Y-102210020D01*
X134335714Y-102210020D02*
X134464285Y-102067162D01*
X134464285Y-102067162D02*
X134528571Y-101924305D01*
X134528571Y-101924305D02*
X134592857Y-101638591D01*
X134592857Y-101638591D02*
X134592857Y-101424305D01*
X134592857Y-101424305D02*
X134528571Y-101138591D01*
X134528571Y-101138591D02*
X134464285Y-100995734D01*
X134464285Y-100995734D02*
X134335714Y-100852877D01*
X134335714Y-100852877D02*
X134142857Y-100781448D01*
X134142857Y-100781448D02*
X134014285Y-100781448D01*
X134014285Y-100781448D02*
X133821428Y-100852877D01*
X133821428Y-100852877D02*
X133757142Y-100924305D01*
X132921428Y-100781448D02*
X132664285Y-100781448D01*
X132664285Y-100781448D02*
X132535714Y-100852877D01*
X132535714Y-100852877D02*
X132407142Y-100995734D01*
X132407142Y-100995734D02*
X132342857Y-101281448D01*
X132342857Y-101281448D02*
X132342857Y-101781448D01*
X132342857Y-101781448D02*
X132407142Y-102067162D01*
X132407142Y-102067162D02*
X132535714Y-102210020D01*
X132535714Y-102210020D02*
X132664285Y-102281448D01*
X132664285Y-102281448D02*
X132921428Y-102281448D01*
X132921428Y-102281448D02*
X133050000Y-102210020D01*
X133050000Y-102210020D02*
X133178571Y-102067162D01*
X133178571Y-102067162D02*
X133242857Y-101781448D01*
X133242857Y-101781448D02*
X133242857Y-101281448D01*
X133242857Y-101281448D02*
X133178571Y-100995734D01*
X133178571Y-100995734D02*
X133050000Y-100852877D01*
X133050000Y-100852877D02*
X132921428Y-100781448D01*
X131764285Y-100781448D02*
X131764285Y-101995734D01*
X131764285Y-101995734D02*
X131699999Y-102138591D01*
X131699999Y-102138591D02*
X131635714Y-102210020D01*
X131635714Y-102210020D02*
X131507142Y-102281448D01*
X131507142Y-102281448D02*
X131249999Y-102281448D01*
X131249999Y-102281448D02*
X131121428Y-102210020D01*
X131121428Y-102210020D02*
X131057142Y-102138591D01*
X131057142Y-102138591D02*
X130992856Y-101995734D01*
X130992856Y-101995734D02*
X130992856Y-100781448D01*
X130349999Y-102281448D02*
X130349999Y-100781448D01*
X130349999Y-100781448D02*
X129835713Y-100781448D01*
X129835713Y-100781448D02*
X129707142Y-100852877D01*
X129707142Y-100852877D02*
X129642856Y-100924305D01*
X129642856Y-100924305D02*
X129578570Y-101067162D01*
X129578570Y-101067162D02*
X129578570Y-101281448D01*
X129578570Y-101281448D02*
X129642856Y-101424305D01*
X129642856Y-101424305D02*
X129707142Y-101495734D01*
X129707142Y-101495734D02*
X129835713Y-101567162D01*
X129835713Y-101567162D02*
X130349999Y-101567162D01*
X128742856Y-100781448D02*
X128485713Y-100781448D01*
X128485713Y-100781448D02*
X128357142Y-100852877D01*
X128357142Y-100852877D02*
X128228570Y-100995734D01*
X128228570Y-100995734D02*
X128164285Y-101281448D01*
X128164285Y-101281448D02*
X128164285Y-101781448D01*
X128164285Y-101781448D02*
X128228570Y-102067162D01*
X128228570Y-102067162D02*
X128357142Y-102210020D01*
X128357142Y-102210020D02*
X128485713Y-102281448D01*
X128485713Y-102281448D02*
X128742856Y-102281448D01*
X128742856Y-102281448D02*
X128871428Y-102210020D01*
X128871428Y-102210020D02*
X128999999Y-102067162D01*
X128999999Y-102067162D02*
X129064285Y-101781448D01*
X129064285Y-101781448D02*
X129064285Y-101281448D01*
X129064285Y-101281448D02*
X128999999Y-100995734D01*
X128999999Y-100995734D02*
X128871428Y-100852877D01*
X128871428Y-100852877D02*
X128742856Y-100781448D01*
X127585713Y-102281448D02*
X127585713Y-100781448D01*
X127585713Y-100781448D02*
X126814284Y-102281448D01*
X126814284Y-102281448D02*
X126814284Y-100781448D01*
X125271427Y-101281448D02*
X124949999Y-102281448D01*
X124949999Y-102281448D02*
X124628570Y-101281448D01*
X123407142Y-102281448D02*
X124178571Y-102281448D01*
X123792856Y-102281448D02*
X123792856Y-100781448D01*
X123792856Y-100781448D02*
X123921428Y-100995734D01*
X123921428Y-100995734D02*
X124049999Y-101138591D01*
X124049999Y-101138591D02*
X124178571Y-101210020D01*
X135949999Y-139410020D02*
X135757142Y-139481448D01*
X135757142Y-139481448D02*
X135435713Y-139481448D01*
X135435713Y-139481448D02*
X135307142Y-139410020D01*
X135307142Y-139410020D02*
X135242856Y-139338591D01*
X135242856Y-139338591D02*
X135178570Y-139195734D01*
X135178570Y-139195734D02*
X135178570Y-139052877D01*
X135178570Y-139052877D02*
X135242856Y-138910020D01*
X135242856Y-138910020D02*
X135307142Y-138838591D01*
X135307142Y-138838591D02*
X135435713Y-138767162D01*
X135435713Y-138767162D02*
X135692856Y-138695734D01*
X135692856Y-138695734D02*
X135821427Y-138624305D01*
X135821427Y-138624305D02*
X135885713Y-138552877D01*
X135885713Y-138552877D02*
X135949999Y-138410020D01*
X135949999Y-138410020D02*
X135949999Y-138267162D01*
X135949999Y-138267162D02*
X135885713Y-138124305D01*
X135885713Y-138124305D02*
X135821427Y-138052877D01*
X135821427Y-138052877D02*
X135692856Y-137981448D01*
X135692856Y-137981448D02*
X135371427Y-137981448D01*
X135371427Y-137981448D02*
X135178570Y-138052877D01*
X134599999Y-139481448D02*
X134599999Y-137981448D01*
X133314285Y-139481448D02*
X133957142Y-139481448D01*
X133957142Y-139481448D02*
X133957142Y-137981448D01*
X132864285Y-139481448D02*
X132864285Y-137981448D01*
X132092856Y-139481448D02*
X132671428Y-138624305D01*
X132092856Y-137981448D02*
X132864285Y-138838591D01*
X129778571Y-139481448D02*
X130550000Y-139481448D01*
X130164285Y-139481448D02*
X130164285Y-137981448D01*
X130164285Y-137981448D02*
X130292857Y-138195734D01*
X130292857Y-138195734D02*
X130421428Y-138338591D01*
X130421428Y-138338591D02*
X130550000Y-138410020D01*
X129200000Y-139338591D02*
X129135714Y-139410020D01*
X129135714Y-139410020D02*
X129200000Y-139481448D01*
X129200000Y-139481448D02*
X129264286Y-139410020D01*
X129264286Y-139410020D02*
X129200000Y-139338591D01*
X129200000Y-139338591D02*
X129200000Y-139481448D01*
X127914286Y-137981448D02*
X128557143Y-137981448D01*
X128557143Y-137981448D02*
X128621429Y-138695734D01*
X128621429Y-138695734D02*
X128557143Y-138624305D01*
X128557143Y-138624305D02*
X128428572Y-138552877D01*
X128428572Y-138552877D02*
X128107143Y-138552877D01*
X128107143Y-138552877D02*
X127978572Y-138624305D01*
X127978572Y-138624305D02*
X127914286Y-138695734D01*
X127914286Y-138695734D02*
X127850000Y-138838591D01*
X127850000Y-138838591D02*
X127850000Y-139195734D01*
X127850000Y-139195734D02*
X127914286Y-139338591D01*
X127914286Y-139338591D02*
X127978572Y-139410020D01*
X127978572Y-139410020D02*
X128107143Y-139481448D01*
X128107143Y-139481448D02*
X128428572Y-139481448D01*
X128428572Y-139481448D02*
X128557143Y-139410020D01*
X128557143Y-139410020D02*
X128621429Y-139338591D01*
D14*
X147800000Y-103163360D02*
X147542858Y-103258598D01*
X147542858Y-103258598D02*
X147114286Y-103258598D01*
X147114286Y-103258598D02*
X146942858Y-103163360D01*
X146942858Y-103163360D02*
X146857143Y-103068121D01*
X146857143Y-103068121D02*
X146771429Y-102877645D01*
X146771429Y-102877645D02*
X146771429Y-102687169D01*
X146771429Y-102687169D02*
X146857143Y-102496693D01*
X146857143Y-102496693D02*
X146942858Y-102401455D01*
X146942858Y-102401455D02*
X147114286Y-102306217D01*
X147114286Y-102306217D02*
X147457143Y-102210979D01*
X147457143Y-102210979D02*
X147628572Y-102115740D01*
X147628572Y-102115740D02*
X147714286Y-102020502D01*
X147714286Y-102020502D02*
X147800000Y-101830026D01*
X147800000Y-101830026D02*
X147800000Y-101639550D01*
X147800000Y-101639550D02*
X147714286Y-101449074D01*
X147714286Y-101449074D02*
X147628572Y-101353836D01*
X147628572Y-101353836D02*
X147457143Y-101258598D01*
X147457143Y-101258598D02*
X147028572Y-101258598D01*
X147028572Y-101258598D02*
X146771429Y-101353836D01*
X146000000Y-103258598D02*
X146000000Y-101258598D01*
X144285714Y-103258598D02*
X145142857Y-103258598D01*
X145142857Y-103258598D02*
X145142857Y-101258598D01*
X143685714Y-103258598D02*
X143685714Y-101258598D01*
X142657143Y-103258598D02*
X143428571Y-102115740D01*
X142657143Y-101258598D02*
X143685714Y-102401455D01*
X140599999Y-101449074D02*
X140514285Y-101353836D01*
X140514285Y-101353836D02*
X140342857Y-101258598D01*
X140342857Y-101258598D02*
X139914285Y-101258598D01*
X139914285Y-101258598D02*
X139742857Y-101353836D01*
X139742857Y-101353836D02*
X139657142Y-101449074D01*
X139657142Y-101449074D02*
X139571428Y-101639550D01*
X139571428Y-101639550D02*
X139571428Y-101830026D01*
X139571428Y-101830026D02*
X139657142Y-102115740D01*
X139657142Y-102115740D02*
X140685714Y-103258598D01*
X140685714Y-103258598D02*
X139571428Y-103258598D01*
X138799999Y-103068121D02*
X138714285Y-103163360D01*
X138714285Y-103163360D02*
X138799999Y-103258598D01*
X138799999Y-103258598D02*
X138885713Y-103163360D01*
X138885713Y-103163360D02*
X138799999Y-103068121D01*
X138799999Y-103068121D02*
X138799999Y-103258598D01*
X137599999Y-101258598D02*
X137428570Y-101258598D01*
X137428570Y-101258598D02*
X137257142Y-101353836D01*
X137257142Y-101353836D02*
X137171428Y-101449074D01*
X137171428Y-101449074D02*
X137085713Y-101639550D01*
X137085713Y-101639550D02*
X136999999Y-102020502D01*
X136999999Y-102020502D02*
X136999999Y-102496693D01*
X136999999Y-102496693D02*
X137085713Y-102877645D01*
X137085713Y-102877645D02*
X137171428Y-103068121D01*
X137171428Y-103068121D02*
X137257142Y-103163360D01*
X137257142Y-103163360D02*
X137428570Y-103258598D01*
X137428570Y-103258598D02*
X137599999Y-103258598D01*
X137599999Y-103258598D02*
X137771428Y-103163360D01*
X137771428Y-103163360D02*
X137857142Y-103068121D01*
X137857142Y-103068121D02*
X137942856Y-102877645D01*
X137942856Y-102877645D02*
X138028570Y-102496693D01*
X138028570Y-102496693D02*
X138028570Y-102020502D01*
X138028570Y-102020502D02*
X137942856Y-101639550D01*
X137942856Y-101639550D02*
X137857142Y-101449074D01*
X137857142Y-101449074D02*
X137771428Y-101353836D01*
X137771428Y-101353836D02*
X137599999Y-101258598D01*
M02*
