M48
METRIC,000.000
T12C1.500000
T11C1.000000
%
T11
G05
X22.962Y38.112
X18.692Y34.362
X23.413Y29.365
X17.413Y30.635
X19.595Y26.013
X16.342Y8.117
X19.250Y13.250
X38.478Y41.724
X48.914Y36.898
X41.393Y23.324
X43.135Y25.901
X35.724Y15.522
X46.540Y18.285
X52.621Y33.071
X40.762Y8.363
X49.750Y9.000
X49.750Y12.000
X52.000Y5.250
X40.762Y3.283
X27.757Y34.668
X29.069Y25.385
X30.676Y47.393
X43.469Y47.071
T12
X10.000Y4.000
M30
