M48
METRIC,000.000
T12C1.500000
T11C1.000000
%
T11
G05
X57.195Y41.248
X59.270Y13.617
X12.276Y44.478
X22.029Y35.936
X18.485Y34.203
X9.522Y18.276
X24.712Y30.404
X17.413Y30.635
X16.389Y7.582
X21.086Y48.401
X38.478Y41.724
X48.914Y36.898
X38.451Y32.964
X41.393Y23.324
X42.296Y18.663
X40.421Y15.596
X35.724Y15.522
X36.296Y19.276
X52.621Y33.071
X45.770Y11.617
X40.762Y8.363
X40.534Y4.113
X35.250Y3.250
X54.864Y11.617
X49.750Y8.750
X28.596Y9.557
X27.757Y34.668
X30.676Y47.393
T12
X10.000Y4.000
M30
