M48
METRIC,000.000
T12C1.500000
T11C1.000000
%
T11
G05
X7.750Y26.750
X9.522Y18.276
X57.500Y42.500
X17.792Y27.691
X18.692Y34.362
X17.413Y30.635
X23.642Y26.602
X51.250Y42.000
X38.478Y41.724
X48.914Y36.898
X41.393Y23.324
X39.906Y26.981
X42.586Y18.961
X35.724Y15.522
X52.621Y33.071
X30.423Y8.310
X49.168Y3.590
X52.000Y8.750
X49.250Y10.000
X51.250Y5.750
X40.762Y8.363
X27.757Y34.668
X30.676Y47.393
T12
X10.000Y4.000
M30
