M48
METRIC,TZ
T1C1.000
T2C1.500
T3C1.800
T4C3.400
%
T1
X7.750Y26.750
X9.522Y18.276
X57.500Y42.500
X17.792Y27.691
X18.692Y34.362
X17.413Y30.635
X23.642Y26.602
X51.250Y42.000
X38.478Y41.724
X48.914Y36.898
X41.393Y23.324
X39.906Y26.981
X42.586Y18.961
X35.724Y15.522
X52.621Y33.071
X30.423Y8.310
X49.168Y3.590
X52.000Y8.750
X49.250Y10.000
X51.250Y5.750
X40.762Y8.363
X27.757Y34.668
X30.676Y47.393
X8.500Y45.500
X10.533Y37.775
X7.866Y39.315
X10.533Y22.225
X8.450Y30.000
X5.370Y30.000
X8.500Y8.500
X7.866Y20.685
X55.500Y45.500
X60.750Y43.250
X60.750Y21.250
X60.750Y38.750
X58.000Y26.200
X58.000Y33.800
X55.500Y8.500
X60.750Y16.750
X24.000Y45.550
X16.225Y43.467
X14.685Y46.134
X16.225Y16.533
X14.685Y13.866
X24.000Y14.450
X24.000Y11.370
X24.000Y48.630
X31.775Y43.467
X37.467Y37.775
X40.134Y39.315
X54.250Y38.750
X54.250Y43.250
X39.550Y30.000
X42.630Y30.000
X37.467Y22.225
X40.134Y20.685
X54.250Y16.750
X54.250Y21.250
X31.775Y16.533
X33.315Y13.866
X33.315Y46.134
T2
X10.000Y4.000
X16.000Y4.000
T3
X22.140Y5.000
X27.000Y5.000
X31.860Y5.000
T4
X4.750Y49.250
X4.750Y4.750
X59.250Y49.250
X59.250Y4.750
T0
M30
