G04 start of page 2 for group 8 layer_idx 7 *
G04 Title: (unknown), bottom_paste *
G04 Creator: pcb-rnd 3.1.7b *
G04 CreationDate: 2026-08-02 23:05:59 UTC *
G04 For: Dad *
G04 Format: Gerber/RS-274X *
G04 PCB-Dimensions: 66000000 56000000 *
G04 PCB-Coordinate-Origin: lower left *
%MOMM*%
%FSLAX46Y46*%
%LNBOTTOM_PASTE_NONE_8*%
%ADD43C,0.002000*%
G54D43*
G36*
X12217300Y37351100D02*
X13061700Y36863600D01*
X12586700Y36040900D01*
X11742300Y36528400D01*
X12217300Y37351100D01*
G37*
G36*
X13797300Y36439100D02*
X14641700Y35951600D01*
X14166700Y35128900D01*
X13322300Y35616400D01*
X13797300Y36439100D01*
G37*
G36*
X24700000Y43880000D02*
X24700000Y42680000D01*
X23300000Y42680000D01*
X23300000Y43880000D01*
X24700000Y43880000D01*
G37*
G36*
X24700000Y41880000D02*
X24700000Y40680000D01*
X23300000Y40680000D01*
X23300000Y41880000D01*
X24700000Y41880000D01*
G37*
G36*
X17817800Y42458400D02*
X18467800Y41332600D01*
X16952200Y40457600D01*
X16302200Y41583400D01*
X17817800Y42458400D01*
G37*
G36*
X19367800Y39773400D02*
X20017800Y38647600D01*
X18502200Y37772600D01*
X17852200Y38898400D01*
X19367800Y39773400D01*
G37*
G36*
X25625500Y32675000D02*
X24450500Y32675000D01*
X24450500Y34125000D01*
X25625500Y34125000D01*
X25625500Y32675000D01*
G37*
G36*
X23549500Y32675000D02*
X22374500Y32675000D01*
X22374500Y34125000D01*
X23549500Y34125000D01*
X23549500Y32675000D01*
G37*
G36*
X11742300Y23471600D02*
X12586700Y23959100D01*
X13061700Y23136400D01*
X12217300Y22648900D01*
X11742300Y23471600D01*
G37*
G36*
X13322300Y24383600D02*
X14166700Y24871100D01*
X14641700Y24048400D01*
X13797300Y23560900D01*
X13322300Y24383600D01*
G37*
G36*
X10120000Y30700000D02*
X11320000Y30700000D01*
X11320000Y29300000D01*
X10120000Y29300000D01*
X10120000Y30700000D01*
G37*
G36*
X12120000Y30700000D02*
X13320000Y30700000D01*
X13320000Y29300000D01*
X12120000Y29300000D01*
X12120000Y30700000D01*
G37*
G36*
X23300000Y16120000D02*
X23300000Y17320000D01*
X24700000Y17320000D01*
X24700000Y16120000D01*
X23300000Y16120000D01*
G37*
G36*
X23300000Y18120000D02*
X23300000Y19320000D01*
X24700000Y19320000D01*
X24700000Y18120000D01*
X23300000Y18120000D01*
G37*
G36*
X16302200Y18416600D02*
X16952200Y19542400D01*
X18467800Y18667400D01*
X17817800Y17541600D01*
X16302200Y18416600D01*
G37*
G36*
X19600500Y32265000D02*
X21225500Y32265000D01*
X21225500Y31545000D01*
X19600500Y31545000D01*
X19600500Y32265000D01*
G37*
G36*
X19600500Y30995000D02*
X21225500Y30995000D01*
X21225500Y30275000D01*
X19600500Y30275000D01*
X19600500Y30995000D01*
G37*
G36*
X19600500Y29725000D02*
X21225500Y29725000D01*
X21225500Y29005000D01*
X19600500Y29005000D01*
X19600500Y29725000D01*
G37*
G36*
X17852200Y21101600D02*
X18502200Y22227400D01*
X20017800Y21352400D01*
X19367800Y20226600D01*
X17852200Y21101600D01*
G37*
G36*
X19600500Y28455000D02*
X21225500Y28455000D01*
X21225500Y27735000D01*
X19600500Y27735000D01*
X19600500Y28455000D01*
G37*
G36*
X18190000Y8950000D02*
X20090000Y8950000D01*
X20090000Y8150000D01*
X18190000Y8150000D01*
X18190000Y8950000D01*
G37*
G36*
X18190000Y10850000D02*
X20090000Y10850000D01*
X20090000Y10050000D01*
X18190000Y10050000D01*
X18190000Y10850000D01*
G37*
G36*
X14587500Y8275000D02*
X13412500Y8275000D01*
X13412500Y9725000D01*
X14587500Y9725000D01*
X14587500Y8275000D01*
G37*
G36*
X21190000Y9900000D02*
X23090000Y9900000D01*
X23090000Y9100000D01*
X21190000Y9100000D01*
X21190000Y9900000D01*
G37*
G36*
X12512500Y8275000D02*
X11337500Y8275000D01*
X11337500Y9725000D01*
X12512500Y9725000D01*
X12512500Y8275000D01*
G37*
G36*
X36257700Y36528400D02*
X35413300Y36040900D01*
X34938300Y36863600D01*
X35782700Y37351100D01*
X36257700Y36528400D01*
G37*
G36*
X34677700Y35616400D02*
X33833300Y35128900D01*
X33358300Y35951600D01*
X34202700Y36439100D01*
X34677700Y35616400D01*
G37*
G36*
X45525000Y37599500D02*
X45525000Y38574500D01*
X46475000Y38574500D01*
X46475000Y37599500D01*
X45525000Y37599500D01*
G37*
G36*
X45525000Y39425500D02*
X45525000Y40400500D01*
X46475000Y40400500D01*
X46475000Y39425500D01*
X45525000Y39425500D01*
G37*
G36*
X37880000Y29300000D02*
X36680000Y29300000D01*
X36680000Y30700000D01*
X37880000Y30700000D01*
X37880000Y29300000D01*
G37*
G36*
X35880000Y29300000D02*
X34680000Y29300000D01*
X34680000Y30700000D01*
X35880000Y30700000D01*
X35880000Y29300000D01*
G37*
G36*
X35782700Y22648900D02*
X34938300Y23136400D01*
X35413300Y23959100D01*
X36257700Y23471600D01*
X35782700Y22648900D01*
G37*
G36*
X34202700Y23560900D02*
X33358300Y24048400D01*
X33833300Y24871100D01*
X34677700Y24383600D01*
X34202700Y23560900D01*
G37*
G36*
X45400000Y30700000D02*
X46600000Y30700000D01*
X46600000Y29300000D01*
X45400000Y29300000D01*
X45400000Y30700000D01*
G37*
G36*
X45125000Y20000000D02*
X45125000Y21300000D01*
X46875000Y21300000D01*
X46875000Y20000000D01*
X45125000Y20000000D01*
G37*
G36*
X45125000Y23100000D02*
X45125000Y24400000D01*
X46875000Y24400000D01*
X46875000Y23100000D01*
X45125000Y23100000D01*
G37*
G36*
X47400000Y30700000D02*
X48600000Y30700000D01*
X48600000Y29300000D01*
X47400000Y29300000D01*
X47400000Y30700000D01*
G37*
G36*
X47600500Y34475000D02*
X48675500Y34475000D01*
X48675500Y33525000D01*
X47600500Y33525000D01*
X47600500Y34475000D01*
G37*
G36*
X49324500Y34475000D02*
X50399500Y34475000D01*
X50399500Y33525000D01*
X49324500Y33525000D01*
X49324500Y34475000D01*
G37*
G36*
X49550000Y29450000D02*
X51450000Y29450000D01*
X51450000Y28650000D01*
X49550000Y28650000D01*
X49550000Y29450000D01*
G37*
G36*
X49550000Y31350000D02*
X51450000Y31350000D01*
X51450000Y30550000D01*
X49550000Y30550000D01*
X49550000Y31350000D01*
G37*
G36*
X52550000Y30400000D02*
X54450000Y30400000D01*
X54450000Y29600000D01*
X52550000Y29600000D01*
X52550000Y30400000D01*
G37*
G36*
X49550000Y24450000D02*
X51450000Y24450000D01*
X51450000Y23650000D01*
X49550000Y23650000D01*
X49550000Y24450000D01*
G37*
G36*
X49550000Y26350000D02*
X51450000Y26350000D01*
X51450000Y25550000D01*
X49550000Y25550000D01*
X49550000Y26350000D01*
G37*
G36*
X52550000Y25400000D02*
X54450000Y25400000D01*
X54450000Y24600000D01*
X52550000Y24600000D01*
X52550000Y25400000D01*
G37*
G36*
X30182200Y17541600D02*
X29532200Y18667400D01*
X31047800Y19542400D01*
X31697800Y18416600D01*
X30182200Y17541600D01*
G37*
G36*
X28632200Y20226600D02*
X27982200Y21352400D01*
X29497800Y22227400D01*
X30147800Y21101600D01*
X28632200Y20226600D01*
G37*
G36*
X34599500Y10975000D02*
X35574500Y10975000D01*
X35574500Y10025000D01*
X34599500Y10025000D01*
X34599500Y10975000D01*
G37*
G36*
X36425500Y10975000D02*
X37400500Y10975000D01*
X37400500Y10025000D01*
X36425500Y10025000D01*
X36425500Y10975000D01*
G37*
G36*
X38275500Y13400000D02*
X39600500Y13400000D01*
X39600500Y11600000D01*
X38275500Y11600000D01*
X38275500Y13400000D01*
G37*
G36*
X41399500Y13400000D02*
X42724500Y13400000D01*
X42724500Y11600000D01*
X41399500Y11600000D01*
X41399500Y13400000D01*
G37*
G36*
X31697800Y41583400D02*
X31047800Y40457600D01*
X29532200Y41332600D01*
X30182200Y42458400D01*
X31697800Y41583400D01*
G37*
G36*
X30147800Y38898400D02*
X29497800Y37772600D01*
X27982200Y38647600D01*
X28632200Y39773400D01*
X30147800Y38898400D01*
G37*
G36*
X26774500Y30995000D02*
X28399500Y30995000D01*
X28399500Y30275000D01*
X26774500Y30275000D01*
X26774500Y30995000D01*
G37*
G36*
X26774500Y32265000D02*
X28399500Y32265000D01*
X28399500Y31545000D01*
X26774500Y31545000D01*
X26774500Y32265000D01*
G37*
G36*
X26774500Y28455000D02*
X28399500Y28455000D01*
X28399500Y27735000D01*
X26774500Y27735000D01*
X26774500Y28455000D01*
G37*
G36*
X26774500Y29725000D02*
X28399500Y29725000D01*
X28399500Y29005000D01*
X26774500Y29005000D01*
X26774500Y29725000D01*
G37*
M02*
