G04 start of page 2 for group 6 layer_idx 5 *
G04 Title: (unknown), top_mask *
G04 Creator: pcb-rnd 3.1.7b *
G04 CreationDate: 2026-08-02 08:38:31 UTC *
G04 For: Dad *
G04 Format: Gerber/RS-274X *
G04 PCB-Dimensions: 64000000 54000000 *
G04 PCB-Coordinate-Origin: lower left *
%MOMM*%
%FSLAX46Y46*%
%LNTOP_MASK_NONE_6*%
%ADD36C,3.300000*%
%ADD35C,3.600000*%
%ADD34C,2.500000*%
G54D34*
X57195000Y41248000D03*
X59270000Y13617000D03*
X12276000Y44478000D03*
X22029000Y35936000D03*
X18485000Y34203000D03*
X9522000Y18276000D03*
X24712000Y30404000D03*
X17413000Y30635000D03*
X16389000Y7582000D03*
G54D35*
X10000000Y4000000D03*
G54D34*
X21086000Y48401000D03*
X38478000Y41724000D03*
X48914000Y36898000D03*
X38451000Y32964000D03*
X41393000Y23324000D03*
X42296000Y18663000D03*
X40421000Y15596000D03*
X35724000Y15522000D03*
X36296000Y19276000D03*
X52621000Y33071000D03*
X45770000Y11617000D03*
X40762000Y8363000D03*
X40534000Y4113000D03*
X35250000Y3250000D03*
X54864000Y11617000D03*
X49750000Y8750000D03*
X28596000Y9557000D03*
X27757000Y34668000D03*
X30676000Y47393000D03*
X24000000Y45550000D03*
X10533000Y37775000D03*
X7866000Y39315000D03*
X16225000Y43467000D03*
X24000000Y48630000D03*
X31775000Y43467000D03*
X33315000Y46134000D03*
X14685000Y46134000D03*
X37467000Y37775000D03*
X40134000Y39315000D03*
X39550000Y30000000D03*
X54250000Y38750000D03*
X54250000Y43250000D03*
X60750000Y38750000D03*
X60750000Y43250000D03*
X58000000Y26200000D03*
X58000000Y33800000D03*
X42630000Y30000000D03*
X8450000Y30000000D03*
X5370000Y30000000D03*
X37467000Y22225000D03*
X10533000Y22225000D03*
X7866000Y20685000D03*
X40134000Y20685000D03*
X54250000Y16750000D03*
X54250000Y21250000D03*
X60750000Y16750000D03*
X60750000Y21250000D03*
X24000000Y14450000D03*
X16225000Y16533000D03*
X14685000Y13866000D03*
G54D35*
X16000000Y4000000D03*
G54D36*
X22140000Y5000000D03*
G54D34*
X31775000Y16533000D03*
X33315000Y13866000D03*
X24000000Y11370000D03*
G54D36*
X27000000Y5000000D03*
X31860000Y5000000D03*
M02*
