M48
METRIC,TZ
T1C1.000
T2C1.500
T3C1.800
T4C3.400
%
T1
X57.195Y41.248
X59.270Y13.617
X12.276Y44.478
X22.029Y35.936
X18.485Y34.203
X9.522Y18.276
X24.712Y30.404
X17.413Y30.635
X16.389Y7.582
X21.086Y48.401
X38.478Y41.724
X48.914Y36.898
X38.451Y32.964
X41.393Y23.324
X42.296Y18.663
X40.421Y15.596
X35.724Y15.522
X36.296Y19.276
X52.621Y33.071
X45.770Y11.617
X40.762Y8.363
X40.534Y4.113
X35.250Y3.250
X54.864Y11.617
X49.750Y8.750
X28.596Y9.557
X27.757Y34.668
X30.676Y47.393
X8.000Y46.000
X8.450Y30.000
X5.370Y30.000
X7.866Y39.315
X8.000Y8.000
X7.866Y20.685
X56.000Y46.000
X60.750Y43.250
X60.750Y21.250
X60.750Y38.750
X58.000Y26.200
X58.000Y33.800
X56.000Y8.000
X60.750Y16.750
X10.533Y37.775
X16.225Y43.467
X24.000Y45.550
X10.533Y22.225
X16.225Y16.533
X14.685Y13.866
X24.000Y14.450
X24.000Y11.370
X14.685Y46.134
X24.000Y48.630
X31.775Y43.467
X37.467Y37.775
X40.134Y39.315
X54.250Y38.750
X54.250Y43.250
X39.550Y30.000
X42.630Y30.000
X37.467Y22.225
X40.134Y20.685
X54.250Y16.750
X54.250Y21.250
X31.775Y16.533
X33.315Y13.866
X33.315Y46.134
T2
X10.000Y4.000
X16.000Y4.000
T3
X22.140Y5.000
X27.000Y5.000
X31.860Y5.000
T4
X4.200Y49.800
X4.200Y4.200
X59.800Y49.800
X59.800Y4.200
T0
M30
