M48
METRIC,TZ
T1C1.000
T2C1.500
T3C1.800
T4C3.400
%
T1
X22.962Y38.112
X18.692Y34.362
X23.413Y29.365
X17.413Y30.635
X19.595Y26.013
X16.342Y8.117
X19.250Y13.250
X38.478Y41.724
X48.914Y36.898
X41.393Y23.324
X43.135Y25.901
X35.724Y15.522
X46.540Y18.285
X52.621Y33.071
X40.762Y8.363
X49.750Y9.000
X49.750Y12.000
X52.000Y5.250
X40.762Y3.283
X27.757Y34.668
X29.069Y25.385
X30.676Y47.393
X43.469Y47.071
X8.500Y47.500
X8.450Y30.000
X5.370Y30.000
X7.866Y39.315
X8.500Y8.500
X7.866Y20.685
X57.500Y47.500
X60.750Y20.650
X60.750Y39.350
X60.750Y43.850
X57.500Y8.500
X60.750Y16.150
X58.000Y26.200
X58.000Y33.800
X10.533Y37.775
X16.225Y43.467
X24.000Y45.550
X16.225Y16.533
X10.533Y22.225
X14.685Y13.866
X24.000Y14.450
X24.000Y11.370
X14.685Y46.134
X24.000Y48.630
X31.775Y43.467
X37.467Y37.775
X40.134Y39.315
X54.250Y39.350
X54.250Y43.850
X39.550Y30.000
X42.630Y30.000
X37.467Y22.225
X40.134Y20.685
X54.250Y16.150
X54.250Y20.650
X31.775Y16.533
X33.315Y13.866
X33.315Y46.134
T2
X10.000Y4.000
X16.000Y4.000
T3
X22.140Y5.000
X27.000Y5.000
X31.860Y5.000
T4
X4.750Y51.250
X4.750Y4.750
X61.250Y51.250
X61.250Y4.750
T0
M30
