G04 start of page 2 for group 3 layer_idx 2 *
G04 Title: (unknown), global_outline *
G04 Creator: pcb-rnd 3.1.7b *
G04 CreationDate: 2026-08-02 23:05:59 UTC *
G04 For: Dad *
G04 Format: Gerber/RS-274X *
G04 PCB-Dimensions: 66000000 56000000 *
G04 PCB-Coordinate-Origin: lower left *
%MOMM*%
%FSLAX46Y46*%
%LNGLOBAL_BOUNDARY_UROUTE__3*%
%ADD46C,0.150000*%
G54D46*
X64000000Y0D02*
X64261000Y17000D01*
X64518000Y68000D01*
X64765000Y152000D01*
X65000000Y268000D01*
X65218000Y413000D01*
X65414000Y586000D01*
X65587000Y782000D01*
X65732000Y1000000D01*
X65848000Y1235000D01*
X65932000Y1482000D01*
X66000000Y54000000D02*
X65983000Y54261000D01*
X65932000Y54518000D01*
X65848000Y54765000D01*
X65732000Y55000000D01*
X65932000Y1482000D02*
X65983000Y1739000D01*
X66000000Y2000000D01*
X66000000Y54000000D01*
X65732000Y55000000D02*
X65587000Y55218000D01*
X65414000Y55414000D01*
X65218000Y55587000D01*
X64518000Y55932000D02*
X64261000Y55983000D01*
X64000000Y56000000D01*
X2000000Y56000000D01*
X1739000Y55983000D01*
X65218000Y55587000D02*
X65000000Y55732000D01*
X64765000Y55848000D01*
X64518000Y55932000D01*
X1739000Y55983000D02*
X1482000Y55932000D01*
X1235000Y55848000D01*
X1000000Y55732000D01*
X782000Y55587000D01*
X586000Y55414000D01*
X413000Y55218000D01*
X268000Y55000000D01*
X152000Y54765000D01*
X68000Y54518000D01*
X17000Y54261000D01*
X0Y54000000D01*
X0Y2000000D01*
X17000Y1739000D01*
X68000Y1482000D01*
X152000Y1235000D01*
X268000Y1000000D01*
X413000Y782000D01*
X586000Y586000D01*
X782000Y413000D01*
X1000000Y268000D01*
X1235000Y152000D01*
X1482000Y68000D01*
X1739000Y17000D01*
X2000000Y0D01*
X64000000Y0D01*
M02*
