G04 start of page 2 for group 4 layer_idx 3 *
G04 Title: (unknown), top_silk *
G04 Creator: pcb-rnd 3.1.7b *
G04 CreationDate: 2026-08-02 23:05:59 UTC *
G04 For: Dad *
G04 Format: Gerber/RS-274X *
G04 PCB-Dimensions: 66000000 56000000 *
G04 PCB-Coordinate-Origin: lower left *
%MOMM*%
%FSLAX46Y46*%
%LNTOP_SILK_NONE_4*%
%ADD44C,0.250000*%
G54D44*
X9012000Y50225000D02*
X8713000Y50525000D01*
X8412000Y50525000D01*
X8112000Y50225000D01*
X8112000Y49325000D01*
X9012000Y49325000D02*
X9012000Y49625000D01*
X8713000Y49625000D01*
X24800000Y43600000D02*
X23200000Y43600000D01*
X22700000Y52080000D02*
X24000000Y50780000D01*
X25300000Y52080000D02*
X24000000Y50780000D01*
X8112000Y49325000D02*
X8412000Y49025000D01*
X8862000Y42740000D02*
X7962000Y42740000D01*
X7962000Y41240000D01*
X6387000Y42740000D02*
X6387000Y41240000D01*
X7287000Y41240000D01*
X7962000Y41240000D02*
X8862000Y41240000D01*
X7962000Y41990000D02*
X8562000Y41990000D01*
X9537000Y41240000D02*
X9537000Y42740000D01*
X10137000Y42740000D01*
X11112000Y42740000D02*
X12012000Y42740000D01*
X10137000Y42740000D02*
X10437000Y42440000D01*
X12012000Y42740000D02*
X11562000Y42140000D01*
X12012000Y41840000D01*
X12012000Y41540000D01*
X11712000Y41240000D01*
X11412000Y41240000D01*
X11112000Y41540000D01*
X10437000Y42440000D02*
X10437000Y41540000D01*
X10137000Y41240000D01*
X9537000Y41240000D01*
X8412000Y49025000D02*
X8713000Y49025000D01*
X9012000Y49325000D01*
X9688000Y50525000D02*
X10588000Y50525000D01*
X10137000Y49925000D01*
X10588000Y49625000D01*
X10588000Y49325000D01*
X10287000Y49025000D01*
X9988000Y49025000D01*
X9688000Y49325000D01*
X12643000Y49559000D02*
X12643000Y48059000D01*
X13543000Y48059000D01*
X14218000Y48059000D02*
X15118000Y48059000D01*
X15118000Y49559000D02*
X14218000Y49559000D01*
X14218000Y48809000D02*
X14818000Y48809000D01*
X15793000Y49559000D02*
X16393000Y49559000D01*
X15793000Y48059000D02*
X15793000Y49559000D01*
X16393000Y49559000D02*
X16693000Y49259000D01*
X16693000Y48359000D01*
X16393000Y48059000D01*
X15793000Y48059000D01*
X18088000Y48059000D02*
X18088000Y49559000D01*
X17368000Y48509000D01*
X18268000Y48509000D01*
X14218000Y49559000D02*
X14218000Y48059000D01*
X25670000Y41511000D02*
X25970000Y41811000D01*
X25970000Y40311000D01*
X27095000Y41511000D02*
X27395000Y41811000D01*
X31493000Y41378000D02*
X30107000Y42178000D01*
X36178000Y36107000D02*
X35378000Y37493000D01*
X27395000Y41811000D02*
X27695000Y41811000D01*
X27995000Y41511000D01*
X27995000Y41211000D01*
X27095000Y40311000D01*
X27995000Y40311000D01*
X25610000Y40311000D02*
X26330000Y40311000D01*
X42059000Y40305000D02*
X42059000Y38805000D01*
X42959000Y38805000D01*
X44534000Y40305000D02*
X43634000Y40305000D01*
X43634000Y38805000D01*
X44534000Y38805000D01*
X43634000Y39555000D02*
X44234000Y39555000D01*
X45209000Y38805000D02*
X45209000Y40305000D01*
X45809000Y40305000D01*
X48359000Y40005000D02*
X48659000Y40305000D01*
X48959000Y40305000D01*
X49259000Y40005000D01*
X49259000Y39705000D01*
X45809000Y40305000D02*
X46109000Y40005000D01*
X46934000Y40005000D02*
X47234000Y40305000D01*
X47234000Y38805000D01*
X46874000Y38805000D02*
X47594000Y38805000D01*
X49259000Y39705000D02*
X48359000Y38805000D01*
X49259000Y38805000D01*
X46109000Y40005000D02*
X46109000Y39105000D01*
X45809000Y38805000D01*
X45209000Y38805000D01*
X35337000Y54750000D02*
X35638000Y54750000D01*
X35038000Y54450000D02*
X35337000Y54750000D01*
X35240000Y45550000D02*
X35240000Y44050000D01*
X36140000Y44050000D01*
X37715000Y45550000D02*
X36815000Y45550000D01*
X36815000Y44050000D01*
X37715000Y44050000D01*
X36815000Y44800000D02*
X37415000Y44800000D01*
X38390000Y44050000D02*
X38390000Y45550000D01*
X38990000Y45550000D01*
X39965000Y45550000D02*
X40865000Y45550000D01*
X38990000Y45550000D02*
X39290000Y45251000D01*
X39290000Y44350000D01*
X38990000Y44050000D01*
X38390000Y44050000D01*
X40865000Y45550000D02*
X40265000Y44050000D01*
X35638000Y54750000D02*
X35938000Y54450000D01*
X36612000Y54750000D02*
X37212000Y54750000D01*
X37212000Y53850000D02*
X36612000Y53850000D01*
X37212000Y54750000D02*
X37513000Y54450000D01*
X37513000Y54150000D01*
X37212000Y53850000D01*
X37153000Y53850000D02*
X37513000Y53250000D01*
X38188000Y53250000D02*
X38188000Y54750000D01*
X38788000Y54750000D01*
X39763000Y54750000D02*
X40663000Y54750000D01*
X41337000Y54750000D02*
X42237000Y54750000D01*
X38788000Y54750000D02*
X39087000Y54450000D01*
X39087000Y54300000D02*
X38788000Y54000000D01*
X38188000Y54000000D01*
X38788000Y54000000D02*
X39087000Y53700000D01*
X39087000Y53550000D01*
X38788000Y53250000D01*
X38188000Y53250000D01*
X40212000Y54750000D02*
X40212000Y53250000D01*
X39763000Y53250000D02*
X40663000Y53250000D01*
X41788000Y54750000D02*
X41788000Y53250000D01*
X44487000Y54750000D02*
X44938000Y53250000D01*
X45388000Y54750000D01*
X46212000Y54450000D02*
X46513000Y54750000D01*
X46513000Y53250000D01*
X46153000Y53250000D02*
X46873000Y53250000D01*
X39087000Y54450000D02*
X39087000Y54300000D01*
X35938000Y54450000D02*
X35938000Y53550000D01*
X35337000Y53250000D02*
X35038000Y53550000D01*
X35038000Y54450000D01*
X35938000Y53550000D02*
X35638000Y53250000D01*
X35337000Y53250000D01*
X36612000Y53250000D02*
X36612000Y54750000D01*
X36462000Y51050000D02*
X36763000Y51350000D01*
X37062000Y51350000D01*
X38337000Y51350000D02*
X38638000Y51350000D01*
X38038000Y51050000D02*
X38337000Y51350000D01*
X38638000Y51350000D02*
X38938000Y51050000D01*
X39612000Y51050000D02*
X39913000Y51350000D01*
X40212000Y51350000D01*
X40513000Y51050000D01*
X40513000Y50750000D01*
X42087000Y51050000D02*
X41788000Y51350000D01*
X44638000Y51350000D02*
X44938000Y51350000D01*
X44337000Y51050000D02*
X44638000Y51350000D01*
X44938000Y51350000D02*
X45237000Y51050000D01*
X46212000Y51350000D02*
X46513000Y51350000D01*
X46212000Y50600000D02*
X45913000Y51050000D01*
X46212000Y51350000D01*
X46513000Y51350000D02*
X46812000Y51050000D01*
X46513000Y50600000D01*
X46212000Y50600000D01*
X47638000Y50600000D02*
X48237000Y50600000D01*
X49363000Y51350000D02*
X49663000Y51350000D01*
X49963000Y51050000D01*
X50788000Y51050000D02*
X51087000Y51350000D01*
X49062000Y51050000D02*
X49363000Y51350000D01*
X41788000Y51350000D02*
X41487000Y51350000D01*
X41788000Y50750000D02*
X41487000Y50750000D01*
X41487000Y51350000D02*
X41188000Y51050000D01*
X37062000Y51350000D02*
X37362000Y51050000D01*
X37362000Y50750000D01*
X38337000Y49850000D02*
X38038000Y50150000D01*
X38038000Y51050000D01*
X38938000Y51050000D02*
X38938000Y50150000D01*
X38638000Y49850000D01*
X38337000Y49850000D01*
X40513000Y50750000D02*
X39612000Y49850000D01*
X40513000Y49850000D01*
X41188000Y51050000D02*
X41188000Y50150000D01*
X41487000Y49850000D01*
X41487000Y50750000D02*
X41188000Y50450000D01*
X41487000Y49850000D02*
X41788000Y49850000D01*
X42087000Y50150000D01*
X42087000Y50450000D01*
X41788000Y50750000D01*
X42913000Y50600000D02*
X43513000Y50600000D01*
X45237000Y51050000D02*
X45237000Y50150000D01*
X44938000Y49850000D01*
X44638000Y49850000D01*
X44337000Y50150000D01*
X44337000Y51050000D01*
X46212000Y50600000D02*
X45913000Y50150000D01*
X49363000Y49850000D02*
X49062000Y50150000D01*
X49062000Y51050000D01*
X49963000Y51050000D02*
X49963000Y50150000D01*
X49663000Y49850000D01*
X49363000Y49850000D01*
X51087000Y51350000D02*
X51087000Y49850000D01*
X50727000Y49850000D02*
X51448000Y49850000D01*
X56312000Y50225000D02*
X56012000Y50525000D01*
X55712000Y50525000D01*
X55413000Y50225000D01*
X55413000Y49325000D01*
X55712000Y49025000D01*
X56012000Y49025000D01*
X56312000Y49325000D01*
X56312000Y49625000D01*
X56012000Y49625000D01*
X57707000Y49025000D02*
X57707000Y50525000D01*
X56987000Y49475000D01*
X57887000Y49475000D01*
X61362000Y47275000D02*
X61062000Y47275000D01*
X60763000Y46975000D01*
X60763000Y46675000D01*
X62337000Y46975000D02*
X62638000Y47275000D01*
X62938000Y47275000D01*
X63237000Y46975000D01*
X63237000Y46675000D01*
X61663000Y46975000D02*
X61362000Y47275000D01*
X60763000Y46675000D02*
X61062000Y46525000D01*
X61362000Y46525000D01*
X61663000Y46375000D01*
X61663000Y46075000D01*
X63237000Y46675000D02*
X62337000Y45775000D01*
X63237000Y45775000D01*
X61663000Y46075000D02*
X61362000Y45775000D01*
X61062000Y45775000D01*
X60763000Y46075000D01*
X45913000Y50150000D02*
X46212000Y49850000D01*
X46513000Y49850000D01*
X46812000Y50150000D01*
X46513000Y50600000D01*
X37362000Y50750000D02*
X36462000Y49850000D01*
X37362000Y49850000D01*
X34050000Y30750000D02*
X34950000Y30750000D01*
X34500000Y30150000D01*
X34950000Y29850000D01*
X37600000Y29200000D02*
X37600000Y30800000D01*
X34950000Y29850000D02*
X34950000Y29550000D01*
X34650000Y29250000D01*
X34350000Y29250000D01*
X34050000Y29550000D01*
X40280000Y33425000D02*
X40280000Y31925000D01*
X41180000Y31925000D01*
X42755000Y33425000D02*
X41855000Y33425000D01*
X41855000Y31925000D01*
X41855000Y32675000D02*
X42455000Y32675000D01*
X41855000Y31925000D02*
X42755000Y31925000D01*
X43430000Y31925000D02*
X43430000Y33425000D01*
X44030000Y33425000D01*
X44030000Y31925000D02*
X43430000Y31925000D01*
X44030000Y33425000D02*
X44330000Y33125000D01*
X44330000Y32225000D01*
X44030000Y31925000D01*
X45155000Y33125000D02*
X45455000Y33425000D01*
X45455000Y31925000D01*
X45095000Y31925000D02*
X45815000Y31925000D01*
X46670000Y31925000D02*
X47390000Y31925000D01*
X46730000Y33125000D02*
X47030000Y33425000D01*
X47030000Y31925000D01*
X54312000Y24075000D02*
X54013000Y23775000D01*
X54612000Y24075000D02*
X54312000Y24075000D01*
X54013000Y23775000D02*
X54013000Y23475000D01*
X54312000Y23325000D01*
X54913000Y23775000D02*
X54612000Y24075000D01*
X54312000Y23325000D02*
X54612000Y23325000D01*
X55737000Y23775000D02*
X56038000Y24075000D01*
X56038000Y22575000D01*
X54612000Y23325000D02*
X54913000Y23175000D01*
X54913000Y22875000D01*
X54612000Y22575000D01*
X54312000Y22575000D02*
X54013000Y22875000D01*
X54612000Y22575000D02*
X54312000Y22575000D01*
X55678000Y22575000D02*
X56398000Y22575000D01*
X24450000Y19950000D02*
X24150000Y20250000D01*
X23850000Y20250000D01*
X23550000Y19950000D01*
X38572000Y18760000D02*
X38572000Y17260000D01*
X39471000Y17260000D01*
X41047000Y18760000D02*
X40147000Y18760000D01*
X40147000Y17260000D01*
X41047000Y17260000D01*
X40147000Y18010000D02*
X40746000Y18010000D01*
X41721000Y17260000D02*
X41721000Y18760000D01*
X42322000Y18760000D01*
X42621000Y18460000D01*
X42621000Y17560000D01*
X42322000Y17260000D01*
X41721000Y17260000D01*
X43297000Y17560000D02*
X43596000Y17260000D01*
X43297000Y18460000D02*
X43297000Y18160000D01*
X43596000Y17860000D01*
X43596000Y17260000D02*
X43897000Y17260000D01*
X44197000Y17560000D01*
X44197000Y18460000D01*
X43596000Y17860000D02*
X43897000Y17860000D01*
X44197000Y18160000D01*
X44197000Y18460000D02*
X43897000Y18760000D01*
X43596000Y18760000D01*
X43297000Y18460000D01*
X23550000Y19950000D02*
X23550000Y19050000D01*
X23850000Y18750000D01*
X24450000Y19050000D02*
X24450000Y19350000D01*
X24150000Y19650000D01*
X23850000Y19650000D01*
X23550000Y19350000D01*
X23200000Y16400000D02*
X24800000Y16400000D01*
X23850000Y18750000D02*
X24150000Y18750000D01*
X24450000Y19050000D01*
X26062000Y8850000D02*
X26363000Y8850000D01*
X25762000Y8550000D02*
X26062000Y8850000D01*
X26363000Y8850000D02*
X26663000Y8550000D01*
X30965000Y11941000D02*
X30965000Y10441000D01*
X31865000Y10441000D01*
X33440000Y11941000D02*
X32540000Y11941000D01*
X32540000Y10441000D01*
X33440000Y10441000D01*
X32540000Y11191000D02*
X33140000Y11191000D01*
X34115000Y10441000D02*
X34115000Y11941000D01*
X34715000Y11941000D01*
X35015000Y11641000D01*
X35840000Y11641000D02*
X36140000Y11941000D01*
X36140000Y10441000D01*
X35780000Y10441000D02*
X36500000Y10441000D01*
X37565000Y10441000D02*
X37265000Y10741000D01*
X37265000Y11641000D01*
X37565000Y11941000D01*
X35015000Y11641000D02*
X35015000Y10741000D01*
X34715000Y10441000D01*
X34115000Y10441000D01*
X26663000Y8550000D02*
X26663000Y7650000D01*
X27337000Y7350000D02*
X27337000Y8850000D01*
X28238000Y7350000D01*
X28238000Y8850000D01*
X26663000Y7650000D02*
X26363000Y7350000D01*
X26062000Y7350000D01*
X25762000Y7650000D01*
X25762000Y8550000D01*
X35378000Y22507000D02*
X36178000Y23893000D01*
X30107000Y17822000D02*
X31493000Y18622000D01*
X16507000Y18622000D02*
X17893000Y17822000D01*
X16508000Y11641000D02*
X16808000Y11941000D01*
X16808000Y10441000D01*
X54200000Y14370000D02*
X53900000Y14070000D01*
X53900000Y13170000D01*
X37565000Y11941000D02*
X37865000Y11941000D01*
X38165000Y11641000D01*
X38165000Y10741000D01*
X37865000Y10441000D01*
X37565000Y10441000D01*
X25575000Y2675000D02*
X25275000Y2675000D01*
X24975000Y2375000D01*
X24975000Y2075000D01*
X25875000Y2375000D02*
X25575000Y2675000D01*
X24975000Y2075000D02*
X25275000Y1925000D01*
X25575000Y1925000D01*
X25875000Y1775000D01*
X25875000Y1475000D01*
X26550000Y2675000D02*
X26790000Y1175000D01*
X27000000Y2075000D01*
X27210000Y1175000D01*
X27450000Y2675000D01*
X28275000Y2375000D02*
X28575000Y2675000D01*
X28575000Y1175000D01*
X28215000Y1175000D02*
X28935000Y1175000D01*
X25875000Y1475000D02*
X25575000Y1175000D01*
X25275000Y1175000D01*
X24975000Y1475000D01*
X54800000Y14070000D02*
X54500000Y14370000D01*
X54200000Y14370000D01*
X53900000Y13170000D02*
X54200000Y12870000D01*
X54500000Y12870000D01*
X54800000Y13170000D01*
X55475000Y12870000D02*
X55475000Y14070000D01*
X55775000Y14370000D01*
X55475000Y13470000D02*
X56375000Y13470000D01*
X55712000Y6975000D02*
X55413000Y6675000D01*
X56312000Y6675000D02*
X56012000Y6975000D01*
X55712000Y6975000D01*
X55413000Y6675000D02*
X55413000Y5775000D01*
X56312000Y5775000D02*
X56312000Y6075000D01*
X56012000Y6075000D01*
X55413000Y5775000D02*
X55712000Y5475000D01*
X56012000Y5475000D01*
X56312000Y5775000D01*
X56987000Y6675000D02*
X57288000Y6975000D01*
X57587000Y6975000D01*
X57887000Y6675000D01*
X57887000Y6375000D01*
X56987000Y5475000D01*
X57887000Y5475000D01*
X55775000Y14370000D02*
X56075000Y14370000D01*
X57050000Y14370000D02*
X57950000Y14370000D01*
X59525000Y14070000D02*
X59225000Y14370000D01*
X58925000Y14370000D01*
X58625000Y14070000D01*
X56075000Y14370000D02*
X56375000Y14070000D01*
X56375000Y12870000D01*
X57500000Y14370000D02*
X57500000Y12870000D01*
X58625000Y14070000D02*
X58625000Y13170000D01*
X58925000Y12870000D01*
X59225000Y12870000D01*
X59525000Y13170000D01*
X60200000Y14370000D02*
X60200000Y12870000D01*
X61100000Y14370000D02*
X61100000Y12870000D01*
X60200000Y13620000D02*
X61100000Y13620000D01*
X11822000Y23893000D02*
X12622000Y22507000D01*
X7862000Y11525000D02*
X7562000Y11525000D01*
X8988000Y11225000D02*
X9287000Y11525000D01*
X8162000Y11225000D02*
X7862000Y11525000D01*
X7562000Y11525000D02*
X7263000Y11225000D01*
X11633000Y11941000D02*
X11633000Y10441000D01*
X12533000Y10441000D01*
X9428000Y25350000D02*
X9129000Y25650000D01*
X8829000Y25650000D01*
X8529000Y25350000D01*
X8529000Y24450000D01*
X8829000Y24150000D01*
X9428000Y24750000D02*
X9129000Y25050000D01*
X8829000Y25050000D01*
X8529000Y24750000D01*
X8829000Y24150000D02*
X9129000Y24150000D01*
X9428000Y24450000D01*
X9428000Y24750000D01*
X18250000Y5800000D02*
X18250000Y6700000D01*
X17950000Y6250000D02*
X18550000Y6250000D01*
X11950000Y6250000D02*
X12550000Y6250000D01*
X3803000Y25650000D02*
X3803000Y24150000D01*
X4704000Y24150000D01*
X5378000Y25650000D02*
X5378000Y24150000D01*
X7263000Y11225000D02*
X7263000Y10325000D01*
X6278000Y25650000D02*
X5378000Y25650000D01*
X5378000Y24150000D02*
X6278000Y24150000D01*
X5378000Y24900000D02*
X5978000Y24900000D01*
X6954000Y24150000D02*
X6954000Y25650000D01*
X7553000Y25650000D01*
X7854000Y25350000D01*
X7854000Y24450000D01*
X7553000Y24150000D01*
X6954000Y24150000D01*
X7263000Y10325000D02*
X7562000Y10025000D01*
X7862000Y10025000D01*
X8928000Y10025000D02*
X9648000Y10025000D01*
X7862000Y10025000D02*
X8162000Y10325000D01*
X8162000Y10625000D01*
X7862000Y10625000D01*
X9287000Y11525000D02*
X9287000Y10025000D01*
X14107000Y11941000D02*
X13207000Y11941000D01*
X13207000Y10441000D01*
X14107000Y10441000D01*
X13207000Y11191000D02*
X13808000Y11191000D01*
X14783000Y10441000D02*
X14783000Y11941000D01*
X15383000Y11941000D01*
X15683000Y11641000D01*
X15683000Y10741000D01*
X15383000Y10441000D01*
X14783000Y10441000D01*
X16448000Y10441000D02*
X17168000Y10441000D01*
X10400000Y30800000D02*
X10400000Y29200000D01*
X13350000Y30750000D02*
X13050000Y30450000D01*
X13050000Y30150000D01*
X13050000Y29550000D02*
X13350000Y29250000D01*
X13950000Y30450000D02*
X13650000Y30750000D01*
X13350000Y30750000D01*
X13050000Y30150000D02*
X13350000Y29850000D01*
X13650000Y29850000D01*
X13950000Y30150000D01*
X2703000Y33425000D02*
X2703000Y31925000D01*
X3603000Y31925000D01*
X4278000Y31925000D02*
X5178000Y31925000D01*
X5178000Y33425000D02*
X4278000Y33425000D01*
X4278000Y32675000D02*
X4878000Y32675000D01*
X5853000Y33425000D02*
X6453000Y33425000D01*
X5853000Y31925000D02*
X5853000Y33425000D01*
X6453000Y33425000D02*
X6753000Y33125000D01*
X6753000Y32225000D01*
X6453000Y31925000D01*
X5853000Y31925000D01*
X8328000Y33425000D02*
X7428000Y33425000D01*
X7428000Y32825000D01*
X8028000Y32825000D01*
X8328000Y32525000D01*
X8328000Y32225000D01*
X8028000Y31925000D01*
X7728000Y31925000D01*
X7428000Y32225000D01*
X4278000Y33425000D02*
X4278000Y31925000D01*
X13350000Y29250000D02*
X13650000Y29250000D01*
X13950000Y29550000D01*
X13950000Y30450000D01*
X59675000Y29250000D02*
X59675000Y30750000D01*
X60275000Y30750000D01*
X60575000Y30450000D01*
X60275000Y29250000D02*
X59675000Y29250000D01*
X60275000Y30000000D02*
X60575000Y29700000D01*
X60575000Y29550000D01*
X60275000Y29250000D01*
X60575000Y30450000D02*
X60575000Y30300000D01*
X60275000Y30000000D01*
X59675000Y30000000D01*
X61250000Y30750000D02*
X62150000Y30750000D01*
X61250000Y29250000D01*
X62150000Y29250000D01*
X62975000Y30450000D02*
X63275000Y30750000D01*
X63275000Y29250000D01*
X62915000Y29250000D02*
X63635000Y29250000D01*
X12622000Y37493000D02*
X11822000Y36107000D01*
X17893000Y42178000D02*
X16507000Y41378000D01*
X53900000Y37270000D02*
X53900000Y36970000D01*
X54500000Y37570000D02*
X54200000Y37570000D01*
X53900000Y37270000D01*
X53900000Y36970000D02*
X54200000Y36820000D01*
X54800000Y37270000D02*
X54500000Y37570000D01*
X54200000Y36820000D02*
X54500000Y36820000D01*
X55475000Y37570000D02*
X56375000Y37570000D01*
X55925000Y37570000D02*
X55925000Y36070000D01*
X57050000Y36070000D02*
X57050000Y37270000D01*
X57350000Y37570000D01*
X57050000Y36670000D02*
X57950000Y36670000D01*
X57350000Y37570000D02*
X57650000Y37570000D01*
X58625000Y37570000D02*
X59225000Y37570000D01*
X59225000Y36670000D02*
X58625000Y36670000D01*
X59225000Y37570000D02*
X59525000Y37270000D01*
X59525000Y36970000D01*
X59225000Y36670000D01*
X59165000Y36670000D02*
X59525000Y36070000D01*
X60200000Y37570000D02*
X61100000Y37570000D01*
X60650000Y37570000D02*
X60650000Y36070000D01*
X57650000Y37570000D02*
X57950000Y37270000D01*
X57950000Y36070000D01*
X58625000Y36070000D02*
X58625000Y37570000D01*
X54500000Y36820000D02*
X54800000Y36670000D01*
X54800000Y36370000D01*
X54500000Y36070000D01*
X54200000Y36070000D02*
X53900000Y36370000D01*
X54500000Y36070000D02*
X54200000Y36070000D01*
M02*
