G04 start of page 2 for group 5 layer_idx 4 *
G04 Title: (unknown), bottom_silk *
G04 Creator: pcb-rnd 3.1.7b *
G04 CreationDate: 2026-08-02 17:58:25 UTC *
G04 For: Dad *
G04 Format: Gerber/RS-274X *
G04 PCB-Dimensions: 66000000 56000000 *
G04 PCB-Coordinate-Origin: lower left *
%MOMM*%
%FSLAX46Y46*%
%LNBOTTOM_SILK_NONE_5*%
%ADD45C,0.250000*%
G54D45*
X11317000Y34704000D02*
X10717000Y34704000D01*
X10417000Y34404000D01*
X10417000Y34104000D01*
X11317000Y33204000D02*
X11317000Y34704000D01*
X10417000Y34104000D02*
X10717000Y33804000D01*
X11317000Y33804000D01*
X10777000Y33804000D02*
X10417000Y33204000D01*
X9742000Y34704000D02*
X8842000Y34704000D01*
X9292000Y34104000D01*
X8842000Y33804000D01*
X8842000Y33504000D01*
X9142000Y33204000D01*
X9442000Y33204000D01*
X9742000Y33504000D01*
X14558000Y32875000D02*
X13957000Y32875000D01*
X13658000Y32575000D01*
X13658000Y32275000D01*
X14558000Y31375000D02*
X14558000Y32875000D01*
X13658000Y32275000D02*
X13957000Y31975000D01*
X14558000Y31975000D01*
X14018000Y31975000D02*
X13658000Y31375000D01*
X12082000Y32875000D02*
X12982000Y32875000D01*
X12982000Y32275000D01*
X12383000Y32275000D01*
X12082000Y31975000D01*
X12082000Y31675000D01*
X12383000Y31375000D01*
X12683000Y31375000D01*
X12982000Y31675000D01*
X18913000Y32805000D02*
X19413000Y32805000D01*
X19413000Y33305000D02*
X18913000Y33305000D01*
X18913000Y32805000D01*
X13300000Y11600000D02*
X13600000Y11900000D01*
X13900000Y11900000D01*
X14200000Y11600000D01*
X18740000Y7550000D02*
X19540000Y7550000D01*
X14200000Y11600000D02*
X14200000Y10700000D01*
X13900000Y10400000D01*
X13600000Y10400000D01*
X13300000Y10700000D01*
X15877000Y20306000D02*
X15877000Y21806000D01*
X15277000Y21806000D01*
X14977000Y21506000D01*
X14977000Y21206000D01*
X15277000Y20906000D02*
X15877000Y20906000D01*
X15337000Y20906000D02*
X14977000Y20306000D01*
X12475000Y11600000D02*
X12175000Y11900000D01*
X14977000Y21206000D02*
X15277000Y20906000D01*
X14212000Y20306000D02*
X13492000Y20306000D01*
X14152000Y21506000D02*
X13852000Y21806000D01*
X13852000Y20306000D01*
X11317000Y26796000D02*
X10717000Y26796000D01*
X10417000Y26496000D01*
X10417000Y26196000D01*
X12175000Y11900000D02*
X12175000Y10400000D01*
X11317000Y25296000D02*
X11317000Y26796000D01*
X10417000Y26196000D02*
X10717000Y25896000D01*
X11317000Y25896000D01*
X10777000Y25896000D02*
X10417000Y25296000D01*
X8842000Y26496000D02*
X9142000Y26796000D01*
X9442000Y26796000D01*
X9742000Y26496000D01*
X9742000Y25596000D01*
X9142000Y25296000D02*
X8842000Y25596000D01*
X8842000Y25896000D01*
X9142000Y26196000D01*
X9442000Y26196000D01*
X9742000Y25896000D01*
X9742000Y25596000D02*
X9442000Y25296000D01*
X9142000Y25296000D01*
X12535000Y10400000D02*
X11815000Y10400000D01*
X25238000Y27310000D02*
X25238000Y26110000D01*
X24938000Y25810000D01*
X24637000Y25810000D01*
X24337000Y26110000D01*
X24337000Y27310000D01*
X25238000Y21495000D02*
X24637000Y21495000D01*
X24337000Y21195000D01*
X24337000Y20895000D01*
X25238000Y19995000D02*
X25238000Y21495000D01*
X24337000Y20895000D02*
X24637000Y20595000D01*
X25238000Y20595000D01*
X24698000Y20595000D02*
X24337000Y19995000D01*
X23663000Y21195000D02*
X23363000Y21495000D01*
X23062000Y21495000D01*
X23512000Y27010000D02*
X23212000Y27310000D01*
X23212000Y25810000D01*
X23573000Y25810000D02*
X22852000Y25810000D01*
X23062000Y21495000D02*
X22762000Y21195000D01*
X22762000Y20895000D01*
X23663000Y19995000D01*
X22762000Y19995000D01*
X21578000Y13025000D02*
X21277000Y13025000D01*
X20977000Y12725000D01*
X20977000Y11825000D01*
X21878000Y11825000D02*
X21878000Y12725000D01*
X21578000Y13025000D01*
X20977000Y11825000D02*
X21277000Y11525000D01*
X21578000Y11525000D01*
X21878000Y11825000D01*
X21338000Y11885000D02*
X20977000Y11525000D01*
X20152000Y12725000D02*
X19852000Y13025000D01*
X19852000Y11525000D01*
X20213000Y11525000D02*
X19492000Y11525000D01*
X19413000Y32805000D02*
X19413000Y33305000D01*
X23062000Y36300000D02*
X22762000Y36000000D01*
X22762000Y35700000D01*
X23663000Y34800000D01*
X22762000Y34800000D01*
X24337000Y36000000D02*
X24637000Y36300000D01*
X23663000Y36000000D02*
X23363000Y36300000D01*
X23062000Y36300000D01*
X15877000Y38194000D02*
X15877000Y39694000D01*
X15277000Y39694000D01*
X23363000Y40005000D02*
X23062000Y40005000D01*
X22762000Y39705000D01*
X23663000Y39705000D02*
X23363000Y40005000D01*
X15277000Y39694000D02*
X14977000Y39394000D01*
X13582000Y38194000D02*
X13582000Y39694000D01*
X14302000Y38644000D01*
X13402000Y38644000D01*
X14977000Y39094000D02*
X15277000Y38794000D01*
X15877000Y38794000D01*
X15337000Y38794000D02*
X14977000Y38194000D01*
X14977000Y39394000D02*
X14977000Y39094000D01*
X22762000Y39705000D02*
X23062000Y39255000D01*
X23363000Y39255000D01*
X24337000Y39405000D02*
X24637000Y39105000D01*
X23363000Y39255000D02*
X23663000Y39705000D01*
X23363000Y39255000D02*
X23663000Y38805000D01*
X23363000Y38505000D01*
X23062000Y38505000D01*
X22762000Y38805000D01*
X23062000Y39255000D01*
X25238000Y40005000D02*
X24637000Y40005000D01*
X24337000Y39705000D01*
X24337000Y39405000D01*
X24637000Y39105000D02*
X25238000Y39105000D01*
X24637000Y36300000D02*
X24938000Y36300000D01*
X24938000Y34800000D02*
X24637000Y34800000D01*
X24337000Y35100000D01*
X24698000Y39105000D02*
X24337000Y38505000D01*
X24938000Y36300000D02*
X25238000Y36000000D01*
X25238000Y35100000D01*
X24938000Y34800000D01*
X25238000Y38505000D02*
X25238000Y40005000D01*
X34598000Y39694000D02*
X33998000Y39694000D01*
X33698000Y39394000D01*
X33698000Y39094000D01*
X34598000Y38194000D02*
X34598000Y39694000D01*
X33698000Y39094000D02*
X33998000Y38794000D01*
X34598000Y38794000D01*
X34058000Y38794000D02*
X33698000Y38194000D01*
X33023000Y39694000D02*
X32123000Y39694000D01*
X32723000Y38194000D01*
X34005000Y30750000D02*
X33405000Y30750000D01*
X33105000Y30450000D01*
X33105000Y30150000D01*
X34005000Y29250000D02*
X34005000Y30750000D01*
X33105000Y30150000D02*
X33405000Y29850000D01*
X34005000Y29850000D01*
X33465000Y29850000D02*
X33105000Y29250000D01*
X32280000Y30450000D02*
X31980000Y30750000D01*
X31980000Y29250000D01*
X32340000Y29250000D02*
X31620000Y29250000D01*
X30765000Y29250000D02*
X30045000Y29250000D01*
X30705000Y30450000D02*
X30405000Y30750000D01*
X30405000Y29250000D01*
X31865000Y24402000D02*
X31265000Y24402000D01*
X30965000Y24102000D01*
X30965000Y23802000D01*
X31265000Y23502000D01*
X31865000Y23502000D01*
X30140000Y24102000D02*
X29840000Y24402000D01*
X28415000Y24402000D02*
X28115000Y24402000D01*
X28715000Y24102000D02*
X28415000Y24402000D01*
X28115000Y24402000D02*
X27815000Y24102000D01*
X27815000Y23202000D01*
X28115000Y22902000D01*
X28415000Y22902000D01*
X28715000Y23202000D01*
X28715000Y24102000D01*
X49337000Y36350000D02*
X49638000Y36650000D01*
X49938000Y36650000D01*
X50237000Y36350000D01*
X50237000Y35450000D02*
X49938000Y35150000D01*
X49638000Y35150000D01*
X49337000Y35450000D01*
X49025000Y31375000D02*
X49025000Y32875000D01*
X50100000Y28050000D02*
X50900000Y28050000D01*
X50100000Y23050000D02*
X50900000Y23050000D01*
X50237000Y36350000D02*
X50237000Y35450000D01*
X54462000Y26775000D02*
X54462000Y28275000D01*
X54163000Y33275000D02*
X53863000Y33275000D01*
X53562000Y32975000D01*
X53562000Y32075000D01*
X54462000Y28275000D02*
X53863000Y28275000D01*
X53562000Y32075000D02*
X53863000Y31775000D01*
X54163000Y31775000D01*
X54462000Y32075000D01*
X54462000Y32975000D01*
X54163000Y33275000D01*
X53922000Y32135000D02*
X53562000Y31775000D01*
X52888000Y32975000D02*
X52587000Y33275000D01*
X52288000Y33275000D01*
X51988000Y32975000D01*
X51988000Y32675000D01*
X52888000Y31775000D01*
X51988000Y31775000D01*
X53863000Y28275000D02*
X53562000Y27975000D01*
X52738000Y27975000D02*
X52438000Y28275000D01*
X52438000Y26775000D01*
X52797000Y26775000D02*
X52078000Y26775000D01*
X53562000Y27975000D02*
X53562000Y27075000D01*
X53863000Y26775000D01*
X54462000Y26775000D01*
X48025000Y42575000D02*
X47425000Y42575000D01*
X47125000Y42276000D01*
X47125000Y41975000D01*
X48663000Y36650000D02*
X47763000Y36650000D01*
X48025000Y41075000D02*
X48025000Y42575000D01*
X47125000Y41975000D02*
X47425000Y41675000D01*
X48025000Y41675000D01*
X47485000Y41675000D02*
X47125000Y41075000D01*
X46300000Y42276000D02*
X46000000Y42575000D01*
X46000000Y41075000D01*
X46360000Y41075000D02*
X45640000Y41075000D01*
X43975000Y42276000D02*
X44275000Y42575000D01*
X44575000Y42575000D01*
X44875000Y42276000D01*
X44875000Y41375000D01*
X44275000Y41075000D02*
X43975000Y41375000D01*
X43975000Y41675000D01*
X44275000Y41975000D01*
X44575000Y41975000D01*
X44875000Y41675000D01*
X44875000Y41375000D02*
X44575000Y41075000D01*
X44275000Y41075000D01*
X47763000Y36650000D02*
X48212000Y36050000D01*
X48025000Y26575000D02*
X47425000Y26575000D01*
X47125000Y26275000D01*
X48025000Y25075000D02*
X48025000Y26575000D01*
X47125000Y26275000D02*
X47125000Y25975000D01*
X47425000Y25675000D01*
X48025000Y25675000D01*
X47485000Y25675000D02*
X47125000Y25075000D01*
X46300000Y26275000D02*
X46000000Y26575000D01*
X46000000Y25075000D01*
X46360000Y25075000D02*
X45640000Y25075000D01*
X43975000Y26575000D02*
X44875000Y26575000D01*
X44875000Y25975000D01*
X44275000Y25975000D02*
X43975000Y25675000D01*
X44875000Y25975000D02*
X44275000Y25975000D01*
X43975000Y25675000D02*
X43975000Y25375000D01*
X44275000Y25075000D01*
X44575000Y25075000D01*
X44875000Y25375000D01*
X39158000Y25296000D02*
X39158000Y26796000D01*
X38558000Y26796000D01*
X38258000Y26496000D01*
X38258000Y26196000D02*
X38558000Y25896000D01*
X39158000Y25896000D01*
X38618000Y25896000D02*
X38258000Y25296000D01*
X36983000Y25296000D02*
X36683000Y25596000D01*
X36683000Y26496000D01*
X36983000Y26796000D01*
X36983000Y25896000D02*
X36683000Y26196000D01*
X36983000Y26796000D02*
X37283000Y26796000D01*
X37583000Y26496000D01*
X37583000Y26196000D01*
X38258000Y26496000D02*
X38258000Y26196000D01*
X37583000Y25596000D02*
X37283000Y25296000D01*
X36983000Y25296000D01*
X37583000Y26196000D02*
X37283000Y25896000D01*
X36983000Y25896000D01*
X48212000Y36050000D02*
X47763000Y35750000D01*
X49025000Y32875000D02*
X48425000Y32875000D01*
X48125000Y32575000D01*
X48125000Y32275000D01*
X48425000Y31975000D01*
X49025000Y31975000D01*
X48485000Y31975000D02*
X48125000Y31375000D01*
X47300000Y32575000D02*
X47000000Y32875000D01*
X47000000Y31375000D01*
X47360000Y31375000D02*
X46640000Y31375000D01*
X45155000Y31375000D02*
X45155000Y32875000D01*
X45875000Y31825000D01*
X44975000Y31825000D01*
X40733000Y34704000D02*
X40133000Y34704000D01*
X39833000Y34404000D01*
X39833000Y34104000D01*
X40133000Y33804000D01*
X40733000Y33804000D01*
X47763000Y35750000D02*
X47763000Y35450000D01*
X40733000Y33204000D02*
X40733000Y34704000D01*
X40193000Y33804000D02*
X39833000Y33204000D01*
X37283000Y34704000D02*
X36983000Y34704000D01*
X36683000Y34404000D01*
X36683000Y34104000D01*
X39008000Y34404000D02*
X38708000Y34704000D01*
X37583000Y34404000D02*
X37283000Y34704000D01*
X36683000Y34104000D02*
X37583000Y33204000D01*
X36683000Y33204000D01*
X38708000Y34704000D02*
X38708000Y33204000D01*
X39068000Y33204000D02*
X38348000Y33204000D01*
X47763000Y35450000D02*
X48062000Y35150000D01*
X48362000Y35150000D01*
X48663000Y35450000D01*
X42525000Y7580000D02*
X42525000Y8580000D01*
X48015000Y8380000D02*
X48215000Y8580000D01*
X48415000Y8580000D01*
X48415000Y7580000D02*
X48215000Y7580000D01*
X48015000Y7780000D01*
X49065000Y8380000D02*
X49265000Y8580000D01*
X48415000Y8580000D02*
X48615000Y8380000D01*
X48615000Y7780000D01*
X48415000Y7580000D01*
X49265000Y8580000D02*
X49465000Y8580000D01*
X49465000Y7580000D02*
X49265000Y7580000D01*
X49065000Y7780000D01*
X49625000Y11155000D02*
X48725000Y11155000D01*
X49175000Y11155000D02*
X49175000Y9655000D01*
X48050000Y9655000D02*
X48050000Y11155000D01*
X47450000Y11155000D01*
X47450000Y10255000D02*
X48050000Y10255000D01*
X50415000Y7580000D02*
X50115000Y8580000D01*
X49465000Y8580000D02*
X49665000Y8380000D01*
X49665000Y7780000D01*
X46990000Y11905000D02*
X46990000Y13405000D01*
X46390000Y13405000D01*
X46090000Y13105000D01*
X46090000Y12805000D01*
X46390000Y12505000D01*
X46990000Y12505000D01*
X47450000Y11155000D02*
X47150000Y10855000D01*
X48565000Y13405000D02*
X47665000Y13405000D01*
X48115000Y13405000D02*
X48115000Y11905000D01*
X45415000Y13105000D02*
X45115000Y13405000D01*
X44815000Y13405000D01*
X44515000Y13105000D01*
X44515000Y12805000D01*
X45415000Y11905000D01*
X44515000Y11905000D01*
X47150000Y10855000D02*
X47150000Y10555000D01*
X47450000Y10255000D01*
X46325000Y10855000D02*
X46025000Y11155000D01*
X46025000Y9655000D01*
X46385000Y9655000D02*
X45665000Y9655000D01*
X50715000Y8580000D02*
X50415000Y7580000D01*
X49665000Y7780000D02*
X49465000Y7580000D01*
X50515000Y6040000D02*
X50315000Y6040000D01*
X49465000Y6040000D02*
X49665000Y5840000D01*
X51465000Y5640000D02*
X51165000Y6040000D01*
X50315000Y6040000D02*
X50115000Y5840000D01*
X50715000Y5840000D02*
X50515000Y6040000D01*
X49665000Y5840000D02*
X49665000Y5640000D01*
X49465000Y5540000D01*
X54415000Y10865000D02*
X53515000Y10865000D01*
X53965000Y10865000D02*
X53965000Y9365000D01*
X52840000Y9365000D02*
X52840000Y10865000D01*
X52240000Y10865000D01*
X52240000Y9965000D02*
X52840000Y9965000D01*
X51765000Y5040000D02*
X51765000Y6040000D01*
X51465000Y5640000D01*
X51165000Y6040000D02*
X51165000Y5040000D01*
X52240000Y10865000D02*
X51940000Y10565000D01*
X51940000Y10265000D01*
X52240000Y9965000D01*
X50115000Y5840000D02*
X50115000Y5240000D01*
X50315000Y5040000D01*
X49465000Y5040000D02*
X49665000Y5240000D01*
X50315000Y5040000D02*
X50515000Y5040000D01*
X50715000Y5240000D01*
X50715000Y5840000D01*
X50545000Y9365000D02*
X50545000Y10865000D01*
X51265000Y9815000D01*
X50365000Y9815000D01*
X49065000Y5840000D02*
X49265000Y6040000D01*
X49465000Y6040000D01*
X48615000Y6040000D02*
X48015000Y6040000D01*
X49465000Y5540000D02*
X49265000Y5540000D01*
X50115000Y3300000D02*
X50315000Y3500000D01*
X50515000Y3500000D01*
X50715000Y3300000D01*
X50715000Y2700000D01*
X50515000Y2500000D01*
X50315000Y2500000D01*
X50115000Y2700000D01*
X50115000Y2900000D01*
X50315000Y2900000D01*
X48615000Y2500000D02*
X48615000Y3500000D01*
X48215000Y3500000D01*
X48015000Y3300000D01*
X48015000Y2700000D01*
X48215000Y2500000D01*
X48615000Y2500000D01*
X49665000Y2500000D02*
X49665000Y3500000D01*
X49065000Y2500000D01*
X49065000Y3500000D01*
X49265000Y5540000D02*
X49065000Y5440000D01*
X49065000Y5240000D01*
X49265000Y5040000D01*
X49465000Y5040000D01*
X48315000Y6040000D02*
X48315000Y5040000D01*
X48615000Y5040000D02*
X48015000Y5040000D01*
X42200000Y9300000D02*
X43000000Y9300000D01*
X43000000Y10100000D01*
X42200000Y10100000D01*
X42200000Y9300000D01*
X42525000Y8580000D02*
X42225000Y8180000D01*
X41925000Y5840000D02*
X42125000Y6040000D01*
X42325000Y6040000D01*
X42525000Y5840000D01*
X42525000Y5640000D01*
X42325000Y5540000D01*
X42125000Y5540000D01*
X41925000Y5440000D01*
X41925000Y5240000D01*
X42125000Y5040000D01*
X42325000Y5040000D02*
X42525000Y5240000D01*
X42125000Y5040000D02*
X42325000Y5040000D01*
X42525000Y3500000D02*
X42125000Y3500000D01*
X41925000Y3300000D01*
X42525000Y2500000D02*
X42525000Y3500000D01*
X41925000Y3300000D02*
X41925000Y3100000D01*
X42125000Y2900000D01*
X42525000Y2900000D01*
X42165000Y2900000D02*
X41925000Y2500000D01*
X39825000Y8380000D02*
X40025000Y8580000D01*
X40225000Y8580000D01*
X39175000Y8580000D02*
X38975000Y8580000D01*
X38775000Y8380000D01*
X39375000Y8380000D02*
X39175000Y8580000D01*
X40225000Y8580000D02*
X40425000Y8380000D01*
X40425000Y8180000D02*
X40225000Y8080000D01*
X40025000Y8080000D01*
X38775000Y8380000D02*
X38775000Y7780000D01*
X38975000Y7580000D01*
X39175000Y7580000D01*
X39375000Y7780000D01*
X39375000Y8380000D01*
X42225000Y8180000D02*
X41925000Y8580000D01*
X41475000Y8580000D02*
X40875000Y8580000D01*
X40425000Y8380000D02*
X40425000Y8180000D01*
X40025000Y8080000D02*
X39825000Y7980000D01*
X36487000Y54450000D02*
X36788000Y54750000D01*
X35812000Y54750000D02*
X34913000Y54750000D01*
X35362000Y54750000D02*
X35362000Y53250000D01*
X35812000Y53250000D02*
X34913000Y53250000D01*
X36788000Y54750000D02*
X37087000Y54750000D01*
X37388000Y54450000D01*
X37087000Y54000000D02*
X36788000Y54000000D01*
X34237000Y53250000D02*
X34237000Y54750000D01*
X33638000Y54750000D01*
X31762000Y54750000D02*
X32663000Y54750000D01*
X29512000Y54750000D02*
X28913000Y54750000D01*
X33638000Y54750000D02*
X33337000Y54450000D01*
X33337000Y53550000D01*
X32663000Y54750000D02*
X32663000Y53250000D01*
X31762000Y53250000D01*
X32663000Y54000000D02*
X32062000Y54000000D01*
X29512000Y53250000D02*
X29512000Y54750000D01*
X33337000Y53550000D02*
X33638000Y53250000D01*
X34237000Y53250000D01*
X28913000Y54750000D02*
X28613000Y54450000D01*
X28613000Y54300000D01*
X28913000Y54000000D01*
X28613000Y53700000D01*
X28613000Y53550000D01*
X28913000Y53250000D01*
X28913000Y54000000D02*
X29512000Y54000000D01*
X28913000Y53250000D02*
X29512000Y53250000D01*
X37388000Y54450000D02*
X37388000Y54150000D01*
X37087000Y54000000D01*
X37087000Y53250000D02*
X37388000Y53550000D01*
X39825000Y7980000D02*
X39825000Y7780000D01*
X39443000Y14075000D02*
X39443000Y15575000D01*
X38025000Y7850000D02*
X38025000Y9350000D01*
X37425000Y9350000D01*
X37425000Y8450000D02*
X38025000Y8450000D01*
X37425000Y9350000D02*
X37125000Y9050000D01*
X37125000Y8750000D01*
X37425000Y8450000D01*
X37485000Y8450000D02*
X37125000Y7850000D01*
X36788000Y54000000D02*
X36487000Y53850000D01*
X36487000Y53550000D01*
X31865000Y22902000D02*
X31865000Y24402000D01*
X31325000Y23502000D02*
X30965000Y22902000D01*
X29840000Y24402000D02*
X29840000Y22902000D01*
X30200000Y22902000D02*
X29480000Y22902000D01*
X36487000Y53550000D02*
X36788000Y53250000D01*
X34875000Y9350000D02*
X33975000Y9350000D01*
X34425000Y8750000D01*
X33975000Y8450000D01*
X36300000Y9050000D02*
X36000000Y9350000D01*
X36000000Y7850000D01*
X36360000Y7850000D02*
X35640000Y7850000D01*
X33975000Y8450000D02*
X33975000Y8150000D01*
X34275000Y7850000D01*
X34575000Y7850000D01*
X34875000Y8150000D01*
X36788000Y53250000D02*
X37087000Y53250000D01*
X39825000Y7780000D02*
X40025000Y7580000D01*
X40225000Y7580000D02*
X40425000Y7780000D01*
X40837000Y15275000D02*
X41138000Y15575000D01*
X41438000Y15575000D01*
X41737000Y15275000D01*
X40025000Y7580000D02*
X40225000Y7580000D01*
X41737000Y15275000D02*
X41737000Y14375000D01*
X41438000Y14075000D01*
X41138000Y14075000D01*
X40837000Y14375000D01*
X39443000Y15575000D02*
X40163000Y14525000D01*
X39263000Y14525000D01*
X41925000Y8580000D02*
X41925000Y7580000D01*
X41175000Y8580000D02*
X41175000Y7580000D01*
X41475000Y7580000D02*
X40875000Y7580000D01*
X40875000Y5840000D02*
X41075000Y6040000D01*
X41275000Y6040000D01*
X41475000Y5840000D01*
X41475000Y5240000D01*
X41275000Y5040000D01*
X41075000Y5040000D01*
X40875000Y5240000D01*
X40875000Y3300000D02*
X41075000Y3500000D01*
X41275000Y3500000D01*
X41475000Y3300000D01*
X41475000Y3100000D01*
X41275000Y3000000D01*
X41075000Y3000000D01*
X40875000Y2900000D01*
X40875000Y2700000D01*
X41075000Y2500000D01*
X41275000Y2500000D02*
X41475000Y2700000D01*
X41075000Y2500000D02*
X41275000Y2500000D01*
X40425000Y6040000D02*
X40425000Y5040000D01*
X39825000Y6040000D02*
X40425000Y5440000D01*
X40225000Y5640000D02*
X39825000Y5040000D01*
X40425000Y3500000D02*
X39825000Y3500000D01*
X40125000Y3500000D02*
X40125000Y2500000D01*
M02*
