G04 start of page 2 for group 5 layer_idx 4 *
G04 Title: (unknown), bottom_silk *
G04 Creator: pcb-rnd 3.1.7b *
G04 CreationDate: 2026-08-02 23:05:59 UTC *
G04 For: Dad *
G04 Format: Gerber/RS-274X *
G04 PCB-Dimensions: 66000000 56000000 *
G04 PCB-Coordinate-Origin: lower left *
%MOMM*%
%FSLAX46Y46*%
%LNBOTTOM_SILK_NONE_5*%
%ADD45C,0.250000*%
G54D45*
X15154000Y39526000D02*
X14554000Y39526000D01*
X14254000Y39226000D01*
X14254000Y38926000D01*
X15154000Y38026000D02*
X15154000Y39526000D01*
X14254000Y38926000D02*
X14554000Y38626000D01*
X15154000Y38626000D01*
X14614000Y38626000D02*
X14254000Y38026000D01*
X14430000Y27046000D02*
X13829000Y27046000D01*
X13530000Y26746000D01*
X13530000Y26446000D01*
X14430000Y25546000D02*
X14430000Y27046000D01*
X13530000Y26446000D02*
X13829000Y26146000D01*
X14430000Y26146000D01*
X13889000Y26146000D02*
X13530000Y25546000D01*
X13579000Y39526000D02*
X12679000Y39526000D01*
X13129000Y38926000D01*
X12679000Y38626000D01*
X12958000Y32875000D02*
X12357000Y32875000D01*
X12058000Y32575000D01*
X12958000Y31375000D02*
X12958000Y32875000D01*
X12058000Y32575000D02*
X12058000Y32275000D01*
X12357000Y31975000D01*
X12418000Y31975000D02*
X12058000Y31375000D01*
X12357000Y31975000D02*
X12958000Y31975000D01*
X11954000Y26746000D02*
X12255000Y27046000D01*
X12555000Y27046000D01*
X12854000Y26746000D01*
X12854000Y25846000D01*
X12555000Y25546000D01*
X12555000Y26446000D02*
X12854000Y26146000D01*
X12555000Y25546000D02*
X12255000Y25546000D01*
X11954000Y25846000D01*
X11954000Y26146000D01*
X12255000Y26446000D01*
X12555000Y26446000D01*
X10482000Y32875000D02*
X11383000Y32875000D01*
X11383000Y32275000D01*
X10783000Y32275000D01*
X10482000Y31975000D01*
X10482000Y31675000D01*
X10783000Y31375000D01*
X11082000Y31375000D01*
X11383000Y31675000D01*
X12679000Y38626000D02*
X12679000Y38326000D01*
X12979000Y38026000D01*
X13279000Y38026000D01*
X13579000Y38326000D01*
X21255000Y44633000D02*
X20655000Y44633000D01*
X20355000Y44333000D01*
X20355000Y44033000D01*
X21255000Y43133000D02*
X21255000Y44633000D01*
X20355000Y44033000D02*
X20655000Y43733000D01*
X21255000Y43733000D01*
X20715000Y43733000D02*
X20355000Y43133000D01*
X18960000Y43133000D02*
X18960000Y44633000D01*
X19680000Y43583000D01*
X18780000Y43583000D01*
X20838000Y32780000D02*
X21288000Y32780000D01*
X21288000Y33230000D02*
X20838000Y33230000D01*
X20838000Y32780000D01*
X11675000Y11600000D02*
X11975000Y11900000D01*
X12275000Y11900000D01*
X12575000Y11600000D01*
X18740000Y7550000D02*
X19540000Y7550000D01*
X12575000Y11600000D02*
X12575000Y10700000D01*
X12275000Y10400000D01*
X11975000Y10400000D01*
X11675000Y10700000D01*
X10850000Y11600000D02*
X10550000Y11900000D01*
X10550000Y10400000D01*
X10910000Y10400000D02*
X10190000Y10400000D01*
X21255000Y16867000D02*
X20655000Y16867000D01*
X20355000Y16567000D01*
X20355000Y16267000D01*
X21255000Y15367000D02*
X21255000Y16867000D01*
X20355000Y16267000D02*
X20655000Y15967000D01*
X21255000Y15967000D01*
X20715000Y15967000D02*
X20355000Y15367000D01*
X19530000Y16567000D02*
X19230000Y16867000D01*
X19230000Y15367000D01*
X19590000Y15367000D02*
X18870000Y15367000D01*
X21288000Y32780000D02*
X21288000Y33230000D01*
X33383000Y34454000D02*
X33083000Y34454000D01*
X32783000Y34154000D01*
X32783000Y33854000D01*
X35108000Y34154000D02*
X34808000Y34454000D01*
X34808000Y32954000D01*
X33683000Y34154000D02*
X33383000Y34454000D01*
X32783000Y33854000D02*
X33683000Y32954000D01*
X32783000Y32954000D01*
X36233000Y34454000D02*
X35933000Y34154000D01*
X35933000Y33854000D01*
X35168000Y32954000D02*
X34448000Y32954000D01*
X36833000Y32954000D02*
X36833000Y34454000D01*
X36233000Y34454000D01*
X35933000Y33854000D02*
X36233000Y33554000D01*
X36833000Y33554000D01*
X36293000Y33554000D02*
X35933000Y32954000D01*
X44451000Y34750000D02*
X44901000Y34150000D01*
X44451000Y33850000D02*
X44451000Y33550000D01*
X44751000Y33250000D01*
X46026000Y34450000D02*
X46326000Y34750000D01*
X45351000Y34750000D02*
X44451000Y34750000D01*
X44901000Y34150000D02*
X44451000Y33850000D01*
X44751000Y33250000D02*
X45050000Y33250000D01*
X45351000Y33550000D01*
X46326000Y34750000D02*
X46626000Y34750000D01*
X46626000Y33250000D02*
X46326000Y33250000D01*
X46026000Y33550000D01*
X46626000Y34750000D02*
X46925000Y34450000D01*
X46925000Y33550000D01*
X46626000Y33250000D01*
X50100000Y28050000D02*
X50900000Y28050000D01*
X55725000Y30750000D02*
X55425000Y30750000D01*
X55125000Y30450000D01*
X55125000Y30150000D01*
X57000000Y30750000D02*
X56700000Y30450000D01*
X56700000Y29550000D01*
X56025000Y30450000D02*
X55725000Y30750000D01*
X55125000Y30150000D02*
X56025000Y29250000D01*
X55125000Y29250000D01*
X57300000Y30750000D02*
X57000000Y30750000D01*
X57000000Y29250000D02*
X57300000Y29250000D01*
X57060000Y29610000D02*
X56700000Y29250000D01*
X50100000Y23050000D02*
X50900000Y23050000D01*
X56700000Y29550000D02*
X57000000Y29250000D01*
X34005000Y30750000D02*
X33405000Y30750000D01*
X33105000Y30450000D01*
X33105000Y30150000D01*
X33405000Y29850000D01*
X34005000Y29850000D01*
X57300000Y29250000D02*
X57600000Y29550000D01*
X34005000Y29250000D02*
X34005000Y30750000D01*
X33465000Y29850000D02*
X33105000Y29250000D01*
X32280000Y30450000D02*
X31980000Y30750000D01*
X30705000Y30450000D02*
X30405000Y30750000D01*
X30405000Y29250000D01*
X31980000Y30750000D02*
X31980000Y29250000D01*
X32340000Y29250000D02*
X31620000Y29250000D01*
X30765000Y29250000D02*
X30045000Y29250000D01*
X57600000Y29550000D02*
X57600000Y30450000D01*
X57300000Y30750000D01*
X27307000Y22977000D02*
X26707000Y22977000D01*
X26407000Y22677000D01*
X26407000Y22377000D01*
X36045000Y27046000D02*
X35446000Y27046000D01*
X35145000Y26746000D01*
X35145000Y26446000D01*
X36045000Y25546000D02*
X36045000Y27046000D01*
X35145000Y26446000D02*
X35446000Y26146000D01*
X36045000Y26146000D01*
X35505000Y26146000D02*
X35145000Y25546000D01*
X34471000Y25846000D02*
X34170000Y25546000D01*
X33870000Y25546000D01*
X33571000Y25846000D01*
X33571000Y26746000D02*
X33870000Y27046000D01*
X34170000Y27046000D01*
X34471000Y26746000D01*
X33571000Y25846000D02*
X33571000Y26746000D01*
X34471000Y26746000D02*
X34471000Y26446000D01*
X34170000Y26146000D01*
X33870000Y26146000D01*
X33571000Y26446000D01*
X27307000Y21477000D02*
X27307000Y22977000D01*
X26407000Y22377000D02*
X26707000Y22077000D01*
X27307000Y22077000D01*
X26767000Y22077000D02*
X26407000Y21477000D01*
X25582000Y22677000D02*
X25282000Y22977000D01*
X25282000Y21477000D01*
X25238000Y27310000D02*
X25238000Y26110000D01*
X24938000Y25810000D01*
X24637000Y25810000D01*
X24337000Y26110000D01*
X24337000Y27310000D01*
X25642000Y21477000D02*
X24922000Y21477000D01*
X23857000Y22977000D02*
X23557000Y22977000D01*
X23257000Y22677000D01*
X23257000Y21777000D01*
X24157000Y21777000D02*
X24157000Y22677000D01*
X23857000Y22977000D01*
X23257000Y21777000D02*
X23557000Y21477000D01*
X23857000Y21477000D01*
X24157000Y21777000D01*
X23512000Y27010000D02*
X23212000Y27310000D01*
X23212000Y25810000D01*
X23573000Y25810000D02*
X22852000Y25810000D01*
X41925000Y5840000D02*
X42125000Y6040000D01*
X42125000Y5540000D02*
X41925000Y5440000D01*
X41925000Y5240000D01*
X41475000Y5840000D02*
X41475000Y5240000D01*
X41925000Y5240000D02*
X42125000Y5040000D01*
X42325000Y5040000D01*
X42525000Y5240000D01*
X41475000Y5240000D02*
X41275000Y5040000D01*
X41075000Y5040000D01*
X40875000Y5240000D01*
X40425000Y6040000D02*
X40425000Y5040000D01*
X39825000Y6040000D02*
X40425000Y5440000D01*
X40225000Y5640000D02*
X39825000Y5040000D01*
X36487000Y54450000D02*
X36788000Y54750000D01*
X35812000Y54750000D02*
X34913000Y54750000D01*
X35362000Y54750000D02*
X35362000Y53250000D01*
X35812000Y53250000D02*
X34913000Y53250000D01*
X36788000Y54750000D02*
X37087000Y54750000D01*
X37388000Y54450000D01*
X37087000Y54000000D02*
X36788000Y54000000D01*
X34237000Y53250000D02*
X34237000Y54750000D01*
X33638000Y54750000D01*
X31762000Y54750000D02*
X32663000Y54750000D01*
X29512000Y54750000D02*
X28913000Y54750000D01*
X33638000Y54750000D02*
X33337000Y54450000D01*
X33337000Y53550000D01*
X32663000Y54750000D02*
X32663000Y53250000D01*
X31762000Y53250000D01*
X32663000Y54000000D02*
X32062000Y54000000D01*
X29512000Y53250000D02*
X29512000Y54750000D01*
X33337000Y53550000D02*
X33638000Y53250000D01*
X34237000Y53250000D01*
X28913000Y54750000D02*
X28613000Y54450000D01*
X28613000Y54300000D01*
X28913000Y54000000D01*
X28613000Y53700000D01*
X28613000Y53550000D01*
X28913000Y53250000D01*
X28913000Y54000000D02*
X29512000Y54000000D01*
X28913000Y53250000D02*
X29512000Y53250000D01*
X37388000Y54450000D02*
X37388000Y54150000D01*
X37087000Y54000000D01*
X37087000Y53250000D02*
X37388000Y53550000D01*
X40837000Y15275000D02*
X41138000Y15575000D01*
X41438000Y15575000D01*
X41737000Y15275000D01*
X41075000Y6040000D02*
X41275000Y6040000D01*
X41737000Y15275000D02*
X41737000Y14375000D01*
X41438000Y14075000D01*
X41138000Y14075000D01*
X40837000Y14375000D01*
X39443000Y14075000D02*
X39443000Y15575000D01*
X40163000Y14525000D01*
X39263000Y14525000D01*
X38025000Y9350000D02*
X37425000Y9350000D01*
X37125000Y9050000D01*
X37125000Y8750000D01*
X38025000Y7850000D02*
X38025000Y9350000D01*
X37125000Y8750000D02*
X37425000Y8450000D01*
X38025000Y8450000D01*
X37485000Y8450000D02*
X37125000Y7850000D01*
X36788000Y54000000D02*
X36487000Y53850000D01*
X36487000Y53550000D01*
X34848000Y40865000D02*
X34248000Y40865000D01*
X33948000Y40566000D01*
X34848000Y39365000D02*
X34848000Y40865000D01*
X33948000Y40566000D02*
X33948000Y40265000D01*
X34248000Y39965000D01*
X34848000Y39965000D01*
X34308000Y39965000D02*
X33948000Y39365000D01*
X34875000Y9350000D02*
X33975000Y9350000D01*
X34425000Y8750000D01*
X33975000Y8450000D01*
X36300000Y9050000D02*
X36000000Y9350000D01*
X36000000Y7850000D01*
X36360000Y7850000D02*
X35640000Y7850000D01*
X27850000Y18470000D02*
X27250000Y18470000D01*
X26950000Y18170000D01*
X26950000Y17870000D01*
X33975000Y8450000D02*
X33975000Y8150000D01*
X27850000Y16970000D02*
X27850000Y18470000D01*
X26950000Y17870000D02*
X27250000Y17570000D01*
X27850000Y17570000D01*
X27310000Y17570000D02*
X26950000Y16970000D01*
X26275000Y18170000D02*
X25975000Y18470000D01*
X25675000Y18470000D01*
X25375000Y18170000D01*
X25375000Y17870000D01*
X26275000Y16970000D01*
X25375000Y16970000D01*
X27850000Y43030000D02*
X27250000Y43030000D01*
X26950000Y42730000D01*
X26950000Y42430000D01*
X27850000Y41530000D02*
X27850000Y43030000D01*
X26950000Y42430000D02*
X27250000Y42130000D01*
X27850000Y42130000D01*
X27310000Y42130000D02*
X26950000Y41530000D01*
X25975000Y43030000D02*
X25675000Y43030000D01*
X26275000Y42730000D02*
X25975000Y43030000D01*
X25675000Y43030000D02*
X25375000Y42730000D01*
X25675000Y42280000D01*
X25975000Y42280000D02*
X26275000Y42730000D01*
X25675000Y42280000D02*
X25975000Y42280000D01*
X26275000Y41830000D01*
X25975000Y41530000D01*
X25675000Y41530000D01*
X25375000Y41830000D01*
X25675000Y42280000D01*
X33975000Y8150000D02*
X34275000Y7850000D01*
X33273000Y40865000D02*
X32373000Y40865000D01*
X32973000Y39365000D01*
X34275000Y7850000D02*
X34575000Y7850000D01*
X34875000Y8150000D01*
X36487000Y53550000D02*
X36788000Y53250000D01*
X37087000Y53250000D01*
X42125000Y6040000D02*
X42325000Y6040000D01*
X40875000Y5840000D02*
X41075000Y6040000D01*
X41275000Y6040000D02*
X41475000Y5840000D01*
X43600000Y9680000D02*
X44400000Y9680000D01*
X44400000Y10480000D01*
X43600000Y10480000D01*
X43600000Y9680000D01*
X42325000Y6040000D02*
X42525000Y5840000D01*
X42525000Y5640000D02*
X42325000Y5540000D01*
X42125000Y5540000D01*
X48025000Y41075000D02*
X48025000Y42575000D01*
X47425000Y42575000D01*
X43975000Y42276000D02*
X44275000Y42575000D01*
X44575000Y42575000D01*
X44875000Y42276000D01*
X46300000Y42276000D02*
X46000000Y42575000D01*
X44875000Y42276000D02*
X44875000Y41375000D01*
X44575000Y41075000D01*
X44275000Y41075000D01*
X44275000Y41975000D02*
X44575000Y41975000D01*
X44875000Y41675000D01*
X47425000Y42575000D02*
X47125000Y42276000D01*
X46000000Y42575000D02*
X46000000Y41075000D01*
X46360000Y41075000D02*
X45640000Y41075000D01*
X44275000Y41075000D02*
X43975000Y41375000D01*
X43975000Y41675000D01*
X44275000Y41975000D01*
X47125000Y42276000D02*
X47125000Y41975000D01*
X47425000Y41675000D01*
X48025000Y41675000D01*
X47485000Y41675000D02*
X47125000Y41075000D01*
X42525000Y5840000D02*
X42525000Y5640000D01*
X50115000Y3300000D02*
X50315000Y3500000D01*
X50515000Y3500000D01*
X48615000Y3500000D02*
X48215000Y3500000D01*
X48015000Y3300000D01*
X50515000Y3500000D02*
X50715000Y3300000D01*
X50715000Y2700000D01*
X50515000Y2500000D01*
X50315000Y2500000D01*
X50115000Y2700000D01*
X50115000Y2900000D01*
X50315000Y2900000D01*
X48615000Y2500000D02*
X48615000Y3500000D01*
X48015000Y3300000D02*
X48015000Y2700000D01*
X48215000Y2500000D01*
X48615000Y2500000D01*
X49665000Y2500000D02*
X49665000Y3500000D01*
X49065000Y2500000D01*
X49065000Y3500000D01*
M02*
