G04 start of page 2 for group 3 layer_idx 2 *
G04 Title: (unknown), global_outline *
G04 Creator: pcb-rnd 3.1.7b *
G04 CreationDate: 2026-08-02 13:36:58 UTC *
G04 For: Dad *
G04 Format: Gerber/RS-274X *
G04 PCB-Dimensions: 64000000 54000000 *
G04 PCB-Coordinate-Origin: lower left *
%MOMM*%
%FSLAX46Y46*%
%LNGLOBAL_BOUNDARY_UROUTE__3*%
%ADD46C,0.150000*%
G54D46*
X62000000Y0D02*
X62261000Y17000D01*
X62518000Y68000D01*
X62765000Y152000D01*
X63000000Y268000D01*
X63218000Y413000D01*
X63414000Y586000D01*
X63587000Y782000D01*
X63732000Y1000000D01*
X63848000Y1235000D01*
X63932000Y1482000D01*
X64000000Y52000000D02*
X63983000Y52261000D01*
X63932000Y52518000D01*
X63848000Y52765000D01*
X63732000Y53000000D01*
X63932000Y1482000D02*
X63983000Y1739000D01*
X64000000Y2000000D01*
X64000000Y52000000D01*
X63732000Y53000000D02*
X63587000Y53218000D01*
X63414000Y53414000D01*
X63218000Y53587000D01*
X62518000Y53932000D02*
X62261000Y53983000D01*
X62000000Y54000000D01*
X2000000Y54000000D01*
X1739000Y53983000D01*
X63218000Y53587000D02*
X63000000Y53732000D01*
X62765000Y53848000D01*
X62518000Y53932000D01*
X1739000Y53983000D02*
X1482000Y53932000D01*
X1235000Y53848000D01*
X1000000Y53732000D01*
X782000Y53587000D01*
X586000Y53414000D01*
X413000Y53218000D01*
X268000Y53000000D01*
X152000Y52765000D01*
X68000Y52518000D01*
X17000Y52261000D01*
X0Y52000000D01*
X0Y2000000D01*
X17000Y1739000D01*
X68000Y1482000D01*
X152000Y1235000D01*
X268000Y1000000D01*
X413000Y782000D01*
X586000Y586000D01*
X782000Y413000D01*
X1000000Y268000D01*
X1235000Y152000D01*
X1482000Y68000D01*
X1739000Y17000D01*
X2000000Y0D01*
X62000000Y0D01*
M02*
