G04 start of page 2 for group 4 layer_idx 3 *
G04 Title: (unknown), top_silk *
G04 Creator: pcb-rnd 3.1.7b *
G04 CreationDate: 2026-08-02 13:36:58 UTC *
G04 For: Dad *
G04 Format: Gerber/RS-274X *
G04 PCB-Dimensions: 64000000 54000000 *
G04 PCB-Coordinate-Origin: lower left *
%MOMM*%
%FSLAX46Y46*%
%LNTOP_SILK_NONE_4*%
%ADD44C,0.250000*%
G54D44*
X22700000Y52080000D02*
X24000000Y50780000D01*
X25300000Y52080000D02*
X24000000Y50780000D01*
X25925000Y50630000D02*
X25925000Y49130000D01*
X28400000Y50630000D02*
X27500000Y50630000D01*
X27500000Y49130000D01*
X28400000Y49130000D01*
X27500000Y49880000D02*
X28100000Y49880000D01*
X29075000Y49130000D02*
X29075000Y50630000D01*
X29675000Y50630000D01*
X30950000Y50630000D02*
X31250000Y50630000D01*
X29675000Y50630000D02*
X29975000Y50330000D01*
X30950000Y49880000D02*
X30650000Y50330000D01*
X30950000Y50630000D01*
X30950000Y49880000D02*
X30650000Y49430000D01*
X31250000Y50630000D02*
X31550000Y50330000D01*
X31250000Y49880000D01*
X30950000Y49880000D01*
X30650000Y49430000D02*
X30950000Y49130000D01*
X31250000Y49130000D01*
X31550000Y49430000D01*
X31250000Y49880000D01*
X29975000Y50330000D02*
X29975000Y49430000D01*
X29675000Y49130000D01*
X29075000Y49130000D01*
X24800000Y43600000D02*
X23200000Y43600000D01*
X25925000Y49130000D02*
X26825000Y49130000D01*
X22913000Y41950000D02*
X23212000Y42250000D01*
X23212000Y40750000D01*
X24337000Y41950000D02*
X24637000Y42250000D01*
X31493000Y41378000D02*
X30107000Y42178000D01*
X36178000Y36107000D02*
X35378000Y37493000D01*
X24637000Y42250000D02*
X24938000Y42250000D01*
X25238000Y41950000D01*
X25238000Y41650000D01*
X24337000Y40750000D01*
X25238000Y40750000D01*
X44284000Y37275000D02*
X43384000Y37275000D01*
X43384000Y36525000D02*
X43984000Y36525000D01*
X44959000Y37275000D02*
X45559000Y37275000D01*
X45859000Y36975000D01*
X46684000Y36975000D02*
X46984000Y37275000D01*
X48109000Y36975000D02*
X48409000Y37275000D01*
X48709000Y37275000D01*
X49009000Y36975000D01*
X49009000Y36675000D01*
X50750000Y41450000D02*
X50450000Y41750000D01*
X50450000Y41000000D02*
X50750000Y40850000D01*
X50750000Y40550000D01*
X50450000Y40250000D01*
X50150000Y40250000D01*
X49850000Y40550000D01*
X50450000Y41750000D02*
X50150000Y41750000D01*
X51425000Y41450000D02*
X51725000Y41750000D01*
X52025000Y41750000D01*
X52325000Y41450000D01*
X52325000Y41150000D01*
X51425000Y40250000D01*
X52325000Y40250000D01*
X50150000Y41750000D02*
X49850000Y41450000D01*
X49850000Y41150000D02*
X50150000Y41000000D01*
X50450000Y41000000D01*
X49850000Y41450000D02*
X49850000Y41150000D01*
X22852000Y40750000D02*
X23573000Y40750000D01*
X34990000Y44259000D02*
X34990000Y42759000D01*
X35890000Y42759000D01*
X37465000Y44259000D02*
X36565000Y44259000D01*
X36565000Y42759000D01*
X37465000Y42759000D01*
X36565000Y43509000D02*
X37165000Y43509000D01*
X38140000Y42759000D02*
X38140000Y44259000D01*
X38740000Y44259000D01*
X39715000Y44259000D02*
X40615000Y44259000D01*
X38740000Y44259000D02*
X39040000Y43959000D01*
X39040000Y43059000D01*
X38740000Y42759000D01*
X38140000Y42759000D01*
X40615000Y44259000D02*
X40015000Y42759000D01*
X9012000Y47975000D02*
X8713000Y48275000D01*
X53712000Y48275000D02*
X53413000Y47975000D01*
X53413000Y47075000D01*
X54312000Y47975000D02*
X54012000Y48275000D01*
X53712000Y48275000D01*
X54312000Y47075000D02*
X54312000Y47375000D01*
X54012000Y47375000D01*
X53413000Y47075000D02*
X53712000Y46775000D01*
X54012000Y46775000D01*
X54312000Y47075000D01*
X55707000Y46775000D02*
X55707000Y48275000D01*
X54987000Y47225000D01*
X55887000Y47225000D01*
X8713000Y48275000D02*
X8412000Y48275000D01*
X9688000Y48275000D02*
X10588000Y48275000D01*
X10137000Y47675000D01*
X10588000Y47375000D01*
X10588000Y47075000D01*
X10287000Y46775000D01*
X9988000Y46775000D01*
X9688000Y47075000D01*
X8412000Y48275000D02*
X8112000Y47975000D01*
X8112000Y47075000D01*
X8412000Y46775000D01*
X8713000Y46775000D01*
X9012000Y47075000D01*
X9012000Y47375000D01*
X8713000Y47375000D01*
X7385000Y44259000D02*
X7385000Y42759000D01*
X8285000Y42759000D01*
X8960000Y42759000D02*
X9860000Y42759000D01*
X9860000Y44259000D02*
X8960000Y44259000D01*
X8960000Y43509000D02*
X9560000Y43509000D01*
X10535000Y44259000D02*
X11135000Y44259000D01*
X10535000Y42759000D02*
X10535000Y44259000D01*
X11135000Y44259000D02*
X11435000Y43959000D01*
X11435000Y43059000D01*
X11135000Y42759000D01*
X10535000Y42759000D01*
X12830000Y42759000D02*
X12830000Y44259000D01*
X12110000Y43209000D01*
X13010000Y43209000D01*
X8960000Y44259000D02*
X8960000Y42759000D01*
X35050000Y30750000D02*
X35950000Y30750000D01*
X35500000Y30150000D01*
X35950000Y29850000D01*
X37600000Y29200000D02*
X37600000Y30800000D01*
X35950000Y29850000D02*
X35950000Y29550000D01*
X35650000Y29250000D01*
X35350000Y29250000D01*
X35050000Y29550000D01*
X24637000Y29150000D02*
X24938000Y29150000D01*
X24337000Y28850000D02*
X24637000Y29150000D01*
X24938000Y29150000D02*
X25238000Y28850000D01*
X26213000Y29150000D02*
X26513000Y29150000D01*
X26213000Y28400000D02*
X25913000Y28850000D01*
X26213000Y29150000D01*
X26513000Y29150000D02*
X26812000Y28850000D01*
X26513000Y28400000D01*
X26213000Y28400000D01*
X29363000Y29150000D02*
X29663000Y29150000D01*
X29963000Y28850000D01*
X29963000Y27950000D01*
X29663000Y27650000D01*
X29363000Y27650000D01*
X29062000Y27950000D01*
X29062000Y28850000D01*
X29363000Y29150000D01*
X30788000Y28850000D02*
X31088000Y29150000D01*
X31088000Y27650000D01*
X30727000Y27650000D02*
X31448000Y27650000D01*
X26213000Y28400000D02*
X25913000Y27950000D01*
X27637000Y28400000D02*
X28238000Y28400000D01*
X25913000Y27950000D02*
X26213000Y27650000D01*
X26513000Y27650000D01*
X26812000Y27950000D01*
X26513000Y28400000D01*
X25238000Y28850000D02*
X25238000Y27950000D01*
X24938000Y27650000D01*
X24637000Y27650000D01*
X24337000Y27950000D01*
X24337000Y28850000D01*
X24450000Y18950000D02*
X24150000Y19250000D01*
X23850000Y19250000D01*
X23550000Y18950000D01*
X23550000Y18050000D01*
X23850000Y17750000D01*
X24450000Y18050000D02*
X24450000Y18350000D01*
X24150000Y18650000D01*
X23850000Y18650000D01*
X23550000Y18350000D01*
X23200000Y16400000D02*
X24800000Y16400000D01*
X23850000Y17750000D02*
X24150000Y17750000D01*
X24450000Y18050000D01*
X25875000Y2375000D02*
X25575000Y2675000D01*
X25575000Y1925000D02*
X25875000Y1775000D01*
X25275000Y1175000D02*
X24975000Y1475000D01*
X26550000Y2675000D02*
X26790000Y1175000D01*
X25875000Y1775000D02*
X25875000Y1475000D01*
X25575000Y1175000D01*
X25275000Y1175000D01*
X26790000Y1175000D02*
X27000000Y2075000D01*
X27210000Y1175000D01*
X27450000Y2675000D01*
X28575000Y2675000D02*
X28575000Y1175000D01*
X28215000Y1175000D02*
X28935000Y1175000D01*
X25575000Y2675000D02*
X25275000Y2675000D01*
X28275000Y2375000D02*
X28575000Y2675000D01*
X25275000Y2675000D02*
X24975000Y2375000D01*
X24975000Y2075000D02*
X25275000Y1925000D01*
X25575000Y1925000D01*
X24975000Y2375000D02*
X24975000Y2075000D01*
X35378000Y22507000D02*
X36178000Y23893000D01*
X30107000Y17822000D02*
X31493000Y18622000D01*
X37465000Y17241000D02*
X36565000Y17241000D01*
X36565000Y16491000D02*
X37165000Y16491000D01*
X16507000Y18622000D02*
X17893000Y17822000D01*
X19325000Y8825000D02*
X19925000Y8825000D01*
X20225000Y8525000D01*
X20900000Y8525000D02*
X21200000Y8825000D01*
X21500000Y8825000D01*
X21800000Y8525000D01*
X25925000Y10870000D02*
X25925000Y9370000D01*
X22475000Y8825000D02*
X23075000Y8825000D01*
X23375000Y8525000D01*
X24200000Y8525000D02*
X24500000Y8825000D01*
X26062000Y8850000D02*
X26363000Y8850000D01*
X26663000Y8550000D01*
X25762000Y8550000D02*
X26062000Y8850000D01*
X26663000Y8550000D02*
X26663000Y7650000D01*
X26363000Y7350000D01*
X26062000Y7350000D01*
X25762000Y7650000D01*
X25762000Y8550000D01*
X25925000Y9370000D02*
X26825000Y9370000D01*
X27337000Y7350000D02*
X27337000Y8850000D01*
X28400000Y10870000D02*
X27500000Y10870000D01*
X27500000Y9370000D01*
X28400000Y9370000D01*
X27500000Y10120000D02*
X28100000Y10120000D01*
X34990000Y17241000D02*
X34990000Y15741000D01*
X35890000Y15741000D01*
X36565000Y17241000D02*
X36565000Y15741000D01*
X29075000Y9370000D02*
X29075000Y10870000D01*
X29675000Y10870000D01*
X29975000Y10570000D01*
X30650000Y10570000D02*
X30950000Y10870000D01*
X31250000Y10870000D01*
X31550000Y10570000D01*
X31550000Y10270000D01*
X30650000Y9370000D01*
X31550000Y9370000D01*
X29975000Y10570000D02*
X29975000Y9670000D01*
X29675000Y9370000D01*
X29075000Y9370000D01*
X36565000Y15741000D02*
X37465000Y15741000D01*
X38140000Y15741000D02*
X38140000Y17241000D01*
X38740000Y17241000D01*
X38740000Y15741000D02*
X38140000Y15741000D01*
X38740000Y17241000D02*
X39040000Y16941000D01*
X41590000Y17241000D02*
X41890000Y17241000D01*
X42190000Y16941000D01*
X41290000Y16941000D02*
X41590000Y17241000D01*
X39040000Y16941000D02*
X39040000Y16041000D01*
X38740000Y15741000D01*
X39865000Y16941000D02*
X40165000Y17241000D01*
X40165000Y15741000D01*
X39805000Y15741000D02*
X40525000Y15741000D01*
X42190000Y16941000D02*
X42190000Y16041000D01*
X41890000Y15741000D01*
X41590000Y15741000D01*
X41290000Y16041000D01*
X41290000Y16941000D01*
X27337000Y8850000D02*
X28238000Y7350000D01*
X28238000Y8850000D01*
X54263000Y10975000D02*
X54263000Y10075000D01*
X54562000Y9775000D01*
X55163000Y10975000D02*
X54862000Y11275000D01*
X54562000Y11275000D01*
X54263000Y10975000D01*
X55837000Y10975000D02*
X56138000Y11275000D01*
X56438000Y11275000D01*
X56737000Y10975000D01*
X56737000Y10675000D01*
X54562000Y9775000D02*
X54862000Y9775000D01*
X55163000Y10075000D01*
X56862000Y15075000D02*
X56562000Y15075000D01*
X56263000Y14775000D01*
X56263000Y14475000D01*
X57163000Y14775000D02*
X56862000Y15075000D01*
X57987000Y14775000D02*
X58288000Y15075000D01*
X58288000Y13575000D01*
X57928000Y13575000D02*
X58648000Y13575000D01*
X55163000Y10075000D02*
X55163000Y10375000D01*
X56737000Y10675000D02*
X55837000Y9775000D01*
X56737000Y9775000D01*
X56263000Y14475000D02*
X56562000Y14325000D01*
X56862000Y14325000D01*
X57163000Y14175000D01*
X57163000Y13875000D02*
X56862000Y13575000D01*
X56562000Y13575000D01*
X56263000Y13875000D01*
X57163000Y14175000D02*
X57163000Y13875000D01*
X55163000Y10375000D02*
X54862000Y10375000D01*
X16000000Y6550000D02*
X16000000Y7450000D01*
X19325000Y7325000D02*
X19325000Y8825000D01*
X19925000Y7925000D02*
X19325000Y7925000D01*
X20225000Y8525000D02*
X20225000Y8225000D01*
X19925000Y7925000D01*
X20900000Y7325000D02*
X20900000Y8525000D01*
X21800000Y8525000D02*
X21800000Y7325000D01*
X20900000Y7925000D02*
X21800000Y7925000D01*
X22475000Y7325000D02*
X22475000Y8825000D01*
X23375000Y8525000D02*
X23375000Y7625000D01*
X24500000Y8825000D02*
X24500000Y7325000D01*
X23375000Y7625000D02*
X23075000Y7325000D01*
X22475000Y7325000D01*
X24140000Y7325000D02*
X24860000Y7325000D01*
X5650000Y9375000D02*
X5350000Y9675000D01*
X5050000Y9675000D01*
X4750000Y9375000D01*
X4750000Y8475000D01*
X5050000Y8175000D01*
X5350000Y8175000D01*
X5650000Y8475000D01*
X5650000Y8775000D01*
X5350000Y8775000D01*
X6475000Y9375000D02*
X6775000Y9675000D01*
X6775000Y8175000D01*
X8988000Y7925000D02*
X8988000Y9425000D01*
X9588000Y9425000D01*
X9588000Y8525000D02*
X8988000Y8525000D01*
X9588000Y9425000D02*
X9888000Y9125000D01*
X9888000Y8825000D01*
X9588000Y8525000D01*
X10562000Y7925000D02*
X10562000Y9125000D01*
X10863000Y9425000D01*
X10562000Y8525000D02*
X11463000Y8525000D01*
X10863000Y9425000D02*
X11163000Y9425000D01*
X12138000Y9425000D02*
X12738000Y9425000D01*
X13038000Y9125000D01*
X13713000Y9125000D02*
X14013000Y9425000D01*
X14313000Y9425000D01*
X14613000Y9125000D01*
X14613000Y8825000D01*
X11163000Y9425000D02*
X11463000Y9125000D01*
X11463000Y7925000D01*
X12138000Y7925000D02*
X12138000Y9425000D01*
X13038000Y9125000D02*
X13038000Y8225000D01*
X12738000Y7925000D01*
X12138000Y7925000D01*
X14613000Y8825000D02*
X13713000Y7925000D01*
X14613000Y7925000D01*
X6415000Y8175000D02*
X7135000Y8175000D01*
X7385000Y17241000D02*
X7385000Y15741000D01*
X8285000Y15741000D01*
X8960000Y17241000D02*
X8960000Y15741000D01*
X9860000Y17241000D02*
X8960000Y17241000D01*
X8960000Y15741000D02*
X9860000Y15741000D01*
X8960000Y16491000D02*
X9560000Y16491000D01*
X10535000Y15741000D02*
X10535000Y17241000D01*
X11135000Y17241000D01*
X11435000Y16941000D01*
X12260000Y16941000D02*
X12560000Y17241000D01*
X12560000Y15741000D01*
X12200000Y15741000D02*
X12920000Y15741000D01*
X11435000Y16941000D02*
X11435000Y16041000D01*
X11135000Y15741000D01*
X10535000Y15741000D01*
X15700000Y7000000D02*
X16300000Y7000000D01*
X9700000Y7000000D02*
X10300000Y7000000D01*
X5095000Y25650000D02*
X5095000Y24150000D01*
X5995000Y24150000D01*
X7570000Y25650000D02*
X6670000Y25650000D01*
X6670000Y24150000D01*
X7570000Y24150000D01*
X6670000Y24900000D02*
X7270000Y24900000D01*
X11822000Y23893000D02*
X12622000Y22507000D01*
X41809000Y24225000D02*
X41809000Y22725000D01*
X42709000Y22725000D01*
X43384000Y24225000D02*
X43384000Y22725000D01*
X44284000Y24225000D02*
X43384000Y24225000D01*
X43384000Y23475000D02*
X43984000Y23475000D01*
X44959000Y24225000D02*
X45559000Y24225000D01*
X45859000Y23925000D01*
X47134000Y24225000D02*
X46834000Y24225000D01*
X46534000Y23925000D01*
X46534000Y23625000D01*
X54200000Y24470000D02*
X53900000Y24170000D01*
X53900000Y23270000D01*
X47434000Y23925000D02*
X47134000Y24225000D01*
X47134000Y23325000D02*
X47434000Y23625000D01*
X46534000Y23625000D02*
X46834000Y23325000D01*
X47134000Y23325000D01*
X43384000Y22725000D02*
X44284000Y22725000D01*
X45559000Y22725000D02*
X44959000Y22725000D01*
X44959000Y24225000D01*
X45859000Y23925000D02*
X45859000Y23025000D01*
X47434000Y23025000D02*
X47434000Y23925000D01*
X45859000Y23025000D02*
X45559000Y22725000D01*
X46534000Y23025000D02*
X46834000Y22725000D01*
X47134000Y22725000D01*
X47434000Y23025000D01*
X8245000Y24150000D02*
X8245000Y25650000D01*
X8845000Y25650000D01*
X9145000Y25350000D01*
X10720000Y25350000D02*
X10420000Y25650000D01*
X10120000Y25650000D01*
X9820000Y25350000D01*
X9145000Y25350000D02*
X9145000Y24450000D01*
X8845000Y24150000D01*
X8245000Y24150000D01*
X9820000Y25350000D02*
X9820000Y24450000D01*
X10120000Y24150000D01*
X10720000Y24750000D02*
X10420000Y25050000D01*
X10120000Y25050000D01*
X9820000Y24750000D01*
X10120000Y24150000D02*
X10420000Y24150000D01*
X10720000Y24450000D01*
X10720000Y24750000D01*
X54800000Y24170000D02*
X54500000Y24470000D01*
X54200000Y24470000D01*
X53900000Y23270000D02*
X54200000Y22970000D01*
X54500000Y22970000D01*
X54800000Y23270000D01*
X55475000Y22970000D02*
X55475000Y24170000D01*
X55775000Y24470000D01*
X55475000Y23570000D02*
X56375000Y23570000D01*
X55775000Y24470000D02*
X56075000Y24470000D01*
X57050000Y24470000D02*
X57950000Y24470000D01*
X59525000Y24170000D02*
X59225000Y24470000D01*
X58925000Y24470000D01*
X58625000Y24170000D01*
X56075000Y24470000D02*
X56375000Y24170000D01*
X56375000Y22970000D01*
X57500000Y24470000D02*
X57500000Y22970000D01*
X58625000Y24170000D02*
X58625000Y23270000D01*
X58925000Y22970000D01*
X59225000Y22970000D01*
X59525000Y23270000D01*
X60200000Y24470000D02*
X60200000Y22970000D01*
X61100000Y24470000D02*
X61100000Y22970000D01*
X60200000Y23720000D02*
X61100000Y23720000D01*
X10400000Y30800000D02*
X10400000Y29200000D01*
X12350000Y30750000D02*
X12050000Y30450000D01*
X12050000Y30150000D01*
X12050000Y29550000D02*
X12350000Y29250000D01*
X12950000Y30450000D02*
X12650000Y30750000D01*
X12350000Y30750000D01*
X12050000Y30150000D02*
X12350000Y29850000D01*
X12650000Y29850000D01*
X12950000Y30150000D01*
X52275000Y29250000D02*
X52275000Y30750000D01*
X52875000Y30750000D01*
X53850000Y30750000D02*
X54750000Y30750000D01*
X55575000Y30450000D02*
X55875000Y30750000D01*
X52875000Y30750000D02*
X53175000Y30450000D01*
X53175000Y30300000D02*
X52875000Y30000000D01*
X52275000Y30000000D01*
X52875000Y30000000D02*
X53175000Y29700000D01*
X53175000Y29550000D01*
X52875000Y29250000D01*
X52275000Y29250000D01*
X54750000Y30750000D02*
X53850000Y29250000D01*
X54750000Y29250000D01*
X55875000Y30750000D02*
X55875000Y29250000D01*
X55515000Y29250000D02*
X56235000Y29250000D01*
X53175000Y30450000D02*
X53175000Y30300000D01*
X12350000Y29250000D02*
X12650000Y29250000D01*
X12950000Y29550000D01*
X12950000Y30450000D01*
X18337000Y32950000D02*
X18637000Y32950000D01*
X18938000Y32650000D01*
X18938000Y31750000D01*
X18637000Y31450000D01*
X18337000Y31450000D01*
X18038000Y31750000D01*
X16762000Y29150000D02*
X17062000Y29150000D01*
X17363000Y28850000D01*
X18038000Y28850000D02*
X18337000Y29150000D01*
X16462000Y28850000D02*
X16762000Y29150000D01*
X17363000Y28850000D02*
X17363000Y28550000D01*
X16462000Y27650000D01*
X17363000Y27650000D01*
X18337000Y29150000D02*
X18637000Y29150000D01*
X22088000Y28850000D02*
X21788000Y29150000D01*
X21488000Y29150000D01*
X21188000Y28850000D01*
X18637000Y29150000D02*
X18938000Y28850000D01*
X19613000Y28850000D02*
X19913000Y29150000D01*
X20213000Y29150000D01*
X20512000Y28850000D01*
X20512000Y28550000D01*
X19613000Y27650000D01*
X20512000Y27650000D01*
X21188000Y28850000D02*
X21188000Y27950000D01*
X21488000Y27650000D01*
X21488000Y28550000D02*
X21188000Y28250000D01*
X21488000Y27650000D02*
X21788000Y27650000D01*
X22088000Y27950000D01*
X22088000Y28250000D01*
X21788000Y28550000D01*
X21488000Y28550000D01*
X22913000Y28400000D02*
X23513000Y28400000D01*
X18938000Y28850000D02*
X18938000Y27950000D01*
X18038000Y27950000D02*
X18038000Y28850000D01*
X18938000Y27950000D02*
X18637000Y27650000D01*
X18337000Y27650000D01*
X18038000Y27950000D01*
X18038000Y31750000D02*
X18038000Y32650000D01*
X4098000Y33425000D02*
X4098000Y31925000D01*
X4998000Y31925000D01*
X6572000Y33425000D02*
X5673000Y33425000D01*
X5673000Y31925000D01*
X6572000Y31925000D01*
X5673000Y32675000D02*
X6272000Y32675000D01*
X18038000Y32650000D02*
X18337000Y32950000D01*
X19613000Y32950000D02*
X20212000Y32950000D01*
X20212000Y32050000D02*
X19613000Y32050000D01*
X7248000Y31925000D02*
X7248000Y33425000D01*
X7848000Y33425000D01*
X9723000Y33425000D02*
X8823000Y33425000D01*
X7848000Y33425000D02*
X8148000Y33125000D01*
X8823000Y33425000D02*
X8823000Y32825000D01*
X9423000Y32825000D01*
X9723000Y32525000D01*
X9723000Y32225000D01*
X9423000Y31925000D01*
X9123000Y31925000D01*
X8823000Y32225000D01*
X8148000Y33125000D02*
X8148000Y32225000D01*
X7848000Y31925000D01*
X7248000Y31925000D01*
X20212000Y32950000D02*
X20512000Y32650000D01*
X20512000Y32350000D01*
X20212000Y32050000D01*
X19613000Y31450000D02*
X19613000Y32950000D01*
X20152000Y32050000D02*
X20512000Y31450000D01*
X21188000Y32950000D02*
X21788000Y32950000D01*
X21788000Y32200000D02*
X21188000Y32200000D01*
X21788000Y31450000D02*
X21188000Y31450000D01*
X21188000Y32950000D01*
X21788000Y32950000D02*
X22087000Y32650000D01*
X22087000Y32500000D01*
X22087000Y31750000D02*
X21788000Y31450000D01*
X22087000Y32500000D02*
X21788000Y32200000D01*
X22087000Y31900000D01*
X22087000Y31750000D01*
X22762000Y32950000D02*
X23663000Y32950000D01*
X23212000Y32950000D02*
X23212000Y31450000D01*
X22762000Y31450000D02*
X23663000Y31450000D01*
X24337000Y32950000D02*
X25238000Y32950000D01*
X24788000Y32950000D02*
X24788000Y31450000D01*
X27488000Y32950000D02*
X27938000Y31450000D01*
X28388000Y32950000D01*
X29212000Y32650000D02*
X29512000Y32950000D01*
X29512000Y31450000D01*
X29152000Y31450000D02*
X29873000Y31450000D01*
X37490000Y33425000D02*
X37490000Y31925000D01*
X38390000Y31925000D01*
X39065000Y31925000D02*
X39965000Y31925000D01*
X39965000Y33425000D02*
X39065000Y33425000D01*
X39065000Y32675000D02*
X39665000Y32675000D01*
X40640000Y33425000D02*
X41240000Y33425000D01*
X40640000Y31925000D02*
X40640000Y33425000D01*
X41240000Y33425000D02*
X41540000Y33125000D01*
X41540000Y32225000D01*
X41240000Y31925000D01*
X40640000Y31925000D01*
X42365000Y33125000D02*
X42665000Y33425000D01*
X42665000Y31925000D01*
X42305000Y31925000D02*
X43025000Y31925000D01*
X43880000Y31925000D02*
X44600000Y31925000D01*
X43940000Y33125000D02*
X44240000Y33425000D01*
X44240000Y31925000D01*
X39065000Y33425000D02*
X39065000Y31925000D01*
X12622000Y37493000D02*
X11822000Y36107000D01*
X17893000Y42178000D02*
X16507000Y41378000D01*
X41809000Y37275000D02*
X41809000Y35775000D01*
X42709000Y35775000D01*
X43384000Y37275000D02*
X43384000Y35775000D01*
X44284000Y35775000D01*
X44959000Y35775000D02*
X44959000Y37275000D01*
X45859000Y36975000D02*
X45859000Y36075000D01*
X45559000Y35775000D02*
X44959000Y35775000D01*
X53900000Y36730000D02*
X53900000Y36430000D01*
X45859000Y36075000D02*
X45559000Y35775000D01*
X46984000Y37275000D02*
X46984000Y35775000D01*
X46624000Y35775000D02*
X47344000Y35775000D01*
X49009000Y36675000D02*
X48109000Y35775000D01*
X49009000Y35775000D01*
X54500000Y37030000D02*
X54200000Y37030000D01*
X53900000Y36730000D01*
X53900000Y36430000D02*
X54200000Y36280000D01*
X54800000Y36730000D02*
X54500000Y37030000D01*
X54200000Y36280000D02*
X54500000Y36280000D01*
X55475000Y37030000D02*
X56375000Y37030000D01*
X55925000Y37030000D02*
X55925000Y35530000D01*
X57050000Y35530000D02*
X57050000Y36730000D01*
X57350000Y37030000D01*
X57050000Y36130000D02*
X57950000Y36130000D01*
X57350000Y37030000D02*
X57650000Y37030000D01*
X58625000Y37030000D02*
X59225000Y37030000D01*
X59225000Y36130000D02*
X58625000Y36130000D01*
X59225000Y37030000D02*
X59525000Y36730000D01*
X59525000Y36430000D01*
X59225000Y36130000D01*
X59165000Y36130000D02*
X59525000Y35530000D01*
X60200000Y37030000D02*
X61100000Y37030000D01*
X60650000Y37030000D02*
X60650000Y35530000D01*
X57650000Y37030000D02*
X57950000Y36730000D01*
X57950000Y35530000D01*
X58625000Y35530000D02*
X58625000Y37030000D01*
X54500000Y36280000D02*
X54800000Y36130000D01*
X54800000Y35830000D01*
X54500000Y35530000D01*
X54200000Y35530000D02*
X53900000Y35830000D01*
X5095000Y35850000D02*
X5095000Y34350000D01*
X5995000Y34350000D01*
X6670000Y35850000D02*
X6670000Y34350000D01*
X7570000Y34350000D01*
X6670000Y35100000D02*
X7270000Y35100000D01*
X54500000Y35530000D02*
X54200000Y35530000D01*
X7570000Y35850000D02*
X6670000Y35850000D01*
X8245000Y35850000D02*
X8845000Y35850000D01*
X9145000Y35550000D01*
X9820000Y35850000D02*
X10720000Y35850000D01*
X8245000Y34350000D02*
X8245000Y35850000D01*
X9145000Y35550000D02*
X9145000Y34650000D01*
X10720000Y35850000D02*
X10270000Y35250000D01*
X10720000Y34950000D01*
X10720000Y34650000D01*
X10420000Y34350000D01*
X10120000Y34350000D01*
X9820000Y34650000D01*
X9145000Y34650000D02*
X8845000Y34350000D01*
X8245000Y34350000D01*
M02*
