G04 start of page 2 for group 2 layer_idx 1 *
G04 Title: (unknown), bottom_copper *
G04 Creator: pcb-rnd 3.1.7b *
G04 CreationDate: 2026-08-02 08:38:31 UTC *
G04 For: Dad *
G04 Format: Gerber/RS-274X *
G04 PCB-Dimensions: 64000000 54000000 *
G04 PCB-Coordinate-Origin: lower left *
%MOMM*%
%FSLAX46Y46*%
%LNBOTTOM_COPPER_NONE_2*%
%ADD33C,1.500000*%
%ADD32C,1.000000*%
%ADD31C,3.400000*%
%ADD30C,1.800000*%
%ADD29C,3.300000*%
%ADD28C,3.600000*%
%ADD27C,2.500000*%
%ADD26C,0.600000*%
%ADD25C,0.800000*%
%ADD24C,0.620000*%
%ADD23C,1.700000*%
%ADD22C,0.002000*%
G54D22*
G36*
X22880000Y17130626D02*
X22880000Y16136457D01*
X22878705Y16120000D01*
X22883887Y16054146D01*
X22883890Y16054095D01*
X22899323Y15989812D01*
X22924622Y15928735D01*
X22959164Y15872368D01*
X23002098Y15822098D01*
X23019146Y15807538D01*
X23015371Y15805225D01*
X22815490Y15634510D01*
X22644775Y15434629D01*
X22507430Y15210503D01*
X22406837Y14967650D01*
X22345473Y14712051D01*
X22324849Y14450000D01*
X22345473Y14187949D01*
X22406837Y13932350D01*
X22507430Y13689497D01*
X22644775Y13465371D01*
X22815490Y13265490D01*
X23015371Y13094775D01*
X23239497Y12957430D01*
X23354003Y12910000D01*
X23239497Y12862570D01*
X23015371Y12725225D01*
X22815490Y12554510D01*
X22644775Y12354629D01*
X22507430Y12130503D01*
X22406837Y11887650D01*
X22345473Y11632051D01*
X22324849Y11370000D01*
X22345473Y11107949D01*
X22406837Y10852350D01*
X22507430Y10609497D01*
X22644775Y10385371D01*
X22700607Y10320000D01*
X22172146Y10320000D01*
X22140000Y10322530D01*
X22107854Y10320000D01*
X21206457Y10320000D01*
X21190000Y10321295D01*
X21124095Y10316109D01*
X21059813Y10300676D01*
X20998736Y10275377D01*
X20942369Y10240835D01*
X20892099Y10197901D01*
X20849165Y10147631D01*
X20814623Y10091264D01*
X20789324Y10030187D01*
X20773891Y9965905D01*
X20768705Y9900000D01*
X20770000Y9883543D01*
X20770000Y9116457D01*
X20768705Y9100000D01*
X20773891Y9034095D01*
X20789324Y8969813D01*
X20814623Y8908736D01*
X20849165Y8852369D01*
X20892099Y8802099D01*
X20942369Y8759165D01*
X20998736Y8724623D01*
X21059813Y8699324D01*
X21124095Y8683891D01*
X21190000Y8678705D01*
X21206457Y8680000D01*
X21319999Y8680000D01*
X21319999Y6900879D01*
X21197341Y6850072D01*
X20919532Y6679830D01*
X20671775Y6468225D01*
X20460170Y6220468D01*
X20289928Y5942659D01*
X20165241Y5641638D01*
X20089179Y5324818D01*
X20063616Y5000000D01*
X20089179Y4675182D01*
X20165241Y4358362D01*
X20289928Y4057341D01*
X20460170Y3779532D01*
X20671775Y3531775D01*
X20919532Y3320170D01*
X21197341Y3149928D01*
X21269591Y3120001D01*
X18550687Y3120001D01*
X18550687Y7730000D01*
X18825001Y7730000D01*
X18857954Y7731945D01*
X18890095Y7739661D01*
X18920634Y7752311D01*
X18948818Y7769582D01*
X18973953Y7791049D01*
X18995420Y7816184D01*
X19012691Y7844368D01*
X19025341Y7874907D01*
X19033057Y7907048D01*
X19035651Y7940001D01*
X19033057Y7972954D01*
X19025341Y8005095D01*
X19012691Y8035634D01*
X18995420Y8063818D01*
X18973953Y8088953D01*
X18948818Y8110420D01*
X18920634Y8127691D01*
X18890095Y8140341D01*
X18857954Y8148057D01*
X18825052Y8150000D01*
X19454948Y8150000D01*
X19422046Y8148056D01*
X19389905Y8140340D01*
X19359366Y8127690D01*
X19331183Y8110419D01*
X19306048Y8088952D01*
X19284581Y8063817D01*
X19267310Y8035634D01*
X19254660Y8005095D01*
X19246944Y7972954D01*
X19244350Y7940001D01*
X19246944Y7907048D01*
X19254660Y7874907D01*
X19267310Y7844368D01*
X19284581Y7816185D01*
X19306048Y7791050D01*
X19331183Y7769583D01*
X19359366Y7752312D01*
X19389905Y7739662D01*
X19422046Y7731946D01*
X19454999Y7730000D01*
X20073568Y7730000D01*
X20090000Y7728707D01*
X20155905Y7733893D01*
X20220187Y7749326D01*
X20281263Y7774625D01*
X20337630Y7809166D01*
X20387899Y7852101D01*
X20430834Y7902370D01*
X20465375Y7958737D01*
X20490674Y8019813D01*
X20506107Y8084095D01*
X20508052Y8117039D01*
X20508054Y8117047D01*
X20510000Y8150000D01*
X20510000Y8235001D01*
X20508055Y8267954D01*
X20500339Y8300095D01*
X20487689Y8330634D01*
X20470418Y8358818D01*
X20448951Y8383953D01*
X20425163Y8404269D01*
X20387899Y8447899D01*
X20337630Y8490834D01*
X20281263Y8525375D01*
X20221814Y8550000D01*
X20281263Y8574625D01*
X20337630Y8609166D01*
X20387899Y8652101D01*
X20425169Y8695738D01*
X20448950Y8716048D01*
X20470417Y8741183D01*
X20487688Y8769366D01*
X20500338Y8799905D01*
X20508054Y8832046D01*
X20510000Y8864999D01*
X20510000Y8950000D01*
X20508055Y8982953D01*
X20508052Y8982967D01*
X20506107Y9015905D01*
X20490674Y9080187D01*
X20465375Y9141263D01*
X20430834Y9197630D01*
X20387899Y9247899D01*
X20337630Y9290834D01*
X20281263Y9325375D01*
X20220187Y9350674D01*
X20155905Y9366107D01*
X20090000Y9371293D01*
X20073568Y9370000D01*
X19454999Y9370000D01*
X19422046Y9368055D01*
X19389905Y9360339D01*
X19359366Y9347689D01*
X19331182Y9330418D01*
X19306047Y9308951D01*
X19284580Y9283816D01*
X19267309Y9255632D01*
X19254659Y9225093D01*
X19246943Y9192952D01*
X19244349Y9159999D01*
X19246943Y9127046D01*
X19254659Y9094905D01*
X19267309Y9064366D01*
X19284580Y9036182D01*
X19306047Y9011047D01*
X19331182Y8989580D01*
X19359366Y8972309D01*
X19389905Y8959659D01*
X19422046Y8951943D01*
X19454948Y8950000D01*
X18825052Y8950000D01*
X18857954Y8951944D01*
X18890095Y8959660D01*
X18920634Y8972310D01*
X18948817Y8989581D01*
X18973952Y9011048D01*
X18995419Y9036183D01*
X19012690Y9064366D01*
X19025340Y9094905D01*
X19033056Y9127046D01*
X19035650Y9159999D01*
X19033056Y9192952D01*
X19025340Y9225093D01*
X19012690Y9255632D01*
X18995419Y9283815D01*
X18973952Y9308950D01*
X18948817Y9330417D01*
X18920634Y9347688D01*
X18890095Y9360338D01*
X18857954Y9368054D01*
X18825001Y9370000D01*
X18550687Y9370000D01*
X18550687Y9630000D01*
X20073543Y9630000D01*
X20090000Y9628705D01*
X20155905Y9633891D01*
X20220187Y9649324D01*
X20281264Y9674623D01*
X20337631Y9709165D01*
X20387901Y9752099D01*
X20430835Y9802369D01*
X20465377Y9858736D01*
X20490676Y9919813D01*
X20506109Y9984095D01*
X20511295Y10050000D01*
X20510000Y10066457D01*
X20510000Y10833543D01*
X20511295Y10850000D01*
X20506109Y10915905D01*
X20490676Y10980187D01*
X20465377Y11041264D01*
X20430835Y11097631D01*
X20387901Y11147901D01*
X20337631Y11190835D01*
X20281264Y11225377D01*
X20220187Y11250676D01*
X20155905Y11266109D01*
X20090000Y11271295D01*
X20073543Y11270000D01*
X18550687Y11270000D01*
X18550687Y12801313D01*
X22880000Y17130626D01*
G37*
G36*
X18038384Y3120001D02*
X18117857Y3311866D01*
X18199431Y3651644D01*
X18220000Y4000000D01*
X18199431Y4348356D01*
X18117857Y4688134D01*
X17984135Y5010967D01*
X17801557Y5308908D01*
X17574619Y5574619D01*
X17308908Y5801557D01*
X17010967Y5984135D01*
X16949615Y6009548D01*
X17006224Y6028409D01*
X17144100Y6090546D01*
X17275797Y6164889D01*
X17400235Y6250830D01*
X17516399Y6347665D01*
X17623335Y6454601D01*
X17720170Y6570765D01*
X17806111Y6695203D01*
X17880454Y6826900D01*
X17942591Y6964776D01*
X17992014Y7107703D01*
X17999133Y7140171D01*
X18000864Y7173382D01*
X17997377Y7206455D01*
X17988760Y7238575D01*
X17975224Y7268952D01*
X17957103Y7296837D01*
X17934843Y7321544D01*
X17908992Y7342465D01*
X17880186Y7359084D01*
X17849135Y7370993D01*
X17816603Y7377897D01*
X17783392Y7379628D01*
X17750319Y7376141D01*
X17718199Y7367524D01*
X17687822Y7353988D01*
X17659937Y7335867D01*
X17635230Y7313607D01*
X17614309Y7287756D01*
X17597690Y7258950D01*
X17586406Y7227714D01*
X17550678Y7120478D01*
X17504216Y7017383D01*
X17448627Y6918909D01*
X17384366Y6825861D01*
X17311959Y6739002D01*
X17231998Y6659041D01*
X17145139Y6586634D01*
X17052091Y6522373D01*
X16953617Y6466784D01*
X16850522Y6420322D01*
X16743649Y6383367D01*
X16712605Y6372148D01*
X16683974Y6355630D01*
X16658280Y6334836D01*
X16636155Y6310279D01*
X16618144Y6282563D01*
X16604690Y6252371D01*
X16596125Y6220446D01*
X16592660Y6187574D01*
X16594380Y6154565D01*
X16597555Y6139603D01*
X16348356Y6199431D01*
X16184018Y6212365D01*
X16183141Y6220681D01*
X16174523Y6252802D01*
X16160988Y6283178D01*
X16142866Y6311064D01*
X16120606Y6335771D01*
X16094755Y6356692D01*
X16065949Y6373311D01*
X16034713Y6384594D01*
X15927477Y6420322D01*
X15824382Y6466784D01*
X15725908Y6522373D01*
X15632860Y6586634D01*
X15546001Y6659041D01*
X15466040Y6739002D01*
X15393633Y6825861D01*
X15329372Y6918909D01*
X15273783Y7017383D01*
X15227321Y7120478D01*
X15190366Y7227351D01*
X15179149Y7258395D01*
X15162631Y7287026D01*
X15141837Y7312720D01*
X15117280Y7334846D01*
X15089564Y7352857D01*
X15059372Y7366311D01*
X15027447Y7374876D01*
X14994575Y7378341D01*
X14961565Y7376621D01*
X14929231Y7369759D01*
X14898369Y7357923D01*
X14869738Y7341405D01*
X14844044Y7320611D01*
X14821918Y7296054D01*
X14819999Y7293101D01*
X14819999Y7868546D01*
X14820898Y7867163D01*
X14843159Y7842456D01*
X14869010Y7821535D01*
X14897815Y7804916D01*
X14928866Y7793008D01*
X14961397Y7786104D01*
X14994608Y7784374D01*
X15027681Y7787860D01*
X15059801Y7796477D01*
X15090178Y7810013D01*
X15118063Y7828134D01*
X15142770Y7850395D01*
X15163691Y7876246D01*
X15180310Y7905051D01*
X15191593Y7936287D01*
X15227321Y8043523D01*
X15273783Y8146618D01*
X15329372Y8245092D01*
X15393633Y8338140D01*
X15466040Y8424999D01*
X15546001Y8504960D01*
X15632860Y8577367D01*
X15725908Y8641628D01*
X15824382Y8697217D01*
X15927477Y8743679D01*
X16034350Y8780634D01*
X16065396Y8791851D01*
X16094027Y8808369D01*
X16119721Y8829163D01*
X16141846Y8853720D01*
X16159858Y8881437D01*
X16173311Y8911629D01*
X16181876Y8943554D01*
X16185341Y8976426D01*
X16183622Y9009436D01*
X16176759Y9041770D01*
X16164923Y9072632D01*
X16148405Y9101263D01*
X16127611Y9126957D01*
X16103054Y9149082D01*
X16075337Y9167094D01*
X16045145Y9180547D01*
X16013220Y9189112D01*
X15980348Y9192577D01*
X15947338Y9190858D01*
X15915188Y9183374D01*
X15771775Y9135592D01*
X15633899Y9073455D01*
X15502202Y8999112D01*
X15377764Y8913171D01*
X15261600Y8816336D01*
X15154664Y8709400D01*
X15057829Y8593236D01*
X15007500Y8520362D01*
X15007500Y9630001D01*
X18173530Y9630001D01*
X18190000Y9628705D01*
X18206457Y9630000D01*
X18550687Y9630000D01*
X18550687Y9370000D01*
X18206432Y9370000D01*
X18190000Y9371293D01*
X18124095Y9366107D01*
X18059813Y9350674D01*
X17998737Y9325375D01*
X17942370Y9290834D01*
X17892101Y9247899D01*
X17849166Y9197630D01*
X17814625Y9141263D01*
X17789326Y9080187D01*
X17773893Y9015905D01*
X17768707Y8950000D01*
X17770000Y8933568D01*
X17770000Y8864999D01*
X17771945Y8832046D01*
X17779661Y8799905D01*
X17792311Y8769366D01*
X17809582Y8741182D01*
X17831049Y8716047D01*
X17854837Y8695731D01*
X17892101Y8652101D01*
X17942370Y8609166D01*
X17998737Y8574625D01*
X18058186Y8550000D01*
X17998737Y8525375D01*
X17942370Y8490834D01*
X17892101Y8447899D01*
X17854831Y8404262D01*
X17846539Y8397180D01*
X17806111Y8468798D01*
X17720170Y8593236D01*
X17623335Y8709400D01*
X17516399Y8816336D01*
X17400235Y8913171D01*
X17275797Y8999112D01*
X17144100Y9073455D01*
X17006224Y9135592D01*
X16863297Y9185015D01*
X16830830Y9192132D01*
X16797619Y9193863D01*
X16764546Y9190376D01*
X16732426Y9181759D01*
X16702049Y9168224D01*
X16674164Y9150103D01*
X16649456Y9127842D01*
X16628536Y9101991D01*
X16611917Y9073186D01*
X16600008Y9042135D01*
X16593104Y9009604D01*
X16591373Y8976393D01*
X16594860Y8943320D01*
X16603477Y8911200D01*
X16617012Y8880823D01*
X16635133Y8852938D01*
X16657394Y8828230D01*
X16683245Y8807310D01*
X16712050Y8790691D01*
X16743286Y8779407D01*
X16850522Y8743679D01*
X16953617Y8697217D01*
X17052091Y8641628D01*
X17145139Y8577367D01*
X17231998Y8504960D01*
X17311959Y8424999D01*
X17384366Y8338140D01*
X17448627Y8245092D01*
X17504216Y8146618D01*
X17550678Y8043523D01*
X17587633Y7936650D01*
X17598852Y7905604D01*
X17615370Y7876973D01*
X17636164Y7851279D01*
X17660721Y7829154D01*
X17688437Y7811143D01*
X17718630Y7797690D01*
X17750555Y7789125D01*
X17783427Y7785660D01*
X17816436Y7787379D01*
X17848770Y7794242D01*
X17879632Y7806078D01*
X17908263Y7822596D01*
X17917702Y7830235D01*
X17942370Y7809166D01*
X17998737Y7774625D01*
X18059813Y7749326D01*
X18124095Y7733893D01*
X18190000Y7728707D01*
X18206432Y7730000D01*
X18550687Y7730000D01*
X18550687Y3120001D01*
X18038384Y3120001D01*
G37*
G36*
X13251999Y15543000D02*
X13251999Y14723710D01*
X13192430Y14626503D01*
X13091837Y14383650D01*
X13030473Y14128051D01*
X13009849Y13866000D01*
X13030473Y13603949D01*
X13091837Y13348350D01*
X13192430Y13105497D01*
X13329775Y12881371D01*
X13500490Y12681490D01*
X13700371Y12510775D01*
X13924497Y12373430D01*
X14167350Y12272837D01*
X14422949Y12211473D01*
X14685000Y12190849D01*
X14947051Y12211473D01*
X15202650Y12272837D01*
X15233153Y12285472D01*
X15407590Y12111035D01*
X15426221Y12089221D01*
X15513565Y12014622D01*
X15513594Y12014596D01*
X15611566Y11954559D01*
X15673751Y11928802D01*
X15717722Y11910588D01*
X15739353Y11905395D01*
X15829451Y11883764D01*
X15944001Y11874749D01*
X15972616Y11877001D01*
X17295398Y11877001D01*
X17324000Y11874750D01*
X17438498Y11883761D01*
X17438549Y11883764D01*
X17550278Y11910587D01*
X17656435Y11954559D01*
X17754407Y12014596D01*
X17841780Y12089220D01*
X17860429Y12111055D01*
X18550687Y12801313D01*
X18550687Y11270000D01*
X18206457Y11270000D01*
X18190000Y11271295D01*
X18173543Y11270000D01*
X14032133Y11270000D01*
X14000000Y11272529D01*
X13871328Y11262402D01*
X13745825Y11232272D01*
X13626580Y11182879D01*
X13516530Y11115440D01*
X13418384Y11031616D01*
X13334560Y10933470D01*
X13267121Y10823420D01*
X13217728Y10704175D01*
X13187598Y10578672D01*
X13187595Y10578621D01*
X13177472Y10450000D01*
X13180000Y10417880D01*
X13180000Y10075107D01*
X13164869Y10065835D01*
X13114599Y10022901D01*
X13071665Y9972631D01*
X13037123Y9916264D01*
X13011824Y9855187D01*
X12996391Y9790905D01*
X12991205Y9725000D01*
X12992500Y9708543D01*
X12992500Y8291444D01*
X12991206Y8275000D01*
X12996384Y8209197D01*
X12996390Y8209095D01*
X13011823Y8144812D01*
X13037122Y8083735D01*
X13071664Y8027368D01*
X13114598Y7977098D01*
X13164868Y7934164D01*
X13180000Y7924891D01*
X13180000Y7820001D01*
X13032133Y7820001D01*
X13000000Y7822530D01*
X12871328Y7812403D01*
X12745824Y7782273D01*
X12626579Y7732880D01*
X12516529Y7665441D01*
X12418383Y7581617D01*
X12334559Y7483471D01*
X12267120Y7373421D01*
X12217727Y7254176D01*
X12187597Y7128672D01*
X12187594Y7128621D01*
X12177471Y7000000D01*
X12179999Y6967880D01*
X12179999Y932120D01*
X12177471Y900000D01*
X12187598Y771328D01*
X12217728Y645825D01*
X12267121Y526580D01*
X12334560Y416530D01*
X12348678Y400000D01*
X11924353Y400000D01*
X11924353Y2893073D01*
X11976164Y2983700D01*
X12058409Y3162717D01*
X12124476Y3348315D01*
X12173845Y3539035D01*
X12178417Y3572036D01*
X12177528Y3605357D01*
X12171438Y3638129D01*
X12160296Y3669545D01*
X12144376Y3698831D01*
X12124071Y3725266D01*
X12099881Y3748199D01*
X12072401Y3767066D01*
X12042309Y3781401D01*
X12010343Y3790853D01*
X11977293Y3795188D01*
X11943972Y3794299D01*
X11924353Y3790653D01*
X11924353Y4211151D01*
X11944160Y4207470D01*
X11977202Y4206589D01*
X12009975Y4210887D01*
X12041673Y4220260D01*
X12071514Y4234476D01*
X12098763Y4253185D01*
X12122751Y4275926D01*
X12142885Y4302140D01*
X12158671Y4331181D01*
X12169720Y4362333D01*
X12175759Y4394831D01*
X12176640Y4427873D01*
X12171708Y4460512D01*
X12124476Y4651686D01*
X12058409Y4837284D01*
X11976164Y5016301D01*
X11924353Y5106928D01*
X11924353Y8275000D01*
X12091207Y8275000D01*
X12095698Y8217924D01*
X12091048Y8213952D01*
X12069581Y8188817D01*
X12052310Y8160634D01*
X12039660Y8130095D01*
X12031944Y8097954D01*
X12029350Y8065001D01*
X12031944Y8032048D01*
X12039660Y7999907D01*
X12052310Y7969368D01*
X12069581Y7941185D01*
X12091048Y7916050D01*
X12116183Y7894583D01*
X12144366Y7877312D01*
X12174905Y7864662D01*
X12207046Y7856946D01*
X12239999Y7855000D01*
X12496068Y7855000D01*
X12512500Y7853707D01*
X12578405Y7858893D01*
X12642687Y7874326D01*
X12703763Y7899625D01*
X12760130Y7934166D01*
X12810399Y7977101D01*
X12853334Y8027370D01*
X12887875Y8083737D01*
X12913174Y8144813D01*
X12928607Y8209095D01*
X12930552Y8242044D01*
X12930553Y8242047D01*
X12932499Y8275000D01*
X12932499Y8685001D01*
X12930554Y8717954D01*
X12922838Y8750095D01*
X12910188Y8780634D01*
X12892917Y8808817D01*
X12871450Y8833952D01*
X12846315Y8855419D01*
X12818132Y8872690D01*
X12787593Y8885340D01*
X12755452Y8893056D01*
X12722499Y8895650D01*
X12689546Y8893056D01*
X12657405Y8885340D01*
X12626866Y8872690D01*
X12598683Y8855419D01*
X12573548Y8833952D01*
X12552081Y8808817D01*
X12534810Y8780634D01*
X12522160Y8750095D01*
X12514444Y8717954D01*
X12513162Y8696241D01*
X12512500Y8696293D01*
X12512500Y9303707D01*
X12513162Y9303759D01*
X12514445Y9282046D01*
X12522161Y9249905D01*
X12534811Y9219367D01*
X12552081Y9191183D01*
X12573549Y9166049D01*
X12598683Y9144581D01*
X12626867Y9127311D01*
X12657405Y9114661D01*
X12689546Y9106945D01*
X12722499Y9104351D01*
X12755452Y9106945D01*
X12787593Y9114661D01*
X12818131Y9127311D01*
X12846315Y9144581D01*
X12871449Y9166049D01*
X12892917Y9191183D01*
X12910187Y9219367D01*
X12922837Y9249905D01*
X12930553Y9282046D01*
X12932499Y9314999D01*
X12932499Y9725000D01*
X12930554Y9757953D01*
X12930552Y9757961D01*
X12928607Y9790905D01*
X12913174Y9855187D01*
X12887875Y9916263D01*
X12853334Y9972630D01*
X12810399Y10022899D01*
X12760130Y10065834D01*
X12703763Y10100375D01*
X12642687Y10125674D01*
X12578405Y10141107D01*
X12512500Y10146293D01*
X12496068Y10145000D01*
X12239999Y10145000D01*
X12207046Y10143055D01*
X12174905Y10135339D01*
X12144366Y10122689D01*
X12116182Y10105418D01*
X12091047Y10083951D01*
X12069580Y10058816D01*
X12052309Y10030632D01*
X12039659Y10000093D01*
X12031943Y9967952D01*
X12029349Y9934999D01*
X12031943Y9902046D01*
X12039659Y9869905D01*
X12052309Y9839366D01*
X12069580Y9811182D01*
X12091047Y9786047D01*
X12095698Y9782075D01*
X12091207Y9725000D01*
X11924353Y9725000D01*
X11924353Y15543000D01*
X13251999Y15543000D01*
G37*
G36*
X8158577Y15777048D02*
X8177220Y15755220D01*
X8264593Y15680596D01*
X8362565Y15620559D01*
X8468722Y15576587D01*
X8580451Y15549764D01*
X8695001Y15540749D01*
X8723603Y15543000D01*
X11924353Y15543000D01*
X11924353Y9725000D01*
X11757498Y9725000D01*
X11754137Y9781935D01*
X11758952Y9786048D01*
X11780419Y9811183D01*
X11797690Y9839366D01*
X11810340Y9869905D01*
X11818056Y9902046D01*
X11820650Y9934999D01*
X11818056Y9967952D01*
X11810340Y10000093D01*
X11797690Y10030632D01*
X11780419Y10058815D01*
X11758952Y10083950D01*
X11733817Y10105417D01*
X11705634Y10122688D01*
X11675095Y10135338D01*
X11642954Y10143054D01*
X11610001Y10145000D01*
X11353932Y10145000D01*
X11337500Y10146293D01*
X11271595Y10141107D01*
X11207313Y10125674D01*
X11146237Y10100375D01*
X11089870Y10065834D01*
X11039601Y10022899D01*
X10996666Y9972630D01*
X10962125Y9916263D01*
X10936826Y9855187D01*
X10921393Y9790905D01*
X10916207Y9725000D01*
X10917501Y9708556D01*
X10917501Y9314999D01*
X10919446Y9282046D01*
X10927162Y9249905D01*
X10939812Y9219366D01*
X10957083Y9191183D01*
X10978550Y9166048D01*
X11003685Y9144581D01*
X11031868Y9127310D01*
X11062407Y9114660D01*
X11094548Y9106944D01*
X11127501Y9104350D01*
X11160454Y9106944D01*
X11192595Y9114660D01*
X11223134Y9127310D01*
X11251317Y9144581D01*
X11276452Y9166048D01*
X11297919Y9191183D01*
X11315190Y9219366D01*
X11327840Y9249905D01*
X11335556Y9282046D01*
X11336838Y9303759D01*
X11337500Y9303707D01*
X11337500Y8696293D01*
X11336838Y8696241D01*
X11335555Y8717954D01*
X11327839Y8750095D01*
X11315189Y8780633D01*
X11297919Y8808817D01*
X11276451Y8833951D01*
X11251317Y8855419D01*
X11223133Y8872689D01*
X11192595Y8885339D01*
X11160454Y8893055D01*
X11127501Y8895649D01*
X11094548Y8893055D01*
X11062407Y8885339D01*
X11031869Y8872689D01*
X11003685Y8855419D01*
X10978551Y8833951D01*
X10957083Y8808817D01*
X10939813Y8780633D01*
X10927163Y8750095D01*
X10919447Y8717954D01*
X10917501Y8685001D01*
X10917501Y8291444D01*
X10916207Y8275000D01*
X10921393Y8209095D01*
X10936826Y8144813D01*
X10962125Y8083737D01*
X10996666Y8027370D01*
X11039601Y7977101D01*
X11089870Y7934166D01*
X11146237Y7899625D01*
X11207313Y7874326D01*
X11271595Y7858893D01*
X11337500Y7853707D01*
X11353932Y7855000D01*
X11610001Y7855000D01*
X11642954Y7856945D01*
X11675095Y7864661D01*
X11705634Y7877311D01*
X11733818Y7894582D01*
X11758953Y7916049D01*
X11780420Y7941184D01*
X11797691Y7969368D01*
X11810341Y7999907D01*
X11818057Y8032048D01*
X11820651Y8065001D01*
X11818057Y8097954D01*
X11810341Y8130095D01*
X11797691Y8160634D01*
X11780420Y8188818D01*
X11758953Y8213953D01*
X11754137Y8218066D01*
X11757498Y8275000D01*
X11924353Y8275000D01*
X11924353Y5106928D01*
X11878387Y5187331D01*
X11765847Y5349029D01*
X11639428Y5500124D01*
X11500123Y5639429D01*
X11349028Y5765848D01*
X11187330Y5878388D01*
X11016300Y5976165D01*
X10837283Y6058410D01*
X10651685Y6124477D01*
X10460965Y6173846D01*
X10427965Y6178416D01*
X10394643Y6177527D01*
X10361872Y6171437D01*
X10330456Y6160295D01*
X10301170Y6144375D01*
X10274735Y6124071D01*
X10251802Y6099881D01*
X10232935Y6072401D01*
X10218600Y6042308D01*
X10209148Y6010343D01*
X10204813Y5977294D01*
X10205702Y5943972D01*
X10211792Y5911201D01*
X10222934Y5879785D01*
X10238854Y5850499D01*
X10259158Y5824064D01*
X10283348Y5801131D01*
X10310828Y5782264D01*
X10340921Y5767929D01*
X10373021Y5759116D01*
X10527874Y5720857D01*
X10678211Y5667342D01*
X10823218Y5600723D01*
X10961755Y5521522D01*
X11092732Y5430362D01*
X11215121Y5327961D01*
X11327960Y5215122D01*
X11430361Y5092733D01*
X11521521Y4961756D01*
X11600722Y4823219D01*
X11667341Y4678212D01*
X11720856Y4527875D01*
X11760846Y4373389D01*
X11769589Y4341556D01*
X11783805Y4311715D01*
X11802514Y4284466D01*
X11825255Y4260478D01*
X11851469Y4240344D01*
X11880510Y4224558D01*
X11911662Y4213509D01*
X11924353Y4211151D01*
X11924353Y3790653D01*
X11911200Y3788209D01*
X11879784Y3777067D01*
X11850498Y3761147D01*
X11824063Y3740842D01*
X11801130Y3716652D01*
X11782263Y3689172D01*
X11767928Y3659080D01*
X11759115Y3626979D01*
X11720856Y3472126D01*
X11667341Y3321789D01*
X11600722Y3176782D01*
X11521521Y3038245D01*
X11430361Y2907268D01*
X11327960Y2784879D01*
X11215121Y2672040D01*
X11092732Y2569639D01*
X10961755Y2478479D01*
X10823218Y2399278D01*
X10678211Y2332659D01*
X10527874Y2279144D01*
X10373388Y2239154D01*
X10341557Y2230411D01*
X10311716Y2216196D01*
X10284467Y2197487D01*
X10260479Y2174746D01*
X10240344Y2148532D01*
X10224558Y2119491D01*
X10213510Y2088339D01*
X10207470Y2055841D01*
X10206589Y2022799D01*
X10210887Y1990026D01*
X10220260Y1958328D01*
X10234475Y1928487D01*
X10253184Y1901238D01*
X10275925Y1877250D01*
X10302139Y1857115D01*
X10331180Y1841329D01*
X10362332Y1830281D01*
X10394830Y1824241D01*
X10427872Y1823360D01*
X10460511Y1828292D01*
X10651685Y1875524D01*
X10837283Y1941591D01*
X11016300Y2023836D01*
X11187330Y2121613D01*
X11349028Y2234153D01*
X11500123Y2360572D01*
X11639428Y2499877D01*
X11765847Y2650972D01*
X11878387Y2812670D01*
X11924353Y2893073D01*
X11924353Y400000D01*
X7998042Y400000D01*
X7998042Y3039842D01*
X8023835Y2983700D01*
X8121612Y2812670D01*
X8234152Y2650972D01*
X8360571Y2499877D01*
X8499876Y2360572D01*
X8650971Y2234153D01*
X8812669Y2121613D01*
X8983699Y2023836D01*
X9162716Y1941591D01*
X9348314Y1875524D01*
X9539034Y1826155D01*
X9572037Y1821583D01*
X9605358Y1822472D01*
X9638130Y1828563D01*
X9669545Y1839705D01*
X9698831Y1855625D01*
X9725266Y1875929D01*
X9748199Y1900120D01*
X9767066Y1927599D01*
X9781401Y1957692D01*
X9790853Y1989658D01*
X9795188Y2022708D01*
X9794299Y2056029D01*
X9788208Y2088801D01*
X9777066Y2120216D01*
X9761146Y2149502D01*
X9740842Y2175937D01*
X9716651Y2198870D01*
X9689172Y2217737D01*
X9659079Y2232072D01*
X9626978Y2240885D01*
X9472125Y2279144D01*
X9321788Y2332659D01*
X9176781Y2399278D01*
X9038244Y2478479D01*
X8907267Y2569639D01*
X8784878Y2672040D01*
X8672039Y2784879D01*
X8569638Y2907268D01*
X8478478Y3038245D01*
X8399277Y3176782D01*
X8332658Y3321789D01*
X8279143Y3472126D01*
X8239153Y3626612D01*
X8230412Y3658443D01*
X8216197Y3688284D01*
X8197488Y3715534D01*
X8174746Y3739521D01*
X8148533Y3759656D01*
X8119492Y3775442D01*
X8088339Y3786491D01*
X8055841Y3792531D01*
X8022799Y3793412D01*
X7998042Y3790165D01*
X7998042Y4208048D01*
X8022707Y4204813D01*
X8056028Y4205702D01*
X8088800Y4211793D01*
X8120216Y4222935D01*
X8149502Y4238854D01*
X8175936Y4259159D01*
X8198869Y4283349D01*
X8217736Y4310829D01*
X8232072Y4340922D01*
X8240884Y4373022D01*
X8279143Y4527875D01*
X8332658Y4678212D01*
X8399277Y4823219D01*
X8478478Y4961756D01*
X8569638Y5092733D01*
X8672039Y5215122D01*
X8784878Y5327961D01*
X8907267Y5430362D01*
X9038244Y5521522D01*
X9176781Y5600723D01*
X9321788Y5667342D01*
X9472125Y5720857D01*
X9626611Y5760847D01*
X9658444Y5769588D01*
X9688285Y5783804D01*
X9715535Y5802513D01*
X9739522Y5825254D01*
X9759657Y5851468D01*
X9775443Y5880509D01*
X9786492Y5911662D01*
X9792531Y5944160D01*
X9793412Y5977202D01*
X9789114Y6009975D01*
X9779741Y6041673D01*
X9765525Y6071514D01*
X9746816Y6098764D01*
X9724075Y6122751D01*
X9697861Y6142886D01*
X9668820Y6158672D01*
X9637667Y6169721D01*
X9605169Y6175760D01*
X9572127Y6176641D01*
X9539488Y6171709D01*
X9348314Y6124477D01*
X9162716Y6058410D01*
X8983699Y5976165D01*
X8812669Y5878388D01*
X8650971Y5765848D01*
X8499876Y5639429D01*
X8360571Y5500124D01*
X8234152Y5349029D01*
X8121612Y5187331D01*
X8023835Y5016301D01*
X7998042Y4960159D01*
X7998042Y6726237D01*
X8000000Y6726083D01*
X8199285Y6741767D01*
X8393662Y6788433D01*
X8578346Y6864932D01*
X8748790Y6969379D01*
X8900795Y7099205D01*
X9030621Y7251210D01*
X9135068Y7421654D01*
X9211567Y7606338D01*
X9258233Y7800715D01*
X9270000Y8000000D01*
X9258233Y8199285D01*
X9211567Y8393662D01*
X9135068Y8578346D01*
X9030621Y8748790D01*
X8900795Y8900795D01*
X8748790Y9030621D01*
X8578346Y9135068D01*
X8393662Y9211567D01*
X8199285Y9258233D01*
X8000000Y9273917D01*
X7998042Y9273763D01*
X7998042Y15937583D01*
X8158577Y15777048D01*
G37*
G36*
X14889701Y44474959D02*
X14869775Y44451629D01*
X14744684Y44247500D01*
X14744684Y44463546D01*
X14889701Y44474959D01*
G37*
G36*
X47320837Y36380350D02*
X47421430Y36137497D01*
X47558775Y35913371D01*
X47667129Y35786505D01*
X47642052Y35761428D01*
X47620219Y35742781D01*
X47545595Y35655407D01*
X47485558Y35557436D01*
X47441586Y35451278D01*
X47414763Y35339550D01*
X47414757Y35339444D01*
X47405750Y35225000D01*
X47407999Y35196423D01*
X47407999Y34849621D01*
X47352868Y34815836D01*
X47302598Y34772902D01*
X47261229Y34724464D01*
X47261229Y36628635D01*
X47320837Y36380350D01*
G37*
G36*
X47307776Y37361248D02*
X47261229Y37167365D01*
X47261229Y37357613D01*
X47307776Y37361248D01*
G37*
G36*
X55839775Y40263371D02*
X56010490Y40063490D01*
X56210371Y39892775D01*
X56434497Y39755430D01*
X56677350Y39654837D01*
X56932949Y39593473D01*
X57195000Y39572849D01*
X57457051Y39593473D01*
X57712650Y39654837D01*
X57955503Y39755430D01*
X58179629Y39892775D01*
X58379510Y40063490D01*
X58550225Y40263371D01*
X58687570Y40487497D01*
X58788163Y40730350D01*
X58849527Y40985949D01*
X58865000Y41248000D01*
X58849527Y41510051D01*
X58788163Y41765650D01*
X58775372Y41796530D01*
X59337461Y42358899D01*
X59394775Y42265371D01*
X59565490Y42065490D01*
X59765371Y41894775D01*
X59989497Y41757430D01*
X60029999Y41740654D01*
X60029999Y40259346D01*
X59989497Y40242570D01*
X59765371Y40105225D01*
X59565490Y39934510D01*
X59394775Y39734629D01*
X59257430Y39510503D01*
X59156837Y39267650D01*
X59095473Y39012051D01*
X59074849Y38750000D01*
X59095473Y38487949D01*
X59156837Y38232350D01*
X59257430Y37989497D01*
X59394775Y37765371D01*
X59565490Y37565490D01*
X59689241Y37459796D01*
X59598436Y37515442D01*
X59492278Y37559414D01*
X59380550Y37586237D01*
X59380499Y37586240D01*
X59266001Y37595251D01*
X59237411Y37593001D01*
X56077599Y37593001D01*
X56049000Y37595252D01*
X55934451Y37586236D01*
X55822722Y37559413D01*
X55771762Y37538305D01*
X55771762Y38059973D01*
X55843163Y38232350D01*
X55904527Y38487949D01*
X55920000Y38750000D01*
X55904527Y39012051D01*
X55843163Y39267650D01*
X55771762Y39440027D01*
X55771762Y40374358D01*
X55839775Y40263371D01*
G37*
G36*
X59989497Y19757430D02*
X60029999Y19740654D01*
X60029999Y18259346D01*
X59989497Y18242570D01*
X59800000Y18126446D01*
X59800000Y19873554D01*
X59989497Y19757430D01*
G37*
G36*
X62000000Y53600000D02*
X62209000Y53586000D01*
X62414000Y53545000D01*
X62612000Y53478000D01*
X62800000Y53386000D01*
X62974000Y53269000D01*
X63131000Y53131000D01*
X63269000Y52974000D01*
X63386000Y52800000D01*
X63478000Y52612000D01*
X63545000Y52414000D01*
X63586000Y52209000D01*
X63600000Y52000000D01*
X63600000Y2000000D01*
X63586000Y1791000D01*
X63545000Y1586000D01*
X63478000Y1388000D01*
X63386000Y1200000D01*
X63269000Y1026000D01*
X63131000Y869000D01*
X62974000Y731000D01*
X62800000Y614000D01*
X62612000Y522000D01*
X62414000Y455000D01*
X62209000Y414000D01*
X62000000Y400000D01*
X59800000Y400000D01*
X59800000Y1000000D01*
X61025000Y1244000D01*
X62063000Y1937000D01*
X62756000Y2975000D01*
X63000000Y4200000D01*
X62756000Y5425000D01*
X62063000Y6463000D01*
X61025000Y7156000D01*
X59800000Y7400000D01*
X59800000Y12028953D01*
X60030503Y12124430D01*
X60254629Y12261775D01*
X60454510Y12432490D01*
X60625225Y12632371D01*
X60762570Y12856497D01*
X60863163Y13099350D01*
X60924527Y13354949D01*
X60940000Y13617000D01*
X60924527Y13879051D01*
X60863163Y14134650D01*
X60762570Y14377503D01*
X60625225Y14601629D01*
X60454510Y14801510D01*
X60254629Y14972225D01*
X60099601Y15067227D01*
X60201846Y15169472D01*
X60232350Y15156837D01*
X60487949Y15095473D01*
X60750000Y15074849D01*
X61012051Y15095473D01*
X61267650Y15156837D01*
X61510503Y15257430D01*
X61734629Y15394775D01*
X61934510Y15565490D01*
X62105225Y15765371D01*
X62242570Y15989497D01*
X62343163Y16232350D01*
X62404527Y16487949D01*
X62420000Y16750000D01*
X62404527Y17012051D01*
X62343163Y17267650D01*
X62242570Y17510503D01*
X62105225Y17734629D01*
X61934510Y17934510D01*
X61734629Y18105225D01*
X61510503Y18242570D01*
X61470000Y18259347D01*
X61470000Y19740653D01*
X61510503Y19757430D01*
X61734629Y19894775D01*
X61934510Y20065490D01*
X62105225Y20265371D01*
X62242570Y20489497D01*
X62343163Y20732350D01*
X62404527Y20987949D01*
X62420000Y21250000D01*
X62404527Y21512051D01*
X62343163Y21767650D01*
X62242570Y22010503D01*
X62105225Y22234629D01*
X61934510Y22434510D01*
X61734629Y22605225D01*
X61510503Y22742570D01*
X61267650Y22843163D01*
X61012051Y22904527D01*
X60750000Y22925151D01*
X60487949Y22904527D01*
X60232350Y22843163D01*
X59989497Y22742570D01*
X59800000Y22626446D01*
X59800000Y26967626D01*
X61559958Y28727584D01*
X61581779Y28746221D01*
X61656356Y28833539D01*
X61656404Y28833593D01*
X61716441Y28931565D01*
X61760413Y29037722D01*
X61787236Y29149451D01*
X61796252Y29264000D01*
X61793999Y29292625D01*
X61793999Y35036386D01*
X61796251Y35065001D01*
X61787236Y35179550D01*
X61780796Y35206373D01*
X61760413Y35291278D01*
X61716441Y35397435D01*
X61656404Y35495407D01*
X61581780Y35582780D01*
X61559952Y35601423D01*
X59802434Y37358941D01*
X59800000Y37361791D01*
X59800000Y37373554D01*
X59989497Y37257430D01*
X60232350Y37156837D01*
X60487949Y37095473D01*
X60750000Y37074849D01*
X61012051Y37095473D01*
X61267650Y37156837D01*
X61510503Y37257430D01*
X61734629Y37394775D01*
X61934510Y37565490D01*
X62105225Y37765371D01*
X62242570Y37989497D01*
X62343163Y38232350D01*
X62404527Y38487949D01*
X62420000Y38750000D01*
X62404527Y39012051D01*
X62343163Y39267650D01*
X62242570Y39510503D01*
X62105225Y39734629D01*
X61934510Y39934510D01*
X61734629Y40105225D01*
X61510503Y40242570D01*
X61470000Y40259347D01*
X61470000Y41740653D01*
X61510503Y41757430D01*
X61734629Y41894775D01*
X61934510Y42065490D01*
X62105225Y42265371D01*
X62242570Y42489497D01*
X62343163Y42732350D01*
X62404527Y42987949D01*
X62420000Y43250000D01*
X62404527Y43512051D01*
X62343163Y43767650D01*
X62242570Y44010503D01*
X62105225Y44234629D01*
X61934510Y44434510D01*
X61734629Y44605225D01*
X61510503Y44742570D01*
X61267650Y44843163D01*
X61012051Y44904527D01*
X60750000Y44925151D01*
X60487949Y44904527D01*
X60232350Y44843163D01*
X59989497Y44742570D01*
X59800000Y44626446D01*
X59800000Y46600000D01*
X61025000Y46844000D01*
X62063000Y47537000D01*
X62756000Y48575000D01*
X63000000Y49800000D01*
X62756000Y51025000D01*
X62063000Y52063000D01*
X61025000Y52756000D01*
X59800000Y53000000D01*
X59800000Y53600000D01*
X62000000Y53600000D01*
G37*
G36*
X59783781Y37380781D02*
X59772539Y37390382D01*
X59800000Y37373554D01*
X59800000Y37361791D01*
X59783781Y37380781D01*
G37*
G36*
X55771762Y400000D02*
X55771762Y6748718D01*
X55800715Y6741767D01*
X56000000Y6726083D01*
X56199285Y6741767D01*
X56393662Y6788433D01*
X56578346Y6864932D01*
X56748790Y6969379D01*
X56900795Y7099205D01*
X57030621Y7251210D01*
X57135068Y7421654D01*
X57211567Y7606338D01*
X57258233Y7800715D01*
X57270000Y8000000D01*
X57258233Y8199285D01*
X57211567Y8393662D01*
X57135068Y8578346D01*
X57030621Y8748790D01*
X56900795Y8900795D01*
X56748790Y9030621D01*
X56578346Y9135068D01*
X56393662Y9211567D01*
X56199285Y9258233D01*
X56000000Y9273917D01*
X55800715Y9258233D01*
X55771762Y9251282D01*
X55771762Y10214368D01*
X55875235Y10285830D01*
X55991399Y10382665D01*
X56098335Y10489601D01*
X56195170Y10605765D01*
X56281111Y10730203D01*
X56355454Y10861900D01*
X56417591Y10999776D01*
X56467014Y11142703D01*
X56474133Y11175171D01*
X56475864Y11208382D01*
X56472377Y11241455D01*
X56463760Y11273575D01*
X56450224Y11303952D01*
X56432103Y11331837D01*
X56409843Y11356544D01*
X56383992Y11377465D01*
X56355186Y11394084D01*
X56324135Y11405993D01*
X56291603Y11412897D01*
X56258392Y11414628D01*
X56225319Y11411141D01*
X56193199Y11402524D01*
X56162822Y11388988D01*
X56134937Y11370867D01*
X56110230Y11348607D01*
X56089309Y11322756D01*
X56072690Y11293950D01*
X56061406Y11262714D01*
X56025678Y11155478D01*
X55979216Y11052383D01*
X55923627Y10953909D01*
X55859366Y10860861D01*
X55786959Y10774002D01*
X55771762Y10758805D01*
X55771762Y12475196D01*
X55786959Y12459999D01*
X55859366Y12373140D01*
X55923627Y12280092D01*
X55979216Y12181618D01*
X56025678Y12078523D01*
X56062633Y11971650D01*
X56073852Y11940604D01*
X56090370Y11911973D01*
X56111164Y11886279D01*
X56135721Y11864154D01*
X56163437Y11846143D01*
X56193630Y11832690D01*
X56225555Y11824125D01*
X56258427Y11820660D01*
X56291436Y11822379D01*
X56323770Y11829242D01*
X56354632Y11841078D01*
X56383263Y11857596D01*
X56408957Y11878390D01*
X56431082Y11902947D01*
X56449093Y11930663D01*
X56462546Y11960856D01*
X56471111Y11992781D01*
X56474576Y12025653D01*
X56472857Y12058662D01*
X56465373Y12090812D01*
X56417591Y12234225D01*
X56355454Y12372101D01*
X56281111Y12503798D01*
X56195170Y12628236D01*
X56098335Y12744400D01*
X55991399Y12851336D01*
X55875235Y12948171D01*
X55771762Y13019633D01*
X55771762Y14403852D01*
X58495941Y17127570D01*
X58517779Y17146221D01*
X58592148Y17233295D01*
X58592368Y17233543D01*
X58592390Y17233578D01*
X58592403Y17233594D01*
X58611018Y17263971D01*
X58652414Y17331509D01*
X58652431Y17331551D01*
X58652440Y17331565D01*
X58665756Y17363712D01*
X58696394Y17437663D01*
X58696403Y17437700D01*
X58696412Y17437722D01*
X58706215Y17478555D01*
X58723227Y17549390D01*
X58723230Y17549432D01*
X58723235Y17549451D01*
X58723245Y17549613D01*
X58732252Y17663938D01*
X58729999Y17692598D01*
X58729999Y24694795D01*
X58760503Y24707430D01*
X58984629Y24844775D01*
X59184510Y25015490D01*
X59355225Y25215371D01*
X59492570Y25439497D01*
X59593163Y25682350D01*
X59654527Y25937949D01*
X59670000Y26200000D01*
X59654527Y26462051D01*
X59593163Y26717650D01*
X59580528Y26748154D01*
X59800000Y26967626D01*
X59800000Y22626446D01*
X59765371Y22605225D01*
X59565490Y22434510D01*
X59394775Y22234629D01*
X59257430Y22010503D01*
X59156837Y21767650D01*
X59095473Y21512051D01*
X59074849Y21250000D01*
X59095473Y20987949D01*
X59156837Y20732350D01*
X59257430Y20489497D01*
X59394775Y20265371D01*
X59565490Y20065490D01*
X59765371Y19894775D01*
X59800000Y19873554D01*
X59800000Y18126446D01*
X59765371Y18105225D01*
X59565490Y17934510D01*
X59394775Y17734629D01*
X59257430Y17510503D01*
X59156837Y17267650D01*
X59095473Y17012051D01*
X59074849Y16750000D01*
X59095473Y16487949D01*
X59156837Y16232350D01*
X59169472Y16201848D01*
X58774052Y15806428D01*
X58752219Y15787781D01*
X58677595Y15700407D01*
X58617558Y15602436D01*
X58573586Y15496278D01*
X58546763Y15384550D01*
X58546757Y15384444D01*
X58537750Y15270000D01*
X58539999Y15241423D01*
X58539999Y15122204D01*
X58509497Y15109570D01*
X58285371Y14972225D01*
X58085490Y14801510D01*
X57914775Y14601629D01*
X57777430Y14377503D01*
X57676837Y14134650D01*
X57615473Y13879051D01*
X57594849Y13617000D01*
X57615473Y13354949D01*
X57676837Y13099350D01*
X57777430Y12856497D01*
X57914775Y12632371D01*
X58085490Y12432490D01*
X58285371Y12261775D01*
X58509497Y12124430D01*
X58752350Y12023837D01*
X59007949Y11962473D01*
X59270000Y11941849D01*
X59532051Y11962473D01*
X59787650Y12023837D01*
X59800000Y12028953D01*
X59800000Y7400000D01*
X58575000Y7156000D01*
X57537000Y6463000D01*
X56844000Y5425000D01*
X56600000Y4200000D01*
X56844000Y2975000D01*
X57537000Y1937000D01*
X58575000Y1244000D01*
X59800000Y1000000D01*
X59800000Y400000D01*
X55771762Y400000D01*
G37*
G36*
X59800000Y53600000D02*
X59800000Y53000000D01*
X58575000Y52756000D01*
X57537000Y52063000D01*
X56844000Y51025000D01*
X56600000Y49800000D01*
X56844000Y48575000D01*
X57537000Y47537000D01*
X58575000Y46844000D01*
X59800000Y46600000D01*
X59800000Y44626446D01*
X59765371Y44605225D01*
X59565490Y44434510D01*
X59394775Y44234629D01*
X59257430Y44010503D01*
X59244796Y43980001D01*
X59224509Y43980001D01*
X59195817Y43982252D01*
X59082140Y43973277D01*
X59081451Y43973236D01*
X59081366Y43973216D01*
X59081270Y43973208D01*
X59024998Y43959683D01*
X58969722Y43946413D01*
X58969635Y43946377D01*
X58969548Y43946356D01*
X58917185Y43924651D01*
X58863565Y43902441D01*
X58863487Y43902393D01*
X58863402Y43902358D01*
X58815025Y43872696D01*
X58765593Y43842404D01*
X58765521Y43842343D01*
X58765445Y43842296D01*
X58764917Y43841827D01*
X58678220Y43767780D01*
X58659524Y43745890D01*
X57742776Y42828684D01*
X57712650Y42841163D01*
X57457051Y42902527D01*
X57195000Y42923151D01*
X56932949Y42902527D01*
X56677350Y42841163D01*
X56434497Y42740570D01*
X56210371Y42603225D01*
X56010490Y42432510D01*
X55839775Y42232629D01*
X55771762Y42121642D01*
X55771762Y42559973D01*
X55843163Y42732350D01*
X55904527Y42987949D01*
X55920000Y43250000D01*
X55904527Y43512051D01*
X55843163Y43767650D01*
X55771762Y43940027D01*
X55771762Y44748718D01*
X55800715Y44741767D01*
X56000000Y44726083D01*
X56199285Y44741767D01*
X56393662Y44788433D01*
X56578346Y44864932D01*
X56748790Y44969379D01*
X56900795Y45099205D01*
X57030621Y45251210D01*
X57135068Y45421654D01*
X57211567Y45606338D01*
X57258233Y45800715D01*
X57270000Y46000000D01*
X57258233Y46199285D01*
X57211567Y46393662D01*
X57135068Y46578346D01*
X57030621Y46748790D01*
X56900795Y46900795D01*
X56748790Y47030621D01*
X56578346Y47135068D01*
X56393662Y47211567D01*
X56199285Y47258233D01*
X56000000Y47273917D01*
X55800715Y47258233D01*
X55771762Y47251282D01*
X55771762Y53600000D01*
X59800000Y53600000D01*
G37*
G36*
X55716565Y37515441D02*
X55618593Y37455404D01*
X55531220Y37380780D01*
X55512583Y37358959D01*
X55284625Y37131001D01*
X54660036Y37131001D01*
X54767650Y37156837D01*
X55010503Y37257430D01*
X55234629Y37394775D01*
X55434510Y37565490D01*
X55605225Y37765371D01*
X55742570Y37989497D01*
X55771762Y38059973D01*
X55771762Y37538305D01*
X55716565Y37515441D01*
G37*
G36*
X55702430Y42008503D02*
X55601837Y41765650D01*
X55540473Y41510051D01*
X55519849Y41248000D01*
X55540473Y40985949D01*
X55601837Y40730350D01*
X55702430Y40487497D01*
X55771762Y40374358D01*
X55771762Y39440027D01*
X55742570Y39510503D01*
X55605225Y39734629D01*
X55434510Y39934510D01*
X55234629Y40105225D01*
X55010503Y40242570D01*
X54970000Y40259347D01*
X54970000Y41740653D01*
X55010503Y41757430D01*
X55234629Y41894775D01*
X55434510Y42065490D01*
X55605225Y42265371D01*
X55742570Y42489497D01*
X55771762Y42559973D01*
X55771762Y42121642D01*
X55702430Y42008503D01*
G37*
G36*
X53957525Y400000D02*
X53957525Y10213479D01*
X53977202Y10199889D01*
X54108899Y10125546D01*
X54246775Y10063409D01*
X54389702Y10013986D01*
X54422172Y10006867D01*
X54455383Y10005137D01*
X54488455Y10008623D01*
X54520576Y10017241D01*
X54550952Y10030776D01*
X54578838Y10048898D01*
X54603545Y10071158D01*
X54624466Y10097009D01*
X54641085Y10125815D01*
X54652993Y10156866D01*
X54659897Y10189398D01*
X54661627Y10222609D01*
X54658141Y10255681D01*
X54649523Y10287802D01*
X54635988Y10318178D01*
X54617866Y10346064D01*
X54595606Y10370771D01*
X54569755Y10391692D01*
X54540949Y10408311D01*
X54509713Y10419594D01*
X54402477Y10455322D01*
X54299382Y10501784D01*
X54200908Y10557373D01*
X54107860Y10621634D01*
X54021001Y10694041D01*
X53957525Y10757517D01*
X53957525Y12476484D01*
X54021001Y12539960D01*
X54107860Y12612367D01*
X54200908Y12676628D01*
X54299382Y12732217D01*
X54402477Y12778679D01*
X54509350Y12815634D01*
X54540396Y12826851D01*
X54569027Y12843369D01*
X54594721Y12864163D01*
X54616846Y12888720D01*
X54634858Y12916437D01*
X54648311Y12946629D01*
X54656876Y12978554D01*
X54660341Y13011426D01*
X54658622Y13044436D01*
X54651759Y13076770D01*
X54639923Y13107632D01*
X54623405Y13136263D01*
X54602611Y13161957D01*
X54578054Y13184082D01*
X54562133Y13194428D01*
X55771762Y14403852D01*
X55771762Y13019633D01*
X55750797Y13034112D01*
X55619100Y13108455D01*
X55481224Y13170592D01*
X55338297Y13220015D01*
X55305830Y13227132D01*
X55272619Y13228863D01*
X55239546Y13225376D01*
X55207426Y13216759D01*
X55177049Y13203224D01*
X55149164Y13185103D01*
X55124456Y13162842D01*
X55103536Y13136991D01*
X55086917Y13108186D01*
X55075008Y13077135D01*
X55068104Y13044604D01*
X55066373Y13011393D01*
X55069860Y12978320D01*
X55078477Y12946200D01*
X55092012Y12915823D01*
X55110133Y12887938D01*
X55132394Y12863230D01*
X55158245Y12842310D01*
X55187050Y12825691D01*
X55218286Y12814407D01*
X55325522Y12778679D01*
X55428617Y12732217D01*
X55527091Y12676628D01*
X55620139Y12612367D01*
X55706998Y12539960D01*
X55771762Y12475196D01*
X55771762Y10758805D01*
X55706998Y10694041D01*
X55620139Y10621634D01*
X55527091Y10557373D01*
X55428617Y10501784D01*
X55325522Y10455322D01*
X55218649Y10418367D01*
X55187605Y10407148D01*
X55158974Y10390630D01*
X55133280Y10369836D01*
X55111155Y10345279D01*
X55093144Y10317563D01*
X55079690Y10287371D01*
X55071125Y10255446D01*
X55067660Y10222574D01*
X55069380Y10189565D01*
X55076242Y10157231D01*
X55088078Y10126369D01*
X55104596Y10097738D01*
X55125390Y10072044D01*
X55149947Y10049919D01*
X55177663Y10031908D01*
X55207855Y10018454D01*
X55239780Y10009889D01*
X55272652Y10006424D01*
X55305661Y10008144D01*
X55337811Y10015627D01*
X55481224Y10063409D01*
X55619100Y10125546D01*
X55750797Y10199889D01*
X55771762Y10214368D01*
X55771762Y9251282D01*
X55606338Y9211567D01*
X55421654Y9135068D01*
X55251210Y9030621D01*
X55099205Y8900795D01*
X54969379Y8748790D01*
X54864932Y8578346D01*
X54788433Y8393662D01*
X54741767Y8199285D01*
X54726083Y8000000D01*
X54741767Y7800715D01*
X54788433Y7606338D01*
X54864932Y7421654D01*
X54969379Y7251210D01*
X55099205Y7099205D01*
X55251210Y6969379D01*
X55421654Y6864932D01*
X55606338Y6788433D01*
X55771762Y6748718D01*
X55771762Y400000D01*
X53957525Y400000D01*
G37*
G36*
X47261229Y400000D02*
X47261229Y1893896D01*
X47339373Y1947875D01*
X47431139Y2024380D01*
X47515620Y2108861D01*
X47592125Y2200627D01*
X47660028Y2298928D01*
X47718774Y2402961D01*
X47767884Y2511875D01*
X47777896Y2543510D01*
X47782619Y2576371D01*
X47782144Y2609567D01*
X47776482Y2642280D01*
X47765771Y2673705D01*
X47750277Y2703067D01*
X47730381Y2729644D01*
X47706571Y2752781D01*
X47679436Y2771908D01*
X47649642Y2786556D01*
X47617924Y2796362D01*
X47585063Y2801085D01*
X47551867Y2800610D01*
X47519154Y2794948D01*
X47487729Y2784237D01*
X47458367Y2768743D01*
X47431790Y2748847D01*
X47408653Y2725037D01*
X47389526Y2697902D01*
X47375483Y2667868D01*
X47342888Y2593344D01*
X47302875Y2522485D01*
X47261229Y2462195D01*
X47261229Y3537806D01*
X47302875Y3477516D01*
X47342888Y3406657D01*
X47376338Y3332473D01*
X47390321Y3302570D01*
X47409365Y3275554D01*
X47432401Y3251848D01*
X47458862Y3232039D01*
X47488095Y3216612D01*
X47519382Y3205949D01*
X47551952Y3200311D01*
X47585003Y3199838D01*
X47617721Y3204541D01*
X47649300Y3214304D01*
X47678964Y3228887D01*
X47705980Y3247931D01*
X47729686Y3270967D01*
X47749495Y3297428D01*
X47764922Y3326661D01*
X47775585Y3357948D01*
X47781223Y3390518D01*
X47781696Y3423569D01*
X47776993Y3456287D01*
X47766628Y3487627D01*
X47718774Y3597040D01*
X47660028Y3701073D01*
X47592125Y3799374D01*
X47515620Y3891140D01*
X47431139Y3975621D01*
X47339373Y4052126D01*
X47261229Y4106105D01*
X47261229Y4433849D01*
X47318270Y4468804D01*
X47476260Y4603740D01*
X47611196Y4761730D01*
X47719756Y4938884D01*
X47799267Y5130839D01*
X47847770Y5332870D01*
X47860000Y5540000D01*
X47847770Y5747130D01*
X47799267Y5949161D01*
X47719756Y6141116D01*
X47611196Y6318270D01*
X47476260Y6476260D01*
X47318270Y6611196D01*
X47261229Y6646151D01*
X47261229Y6973849D01*
X47318270Y7008804D01*
X47476260Y7143740D01*
X47611196Y7301730D01*
X47719756Y7478884D01*
X47724148Y7489488D01*
X48493290Y7650025D01*
X48565490Y7565490D01*
X48765371Y7394775D01*
X48989497Y7257430D01*
X49232350Y7156837D01*
X49487949Y7095473D01*
X49750000Y7074849D01*
X50012051Y7095473D01*
X50267650Y7156837D01*
X50510503Y7257430D01*
X50734629Y7394775D01*
X50934510Y7565490D01*
X51105225Y7765371D01*
X51242570Y7989497D01*
X51343163Y8232350D01*
X51404527Y8487949D01*
X51420000Y8750000D01*
X51404527Y9012051D01*
X51343163Y9267650D01*
X51242570Y9510503D01*
X51105225Y9734629D01*
X50934510Y9934510D01*
X50734629Y10105225D01*
X50510503Y10242570D01*
X50267650Y10343163D01*
X50012051Y10404527D01*
X49905302Y10412928D01*
X50526374Y11034000D01*
X52070368Y11034000D01*
X52098938Y11031749D01*
X52213488Y11040755D01*
X52213512Y11040761D01*
X52213550Y11040763D01*
X52290900Y11059333D01*
X52325219Y11067569D01*
X52325235Y11067576D01*
X52325278Y11067586D01*
X52400527Y11098755D01*
X52431380Y11111532D01*
X52431394Y11111541D01*
X52431436Y11111558D01*
X52501794Y11154674D01*
X52529356Y11171560D01*
X52529370Y11171572D01*
X52529407Y11171595D01*
X52616781Y11246219D01*
X52635414Y11268036D01*
X53285560Y11918072D01*
X53295898Y11902163D01*
X53318159Y11877456D01*
X53344010Y11856535D01*
X53372815Y11839916D01*
X53403866Y11828008D01*
X53436397Y11821104D01*
X53469608Y11819374D01*
X53502681Y11822860D01*
X53534801Y11831477D01*
X53565178Y11845013D01*
X53593063Y11863134D01*
X53617770Y11885395D01*
X53638691Y11911246D01*
X53655310Y11940051D01*
X53666593Y11971287D01*
X53702321Y12078523D01*
X53748783Y12181618D01*
X53804372Y12280092D01*
X53868633Y12373140D01*
X53941040Y12459999D01*
X53957525Y12476484D01*
X53957525Y10757517D01*
X53941040Y10774002D01*
X53868633Y10860861D01*
X53804372Y10953909D01*
X53748783Y11052383D01*
X53702321Y11155478D01*
X53665366Y11262351D01*
X53654149Y11293395D01*
X53637631Y11322026D01*
X53616837Y11347720D01*
X53592280Y11369846D01*
X53564564Y11387857D01*
X53534372Y11401311D01*
X53502447Y11409876D01*
X53469575Y11413341D01*
X53436565Y11411621D01*
X53404231Y11404759D01*
X53373369Y11392923D01*
X53344738Y11376405D01*
X53319044Y11355611D01*
X53296918Y11331054D01*
X53278907Y11303338D01*
X53265453Y11273146D01*
X53256888Y11241221D01*
X53253423Y11208349D01*
X53255143Y11175339D01*
X53262626Y11143189D01*
X53310408Y10999776D01*
X53372545Y10861900D01*
X53446888Y10730203D01*
X53532829Y10605765D01*
X53629664Y10489601D01*
X53736600Y10382665D01*
X53852764Y10285830D01*
X53957525Y10213479D01*
X53957525Y400000D01*
X47261229Y400000D01*
G37*
G36*
X55771762Y53600000D02*
X55771762Y47251282D01*
X55606338Y47211567D01*
X55421654Y47135068D01*
X55251210Y47030621D01*
X55099205Y46900795D01*
X54969379Y46748790D01*
X54864932Y46578346D01*
X54788433Y46393662D01*
X54741767Y46199285D01*
X54726083Y46000000D01*
X54741767Y45800715D01*
X54788433Y45606338D01*
X54864932Y45421654D01*
X54969379Y45251210D01*
X55099205Y45099205D01*
X55251210Y44969379D01*
X55421654Y44864932D01*
X55606338Y44788433D01*
X55771762Y44748718D01*
X55771762Y43940027D01*
X55742570Y44010503D01*
X55605225Y44234629D01*
X55434510Y44434510D01*
X55234629Y44605225D01*
X55010503Y44742570D01*
X54767650Y44843163D01*
X54512051Y44904527D01*
X54250000Y44925151D01*
X53987949Y44904527D01*
X53732350Y44843163D01*
X53489497Y44742570D01*
X53265371Y44605225D01*
X53065490Y44434510D01*
X52894775Y44234629D01*
X52757430Y44010503D01*
X52656837Y43767650D01*
X52595473Y43512051D01*
X52574849Y43250000D01*
X52595473Y42987949D01*
X52656837Y42732350D01*
X52757430Y42489497D01*
X52894775Y42265371D01*
X53065490Y42065490D01*
X53265371Y41894775D01*
X53489497Y41757430D01*
X53529999Y41740654D01*
X53529999Y40259346D01*
X53489497Y40242570D01*
X53265371Y40105225D01*
X53065490Y39934510D01*
X52894775Y39734629D01*
X52833109Y39634000D01*
X48071841Y39634000D01*
X48043448Y39636252D01*
X47928893Y39627307D01*
X47928639Y39627246D01*
X47928451Y39627235D01*
X47876188Y39614688D01*
X47817147Y39600552D01*
X47816928Y39600461D01*
X47816722Y39600412D01*
X47766438Y39579583D01*
X47710963Y39556645D01*
X47710760Y39556521D01*
X47710565Y39556440D01*
X47664878Y39528443D01*
X47612955Y39496668D01*
X47612796Y39496527D01*
X47612594Y39496403D01*
X47525221Y39421779D01*
X47506747Y39400149D01*
X47261229Y39154931D01*
X47261229Y53600000D01*
X55771762Y53600000D01*
G37*
G36*
X49191580Y11763956D02*
X47261229Y9833605D01*
X47261229Y10861501D01*
X47261454Y10861900D01*
X47323591Y10999776D01*
X47373014Y11142703D01*
X47380133Y11175171D01*
X47381864Y11208382D01*
X47378377Y11241455D01*
X47369760Y11273575D01*
X47356224Y11303952D01*
X47338103Y11331837D01*
X47315843Y11356544D01*
X47289992Y11377465D01*
X47261229Y11394059D01*
X47261229Y11841422D01*
X47289263Y11857596D01*
X47314957Y11878390D01*
X47337082Y11902947D01*
X47355093Y11930663D01*
X47368546Y11960856D01*
X47377111Y11992781D01*
X47380576Y12025653D01*
X47378857Y12058662D01*
X47371373Y12090812D01*
X47323591Y12234225D01*
X47261454Y12372101D01*
X47261229Y12372500D01*
X47261229Y13693977D01*
X49191580Y11763956D01*
G37*
G36*
X55904527Y21512051D02*
X55843163Y21767650D01*
X55742570Y22010503D01*
X55605225Y22234629D01*
X55434510Y22434510D01*
X55234629Y22605225D01*
X55010503Y22742570D01*
X54767650Y22843163D01*
X54512051Y22904527D01*
X54250000Y22925151D01*
X53987949Y22904527D01*
X53732350Y22843163D01*
X53528762Y22758834D01*
X53528762Y24180000D01*
X54433543Y24180000D01*
X54450000Y24178705D01*
X54515905Y24183891D01*
X54580187Y24199324D01*
X54641264Y24224623D01*
X54697631Y24259165D01*
X54747901Y24302099D01*
X54790835Y24352369D01*
X54825377Y24408736D01*
X54850676Y24469813D01*
X54866109Y24534095D01*
X54871295Y24600000D01*
X54870000Y24616457D01*
X54870000Y25383543D01*
X54871295Y25400000D01*
X54866109Y25465905D01*
X54850676Y25530187D01*
X54825377Y25591264D01*
X54790835Y25647631D01*
X54747901Y25697901D01*
X54697631Y25740835D01*
X54641264Y25775377D01*
X54580187Y25800676D01*
X54515905Y25816109D01*
X54450000Y25821295D01*
X54433543Y25820000D01*
X54230000Y25820000D01*
X54230000Y25918542D01*
X54257413Y25984722D01*
X54284236Y26096451D01*
X54293252Y26211000D01*
X54291000Y26239612D01*
X54291000Y29180000D01*
X54433543Y29180000D01*
X54450000Y29178705D01*
X54515905Y29183891D01*
X54580187Y29199324D01*
X54641264Y29224623D01*
X54697631Y29259165D01*
X54710319Y29270001D01*
X55171375Y29270001D01*
X55200000Y29267748D01*
X55314549Y29276764D01*
X55426278Y29303587D01*
X55532435Y29347559D01*
X55630407Y29407596D01*
X55717780Y29482220D01*
X55792404Y29569593D01*
X55852441Y29667565D01*
X55896413Y29773722D01*
X55923236Y29885451D01*
X55932252Y30000000D01*
X55930000Y30028612D01*
X55930000Y30697626D01*
X57451846Y32219472D01*
X57482350Y32206837D01*
X57737949Y32145473D01*
X58000000Y32124849D01*
X58262051Y32145473D01*
X58517650Y32206837D01*
X58760503Y32307430D01*
X58984629Y32444775D01*
X59184510Y32615490D01*
X59355225Y32815371D01*
X59492570Y33039497D01*
X59593163Y33282350D01*
X59654527Y33537949D01*
X59670000Y33800000D01*
X59654527Y34062051D01*
X59593163Y34317650D01*
X59492570Y34560503D01*
X59355225Y34784629D01*
X59184510Y34984510D01*
X58984629Y35155225D01*
X58760503Y35292570D01*
X58517650Y35393163D01*
X58262051Y35454527D01*
X58000000Y35475151D01*
X57737949Y35454527D01*
X57482350Y35393163D01*
X57239497Y35292570D01*
X57015371Y35155225D01*
X56815490Y34984510D01*
X56644775Y34784629D01*
X56507430Y34560503D01*
X56406837Y34317650D01*
X56345473Y34062051D01*
X56324849Y33800000D01*
X56345473Y33537949D01*
X56406837Y33282350D01*
X56419472Y33251848D01*
X54704052Y31536428D01*
X54682219Y31517781D01*
X54607595Y31430407D01*
X54547558Y31332436D01*
X54503586Y31226278D01*
X54476763Y31114550D01*
X54476757Y31114444D01*
X54467750Y31000000D01*
X54469999Y30971423D01*
X54469999Y30819721D01*
X54450000Y30821295D01*
X54433543Y30820000D01*
X53528762Y30820000D01*
X53528762Y31668368D01*
X53632235Y31739830D01*
X53748399Y31836665D01*
X53855335Y31943601D01*
X53952170Y32059765D01*
X54038111Y32184203D01*
X54112454Y32315900D01*
X54174591Y32453776D01*
X54224014Y32596703D01*
X54231133Y32629171D01*
X54232864Y32662382D01*
X54229377Y32695455D01*
X54220760Y32727575D01*
X54207224Y32757952D01*
X54189103Y32785837D01*
X54166843Y32810544D01*
X54140992Y32831465D01*
X54112186Y32848084D01*
X54081135Y32859993D01*
X54048603Y32866897D01*
X54015392Y32868628D01*
X53982319Y32865141D01*
X53950199Y32856524D01*
X53919822Y32842988D01*
X53891937Y32824867D01*
X53867230Y32802607D01*
X53846309Y32776756D01*
X53829690Y32747950D01*
X53818406Y32716714D01*
X53782678Y32609478D01*
X53736216Y32506383D01*
X53680627Y32407909D01*
X53616366Y32314861D01*
X53543959Y32228002D01*
X53528762Y32212805D01*
X53528762Y33929196D01*
X53543959Y33913999D01*
X53616366Y33827140D01*
X53680627Y33734092D01*
X53736216Y33635618D01*
X53782678Y33532523D01*
X53819633Y33425650D01*
X53830852Y33394604D01*
X53847370Y33365973D01*
X53868164Y33340279D01*
X53892721Y33318154D01*
X53920437Y33300143D01*
X53950630Y33286690D01*
X53982555Y33278125D01*
X54015427Y33274660D01*
X54048436Y33276379D01*
X54080770Y33283242D01*
X54111632Y33295078D01*
X54140263Y33311596D01*
X54165957Y33332390D01*
X54188082Y33356947D01*
X54206093Y33384663D01*
X54219546Y33414856D01*
X54228111Y33446781D01*
X54231576Y33479653D01*
X54229857Y33512662D01*
X54222373Y33544812D01*
X54174591Y33688225D01*
X54112454Y33826101D01*
X54038111Y33957798D01*
X53952170Y34082236D01*
X53855335Y34198400D01*
X53748399Y34305336D01*
X53632235Y34402171D01*
X53528762Y34473633D01*
X53528762Y35671000D01*
X55558410Y35671000D01*
X55587000Y35668750D01*
X55701444Y35677757D01*
X55701550Y35677763D01*
X55813278Y35704586D01*
X55919436Y35748558D01*
X56017407Y35808595D01*
X56104781Y35883219D01*
X56123440Y35905066D01*
X56351374Y36133000D01*
X58963625Y36133000D01*
X60334000Y34762625D01*
X60334000Y29566376D01*
X58548152Y27780528D01*
X58517650Y27793163D01*
X58262051Y27854527D01*
X58000000Y27875151D01*
X57737949Y27854527D01*
X57482350Y27793163D01*
X57239497Y27692570D01*
X57015371Y27555225D01*
X56815490Y27384510D01*
X56644775Y27184629D01*
X56507430Y26960503D01*
X56406837Y26717650D01*
X56345473Y26462051D01*
X56324849Y26200000D01*
X56345473Y25937949D01*
X56406837Y25682350D01*
X56507430Y25439497D01*
X56644775Y25215371D01*
X56815490Y25015490D01*
X57015371Y24844775D01*
X57239497Y24707430D01*
X57270000Y24694795D01*
X57270000Y17966413D01*
X55911632Y16608275D01*
X55920000Y16750000D01*
X55904527Y17012051D01*
X55843163Y17267650D01*
X55742570Y17510503D01*
X55605225Y17734629D01*
X55434510Y17934510D01*
X55234629Y18105225D01*
X55010503Y18242570D01*
X54970000Y18259347D01*
X54970000Y19740653D01*
X55010503Y19757430D01*
X55234629Y19894775D01*
X55434510Y20065490D01*
X55605225Y20265371D01*
X55742570Y20489497D01*
X55843163Y20732350D01*
X55904527Y20987949D01*
X55920000Y21250000D01*
X55904527Y21512051D01*
G37*
G36*
X53489497Y22742570D02*
X53265371Y22605225D01*
X53065490Y22434510D01*
X52894775Y22234629D01*
X52757430Y22010503D01*
X52740653Y21970000D01*
X51713240Y21970000D01*
X51713240Y23322499D01*
X51747899Y23352101D01*
X51790834Y23402370D01*
X51825375Y23458737D01*
X51850674Y23519813D01*
X51866107Y23584095D01*
X51868052Y23617039D01*
X51868054Y23617047D01*
X51870000Y23650000D01*
X51870000Y23735001D01*
X51868055Y23767954D01*
X51860339Y23800095D01*
X51847689Y23830634D01*
X51830418Y23858818D01*
X51808951Y23883953D01*
X51785163Y23904269D01*
X51747899Y23947899D01*
X51713240Y23977501D01*
X51713240Y24122499D01*
X51747899Y24152101D01*
X51785169Y24195738D01*
X51808950Y24216048D01*
X51830417Y24241183D01*
X51847688Y24269366D01*
X51860338Y24299905D01*
X51868054Y24332046D01*
X51870000Y24364999D01*
X51870000Y24450000D01*
X51868055Y24482953D01*
X51868052Y24482967D01*
X51866107Y24515905D01*
X51850674Y24580187D01*
X51825375Y24641263D01*
X51790834Y24697630D01*
X51747899Y24747899D01*
X51713240Y24777501D01*
X51713240Y25222496D01*
X51747901Y25252099D01*
X51790835Y25302369D01*
X51825377Y25358736D01*
X51850676Y25419813D01*
X51866109Y25484095D01*
X51871295Y25550000D01*
X51870000Y25566457D01*
X51870000Y26333543D01*
X51871295Y26350000D01*
X51866109Y26415905D01*
X51850676Y26480187D01*
X51825377Y26541264D01*
X51790835Y26597631D01*
X51747901Y26647901D01*
X51713240Y26677504D01*
X51713240Y28322496D01*
X51747901Y28352099D01*
X51790835Y28402369D01*
X51825377Y28458736D01*
X51850676Y28519813D01*
X51866109Y28584095D01*
X51871295Y28650000D01*
X51870000Y28666457D01*
X51870000Y29433543D01*
X51871295Y29450000D01*
X51866109Y29515905D01*
X51850676Y29580187D01*
X51825377Y29641264D01*
X51790835Y29697631D01*
X51747901Y29747901D01*
X51713240Y29777504D01*
X51713240Y30222499D01*
X51747899Y30252101D01*
X51790834Y30302370D01*
X51825375Y30358737D01*
X51850674Y30419813D01*
X51866107Y30484095D01*
X51868052Y30517039D01*
X51868054Y30517047D01*
X51870000Y30550000D01*
X51870000Y30635001D01*
X51868055Y30667954D01*
X51860339Y30700095D01*
X51847689Y30730634D01*
X51830418Y30758818D01*
X51808951Y30783953D01*
X51785163Y30804269D01*
X51747899Y30847899D01*
X51713240Y30877501D01*
X51713240Y31022499D01*
X51747899Y31052101D01*
X51785169Y31095738D01*
X51808950Y31116048D01*
X51830417Y31141183D01*
X51847688Y31169366D01*
X51860338Y31199905D01*
X51868054Y31232046D01*
X51870000Y31264999D01*
X51870000Y31350000D01*
X51868055Y31382953D01*
X51868052Y31382967D01*
X51866107Y31415905D01*
X51850674Y31480187D01*
X51825375Y31541263D01*
X51790834Y31597630D01*
X51750772Y31644535D01*
X51865899Y31579546D01*
X52003775Y31517409D01*
X52146702Y31467986D01*
X52179172Y31460867D01*
X52212383Y31459137D01*
X52245455Y31462623D01*
X52277576Y31471241D01*
X52307952Y31484776D01*
X52335838Y31502898D01*
X52360545Y31525158D01*
X52381466Y31551009D01*
X52398085Y31579815D01*
X52409993Y31610866D01*
X52416897Y31643398D01*
X52418627Y31676609D01*
X52415141Y31709681D01*
X52406523Y31741802D01*
X52392988Y31772178D01*
X52374866Y31800064D01*
X52352606Y31824771D01*
X52326755Y31845692D01*
X52297949Y31862311D01*
X52266713Y31873594D01*
X52159477Y31909322D01*
X52056382Y31955784D01*
X51957908Y32011373D01*
X51864860Y32075634D01*
X51778001Y32148041D01*
X51713240Y32212802D01*
X51713240Y33929199D01*
X51778001Y33993960D01*
X51864860Y34066367D01*
X51957908Y34130628D01*
X52056382Y34186217D01*
X52159477Y34232679D01*
X52266350Y34269634D01*
X52297396Y34280851D01*
X52326027Y34297369D01*
X52351721Y34318163D01*
X52373846Y34342720D01*
X52391858Y34370437D01*
X52405311Y34400629D01*
X52413876Y34432554D01*
X52417341Y34465426D01*
X52415622Y34498436D01*
X52408759Y34530770D01*
X52396923Y34561632D01*
X52380405Y34590263D01*
X52359611Y34615957D01*
X52335054Y34638082D01*
X52307337Y34656094D01*
X52277145Y34669547D01*
X52245220Y34678112D01*
X52212348Y34681577D01*
X52179338Y34679858D01*
X52147188Y34672374D01*
X52003775Y34624592D01*
X51865899Y34562455D01*
X51734202Y34488112D01*
X51713240Y34473635D01*
X51713240Y35671000D01*
X53528762Y35671000D01*
X53528762Y34473633D01*
X53507797Y34488112D01*
X53376100Y34562455D01*
X53238224Y34624592D01*
X53095297Y34674015D01*
X53062830Y34681132D01*
X53029619Y34682863D01*
X52996546Y34679376D01*
X52964426Y34670759D01*
X52934049Y34657224D01*
X52906164Y34639103D01*
X52881456Y34616842D01*
X52860536Y34590991D01*
X52843917Y34562186D01*
X52832008Y34531135D01*
X52825104Y34498604D01*
X52823373Y34465393D01*
X52826860Y34432320D01*
X52835477Y34400200D01*
X52849012Y34369823D01*
X52867133Y34341938D01*
X52889394Y34317230D01*
X52915245Y34296310D01*
X52944050Y34279691D01*
X52975286Y34268407D01*
X53082522Y34232679D01*
X53185617Y34186217D01*
X53284091Y34130628D01*
X53377139Y34066367D01*
X53463998Y33993960D01*
X53528762Y33929196D01*
X53528762Y32212805D01*
X53463998Y32148041D01*
X53377139Y32075634D01*
X53284091Y32011373D01*
X53185617Y31955784D01*
X53082522Y31909322D01*
X52975649Y31872367D01*
X52944605Y31861148D01*
X52915974Y31844630D01*
X52890280Y31823836D01*
X52868155Y31799279D01*
X52850144Y31771563D01*
X52836690Y31741371D01*
X52828125Y31709446D01*
X52824660Y31676574D01*
X52826380Y31643565D01*
X52833242Y31611231D01*
X52845078Y31580369D01*
X52861596Y31551738D01*
X52882390Y31526044D01*
X52906947Y31503919D01*
X52934663Y31485908D01*
X52964855Y31472454D01*
X52996780Y31463889D01*
X53029652Y31460424D01*
X53062661Y31462144D01*
X53094811Y31469627D01*
X53238224Y31517409D01*
X53376100Y31579546D01*
X53507797Y31653889D01*
X53528762Y31668368D01*
X53528762Y30820000D01*
X52566457Y30820000D01*
X52550000Y30821295D01*
X52484095Y30816109D01*
X52419813Y30800676D01*
X52358736Y30775377D01*
X52302369Y30740835D01*
X52252099Y30697901D01*
X52209165Y30647631D01*
X52174623Y30591264D01*
X52149324Y30530187D01*
X52133891Y30465905D01*
X52128705Y30400000D01*
X52130000Y30383543D01*
X52130000Y29616457D01*
X52128705Y29600000D01*
X52133891Y29534095D01*
X52149324Y29469813D01*
X52174623Y29408736D01*
X52209165Y29352369D01*
X52252099Y29302099D01*
X52302369Y29259165D01*
X52358736Y29224623D01*
X52419813Y29199324D01*
X52484095Y29183891D01*
X52550000Y29178705D01*
X52566457Y29180000D01*
X52830999Y29180000D01*
X52830999Y26442459D01*
X52803586Y26376278D01*
X52776763Y26264550D01*
X52776757Y26264444D01*
X52767750Y26150000D01*
X52769999Y26121423D01*
X52769999Y25820000D01*
X52566457Y25820000D01*
X52550000Y25821295D01*
X52484095Y25816109D01*
X52419813Y25800676D01*
X52358736Y25775377D01*
X52302369Y25740835D01*
X52252099Y25697901D01*
X52209165Y25647631D01*
X52174623Y25591264D01*
X52149324Y25530187D01*
X52133891Y25465905D01*
X52128705Y25400000D01*
X52130000Y25383543D01*
X52130000Y24616457D01*
X52128705Y24600000D01*
X52133891Y24534095D01*
X52149324Y24469813D01*
X52174623Y24408736D01*
X52209165Y24352369D01*
X52252099Y24302099D01*
X52302369Y24259165D01*
X52358736Y24224623D01*
X52419813Y24199324D01*
X52484095Y24183891D01*
X52550000Y24178705D01*
X52566457Y24180000D01*
X53528762Y24180000D01*
X53528762Y22758834D01*
X53489497Y22742570D01*
G37*
G36*
X51698040Y32228002D02*
X51625633Y32314861D01*
X51561372Y32407909D01*
X51505783Y32506383D01*
X51459321Y32609478D01*
X51422366Y32716351D01*
X51411149Y32747395D01*
X51394631Y32776026D01*
X51373837Y32801720D01*
X51349280Y32823846D01*
X51321564Y32841857D01*
X51291372Y32855311D01*
X51259447Y32863876D01*
X51226575Y32867341D01*
X51193565Y32865621D01*
X51161231Y32858759D01*
X51130369Y32846923D01*
X51101738Y32830405D01*
X51076044Y32809611D01*
X51053918Y32785054D01*
X51035907Y32757338D01*
X51022453Y32727146D01*
X51013888Y32695221D01*
X51010423Y32662349D01*
X51012143Y32629339D01*
X51019626Y32597189D01*
X51067408Y32453776D01*
X51129545Y32315900D01*
X51203888Y32184203D01*
X51289829Y32059765D01*
X51386664Y31943601D01*
X51493600Y31836665D01*
X51609764Y31739830D01*
X51614856Y31736313D01*
X51580187Y31750674D01*
X51515905Y31766107D01*
X51450000Y31771293D01*
X51433568Y31770000D01*
X50814999Y31770000D01*
X50782046Y31768055D01*
X50749905Y31760339D01*
X50719366Y31747689D01*
X50691182Y31730418D01*
X50666047Y31708951D01*
X50644580Y31683816D01*
X50627309Y31655632D01*
X50614659Y31625093D01*
X50606943Y31592952D01*
X50604349Y31559999D01*
X50606943Y31527046D01*
X50614659Y31494905D01*
X50627309Y31464366D01*
X50644580Y31436182D01*
X50666047Y31411047D01*
X50691182Y31389580D01*
X50719366Y31372309D01*
X50749905Y31359659D01*
X50782046Y31351943D01*
X50814948Y31350000D01*
X50499354Y31350000D01*
X50499354Y33117044D01*
X50529687Y33124326D01*
X50590763Y33149625D01*
X50647130Y33184166D01*
X50697399Y33227101D01*
X50740334Y33277370D01*
X50774875Y33333737D01*
X50800174Y33394813D01*
X50815607Y33459095D01*
X50817552Y33492039D01*
X50817554Y33492047D01*
X50819500Y33525000D01*
X50819500Y33685001D01*
X50817555Y33717954D01*
X50809839Y33750095D01*
X50797189Y33780634D01*
X50779918Y33808818D01*
X50758451Y33833953D01*
X50733316Y33855420D01*
X50705132Y33872691D01*
X50674593Y33885341D01*
X50642452Y33893057D01*
X50609499Y33895651D01*
X50599727Y33894882D01*
X50590763Y33900375D01*
X50529687Y33925674D01*
X50499354Y33932956D01*
X50499354Y34067044D01*
X50529687Y34074326D01*
X50590763Y34099625D01*
X50599729Y34105119D01*
X50609499Y34104350D01*
X50642452Y34106944D01*
X50674593Y34114660D01*
X50705132Y34127310D01*
X50733315Y34144581D01*
X50758450Y34166048D01*
X50779917Y34191183D01*
X50797188Y34219366D01*
X50809838Y34249905D01*
X50817554Y34282046D01*
X50819500Y34314999D01*
X50819500Y34475000D01*
X50817555Y34507953D01*
X50817552Y34507967D01*
X50815607Y34540905D01*
X50800174Y34605187D01*
X50774875Y34666263D01*
X50740334Y34722630D01*
X50697399Y34772899D01*
X50647130Y34815834D01*
X50590763Y34850375D01*
X50529687Y34875674D01*
X50499354Y34882956D01*
X50499354Y35671000D01*
X51713240Y35671000D01*
X51713240Y34473635D01*
X51609764Y34402171D01*
X51493600Y34305336D01*
X51386664Y34198400D01*
X51289829Y34082236D01*
X51203888Y33957798D01*
X51129545Y33826101D01*
X51067408Y33688225D01*
X51017985Y33545298D01*
X51010868Y33512829D01*
X51009138Y33479618D01*
X51012624Y33446545D01*
X51021241Y33414425D01*
X51034777Y33384048D01*
X51052898Y33356163D01*
X51075159Y33331456D01*
X51101010Y33310535D01*
X51129815Y33293916D01*
X51160866Y33282008D01*
X51193397Y33275104D01*
X51226608Y33273374D01*
X51259681Y33276860D01*
X51291801Y33285477D01*
X51322178Y33299013D01*
X51350063Y33317134D01*
X51374770Y33339395D01*
X51395691Y33365246D01*
X51412310Y33394051D01*
X51423593Y33425287D01*
X51459321Y33532523D01*
X51505783Y33635618D01*
X51561372Y33734092D01*
X51625633Y33827140D01*
X51698040Y33913999D01*
X51713240Y33929199D01*
X51713240Y32212802D01*
X51698040Y32228002D01*
G37*
G36*
X51697630Y30890834D02*
X51641263Y30925375D01*
X51581814Y30950000D01*
X51641263Y30974625D01*
X51697630Y31009166D01*
X51713240Y31022499D01*
X51713240Y30877501D01*
X51697630Y30890834D01*
G37*
G36*
X51697631Y29790835D02*
X51641264Y29825377D01*
X51580187Y29850676D01*
X51515905Y29866109D01*
X51450000Y29871295D01*
X51433543Y29870000D01*
X50499354Y29870000D01*
X50499354Y30550000D01*
X50814948Y30550000D01*
X50782046Y30548056D01*
X50749905Y30540340D01*
X50719366Y30527690D01*
X50691183Y30510419D01*
X50666048Y30488952D01*
X50644581Y30463817D01*
X50627310Y30435634D01*
X50614660Y30405095D01*
X50606944Y30372954D01*
X50604350Y30340001D01*
X50606944Y30307048D01*
X50614660Y30274907D01*
X50627310Y30244368D01*
X50644581Y30216185D01*
X50666048Y30191050D01*
X50691183Y30169583D01*
X50719366Y30152312D01*
X50749905Y30139662D01*
X50782046Y30131946D01*
X50814999Y30130000D01*
X51433568Y30130000D01*
X51450000Y30128707D01*
X51515905Y30133893D01*
X51580187Y30149326D01*
X51641263Y30174625D01*
X51697630Y30209166D01*
X51713240Y30222499D01*
X51713240Y29777504D01*
X51697631Y29790835D01*
G37*
G36*
X51697631Y26690835D02*
X51641264Y26725377D01*
X51580187Y26750676D01*
X51515905Y26766109D01*
X51450000Y26771295D01*
X51433543Y26770000D01*
X50499354Y26770000D01*
X50499354Y28230000D01*
X51433543Y28230000D01*
X51450000Y28228705D01*
X51515905Y28233891D01*
X51580187Y28249324D01*
X51641264Y28274623D01*
X51697631Y28309165D01*
X51713240Y28322496D01*
X51713240Y26677504D01*
X51697631Y26690835D01*
G37*
G36*
X51697630Y24790834D02*
X51641263Y24825375D01*
X51580187Y24850674D01*
X51515905Y24866107D01*
X51450000Y24871293D01*
X51433568Y24870000D01*
X50814999Y24870000D01*
X50782046Y24868055D01*
X50749905Y24860339D01*
X50719366Y24847689D01*
X50691182Y24830418D01*
X50666047Y24808951D01*
X50644580Y24783816D01*
X50627309Y24755632D01*
X50614659Y24725093D01*
X50606943Y24692952D01*
X50604349Y24659999D01*
X50606943Y24627046D01*
X50614659Y24594905D01*
X50627309Y24564366D01*
X50644580Y24536182D01*
X50666047Y24511047D01*
X50691182Y24489580D01*
X50719366Y24472309D01*
X50749905Y24459659D01*
X50782046Y24451943D01*
X50814948Y24450000D01*
X50499354Y24450000D01*
X50499354Y25130000D01*
X51433543Y25130000D01*
X51450000Y25128705D01*
X51515905Y25133891D01*
X51580187Y25149324D01*
X51641264Y25174623D01*
X51697631Y25209165D01*
X51713240Y25222496D01*
X51713240Y24777501D01*
X51697630Y24790834D01*
G37*
G36*
X51697630Y23990834D02*
X51641263Y24025375D01*
X51581814Y24050000D01*
X51641263Y24074625D01*
X51697630Y24109166D01*
X51713240Y24122499D01*
X51713240Y23977501D01*
X51697630Y23990834D01*
G37*
G36*
X50499354Y21970000D02*
X50499354Y23650000D01*
X50814948Y23650000D01*
X50782046Y23648056D01*
X50749905Y23640340D01*
X50719366Y23627690D01*
X50691183Y23610419D01*
X50666048Y23588952D01*
X50644581Y23563817D01*
X50627310Y23535634D01*
X50614660Y23505095D01*
X50606944Y23472954D01*
X50604350Y23440001D01*
X50606944Y23407048D01*
X50614660Y23374907D01*
X50627310Y23344368D01*
X50644581Y23316185D01*
X50666048Y23291050D01*
X50691183Y23269583D01*
X50719366Y23252312D01*
X50749905Y23239662D01*
X50782046Y23231946D01*
X50814999Y23230000D01*
X51433568Y23230000D01*
X51450000Y23228707D01*
X51515905Y23233893D01*
X51580187Y23249326D01*
X51641263Y23274625D01*
X51697630Y23309166D01*
X51713240Y23322499D01*
X51713240Y21970000D01*
X50499354Y21970000D01*
G37*
G36*
X50465405Y34891107D02*
X50399500Y34896293D01*
X50383068Y34895000D01*
X50176999Y34895000D01*
X50144046Y34893055D01*
X50111905Y34885339D01*
X50081366Y34872689D01*
X50053182Y34855418D01*
X50028047Y34833951D01*
X50006580Y34808816D01*
X49989309Y34780632D01*
X49976659Y34750093D01*
X49968943Y34717952D01*
X49966349Y34684999D01*
X49968943Y34652046D01*
X49976659Y34619905D01*
X49989309Y34589366D01*
X49993418Y34582661D01*
X49983393Y34540905D01*
X49978207Y34475000D01*
X49744498Y34475000D01*
X49740607Y34540905D01*
X49730582Y34582662D01*
X49734690Y34589366D01*
X49747340Y34619905D01*
X49755056Y34652046D01*
X49757650Y34684999D01*
X49755056Y34717952D01*
X49747340Y34750093D01*
X49734690Y34780632D01*
X49717419Y34808815D01*
X49695952Y34833950D01*
X49670817Y34855417D01*
X49642634Y34872688D01*
X49612095Y34885338D01*
X49579954Y34893054D01*
X49547001Y34895000D01*
X49340932Y34895000D01*
X49324500Y34896293D01*
X49258595Y34891107D01*
X49194313Y34875674D01*
X49133237Y34850375D01*
X49076870Y34815834D01*
X49026601Y34772899D01*
X49000002Y34741757D01*
X48973402Y34772902D01*
X48923132Y34815836D01*
X48868000Y34849621D01*
X48868000Y34922626D01*
X49192890Y35247516D01*
X49431650Y35304837D01*
X49674503Y35405430D01*
X49898629Y35542775D01*
X50048761Y35671000D01*
X50499354Y35671000D01*
X50499354Y34882956D01*
X50465405Y34891107D01*
G37*
G36*
X50465405Y33941107D02*
X50399500Y33946293D01*
X50399500Y34053707D01*
X50465405Y34058893D01*
X50499354Y34067044D01*
X50499354Y33932956D01*
X50465405Y33941107D01*
G37*
G36*
X49566457Y29870000D02*
X49550000Y29871295D01*
X49484095Y29866109D01*
X49419813Y29850676D01*
X49358736Y29825377D01*
X49302369Y29790835D01*
X49289684Y29780001D01*
X49252374Y29780001D01*
X49020000Y30012375D01*
X49020000Y30683543D01*
X49021295Y30700000D01*
X49016113Y30765854D01*
X49016110Y30765905D01*
X49000677Y30830188D01*
X48975378Y30891265D01*
X48940836Y30947632D01*
X48897902Y30997902D01*
X48847632Y31040836D01*
X48791265Y31075378D01*
X48730188Y31100677D01*
X48665905Y31116110D01*
X48600000Y31121296D01*
X48583530Y31120000D01*
X47416457Y31120000D01*
X47400000Y31121295D01*
X47334146Y31116113D01*
X47334095Y31116110D01*
X47269812Y31100677D01*
X47261229Y31097122D01*
X47261229Y33275536D01*
X47302598Y33227098D01*
X47352868Y33184164D01*
X47409235Y33149622D01*
X47470312Y33124323D01*
X47534595Y33108890D01*
X47600500Y33103704D01*
X47616970Y33105000D01*
X48659043Y33105000D01*
X48675500Y33103705D01*
X48741354Y33108887D01*
X48741405Y33108890D01*
X48805688Y33124323D01*
X48866765Y33149622D01*
X48923132Y33184164D01*
X48973402Y33227098D01*
X49000002Y33258243D01*
X49026601Y33227101D01*
X49076870Y33184166D01*
X49133237Y33149625D01*
X49194313Y33124326D01*
X49258595Y33108893D01*
X49324500Y33103707D01*
X49340932Y33105000D01*
X49547001Y33105000D01*
X49579954Y33106945D01*
X49612095Y33114661D01*
X49642634Y33127311D01*
X49670818Y33144582D01*
X49695953Y33166049D01*
X49717420Y33191184D01*
X49734691Y33219368D01*
X49747341Y33249907D01*
X49755057Y33282048D01*
X49757651Y33315001D01*
X49755057Y33347954D01*
X49747341Y33380095D01*
X49734691Y33410634D01*
X49730582Y33417339D01*
X49740607Y33459095D01*
X49744498Y33525000D01*
X49978207Y33525000D01*
X49983393Y33459095D01*
X49993418Y33417338D01*
X49989310Y33410634D01*
X49976660Y33380095D01*
X49968944Y33347954D01*
X49966350Y33315001D01*
X49968944Y33282048D01*
X49976660Y33249907D01*
X49989310Y33219368D01*
X50006581Y33191185D01*
X50028048Y33166050D01*
X50053183Y33144583D01*
X50081366Y33127312D01*
X50111905Y33114662D01*
X50144046Y33106946D01*
X50176999Y33105000D01*
X50383068Y33105000D01*
X50399500Y33103707D01*
X50465405Y33108893D01*
X50499354Y33117044D01*
X50499354Y31350000D01*
X50185052Y31350000D01*
X50217954Y31351944D01*
X50250095Y31359660D01*
X50280634Y31372310D01*
X50308817Y31389581D01*
X50333952Y31411048D01*
X50355419Y31436183D01*
X50372690Y31464366D01*
X50385340Y31494905D01*
X50393056Y31527046D01*
X50395650Y31559999D01*
X50393056Y31592952D01*
X50385340Y31625093D01*
X50372690Y31655632D01*
X50355419Y31683815D01*
X50333952Y31708950D01*
X50308817Y31730417D01*
X50280634Y31747688D01*
X50250095Y31760338D01*
X50217954Y31768054D01*
X50185001Y31770000D01*
X49566432Y31770000D01*
X49550000Y31771293D01*
X49484095Y31766107D01*
X49419813Y31750674D01*
X49358737Y31725375D01*
X49302370Y31690834D01*
X49252101Y31647899D01*
X49209166Y31597630D01*
X49174625Y31541263D01*
X49149326Y31480187D01*
X49133893Y31415905D01*
X49128707Y31350000D01*
X49130000Y31333568D01*
X49130000Y31264999D01*
X49131945Y31232046D01*
X49139661Y31199905D01*
X49152311Y31169366D01*
X49169582Y31141182D01*
X49191049Y31116047D01*
X49214837Y31095731D01*
X49252101Y31052101D01*
X49302370Y31009166D01*
X49358737Y30974625D01*
X49418186Y30950000D01*
X49358737Y30925375D01*
X49302370Y30890834D01*
X49252101Y30847899D01*
X49214831Y30804262D01*
X49191050Y30783952D01*
X49169583Y30758817D01*
X49152312Y30730634D01*
X49139662Y30700095D01*
X49131946Y30667954D01*
X49130000Y30635001D01*
X49130000Y30566432D01*
X49128707Y30550000D01*
X49133893Y30484095D01*
X49149326Y30419813D01*
X49174625Y30358737D01*
X49209166Y30302370D01*
X49252101Y30252101D01*
X49302370Y30209166D01*
X49358737Y30174625D01*
X49419813Y30149326D01*
X49484095Y30133893D01*
X49550000Y30128707D01*
X49566432Y30130000D01*
X50185001Y30130000D01*
X50217954Y30131945D01*
X50250095Y30139661D01*
X50280634Y30152311D01*
X50308818Y30169582D01*
X50333953Y30191049D01*
X50355420Y30216184D01*
X50372691Y30244368D01*
X50385341Y30274907D01*
X50393057Y30307048D01*
X50395651Y30340001D01*
X50393057Y30372954D01*
X50385341Y30405095D01*
X50372691Y30435634D01*
X50355420Y30463818D01*
X50333953Y30488953D01*
X50308818Y30510420D01*
X50280634Y30527691D01*
X50250095Y30540341D01*
X50217954Y30548057D01*
X50185052Y30550000D01*
X50499354Y30550000D01*
X50499354Y29870000D01*
X49566457Y29870000D01*
G37*
G36*
X49566457Y26770000D02*
X49550000Y26771295D01*
X49484095Y26766109D01*
X49419813Y26750676D01*
X49358736Y26725377D01*
X49302369Y26690835D01*
X49289683Y26680000D01*
X47261229Y26680000D01*
X47261229Y28902878D01*
X47269812Y28899323D01*
X47334095Y28883890D01*
X47400000Y28878704D01*
X47416470Y28880000D01*
X48087625Y28880000D01*
X48090851Y28876774D01*
X48103587Y28823722D01*
X48147559Y28717565D01*
X48207596Y28619593D01*
X48282220Y28532220D01*
X48369593Y28457596D01*
X48467565Y28397559D01*
X48573722Y28353587D01*
X48685451Y28326764D01*
X48800000Y28317748D01*
X48828612Y28320000D01*
X49289683Y28320000D01*
X49302369Y28309165D01*
X49358736Y28274623D01*
X49419813Y28249324D01*
X49484095Y28233891D01*
X49550000Y28228705D01*
X49566457Y28230000D01*
X50499354Y28230000D01*
X50499354Y26770000D01*
X49566457Y26770000D01*
G37*
G36*
X47290126Y21970000D02*
X47275676Y22030187D01*
X47261229Y22065065D01*
X47261229Y23534940D01*
X47275674Y23569813D01*
X47291107Y23634095D01*
X47293052Y23667044D01*
X47293053Y23667047D01*
X47294999Y23700000D01*
X47294999Y24035001D01*
X47293054Y24067954D01*
X47285338Y24100095D01*
X47272688Y24130634D01*
X47261229Y24149333D01*
X47261229Y24550668D01*
X47272687Y24569367D01*
X47285337Y24599905D01*
X47293053Y24632046D01*
X47294999Y24664999D01*
X47294999Y25000000D01*
X47293054Y25032953D01*
X47293052Y25032961D01*
X47291107Y25065905D01*
X47275674Y25130187D01*
X47261229Y25165060D01*
X47261229Y25220001D01*
X49289681Y25220001D01*
X49302369Y25209165D01*
X49358736Y25174623D01*
X49419813Y25149324D01*
X49484095Y25133891D01*
X49550000Y25128705D01*
X49566457Y25130000D01*
X50499354Y25130000D01*
X50499354Y24450000D01*
X50185052Y24450000D01*
X50217954Y24451944D01*
X50250095Y24459660D01*
X50280634Y24472310D01*
X50308817Y24489581D01*
X50333952Y24511048D01*
X50355419Y24536183D01*
X50372690Y24564366D01*
X50385340Y24594905D01*
X50393056Y24627046D01*
X50395650Y24659999D01*
X50393056Y24692952D01*
X50385340Y24725093D01*
X50372690Y24755632D01*
X50355419Y24783815D01*
X50333952Y24808950D01*
X50308817Y24830417D01*
X50280634Y24847688D01*
X50250095Y24860338D01*
X50217954Y24868054D01*
X50185001Y24870000D01*
X49566432Y24870000D01*
X49550000Y24871293D01*
X49484095Y24866107D01*
X49419813Y24850674D01*
X49358737Y24825375D01*
X49302370Y24790834D01*
X49252101Y24747899D01*
X49209166Y24697630D01*
X49174625Y24641263D01*
X49149326Y24580187D01*
X49133893Y24515905D01*
X49128707Y24450000D01*
X49130000Y24433568D01*
X49130000Y24364999D01*
X49131945Y24332046D01*
X49139661Y24299905D01*
X49152311Y24269366D01*
X49169582Y24241182D01*
X49191049Y24216047D01*
X49214837Y24195731D01*
X49252101Y24152101D01*
X49302370Y24109166D01*
X49358737Y24074625D01*
X49418186Y24050000D01*
X49358737Y24025375D01*
X49302370Y23990834D01*
X49252101Y23947899D01*
X49214831Y23904262D01*
X49191050Y23883952D01*
X49169583Y23858817D01*
X49152312Y23830634D01*
X49139662Y23800095D01*
X49131946Y23767954D01*
X49130000Y23735001D01*
X49130000Y23666432D01*
X49128707Y23650000D01*
X49133893Y23584095D01*
X49149326Y23519813D01*
X49174625Y23458737D01*
X49209166Y23402370D01*
X49252101Y23352101D01*
X49302370Y23309166D01*
X49358737Y23274625D01*
X49419813Y23249326D01*
X49484095Y23233893D01*
X49550000Y23228707D01*
X49566432Y23230000D01*
X50185001Y23230000D01*
X50217954Y23231945D01*
X50250095Y23239661D01*
X50280634Y23252311D01*
X50308818Y23269582D01*
X50333953Y23291049D01*
X50355420Y23316184D01*
X50372691Y23344368D01*
X50385341Y23374907D01*
X50393057Y23407048D01*
X50395651Y23440001D01*
X50393057Y23472954D01*
X50385341Y23505095D01*
X50372691Y23535634D01*
X50355420Y23563818D01*
X50333953Y23588953D01*
X50308818Y23610420D01*
X50280634Y23627691D01*
X50250095Y23640341D01*
X50217954Y23648057D01*
X50185052Y23650000D01*
X50499354Y23650000D01*
X50499354Y21970000D01*
X47290126Y21970000D01*
G37*
G36*
X47141116Y6719756D02*
X46949161Y6799267D01*
X46904455Y6810000D01*
X46949161Y6820733D01*
X47141116Y6900244D01*
X47261229Y6973849D01*
X47261229Y6646151D01*
X47141116Y6719756D01*
G37*
G36*
X45818773Y400000D02*
X45818773Y1893894D01*
X45838927Y1879972D01*
X45942960Y1821226D01*
X46051874Y1772116D01*
X46083511Y1762105D01*
X46116372Y1757381D01*
X46149568Y1757857D01*
X46182281Y1763519D01*
X46213706Y1774229D01*
X46243067Y1789724D01*
X46269644Y1809620D01*
X46292781Y1833430D01*
X46311908Y1860565D01*
X46326556Y1890359D01*
X46336361Y1922077D01*
X46341085Y1954938D01*
X46340609Y1988134D01*
X46334947Y2020847D01*
X46324237Y2052272D01*
X46308742Y2081633D01*
X46288846Y2108210D01*
X46265036Y2131347D01*
X46237901Y2150474D01*
X46207867Y2164517D01*
X46133343Y2197112D01*
X46062484Y2237125D01*
X45995529Y2283375D01*
X45933025Y2335484D01*
X45875483Y2393026D01*
X45823374Y2455530D01*
X45818773Y2462191D01*
X45818773Y3537810D01*
X45823374Y3544471D01*
X45875483Y3606975D01*
X45933025Y3664517D01*
X45995529Y3716626D01*
X46062484Y3762876D01*
X46133343Y3802889D01*
X46207527Y3836339D01*
X46237430Y3850320D01*
X46264447Y3869364D01*
X46288152Y3892400D01*
X46307962Y3918861D01*
X46323388Y3948094D01*
X46334052Y3979382D01*
X46339690Y4011952D01*
X46340163Y4045003D01*
X46335460Y4077721D01*
X46325697Y4109300D01*
X46311114Y4138964D01*
X46292070Y4165981D01*
X46269034Y4189686D01*
X46242573Y4209496D01*
X46213340Y4224922D01*
X46182052Y4235586D01*
X46149482Y4241224D01*
X46116431Y4241697D01*
X46083713Y4236994D01*
X46052373Y4226629D01*
X45942960Y4178775D01*
X45838927Y4120029D01*
X45818773Y4106107D01*
X45818773Y4433848D01*
X45938884Y4360244D01*
X46130839Y4280733D01*
X46332870Y4232230D01*
X46540000Y4215929D01*
X46747130Y4232230D01*
X46949161Y4280733D01*
X47141116Y4360244D01*
X47261229Y4433849D01*
X47261229Y4106105D01*
X47241072Y4120029D01*
X47137039Y4178775D01*
X47028125Y4227885D01*
X46996490Y4237895D01*
X46963629Y4242618D01*
X46930433Y4242143D01*
X46897720Y4236481D01*
X46866296Y4225771D01*
X46836934Y4210277D01*
X46810357Y4190380D01*
X46787220Y4166571D01*
X46768093Y4139436D01*
X46753445Y4109642D01*
X46743639Y4077924D01*
X46738916Y4045063D01*
X46739391Y4011867D01*
X46745053Y3979154D01*
X46755763Y3947730D01*
X46771257Y3918368D01*
X46791154Y3891791D01*
X46814963Y3868654D01*
X46842098Y3849527D01*
X46872132Y3835484D01*
X46946656Y3802889D01*
X47017515Y3762876D01*
X47084470Y3716626D01*
X47146974Y3664517D01*
X47204516Y3606975D01*
X47256625Y3544471D01*
X47261229Y3537806D01*
X47261229Y2462195D01*
X47256625Y2455530D01*
X47204516Y2393026D01*
X47146974Y2335484D01*
X47084470Y2283375D01*
X47017515Y2237125D01*
X46946656Y2197112D01*
X46872472Y2163662D01*
X46842571Y2149679D01*
X46815554Y2130635D01*
X46791849Y2107599D01*
X46772040Y2081139D01*
X46756613Y2051906D01*
X46745950Y2020619D01*
X46740312Y1988049D01*
X46739838Y1954998D01*
X46744541Y1922280D01*
X46754304Y1890701D01*
X46768887Y1861037D01*
X46787931Y1834020D01*
X46810967Y1810315D01*
X46837427Y1790506D01*
X46866660Y1775079D01*
X46897947Y1764416D01*
X46930517Y1758778D01*
X46963568Y1758304D01*
X46996286Y1763007D01*
X47027626Y1773372D01*
X47137039Y1821226D01*
X47241072Y1879972D01*
X47261229Y1893896D01*
X47261229Y400000D01*
X45818773Y400000D01*
G37*
G36*
X31979701Y14873959D02*
X31959775Y14850629D01*
X31856808Y14682603D01*
X31856808Y14864287D01*
X31979701Y14873959D01*
G37*
G36*
X32937665Y24067291D02*
X32937809Y24061793D01*
X32939312Y24004367D01*
X32951358Y23939365D01*
X32973425Y23877047D01*
X33004969Y23818949D01*
X33045213Y23766501D01*
X33093167Y23720994D01*
X33147648Y23683549D01*
X33162569Y23676432D01*
X33287999Y23604017D01*
X33287999Y17256595D01*
X33287178Y17246164D01*
X33267570Y17293503D01*
X33130225Y17517629D01*
X32959510Y17717510D01*
X32759629Y17888225D01*
X32535503Y18025570D01*
X32292650Y18126163D01*
X32049186Y18184614D01*
X32051125Y18187141D01*
X32051130Y18187149D01*
X32053445Y18191415D01*
X32082670Y18245238D01*
X32082673Y18245246D01*
X32082674Y18245248D01*
X32087734Y18259537D01*
X32104739Y18307555D01*
X32104741Y18307564D01*
X32106506Y18317089D01*
X32116787Y18372557D01*
X32116787Y18372562D01*
X32116788Y18372567D01*
X32117210Y18388682D01*
X32118519Y18438643D01*
X32109891Y18504186D01*
X32109888Y18504195D01*
X32109888Y18504197D01*
X32107777Y18511323D01*
X32091116Y18567573D01*
X32062656Y18627243D01*
X32053295Y18640863D01*
X31856808Y18981179D01*
X31856808Y22986434D01*
X32937665Y24067291D01*
G37*
G36*
X35738322Y400000D02*
X35752440Y416530D01*
X35819879Y526580D01*
X35869272Y645825D01*
X35899402Y771328D01*
X35909529Y900000D01*
X35907000Y932133D01*
X35907000Y1714558D01*
X36010503Y1757430D01*
X36234629Y1894775D01*
X36434510Y2065490D01*
X36605225Y2265371D01*
X36742570Y2489497D01*
X36843163Y2732350D01*
X36904527Y2987949D01*
X36920000Y3250000D01*
X36904527Y3512051D01*
X36843163Y3767650D01*
X36742570Y4010503D01*
X36605225Y4234629D01*
X36434510Y4434510D01*
X36234629Y4605225D01*
X36010503Y4742570D01*
X35907000Y4785442D01*
X35907000Y9767608D01*
X35915336Y9777368D01*
X35949878Y9833735D01*
X35975177Y9894812D01*
X35990610Y9959095D01*
X35995796Y10025000D01*
X35994500Y10041470D01*
X35994500Y10958543D01*
X35995795Y10975000D01*
X35990613Y11040854D01*
X35990610Y11040905D01*
X35975177Y11105188D01*
X35949878Y11166265D01*
X35915336Y11222632D01*
X35872402Y11272902D01*
X35822132Y11315836D01*
X35765765Y11350378D01*
X35704688Y11375677D01*
X35640405Y11391110D01*
X35574500Y11396296D01*
X35558030Y11395000D01*
X34615957Y11395000D01*
X34599500Y11396295D01*
X34533646Y11391113D01*
X34533595Y11391110D01*
X34469312Y11375677D01*
X34408235Y11350378D01*
X34351868Y11315836D01*
X34301598Y11272902D01*
X34258664Y11222632D01*
X34224122Y11166265D01*
X34198823Y11105188D01*
X34183390Y11040905D01*
X34178204Y10975000D01*
X34179500Y10958530D01*
X34179500Y10041457D01*
X34178205Y10025000D01*
X34183387Y9959146D01*
X34183390Y9959095D01*
X34198823Y9894812D01*
X34224122Y9833735D01*
X34258664Y9777368D01*
X34266999Y9767609D01*
X34266999Y4606223D01*
X34265371Y4605225D01*
X34065490Y4434510D01*
X33894775Y4234629D01*
X33757430Y4010503D01*
X33656837Y3767650D01*
X33595473Y3512051D01*
X33574849Y3250000D01*
X33595473Y2987949D01*
X33656837Y2732350D01*
X33757430Y2489497D01*
X33894775Y2265371D01*
X34065490Y2065490D01*
X34265371Y1894775D01*
X34266999Y1893777D01*
X34266999Y1720000D01*
X31856808Y1720000D01*
X31856808Y2923867D01*
X31860000Y2923616D01*
X32184818Y2949179D01*
X32501638Y3025241D01*
X32802659Y3149928D01*
X33080468Y3320170D01*
X33328225Y3531775D01*
X33539830Y3779532D01*
X33710072Y4057341D01*
X33834759Y4358362D01*
X33910821Y4675182D01*
X33930000Y5000000D01*
X33910821Y5324818D01*
X33834759Y5641638D01*
X33710072Y5942659D01*
X33539830Y6220468D01*
X33328225Y6468225D01*
X33080468Y6679830D01*
X32802659Y6850072D01*
X32501638Y6974759D01*
X32184818Y7050821D01*
X31860000Y7076384D01*
X31856808Y7076133D01*
X31856808Y13049397D01*
X31959775Y12881371D01*
X32130490Y12681490D01*
X32330371Y12510775D01*
X32554497Y12373430D01*
X32797350Y12272837D01*
X33052949Y12211473D01*
X33315000Y12190849D01*
X33577051Y12211473D01*
X33832650Y12272837D01*
X34075503Y12373430D01*
X34299629Y12510775D01*
X34499510Y12681490D01*
X34670225Y12881371D01*
X34807570Y13105497D01*
X34908163Y13348350D01*
X34969527Y13603949D01*
X34977760Y13743386D01*
X35175846Y13941472D01*
X35206350Y13928837D01*
X35461949Y13867473D01*
X35724000Y13846849D01*
X35986051Y13867473D01*
X36241650Y13928837D01*
X36484503Y14029430D01*
X36708629Y14166775D01*
X36908510Y14337490D01*
X36997999Y14442268D01*
X36997999Y12842375D01*
X36417052Y12261428D01*
X36395219Y12242781D01*
X36320595Y12155407D01*
X36260558Y12057436D01*
X36216586Y11951278D01*
X36189763Y11839550D01*
X36189757Y11839444D01*
X36180750Y11725000D01*
X36182999Y11696423D01*
X36182999Y11318980D01*
X36177868Y11315836D01*
X36127598Y11272902D01*
X36084664Y11222632D01*
X36050122Y11166265D01*
X36024823Y11105188D01*
X36009390Y11040905D01*
X36004204Y10975000D01*
X36005500Y10958530D01*
X36005500Y10041457D01*
X36004205Y10025000D01*
X36009387Y9959146D01*
X36009390Y9959095D01*
X36024823Y9894812D01*
X36050122Y9833735D01*
X36084664Y9777368D01*
X36127598Y9727098D01*
X36177868Y9684164D01*
X36234235Y9649622D01*
X36295312Y9624323D01*
X36359595Y9608890D01*
X36425500Y9603704D01*
X36441970Y9605000D01*
X37384043Y9605000D01*
X37400500Y9603705D01*
X37466354Y9608887D01*
X37466405Y9608890D01*
X37530688Y9624323D01*
X37591765Y9649622D01*
X37648132Y9684164D01*
X37698402Y9727098D01*
X37741336Y9777368D01*
X37775878Y9833735D01*
X37801177Y9894812D01*
X37816610Y9959095D01*
X37821796Y10025000D01*
X37820500Y10041470D01*
X37820500Y10958543D01*
X37821795Y10975000D01*
X37816613Y11040854D01*
X37816610Y11040905D01*
X37801177Y11105188D01*
X37775878Y11166265D01*
X37741336Y11222632D01*
X37698402Y11272902D01*
X37648132Y11315836D01*
X37643000Y11318981D01*
X37643000Y11422626D01*
X37855500Y11635126D01*
X37855500Y11616444D01*
X37854206Y11600000D01*
X37859384Y11534197D01*
X37859390Y11534095D01*
X37874823Y11469812D01*
X37900122Y11408735D01*
X37934664Y11352368D01*
X37977598Y11302098D01*
X38027868Y11259164D01*
X38084235Y11224622D01*
X38145312Y11199323D01*
X38209595Y11183890D01*
X38275500Y11178704D01*
X38291983Y11180001D01*
X39433340Y11180001D01*
X38265117Y10012482D01*
X38243220Y9993780D01*
X38169279Y9907207D01*
X38168726Y9906585D01*
X38168670Y9906494D01*
X38168596Y9906407D01*
X38137255Y9855262D01*
X38108660Y9808631D01*
X38108620Y9808535D01*
X38108559Y9808435D01*
X38085509Y9752787D01*
X38064656Y9702488D01*
X38064631Y9702385D01*
X38064587Y9702278D01*
X38050688Y9644385D01*
X38037799Y9590767D01*
X38037790Y9590659D01*
X38037764Y9590549D01*
X38037711Y9589658D01*
X38028749Y9476221D01*
X38031000Y9447510D01*
X38031000Y7560603D01*
X38028749Y7532001D01*
X38037764Y7417451D01*
X38059395Y7327353D01*
X38064588Y7305722D01*
X38082802Y7261751D01*
X38108559Y7199566D01*
X38168596Y7101594D01*
X38168622Y7101565D01*
X38243221Y7014221D01*
X38265035Y6995590D01*
X39643590Y5617035D01*
X39662221Y5595221D01*
X39701652Y5561543D01*
X39549371Y5468225D01*
X39349490Y5297510D01*
X39178775Y5097629D01*
X39041430Y4873503D01*
X38940837Y4630650D01*
X38879473Y4375051D01*
X38858849Y4113000D01*
X38879473Y3850949D01*
X38940837Y3595350D01*
X39041430Y3352497D01*
X39178775Y3128371D01*
X39349490Y2928490D01*
X39549371Y2757775D01*
X39773497Y2620430D01*
X40016350Y2519837D01*
X40271949Y2458473D01*
X40534000Y2437849D01*
X40796051Y2458473D01*
X41051650Y2519837D01*
X41082153Y2532472D01*
X41110590Y2504035D01*
X41129221Y2482221D01*
X41216565Y2407622D01*
X41216594Y2407596D01*
X41314566Y2347559D01*
X41376751Y2321802D01*
X41420722Y2303588D01*
X41442353Y2298395D01*
X41532451Y2276764D01*
X41647001Y2267749D01*
X41675616Y2270001D01*
X42899224Y2270001D01*
X42928804Y2221730D01*
X43063740Y2063740D01*
X43221730Y1928804D01*
X43398884Y1820244D01*
X43590839Y1740733D01*
X43792870Y1692230D01*
X44000000Y1675929D01*
X44207130Y1692230D01*
X44409161Y1740733D01*
X44601116Y1820244D01*
X44778270Y1928804D01*
X44936260Y2063740D01*
X45071196Y2221730D01*
X45179756Y2398884D01*
X45259267Y2590839D01*
X45307770Y2792870D01*
X45320000Y3000000D01*
X45307770Y3207130D01*
X45259267Y3409161D01*
X45179756Y3601116D01*
X45071196Y3778270D01*
X44936260Y3936260D01*
X44778270Y4071196D01*
X44601116Y4179756D01*
X44409161Y4259267D01*
X44364455Y4270000D01*
X44409161Y4280733D01*
X44601116Y4360244D01*
X44778270Y4468804D01*
X44936260Y4603740D01*
X45071196Y4761730D01*
X45179756Y4938884D01*
X45259267Y5130839D01*
X45270000Y5175545D01*
X45280733Y5130839D01*
X45360244Y4938884D01*
X45468804Y4761730D01*
X45603740Y4603740D01*
X45761730Y4468804D01*
X45818773Y4433848D01*
X45818773Y4106107D01*
X45740626Y4052126D01*
X45648860Y3975621D01*
X45564379Y3891140D01*
X45487874Y3799374D01*
X45419971Y3701073D01*
X45361225Y3597040D01*
X45312115Y3488126D01*
X45302106Y3456489D01*
X45297382Y3423628D01*
X45297857Y3390432D01*
X45303520Y3357719D01*
X45314230Y3326295D01*
X45329724Y3296933D01*
X45349621Y3270357D01*
X45373430Y3247220D01*
X45400565Y3228093D01*
X45430359Y3213445D01*
X45462077Y3203640D01*
X45494938Y3198916D01*
X45528134Y3199391D01*
X45560847Y3205054D01*
X45592271Y3215764D01*
X45621633Y3231258D01*
X45648209Y3251155D01*
X45671346Y3274964D01*
X45690473Y3302099D01*
X45704516Y3332133D01*
X45737111Y3406657D01*
X45777124Y3477516D01*
X45818773Y3537810D01*
X45818773Y2462191D01*
X45777124Y2522485D01*
X45737111Y2593344D01*
X45703661Y2667528D01*
X45689680Y2697429D01*
X45670636Y2724446D01*
X45647600Y2748151D01*
X45621140Y2767961D01*
X45591906Y2783388D01*
X45560619Y2794051D01*
X45528049Y2799689D01*
X45494998Y2800163D01*
X45462280Y2795460D01*
X45430701Y2785697D01*
X45401037Y2771114D01*
X45374020Y2752070D01*
X45350315Y2729034D01*
X45330505Y2702574D01*
X45315078Y2673340D01*
X45304415Y2642053D01*
X45298777Y2609483D01*
X45298303Y2576432D01*
X45303006Y2543714D01*
X45313371Y2512374D01*
X45361225Y2402961D01*
X45419971Y2298928D01*
X45487874Y2200627D01*
X45564379Y2108861D01*
X45648860Y2024380D01*
X45740626Y1947875D01*
X45818773Y1893894D01*
X45818773Y400000D01*
X35738322Y400000D01*
G37*
G36*
X29900017Y1720000D02*
X29900000Y1720001D01*
X27582999Y1720001D01*
X27665441Y1816529D01*
X27732880Y1926579D01*
X27782273Y2045824D01*
X27812403Y2171328D01*
X27822530Y2300000D01*
X27819999Y2332158D01*
X27819999Y3099121D01*
X27942659Y3149928D01*
X28220468Y3320170D01*
X28468225Y3531775D01*
X28679830Y3779532D01*
X28850072Y4057341D01*
X28974759Y4358362D01*
X29050821Y4675182D01*
X29070000Y5000000D01*
X29050821Y5324818D01*
X28974759Y5641638D01*
X28850072Y5942659D01*
X28679830Y6220468D01*
X28468225Y6468225D01*
X28220468Y6679830D01*
X27942659Y6850072D01*
X27641638Y6974759D01*
X27324818Y7050821D01*
X27000000Y7076384D01*
X26675182Y7050821D01*
X26358362Y6974759D01*
X26057341Y6850072D01*
X25779532Y6679830D01*
X25531775Y6468225D01*
X25320170Y6220468D01*
X25149928Y5942659D01*
X25025241Y5641638D01*
X24949179Y5324818D01*
X24923616Y5000000D01*
X24949179Y4675182D01*
X25025241Y4358362D01*
X25149928Y4057341D01*
X25320170Y3779532D01*
X25531775Y3531775D01*
X25779532Y3320170D01*
X26057341Y3149928D01*
X26129591Y3120001D01*
X23010409Y3120001D01*
X23082659Y3149928D01*
X23360468Y3320170D01*
X23608225Y3531775D01*
X23819830Y3779532D01*
X23990072Y4057341D01*
X24114759Y4358362D01*
X24190821Y4675182D01*
X24210000Y5000000D01*
X24190821Y5324818D01*
X24114759Y5641638D01*
X23990072Y5942659D01*
X23819830Y6220468D01*
X23608225Y6468225D01*
X23360468Y6679830D01*
X23082659Y6850072D01*
X22960000Y6900879D01*
X22960000Y8680000D01*
X23073543Y8680000D01*
X23090000Y8678705D01*
X23155905Y8683891D01*
X23220187Y8699324D01*
X23281264Y8724623D01*
X23337631Y8759165D01*
X23387901Y8802099D01*
X23430835Y8852369D01*
X23465377Y8908736D01*
X23490676Y8969813D01*
X23506109Y9034095D01*
X23511295Y9100000D01*
X23510000Y9116457D01*
X23510000Y9770199D01*
X23737949Y9715473D01*
X24000000Y9694849D01*
X24262051Y9715473D01*
X24517650Y9776837D01*
X24760503Y9877430D01*
X24984629Y10014775D01*
X25184510Y10185490D01*
X25355225Y10385371D01*
X25492570Y10609497D01*
X25593163Y10852350D01*
X25654527Y11107949D01*
X25670000Y11370000D01*
X25664894Y11456483D01*
X27015569Y10105387D01*
X27002837Y10074650D01*
X26941473Y9819051D01*
X26920849Y9557000D01*
X26941473Y9294949D01*
X27002837Y9039350D01*
X27103430Y8796497D01*
X27240775Y8572371D01*
X27411490Y8372490D01*
X27611371Y8201775D01*
X27835497Y8064430D01*
X28078350Y7963837D01*
X28333949Y7902473D01*
X28596000Y7881849D01*
X28858051Y7902473D01*
X29113650Y7963837D01*
X29356503Y8064430D01*
X29580629Y8201775D01*
X29780510Y8372490D01*
X29951225Y8572371D01*
X30088570Y8796497D01*
X30189163Y9039350D01*
X30250527Y9294949D01*
X30266000Y9557000D01*
X30250527Y9819051D01*
X30189163Y10074650D01*
X30088570Y10317503D01*
X29951225Y10541629D01*
X29780510Y10741510D01*
X29580629Y10912225D01*
X29356503Y11049570D01*
X29113650Y11150163D01*
X28858051Y11211527D01*
X28596000Y11232151D01*
X28333949Y11211527D01*
X28078350Y11150163D01*
X28048082Y11137626D01*
X26424294Y12761920D01*
X26497945Y12835571D01*
X26519780Y12854220D01*
X26594404Y12941593D01*
X26654441Y13039565D01*
X26698413Y13145722D01*
X26725236Y13257451D01*
X26734252Y13372000D01*
X26732000Y13400612D01*
X26732000Y19765000D01*
X28304410Y19765000D01*
X28333000Y19762750D01*
X28447444Y19771757D01*
X28447550Y19771763D01*
X28559278Y19798586D01*
X28583262Y19808520D01*
X28588157Y19807613D01*
X28588168Y19807611D01*
X28652282Y19805932D01*
X28654243Y19805881D01*
X28654254Y19805881D01*
X28697635Y19811593D01*
X28719786Y19814509D01*
X28719789Y19814510D01*
X28719798Y19814511D01*
X28762351Y19827117D01*
X28783173Y19833284D01*
X28783177Y19833286D01*
X28783184Y19833288D01*
X28842853Y19861749D01*
X28856464Y19871104D01*
X30343545Y20729640D01*
X30358452Y20736750D01*
X30412872Y20774153D01*
X30412925Y20774188D01*
X30412931Y20774193D01*
X30422720Y20783483D01*
X30460880Y20819694D01*
X30501125Y20872141D01*
X30501130Y20872149D01*
X30503445Y20876415D01*
X30532670Y20930238D01*
X30532673Y20930246D01*
X30532674Y20930248D01*
X30537734Y20944537D01*
X30554739Y20992555D01*
X30554741Y20992564D01*
X30556506Y21002089D01*
X30566787Y21057557D01*
X30566787Y21057562D01*
X30566788Y21057567D01*
X30567210Y21073682D01*
X30568519Y21123643D01*
X30559891Y21189186D01*
X30559888Y21189195D01*
X30559888Y21189197D01*
X30557777Y21196323D01*
X30541116Y21252573D01*
X30512656Y21312243D01*
X30503295Y21325863D01*
X30390902Y21520528D01*
X31856808Y22986434D01*
X31856808Y18981179D01*
X31419767Y19738135D01*
X31412656Y19753043D01*
X31375212Y19807525D01*
X31375206Y19807534D01*
X31343021Y19841449D01*
X31329706Y19855480D01*
X31329704Y19855481D01*
X31329698Y19855488D01*
X31277250Y19895732D01*
X31219152Y19927276D01*
X31158385Y19948794D01*
X31156845Y19949339D01*
X31156842Y19949340D01*
X31156835Y19949342D01*
X31091843Y19961387D01*
X31091832Y19961389D01*
X31027718Y19963068D01*
X31025757Y19963119D01*
X31025746Y19963119D01*
X30982365Y19957407D01*
X30960214Y19954491D01*
X30960211Y19954490D01*
X30960202Y19954489D01*
X30917649Y19941883D01*
X30896827Y19935716D01*
X30896823Y19935714D01*
X30896816Y19935712D01*
X30837147Y19907251D01*
X30823536Y19897896D01*
X29336455Y19039360D01*
X29321548Y19032250D01*
X29267128Y18994847D01*
X29267075Y18994812D01*
X29267069Y18994807D01*
X29257280Y18985517D01*
X29219120Y18949306D01*
X29178875Y18896859D01*
X29178870Y18896851D01*
X29176555Y18892585D01*
X29147330Y18838762D01*
X29147327Y18838754D01*
X29147326Y18838752D01*
X29142266Y18824463D01*
X29125261Y18776445D01*
X29125259Y18776436D01*
X29123494Y18766911D01*
X29113213Y18711443D01*
X29113213Y18711438D01*
X29113212Y18711433D01*
X29112790Y18695318D01*
X29111481Y18645357D01*
X29120109Y18579814D01*
X29120112Y18579805D01*
X29120112Y18579803D01*
X29122223Y18572677D01*
X29138884Y18516427D01*
X29167344Y18456757D01*
X29176705Y18443137D01*
X29810233Y17345865D01*
X29817344Y17330957D01*
X29854788Y17276475D01*
X29854794Y17276466D01*
X29886979Y17242551D01*
X29900294Y17228520D01*
X29900296Y17228519D01*
X29900302Y17228512D01*
X29952750Y17188268D01*
X30010848Y17156724D01*
X30071615Y17135206D01*
X30073155Y17134661D01*
X30073158Y17134660D01*
X30073165Y17134658D01*
X30138157Y17122613D01*
X30138168Y17122611D01*
X30202282Y17120932D01*
X30204243Y17120881D01*
X30204254Y17120881D01*
X30211313Y17121810D01*
X30181837Y17050650D01*
X30120473Y16795051D01*
X30099849Y16533000D01*
X30120473Y16270949D01*
X30181837Y16015350D01*
X30282430Y15772497D01*
X30419775Y15548371D01*
X30590490Y15348490D01*
X30790371Y15177775D01*
X31014497Y15040430D01*
X31257350Y14939837D01*
X31512949Y14878473D01*
X31775000Y14857849D01*
X31856808Y14864287D01*
X31856808Y14682603D01*
X31822430Y14626503D01*
X31721837Y14383650D01*
X31660473Y14128051D01*
X31639849Y13866000D01*
X31660473Y13603949D01*
X31721837Y13348350D01*
X31822430Y13105497D01*
X31856808Y13049397D01*
X31856808Y7076133D01*
X31535182Y7050821D01*
X31218362Y6974759D01*
X30917341Y6850072D01*
X30639532Y6679830D01*
X30391775Y6468225D01*
X30180170Y6220468D01*
X30009928Y5942659D01*
X29885241Y5641638D01*
X29809179Y5324818D01*
X29783616Y5000000D01*
X29809179Y4675182D01*
X29885241Y4358362D01*
X30009928Y4057341D01*
X30180170Y3779532D01*
X30391775Y3531775D01*
X30639532Y3320170D01*
X30917341Y3149928D01*
X31218362Y3025241D01*
X31535182Y2949179D01*
X31856808Y2923867D01*
X31856808Y1720000D01*
X29900017Y1720000D01*
G37*
G36*
X47261229Y53600000D02*
X47261229Y39154931D01*
X46922885Y38817001D01*
X46818980Y38817001D01*
X46815836Y38822132D01*
X46772902Y38872402D01*
X46722632Y38915336D01*
X46666265Y38949878D01*
X46605188Y38975177D01*
X46540905Y38990610D01*
X46475000Y38995796D01*
X46458530Y38994500D01*
X45999354Y38994500D01*
X45999354Y39425500D01*
X46053707Y39425500D01*
X46058893Y39359595D01*
X46074326Y39295313D01*
X46099625Y39234237D01*
X46105119Y39225271D01*
X46104350Y39215501D01*
X46106944Y39182548D01*
X46114660Y39150407D01*
X46127310Y39119868D01*
X46144581Y39091685D01*
X46166048Y39066550D01*
X46191183Y39045083D01*
X46219366Y39027812D01*
X46249905Y39015162D01*
X46282046Y39007446D01*
X46314999Y39005500D01*
X46458568Y39005500D01*
X46475000Y39004207D01*
X46540905Y39009393D01*
X46605187Y39024826D01*
X46666263Y39050125D01*
X46722630Y39084666D01*
X46772899Y39127601D01*
X46815834Y39177870D01*
X46850375Y39234237D01*
X46875674Y39295313D01*
X46891107Y39359595D01*
X46893052Y39392539D01*
X46893054Y39392547D01*
X46895000Y39425500D01*
X46895000Y39598001D01*
X46893055Y39630954D01*
X46885339Y39663095D01*
X46872689Y39693634D01*
X46855418Y39721818D01*
X46833951Y39746953D01*
X46808816Y39768420D01*
X46780632Y39785691D01*
X46750093Y39798341D01*
X46717952Y39806057D01*
X46684999Y39808651D01*
X46653480Y39806170D01*
X46605187Y39826174D01*
X46540905Y39841607D01*
X46475000Y39846793D01*
X46475000Y39979207D01*
X46540905Y39984393D01*
X46605187Y39999826D01*
X46653482Y40019831D01*
X46684999Y40017350D01*
X46717952Y40019944D01*
X46750093Y40027660D01*
X46780632Y40040310D01*
X46808815Y40057581D01*
X46833950Y40079048D01*
X46855417Y40104183D01*
X46872688Y40132366D01*
X46885338Y40162905D01*
X46893054Y40195046D01*
X46895000Y40227999D01*
X46895000Y40400500D01*
X46893055Y40433453D01*
X46893052Y40433467D01*
X46891107Y40466405D01*
X46875674Y40530687D01*
X46850375Y40591763D01*
X46815834Y40648130D01*
X46772899Y40698399D01*
X46722630Y40741334D01*
X46666263Y40775875D01*
X46605187Y40801174D01*
X46540905Y40816607D01*
X46475000Y40821793D01*
X46458568Y40820500D01*
X46314999Y40820500D01*
X46282046Y40818555D01*
X46249905Y40810839D01*
X46219366Y40798189D01*
X46191182Y40780918D01*
X46166047Y40759451D01*
X46144580Y40734316D01*
X46127309Y40706132D01*
X46114659Y40675593D01*
X46106943Y40643452D01*
X46104349Y40610499D01*
X46105118Y40600727D01*
X46099625Y40591763D01*
X46074326Y40530687D01*
X46058893Y40466405D01*
X46053707Y40400500D01*
X45999354Y40400500D01*
X45999354Y53600000D01*
X47261229Y53600000D01*
G37*
G36*
X47208735Y31075378D02*
X47152368Y31040836D01*
X47102098Y30997902D01*
X47059164Y30947632D01*
X47024622Y30891265D01*
X47000000Y30831822D01*
X46975378Y30891265D01*
X46940836Y30947632D01*
X46897902Y30997902D01*
X46847632Y31040836D01*
X46791265Y31075378D01*
X46730188Y31100677D01*
X46730000Y31100722D01*
X46730000Y32119398D01*
X46732251Y32148001D01*
X46723240Y32262499D01*
X46723237Y32262550D01*
X46696414Y32374278D01*
X46652442Y32480436D01*
X46592405Y32578407D01*
X46517781Y32665781D01*
X46495941Y32684434D01*
X45999354Y33181021D01*
X45999354Y37179500D01*
X46458543Y37179500D01*
X46475000Y37178205D01*
X46540854Y37183387D01*
X46540905Y37183390D01*
X46605188Y37198823D01*
X46666265Y37224122D01*
X46722632Y37258664D01*
X46772902Y37301598D01*
X46815836Y37351868D01*
X46818981Y37357000D01*
X47196172Y37357000D01*
X47224552Y37354749D01*
X47261229Y37357613D01*
X47261229Y37167365D01*
X47259473Y37160051D01*
X47238849Y36898000D01*
X47259473Y36635949D01*
X47261229Y36628635D01*
X47261229Y34724464D01*
X47259664Y34722632D01*
X47225122Y34666265D01*
X47199823Y34605188D01*
X47184390Y34540905D01*
X47179204Y34475000D01*
X47180500Y34458530D01*
X47180500Y33541457D01*
X47179205Y33525000D01*
X47184387Y33459146D01*
X47184390Y33459095D01*
X47199823Y33394812D01*
X47225122Y33333735D01*
X47259664Y33277368D01*
X47261229Y33275536D01*
X47261229Y31097122D01*
X47208735Y31075378D01*
G37*
G36*
X43770434Y35409941D02*
X43751781Y35431781D01*
X43664407Y35506405D01*
X43566436Y35566442D01*
X43460278Y35610414D01*
X43348550Y35637237D01*
X43348499Y35637240D01*
X43234001Y35646251D01*
X43205411Y35644001D01*
X40429599Y35644001D01*
X40401000Y35646252D01*
X40286451Y35637236D01*
X40174722Y35610413D01*
X40068565Y35566441D01*
X39970593Y35506404D01*
X39883220Y35431780D01*
X39864583Y35409959D01*
X38999152Y34544528D01*
X38968650Y34557163D01*
X38713051Y34618527D01*
X38451000Y34639151D01*
X38188949Y34618527D01*
X38171779Y34614405D01*
X40629945Y37072571D01*
X40651780Y37091220D01*
X40726404Y37178593D01*
X40786441Y37276565D01*
X40830413Y37382722D01*
X40857236Y37494451D01*
X40866252Y37609000D01*
X40864000Y37637612D01*
X40864000Y37809795D01*
X40894503Y37822430D01*
X41118629Y37959775D01*
X41318510Y38130490D01*
X41489225Y38330371D01*
X41626570Y38554497D01*
X41727163Y38797350D01*
X41788527Y39052949D01*
X41804000Y39315000D01*
X41788527Y39577051D01*
X41727163Y39832650D01*
X41626570Y40075503D01*
X41489225Y40299629D01*
X41318510Y40499510D01*
X41118629Y40670225D01*
X40894503Y40807570D01*
X40651650Y40908163D01*
X40396051Y40969527D01*
X40253640Y40980735D01*
X40058528Y41175847D01*
X40071163Y41206350D01*
X40132527Y41461949D01*
X40148000Y41724000D01*
X40132527Y41986051D01*
X40071163Y42241650D01*
X39970570Y42484503D01*
X39833225Y42708629D01*
X39662510Y42908510D01*
X39462629Y43079225D01*
X39238503Y43216570D01*
X38995650Y43317163D01*
X38740051Y43378527D01*
X38478000Y43399151D01*
X38215949Y43378527D01*
X37960350Y43317163D01*
X37717497Y43216570D01*
X37493371Y43079225D01*
X37293490Y42908510D01*
X37122775Y42708629D01*
X36985430Y42484503D01*
X36884837Y42241650D01*
X36823473Y41986051D01*
X36802849Y41724000D01*
X36823473Y41461949D01*
X36884837Y41206350D01*
X36985430Y40963497D01*
X37122775Y40739371D01*
X37293490Y40539490D01*
X37493371Y40368775D01*
X37717497Y40231430D01*
X37960350Y40130837D01*
X38215949Y40069473D01*
X38478000Y40048849D01*
X38635525Y40061247D01*
X38540837Y39832650D01*
X38479473Y39577051D01*
X38458849Y39315000D01*
X38474959Y39110299D01*
X38451629Y39130225D01*
X38227503Y39267570D01*
X37984650Y39368163D01*
X37729051Y39429527D01*
X37467000Y39450151D01*
X37204949Y39429527D01*
X36949350Y39368163D01*
X36706497Y39267570D01*
X36482371Y39130225D01*
X36282490Y38959510D01*
X36111775Y38759629D01*
X35974430Y38535503D01*
X35873837Y38292650D01*
X35812473Y38037051D01*
X35791849Y37775000D01*
X35792164Y37770993D01*
X35770903Y37771549D01*
X35760657Y37771818D01*
X35760645Y37771818D01*
X35712075Y37765423D01*
X35695113Y37763190D01*
X35695110Y37763189D01*
X35695102Y37763188D01*
X35656642Y37751795D01*
X35631727Y37744415D01*
X35631723Y37744413D01*
X35631716Y37744411D01*
X35572047Y37715950D01*
X35558435Y37706595D01*
X34742559Y37235562D01*
X34727648Y37228450D01*
X34673216Y37191039D01*
X34673174Y37191011D01*
X34673170Y37191007D01*
X34673167Y37191005D01*
X34657355Y37175999D01*
X34625220Y37145505D01*
X34625216Y37145500D01*
X34625214Y37145498D01*
X34616075Y37133588D01*
X34584974Y37093058D01*
X34553429Y37034961D01*
X34531361Y36972644D01*
X34531360Y36972637D01*
X34531359Y36972635D01*
X34525829Y36942795D01*
X34519313Y36907642D01*
X34519313Y36907638D01*
X34519312Y36907633D01*
X34518589Y36880004D01*
X34517582Y36841556D01*
X34517583Y36841548D01*
X34517583Y36841546D01*
X34521337Y36813030D01*
X34526210Y36776012D01*
X34526211Y36776007D01*
X34526212Y36776003D01*
X34527856Y36770454D01*
X34544985Y36712626D01*
X34544989Y36712619D01*
X34544989Y36712617D01*
X34545009Y36712578D01*
X34573445Y36652956D01*
X34582803Y36639340D01*
X35041339Y35845155D01*
X35048445Y35830257D01*
X35085889Y35775775D01*
X35085895Y35775766D01*
X35131402Y35727813D01*
X35168679Y35699211D01*
X35183842Y35687575D01*
X35183846Y35687573D01*
X35183851Y35687569D01*
X35238300Y35658006D01*
X35241939Y35656030D01*
X35241949Y35656025D01*
X35304266Y35633958D01*
X35369257Y35621914D01*
X35369268Y35621912D01*
X35433382Y35620233D01*
X35435343Y35620182D01*
X35435355Y35620182D01*
X35480253Y35626094D01*
X35500887Y35628810D01*
X35500890Y35628811D01*
X35500898Y35628812D01*
X35540629Y35640582D01*
X35564273Y35647585D01*
X35564277Y35647587D01*
X35564284Y35647589D01*
X35623953Y35676050D01*
X35637565Y35685405D01*
X36123583Y35966000D01*
X36359410Y35966000D01*
X36388000Y35963750D01*
X36502444Y35972757D01*
X36502550Y35972763D01*
X36614278Y35999586D01*
X36720436Y36043558D01*
X36818407Y36103595D01*
X36905781Y36178219D01*
X36919449Y36194222D01*
X36949350Y36181837D01*
X37204949Y36120473D01*
X37467000Y36099849D01*
X37603192Y36110568D01*
X34784041Y33291417D01*
X34762220Y33272780D01*
X34687596Y33185407D01*
X34658000Y33137110D01*
X34658000Y35120057D01*
X34873441Y35244438D01*
X34888352Y35251550D01*
X34942784Y35288961D01*
X34942826Y35288989D01*
X34942830Y35288993D01*
X34942833Y35288995D01*
X34958645Y35304001D01*
X34990780Y35334495D01*
X34990784Y35334500D01*
X34990786Y35334502D01*
X34999925Y35346412D01*
X35031026Y35386942D01*
X35062571Y35445039D01*
X35084639Y35507356D01*
X35084640Y35507363D01*
X35084641Y35507365D01*
X35088639Y35528937D01*
X35096687Y35572358D01*
X35096687Y35572362D01*
X35096688Y35572367D01*
X35097340Y35597294D01*
X35098418Y35638444D01*
X35098417Y35638452D01*
X35098417Y35638454D01*
X35096005Y35656778D01*
X35089790Y35703988D01*
X35089789Y35703993D01*
X35089788Y35703997D01*
X35083537Y35725098D01*
X35071015Y35767374D01*
X35071011Y35767381D01*
X35071011Y35767383D01*
X35071005Y35767395D01*
X35042555Y35827044D01*
X35033197Y35840660D01*
X34574661Y36634845D01*
X34567555Y36649743D01*
X34530111Y36704225D01*
X34530105Y36704234D01*
X34484598Y36752187D01*
X34447321Y36780789D01*
X34432158Y36792425D01*
X34432154Y36792427D01*
X34432149Y36792431D01*
X34377700Y36821994D01*
X34374061Y36823970D01*
X34374051Y36823975D01*
X34311734Y36846042D01*
X34247888Y36857874D01*
X34246743Y36858086D01*
X34246732Y36858088D01*
X34190903Y36859549D01*
X34180657Y36859818D01*
X34180645Y36859818D01*
X34132075Y36853423D01*
X34115113Y36851190D01*
X34115110Y36851189D01*
X34115102Y36851188D01*
X34076642Y36839795D01*
X34051727Y36832415D01*
X34051723Y36832413D01*
X34051716Y36832411D01*
X33992047Y36803950D01*
X33978435Y36794595D01*
X33492417Y36514000D01*
X32356375Y36514000D01*
X30390903Y38479472D01*
X30503299Y38674143D01*
X30512656Y38687758D01*
X30541066Y38747325D01*
X30541112Y38747417D01*
X30559889Y38810803D01*
X30568518Y38876347D01*
X30568518Y38876358D01*
X30568020Y38895388D01*
X30566788Y38942433D01*
X30566787Y38942437D01*
X30566787Y38942444D01*
X30562616Y38964945D01*
X30554742Y39007435D01*
X30532675Y39069753D01*
X30532670Y39069763D01*
X30527343Y39079574D01*
X30501131Y39127851D01*
X30460887Y39180299D01*
X30460880Y39180305D01*
X30460879Y39180307D01*
X30454241Y39186606D01*
X30412933Y39225806D01*
X30358452Y39263251D01*
X30343535Y39270366D01*
X28856449Y40128905D01*
X28842852Y40138250D01*
X28783183Y40166711D01*
X28783180Y40166712D01*
X28783172Y40166716D01*
X28742155Y40178865D01*
X28719797Y40185488D01*
X28719794Y40185488D01*
X28719785Y40185491D01*
X28654242Y40194119D01*
X28606598Y40192870D01*
X28588167Y40192388D01*
X28588163Y40192387D01*
X28588155Y40192387D01*
X28523153Y40180339D01*
X28460847Y40158274D01*
X28460837Y40158270D01*
X28402739Y40126725D01*
X28350292Y40086479D01*
X28304787Y40038525D01*
X28267343Y39984042D01*
X28260232Y39969132D01*
X28215698Y39892000D01*
X26730999Y39892000D01*
X26730999Y46600386D01*
X26733251Y46629001D01*
X26724236Y46743550D01*
X26717796Y46770373D01*
X26697413Y46855278D01*
X26653441Y46961435D01*
X26593404Y47059407D01*
X26518780Y47146780D01*
X26496952Y47165423D01*
X25580528Y48081847D01*
X25593163Y48112350D01*
X25654527Y48367949D01*
X25670000Y48630000D01*
X25654527Y48892051D01*
X25593163Y49147650D01*
X25492570Y49390503D01*
X25355225Y49614629D01*
X25184510Y49814510D01*
X25082073Y49902000D01*
X27134625Y49902000D01*
X29095472Y47941153D01*
X29082837Y47910650D01*
X29021473Y47655051D01*
X29000849Y47393000D01*
X29021473Y47130949D01*
X29082837Y46875350D01*
X29183430Y46632497D01*
X29320775Y46408371D01*
X29491490Y46208490D01*
X29691371Y46037775D01*
X29915497Y45900430D01*
X30158350Y45799837D01*
X30413949Y45738473D01*
X30676000Y45717849D01*
X30938051Y45738473D01*
X31193650Y45799837D01*
X31436503Y45900430D01*
X31648030Y46030054D01*
X31660473Y45871949D01*
X31721837Y45616350D01*
X31822430Y45373497D01*
X31959775Y45149371D01*
X31979701Y45126041D01*
X31775000Y45142151D01*
X31512949Y45121527D01*
X31257350Y45060163D01*
X31014497Y44959570D01*
X30790371Y44822225D01*
X30590490Y44651510D01*
X30419775Y44451629D01*
X30282430Y44227503D01*
X30181837Y43984650D01*
X30120473Y43729051D01*
X30099849Y43467000D01*
X30120473Y43204949D01*
X30181837Y42949350D01*
X30211313Y42878188D01*
X30204242Y42879119D01*
X30156598Y42877870D01*
X30138167Y42877388D01*
X30138163Y42877387D01*
X30138155Y42877387D01*
X30073153Y42865339D01*
X30010847Y42843274D01*
X30010837Y42843270D01*
X29952739Y42811725D01*
X29900292Y42771479D01*
X29854787Y42723525D01*
X29817343Y42669042D01*
X29810232Y42654132D01*
X29176701Y41556857D01*
X29167344Y41543242D01*
X29138934Y41483675D01*
X29138888Y41483583D01*
X29120111Y41420197D01*
X29111482Y41354653D01*
X29111482Y41354642D01*
X29111980Y41335612D01*
X29113212Y41288567D01*
X29113213Y41288563D01*
X29113213Y41288556D01*
X29117384Y41266055D01*
X29125258Y41223565D01*
X29147325Y41161247D01*
X29147330Y41161237D01*
X29152657Y41151426D01*
X29178869Y41103149D01*
X29219113Y41050701D01*
X29219120Y41050695D01*
X29219121Y41050693D01*
X29225759Y41044394D01*
X29267067Y41005194D01*
X29321548Y40967749D01*
X29336465Y40960634D01*
X30823551Y40102095D01*
X30837148Y40092750D01*
X30896817Y40064289D01*
X30896820Y40064288D01*
X30896828Y40064284D01*
X30937845Y40052135D01*
X30960203Y40045512D01*
X30960206Y40045512D01*
X30960215Y40045509D01*
X31025758Y40036881D01*
X31073402Y40038130D01*
X31091833Y40038612D01*
X31091837Y40038613D01*
X31091845Y40038613D01*
X31156847Y40050661D01*
X31219153Y40072726D01*
X31219163Y40072730D01*
X31277261Y40104275D01*
X31329708Y40144521D01*
X31375213Y40192475D01*
X31412657Y40246958D01*
X31419768Y40261868D01*
X32053299Y41359143D01*
X32062656Y41372758D01*
X32091066Y41432325D01*
X32091112Y41432417D01*
X32109889Y41495803D01*
X32118518Y41561347D01*
X32118518Y41561358D01*
X32118020Y41580388D01*
X32116788Y41627433D01*
X32116787Y41627437D01*
X32116787Y41627444D01*
X32112616Y41649945D01*
X32104742Y41692435D01*
X32082675Y41754753D01*
X32082670Y41754763D01*
X32077343Y41764574D01*
X32051131Y41812851D01*
X32049186Y41815386D01*
X32292650Y41873837D01*
X32535503Y41974430D01*
X32759629Y42111775D01*
X32959510Y42282490D01*
X33130225Y42482371D01*
X33267570Y42706497D01*
X33368163Y42949350D01*
X33429527Y43204949D01*
X33445000Y43467000D01*
X33429527Y43729051D01*
X33368163Y43984650D01*
X33267570Y44227503D01*
X33130225Y44451629D01*
X33110299Y44474959D01*
X33315000Y44458849D01*
X33577051Y44479473D01*
X33832650Y44540837D01*
X34075503Y44641430D01*
X34299629Y44778775D01*
X34499510Y44949490D01*
X34670225Y45149371D01*
X34807570Y45373497D01*
X34908163Y45616350D01*
X34969527Y45871949D01*
X34985000Y46134000D01*
X34969527Y46396051D01*
X34908163Y46651650D01*
X34807570Y46894503D01*
X34670225Y47118629D01*
X34499510Y47318510D01*
X34299629Y47489225D01*
X34075503Y47626570D01*
X33832650Y47727163D01*
X33577051Y47788527D01*
X33315000Y47809151D01*
X33052949Y47788527D01*
X32797350Y47727163D01*
X32766847Y47714528D01*
X32592423Y47888952D01*
X32573780Y47910780D01*
X32486407Y47985404D01*
X32388435Y48045441D01*
X32282278Y48089413D01*
X32197373Y48109796D01*
X32185493Y48112648D01*
X32168570Y48153503D01*
X32031225Y48377629D01*
X31860510Y48577510D01*
X31660629Y48748225D01*
X31436503Y48885570D01*
X31193650Y48986163D01*
X30938051Y49047527D01*
X30676000Y49068151D01*
X30413949Y49047527D01*
X30158350Y48986163D01*
X30127847Y48973528D01*
X27973434Y51127941D01*
X27954781Y51149781D01*
X27867407Y51224405D01*
X27769436Y51284442D01*
X27663278Y51328414D01*
X27551550Y51355237D01*
X27551499Y51355240D01*
X27437001Y51364251D01*
X27408411Y51362001D01*
X20517732Y51362001D01*
X20489260Y51364252D01*
X20374708Y51355278D01*
X20374560Y51355242D01*
X20374451Y51355236D01*
X20321177Y51342446D01*
X20262969Y51328494D01*
X20262844Y51328442D01*
X20262722Y51328413D01*
X20211706Y51307281D01*
X20156796Y51284560D01*
X20156678Y51284488D01*
X20156565Y51284441D01*
X20110445Y51256178D01*
X20058804Y51224558D01*
X20058714Y51224478D01*
X20058593Y51224404D01*
X19971220Y51149780D01*
X19952674Y51128065D01*
X18589132Y49765495D01*
X18567220Y49746780D01*
X18493377Y49660322D01*
X18492750Y49659617D01*
X18492685Y49659512D01*
X18492596Y49659407D01*
X18462086Y49609618D01*
X18432678Y49561667D01*
X18432630Y49561550D01*
X18432559Y49561435D01*
X18409876Y49506673D01*
X18388668Y49455526D01*
X18388638Y49455401D01*
X18388587Y49455278D01*
X18375063Y49398943D01*
X18361805Y49343806D01*
X18361795Y49343677D01*
X18361764Y49343549D01*
X18361702Y49342506D01*
X18352749Y49229260D01*
X18355000Y49200529D01*
X18355000Y44773603D01*
X18352749Y44745001D01*
X18361764Y44630451D01*
X18383395Y44540353D01*
X18388588Y44518722D01*
X18406802Y44474751D01*
X18432559Y44412566D01*
X18492596Y44314594D01*
X18492622Y44314565D01*
X18567221Y44227221D01*
X18589035Y44208590D01*
X22013577Y40784048D01*
X22032220Y40762220D01*
X22119593Y40687596D01*
X22217565Y40627559D01*
X22323722Y40583587D01*
X22435451Y40556764D01*
X22550001Y40547749D01*
X22578603Y40550000D01*
X22899278Y40550000D01*
X22899323Y40549812D01*
X22924622Y40488735D01*
X22959164Y40432368D01*
X23002098Y40382098D01*
X23052368Y40339164D01*
X23108735Y40304622D01*
X23169812Y40279323D01*
X23234095Y40263890D01*
X23300000Y40258704D01*
X23316470Y40260000D01*
X24683543Y40260000D01*
X24700000Y40258705D01*
X24765854Y40263887D01*
X24765905Y40263890D01*
X24830188Y40279323D01*
X24891265Y40304622D01*
X24947632Y40339164D01*
X24997902Y40382098D01*
X25040836Y40432368D01*
X25075378Y40488735D01*
X25100677Y40549812D01*
X25116110Y40614095D01*
X25121296Y40680000D01*
X25120000Y40696470D01*
X25120000Y41863543D01*
X25121295Y41880000D01*
X25116113Y41945854D01*
X25116110Y41945905D01*
X25100677Y42010188D01*
X25075378Y42071265D01*
X25040836Y42127632D01*
X24997902Y42177902D01*
X24947632Y42220836D01*
X24891265Y42255378D01*
X24831822Y42280000D01*
X24891265Y42304622D01*
X24947632Y42339164D01*
X24997902Y42382098D01*
X25040836Y42432368D01*
X25075378Y42488735D01*
X25100677Y42549812D01*
X25116110Y42614095D01*
X25121296Y42680000D01*
X25120000Y42696470D01*
X25120000Y43863543D01*
X25121295Y43880000D01*
X25116113Y43945854D01*
X25116110Y43945905D01*
X25100677Y44010188D01*
X25075378Y44071265D01*
X25040836Y44127632D01*
X24997902Y44177902D01*
X24980854Y44192462D01*
X24984629Y44194775D01*
X25184510Y44365490D01*
X25271000Y44466756D01*
X25271000Y39892000D01*
X22455612Y39892000D01*
X22427000Y39894252D01*
X22312451Y39885236D01*
X22200722Y39858413D01*
X22094565Y39814441D01*
X21996593Y39754404D01*
X21996539Y39754356D01*
X21909221Y39679779D01*
X21890596Y39657972D01*
X19697625Y37465001D01*
X18809427Y37465001D01*
X20213545Y38275640D01*
X20228452Y38282750D01*
X20282872Y38320153D01*
X20282925Y38320188D01*
X20282931Y38320193D01*
X20292720Y38329483D01*
X20330880Y38365694D01*
X20371125Y38418141D01*
X20371130Y38418149D01*
X20373445Y38422415D01*
X20402670Y38476238D01*
X20402673Y38476246D01*
X20402674Y38476248D01*
X20407734Y38490537D01*
X20424739Y38538555D01*
X20424741Y38538564D01*
X20426506Y38548089D01*
X20436787Y38603557D01*
X20436787Y38603562D01*
X20436788Y38603567D01*
X20437210Y38619682D01*
X20438519Y38669643D01*
X20429891Y38735186D01*
X20429888Y38735195D01*
X20429888Y38735197D01*
X20427777Y38742323D01*
X20411116Y38798573D01*
X20382656Y38858243D01*
X20373295Y38871863D01*
X19739767Y39969135D01*
X19732656Y39984043D01*
X19695212Y40038525D01*
X19695206Y40038534D01*
X19663021Y40072449D01*
X19649706Y40086480D01*
X19649704Y40086481D01*
X19649698Y40086488D01*
X19597250Y40126732D01*
X19539152Y40158276D01*
X19478385Y40179794D01*
X19476845Y40180339D01*
X19476842Y40180340D01*
X19476835Y40180342D01*
X19411843Y40192387D01*
X19411832Y40192389D01*
X19347718Y40194068D01*
X19345757Y40194119D01*
X19345746Y40194119D01*
X19302365Y40188407D01*
X19280214Y40185491D01*
X19280211Y40185490D01*
X19280202Y40185489D01*
X19237649Y40172883D01*
X19216827Y40166716D01*
X19216823Y40166714D01*
X19216816Y40166712D01*
X19157147Y40138251D01*
X19143536Y40128896D01*
X18059414Y39503000D01*
X14744684Y39503000D01*
X14744684Y42686500D01*
X14869775Y42482371D01*
X15040490Y42282490D01*
X15240371Y42111775D01*
X15464497Y41974430D01*
X15707350Y41873837D01*
X15950814Y41815386D01*
X15948875Y41812859D01*
X15948870Y41812851D01*
X15946555Y41808585D01*
X15917330Y41754762D01*
X15917327Y41754754D01*
X15917326Y41754752D01*
X15912266Y41740463D01*
X15895261Y41692445D01*
X15895259Y41692436D01*
X15893494Y41682911D01*
X15883213Y41627443D01*
X15883213Y41627438D01*
X15883212Y41627433D01*
X15882790Y41611318D01*
X15881481Y41561357D01*
X15890109Y41495814D01*
X15890112Y41495805D01*
X15890112Y41495803D01*
X15894341Y41481528D01*
X15908884Y41432427D01*
X15937344Y41372757D01*
X15946705Y41359137D01*
X16580233Y40261865D01*
X16587344Y40246957D01*
X16624788Y40192475D01*
X16624794Y40192466D01*
X16656979Y40158551D01*
X16670294Y40144520D01*
X16670296Y40144519D01*
X16670302Y40144512D01*
X16722750Y40104268D01*
X16780848Y40072724D01*
X16841615Y40051206D01*
X16843155Y40050661D01*
X16843158Y40050660D01*
X16843165Y40050658D01*
X16908157Y40038613D01*
X16908168Y40038611D01*
X16972282Y40036932D01*
X16974243Y40036881D01*
X16974254Y40036881D01*
X17017635Y40042593D01*
X17039786Y40045509D01*
X17039789Y40045510D01*
X17039798Y40045511D01*
X17082351Y40058117D01*
X17103173Y40064284D01*
X17103177Y40064286D01*
X17103184Y40064288D01*
X17162853Y40092749D01*
X17176464Y40102104D01*
X18663545Y40960640D01*
X18678452Y40967750D01*
X18732872Y41005153D01*
X18732925Y41005188D01*
X18732931Y41005193D01*
X18742720Y41014483D01*
X18780880Y41050694D01*
X18821125Y41103141D01*
X18821130Y41103149D01*
X18823445Y41107415D01*
X18852670Y41161238D01*
X18852673Y41161246D01*
X18852674Y41161248D01*
X18857734Y41175537D01*
X18874739Y41223555D01*
X18874741Y41223564D01*
X18876506Y41233089D01*
X18886787Y41288557D01*
X18886787Y41288562D01*
X18886788Y41288567D01*
X18887210Y41304682D01*
X18888519Y41354643D01*
X18879891Y41420186D01*
X18879888Y41420195D01*
X18879888Y41420197D01*
X18877777Y41427323D01*
X18861116Y41483573D01*
X18832656Y41543243D01*
X18823295Y41556863D01*
X18189767Y42654135D01*
X18182656Y42669043D01*
X18145212Y42723525D01*
X18145206Y42723534D01*
X18113021Y42757449D01*
X18099706Y42771480D01*
X18099704Y42771481D01*
X18099698Y42771488D01*
X18047250Y42811732D01*
X17989152Y42843276D01*
X17928385Y42864794D01*
X17926845Y42865339D01*
X17926842Y42865340D01*
X17926835Y42865342D01*
X17861843Y42877387D01*
X17861832Y42877389D01*
X17797718Y42879068D01*
X17795757Y42879119D01*
X17795746Y42879119D01*
X17788687Y42878190D01*
X17818163Y42949350D01*
X17879527Y43204949D01*
X17895000Y43467000D01*
X17879527Y43729051D01*
X17818163Y43984650D01*
X17717570Y44227503D01*
X17580225Y44451629D01*
X17409510Y44651510D01*
X17209629Y44822225D01*
X16985503Y44959570D01*
X16742650Y45060163D01*
X16487051Y45121527D01*
X16225000Y45142151D01*
X16020299Y45126041D01*
X16040225Y45149371D01*
X16177570Y45373497D01*
X16278163Y45616350D01*
X16339527Y45871949D01*
X16355000Y46134000D01*
X16339527Y46396051D01*
X16278163Y46651650D01*
X16177570Y46894503D01*
X16040225Y47118629D01*
X15869510Y47318510D01*
X15669629Y47489225D01*
X15445503Y47626570D01*
X15202650Y47727163D01*
X14947051Y47788527D01*
X14744684Y47804454D01*
X14744684Y53600000D01*
X45999354Y53600000D01*
X45999354Y40400500D01*
X45944998Y40400500D01*
X45941107Y40466405D01*
X45925674Y40530687D01*
X45900375Y40591763D01*
X45894881Y40600729D01*
X45895650Y40610499D01*
X45893056Y40643452D01*
X45885340Y40675593D01*
X45872690Y40706132D01*
X45855419Y40734315D01*
X45833952Y40759450D01*
X45808817Y40780917D01*
X45780634Y40798188D01*
X45750095Y40810838D01*
X45717954Y40818554D01*
X45685001Y40820500D01*
X45541432Y40820500D01*
X45525000Y40821793D01*
X45459095Y40816607D01*
X45394813Y40801174D01*
X45333737Y40775875D01*
X45277370Y40741334D01*
X45227101Y40698399D01*
X45184166Y40648130D01*
X45149625Y40591763D01*
X45124326Y40530687D01*
X45108893Y40466405D01*
X45103707Y40400500D01*
X45105000Y40384068D01*
X45105000Y40227999D01*
X45106945Y40195046D01*
X45114661Y40162905D01*
X45127311Y40132366D01*
X45144582Y40104182D01*
X45166049Y40079047D01*
X45191184Y40057580D01*
X45219368Y40040309D01*
X45249907Y40027659D01*
X45282048Y40019943D01*
X45315001Y40017349D01*
X45346520Y40019830D01*
X45394813Y39999826D01*
X45459095Y39984393D01*
X45525000Y39979207D01*
X45525000Y39846793D01*
X45459095Y39841607D01*
X45394813Y39826174D01*
X45346518Y39806169D01*
X45315001Y39808650D01*
X45282048Y39806056D01*
X45249907Y39798340D01*
X45219368Y39785690D01*
X45191185Y39768419D01*
X45166050Y39746952D01*
X45144583Y39721817D01*
X45127312Y39693634D01*
X45114662Y39663095D01*
X45106946Y39630954D01*
X45105000Y39598001D01*
X45105000Y39441932D01*
X45103707Y39425500D01*
X45108893Y39359595D01*
X45124326Y39295313D01*
X45149625Y39234237D01*
X45184166Y39177870D01*
X45227101Y39127601D01*
X45277370Y39084666D01*
X45333737Y39050125D01*
X45394813Y39024826D01*
X45459095Y39009393D01*
X45525000Y39004207D01*
X45541432Y39005500D01*
X45685001Y39005500D01*
X45717954Y39007445D01*
X45750095Y39015161D01*
X45780634Y39027811D01*
X45808818Y39045082D01*
X45833953Y39066549D01*
X45855420Y39091684D01*
X45872691Y39119868D01*
X45885341Y39150407D01*
X45893057Y39182548D01*
X45895651Y39215501D01*
X45894882Y39225273D01*
X45900375Y39234237D01*
X45925674Y39295313D01*
X45941107Y39359595D01*
X45944998Y39425500D01*
X45999354Y39425500D01*
X45999354Y38994500D01*
X45541457Y38994500D01*
X45525000Y38995795D01*
X45459146Y38990613D01*
X45459095Y38990610D01*
X45394812Y38975177D01*
X45333735Y38949878D01*
X45277368Y38915336D01*
X45227098Y38872402D01*
X45184164Y38822132D01*
X45149622Y38765765D01*
X45124323Y38704688D01*
X45108890Y38640405D01*
X45103704Y38574500D01*
X45105000Y38558030D01*
X45105000Y37615957D01*
X45103705Y37599500D01*
X45108887Y37533646D01*
X45108890Y37533595D01*
X45124323Y37469312D01*
X45149622Y37408235D01*
X45184164Y37351868D01*
X45227098Y37301598D01*
X45277368Y37258664D01*
X45333735Y37224122D01*
X45394812Y37198823D01*
X45459095Y37183390D01*
X45525000Y37178204D01*
X45541470Y37179500D01*
X45999354Y37179500D01*
X45999354Y33181021D01*
X43770434Y35409941D01*
G37*
G36*
X47261229Y13693977D02*
X47261229Y12372500D01*
X47187111Y12503798D01*
X47101170Y12628236D01*
X47004335Y12744400D01*
X46897399Y12851336D01*
X46781235Y12948171D01*
X46656797Y13034112D01*
X46525100Y13108455D01*
X46387224Y13170592D01*
X46244297Y13220015D01*
X46211830Y13227132D01*
X46178619Y13228863D01*
X46145546Y13225376D01*
X46113426Y13216759D01*
X46083049Y13203224D01*
X46055164Y13185103D01*
X46030456Y13162842D01*
X46009536Y13136991D01*
X45992917Y13108186D01*
X45981008Y13077135D01*
X45974104Y13044604D01*
X45972373Y13011393D01*
X45975860Y12978320D01*
X45984477Y12946200D01*
X45998012Y12915823D01*
X46016133Y12887938D01*
X46038394Y12863230D01*
X46064245Y12842310D01*
X46093050Y12825691D01*
X46124286Y12814407D01*
X46231522Y12778679D01*
X46334617Y12732217D01*
X46433091Y12676628D01*
X46526139Y12612367D01*
X46612998Y12539960D01*
X46692959Y12459999D01*
X46765366Y12373140D01*
X46829627Y12280092D01*
X46885216Y12181618D01*
X46931678Y12078523D01*
X46968633Y11971650D01*
X46979852Y11940604D01*
X46996370Y11911973D01*
X47017164Y11886279D01*
X47041721Y11864154D01*
X47069437Y11846143D01*
X47099630Y11832690D01*
X47131555Y11824125D01*
X47164427Y11820660D01*
X47197436Y11822379D01*
X47229770Y11829242D01*
X47260632Y11841078D01*
X47261229Y11841422D01*
X47261229Y11394059D01*
X47261186Y11394084D01*
X47230135Y11405993D01*
X47197603Y11412897D01*
X47164392Y11414628D01*
X47131319Y11411141D01*
X47099199Y11402524D01*
X47068822Y11388988D01*
X47040937Y11370867D01*
X47016230Y11348607D01*
X46995309Y11322756D01*
X46978690Y11293950D01*
X46967406Y11262714D01*
X46931678Y11155478D01*
X46885216Y11052383D01*
X46829627Y10953909D01*
X46765366Y10860861D01*
X46692959Y10774002D01*
X46612998Y10694041D01*
X46526139Y10621634D01*
X46433091Y10557373D01*
X46334617Y10501784D01*
X46231522Y10455322D01*
X46124649Y10418367D01*
X46093605Y10407148D01*
X46064974Y10390630D01*
X46039280Y10369836D01*
X46017155Y10345279D01*
X45999144Y10317563D01*
X45985690Y10287371D01*
X45977125Y10255446D01*
X45973660Y10222574D01*
X45975380Y10189565D01*
X45982242Y10157231D01*
X45994078Y10126369D01*
X46010596Y10097738D01*
X46031390Y10072044D01*
X46055947Y10049919D01*
X46083663Y10031908D01*
X46113855Y10018454D01*
X46145780Y10009889D01*
X46178652Y10006424D01*
X46211661Y10008144D01*
X46243811Y10015627D01*
X46387224Y10063409D01*
X46525100Y10125546D01*
X46656797Y10199889D01*
X46781235Y10285830D01*
X46897399Y10382665D01*
X47004335Y10489601D01*
X47101170Y10605765D01*
X47187111Y10730203D01*
X47261229Y10861501D01*
X47261229Y9833605D01*
X46802178Y9374554D01*
X46747130Y9387770D01*
X46540000Y9404071D01*
X46332870Y9387770D01*
X46130839Y9339267D01*
X45938884Y9259756D01*
X45761730Y9151196D01*
X45603740Y9016260D01*
X45468804Y8858270D01*
X45360244Y8681116D01*
X45280733Y8489161D01*
X45270000Y8444455D01*
X45259267Y8489161D01*
X45179756Y8681116D01*
X45071196Y8858270D01*
X44936260Y9016260D01*
X44862240Y9079479D01*
X44862240Y10214366D01*
X44883202Y10199889D01*
X45014899Y10125546D01*
X45152775Y10063409D01*
X45295702Y10013986D01*
X45328172Y10006867D01*
X45361383Y10005137D01*
X45394455Y10008623D01*
X45426576Y10017241D01*
X45456952Y10030776D01*
X45484838Y10048898D01*
X45509545Y10071158D01*
X45530466Y10097009D01*
X45547085Y10125815D01*
X45558993Y10156866D01*
X45565897Y10189398D01*
X45567627Y10222609D01*
X45564141Y10255681D01*
X45555523Y10287802D01*
X45541988Y10318178D01*
X45523866Y10346064D01*
X45501606Y10370771D01*
X45475755Y10391692D01*
X45446949Y10408311D01*
X45415713Y10419594D01*
X45308477Y10455322D01*
X45205382Y10501784D01*
X45106908Y10557373D01*
X45013860Y10621634D01*
X44927001Y10694041D01*
X44862240Y10758802D01*
X44862240Y12475199D01*
X44927001Y12539960D01*
X45013860Y12612367D01*
X45106908Y12676628D01*
X45205382Y12732217D01*
X45308477Y12778679D01*
X45415350Y12815634D01*
X45446396Y12826851D01*
X45475027Y12843369D01*
X45500721Y12864163D01*
X45522846Y12888720D01*
X45540858Y12916437D01*
X45554311Y12946629D01*
X45562876Y12978554D01*
X45566341Y13011426D01*
X45564622Y13044436D01*
X45557759Y13076770D01*
X45545923Y13107632D01*
X45529405Y13136263D01*
X45508611Y13161957D01*
X45484054Y13184082D01*
X45456337Y13202094D01*
X45426145Y13215547D01*
X45394220Y13224112D01*
X45361348Y13227577D01*
X45328338Y13225858D01*
X45296188Y13218374D01*
X45152775Y13170592D01*
X45014899Y13108455D01*
X44883202Y13034112D01*
X44862240Y13019635D01*
X44862240Y16092557D01*
X47261229Y13693977D01*
G37*
G36*
X45038612Y26680000D02*
X45010000Y26682252D01*
X44895451Y26673236D01*
X44862240Y26665263D01*
X44862240Y32253385D01*
X45269999Y31845626D01*
X45269999Y31100722D01*
X45269812Y31100677D01*
X45208735Y31075378D01*
X45152368Y31040836D01*
X45102098Y30997902D01*
X45059164Y30947632D01*
X45024622Y30891265D01*
X44999323Y30830188D01*
X44983890Y30765905D01*
X44978704Y30700000D01*
X44980000Y30683530D01*
X44980000Y29316457D01*
X44978705Y29300000D01*
X44983887Y29234146D01*
X44983890Y29234095D01*
X44999323Y29169812D01*
X45024622Y29108735D01*
X45059164Y29052368D01*
X45102098Y29002098D01*
X45152368Y28959164D01*
X45208735Y28924622D01*
X45269812Y28899323D01*
X45334095Y28883890D01*
X45400000Y28878704D01*
X45416470Y28880000D01*
X46583543Y28880000D01*
X46600000Y28878705D01*
X46665854Y28883887D01*
X46665905Y28883890D01*
X46730188Y28899323D01*
X46791265Y28924622D01*
X46847632Y28959164D01*
X46897902Y29002098D01*
X46940836Y29052368D01*
X46975378Y29108735D01*
X47000000Y29168178D01*
X47024622Y29108735D01*
X47059164Y29052368D01*
X47102098Y29002098D01*
X47152368Y28959164D01*
X47208735Y28924622D01*
X47261229Y28902878D01*
X47261229Y26680000D01*
X45038612Y26680000D01*
G37*
G36*
X44783722Y26646413D02*
X44677565Y26602441D01*
X44579593Y26542404D01*
X44579539Y26542356D01*
X44492221Y26467779D01*
X44473596Y26445972D01*
X43875052Y25847428D01*
X43853219Y25828781D01*
X43778595Y25741407D01*
X43718558Y25643436D01*
X43674586Y25537278D01*
X43647763Y25425550D01*
X43647757Y25425444D01*
X43638750Y25311000D01*
X43640999Y25282423D01*
X43640999Y19654212D01*
X43627170Y19674236D01*
X43530335Y19790400D01*
X43423399Y19897336D01*
X43307235Y19994171D01*
X43182797Y20080112D01*
X43051100Y20154455D01*
X42913224Y20216592D01*
X42770297Y20266015D01*
X42737830Y20273132D01*
X42704619Y20274863D01*
X42671546Y20271376D01*
X42639426Y20262759D01*
X42609049Y20249224D01*
X42581164Y20231103D01*
X42556456Y20208842D01*
X42535536Y20182991D01*
X42518917Y20154186D01*
X42507008Y20123135D01*
X42500104Y20090604D01*
X42498373Y20057393D01*
X42501860Y20024320D01*
X42510477Y19992200D01*
X42524012Y19961823D01*
X42542133Y19933938D01*
X42564394Y19909230D01*
X42590245Y19888310D01*
X42619050Y19871691D01*
X42650286Y19860407D01*
X42757522Y19824679D01*
X42860617Y19778217D01*
X42959091Y19722628D01*
X43052139Y19658367D01*
X43138998Y19585960D01*
X43218959Y19505999D01*
X43291366Y19419140D01*
X43355627Y19326092D01*
X43411216Y19227618D01*
X43457678Y19124523D01*
X43494633Y19017650D01*
X43505852Y18986604D01*
X43522370Y18957973D01*
X43543164Y18932279D01*
X43567721Y18910154D01*
X43595437Y18892143D01*
X43625630Y18878690D01*
X43640999Y18874567D01*
X43640999Y18452763D01*
X43625199Y18448524D01*
X43594822Y18434988D01*
X43566937Y18416867D01*
X43542230Y18394607D01*
X43521309Y18368756D01*
X43504690Y18339950D01*
X43493406Y18308714D01*
X43457678Y18201478D01*
X43411216Y18098383D01*
X43355627Y17999909D01*
X43291366Y17906861D01*
X43218959Y17820002D01*
X43138998Y17740041D01*
X43052139Y17667634D01*
X42959091Y17603373D01*
X42860617Y17547784D01*
X42757522Y17501322D01*
X42650649Y17464367D01*
X42619605Y17453148D01*
X42590974Y17436630D01*
X42565280Y17415836D01*
X42543155Y17391279D01*
X42525144Y17363563D01*
X42511690Y17333371D01*
X42503125Y17301446D01*
X42499660Y17268574D01*
X42501380Y17235565D01*
X42508242Y17203231D01*
X42520078Y17172369D01*
X42536596Y17143738D01*
X42557390Y17118044D01*
X42581947Y17095919D01*
X42609663Y17077908D01*
X42639855Y17064454D01*
X42671780Y17055889D01*
X42704652Y17052424D01*
X42737661Y17054144D01*
X42769811Y17061627D01*
X42913224Y17109409D01*
X43051100Y17171546D01*
X43182797Y17245889D01*
X43307235Y17331830D01*
X43423399Y17428665D01*
X43530335Y17535601D01*
X43627170Y17651765D01*
X43640999Y17671789D01*
X43640999Y17644569D01*
X43638748Y17615938D01*
X43647752Y17501660D01*
X43647764Y17501451D01*
X43647770Y17501425D01*
X43647773Y17501389D01*
X43661528Y17444120D01*
X43674587Y17389722D01*
X43674600Y17389690D01*
X43674607Y17389662D01*
X43696709Y17336315D01*
X43718559Y17283565D01*
X43718574Y17283541D01*
X43718587Y17283509D01*
X43748507Y17234694D01*
X43778596Y17185593D01*
X43778618Y17185567D01*
X43778633Y17185543D01*
X43778780Y17185378D01*
X43853220Y17098220D01*
X43875065Y17079563D01*
X44862240Y16092557D01*
X44862240Y13019635D01*
X44758764Y12948171D01*
X44642600Y12851336D01*
X44535664Y12744400D01*
X44438829Y12628236D01*
X44352888Y12503798D01*
X44278545Y12372101D01*
X44216408Y12234225D01*
X44166985Y12091298D01*
X44159868Y12058829D01*
X44158138Y12025618D01*
X44161624Y11992545D01*
X44170241Y11960425D01*
X44183777Y11930048D01*
X44201898Y11902163D01*
X44224159Y11877456D01*
X44250010Y11856535D01*
X44278815Y11839916D01*
X44309866Y11828008D01*
X44342397Y11821104D01*
X44375608Y11819374D01*
X44408681Y11822860D01*
X44440801Y11831477D01*
X44471178Y11845013D01*
X44499063Y11863134D01*
X44523770Y11885395D01*
X44544691Y11911246D01*
X44561310Y11940051D01*
X44572593Y11971287D01*
X44608321Y12078523D01*
X44654783Y12181618D01*
X44710372Y12280092D01*
X44774633Y12373140D01*
X44847040Y12459999D01*
X44862240Y12475199D01*
X44862240Y10758802D01*
X44847040Y10774002D01*
X44774633Y10860861D01*
X44710372Y10953909D01*
X44654783Y11052383D01*
X44608321Y11155478D01*
X44571366Y11262351D01*
X44560149Y11293395D01*
X44543631Y11322026D01*
X44522837Y11347720D01*
X44498280Y11369846D01*
X44470564Y11387857D01*
X44440372Y11401311D01*
X44408447Y11409876D01*
X44375575Y11413341D01*
X44342565Y11411621D01*
X44310231Y11404759D01*
X44279369Y11392923D01*
X44250738Y11376405D01*
X44225044Y11355611D01*
X44202918Y11331054D01*
X44184907Y11303338D01*
X44171453Y11273146D01*
X44162888Y11241221D01*
X44159423Y11208349D01*
X44161143Y11175339D01*
X44168626Y11143189D01*
X44216408Y10999776D01*
X44278545Y10861900D01*
X44352888Y10730203D01*
X44438829Y10605765D01*
X44535664Y10489601D01*
X44642600Y10382665D01*
X44758764Y10285830D01*
X44862240Y10214366D01*
X44862240Y9079479D01*
X44778270Y9151196D01*
X44601116Y9259756D01*
X44409161Y9339267D01*
X44207130Y9387770D01*
X44000000Y9404071D01*
X43792870Y9387770D01*
X43590839Y9339267D01*
X43398884Y9259756D01*
X43221730Y9151196D01*
X43153591Y9093000D01*
X42267205Y9093000D01*
X42254570Y9123503D01*
X42117225Y9347629D01*
X41946510Y9547510D01*
X41746629Y9718225D01*
X41522503Y9855570D01*
X41389525Y9910651D01*
X41389525Y11179492D01*
X41399500Y11178707D01*
X41415932Y11180000D01*
X41747001Y11180000D01*
X41779954Y11181945D01*
X41812095Y11189661D01*
X41842634Y11202311D01*
X41870818Y11219582D01*
X41895953Y11241049D01*
X41917420Y11266184D01*
X41934691Y11294368D01*
X41947341Y11324907D01*
X41955057Y11357048D01*
X41957651Y11390001D01*
X41955057Y11422954D01*
X41947341Y11455095D01*
X41934691Y11485634D01*
X41917420Y11513818D01*
X41895953Y11538953D01*
X41870818Y11560420D01*
X41842634Y11577691D01*
X41818765Y11587578D01*
X41819498Y11600000D01*
X42303207Y11600000D01*
X42304218Y11587156D01*
X42281366Y11577690D01*
X42253183Y11560419D01*
X42228048Y11538952D01*
X42206581Y11513817D01*
X42189310Y11485634D01*
X42176660Y11455095D01*
X42168944Y11422954D01*
X42166350Y11390001D01*
X42168944Y11357048D01*
X42176660Y11324907D01*
X42189310Y11294368D01*
X42206581Y11266185D01*
X42228048Y11241050D01*
X42253183Y11219583D01*
X42281366Y11202312D01*
X42311905Y11189662D01*
X42344046Y11181946D01*
X42376999Y11180000D01*
X42708068Y11180000D01*
X42724500Y11178707D01*
X42790405Y11183893D01*
X42854687Y11199326D01*
X42915763Y11224625D01*
X42972130Y11259166D01*
X43022399Y11302101D01*
X43065334Y11352370D01*
X43099875Y11408737D01*
X43125174Y11469813D01*
X43140607Y11534095D01*
X43142552Y11567044D01*
X43142553Y11567047D01*
X43144499Y11600000D01*
X43144499Y12185001D01*
X43142554Y12217954D01*
X43134838Y12250095D01*
X43122188Y12280634D01*
X43104917Y12308817D01*
X43083450Y12333952D01*
X43058315Y12355419D01*
X43030132Y12372690D01*
X42999593Y12385340D01*
X42967452Y12393056D01*
X42934499Y12395650D01*
X42901546Y12393056D01*
X42869405Y12385340D01*
X42838866Y12372690D01*
X42810683Y12355419D01*
X42785548Y12333952D01*
X42764081Y12308817D01*
X42746810Y12280634D01*
X42734160Y12250095D01*
X42726444Y12217954D01*
X42724500Y12185035D01*
X42724500Y12814965D01*
X42726445Y12782046D01*
X42734161Y12749905D01*
X42746811Y12719367D01*
X42764081Y12691183D01*
X42785549Y12666049D01*
X42810683Y12644581D01*
X42838867Y12627311D01*
X42869405Y12614661D01*
X42901546Y12606945D01*
X42934499Y12604351D01*
X42967452Y12606945D01*
X42999593Y12614661D01*
X43030131Y12627311D01*
X43058315Y12644581D01*
X43083449Y12666049D01*
X43104917Y12691183D01*
X43122187Y12719367D01*
X43134837Y12749905D01*
X43142553Y12782046D01*
X43144499Y12814999D01*
X43144499Y13400000D01*
X43142554Y13432953D01*
X43142552Y13432961D01*
X43140607Y13465905D01*
X43125174Y13530187D01*
X43099875Y13591263D01*
X43065334Y13647630D01*
X43022399Y13697899D01*
X42972130Y13740834D01*
X42915763Y13775375D01*
X42854687Y13800674D01*
X42790405Y13816107D01*
X42724500Y13821293D01*
X42708068Y13820000D01*
X42376999Y13820000D01*
X42344046Y13818055D01*
X42311905Y13810339D01*
X42281366Y13797689D01*
X42253182Y13780418D01*
X42228047Y13758951D01*
X42206580Y13733816D01*
X42189309Y13705632D01*
X42176659Y13675093D01*
X42168943Y13642952D01*
X42166349Y13609999D01*
X42168943Y13577046D01*
X42176659Y13544905D01*
X42189309Y13514366D01*
X42206580Y13486182D01*
X42228047Y13461047D01*
X42253182Y13439580D01*
X42281366Y13422309D01*
X42304218Y13412843D01*
X42303207Y13400000D01*
X41819498Y13400000D01*
X41818765Y13412423D01*
X41842634Y13422310D01*
X41870817Y13439581D01*
X41895952Y13461048D01*
X41917419Y13486183D01*
X41934690Y13514366D01*
X41947340Y13544905D01*
X41955056Y13577046D01*
X41957650Y13609999D01*
X41955056Y13642952D01*
X41947340Y13675093D01*
X41934690Y13705632D01*
X41917419Y13733815D01*
X41895952Y13758950D01*
X41870817Y13780417D01*
X41842634Y13797688D01*
X41812095Y13810338D01*
X41779954Y13818054D01*
X41747001Y13820000D01*
X41415932Y13820000D01*
X41399500Y13821293D01*
X41389525Y13820508D01*
X41389525Y14230906D01*
X41405629Y14240775D01*
X41605510Y14411490D01*
X41776225Y14611371D01*
X41913570Y14835497D01*
X42014163Y15078350D01*
X42075527Y15333949D01*
X42091000Y15596000D01*
X42075527Y15858051D01*
X42014163Y16113650D01*
X41913570Y16356503D01*
X41776225Y16580629D01*
X41605510Y16780510D01*
X41405629Y16951225D01*
X41389525Y16961094D01*
X41389525Y17259479D01*
X41409202Y17245889D01*
X41540899Y17171546D01*
X41678775Y17109409D01*
X41821702Y17059986D01*
X41854172Y17052867D01*
X41887383Y17051137D01*
X41920455Y17054623D01*
X41952576Y17063241D01*
X41982952Y17076776D01*
X42010838Y17094898D01*
X42035545Y17117158D01*
X42056466Y17143009D01*
X42073085Y17171815D01*
X42084993Y17202866D01*
X42091897Y17235398D01*
X42093627Y17268609D01*
X42090141Y17301681D01*
X42081523Y17333802D01*
X42067988Y17364178D01*
X42049866Y17392064D01*
X42027606Y17416771D01*
X42001755Y17437692D01*
X41972949Y17454311D01*
X41941713Y17465594D01*
X41834477Y17501322D01*
X41731382Y17547784D01*
X41632908Y17603373D01*
X41539860Y17667634D01*
X41453001Y17740041D01*
X41389525Y17803517D01*
X41389525Y19522484D01*
X41453001Y19585960D01*
X41539860Y19658367D01*
X41632908Y19722628D01*
X41731382Y19778217D01*
X41834477Y19824679D01*
X41941350Y19861634D01*
X41972396Y19872851D01*
X42001027Y19889369D01*
X42026721Y19910163D01*
X42048846Y19934720D01*
X42066858Y19962437D01*
X42080311Y19992629D01*
X42088876Y20024554D01*
X42092341Y20057426D01*
X42090622Y20090436D01*
X42083759Y20122770D01*
X42071923Y20153632D01*
X42055405Y20182263D01*
X42034611Y20207957D01*
X42010054Y20230082D01*
X41982337Y20248094D01*
X41952145Y20261547D01*
X41920220Y20270112D01*
X41887348Y20273577D01*
X41854338Y20271858D01*
X41822188Y20264374D01*
X41744220Y20238397D01*
X41788527Y20422949D01*
X41804000Y20685000D01*
X41788527Y20947051D01*
X41727163Y21202650D01*
X41626570Y21445503D01*
X41496946Y21657030D01*
X41655051Y21669473D01*
X41910650Y21730837D01*
X42153503Y21831430D01*
X42377629Y21968775D01*
X42577510Y22139490D01*
X42748225Y22339371D01*
X42885570Y22563497D01*
X42986163Y22806350D01*
X43047527Y23061949D01*
X43063000Y23324000D01*
X43047527Y23586051D01*
X42986163Y23841650D01*
X42885570Y24084503D01*
X42748225Y24308629D01*
X42577510Y24508510D01*
X42377629Y24679225D01*
X42153503Y24816570D01*
X41910650Y24917163D01*
X41655051Y24978527D01*
X41393000Y24999151D01*
X41389525Y24998878D01*
X41389525Y27727151D01*
X42081846Y28419472D01*
X42112350Y28406837D01*
X42367949Y28345473D01*
X42630000Y28324849D01*
X42892051Y28345473D01*
X43147650Y28406837D01*
X43390503Y28507430D01*
X43614629Y28644775D01*
X43814510Y28815490D01*
X43985225Y29015371D01*
X44122570Y29239497D01*
X44223163Y29482350D01*
X44284527Y29737949D01*
X44300000Y30000000D01*
X44284527Y30262051D01*
X44223163Y30517650D01*
X44122570Y30760503D01*
X43985225Y30984629D01*
X43814510Y31184510D01*
X43614629Y31355225D01*
X43390503Y31492570D01*
X43360000Y31505205D01*
X43360000Y32656398D01*
X43362251Y32685001D01*
X43353240Y32799499D01*
X43353237Y32799550D01*
X43326414Y32911278D01*
X43282442Y33017436D01*
X43222405Y33115407D01*
X43147781Y33202781D01*
X43125941Y33221434D01*
X42917187Y33430188D01*
X42831407Y33506403D01*
X42733436Y33566440D01*
X42627279Y33610412D01*
X42515550Y33637236D01*
X42401001Y33646251D01*
X42286451Y33637236D01*
X42174723Y33610412D01*
X42068566Y33566441D01*
X41970594Y33506404D01*
X41883221Y33431780D01*
X41808597Y33344407D01*
X41748560Y33246436D01*
X41704588Y33140279D01*
X41677764Y33028550D01*
X41668749Y32914001D01*
X41677764Y32799451D01*
X41704588Y32687723D01*
X41748559Y32581566D01*
X41808596Y32483594D01*
X41884812Y32397813D01*
X41899999Y32382626D01*
X41899999Y31505204D01*
X41869497Y31492570D01*
X41645371Y31355225D01*
X41445490Y31184510D01*
X41389525Y31118984D01*
X41389525Y34184000D01*
X42931625Y34184000D01*
X44862240Y32253385D01*
X44862240Y26665263D01*
X44783722Y26646413D01*
G37*
G36*
X41274775Y30984629D02*
X41137430Y30760503D01*
X41090000Y30645997D01*
X41042570Y30760503D01*
X40905225Y30984629D01*
X40734510Y31184510D01*
X40534629Y31355225D01*
X40310503Y31492570D01*
X40067650Y31593163D01*
X39812051Y31654527D01*
X39550000Y31675151D01*
X39509625Y31671973D01*
X39635510Y31779490D01*
X39806225Y31979371D01*
X39943570Y32203497D01*
X40044163Y32446350D01*
X40105527Y32701949D01*
X40121000Y32964000D01*
X40105527Y33226051D01*
X40044163Y33481650D01*
X40031528Y33512154D01*
X40703374Y34184000D01*
X41389525Y34184000D01*
X41389525Y31118984D01*
X41274775Y30984629D01*
G37*
G36*
X41130949Y24978527D02*
X40875350Y24917163D01*
X40632497Y24816570D01*
X40408371Y24679225D01*
X40208490Y24508510D01*
X40037775Y24308629D01*
X39900430Y24084503D01*
X39799837Y23841650D01*
X39783166Y23772210D01*
X37436434Y26118941D01*
X37417781Y26140781D01*
X37330407Y26215405D01*
X37232436Y26275442D01*
X37126278Y26319414D01*
X37014550Y26346237D01*
X37014499Y26346240D01*
X36900001Y26355251D01*
X36871411Y26353001D01*
X33307599Y26353001D01*
X33279000Y26355252D01*
X33197631Y26348848D01*
X29686458Y29860913D01*
X29667781Y29882781D01*
X29603721Y29937493D01*
X29608278Y29938587D01*
X29714435Y29982559D01*
X29812407Y30042596D01*
X29899780Y30117220D01*
X29918429Y30139055D01*
X32549958Y32770584D01*
X32571779Y32789221D01*
X32646356Y32876539D01*
X32646404Y32876593D01*
X32706441Y32974565D01*
X32750413Y33080722D01*
X32777236Y33192451D01*
X32786252Y33307000D01*
X32783999Y33335625D01*
X32783999Y35054001D01*
X33197999Y35054001D01*
X33197999Y29016591D01*
X33195749Y28988001D01*
X33204764Y28873451D01*
X33231587Y28761722D01*
X33275559Y28655565D01*
X33335596Y28557593D01*
X33410220Y28470220D01*
X33432048Y28451577D01*
X34380577Y27503048D01*
X34399220Y27481220D01*
X34486593Y27406596D01*
X34584565Y27346559D01*
X34690722Y27302587D01*
X34802451Y27275764D01*
X34917001Y27266749D01*
X34945603Y27269000D01*
X40600410Y27269000D01*
X40629000Y27266750D01*
X40743444Y27275757D01*
X40743550Y27275763D01*
X40855278Y27302586D01*
X40961436Y27346558D01*
X41059407Y27406595D01*
X41146781Y27481219D01*
X41165440Y27503066D01*
X41389525Y27727151D01*
X41389525Y24998878D01*
X41130949Y24978527D01*
G37*
G36*
X41181503Y17088570D02*
X40938650Y17189163D01*
X40683051Y17250527D01*
X40421000Y17271151D01*
X40158949Y17250527D01*
X39903350Y17189163D01*
X39660497Y17088570D01*
X39436371Y16951225D01*
X39236490Y16780510D01*
X39065775Y16580629D01*
X38928430Y16356503D01*
X38827837Y16113650D01*
X38766473Y15858051D01*
X38745849Y15596000D01*
X38766473Y15333949D01*
X38827837Y15078350D01*
X38928430Y14835497D01*
X39065775Y14611371D01*
X39236490Y14411490D01*
X39436371Y14240775D01*
X39660497Y14103430D01*
X39691000Y14090795D01*
X39691000Y13810205D01*
X39666405Y13816110D01*
X39600500Y13821296D01*
X39584017Y13819999D01*
X38458000Y13819999D01*
X38458000Y17815398D01*
X38460251Y17844001D01*
X38451240Y17958499D01*
X38451237Y17958550D01*
X38424414Y18070278D01*
X38380442Y18176436D01*
X38320405Y18274407D01*
X38245781Y18361781D01*
X38223941Y18380434D01*
X37876528Y18727847D01*
X37889163Y18758350D01*
X37950527Y19013949D01*
X37966000Y19276000D01*
X37950527Y19538051D01*
X37889163Y19793650D01*
X37788570Y20036503D01*
X37651225Y20260629D01*
X37480510Y20460510D01*
X37366662Y20557746D01*
X37467000Y20549849D01*
X37729051Y20570473D01*
X37984650Y20631837D01*
X38227503Y20732430D01*
X38451629Y20869775D01*
X38474959Y20889701D01*
X38458849Y20685000D01*
X38479473Y20422949D01*
X38540837Y20167350D01*
X38641430Y19924497D01*
X38778775Y19700371D01*
X38949490Y19500490D01*
X39149371Y19329775D01*
X39373497Y19192430D01*
X39616350Y19091837D01*
X39871949Y19030473D01*
X40134000Y19009849D01*
X40396051Y19030473D01*
X40651650Y19091837D01*
X40686153Y19106129D01*
X40685868Y19104829D01*
X40684138Y19071618D01*
X40687624Y19038545D01*
X40696241Y19006425D01*
X40709777Y18976048D01*
X40727898Y18948163D01*
X40750159Y18923456D01*
X40776010Y18902535D01*
X40804815Y18885916D01*
X40835866Y18874008D01*
X40868397Y18867104D01*
X40901608Y18865374D01*
X40934681Y18868860D01*
X40966801Y18877477D01*
X40997178Y18891013D01*
X41025063Y18909134D01*
X41049770Y18931395D01*
X41070691Y18957246D01*
X41087310Y18986051D01*
X41098593Y19017287D01*
X41134321Y19124523D01*
X41180783Y19227618D01*
X41236372Y19326092D01*
X41300633Y19419140D01*
X41373040Y19505999D01*
X41389525Y19522484D01*
X41389525Y17803517D01*
X41373040Y17820002D01*
X41300633Y17906861D01*
X41236372Y17999909D01*
X41180783Y18098383D01*
X41134321Y18201478D01*
X41097366Y18308351D01*
X41086149Y18339395D01*
X41069631Y18368026D01*
X41048837Y18393720D01*
X41024280Y18415846D01*
X40996564Y18433857D01*
X40966372Y18447311D01*
X40934447Y18455876D01*
X40901575Y18459341D01*
X40868565Y18457621D01*
X40836231Y18450759D01*
X40805369Y18438923D01*
X40776738Y18422405D01*
X40751044Y18401611D01*
X40728918Y18377054D01*
X40710907Y18349338D01*
X40697453Y18319146D01*
X40688888Y18287221D01*
X40685423Y18254349D01*
X40687143Y18221339D01*
X40694626Y18189189D01*
X40742408Y18045776D01*
X40804545Y17907900D01*
X40878888Y17776203D01*
X40964829Y17651765D01*
X41061664Y17535601D01*
X41168600Y17428665D01*
X41284764Y17331830D01*
X41389525Y17259479D01*
X41389525Y16961094D01*
X41181503Y17088570D01*
G37*
G36*
X41333595Y13816107D02*
X41269313Y13800674D01*
X41208237Y13775375D01*
X41151870Y13740834D01*
X41150999Y13740090D01*
X41150999Y14090795D01*
X41181503Y14103430D01*
X41389525Y14230906D01*
X41389525Y13820508D01*
X41333595Y13816107D01*
G37*
G36*
X41279650Y9956163D02*
X41024051Y10017527D01*
X40762000Y10038151D01*
X40499949Y10017527D01*
X40283557Y9965576D01*
X40916882Y10598519D01*
X40938779Y10617221D01*
X41012630Y10703688D01*
X41013275Y10704414D01*
X41013341Y10704521D01*
X41013403Y10704594D01*
X41039453Y10747104D01*
X41073341Y10802368D01*
X41073386Y10802478D01*
X41073440Y10802565D01*
X41094388Y10853137D01*
X41117345Y10908512D01*
X41117373Y10908627D01*
X41117412Y10908722D01*
X41129295Y10958219D01*
X41144203Y11020233D01*
X41144213Y11020359D01*
X41144235Y11020451D01*
X41144279Y11021189D01*
X41153252Y11134779D01*
X41150999Y11163519D01*
X41150999Y11259910D01*
X41151870Y11259166D01*
X41208237Y11224625D01*
X41269313Y11199326D01*
X41333595Y11183893D01*
X41389525Y11179492D01*
X41389525Y9910651D01*
X41279650Y9956163D01*
G37*
G36*
X47250375Y25191263D02*
X47232765Y25220001D01*
X47261229Y25220001D01*
X47261229Y25165060D01*
X47250375Y25191263D01*
G37*
G36*
X47255417Y24158817D02*
X47233950Y24183952D01*
X47208815Y24205419D01*
X47180632Y24222690D01*
X47150093Y24235340D01*
X47117952Y24243056D01*
X47084999Y24245650D01*
X47052046Y24243056D01*
X47019905Y24235340D01*
X46989366Y24222690D01*
X46961183Y24205419D01*
X46936048Y24183952D01*
X46914581Y24158817D01*
X46897310Y24130634D01*
X46892859Y24119888D01*
X46875000Y24121293D01*
X46875000Y24578707D01*
X46892860Y24580112D01*
X46897311Y24569367D01*
X46914581Y24541183D01*
X46936049Y24516049D01*
X46961183Y24494581D01*
X46989367Y24477311D01*
X47019905Y24464661D01*
X47052046Y24456945D01*
X47084999Y24454351D01*
X47117952Y24456945D01*
X47150093Y24464661D01*
X47180631Y24477311D01*
X47208815Y24494581D01*
X47233949Y24516049D01*
X47255417Y24541183D01*
X47261229Y24550668D01*
X47261229Y24149333D01*
X47255417Y24158817D01*
G37*
G36*
X47250377Y22091264D02*
X47215835Y22147631D01*
X47172901Y22197901D01*
X47122631Y22240835D01*
X47066264Y22275377D01*
X47005187Y22300676D01*
X46940905Y22316109D01*
X46875000Y22321295D01*
X46858543Y22320000D01*
X45141444Y22320000D01*
X45125000Y22321294D01*
X45101000Y22319405D01*
X45101000Y23280596D01*
X45125000Y23278707D01*
X45141444Y23280001D01*
X45685001Y23280001D01*
X45717954Y23281946D01*
X45750095Y23289662D01*
X45780634Y23302312D01*
X45808817Y23319583D01*
X45833952Y23341050D01*
X45855419Y23366185D01*
X45872690Y23394368D01*
X45885340Y23424907D01*
X45893056Y23457048D01*
X45895650Y23490001D01*
X45893056Y23522954D01*
X45885340Y23555095D01*
X45872690Y23585634D01*
X45855419Y23613817D01*
X45833952Y23638952D01*
X45808817Y23660419D01*
X45780634Y23677690D01*
X45750095Y23690340D01*
X45717954Y23698056D01*
X45685035Y23700000D01*
X46314965Y23700000D01*
X46282046Y23698055D01*
X46249905Y23690339D01*
X46219367Y23677689D01*
X46191183Y23660419D01*
X46166049Y23638951D01*
X46144581Y23613817D01*
X46127311Y23585633D01*
X46114661Y23555095D01*
X46106945Y23522954D01*
X46104351Y23490001D01*
X46106945Y23457048D01*
X46114661Y23424907D01*
X46127311Y23394369D01*
X46144581Y23366185D01*
X46166049Y23341051D01*
X46191183Y23319583D01*
X46219367Y23302313D01*
X46249905Y23289663D01*
X46282046Y23281947D01*
X46314999Y23280001D01*
X46858556Y23280001D01*
X46875000Y23278707D01*
X46940905Y23283893D01*
X47005187Y23299326D01*
X47066263Y23324625D01*
X47122630Y23359166D01*
X47172899Y23402101D01*
X47215834Y23452370D01*
X47250375Y23508737D01*
X47261229Y23534940D01*
X47261229Y22065065D01*
X47250377Y22091264D01*
G37*
G36*
X13362375Y39503000D02*
X12589423Y40275952D01*
X12570780Y40297780D01*
X12483407Y40372404D01*
X12385435Y40432441D01*
X12279278Y40476413D01*
X12194373Y40496796D01*
X12167550Y40503236D01*
X12053001Y40512251D01*
X12024398Y40510000D01*
X9038228Y40510000D01*
X8850629Y40670225D01*
X8626503Y40807570D01*
X8383650Y40908163D01*
X8128051Y40969527D01*
X7998042Y40979759D01*
X7998042Y44726237D01*
X8000000Y44726083D01*
X8199285Y44741767D01*
X8393662Y44788433D01*
X8578346Y44864932D01*
X8748790Y44969379D01*
X8900795Y45099205D01*
X9030621Y45251210D01*
X9135068Y45421654D01*
X9211567Y45606338D01*
X9258233Y45800715D01*
X9270000Y46000000D01*
X9258233Y46199285D01*
X9211567Y46393662D01*
X9135068Y46578346D01*
X9030621Y46748790D01*
X8900795Y46900795D01*
X8748790Y47030621D01*
X8578346Y47135068D01*
X8393662Y47211567D01*
X8199285Y47258233D01*
X8000000Y47273917D01*
X7998042Y47273763D01*
X7998042Y53600000D01*
X14744684Y53600000D01*
X14744684Y47804454D01*
X14685000Y47809151D01*
X14422949Y47788527D01*
X14167350Y47727163D01*
X13924497Y47626570D01*
X13700371Y47489225D01*
X13500490Y47318510D01*
X13329775Y47118629D01*
X13192430Y46894503D01*
X13091837Y46651650D01*
X13030473Y46396051D01*
X13019265Y46253641D01*
X12824152Y46058528D01*
X12793650Y46071163D01*
X12538051Y46132527D01*
X12276000Y46153151D01*
X12013949Y46132527D01*
X11758350Y46071163D01*
X11515497Y45970570D01*
X11291371Y45833225D01*
X11091490Y45662510D01*
X10920775Y45462629D01*
X10783430Y45238503D01*
X10682837Y44995650D01*
X10621473Y44740051D01*
X10600849Y44478000D01*
X10621473Y44215949D01*
X10682837Y43960350D01*
X10783430Y43717497D01*
X10920775Y43493371D01*
X11091490Y43293490D01*
X11291371Y43122775D01*
X11515497Y42985430D01*
X11758350Y42884837D01*
X12013949Y42823473D01*
X12276000Y42802849D01*
X12538051Y42823473D01*
X12793650Y42884837D01*
X13036503Y42985430D01*
X13260629Y43122775D01*
X13460510Y43293490D01*
X13631225Y43493371D01*
X13768570Y43717497D01*
X13869163Y43960350D01*
X13930527Y44215949D01*
X13946000Y44478000D01*
X13936647Y44636397D01*
X14167350Y44540837D01*
X14422949Y44479473D01*
X14685000Y44458849D01*
X14744684Y44463546D01*
X14744684Y44247500D01*
X14732430Y44227503D01*
X14631837Y43984650D01*
X14570473Y43729051D01*
X14549849Y43467000D01*
X14570473Y43204949D01*
X14631837Y42949350D01*
X14732430Y42706497D01*
X14744684Y42686500D01*
X14744684Y39503000D01*
X13362375Y39503000D01*
G37*
G36*
X4385371Y28644775D02*
X4609497Y28507430D01*
X4639999Y28494796D01*
X4639999Y27343591D01*
X4637749Y27315001D01*
X4646764Y27200451D01*
X4673587Y27088722D01*
X4717559Y26982565D01*
X4777596Y26884593D01*
X4852220Y26797220D01*
X4868999Y26782889D01*
X4868999Y19397591D01*
X4866749Y19369001D01*
X4875764Y19254451D01*
X4902587Y19142722D01*
X4946559Y19036565D01*
X5006596Y18938593D01*
X5081220Y18851220D01*
X5103048Y18832577D01*
X7998042Y15937583D01*
X7998042Y9273763D01*
X7800715Y9258233D01*
X7606338Y9211567D01*
X7421654Y9135068D01*
X7251210Y9030621D01*
X7099205Y8900795D01*
X6969379Y8748790D01*
X6864932Y8578346D01*
X6788433Y8393662D01*
X6741767Y8199285D01*
X6726083Y8000000D01*
X6741767Y7800715D01*
X6788433Y7606338D01*
X6864932Y7421654D01*
X6969379Y7251210D01*
X7099205Y7099205D01*
X7251210Y6969379D01*
X7421654Y6864932D01*
X7606338Y6788433D01*
X7800715Y6741767D01*
X7998042Y6726237D01*
X7998042Y4960159D01*
X7941590Y4837284D01*
X7875523Y4651686D01*
X7826154Y4460966D01*
X7821584Y4427964D01*
X7822473Y4394643D01*
X7828564Y4361871D01*
X7839706Y4330455D01*
X7855625Y4301169D01*
X7875930Y4274735D01*
X7900120Y4251802D01*
X7927600Y4232935D01*
X7957693Y4218599D01*
X7989658Y4209148D01*
X7998042Y4208048D01*
X7998042Y3790165D01*
X7990026Y3789114D01*
X7958328Y3779741D01*
X7928487Y3765526D01*
X7901237Y3746817D01*
X7877250Y3724075D01*
X7857115Y3697862D01*
X7841329Y3668821D01*
X7830280Y3637668D01*
X7824240Y3605170D01*
X7823359Y3572128D01*
X7828291Y3539489D01*
X7875523Y3348315D01*
X7941590Y3162717D01*
X7998042Y3039842D01*
X7998042Y400000D01*
X4200000Y400000D01*
X4200000Y1000000D01*
X5425000Y1244000D01*
X6463000Y1937000D01*
X7156000Y2975000D01*
X7400000Y4200000D01*
X7156000Y5425000D01*
X6463000Y6463000D01*
X5425000Y7156000D01*
X4200000Y7400000D01*
X4200000Y28803097D01*
X4385371Y28644775D01*
G37*
G36*
X7866000Y40990151D02*
X7603949Y40969527D01*
X7348350Y40908163D01*
X7105497Y40807570D01*
X6881371Y40670225D01*
X6681490Y40499510D01*
X6510775Y40299629D01*
X6373430Y40075503D01*
X6272837Y39832650D01*
X6211473Y39577051D01*
X6190849Y39315000D01*
X6211473Y39052949D01*
X6272837Y38797350D01*
X6373430Y38554497D01*
X6510775Y38330371D01*
X6681490Y38130490D01*
X6881371Y37959775D01*
X7105497Y37822430D01*
X7136000Y37809795D01*
X7136000Y32798376D01*
X5918152Y31580528D01*
X5887650Y31593163D01*
X5632051Y31654527D01*
X5370000Y31675151D01*
X5107949Y31654527D01*
X4852350Y31593163D01*
X4609497Y31492570D01*
X4385371Y31355225D01*
X4200000Y31196903D01*
X4200000Y46600000D01*
X5425000Y46844000D01*
X6463000Y47537000D01*
X7156000Y48575000D01*
X7400000Y49800000D01*
X7156000Y51025000D01*
X6463000Y52063000D01*
X5425000Y52756000D01*
X4200000Y53000000D01*
X4200000Y53600000D01*
X7998042Y53600000D01*
X7998042Y47273763D01*
X7800715Y47258233D01*
X7606338Y47211567D01*
X7421654Y47135068D01*
X7251210Y47030621D01*
X7099205Y46900795D01*
X6969379Y46748790D01*
X6864932Y46578346D01*
X6788433Y46393662D01*
X6741767Y46199285D01*
X6726083Y46000000D01*
X6741767Y45800715D01*
X6788433Y45606338D01*
X6864932Y45421654D01*
X6969379Y45251210D01*
X7099205Y45099205D01*
X7251210Y44969379D01*
X7421654Y44864932D01*
X7606338Y44788433D01*
X7800715Y44741767D01*
X7998042Y44726237D01*
X7998042Y40979759D01*
X7866000Y40990151D01*
G37*
G36*
X4185490Y31184510D02*
X4014775Y30984629D01*
X3877430Y30760503D01*
X3776837Y30517650D01*
X3715473Y30262051D01*
X3694849Y30000000D01*
X3715473Y29737949D01*
X3776837Y29482350D01*
X3877430Y29239497D01*
X4014775Y29015371D01*
X4185490Y28815490D01*
X4200000Y28803097D01*
X4200000Y7400000D01*
X2975000Y7156000D01*
X1937000Y6463000D01*
X1244000Y5425000D01*
X1000000Y4200000D01*
X1244000Y2975000D01*
X1937000Y1937000D01*
X2975000Y1244000D01*
X4200000Y1000000D01*
X4200000Y400000D01*
X2000000Y400000D01*
X1791000Y414000D01*
X1586000Y455000D01*
X1388000Y522000D01*
X1200000Y614000D01*
X1026000Y731000D01*
X869000Y869000D01*
X731000Y1026000D01*
X614000Y1200000D01*
X522000Y1388000D01*
X455000Y1586000D01*
X414000Y1791000D01*
X400000Y2000000D01*
X400000Y52000000D01*
X414000Y52209000D01*
X455000Y52414000D01*
X522000Y52612000D01*
X614000Y52800000D01*
X731000Y52974000D01*
X869000Y53131000D01*
X1026000Y53269000D01*
X1200000Y53386000D01*
X1388000Y53478000D01*
X1586000Y53545000D01*
X1791000Y53586000D01*
X2000000Y53600000D01*
X4200000Y53600000D01*
X4200000Y53000000D01*
X2975000Y52756000D01*
X1937000Y52063000D01*
X1244000Y51025000D01*
X1000000Y49800000D01*
X1244000Y48575000D01*
X1937000Y47537000D01*
X2975000Y46844000D01*
X4200000Y46600000D01*
X4200000Y31196903D01*
X4185490Y31184510D01*
G37*
G54D23*
X8000000Y46000000D03*
G54D24*
X12276000Y44478000D02*
X13932000Y46134000D01*
X14685000Y46134000D01*
X13060000Y38773000D02*
X12053000Y39780000D01*
X8332000Y39780000D01*
X7866000Y39315000D01*
X17385000Y41458000D02*
X16225000Y42618000D01*
X16225000Y43467000D01*
X18935000Y38773000D02*
X13060000Y38773000D01*
X22427000Y39162000D02*
X20000000Y36735000D01*
X14933000Y36735000D01*
X13982000Y35784000D01*
X12402000Y36696000D02*
X11612000Y36696000D01*
X10533000Y37775000D01*
X22962000Y34875000D02*
X22029000Y35808000D01*
X22029000Y35936000D01*
X26001000Y39162000D02*
X22427000Y39162000D01*
X29065000Y38773000D02*
X28676000Y39162000D01*
X30615000Y41458000D02*
X31775000Y42618000D01*
X31775000Y43467000D01*
X28676000Y39162000D02*
X26001000Y39162000D01*
X32054000Y35784000D02*
X29065000Y38773000D01*
X35598000Y36696000D02*
X36388000Y36696000D01*
X37467000Y37775000D01*
X40134000Y39315000D02*
X40134000Y37609000D01*
X38478000Y41724000D02*
X40134000Y40068000D01*
X40134000Y39315000D01*
X22550000Y41280000D02*
X19085000Y44745000D01*
X24000000Y41280000D02*
X22550000Y41280000D01*
X26001000Y39162000D02*
X26001000Y46629000D01*
X24000000Y43280000D02*
X24000000Y45550000D01*
X19085000Y44745000D02*
X19085000Y49229000D01*
X20489000Y50632000D01*
X27437000Y50632000D01*
X26001000Y46629000D02*
X24000000Y48630000D01*
X21086000Y48401000D02*
X23771000Y48401000D01*
X24000000Y48630000D01*
X27437000Y50632000D02*
X30676000Y47393000D01*
X32056000Y47393000D01*
X33315000Y46134000D01*
X22962000Y33400000D02*
X22962000Y34875000D01*
X22962000Y33400000D02*
X22962000Y31925000D01*
X21976000Y30939000D01*
X18485000Y34203000D02*
X20413000Y32275000D01*
X20413000Y31905000D01*
X13982000Y16273000D02*
X8695000Y16273000D01*
X12402000Y23304000D02*
X11612000Y23304000D01*
X10533000Y22225000D01*
X20413000Y28095000D02*
X21976000Y28095000D01*
X13982000Y24216000D02*
X13982000Y16273000D01*
X19667000Y20495000D02*
X18935000Y21227000D01*
X19294000Y27015000D02*
X18850000Y27459000D01*
X13982000Y16273000D02*
X13982000Y14569000D01*
X17385000Y18542000D02*
X16225000Y17382000D01*
X16225000Y16533000D01*
X22395000Y27015000D02*
X19294000Y27015000D01*
X18850000Y27459000D02*
X18850000Y28732000D01*
X14685000Y13866000D02*
X15944000Y12607000D01*
X17324000Y12607000D01*
X13982000Y14569000D02*
X14685000Y13866000D01*
X12720000Y28550000D02*
X7866000Y23696000D01*
X7866000Y20685000D01*
X9522000Y18276000D02*
X7866000Y19932000D01*
X7866000Y20685000D01*
G54D23*
X8000000Y8000000D03*
G54D24*
X19140000Y8550000D02*
X17357000Y8550000D01*
X16389000Y7582000D01*
G54D25*
X19140000Y10450000D02*
X14000000Y10450000D01*
X14000000Y7000000D01*
X13000000Y7000000D01*
G54D24*
X13982000Y24216000D02*
X22145000Y24216000D01*
X17324000Y12607000D02*
X22550000Y17833000D01*
G54D25*
X16000000Y2300000D02*
X27000000Y2300000D01*
X27000000Y5000000D01*
X13000000Y900000D02*
X29900000Y900000D01*
X22140000Y9500000D02*
X22140000Y5000000D01*
G54D24*
X22550000Y17833000D02*
X22550000Y18720000D01*
X12720000Y30000000D02*
X12720000Y28550000D01*
X16778000Y30000000D02*
X12720000Y30000000D01*
X10720000Y30000000D02*
X8450000Y30000000D01*
X17413000Y30635000D02*
X16778000Y30000000D01*
X17413000Y30635000D02*
X20413000Y30635000D01*
X18850000Y28732000D02*
X19483000Y29365000D01*
X20413000Y29365000D01*
X21976000Y30939000D02*
X21976000Y28095000D01*
X22145000Y24216000D02*
X26024000Y28095000D01*
X27587000Y28095000D02*
X26024000Y28095000D01*
X27587000Y29365000D02*
X29150000Y29365000D01*
X24712000Y30404000D02*
X24712000Y29332000D01*
X22395000Y27015000D01*
X26002000Y20495000D02*
X19667000Y20495000D01*
X29065000Y21227000D02*
X28333000Y20495000D01*
X26002000Y20495000D01*
X29382000Y30635000D02*
X27587000Y30635000D01*
X25038000Y33400000D02*
X26376000Y33400000D01*
X26376000Y33116000D01*
X27587000Y31905000D01*
X29150000Y31905000D01*
X27757000Y34668000D02*
X29150000Y33275000D01*
X29150000Y31905000D01*
X24000000Y18720000D02*
X22550000Y18720000D01*
X26002000Y20495000D02*
X26002000Y13372000D01*
X25392000Y12762000D01*
X24000000Y11370000D01*
X24000000Y16720000D02*
X24000000Y14450000D01*
X25392000Y12762000D02*
X28596000Y9557000D01*
X35724000Y15522000D02*
X34068000Y13866000D01*
X33315000Y13866000D01*
X40421000Y11135000D02*
X40421000Y15596000D01*
X34018000Y17228000D02*
X35724000Y15522000D01*
X37688000Y12500000D02*
X37728000Y12540000D01*
X37688000Y12500000D02*
X36913000Y11725000D01*
X38938000Y12500000D02*
X37688000Y12500000D01*
X36913000Y10500000D02*
X36913000Y11725000D01*
X42422000Y14511000D02*
X42422000Y18537000D01*
X40762000Y8363000D02*
X43717000Y8363000D01*
X38761000Y9476000D02*
X40421000Y11135000D01*
X31775000Y17382000D02*
X31775000Y16533000D01*
X37728000Y12540000D02*
X37728000Y17844000D01*
X30615000Y18542000D02*
X31775000Y17382000D01*
X37728000Y17844000D02*
X36296000Y19276000D01*
X43717000Y8363000D02*
X44000000Y8080000D01*
X38761000Y7532000D02*
X38761000Y9476000D01*
G54D25*
X29900000Y900000D02*
X35087000Y900000D01*
X35087000Y10500000D01*
G54D24*
X29150000Y29365000D02*
X33085000Y25429000D01*
X33928000Y28988000D02*
X33928000Y35694000D01*
X34018000Y35784000D01*
X32054000Y35784000D01*
X32054000Y33307000D01*
X29382000Y30635000D01*
X33085000Y25429000D02*
X33279000Y25623000D01*
X29065000Y21227000D02*
X33085000Y25247000D01*
X33085000Y25429000D01*
X34018000Y24216000D02*
X34018000Y17228000D01*
X33279000Y25623000D02*
X36900000Y25623000D01*
X40629000Y27999000D02*
X34917000Y27999000D01*
X33928000Y28988000D01*
X37280000Y30000000D02*
X39550000Y30000000D01*
X36900000Y25623000D02*
X40134000Y22389000D01*
X42630000Y30000000D02*
X40629000Y27999000D01*
X35598000Y23304000D02*
X36388000Y23304000D01*
X37467000Y22225000D01*
X40134000Y22389000D02*
X40134000Y20685000D01*
X41393000Y23324000D02*
X40458000Y22389000D01*
X40134000Y22389000D01*
X42401000Y32914000D02*
X42630000Y32685000D01*
X43234000Y34914000D02*
X40401000Y34914000D01*
X42630000Y32685000D02*
X42630000Y30000000D01*
X40134000Y37609000D02*
X35280000Y32755000D01*
X40401000Y34914000D02*
X38451000Y32964000D01*
X35280000Y32755000D02*
X35280000Y31450000D01*
X35280000Y30000000D02*
X35280000Y31450000D01*
X8695000Y16273000D02*
X5599000Y19369000D01*
G54D26*
X10000000Y4000000D02*
X10684000Y5879000D01*
X11925000Y9000000D01*
G54D25*
X16000000Y4000000D02*
X16000000Y2300000D01*
X13000000Y7000000D02*
X13000000Y900000D01*
G54D24*
X5599000Y19369000D02*
X5599000Y27086000D01*
X5370000Y27315000D01*
X5370000Y30000000D01*
X7866000Y39315000D02*
X7866000Y32496000D01*
X5370000Y30000000D01*
G54D23*
X56000000Y46000000D03*
G54D24*
X49862000Y34000000D02*
X49862000Y32772000D01*
X54250000Y38750000D02*
X54096000Y38904000D01*
X55587000Y36401000D02*
X56049000Y36863000D01*
G54D26*
X54250000Y38750000D02*
X54250000Y43250000D01*
G54D24*
X49862000Y32772000D02*
X49862000Y32071000D01*
X52621000Y33071000D02*
X51650000Y32100000D01*
X50500000Y32100000D01*
X52621000Y33071000D02*
X54287000Y33071000D01*
X49862000Y32071000D02*
X50500000Y31433000D01*
X50500000Y32100000D01*
X50500000Y30950000D02*
X50500000Y31433000D01*
X54096000Y38904000D02*
X48043000Y38904000D01*
X53795000Y30000000D02*
X55200000Y30000000D01*
X55200000Y31000000D02*
X55200000Y30000000D01*
X49314000Y36401000D02*
X55587000Y36401000D01*
X48914000Y36898000D02*
X48914000Y36801000D01*
X49314000Y36401000D01*
X48138000Y35225000D01*
X48138000Y34000000D02*
X48138000Y35225000D01*
X42422000Y18537000D02*
X42296000Y18663000D01*
X54762000Y23850000D02*
X50700000Y23850000D01*
X50500000Y24050000D01*
X48800000Y24050000D01*
G54D26*
X46000000Y21250000D02*
X54250000Y21250000D01*
G54D24*
X44775000Y39913000D02*
X44775000Y35286000D01*
X46000000Y39913000D02*
X44775000Y39913000D01*
X46000000Y38087000D02*
X47225000Y38087000D01*
X48043000Y38904000D02*
X47225000Y38087000D01*
X44775000Y35286000D02*
X47288000Y32772000D01*
X46000000Y30000000D02*
X46000000Y32148000D01*
X43234000Y34914000D01*
X47288000Y32772000D02*
X49862000Y32772000D01*
X50500000Y29050000D02*
X48800000Y29050000D01*
X48800000Y29200000D01*
X48000000Y30000000D01*
X46000000Y24350000D02*
X48500000Y24350000D01*
X48800000Y24050000D01*
X53561000Y30000000D02*
X53561000Y26211000D01*
X53500000Y25000000D02*
X53500000Y26150000D01*
X53561000Y26211000D02*
X53500000Y26150000D01*
X53500000Y30000000D02*
X53561000Y30000000D01*
X53795000Y30000000D02*
X53561000Y30000000D01*
X44371000Y25311000D02*
X45010000Y25950000D01*
X50500000Y25950000D01*
X42062000Y14150000D02*
X42422000Y14511000D01*
X55393000Y26422000D02*
X55393000Y24480000D01*
X54762000Y23850000D01*
X44371000Y17616000D02*
X44371000Y25311000D01*
G54D26*
X54250000Y16750000D02*
X54250000Y21250000D01*
G54D24*
X42062000Y12500000D02*
X42062000Y14150000D01*
X50224000Y11764000D02*
X44371000Y17616000D01*
X58000000Y17664000D02*
X52099000Y11764000D01*
X50224000Y11764000D01*
X46540000Y8080000D01*
G54D25*
X49750000Y8750000D01*
G54D24*
X54287000Y33071000D02*
X57019000Y35803000D01*
X58827000Y35803000D01*
X56049000Y36863000D02*
X59266000Y36863000D01*
X58827000Y35803000D02*
X60004000Y34626000D01*
X60750000Y43250000D02*
X59196000Y43250000D01*
X57195000Y41248000D01*
X59266000Y36863000D02*
X61064000Y35065000D01*
G54D26*
X60750000Y38750000D02*
X60750000Y43250000D01*
G54D24*
X60004000Y34626000D02*
X60004000Y31032000D01*
X55393000Y26422000D01*
X58000000Y33800000D02*
X55200000Y31000000D01*
X61064000Y35065000D02*
X61064000Y29264000D01*
X60750000Y16750000D02*
X59270000Y15270000D01*
X59270000Y13617000D01*
X58000000Y26200000D02*
X58000000Y17664000D01*
G54D26*
X60750000Y16750000D02*
X60750000Y21250000D01*
G54D24*
X61064000Y29264000D02*
X58000000Y26200000D01*
X54864000Y10578000D02*
X54864000Y11617000D01*
X42062000Y12500000D02*
X43475000Y12500000D01*
X45770000Y11617000D02*
X44358000Y11617000D01*
X43475000Y12500000D01*
X44000000Y5540000D02*
X43427000Y6113000D01*
X40180000Y6113000D01*
X38761000Y7532000D01*
X40534000Y4113000D02*
X41647000Y3000000D01*
X44000000Y3000000D01*
G54D23*
X56000000Y8000000D03*
G54D24*
X46540000Y3000000D02*
X47286000Y3000000D01*
X54864000Y10578000D01*
G54D27*
X8450000Y30000000D03*
X5370000Y30000000D03*
X7866000Y39315000D03*
X7866000Y20685000D03*
X60750000Y43250000D03*
X60750000Y21250000D03*
X60750000Y38750000D03*
X58000000Y26200000D03*
X58000000Y33800000D03*
X57195000Y41248000D03*
X60750000Y16750000D03*
X59270000Y13617000D03*
X10533000Y37775000D03*
X16225000Y43467000D03*
G54D22*
G36*
X12217300Y37351100D02*
X13061700Y36863600D01*
X12586700Y36040900D01*
X11742300Y36528400D01*
X12217300Y37351100D01*
G37*
G36*
X13797300Y36439100D02*
X14641700Y35951600D01*
X14166700Y35128900D01*
X13322300Y35616400D01*
X13797300Y36439100D01*
G37*
G54D27*
X12276000Y44478000D03*
X24000000Y45550000D03*
G54D22*
G36*
X24700000Y43880000D02*
X24700000Y42680000D01*
X23300000Y42680000D01*
X23300000Y43880000D01*
X24700000Y43880000D01*
G37*
G36*
X24700000Y41880000D02*
X24700000Y40680000D01*
X23300000Y40680000D01*
X23300000Y41880000D01*
X24700000Y41880000D01*
G37*
G36*
X17817800Y42458400D02*
X18467800Y41332600D01*
X16952200Y40457600D01*
X16302200Y41583400D01*
X17817800Y42458400D01*
G37*
G36*
X19367800Y39773400D02*
X20017800Y38647600D01*
X18502200Y37772600D01*
X17852200Y38898400D01*
X19367800Y39773400D01*
G37*
G36*
X25625500Y32675000D02*
X24450500Y32675000D01*
X24450500Y34125000D01*
X25625500Y34125000D01*
X25625500Y32675000D01*
G37*
G36*
X23549500Y32675000D02*
X22374500Y32675000D01*
X22374500Y34125000D01*
X23549500Y34125000D01*
X23549500Y32675000D01*
G37*
G54D27*
X22029000Y35936000D03*
X18485000Y34203000D03*
X10533000Y22225000D03*
G54D22*
G36*
X11742300Y23471600D02*
X12586700Y23959100D01*
X13061700Y23136400D01*
X12217300Y22648900D01*
X11742300Y23471600D01*
G37*
G36*
X10120000Y30700000D02*
X11320000Y30700000D01*
X11320000Y29300000D01*
X10120000Y29300000D01*
X10120000Y30700000D01*
G37*
G36*
X12120000Y30700000D02*
X13320000Y30700000D01*
X13320000Y29300000D01*
X12120000Y29300000D01*
X12120000Y30700000D01*
G37*
G54D27*
X9522000Y18276000D03*
X16225000Y16533000D03*
G54D22*
G36*
X13322300Y24383600D02*
X14166700Y24871100D01*
X14641700Y24048400D01*
X13797300Y23560900D01*
X13322300Y24383600D01*
G37*
G36*
X23300000Y16120000D02*
X23300000Y17320000D01*
X24700000Y17320000D01*
X24700000Y16120000D01*
X23300000Y16120000D01*
G37*
G36*
X23300000Y18120000D02*
X23300000Y19320000D01*
X24700000Y19320000D01*
X24700000Y18120000D01*
X23300000Y18120000D01*
G37*
G54D27*
X24712000Y30404000D03*
G54D22*
G36*
X16302200Y18416600D02*
X16952200Y19542400D01*
X18467800Y18667400D01*
X17817800Y17541600D01*
X16302200Y18416600D01*
G37*
G36*
X17852200Y21101600D02*
X18502200Y22227400D01*
X20017800Y21352400D01*
X19367800Y20226600D01*
X17852200Y21101600D01*
G37*
G36*
X19600500Y32230000D02*
X21225500Y32230000D01*
X21225500Y31580000D01*
X19600500Y31580000D01*
X19600500Y32230000D01*
G37*
G36*
X19600500Y30960000D02*
X21225500Y30960000D01*
X21225500Y30310000D01*
X19600500Y30310000D01*
X19600500Y30960000D01*
G37*
G36*
X19600500Y29690000D02*
X21225500Y29690000D01*
X21225500Y29040000D01*
X19600500Y29040000D01*
X19600500Y29690000D01*
G37*
G36*
X19600500Y28420000D02*
X21225500Y28420000D01*
X21225500Y27770000D01*
X19600500Y27770000D01*
X19600500Y28420000D01*
G37*
G54D27*
X17413000Y30635000D03*
X14685000Y13866000D03*
G54D22*
G36*
X18190000Y8950000D02*
X20090000Y8950000D01*
X20090000Y8150000D01*
X18190000Y8150000D01*
X18190000Y8950000D01*
G37*
G36*
X18190000Y10850000D02*
X20090000Y10850000D01*
X20090000Y10050000D01*
X18190000Y10050000D01*
X18190000Y10850000D01*
G37*
G36*
X14587500Y8275000D02*
X13412500Y8275000D01*
X13412500Y9725000D01*
X14587500Y9725000D01*
X14587500Y8275000D01*
G37*
G54D27*
X24000000Y14450000D03*
X24000000Y11370000D03*
G54D22*
G36*
X21190000Y9900000D02*
X23090000Y9900000D01*
X23090000Y9100000D01*
X21190000Y9100000D01*
X21190000Y9900000D01*
G37*
G36*
X12512500Y8275000D02*
X11337500Y8275000D01*
X11337500Y9725000D01*
X12512500Y9725000D01*
X12512500Y8275000D01*
G37*
G54D28*
X16000000Y4000000D03*
G54D27*
X16389000Y7582000D03*
G54D28*
X10000000Y4000000D03*
G54D29*
X22140000Y5000000D03*
G54D27*
X14685000Y46134000D03*
X24000000Y48630000D03*
X21086000Y48401000D03*
X31775000Y43467000D03*
G54D22*
G36*
X36257700Y36528400D02*
X35413300Y36040900D01*
X34938300Y36863600D01*
X35782700Y37351100D01*
X36257700Y36528400D01*
G37*
G36*
X34677700Y35616400D02*
X33833300Y35128900D01*
X33358300Y35951600D01*
X34202700Y36439100D01*
X34677700Y35616400D01*
G37*
G54D27*
X37467000Y37775000D03*
X40134000Y39315000D03*
G54D22*
G36*
X45525000Y37599500D02*
X45525000Y38574500D01*
X46475000Y38574500D01*
X46475000Y37599500D01*
X45525000Y37599500D01*
G37*
G36*
X45525000Y39425500D02*
X45525000Y40400500D01*
X46475000Y40400500D01*
X46475000Y39425500D01*
X45525000Y39425500D01*
G37*
G54D27*
X54250000Y38750000D03*
X54250000Y43250000D03*
X38478000Y41724000D03*
X48914000Y36898000D03*
X39550000Y30000000D03*
G54D22*
G36*
X37880000Y29300000D02*
X36680000Y29300000D01*
X36680000Y30700000D01*
X37880000Y30700000D01*
X37880000Y29300000D01*
G37*
G36*
X35880000Y29300000D02*
X34680000Y29300000D01*
X34680000Y30700000D01*
X35880000Y30700000D01*
X35880000Y29300000D01*
G37*
G54D27*
X38451000Y32964000D03*
X42630000Y30000000D03*
G54D22*
G36*
X35782700Y22648900D02*
X34938300Y23136400D01*
X35413300Y23959100D01*
X36257700Y23471600D01*
X35782700Y22648900D01*
G37*
G54D27*
X41393000Y23324000D03*
X37467000Y22225000D03*
X40134000Y20685000D03*
X42296000Y18663000D03*
X40421000Y15596000D03*
X35724000Y15522000D03*
X36296000Y19276000D03*
G54D22*
G36*
X34202700Y23560900D02*
X33358300Y24048400D01*
X33833300Y24871100D01*
X34677700Y24383600D01*
X34202700Y23560900D01*
G37*
G36*
X45400000Y30700000D02*
X46600000Y30700000D01*
X46600000Y29300000D01*
X45400000Y29300000D01*
X45400000Y30700000D01*
G37*
G36*
X45125000Y20600000D02*
X45125000Y21900000D01*
X46875000Y21900000D01*
X46875000Y20600000D01*
X45125000Y20600000D01*
G37*
G36*
X45125000Y23700000D02*
X45125000Y25000000D01*
X46875000Y25000000D01*
X46875000Y23700000D01*
X45125000Y23700000D01*
G37*
G36*
X47400000Y30700000D02*
X48600000Y30700000D01*
X48600000Y29300000D01*
X47400000Y29300000D01*
X47400000Y30700000D01*
G37*
G36*
X47600500Y34475000D02*
X48675500Y34475000D01*
X48675500Y33525000D01*
X47600500Y33525000D01*
X47600500Y34475000D01*
G37*
G36*
X49324500Y34475000D02*
X50399500Y34475000D01*
X50399500Y33525000D01*
X49324500Y33525000D01*
X49324500Y34475000D01*
G37*
G36*
X49550000Y29450000D02*
X51450000Y29450000D01*
X51450000Y28650000D01*
X49550000Y28650000D01*
X49550000Y29450000D01*
G37*
G36*
X49550000Y31350000D02*
X51450000Y31350000D01*
X51450000Y30550000D01*
X49550000Y30550000D01*
X49550000Y31350000D01*
G37*
G36*
X52550000Y30400000D02*
X54450000Y30400000D01*
X54450000Y29600000D01*
X52550000Y29600000D01*
X52550000Y30400000D01*
G37*
G36*
X49550000Y24450000D02*
X51450000Y24450000D01*
X51450000Y23650000D01*
X49550000Y23650000D01*
X49550000Y24450000D01*
G37*
G36*
X49550000Y26350000D02*
X51450000Y26350000D01*
X51450000Y25550000D01*
X49550000Y25550000D01*
X49550000Y26350000D01*
G37*
G36*
X52550000Y25400000D02*
X54450000Y25400000D01*
X54450000Y24600000D01*
X52550000Y24600000D01*
X52550000Y25400000D01*
G37*
G54D27*
X54250000Y16750000D03*
X54250000Y21250000D03*
X52621000Y33071000D03*
X31775000Y16533000D03*
G54D22*
G36*
X30182200Y17541600D02*
X29532200Y18667400D01*
X31047800Y19542400D01*
X31697800Y18416600D01*
X30182200Y17541600D01*
G37*
G36*
X28632200Y20226600D02*
X27982200Y21352400D01*
X29497800Y22227400D01*
X30147800Y21101600D01*
X28632200Y20226600D01*
G37*
G54D27*
X33315000Y13866000D03*
G54D22*
G36*
X34599500Y10975000D02*
X35574500Y10975000D01*
X35574500Y10025000D01*
X34599500Y10025000D01*
X34599500Y10975000D01*
G37*
G36*
X36425500Y10975000D02*
X37400500Y10975000D01*
X37400500Y10025000D01*
X36425500Y10025000D01*
X36425500Y10975000D01*
G37*
G36*
X38275500Y13400000D02*
X39600500Y13400000D01*
X39600500Y11600000D01*
X38275500Y11600000D01*
X38275500Y13400000D01*
G37*
G36*
X41399500Y13400000D02*
X42724500Y13400000D01*
X42724500Y11600000D01*
X41399500Y11600000D01*
X41399500Y13400000D01*
G37*
G54D30*
X44000000Y5540000D03*
X44000000Y8080000D03*
X44000000Y3000000D03*
X46540000Y3000000D03*
X46540000Y5540000D03*
X46540000Y8080000D03*
G54D27*
X45770000Y11617000D03*
X40762000Y8363000D03*
X40534000Y4113000D03*
G54D29*
X27000000Y5000000D03*
X31860000Y5000000D03*
G54D27*
X35250000Y3250000D03*
X54864000Y11617000D03*
X49750000Y8750000D03*
X28596000Y9557000D03*
G54D22*
G36*
X31697800Y41583400D02*
X31047800Y40457600D01*
X29532200Y41332600D01*
X30182200Y42458400D01*
X31697800Y41583400D01*
G37*
G36*
X30147800Y38898400D02*
X29497800Y37772600D01*
X27982200Y38647600D01*
X28632200Y39773400D01*
X30147800Y38898400D01*
G37*
G36*
X26774500Y28420000D02*
X28399500Y28420000D01*
X28399500Y27770000D01*
X26774500Y27770000D01*
X26774500Y28420000D01*
G37*
G36*
X26774500Y29690000D02*
X28399500Y29690000D01*
X28399500Y29040000D01*
X26774500Y29040000D01*
X26774500Y29690000D01*
G37*
G36*
X26774500Y30960000D02*
X28399500Y30960000D01*
X28399500Y30310000D01*
X26774500Y30310000D01*
X26774500Y30960000D01*
G37*
G36*
X26774500Y32230000D02*
X28399500Y32230000D01*
X28399500Y31580000D01*
X26774500Y31580000D01*
X26774500Y32230000D01*
G37*
G54D27*
X27757000Y34668000D03*
X33315000Y46134000D03*
X30676000Y47393000D03*
G54D31*
G54D32*
G54D31*
G54D32*
G54D31*
G54D32*
G54D31*
G54D32*
G54D33*
G54D32*
G54D33*
G54D30*
G54D32*
G54D30*
G54D32*
M02*
