G04 start of page 2 for group 2 layer_idx 1 *
G04 Title: (unknown), bottom_copper *
G04 Creator: pcb-rnd 3.1.7b *
G04 CreationDate: 2026-08-02 13:36:58 UTC *
G04 For: Dad *
G04 Format: Gerber/RS-274X *
G04 PCB-Dimensions: 64000000 54000000 *
G04 PCB-Coordinate-Origin: lower left *
%MOMM*%
%FSLAX46Y46*%
%LNBOTTOM_COPPER_NONE_2*%
%ADD34C,1.500000*%
%ADD33C,1.000000*%
%ADD32C,3.400000*%
%ADD31C,1.800000*%
%ADD30C,3.300000*%
%ADD29C,3.600000*%
%ADD28C,2.500000*%
%ADD27C,0.800000*%
%ADD26C,0.600000*%
%ADD25C,0.620000*%
%ADD24C,1.700000*%
%ADD23C,0.002000*%
G54D23*
G36*
X19143551Y19871095D02*
X19157148Y19861750D01*
X19216817Y19833289D01*
X19216820Y19833288D01*
X19216828Y19833284D01*
X19257845Y19821135D01*
X19280203Y19814512D01*
X19280206Y19814512D01*
X19280215Y19814509D01*
X19320407Y19809218D01*
X20709000Y18420625D01*
X20709000Y13959603D01*
X20706749Y13931001D01*
X20715764Y13816451D01*
X20737395Y13726353D01*
X20742588Y13704722D01*
X20760802Y13660751D01*
X20786559Y13598566D01*
X20846596Y13500594D01*
X20846622Y13500565D01*
X20921221Y13413221D01*
X20943035Y13394590D01*
X22419472Y11918153D01*
X22406837Y11887650D01*
X22345473Y11632051D01*
X22324849Y11370000D01*
X22345473Y11107949D01*
X22406837Y10852350D01*
X22507430Y10609497D01*
X22644775Y10385371D01*
X22700607Y10320000D01*
X22172146Y10320000D01*
X22140000Y10322530D01*
X22107854Y10320000D01*
X21206457Y10320000D01*
X21190000Y10321295D01*
X21124095Y10316109D01*
X21059813Y10300676D01*
X20998736Y10275377D01*
X20942369Y10240835D01*
X20892099Y10197901D01*
X20849165Y10147631D01*
X20814623Y10091264D01*
X20789324Y10030187D01*
X20773891Y9965905D01*
X20768705Y9900000D01*
X20770000Y9883543D01*
X20770000Y9116457D01*
X20768705Y9100000D01*
X20773891Y9034095D01*
X20789324Y8969813D01*
X20814623Y8908736D01*
X20849165Y8852369D01*
X20892099Y8802099D01*
X20942369Y8759165D01*
X20998736Y8724623D01*
X21059813Y8699324D01*
X21124095Y8683891D01*
X21190000Y8678705D01*
X21206457Y8680000D01*
X21319999Y8680000D01*
X21319999Y6900879D01*
X21197341Y6850072D01*
X20919532Y6679830D01*
X20671775Y6468225D01*
X20460170Y6220468D01*
X20289928Y5942659D01*
X20165241Y5641638D01*
X20089179Y5324818D01*
X20063616Y5000000D01*
X20089179Y4675182D01*
X20165241Y4358362D01*
X20289928Y4057341D01*
X20460170Y3779532D01*
X20671775Y3531775D01*
X20919532Y3320170D01*
X21197341Y3149928D01*
X21269591Y3120001D01*
X19139354Y3120001D01*
X19139354Y8150000D01*
X19454948Y8150000D01*
X19422046Y8148056D01*
X19389905Y8140340D01*
X19359366Y8127690D01*
X19331183Y8110419D01*
X19306048Y8088952D01*
X19284581Y8063817D01*
X19267310Y8035634D01*
X19254660Y8005095D01*
X19246944Y7972954D01*
X19244350Y7940001D01*
X19246944Y7907048D01*
X19254660Y7874907D01*
X19267310Y7844368D01*
X19284581Y7816185D01*
X19306048Y7791050D01*
X19331183Y7769583D01*
X19359366Y7752312D01*
X19389905Y7739662D01*
X19422046Y7731946D01*
X19454999Y7730000D01*
X20073568Y7730000D01*
X20090000Y7728707D01*
X20155905Y7733893D01*
X20220187Y7749326D01*
X20281263Y7774625D01*
X20337630Y7809166D01*
X20387899Y7852101D01*
X20430834Y7902370D01*
X20465375Y7958737D01*
X20490674Y8019813D01*
X20506107Y8084095D01*
X20508052Y8117039D01*
X20508054Y8117047D01*
X20510000Y8150000D01*
X20510000Y8235001D01*
X20508055Y8267954D01*
X20500339Y8300095D01*
X20487689Y8330634D01*
X20470418Y8358818D01*
X20448951Y8383953D01*
X20425163Y8404269D01*
X20387899Y8447899D01*
X20337630Y8490834D01*
X20281263Y8525375D01*
X20221814Y8550000D01*
X20281263Y8574625D01*
X20337630Y8609166D01*
X20387899Y8652101D01*
X20425169Y8695738D01*
X20448950Y8716048D01*
X20470417Y8741183D01*
X20487688Y8769366D01*
X20500338Y8799905D01*
X20508054Y8832046D01*
X20510000Y8864999D01*
X20510000Y8950000D01*
X20508055Y8982953D01*
X20508052Y8982967D01*
X20506107Y9015905D01*
X20490674Y9080187D01*
X20465375Y9141263D01*
X20430834Y9197630D01*
X20387899Y9247899D01*
X20337630Y9290834D01*
X20281263Y9325375D01*
X20220187Y9350674D01*
X20155905Y9366107D01*
X20090000Y9371293D01*
X20073568Y9370000D01*
X19454999Y9370000D01*
X19422046Y9368055D01*
X19389905Y9360339D01*
X19359366Y9347689D01*
X19331182Y9330418D01*
X19306047Y9308951D01*
X19284580Y9283816D01*
X19267309Y9255632D01*
X19254659Y9225093D01*
X19246943Y9192952D01*
X19244349Y9159999D01*
X19246943Y9127046D01*
X19254659Y9094905D01*
X19267309Y9064366D01*
X19284580Y9036182D01*
X19306047Y9011047D01*
X19331182Y8989580D01*
X19359366Y8972309D01*
X19389905Y8959659D01*
X19422046Y8951943D01*
X19454948Y8950000D01*
X19139354Y8950000D01*
X19139354Y9630000D01*
X20073543Y9630000D01*
X20090000Y9628705D01*
X20155905Y9633891D01*
X20220187Y9649324D01*
X20281264Y9674623D01*
X20337631Y9709165D01*
X20387901Y9752099D01*
X20430835Y9802369D01*
X20465377Y9858736D01*
X20490676Y9919813D01*
X20506109Y9984095D01*
X20511295Y10050000D01*
X20510000Y10066457D01*
X20510000Y10833543D01*
X20511295Y10850000D01*
X20506109Y10915905D01*
X20490676Y10980187D01*
X20465377Y11041264D01*
X20430835Y11097631D01*
X20387901Y11147901D01*
X20337631Y11190835D01*
X20281264Y11225377D01*
X20220187Y11250676D01*
X20155905Y11266109D01*
X20090000Y11271295D01*
X20073543Y11270000D01*
X19139354Y11270000D01*
X19139354Y19873518D01*
X19143551Y19871095D01*
G37*
G36*
X18038384Y3120001D02*
X18117857Y3311866D01*
X18199431Y3651644D01*
X18220000Y4000000D01*
X18199431Y4348356D01*
X18117857Y4688134D01*
X17984135Y5010967D01*
X17801557Y5308908D01*
X17574619Y5574619D01*
X17308908Y5801557D01*
X17010967Y5984135D01*
X16688134Y6117857D01*
X16348356Y6199431D01*
X16000000Y6226847D01*
X15651644Y6199431D01*
X15311866Y6117857D01*
X14989033Y5984135D01*
X14691092Y5801557D01*
X14425381Y5574619D01*
X14198443Y5308908D01*
X14015865Y5010967D01*
X13882143Y4688134D01*
X13820000Y4429291D01*
X13820000Y6180000D01*
X13967880Y6180000D01*
X14000000Y6177472D01*
X14128570Y6187591D01*
X14128672Y6187597D01*
X14254176Y6217727D01*
X14373421Y6267120D01*
X14483471Y6334559D01*
X14581617Y6418383D01*
X14665441Y6516529D01*
X14732880Y6626579D01*
X14782273Y6745824D01*
X14812403Y6871328D01*
X14822530Y7000000D01*
X14819999Y7032158D01*
X14819999Y7924892D01*
X14835131Y7934165D01*
X14885401Y7977099D01*
X14928335Y8027369D01*
X14962877Y8083736D01*
X14988176Y8144813D01*
X15003609Y8209095D01*
X15008795Y8275000D01*
X15007500Y8291457D01*
X15007500Y9630001D01*
X18173530Y9630001D01*
X18190000Y9628705D01*
X18206457Y9630000D01*
X19139354Y9630000D01*
X19139354Y8950000D01*
X18825052Y8950000D01*
X18857954Y8951944D01*
X18890095Y8959660D01*
X18920634Y8972310D01*
X18948817Y8989581D01*
X18973952Y9011048D01*
X18995419Y9036183D01*
X19012690Y9064366D01*
X19025340Y9094905D01*
X19033056Y9127046D01*
X19035650Y9159999D01*
X19033056Y9192952D01*
X19025340Y9225093D01*
X19012690Y9255632D01*
X18995419Y9283815D01*
X18973952Y9308950D01*
X18948817Y9330417D01*
X18920634Y9347688D01*
X18890095Y9360338D01*
X18857954Y9368054D01*
X18825001Y9370000D01*
X18206432Y9370000D01*
X18190000Y9371293D01*
X18124095Y9366107D01*
X18059813Y9350674D01*
X17998737Y9325375D01*
X17942370Y9290834D01*
X17892101Y9247899D01*
X17849166Y9197630D01*
X17814625Y9141263D01*
X17789326Y9080187D01*
X17773893Y9015905D01*
X17768707Y8950000D01*
X17770000Y8933568D01*
X17770000Y8864999D01*
X17771945Y8832046D01*
X17779661Y8799905D01*
X17792311Y8769366D01*
X17809582Y8741182D01*
X17831049Y8716047D01*
X17854837Y8695731D01*
X17892101Y8652101D01*
X17942370Y8609166D01*
X17998737Y8574625D01*
X18058186Y8550000D01*
X17998737Y8525375D01*
X17942370Y8490834D01*
X17892101Y8447899D01*
X17854831Y8404262D01*
X17831050Y8383952D01*
X17809583Y8358817D01*
X17792312Y8330634D01*
X17779662Y8300095D01*
X17771946Y8267954D01*
X17770000Y8235001D01*
X17770000Y8166432D01*
X17768707Y8150000D01*
X17773893Y8084095D01*
X17789326Y8019813D01*
X17814625Y7958737D01*
X17849166Y7902370D01*
X17892101Y7852101D01*
X17942370Y7809166D01*
X17998737Y7774625D01*
X18059813Y7749326D01*
X18124095Y7733893D01*
X18190000Y7728707D01*
X18206432Y7730000D01*
X18825001Y7730000D01*
X18857954Y7731945D01*
X18890095Y7739661D01*
X18920634Y7752311D01*
X18948818Y7769582D01*
X18973953Y7791049D01*
X18995420Y7816184D01*
X19012691Y7844368D01*
X19025341Y7874907D01*
X19033057Y7907048D01*
X19035651Y7940001D01*
X19033057Y7972954D01*
X19025341Y8005095D01*
X19012691Y8035634D01*
X18995420Y8063818D01*
X18973953Y8088953D01*
X18948818Y8110420D01*
X18920634Y8127691D01*
X18890095Y8140341D01*
X18857954Y8148057D01*
X18825052Y8150000D01*
X19139354Y8150000D01*
X19139354Y3120001D01*
X18038384Y3120001D01*
G37*
G36*
X13251999Y15543000D02*
X13251999Y14723710D01*
X13192430Y14626503D01*
X13091837Y14383650D01*
X13030473Y14128051D01*
X13009849Y13866000D01*
X13030473Y13603949D01*
X13091837Y13348350D01*
X13192430Y13105497D01*
X13329775Y12881371D01*
X13500490Y12681490D01*
X13700371Y12510775D01*
X13924497Y12373430D01*
X14167350Y12272837D01*
X14422949Y12211473D01*
X14685000Y12190849D01*
X14947051Y12211473D01*
X15202650Y12272837D01*
X15233153Y12285472D01*
X15407590Y12111035D01*
X15426221Y12089221D01*
X15513565Y12014622D01*
X15513594Y12014596D01*
X15611566Y11954559D01*
X15673751Y11928802D01*
X15717722Y11910588D01*
X15739353Y11905395D01*
X15829451Y11883764D01*
X15944001Y11874749D01*
X15972616Y11877001D01*
X17324000Y11877001D01*
X17438549Y11883764D01*
X17550278Y11910587D01*
X17656435Y11954559D01*
X17754407Y12014596D01*
X17841780Y12089220D01*
X17916404Y12176593D01*
X17976441Y12274565D01*
X18020413Y12380722D01*
X18047236Y12492451D01*
X18056252Y12607000D01*
X18047236Y12721549D01*
X18020413Y12833278D01*
X17976441Y12939435D01*
X17916404Y13037407D01*
X17841780Y13124780D01*
X17754407Y13199404D01*
X17656435Y13259441D01*
X17550278Y13303413D01*
X17438549Y13330236D01*
X17324000Y13337000D01*
X16273462Y13337000D01*
X16278163Y13348350D01*
X16339527Y13603949D01*
X16355000Y13866000D01*
X16339527Y14128051D01*
X16278163Y14383650D01*
X16177570Y14626503D01*
X16040225Y14850629D01*
X16020299Y14873959D01*
X16225000Y14857849D01*
X16487051Y14878473D01*
X16742650Y14939837D01*
X16985503Y15040430D01*
X17209629Y15177775D01*
X17409510Y15348490D01*
X17580225Y15548371D01*
X17717570Y15772497D01*
X17818163Y16015350D01*
X17879527Y16270949D01*
X17895000Y16533000D01*
X17879527Y16795051D01*
X17818163Y17050650D01*
X17788687Y17121812D01*
X17795758Y17120881D01*
X17843402Y17122130D01*
X17861833Y17122612D01*
X17861837Y17122613D01*
X17861845Y17122613D01*
X17926847Y17134661D01*
X17989153Y17156726D01*
X17989163Y17156730D01*
X18047261Y17188275D01*
X18099708Y17228521D01*
X18145213Y17276475D01*
X18182657Y17330958D01*
X18189768Y17345868D01*
X18823299Y18443143D01*
X18832656Y18456758D01*
X18861066Y18516325D01*
X18861112Y18516417D01*
X18879889Y18579803D01*
X18888518Y18645347D01*
X18888518Y18645358D01*
X18888020Y18664388D01*
X18886788Y18711433D01*
X18886787Y18711437D01*
X18886787Y18711444D01*
X18882616Y18733945D01*
X18874742Y18776435D01*
X18852675Y18838753D01*
X18852670Y18838763D01*
X18847343Y18848574D01*
X18821131Y18896851D01*
X18780887Y18949299D01*
X18780880Y18949305D01*
X18780879Y18949307D01*
X18774241Y18955606D01*
X18732933Y18994806D01*
X18678452Y19032251D01*
X18663535Y19039366D01*
X17176449Y19897905D01*
X17162852Y19907250D01*
X17103183Y19935711D01*
X17103180Y19935712D01*
X17103172Y19935716D01*
X17062155Y19947865D01*
X17039797Y19954488D01*
X17039794Y19954488D01*
X17039785Y19954491D01*
X16974242Y19963119D01*
X16926598Y19961870D01*
X16908167Y19961388D01*
X16908163Y19961387D01*
X16908155Y19961387D01*
X16843153Y19949339D01*
X16780847Y19927274D01*
X16780837Y19927270D01*
X16722739Y19895725D01*
X16670292Y19855479D01*
X16624787Y19807525D01*
X16587343Y19753042D01*
X16580232Y19738132D01*
X15946701Y18640857D01*
X15937344Y18627242D01*
X15908934Y18567675D01*
X15908888Y18567583D01*
X15890111Y18504197D01*
X15881482Y18438653D01*
X15881482Y18438642D01*
X15881980Y18419612D01*
X15883212Y18372567D01*
X15883213Y18372563D01*
X15883213Y18372556D01*
X15887384Y18350055D01*
X15895258Y18307565D01*
X15917325Y18245247D01*
X15917330Y18245237D01*
X15922657Y18235426D01*
X15948869Y18187149D01*
X15950814Y18184614D01*
X15707350Y18126163D01*
X15464497Y18025570D01*
X15240371Y17888225D01*
X15040490Y17717510D01*
X14869775Y17517629D01*
X14732430Y17293503D01*
X14711999Y17244178D01*
X14711999Y19443767D01*
X17548233Y22280001D01*
X18047593Y22280001D01*
X17496701Y21325857D01*
X17487344Y21312242D01*
X17458934Y21252675D01*
X17458888Y21252583D01*
X17440111Y21189197D01*
X17431482Y21123653D01*
X17431482Y21123642D01*
X17431980Y21104612D01*
X17433212Y21057567D01*
X17433213Y21057563D01*
X17433213Y21057556D01*
X17437384Y21035055D01*
X17445258Y20992565D01*
X17467325Y20930247D01*
X17467330Y20930237D01*
X17472657Y20920426D01*
X17498869Y20872149D01*
X17539113Y20819701D01*
X17539120Y20819695D01*
X17539121Y20819693D01*
X17545759Y20813394D01*
X17587067Y20774194D01*
X17641548Y20736749D01*
X17656465Y20729634D01*
X19139354Y19873518D01*
X19139354Y11270000D01*
X18206457Y11270000D01*
X18190000Y11271295D01*
X18173543Y11270000D01*
X14032133Y11270000D01*
X14000000Y11272529D01*
X13871328Y11262402D01*
X13745825Y11232272D01*
X13626580Y11182879D01*
X13516530Y11115440D01*
X13418384Y11031616D01*
X13334560Y10933470D01*
X13267121Y10823420D01*
X13217728Y10704175D01*
X13187598Y10578672D01*
X13187595Y10578621D01*
X13177472Y10450000D01*
X13180000Y10417880D01*
X13180000Y10075107D01*
X13164869Y10065835D01*
X13114599Y10022901D01*
X13071665Y9972631D01*
X13037123Y9916264D01*
X13011824Y9855187D01*
X12996391Y9790905D01*
X12991205Y9725000D01*
X12992500Y9708543D01*
X12992500Y8291444D01*
X12991206Y8275000D01*
X12996384Y8209197D01*
X12996390Y8209095D01*
X13011823Y8144812D01*
X13037122Y8083735D01*
X13071664Y8027368D01*
X13114598Y7977098D01*
X13164868Y7934164D01*
X13180000Y7924891D01*
X13180000Y7820001D01*
X13032133Y7820001D01*
X13000000Y7822530D01*
X12871328Y7812403D01*
X12745824Y7782273D01*
X12626579Y7732880D01*
X12516529Y7665441D01*
X12418383Y7581617D01*
X12334559Y7483471D01*
X12267120Y7373421D01*
X12217727Y7254176D01*
X12187597Y7128672D01*
X12187594Y7128621D01*
X12177471Y7000000D01*
X12179999Y6967880D01*
X12179999Y1100000D01*
X11924353Y1100000D01*
X11924353Y2893073D01*
X11976164Y2983700D01*
X12058409Y3162717D01*
X12124476Y3348315D01*
X12173845Y3539035D01*
X12178417Y3572036D01*
X12177528Y3605357D01*
X12171438Y3638129D01*
X12160296Y3669545D01*
X12144376Y3698831D01*
X12124071Y3725266D01*
X12099881Y3748199D01*
X12072401Y3767066D01*
X12042309Y3781401D01*
X12010343Y3790853D01*
X11977293Y3795188D01*
X11943972Y3794299D01*
X11924353Y3790653D01*
X11924353Y4211151D01*
X11944160Y4207470D01*
X11977202Y4206589D01*
X12009975Y4210887D01*
X12041673Y4220260D01*
X12071514Y4234476D01*
X12098763Y4253185D01*
X12122751Y4275926D01*
X12142885Y4302140D01*
X12158671Y4331181D01*
X12169720Y4362333D01*
X12175759Y4394831D01*
X12176640Y4427873D01*
X12171708Y4460512D01*
X12124476Y4651686D01*
X12058409Y4837284D01*
X11976164Y5016301D01*
X11924353Y5106928D01*
X11924353Y8275000D01*
X12091207Y8275000D01*
X12095698Y8217924D01*
X12091048Y8213952D01*
X12069581Y8188817D01*
X12052310Y8160634D01*
X12039660Y8130095D01*
X12031944Y8097954D01*
X12029350Y8065001D01*
X12031944Y8032048D01*
X12039660Y7999907D01*
X12052310Y7969368D01*
X12069581Y7941185D01*
X12091048Y7916050D01*
X12116183Y7894583D01*
X12144366Y7877312D01*
X12174905Y7864662D01*
X12207046Y7856946D01*
X12239999Y7855000D01*
X12496068Y7855000D01*
X12512500Y7853707D01*
X12578405Y7858893D01*
X12642687Y7874326D01*
X12703763Y7899625D01*
X12760130Y7934166D01*
X12810399Y7977101D01*
X12853334Y8027370D01*
X12887875Y8083737D01*
X12913174Y8144813D01*
X12928607Y8209095D01*
X12930552Y8242044D01*
X12930553Y8242047D01*
X12932499Y8275000D01*
X12932499Y8685001D01*
X12930554Y8717954D01*
X12922838Y8750095D01*
X12910188Y8780634D01*
X12892917Y8808817D01*
X12871450Y8833952D01*
X12846315Y8855419D01*
X12818132Y8872690D01*
X12787593Y8885340D01*
X12755452Y8893056D01*
X12722499Y8895650D01*
X12689546Y8893056D01*
X12657405Y8885340D01*
X12626866Y8872690D01*
X12598683Y8855419D01*
X12573548Y8833952D01*
X12552081Y8808817D01*
X12534810Y8780634D01*
X12522160Y8750095D01*
X12514444Y8717954D01*
X12513162Y8696241D01*
X12512500Y8696293D01*
X12512500Y9303707D01*
X12513162Y9303759D01*
X12514445Y9282046D01*
X12522161Y9249905D01*
X12534811Y9219367D01*
X12552081Y9191183D01*
X12573549Y9166049D01*
X12598683Y9144581D01*
X12626867Y9127311D01*
X12657405Y9114661D01*
X12689546Y9106945D01*
X12722499Y9104351D01*
X12755452Y9106945D01*
X12787593Y9114661D01*
X12818131Y9127311D01*
X12846315Y9144581D01*
X12871449Y9166049D01*
X12892917Y9191183D01*
X12910187Y9219367D01*
X12922837Y9249905D01*
X12930553Y9282046D01*
X12932499Y9314999D01*
X12932499Y9725000D01*
X12930554Y9757953D01*
X12930552Y9757961D01*
X12928607Y9790905D01*
X12913174Y9855187D01*
X12887875Y9916263D01*
X12853334Y9972630D01*
X12810399Y10022899D01*
X12760130Y10065834D01*
X12703763Y10100375D01*
X12642687Y10125674D01*
X12578405Y10141107D01*
X12512500Y10146293D01*
X12496068Y10145000D01*
X12239999Y10145000D01*
X12207046Y10143055D01*
X12174905Y10135339D01*
X12144366Y10122689D01*
X12116182Y10105418D01*
X12091047Y10083951D01*
X12069580Y10058816D01*
X12052309Y10030632D01*
X12039659Y10000093D01*
X12031943Y9967952D01*
X12029349Y9934999D01*
X12031943Y9902046D01*
X12039659Y9869905D01*
X12052309Y9839366D01*
X12069580Y9811182D01*
X12091047Y9786047D01*
X12095698Y9782075D01*
X12091207Y9725000D01*
X11924353Y9725000D01*
X11924353Y15543000D01*
X13251999Y15543000D01*
G37*
G36*
X8521748Y15528107D02*
X8539110Y15530001D01*
X9696763Y15530001D01*
X9700076Y15529508D01*
X9813400Y15530568D01*
X9837993Y15535196D01*
X9862980Y15536671D01*
X9889342Y15543000D01*
X11924353Y15543000D01*
X11924353Y9725000D01*
X11757498Y9725000D01*
X11754137Y9781935D01*
X11758952Y9786048D01*
X11780419Y9811183D01*
X11797690Y9839366D01*
X11810340Y9869905D01*
X11818056Y9902046D01*
X11820650Y9934999D01*
X11818056Y9967952D01*
X11810340Y10000093D01*
X11797690Y10030632D01*
X11780419Y10058815D01*
X11758952Y10083950D01*
X11733817Y10105417D01*
X11705634Y10122688D01*
X11675095Y10135338D01*
X11642954Y10143054D01*
X11610001Y10145000D01*
X11353932Y10145000D01*
X11337500Y10146293D01*
X11271595Y10141107D01*
X11207313Y10125674D01*
X11146237Y10100375D01*
X11089870Y10065834D01*
X11039601Y10022899D01*
X10996666Y9972630D01*
X10962125Y9916263D01*
X10936826Y9855187D01*
X10921393Y9790905D01*
X10916207Y9725000D01*
X10917501Y9708556D01*
X10917501Y9314999D01*
X10919446Y9282046D01*
X10927162Y9249905D01*
X10939812Y9219366D01*
X10957083Y9191183D01*
X10978550Y9166048D01*
X11003685Y9144581D01*
X11031868Y9127310D01*
X11062407Y9114660D01*
X11094548Y9106944D01*
X11127501Y9104350D01*
X11160454Y9106944D01*
X11192595Y9114660D01*
X11223134Y9127310D01*
X11251317Y9144581D01*
X11276452Y9166048D01*
X11297919Y9191183D01*
X11315190Y9219366D01*
X11327840Y9249905D01*
X11335556Y9282046D01*
X11336838Y9303759D01*
X11337500Y9303707D01*
X11337500Y8696293D01*
X11336838Y8696241D01*
X11335555Y8717954D01*
X11327839Y8750095D01*
X11315189Y8780633D01*
X11297919Y8808817D01*
X11276451Y8833951D01*
X11251317Y8855419D01*
X11223133Y8872689D01*
X11192595Y8885339D01*
X11160454Y8893055D01*
X11127501Y8895649D01*
X11094548Y8893055D01*
X11062407Y8885339D01*
X11031869Y8872689D01*
X11003685Y8855419D01*
X10978551Y8833951D01*
X10957083Y8808817D01*
X10939813Y8780633D01*
X10927163Y8750095D01*
X10919447Y8717954D01*
X10917501Y8685001D01*
X10917501Y8291444D01*
X10916207Y8275000D01*
X10921393Y8209095D01*
X10936826Y8144813D01*
X10962125Y8083737D01*
X10996666Y8027370D01*
X11039601Y7977101D01*
X11089870Y7934166D01*
X11146237Y7899625D01*
X11207313Y7874326D01*
X11271595Y7858893D01*
X11337500Y7853707D01*
X11353932Y7855000D01*
X11610001Y7855000D01*
X11642954Y7856945D01*
X11675095Y7864661D01*
X11705634Y7877311D01*
X11733818Y7894582D01*
X11758953Y7916049D01*
X11780420Y7941184D01*
X11797691Y7969368D01*
X11810341Y7999907D01*
X11818057Y8032048D01*
X11820651Y8065001D01*
X11818057Y8097954D01*
X11810341Y8130095D01*
X11797691Y8160634D01*
X11780420Y8188818D01*
X11758953Y8213953D01*
X11754137Y8218066D01*
X11757498Y8275000D01*
X11924353Y8275000D01*
X11924353Y5106928D01*
X11878387Y5187331D01*
X11765847Y5349029D01*
X11639428Y5500124D01*
X11500123Y5639429D01*
X11349028Y5765848D01*
X11187330Y5878388D01*
X11016300Y5976165D01*
X10837283Y6058410D01*
X10651685Y6124477D01*
X10460965Y6173846D01*
X10427965Y6178416D01*
X10394643Y6177527D01*
X10361872Y6171437D01*
X10330456Y6160295D01*
X10301170Y6144375D01*
X10274735Y6124071D01*
X10251802Y6099881D01*
X10232935Y6072401D01*
X10218600Y6042308D01*
X10209148Y6010343D01*
X10204813Y5977294D01*
X10205702Y5943972D01*
X10211792Y5911201D01*
X10222934Y5879785D01*
X10238854Y5850499D01*
X10259158Y5824064D01*
X10283348Y5801131D01*
X10310828Y5782264D01*
X10340921Y5767929D01*
X10373021Y5759116D01*
X10527874Y5720857D01*
X10678211Y5667342D01*
X10823218Y5600723D01*
X10961755Y5521522D01*
X11092732Y5430362D01*
X11215121Y5327961D01*
X11327960Y5215122D01*
X11430361Y5092733D01*
X11521521Y4961756D01*
X11600722Y4823219D01*
X11667341Y4678212D01*
X11720856Y4527875D01*
X11760846Y4373389D01*
X11769589Y4341556D01*
X11783805Y4311715D01*
X11802514Y4284466D01*
X11825255Y4260478D01*
X11851469Y4240344D01*
X11880510Y4224558D01*
X11911662Y4213509D01*
X11924353Y4211151D01*
X11924353Y3790653D01*
X11911200Y3788209D01*
X11879784Y3777067D01*
X11850498Y3761147D01*
X11824063Y3740842D01*
X11801130Y3716652D01*
X11782263Y3689172D01*
X11767928Y3659080D01*
X11759115Y3626979D01*
X11720856Y3472126D01*
X11667341Y3321789D01*
X11600722Y3176782D01*
X11521521Y3038245D01*
X11430361Y2907268D01*
X11327960Y2784879D01*
X11215121Y2672040D01*
X11092732Y2569639D01*
X10961755Y2478479D01*
X10823218Y2399278D01*
X10678211Y2332659D01*
X10527874Y2279144D01*
X10373388Y2239154D01*
X10341557Y2230411D01*
X10311716Y2216196D01*
X10284467Y2197487D01*
X10260479Y2174746D01*
X10240344Y2148532D01*
X10224558Y2119491D01*
X10213510Y2088339D01*
X10207470Y2055841D01*
X10206589Y2022799D01*
X10210887Y1990026D01*
X10220260Y1958328D01*
X10234475Y1928487D01*
X10253184Y1901238D01*
X10275925Y1877250D01*
X10302139Y1857115D01*
X10331180Y1841329D01*
X10362332Y1830281D01*
X10394830Y1824241D01*
X10427872Y1823360D01*
X10460511Y1828292D01*
X10651685Y1875524D01*
X10837283Y1941591D01*
X11016300Y2023836D01*
X11187330Y2121613D01*
X11349028Y2234153D01*
X11500123Y2360572D01*
X11639428Y2499877D01*
X11765847Y2650972D01*
X11878387Y2812670D01*
X11924353Y2893073D01*
X11924353Y1100000D01*
X8498042Y1100000D01*
X8498042Y2362406D01*
X8499876Y2360572D01*
X8650971Y2234153D01*
X8812669Y2121613D01*
X8983699Y2023836D01*
X9162716Y1941591D01*
X9348314Y1875524D01*
X9539034Y1826155D01*
X9572037Y1821583D01*
X9605358Y1822472D01*
X9638130Y1828563D01*
X9669545Y1839705D01*
X9698831Y1855625D01*
X9725266Y1875929D01*
X9748199Y1900120D01*
X9767066Y1927599D01*
X9781401Y1957692D01*
X9790853Y1989658D01*
X9795188Y2022708D01*
X9794299Y2056029D01*
X9788208Y2088801D01*
X9777066Y2120216D01*
X9761146Y2149502D01*
X9740842Y2175937D01*
X9716651Y2198870D01*
X9689172Y2217737D01*
X9659079Y2232072D01*
X9626978Y2240885D01*
X9472125Y2279144D01*
X9321788Y2332659D01*
X9176781Y2399278D01*
X9038244Y2478479D01*
X8907267Y2569639D01*
X8784878Y2672040D01*
X8672039Y2784879D01*
X8569638Y2907268D01*
X8498042Y3010136D01*
X8498042Y4989865D01*
X8569638Y5092733D01*
X8672039Y5215122D01*
X8784878Y5327961D01*
X8907267Y5430362D01*
X9038244Y5521522D01*
X9176781Y5600723D01*
X9321788Y5667342D01*
X9472125Y5720857D01*
X9626611Y5760847D01*
X9658444Y5769588D01*
X9688285Y5783804D01*
X9715535Y5802513D01*
X9739522Y5825254D01*
X9759657Y5851468D01*
X9775443Y5880509D01*
X9786492Y5911662D01*
X9792531Y5944160D01*
X9793412Y5977202D01*
X9789114Y6009975D01*
X9779741Y6041673D01*
X9765525Y6071514D01*
X9746816Y6098764D01*
X9724075Y6122751D01*
X9697861Y6142886D01*
X9668820Y6158672D01*
X9637667Y6169721D01*
X9605169Y6175760D01*
X9572127Y6176641D01*
X9539488Y6171709D01*
X9348314Y6124477D01*
X9162716Y6058410D01*
X8983699Y5976165D01*
X8812669Y5878388D01*
X8650971Y5765848D01*
X8499876Y5639429D01*
X8498042Y5637595D01*
X8498042Y7226237D01*
X8500000Y7226083D01*
X8699285Y7241767D01*
X8893662Y7288433D01*
X9078346Y7364932D01*
X9248790Y7469379D01*
X9400795Y7599205D01*
X9530621Y7751210D01*
X9635068Y7921654D01*
X9711567Y8106338D01*
X9758233Y8300715D01*
X9770000Y8500000D01*
X9758233Y8699285D01*
X9711567Y8893662D01*
X9635068Y9078346D01*
X9530621Y9248790D01*
X9400795Y9400795D01*
X9248790Y9530621D01*
X9078346Y9635068D01*
X8893662Y9711567D01*
X8699285Y9758233D01*
X8500000Y9773917D01*
X8498042Y9773763D01*
X8498042Y15529256D01*
X8521748Y15528107D01*
G37*
G36*
X59257430Y20489497D02*
X59394775Y20265371D01*
X59565490Y20065490D01*
X59765371Y19894775D01*
X59989497Y19757430D01*
X60029999Y19740654D01*
X60029999Y18259346D01*
X59989497Y18242570D01*
X59765371Y18105225D01*
X59565490Y17934510D01*
X59394775Y17734629D01*
X59257430Y17510503D01*
X59250000Y17492565D01*
X59250000Y20507435D01*
X59257430Y20489497D01*
G37*
G36*
X61582780Y28747220D02*
X61657404Y28834593D01*
X61717441Y28932565D01*
X61761413Y29038722D01*
X61788236Y29150451D01*
X61797252Y29265000D01*
X61795000Y29293612D01*
X61795000Y35042398D01*
X61797251Y35071001D01*
X61788240Y35185499D01*
X61788237Y35185550D01*
X61761414Y35297278D01*
X61717442Y35403436D01*
X61657405Y35501407D01*
X61582781Y35588781D01*
X61560941Y35607434D01*
X59809423Y37358952D01*
X59793604Y37377474D01*
X59989497Y37257430D01*
X60232350Y37156837D01*
X60487949Y37095473D01*
X60750000Y37074849D01*
X61012051Y37095473D01*
X61267650Y37156837D01*
X61510503Y37257430D01*
X61734629Y37394775D01*
X61934510Y37565490D01*
X62105225Y37765371D01*
X62242570Y37989497D01*
X62343163Y38232350D01*
X62404527Y38487949D01*
X62420000Y38750000D01*
X62404527Y39012051D01*
X62343163Y39267650D01*
X62242570Y39510503D01*
X62105225Y39734629D01*
X61934510Y39934510D01*
X61734629Y40105225D01*
X61510503Y40242570D01*
X61470000Y40259347D01*
X61470000Y41740653D01*
X61510503Y41757430D01*
X61734629Y41894775D01*
X61934510Y42065490D01*
X62105225Y42265371D01*
X62242570Y42489497D01*
X62343163Y42732350D01*
X62404527Y42987949D01*
X62420000Y43250000D01*
X62404527Y43512051D01*
X62343163Y43767650D01*
X62242570Y44010503D01*
X62105225Y44234629D01*
X61934510Y44434510D01*
X61734629Y44605225D01*
X61510503Y44742570D01*
X61267650Y44843163D01*
X61012051Y44904527D01*
X60750000Y44925151D01*
X60487949Y44904527D01*
X60232350Y44843163D01*
X59989497Y44742570D01*
X59765371Y44605225D01*
X59565490Y44434510D01*
X59394775Y44234629D01*
X59257430Y44010503D01*
X59250000Y43992565D01*
X59250000Y46050000D01*
X60475000Y46294000D01*
X61513000Y46987000D01*
X62206000Y48025000D01*
X62450000Y49250000D01*
X62206000Y50475000D01*
X61513000Y51513000D01*
X60475000Y52206000D01*
X59250000Y52450000D01*
X59250000Y52900000D01*
X62000000Y52900000D01*
X62117000Y52892000D01*
X62233000Y52869000D01*
X62344000Y52831000D01*
X62450000Y52779000D01*
X62548000Y52714000D01*
X62636000Y52636000D01*
X62714000Y52548000D01*
X62779000Y52450000D01*
X62831000Y52344000D01*
X62869000Y52233000D01*
X62892000Y52117000D01*
X62900000Y52000000D01*
X62900000Y2000000D01*
X62892000Y1883000D01*
X62869000Y1767000D01*
X62831000Y1656000D01*
X62779000Y1550000D01*
X62714000Y1452000D01*
X62636000Y1364000D01*
X62548000Y1286000D01*
X62450000Y1221000D01*
X62344000Y1169000D01*
X62233000Y1131000D01*
X62117000Y1108000D01*
X62000000Y1100000D01*
X59250000Y1100000D01*
X59250000Y1550000D01*
X60475000Y1794000D01*
X61513000Y2487000D01*
X62206000Y3525000D01*
X62450000Y4750000D01*
X62206000Y5975000D01*
X61513000Y7013000D01*
X60475000Y7706000D01*
X59250000Y7950000D01*
X59250000Y16007435D01*
X59257430Y15989497D01*
X59394775Y15765371D01*
X59565490Y15565490D01*
X59765371Y15394775D01*
X59989497Y15257430D01*
X60232350Y15156837D01*
X60487949Y15095473D01*
X60750000Y15074849D01*
X61012051Y15095473D01*
X61267650Y15156837D01*
X61510503Y15257430D01*
X61734629Y15394775D01*
X61934510Y15565490D01*
X62105225Y15765371D01*
X62242570Y15989497D01*
X62343163Y16232350D01*
X62404527Y16487949D01*
X62420000Y16750000D01*
X62404527Y17012051D01*
X62343163Y17267650D01*
X62242570Y17510503D01*
X62105225Y17734629D01*
X61934510Y17934510D01*
X61734629Y18105225D01*
X61510503Y18242570D01*
X61470000Y18259347D01*
X61470000Y19740653D01*
X61510503Y19757430D01*
X61734629Y19894775D01*
X61934510Y20065490D01*
X62105225Y20265371D01*
X62242570Y20489497D01*
X62343163Y20732350D01*
X62404527Y20987949D01*
X62420000Y21250000D01*
X62404527Y21512051D01*
X62343163Y21767650D01*
X62242570Y22010503D01*
X62105225Y22234629D01*
X61934510Y22434510D01*
X61734629Y22605225D01*
X61510503Y22742570D01*
X61267650Y22843163D01*
X61012051Y22904527D01*
X60750000Y22925151D01*
X60487949Y22904527D01*
X60232350Y22843163D01*
X59989497Y22742570D01*
X59765371Y22605225D01*
X59565490Y22434510D01*
X59394775Y22234629D01*
X59257430Y22010503D01*
X59250000Y21992565D01*
X59250000Y25092169D01*
X59355225Y25215371D01*
X59492570Y25439497D01*
X59593163Y25682350D01*
X59654527Y25937949D01*
X59670000Y26200000D01*
X59654527Y26462051D01*
X59593163Y26717650D01*
X59580528Y26748154D01*
X61560945Y28728571D01*
X61582780Y28747220D01*
G37*
G36*
X55498042Y1100000D02*
X55498042Y7226237D01*
X55500000Y7226083D01*
X55699285Y7241767D01*
X55893662Y7288433D01*
X56078346Y7364932D01*
X56248790Y7469379D01*
X56400795Y7599205D01*
X56530621Y7751210D01*
X56635068Y7921654D01*
X56711567Y8106338D01*
X56758233Y8300715D01*
X56770000Y8500000D01*
X56758233Y8699285D01*
X56711567Y8893662D01*
X56635068Y9078346D01*
X56530621Y9248790D01*
X56400795Y9400795D01*
X56248790Y9530621D01*
X56078346Y9635068D01*
X55893662Y9711567D01*
X55699285Y9758233D01*
X55500000Y9773917D01*
X55498042Y9773763D01*
X55498042Y14135668D01*
X58495945Y17133571D01*
X58517780Y17152220D01*
X58592404Y17239593D01*
X58652441Y17337565D01*
X58696413Y17443722D01*
X58723236Y17555451D01*
X58732252Y17670000D01*
X58730000Y17698612D01*
X58730000Y24694795D01*
X58760503Y24707430D01*
X58984629Y24844775D01*
X59184510Y25015490D01*
X59250000Y25092169D01*
X59250000Y21992565D01*
X59156837Y21767650D01*
X59095473Y21512051D01*
X59074849Y21250000D01*
X59095473Y20987949D01*
X59156837Y20732350D01*
X59250000Y20507435D01*
X59250000Y17492565D01*
X59156837Y17267650D01*
X59095473Y17012051D01*
X59074849Y16750000D01*
X59095473Y16487949D01*
X59156837Y16232350D01*
X59250000Y16007435D01*
X59250000Y7950000D01*
X58025000Y7706000D01*
X56987000Y7013000D01*
X56294000Y5975000D01*
X56050000Y4750000D01*
X56294000Y3525000D01*
X56987000Y2487000D01*
X58025000Y1794000D01*
X59250000Y1550000D01*
X59250000Y1100000D01*
X55498042Y1100000D01*
G37*
G36*
X50800880Y1100000D02*
X52005553Y2103894D01*
X52037062Y2127009D01*
X52099531Y2190056D01*
X52118937Y2208269D01*
X52123062Y2213805D01*
X52127908Y2218695D01*
X52161545Y2265443D01*
X52196062Y2311761D01*
X52199271Y2317876D01*
X52203291Y2323462D01*
X52229198Y2374891D01*
X52256048Y2426045D01*
X52258261Y2432585D01*
X52261358Y2438733D01*
X52278898Y2493573D01*
X52297418Y2548305D01*
X52298581Y2555115D01*
X52300677Y2561667D01*
X52309421Y2618567D01*
X52319152Y2675532D01*
X52319236Y2682438D01*
X52320281Y2689240D01*
X52319640Y2715777D01*
X52320716Y2804592D01*
X52315069Y2843278D01*
X52188151Y4366293D01*
X52234629Y4394775D01*
X52434510Y4565490D01*
X52605225Y4765371D01*
X52742570Y4989497D01*
X52843163Y5232350D01*
X52904527Y5487949D01*
X52920000Y5750000D01*
X52904527Y6012051D01*
X52843163Y6267650D01*
X52742570Y6510503D01*
X52605225Y6734629D01*
X52434510Y6934510D01*
X52247397Y7094320D01*
X52262051Y7095473D01*
X52517650Y7156837D01*
X52760503Y7257430D01*
X52984629Y7394775D01*
X53184510Y7565490D01*
X53355225Y7765371D01*
X53492570Y7989497D01*
X53593163Y8232350D01*
X53654527Y8487949D01*
X53670000Y8750000D01*
X53654527Y9012051D01*
X53593163Y9267650D01*
X53492570Y9510503D01*
X53355225Y9734629D01*
X53184510Y9934510D01*
X52984629Y10105225D01*
X52760503Y10242570D01*
X52517650Y10343163D01*
X52262051Y10404527D01*
X52000000Y10425151D01*
X51769374Y10407000D01*
X55498042Y14135668D01*
X55498042Y9773763D01*
X55300715Y9758233D01*
X55106338Y9711567D01*
X54921654Y9635068D01*
X54751210Y9530621D01*
X54599205Y9400795D01*
X54469379Y9248790D01*
X54364932Y9078346D01*
X54288433Y8893662D01*
X54241767Y8699285D01*
X54226083Y8500000D01*
X54241767Y8300715D01*
X54288433Y8106338D01*
X54364932Y7921654D01*
X54469379Y7751210D01*
X54599205Y7599205D01*
X54751210Y7469379D01*
X54921654Y7364932D01*
X55106338Y7288433D01*
X55300715Y7241767D01*
X55498042Y7226237D01*
X55498042Y1100000D01*
X50800880Y1100000D01*
G37*
G36*
X59156837Y43767650D02*
X59095473Y43512051D01*
X59074849Y43250000D01*
X59077210Y43220001D01*
X59009346Y43220001D01*
X58992570Y43260503D01*
X58855225Y43484629D01*
X58684510Y43684510D01*
X58484629Y43855225D01*
X58260503Y43992570D01*
X58017650Y44093163D01*
X57762051Y44154527D01*
X57500000Y44175151D01*
X57237949Y44154527D01*
X56982350Y44093163D01*
X56739497Y43992570D01*
X56515371Y43855225D01*
X56315490Y43684510D01*
X56144775Y43484629D01*
X56007430Y43260503D01*
X55906837Y43017650D01*
X55906099Y43014577D01*
X55920000Y43250000D01*
X55904527Y43512051D01*
X55843163Y43767650D01*
X55742570Y44010503D01*
X55605380Y44234377D01*
X55699285Y44241767D01*
X55893662Y44288433D01*
X56078346Y44364932D01*
X56248790Y44469379D01*
X56400795Y44599205D01*
X56530621Y44751210D01*
X56635068Y44921654D01*
X56711567Y45106338D01*
X56758233Y45300715D01*
X56770000Y45500000D01*
X56758233Y45699285D01*
X56711567Y45893662D01*
X56635068Y46078346D01*
X56530621Y46248790D01*
X56400795Y46400795D01*
X56248790Y46530621D01*
X56078346Y46635068D01*
X55893662Y46711567D01*
X55699285Y46758233D01*
X55500000Y46773917D01*
X55300715Y46758233D01*
X55106338Y46711567D01*
X54921654Y46635068D01*
X54751210Y46530621D01*
X54599205Y46400795D01*
X54469379Y46248790D01*
X54364932Y46078346D01*
X54288433Y45893662D01*
X54241767Y45699285D01*
X54226083Y45500000D01*
X54241767Y45300715D01*
X54288433Y45106338D01*
X54364932Y44921654D01*
X54368504Y44915824D01*
X54250000Y44925151D01*
X53987949Y44904527D01*
X53732350Y44843163D01*
X53489497Y44742570D01*
X53265371Y44605225D01*
X53065490Y44434510D01*
X52894775Y44234629D01*
X52757430Y44010503D01*
X52656837Y43767650D01*
X52595473Y43512051D01*
X52574849Y43250000D01*
X52594771Y42996869D01*
X52434510Y43184510D01*
X52234629Y43355225D01*
X52010503Y43492570D01*
X51767650Y43593163D01*
X51512051Y43654527D01*
X51250000Y43675151D01*
X50987949Y43654527D01*
X50732350Y43593163D01*
X50489497Y43492570D01*
X50265371Y43355225D01*
X50065490Y43184510D01*
X49894775Y42984629D01*
X49757430Y42760503D01*
X49656837Y42517650D01*
X49650411Y42490883D01*
X44433240Y41717969D01*
X44415862Y41717304D01*
X44304687Y41695311D01*
X44293002Y41691014D01*
X44283702Y41689070D01*
X44241312Y41672006D01*
X44198321Y41656197D01*
X44190100Y41651391D01*
X44178571Y41646750D01*
X44081354Y41588505D01*
X44068030Y41577353D01*
X43386966Y41123311D01*
X43375478Y41117524D01*
X43283487Y41051334D01*
X43270868Y41038830D01*
X43260311Y41030855D01*
X43232292Y41000608D01*
X43202983Y40971567D01*
X43193819Y40959075D01*
X43183296Y40947715D01*
X43160349Y40913450D01*
X43135949Y40880189D01*
X43128853Y40866420D01*
X43120235Y40853551D01*
X43105803Y40822332D01*
X43097414Y40857278D01*
X43053442Y40963436D01*
X42993405Y41061407D01*
X42918781Y41148781D01*
X42896941Y41167434D01*
X39842423Y44221952D01*
X39823780Y44243780D01*
X39736407Y44318404D01*
X39638435Y44378441D01*
X39532278Y44422413D01*
X39447373Y44442796D01*
X39420550Y44449236D01*
X39306001Y44458251D01*
X39277398Y44456000D01*
X38373000Y44456000D01*
X38373000Y44609398D01*
X38375251Y44638001D01*
X38366240Y44752499D01*
X38366237Y44752550D01*
X38339414Y44864278D01*
X38295442Y44970436D01*
X38235405Y45068407D01*
X38160781Y45155781D01*
X38138941Y45174434D01*
X33421434Y49891941D01*
X33402781Y49913781D01*
X33315407Y49988405D01*
X33217436Y50048442D01*
X33111278Y50092414D01*
X32999550Y50119237D01*
X32999499Y50119240D01*
X32885001Y50128251D01*
X32856411Y50126001D01*
X24794599Y50126001D01*
X24766000Y50128252D01*
X24749854Y50126981D01*
X24517650Y50223163D01*
X24262051Y50284527D01*
X24000000Y50305151D01*
X23737949Y50284527D01*
X23482350Y50223163D01*
X23239497Y50122570D01*
X23015371Y49985225D01*
X22815490Y49814510D01*
X22644775Y49614629D01*
X22507430Y49390503D01*
X22406837Y49147650D01*
X22402840Y49131001D01*
X16980599Y49131001D01*
X16952000Y49133252D01*
X16837451Y49124236D01*
X16725722Y49097413D01*
X16619565Y49053441D01*
X16521593Y48993404D01*
X16434220Y48918780D01*
X16415583Y48896959D01*
X15233152Y47714528D01*
X15202650Y47727163D01*
X14947051Y47788527D01*
X14685000Y47809151D01*
X14422949Y47788527D01*
X14167350Y47727163D01*
X13924497Y47626570D01*
X13700371Y47489225D01*
X13500490Y47318510D01*
X13329775Y47118629D01*
X13192430Y46894503D01*
X13091837Y46651650D01*
X13030473Y46396051D01*
X13019265Y46253641D01*
X11759812Y44994188D01*
X11683597Y44908406D01*
X11623560Y44810435D01*
X11579589Y44704278D01*
X11552765Y44592549D01*
X11543750Y44478000D01*
X11552765Y44363451D01*
X11579589Y44251722D01*
X11623560Y44145565D01*
X11683597Y44047594D01*
X11758221Y43960221D01*
X11845594Y43885597D01*
X11943565Y43825560D01*
X12049722Y43781589D01*
X12161451Y43754765D01*
X12276000Y43745750D01*
X12390549Y43754765D01*
X12502278Y43781589D01*
X12608435Y43825560D01*
X12706406Y43885597D01*
X12792187Y43961813D01*
X13651170Y44820796D01*
X13700371Y44778775D01*
X13924497Y44641430D01*
X14167350Y44540837D01*
X14422949Y44479473D01*
X14685000Y44458849D01*
X14889701Y44474959D01*
X14869775Y44451629D01*
X14732430Y44227503D01*
X14631837Y43984650D01*
X14570473Y43729051D01*
X14549849Y43467000D01*
X14570473Y43204949D01*
X14631837Y42949350D01*
X14732430Y42706497D01*
X14869775Y42482371D01*
X15040490Y42282490D01*
X15240371Y42111775D01*
X15464497Y41974430D01*
X15707350Y41873837D01*
X15950814Y41815386D01*
X15948875Y41812859D01*
X15948870Y41812851D01*
X15946555Y41808585D01*
X15917330Y41754762D01*
X15917327Y41754754D01*
X15917326Y41754752D01*
X15912266Y41740463D01*
X15895261Y41692445D01*
X15895259Y41692436D01*
X15893494Y41682911D01*
X15883213Y41627443D01*
X15883213Y41627438D01*
X15883212Y41627433D01*
X15882790Y41611318D01*
X15881481Y41561357D01*
X15890109Y41495814D01*
X15890112Y41495805D01*
X15890112Y41495803D01*
X15894341Y41481528D01*
X15908884Y41432427D01*
X15937344Y41372757D01*
X15946705Y41359137D01*
X16580233Y40261865D01*
X16587344Y40246957D01*
X16624788Y40192475D01*
X16624794Y40192466D01*
X16656979Y40158551D01*
X16670294Y40144520D01*
X16670296Y40144519D01*
X16670302Y40144512D01*
X16722750Y40104268D01*
X16780848Y40072724D01*
X16841615Y40051206D01*
X16843155Y40050661D01*
X16843158Y40050660D01*
X16843165Y40050658D01*
X16908157Y40038613D01*
X16908168Y40038611D01*
X16972282Y40036932D01*
X16974243Y40036881D01*
X16974254Y40036881D01*
X17017635Y40042593D01*
X17039786Y40045509D01*
X17039789Y40045510D01*
X17039798Y40045511D01*
X17082351Y40058117D01*
X17103173Y40064284D01*
X17103177Y40064286D01*
X17103184Y40064288D01*
X17162853Y40092749D01*
X17176464Y40102104D01*
X18663545Y40960640D01*
X18678452Y40967750D01*
X18732872Y41005153D01*
X18732925Y41005188D01*
X18732931Y41005193D01*
X18742720Y41014483D01*
X18780880Y41050694D01*
X18821125Y41103141D01*
X18821130Y41103149D01*
X18823445Y41107415D01*
X18852670Y41161238D01*
X18852673Y41161246D01*
X18852674Y41161248D01*
X18857734Y41175537D01*
X18874739Y41223555D01*
X18874741Y41223564D01*
X18876506Y41233089D01*
X18886787Y41288557D01*
X18886787Y41288562D01*
X18886788Y41288567D01*
X18887210Y41304682D01*
X18888519Y41354643D01*
X18879891Y41420186D01*
X18879888Y41420195D01*
X18879888Y41420197D01*
X18877777Y41427323D01*
X18861116Y41483573D01*
X18832656Y41543243D01*
X18823295Y41556863D01*
X18189767Y42654135D01*
X18182656Y42669043D01*
X18145212Y42723525D01*
X18145206Y42723534D01*
X18113021Y42757449D01*
X18099706Y42771480D01*
X18099704Y42771481D01*
X18099698Y42771488D01*
X18047250Y42811732D01*
X17989152Y42843276D01*
X17928385Y42864794D01*
X17926845Y42865339D01*
X17926842Y42865340D01*
X17926835Y42865342D01*
X17861843Y42877387D01*
X17861832Y42877389D01*
X17797718Y42879068D01*
X17795757Y42879119D01*
X17795746Y42879119D01*
X17788687Y42878190D01*
X17818163Y42949350D01*
X17879527Y43204949D01*
X17895000Y43467000D01*
X17879527Y43729051D01*
X17818163Y43984650D01*
X17717570Y44227503D01*
X17580225Y44451629D01*
X17409510Y44651510D01*
X17209629Y44822225D01*
X16985503Y44959570D01*
X16742650Y45060163D01*
X16487051Y45121527D01*
X16225000Y45142151D01*
X16020299Y45126041D01*
X16040225Y45149371D01*
X16177570Y45373497D01*
X16278163Y45616350D01*
X16339527Y45871949D01*
X16355000Y46134000D01*
X16339527Y46396051D01*
X16278163Y46651650D01*
X16265528Y46682154D01*
X17254374Y47671000D01*
X22629069Y47671000D01*
X22644775Y47645371D01*
X22815490Y47445490D01*
X23015371Y47274775D01*
X23239497Y47137430D01*
X23354003Y47090000D01*
X23239497Y47042570D01*
X23015371Y46905225D01*
X22815490Y46734510D01*
X22644775Y46534629D01*
X22507430Y46310503D01*
X22406837Y46067650D01*
X22345473Y45812051D01*
X22324849Y45550000D01*
X22345473Y45287949D01*
X22406837Y45032350D01*
X22507430Y44789497D01*
X22644775Y44565371D01*
X22815490Y44365490D01*
X23015371Y44194775D01*
X23019146Y44192462D01*
X23002098Y44177902D01*
X22959164Y44127632D01*
X22924622Y44071265D01*
X22899323Y44010188D01*
X22883890Y43945905D01*
X22878704Y43880000D01*
X22880000Y43863530D01*
X22880000Y42696457D01*
X22878705Y42680000D01*
X22883887Y42614146D01*
X22883890Y42614095D01*
X22899323Y42549812D01*
X22924622Y42488735D01*
X22959164Y42432368D01*
X23002098Y42382098D01*
X23052368Y42339164D01*
X23108735Y42304622D01*
X23168178Y42280000D01*
X23108735Y42255378D01*
X23052368Y42220836D01*
X23002098Y42177902D01*
X22959164Y42127632D01*
X22924622Y42071265D01*
X22899323Y42010188D01*
X22883890Y41945905D01*
X22878704Y41880000D01*
X22880000Y41863530D01*
X22880000Y40696457D01*
X22878705Y40680000D01*
X22883887Y40614146D01*
X22883890Y40614095D01*
X22899323Y40549812D01*
X22924622Y40488735D01*
X22959164Y40432368D01*
X23002098Y40382098D01*
X23052368Y40339164D01*
X23108735Y40304622D01*
X23169812Y40279323D01*
X23234095Y40263890D01*
X23300000Y40258704D01*
X23316470Y40260000D01*
X24683543Y40260000D01*
X24700000Y40258705D01*
X24765854Y40263887D01*
X24765905Y40263890D01*
X24830188Y40279323D01*
X24891265Y40304622D01*
X24947632Y40339164D01*
X24997902Y40382098D01*
X25040836Y40432368D01*
X25075378Y40488735D01*
X25100677Y40549812D01*
X25100722Y40550000D01*
X25421388Y40550000D01*
X25450000Y40547748D01*
X25564495Y40556760D01*
X25564550Y40556763D01*
X25676278Y40583586D01*
X25782436Y40627558D01*
X25880407Y40687595D01*
X25967781Y40762219D01*
X26042405Y40849593D01*
X26102442Y40947564D01*
X26146414Y41053722D01*
X26173237Y41165450D01*
X26182253Y41280000D01*
X26180000Y41308625D01*
X26180000Y41864626D01*
X30127846Y45812472D01*
X30158350Y45799837D01*
X30413949Y45738473D01*
X30676000Y45717849D01*
X30938051Y45738473D01*
X31193650Y45799837D01*
X31436503Y45900430D01*
X31648030Y46030054D01*
X31660473Y45871949D01*
X31721837Y45616350D01*
X31822430Y45373497D01*
X31959775Y45149371D01*
X31979701Y45126041D01*
X31775000Y45142151D01*
X31512949Y45121527D01*
X31257350Y45060163D01*
X31014497Y44959570D01*
X30790371Y44822225D01*
X30590490Y44651510D01*
X30419775Y44451629D01*
X30282430Y44227503D01*
X30181837Y43984650D01*
X30120473Y43729051D01*
X30099849Y43467000D01*
X30120473Y43204949D01*
X30181837Y42949350D01*
X30211313Y42878188D01*
X30204242Y42879119D01*
X30156598Y42877870D01*
X30138167Y42877388D01*
X30138163Y42877387D01*
X30138155Y42877387D01*
X30073153Y42865339D01*
X30010847Y42843274D01*
X30010837Y42843270D01*
X29952739Y42811725D01*
X29900292Y42771479D01*
X29854787Y42723525D01*
X29817343Y42669042D01*
X29810232Y42654132D01*
X29176701Y41556857D01*
X29167344Y41543242D01*
X29138934Y41483675D01*
X29138888Y41483583D01*
X29120111Y41420197D01*
X29111482Y41354653D01*
X29111482Y41354642D01*
X29111980Y41335612D01*
X29113212Y41288567D01*
X29113213Y41288563D01*
X29113213Y41288556D01*
X29117384Y41266055D01*
X29125258Y41223565D01*
X29147325Y41161247D01*
X29147330Y41161237D01*
X29152657Y41151426D01*
X29178869Y41103149D01*
X29219113Y41050701D01*
X29219120Y41050695D01*
X29219121Y41050693D01*
X29225759Y41044394D01*
X29267067Y41005194D01*
X29321548Y40967749D01*
X29336465Y40960634D01*
X30823551Y40102095D01*
X30837148Y40092750D01*
X30896817Y40064289D01*
X30896820Y40064288D01*
X30896828Y40064284D01*
X30937845Y40052135D01*
X30960203Y40045512D01*
X30960206Y40045512D01*
X30960215Y40045509D01*
X31025758Y40036881D01*
X31073402Y40038130D01*
X31091833Y40038612D01*
X31091837Y40038613D01*
X31091845Y40038613D01*
X31156847Y40050661D01*
X31219153Y40072726D01*
X31219163Y40072730D01*
X31277261Y40104275D01*
X31329708Y40144521D01*
X31375213Y40192475D01*
X31412657Y40246958D01*
X31419768Y40261868D01*
X32053299Y41359143D01*
X32062656Y41372758D01*
X32091066Y41432325D01*
X32091112Y41432417D01*
X32109889Y41495803D01*
X32118518Y41561347D01*
X32118518Y41561358D01*
X32118020Y41580388D01*
X32116788Y41627433D01*
X32116787Y41627437D01*
X32116787Y41627444D01*
X32112616Y41649945D01*
X32104742Y41692435D01*
X32082675Y41754753D01*
X32082670Y41754763D01*
X32077343Y41764574D01*
X32051131Y41812851D01*
X32049186Y41815386D01*
X32292650Y41873837D01*
X32535503Y41974430D01*
X32759629Y42111775D01*
X32959510Y42282490D01*
X33130225Y42482371D01*
X33267570Y42706497D01*
X33368163Y42949350D01*
X33429527Y43204949D01*
X33445000Y43467000D01*
X33429527Y43729051D01*
X33368163Y43984650D01*
X33267570Y44227503D01*
X33130225Y44451629D01*
X33110299Y44474959D01*
X33315000Y44458849D01*
X33577051Y44479473D01*
X33832650Y44540837D01*
X34075503Y44641430D01*
X34299629Y44778775D01*
X34499510Y44949490D01*
X34670225Y45149371D01*
X34807570Y45373497D01*
X34908163Y45616350D01*
X34969527Y45871949D01*
X34985000Y46134000D01*
X34976866Y46271759D01*
X36912999Y44335626D01*
X36912999Y44028375D01*
X33522052Y40637428D01*
X33500219Y40618781D01*
X33425595Y40531407D01*
X33365558Y40433436D01*
X33321586Y40327278D01*
X33294763Y40215550D01*
X33294757Y40215444D01*
X33285750Y40101000D01*
X33287999Y40072423D01*
X33287999Y36514000D01*
X32356375Y36514000D01*
X30390903Y38479472D01*
X30503299Y38674143D01*
X30512656Y38687758D01*
X30541066Y38747325D01*
X30541112Y38747417D01*
X30559889Y38810803D01*
X30568518Y38876347D01*
X30568518Y38876358D01*
X30568020Y38895388D01*
X30566788Y38942433D01*
X30566787Y38942437D01*
X30566787Y38942444D01*
X30562616Y38964945D01*
X30554742Y39007435D01*
X30532675Y39069753D01*
X30532670Y39069763D01*
X30527343Y39079574D01*
X30501131Y39127851D01*
X30460887Y39180299D01*
X30460880Y39180305D01*
X30460879Y39180307D01*
X30454241Y39186606D01*
X30412933Y39225806D01*
X30358452Y39263251D01*
X30343535Y39270366D01*
X28856449Y40128905D01*
X28842852Y40138250D01*
X28783183Y40166711D01*
X28783180Y40166712D01*
X28783172Y40166716D01*
X28742155Y40178865D01*
X28719797Y40185488D01*
X28719794Y40185488D01*
X28719785Y40185491D01*
X28654242Y40194119D01*
X28606598Y40192870D01*
X28588167Y40192388D01*
X28588163Y40192387D01*
X28588155Y40192387D01*
X28523153Y40180339D01*
X28460847Y40158274D01*
X28460837Y40158270D01*
X28402739Y40126725D01*
X28350292Y40086479D01*
X28304787Y40038525D01*
X28267343Y39984042D01*
X28260232Y39969132D01*
X27626701Y38871857D01*
X27617344Y38858242D01*
X27588934Y38798675D01*
X27588888Y38798583D01*
X27570111Y38735197D01*
X27561482Y38669653D01*
X27561482Y38669642D01*
X27561980Y38650612D01*
X27563212Y38603567D01*
X27563213Y38603563D01*
X27563213Y38603556D01*
X27567384Y38581055D01*
X27575258Y38538565D01*
X27597325Y38476247D01*
X27597330Y38476237D01*
X27602657Y38466426D01*
X27628869Y38418149D01*
X27650102Y38390478D01*
X26795624Y37536000D01*
X18932405Y37536000D01*
X20213545Y38275640D01*
X20228452Y38282750D01*
X20282872Y38320153D01*
X20282925Y38320188D01*
X20282931Y38320193D01*
X20292720Y38329483D01*
X20330880Y38365694D01*
X20371125Y38418141D01*
X20371130Y38418149D01*
X20373445Y38422415D01*
X20402670Y38476238D01*
X20402673Y38476246D01*
X20402674Y38476248D01*
X20407734Y38490537D01*
X20424739Y38538555D01*
X20424741Y38538564D01*
X20426506Y38548089D01*
X20436787Y38603557D01*
X20436787Y38603562D01*
X20436788Y38603567D01*
X20437210Y38619682D01*
X20438519Y38669643D01*
X20429891Y38735186D01*
X20429888Y38735195D01*
X20429888Y38735197D01*
X20427777Y38742323D01*
X20411116Y38798573D01*
X20382656Y38858243D01*
X20373295Y38871863D01*
X19739767Y39969135D01*
X19732656Y39984043D01*
X19695212Y40038525D01*
X19695206Y40038534D01*
X19663021Y40072449D01*
X19649706Y40086480D01*
X19649704Y40086481D01*
X19649698Y40086488D01*
X19597250Y40126732D01*
X19539152Y40158276D01*
X19478385Y40179794D01*
X19476845Y40180339D01*
X19476842Y40180340D01*
X19476835Y40180342D01*
X19411843Y40192387D01*
X19411832Y40192389D01*
X19347718Y40194068D01*
X19345757Y40194119D01*
X19345746Y40194119D01*
X19302365Y40188407D01*
X19280214Y40185491D01*
X19280211Y40185490D01*
X19280202Y40185489D01*
X19237649Y40172883D01*
X19216827Y40166716D01*
X19216823Y40166714D01*
X19216816Y40166712D01*
X19157147Y40138251D01*
X19143536Y40128896D01*
X18059414Y39503000D01*
X13092375Y39503000D01*
X12323434Y40271941D01*
X12304781Y40293781D01*
X12217407Y40368405D01*
X12119436Y40428442D01*
X12013278Y40472414D01*
X11901550Y40499237D01*
X11901499Y40499240D01*
X11787001Y40508251D01*
X11758411Y40506001D01*
X9042910Y40506001D01*
X8850629Y40670225D01*
X8626503Y40807570D01*
X8498042Y40860780D01*
X8498042Y44226237D01*
X8500000Y44226083D01*
X8699285Y44241767D01*
X8893662Y44288433D01*
X9078346Y44364932D01*
X9248790Y44469379D01*
X9400795Y44599205D01*
X9530621Y44751210D01*
X9635068Y44921654D01*
X9711567Y45106338D01*
X9758233Y45300715D01*
X9770000Y45500000D01*
X9758233Y45699285D01*
X9711567Y45893662D01*
X9635068Y46078346D01*
X9530621Y46248790D01*
X9400795Y46400795D01*
X9248790Y46530621D01*
X9078346Y46635068D01*
X8893662Y46711567D01*
X8699285Y46758233D01*
X8500000Y46773917D01*
X8498042Y46773763D01*
X8498042Y52900000D01*
X59250000Y52900000D01*
X59250000Y52450000D01*
X58025000Y52206000D01*
X56987000Y51513000D01*
X56294000Y50475000D01*
X56050000Y49250000D01*
X56294000Y48025000D01*
X56987000Y46987000D01*
X58025000Y46294000D01*
X59250000Y46050000D01*
X59250000Y43992565D01*
X59156837Y43767650D01*
G37*
G36*
X5975000Y1794000D02*
X7013000Y2487000D01*
X7706000Y3525000D01*
X7859576Y4296026D01*
X7875930Y4274735D01*
X7900120Y4251802D01*
X7927600Y4232935D01*
X7957693Y4218599D01*
X7989658Y4209148D01*
X8022707Y4204813D01*
X8056028Y4205702D01*
X8088800Y4211793D01*
X8120216Y4222935D01*
X8149502Y4238854D01*
X8175936Y4259159D01*
X8198869Y4283349D01*
X8217736Y4310829D01*
X8232072Y4340922D01*
X8240884Y4373022D01*
X8279143Y4527875D01*
X8332658Y4678212D01*
X8399277Y4823219D01*
X8478478Y4961756D01*
X8498042Y4989865D01*
X8498042Y3010136D01*
X8478478Y3038245D01*
X8399277Y3176782D01*
X8332658Y3321789D01*
X8279143Y3472126D01*
X8239153Y3626612D01*
X8230412Y3658443D01*
X8216197Y3688284D01*
X8197488Y3715534D01*
X8174746Y3739521D01*
X8148533Y3759656D01*
X8119492Y3775442D01*
X8088339Y3786491D01*
X8055841Y3792531D01*
X8022799Y3793412D01*
X7990026Y3789114D01*
X7958328Y3779741D01*
X7928487Y3765526D01*
X7901237Y3746817D01*
X7877250Y3724075D01*
X7857115Y3697862D01*
X7841329Y3668821D01*
X7830280Y3637668D01*
X7824240Y3605170D01*
X7823359Y3572128D01*
X7828291Y3539489D01*
X7875523Y3348315D01*
X7941590Y3162717D01*
X8023835Y2983700D01*
X8121612Y2812670D01*
X8234152Y2650972D01*
X8360571Y2499877D01*
X8498042Y2362406D01*
X8498042Y1100000D01*
X4750000Y1100000D01*
X4750000Y1550000D01*
X5975000Y1794000D01*
G37*
G36*
X4777596Y26884593D02*
X4852220Y26797220D01*
X4868999Y26782889D01*
X4868999Y19397591D01*
X4866749Y19369001D01*
X4875764Y19254451D01*
X4902587Y19142722D01*
X4946559Y19036565D01*
X5006596Y18938593D01*
X5081220Y18851220D01*
X5103048Y18832577D01*
X7261942Y16673683D01*
X7906596Y15840366D01*
X7915712Y15825490D01*
X7989314Y15739314D01*
X7998703Y15731295D01*
X8004923Y15724166D01*
X8040674Y15695448D01*
X8075490Y15665712D01*
X8084777Y15660021D01*
X8093277Y15653193D01*
X8133078Y15630422D01*
X8172119Y15606498D01*
X8182177Y15602332D01*
X8191645Y15596915D01*
X8234523Y15580649D01*
X8276822Y15563128D01*
X8287411Y15560586D01*
X8297607Y15556718D01*
X8342508Y15547358D01*
X8387020Y15536672D01*
X8396446Y15536115D01*
X8408552Y15533592D01*
X8498042Y15529256D01*
X8498042Y9773763D01*
X8300715Y9758233D01*
X8106338Y9711567D01*
X7921654Y9635068D01*
X7751210Y9530621D01*
X7599205Y9400795D01*
X7469379Y9248790D01*
X7364932Y9078346D01*
X7288433Y8893662D01*
X7241767Y8699285D01*
X7226083Y8500000D01*
X7241767Y8300715D01*
X7288433Y8106338D01*
X7364932Y7921654D01*
X7469379Y7751210D01*
X7599205Y7599205D01*
X7751210Y7469379D01*
X7921654Y7364932D01*
X8106338Y7288433D01*
X8300715Y7241767D01*
X8498042Y7226237D01*
X8498042Y5637595D01*
X8360571Y5500124D01*
X8234152Y5349029D01*
X8121612Y5187331D01*
X8023835Y5016301D01*
X7941590Y4837284D01*
X7935835Y4821116D01*
X7706000Y5975000D01*
X7013000Y7013000D01*
X5975000Y7706000D01*
X4750000Y7950000D01*
X4750000Y26929626D01*
X4777596Y26884593D01*
G37*
G36*
X8383650Y40908163D02*
X8128051Y40969527D01*
X7866000Y40990151D01*
X7603949Y40969527D01*
X7348350Y40908163D01*
X7105497Y40807570D01*
X6881371Y40670225D01*
X6681490Y40499510D01*
X6510775Y40299629D01*
X6373430Y40075503D01*
X6272837Y39832650D01*
X6211473Y39577051D01*
X6190849Y39315000D01*
X6211473Y39052949D01*
X6272837Y38797350D01*
X6285472Y38766848D01*
X4874041Y37355417D01*
X4852220Y37336780D01*
X4777596Y37249407D01*
X4750000Y37204374D01*
X4750000Y46050000D01*
X5975000Y46294000D01*
X7013000Y46987000D01*
X7706000Y48025000D01*
X7950000Y49250000D01*
X7706000Y50475000D01*
X7013000Y51513000D01*
X5975000Y52206000D01*
X4750000Y52450000D01*
X4750000Y52900000D01*
X8498042Y52900000D01*
X8498042Y46773763D01*
X8300715Y46758233D01*
X8106338Y46711567D01*
X7921654Y46635068D01*
X7751210Y46530621D01*
X7599205Y46400795D01*
X7469379Y46248790D01*
X7364932Y46078346D01*
X7288433Y45893662D01*
X7241767Y45699285D01*
X7226083Y45500000D01*
X7241767Y45300715D01*
X7288433Y45106338D01*
X7364932Y44921654D01*
X7469379Y44751210D01*
X7599205Y44599205D01*
X7751210Y44469379D01*
X7921654Y44364932D01*
X8106338Y44288433D01*
X8300715Y44241767D01*
X8498042Y44226237D01*
X8498042Y40860780D01*
X8383650Y40908163D01*
G37*
G36*
X4717559Y37151435D02*
X4673587Y37045278D01*
X4646764Y36933549D01*
X4646761Y36933498D01*
X4637750Y36819000D01*
X4640000Y36790410D01*
X4640000Y31505205D01*
X4609497Y31492570D01*
X4385371Y31355225D01*
X4185490Y31184510D01*
X4014775Y30984629D01*
X3877430Y30760503D01*
X3776837Y30517650D01*
X3715473Y30262051D01*
X3694849Y30000000D01*
X3715473Y29737949D01*
X3776837Y29482350D01*
X3877430Y29239497D01*
X4014775Y29015371D01*
X4185490Y28815490D01*
X4385371Y28644775D01*
X4609497Y28507430D01*
X4639999Y28494796D01*
X4639999Y27343591D01*
X4637749Y27315001D01*
X4646764Y27200451D01*
X4673587Y27088722D01*
X4717559Y26982565D01*
X4750000Y26929626D01*
X4750000Y7950000D01*
X3525000Y7706000D01*
X2487000Y7013000D01*
X1794000Y5975000D01*
X1550000Y4750000D01*
X1794000Y3525000D01*
X2487000Y2487000D01*
X3525000Y1794000D01*
X4750000Y1550000D01*
X4750000Y1100000D01*
X2000000Y1100000D01*
X1883000Y1108000D01*
X1767000Y1131000D01*
X1656000Y1169000D01*
X1550000Y1221000D01*
X1452000Y1286000D01*
X1364000Y1364000D01*
X1286000Y1452000D01*
X1221000Y1550000D01*
X1169000Y1656000D01*
X1131000Y1767000D01*
X1108000Y1883000D01*
X1100000Y2000000D01*
X1100000Y52000000D01*
X1108000Y52117000D01*
X1131000Y52233000D01*
X1169000Y52344000D01*
X1221000Y52450000D01*
X1286000Y52548000D01*
X1364000Y52636000D01*
X1452000Y52714000D01*
X1550000Y52779000D01*
X1656000Y52831000D01*
X1767000Y52869000D01*
X1883000Y52892000D01*
X2000000Y52900000D01*
X4750000Y52900000D01*
X4750000Y52450000D01*
X3525000Y52206000D01*
X2487000Y51513000D01*
X1794000Y50475000D01*
X1550000Y49250000D01*
X1794000Y48025000D01*
X2487000Y46987000D01*
X3525000Y46294000D01*
X4750000Y46050000D01*
X4750000Y37204374D01*
X4717559Y37151435D01*
G37*
G54D24*
X8500000Y45500000D03*
G54D25*
X11787000Y39776000D02*
X8327000Y39776000D01*
X14685000Y46134000D02*
X16952000Y48401000D01*
X13932000Y46134000D02*
X14685000Y46134000D01*
X16225000Y42618000D02*
X16225000Y43467000D01*
X18935000Y38773000D02*
X12790000Y38773000D01*
X11787000Y39776000D01*
X16952000Y48401000D02*
X21086000Y48401000D01*
X12276000Y44478000D02*
X13932000Y46134000D01*
X17385000Y41458000D02*
X16225000Y42618000D01*
X22962000Y33400000D02*
X22962000Y28736000D01*
X20850000Y28095000D02*
X20413000Y28095000D01*
X20850000Y28095000D02*
X21976000Y28095000D01*
X20413000Y32641000D02*
X20413000Y31905000D01*
X8327000Y39776000D02*
X7866000Y39315000D01*
X11612000Y36696000D02*
X10533000Y37775000D01*
X10720000Y30000000D02*
X8450000Y30000000D01*
X24000000Y41280000D02*
X25450000Y41280000D01*
X24000000Y48630000D02*
X24766000Y49396000D01*
X21086000Y48401000D02*
X23771000Y48401000D01*
X24000000Y48630000D01*
X24000000Y43280000D02*
X24000000Y45550000D01*
X25450000Y41280000D02*
X25450000Y42167000D01*
X15004000Y36806000D02*
X13982000Y35784000D01*
X12402000Y36696000D02*
X11612000Y36696000D01*
X27098000Y36806000D02*
X15004000Y36806000D01*
X18692000Y34362000D02*
X20413000Y32641000D01*
X25038000Y33400000D02*
X26376000Y33400000D01*
X26376000Y33116000D01*
X27587000Y31905000D01*
X29065000Y38773000D02*
X27098000Y36806000D01*
X29065000Y38773000D02*
X32054000Y35784000D01*
X27587000Y31905000D02*
X29150000Y31905000D01*
X27757000Y34668000D02*
X29150000Y33275000D01*
X29150000Y31905000D01*
X32054000Y35784000D02*
X34018000Y35784000D01*
X32054000Y35784000D02*
X32054000Y33301000D01*
X34018000Y40101000D02*
X34018000Y35784000D01*
X32054000Y33301000D02*
X29388000Y30635000D01*
X35280000Y30000000D02*
X35280000Y31450000D01*
X35598000Y36696000D02*
X36388000Y36696000D01*
X35280000Y31450000D02*
X40134000Y36304000D01*
X35280000Y30000000D02*
X35280000Y28550000D01*
X37280000Y30000000D02*
X39550000Y30000000D01*
X36388000Y36696000D02*
X37467000Y37775000D01*
X12720000Y30000000D02*
X14070000Y30000000D01*
X14705000Y30635000D01*
X12720000Y30000000D02*
X12720000Y28550000D01*
X20413000Y29365000D02*
X19446000Y29365000D01*
X29388000Y30635000D02*
X27587000Y30635000D01*
X14705000Y30635000D02*
X17413000Y30635000D01*
X20413000Y30635000D01*
X42401000Y32914000D02*
X42401000Y40631000D01*
X40134000Y36304000D02*
X40134000Y39315000D01*
X40134000Y40068000D02*
X40134000Y39315000D01*
X42401000Y32914000D02*
X42630000Y32685000D01*
X42630000Y30000000D01*
G54D26*
X42401000Y32914000D02*
X43500000Y37500000D01*
X43750000Y40500000D01*
G54D25*
X37643000Y43726000D02*
X34018000Y40101000D01*
X30615000Y41458000D02*
X31775000Y42618000D01*
X31775000Y43467000D01*
X42401000Y40631000D02*
X39306000Y43726000D01*
X37643000Y43726000D01*
X38478000Y41724000D02*
X40134000Y40068000D01*
G54D26*
X43750000Y40500000D02*
X44500000Y41000000D01*
G54D25*
X25450000Y42167000D02*
X30676000Y47393000D01*
X32056000Y47393000D01*
X33315000Y46134000D01*
X24766000Y49396000D02*
X32885000Y49396000D01*
X37643000Y44638000D01*
X37643000Y43726000D01*
X22321000Y28095000D02*
X22321000Y27923000D01*
X22962000Y28736000D02*
X22321000Y28095000D01*
X21976000Y28095000D01*
X19446000Y29365000D02*
X17792000Y27711000D01*
X17792000Y27691000D01*
X7866000Y39315000D02*
X5370000Y36819000D01*
X5370000Y30000000D01*
X5370000Y27315000D02*
X5370000Y30000000D01*
X5599000Y19369000D02*
X5599000Y27086000D01*
X5370000Y27315000D01*
X7866000Y23696000D02*
X7866000Y20685000D01*
G54D26*
X5599000Y20000000D02*
X6250000Y25000000D01*
X7750000Y26750000D01*
G54D25*
X8695000Y16273000D02*
X5599000Y19369000D01*
X13982000Y24216000D02*
X13982000Y16273000D01*
X9522000Y18276000D02*
X7866000Y19932000D01*
X7866000Y20685000D01*
X12402000Y23304000D02*
X11612000Y23304000D01*
X10533000Y22225000D01*
G54D26*
X10750000Y16500000D02*
X9750000Y16250000D01*
X8500000Y16250000D01*
X5599000Y20000000D01*
G54D25*
X13982000Y16273000D02*
X8695000Y16273000D01*
X13982000Y24216000D02*
X19854000Y24216000D01*
X17385000Y18542000D02*
X16225000Y17382000D01*
G54D26*
X18750000Y23000000D02*
X17250000Y23000000D01*
X10750000Y16500000D01*
G54D25*
X22321000Y27923000D02*
X23642000Y26602000D01*
X18935000Y21227000D02*
X21439000Y18723000D01*
X16225000Y17382000D02*
X16225000Y16533000D01*
G54D26*
X24000000Y18720000D02*
X20250000Y22250000D01*
X18750000Y23000000D01*
G54D25*
X12720000Y28550000D02*
X7866000Y23696000D01*
G54D24*
X8500000Y8500000D03*
G54D25*
X11925000Y9000000D02*
X10587000Y9000000D01*
X19854000Y24216000D02*
X24000000Y20070000D01*
X24000000Y18720000D02*
X24000000Y20070000D01*
X26172000Y13542000D02*
X24000000Y11370000D01*
X21439000Y18723000D02*
X21439000Y13931000D01*
X24000000Y11370000D01*
X24000000Y16720000D02*
X24000000Y14450000D01*
X13982000Y16273000D02*
X13982000Y14569000D01*
X14685000Y13866000D01*
X17324000Y12607000D02*
X15944000Y12607000D01*
X14685000Y13866000D01*
G54D27*
X19140000Y10450000D02*
X14000000Y10450000D01*
G54D25*
X10000000Y4000000D02*
X10587000Y4587000D01*
X10587000Y9000000D01*
G54D27*
X16000000Y4000000D02*
X16000000Y2300000D01*
X14000000Y7000000D02*
X13000000Y7000000D01*
G54D25*
X30587000Y8310000D02*
X30423000Y8310000D01*
G54D27*
X16000000Y2300000D02*
X27000000Y2300000D01*
X27000000Y5000000D01*
X13000000Y900000D02*
X29900000Y900000D01*
X22140000Y9500000D02*
X22140000Y5000000D01*
X29900000Y900000D02*
X35087000Y900000D01*
X35087000Y10500000D01*
G54D25*
X40762000Y8363000D02*
X43717000Y8363000D01*
X44000000Y8080000D01*
X36913000Y10500000D02*
X36913000Y9275000D01*
G54D27*
X14000000Y10450000D02*
X14000000Y7000000D01*
X13000000Y7000000D02*
X13000000Y900000D01*
G54D25*
X26024000Y28095000D02*
X26024000Y22095000D01*
X27587000Y28095000D02*
X26024000Y28095000D01*
X29150000Y21227000D02*
X29150000Y29365000D01*
X27587000Y29365000D02*
X29150000Y29365000D01*
X29065000Y21227000D02*
X26172000Y18334000D01*
X26172000Y13542000D01*
X35724000Y15522000D02*
X34068000Y13866000D01*
X33315000Y13866000D01*
X30615000Y18542000D02*
X31775000Y17382000D01*
X31775000Y16533000D01*
X36913000Y11725000D02*
X36546000Y12092000D01*
X36913000Y10500000D02*
X36913000Y11725000D01*
X36546000Y12092000D02*
X34370000Y12092000D01*
X30587000Y8310000D01*
X37688000Y12500000D02*
X36913000Y11725000D01*
X38938000Y12500000D02*
X37688000Y12500000D01*
X26024000Y22095000D02*
X24000000Y20070000D01*
X29150000Y21227000D02*
X31960000Y21227000D01*
X29065000Y21227000D02*
X29150000Y21227000D01*
X31960000Y21227000D02*
X32965000Y20222000D01*
X39671000Y20222000D01*
X35598000Y23304000D02*
X36388000Y23304000D01*
X37467000Y22225000D01*
X39671000Y20222000D02*
X40134000Y20685000D01*
X41393000Y23324000D02*
X40134000Y22065000D01*
X40134000Y20685000D01*
X34018000Y24216000D02*
X34018000Y27288000D01*
X35280000Y28550000D01*
X44650000Y29188000D02*
X42444000Y26981000D01*
X44370000Y20066000D02*
X44370000Y25311000D01*
X42444000Y26981000D02*
X39906000Y26981000D01*
X44775000Y39913000D02*
X44775000Y35286000D01*
X46000000Y39913000D02*
X44775000Y39913000D01*
X46000000Y38087000D02*
X47225000Y38087000D01*
X48043000Y38904000D02*
X47225000Y38087000D01*
G54D24*
X55500000Y45500000D03*
G54D25*
X54250000Y38750000D02*
X54096000Y38904000D01*
X48043000Y38904000D01*
G54D26*
X44500000Y41000000D02*
X51250000Y42000000D01*
X54250000Y38750000D02*
X54250000Y43250000D01*
G54D25*
X48914000Y36748000D02*
X55098000Y36748000D01*
X55213000Y36863000D01*
X48914000Y36748000D02*
X48914000Y36001000D01*
X48914000Y36898000D02*
X48914000Y36748000D01*
X48914000Y36001000D02*
X48138000Y35225000D01*
X44775000Y35286000D02*
X47288000Y32772000D01*
X49862000Y32772000D01*
X48138000Y34000000D02*
X48138000Y35225000D01*
X49862000Y32772000D02*
X49862000Y32071000D01*
X49862000Y34000000D02*
X49862000Y32772000D01*
X52621000Y33071000D02*
X51650000Y32100000D01*
X50500000Y32100000D01*
X48400000Y23650000D02*
X48800000Y24050000D01*
X46000000Y24350000D02*
X46000000Y23650000D01*
X46540000Y17896000D02*
X44370000Y20066000D01*
X58000000Y17670000D02*
X48410000Y8080000D01*
X46540000Y8080000D01*
X46540000Y17896000D01*
G54D26*
X52000000Y8750000D02*
X47250000Y6000000D01*
G54D27*
X49540000Y9210000D02*
X49250000Y10000000D01*
X46540000Y8080000D02*
X49540000Y9210000D01*
G54D26*
X46000000Y21250000D02*
X54250000Y21250000D01*
X54250000Y16750000D02*
X54250000Y21250000D01*
G54D25*
X49862000Y32071000D02*
X50500000Y31433000D01*
X46000000Y30000000D02*
X44650000Y30000000D01*
X44650000Y29188000D01*
X48800000Y29200000D02*
X48000000Y30000000D01*
X50500000Y31433000D02*
X50500000Y32100000D01*
X50500000Y30950000D02*
X50500000Y31433000D01*
X50500000Y29050000D02*
X48800000Y29050000D01*
X48800000Y29200000D01*
X53500000Y30000000D02*
X53500000Y25000000D01*
X44370000Y25311000D02*
X45009000Y25950000D01*
X50500000Y25950000D01*
X42062000Y12500000D02*
X42062000Y18438000D01*
X42586000Y18961000D01*
X50500000Y24050000D02*
X48800000Y24050000D01*
X46000000Y23650000D02*
X48400000Y23650000D01*
X55393000Y24480000D02*
X54762000Y23850000D01*
X50700000Y23850000D01*
X50500000Y24050000D01*
X52621000Y33071000D02*
X53213000Y33071000D01*
X55944000Y35802000D01*
X55393000Y26803000D02*
X55393000Y24480000D01*
X47130000Y3590000D02*
X46540000Y3000000D01*
X44000000Y3000000D02*
X43188000Y3000000D01*
X36913000Y9275000D01*
G54D24*
X55500000Y8500000D03*
G54D25*
X49168000Y3590000D02*
X47130000Y3590000D01*
G54D27*
X51250000Y5750000D02*
X51500000Y2750000D01*
X50000000Y1500000D01*
X46500000Y1250000D01*
X35250000Y1250000D01*
G54D25*
X55944000Y35802000D02*
X58834000Y35802000D01*
X55213000Y36863000D02*
X59273000Y36863000D01*
X58834000Y35802000D02*
X60004000Y34632000D01*
X58000000Y33800000D02*
X57300000Y33800000D01*
X59273000Y36863000D02*
X61065000Y35071000D01*
G54D26*
X57500000Y42500000D02*
X59750000Y42500000D01*
X60750000Y38750000D02*
X60750000Y43250000D01*
G54D25*
X60004000Y34632000D02*
X60004000Y31414000D01*
X61065000Y35071000D02*
X61065000Y29265000D01*
X58000000Y26200000D02*
X58000000Y17670000D01*
G54D26*
X60750000Y16750000D02*
X60750000Y21250000D01*
G54D25*
X60004000Y31414000D02*
X55393000Y26803000D01*
X57300000Y33800000D02*
X53500000Y30000000D01*
X61065000Y29265000D02*
X58000000Y26200000D01*
G54D28*
X10533000Y37775000D03*
X7866000Y39315000D03*
X10533000Y22225000D03*
X8450000Y30000000D03*
X5370000Y30000000D03*
G54D23*
G36*
X10120000Y30700000D02*
X11320000Y30700000D01*
X11320000Y29300000D01*
X10120000Y29300000D01*
X10120000Y30700000D01*
G37*
G54D28*
X7750000Y26750000D03*
G54D23*
G36*
X11742300Y23471600D02*
X12586700Y23959100D01*
X13061700Y23136400D01*
X12217300Y22648900D01*
X11742300Y23471600D01*
G37*
G36*
X12120000Y30700000D02*
X13320000Y30700000D01*
X13320000Y29300000D01*
X12120000Y29300000D01*
X12120000Y30700000D01*
G37*
G36*
X12217300Y37351100D02*
X13061700Y36863600D01*
X12586700Y36040900D01*
X11742300Y36528400D01*
X12217300Y37351100D01*
G37*
G54D28*
X7866000Y20685000D03*
G54D23*
G36*
X12512500Y8275000D02*
X11337500Y8275000D01*
X11337500Y9725000D01*
X12512500Y9725000D01*
X12512500Y8275000D01*
G37*
G54D29*
X10000000Y4000000D03*
G54D28*
X9522000Y18276000D03*
X60750000Y43250000D03*
X60750000Y21250000D03*
X60750000Y38750000D03*
X58000000Y26200000D03*
X58000000Y33800000D03*
X57500000Y42500000D03*
X60750000Y16750000D03*
X24000000Y45550000D03*
X16225000Y43467000D03*
X14685000Y46134000D03*
G54D23*
G36*
X24700000Y43880000D02*
X24700000Y42680000D01*
X23300000Y42680000D01*
X23300000Y43880000D01*
X24700000Y43880000D01*
G37*
G36*
X17817800Y42458400D02*
X18467800Y41332600D01*
X16952200Y40457600D01*
X16302200Y41583400D01*
X17817800Y42458400D01*
G37*
G36*
X19367800Y39773400D02*
X20017800Y38647600D01*
X18502200Y37772600D01*
X17852200Y38898400D01*
X19367800Y39773400D01*
G37*
G36*
X24700000Y41880000D02*
X24700000Y40680000D01*
X23300000Y40680000D01*
X23300000Y41880000D01*
X24700000Y41880000D01*
G37*
G36*
X19600500Y32265000D02*
X21225500Y32265000D01*
X21225500Y31545000D01*
X19600500Y31545000D01*
X19600500Y32265000D01*
G37*
G36*
X19600500Y30995000D02*
X21225500Y30995000D01*
X21225500Y30275000D01*
X19600500Y30275000D01*
X19600500Y30995000D01*
G37*
G36*
X23549500Y32675000D02*
X22374500Y32675000D01*
X22374500Y34125000D01*
X23549500Y34125000D01*
X23549500Y32675000D01*
G37*
G36*
X16302200Y18416600D02*
X16952200Y19542400D01*
X18467800Y18667400D01*
X17817800Y17541600D01*
X16302200Y18416600D01*
G37*
G36*
X17852200Y21101600D02*
X18502200Y22227400D01*
X20017800Y21352400D01*
X19367800Y20226600D01*
X17852200Y21101600D01*
G37*
G36*
X19600500Y29725000D02*
X21225500Y29725000D01*
X21225500Y29005000D01*
X19600500Y29005000D01*
X19600500Y29725000D01*
G37*
G36*
X19600500Y28455000D02*
X21225500Y28455000D01*
X21225500Y27735000D01*
X19600500Y27735000D01*
X19600500Y28455000D01*
G37*
G54D28*
X17792000Y27691000D03*
X18692000Y34362000D03*
X17413000Y30635000D03*
X16225000Y16533000D03*
G54D23*
G36*
X23300000Y16120000D02*
X23300000Y17320000D01*
X24700000Y17320000D01*
X24700000Y16120000D01*
X23300000Y16120000D01*
G37*
G36*
X23300000Y18120000D02*
X23300000Y19320000D01*
X24700000Y19320000D01*
X24700000Y18120000D01*
X23300000Y18120000D01*
G37*
G36*
X13322300Y24383600D02*
X14166700Y24871100D01*
X14641700Y24048400D01*
X13797300Y23560900D01*
X13322300Y24383600D01*
G37*
G36*
X13797300Y36439100D02*
X14641700Y35951600D01*
X14166700Y35128900D01*
X13322300Y35616400D01*
X13797300Y36439100D01*
G37*
G36*
X25625500Y32675000D02*
X24450500Y32675000D01*
X24450500Y34125000D01*
X25625500Y34125000D01*
X25625500Y32675000D01*
G37*
G54D28*
X23642000Y26602000D03*
X14685000Y13866000D03*
G54D23*
G36*
X18190000Y8950000D02*
X20090000Y8950000D01*
X20090000Y8150000D01*
X18190000Y8150000D01*
X18190000Y8950000D01*
G37*
G36*
X18190000Y10850000D02*
X20090000Y10850000D01*
X20090000Y10050000D01*
X18190000Y10050000D01*
X18190000Y10850000D01*
G37*
G36*
X14587500Y8275000D02*
X13412500Y8275000D01*
X13412500Y9725000D01*
X14587500Y9725000D01*
X14587500Y8275000D01*
G37*
G54D28*
X24000000Y14450000D03*
X24000000Y11370000D03*
G54D23*
G36*
X21190000Y9900000D02*
X23090000Y9900000D01*
X23090000Y9100000D01*
X21190000Y9100000D01*
X21190000Y9900000D01*
G37*
G54D29*
X16000000Y4000000D03*
G54D30*
X22140000Y5000000D03*
G54D28*
X24000000Y48630000D03*
X31775000Y43467000D03*
G54D23*
G36*
X36257700Y36528400D02*
X35413300Y36040900D01*
X34938300Y36863600D01*
X35782700Y37351100D01*
X36257700Y36528400D01*
G37*
G36*
X34677700Y35616400D02*
X33833300Y35128900D01*
X33358300Y35951600D01*
X34202700Y36439100D01*
X34677700Y35616400D01*
G37*
G54D28*
X37467000Y37775000D03*
X40134000Y39315000D03*
G54D23*
G36*
X45525000Y37599500D02*
X45525000Y38574500D01*
X46475000Y38574500D01*
X46475000Y37599500D01*
X45525000Y37599500D01*
G37*
G36*
X45525000Y39425500D02*
X45525000Y40400500D01*
X46475000Y40400500D01*
X46475000Y39425500D01*
X45525000Y39425500D01*
G37*
G54D28*
X54250000Y38750000D03*
X54250000Y43250000D03*
X51250000Y42000000D03*
X38478000Y41724000D03*
X48914000Y36898000D03*
X39550000Y30000000D03*
G54D23*
G36*
X37880000Y29300000D02*
X36680000Y29300000D01*
X36680000Y30700000D01*
X37880000Y30700000D01*
X37880000Y29300000D01*
G37*
G36*
X35880000Y29300000D02*
X34680000Y29300000D01*
X34680000Y30700000D01*
X35880000Y30700000D01*
X35880000Y29300000D01*
G37*
G54D28*
X42630000Y30000000D03*
G54D23*
G36*
X35782700Y22648900D02*
X34938300Y23136400D01*
X35413300Y23959100D01*
X36257700Y23471600D01*
X35782700Y22648900D01*
G37*
G54D28*
X41393000Y23324000D03*
X39906000Y26981000D03*
X37467000Y22225000D03*
X40134000Y20685000D03*
X42586000Y18961000D03*
X35724000Y15522000D03*
G54D23*
G36*
X34202700Y23560900D02*
X33358300Y24048400D01*
X33833300Y24871100D01*
X34677700Y24383600D01*
X34202700Y23560900D01*
G37*
G36*
X45400000Y30700000D02*
X46600000Y30700000D01*
X46600000Y29300000D01*
X45400000Y29300000D01*
X45400000Y30700000D01*
G37*
G36*
X45125000Y20600000D02*
X45125000Y21900000D01*
X46875000Y21900000D01*
X46875000Y20600000D01*
X45125000Y20600000D01*
G37*
G36*
X45125000Y23700000D02*
X45125000Y25000000D01*
X46875000Y25000000D01*
X46875000Y23700000D01*
X45125000Y23700000D01*
G37*
G36*
X47400000Y30700000D02*
X48600000Y30700000D01*
X48600000Y29300000D01*
X47400000Y29300000D01*
X47400000Y30700000D01*
G37*
G36*
X47600500Y34475000D02*
X48675500Y34475000D01*
X48675500Y33525000D01*
X47600500Y33525000D01*
X47600500Y34475000D01*
G37*
G36*
X49324500Y34475000D02*
X50399500Y34475000D01*
X50399500Y33525000D01*
X49324500Y33525000D01*
X49324500Y34475000D01*
G37*
G36*
X49550000Y29450000D02*
X51450000Y29450000D01*
X51450000Y28650000D01*
X49550000Y28650000D01*
X49550000Y29450000D01*
G37*
G36*
X49550000Y31350000D02*
X51450000Y31350000D01*
X51450000Y30550000D01*
X49550000Y30550000D01*
X49550000Y31350000D01*
G37*
G36*
X52550000Y30400000D02*
X54450000Y30400000D01*
X54450000Y29600000D01*
X52550000Y29600000D01*
X52550000Y30400000D01*
G37*
G36*
X49550000Y24450000D02*
X51450000Y24450000D01*
X51450000Y23650000D01*
X49550000Y23650000D01*
X49550000Y24450000D01*
G37*
G36*
X49550000Y26350000D02*
X51450000Y26350000D01*
X51450000Y25550000D01*
X49550000Y25550000D01*
X49550000Y26350000D01*
G37*
G36*
X52550000Y25400000D02*
X54450000Y25400000D01*
X54450000Y24600000D01*
X52550000Y24600000D01*
X52550000Y25400000D01*
G37*
G54D28*
X54250000Y16750000D03*
X54250000Y21250000D03*
X52621000Y33071000D03*
X31775000Y16533000D03*
G54D23*
G36*
X30182200Y17541600D02*
X29532200Y18667400D01*
X31047800Y19542400D01*
X31697800Y18416600D01*
X30182200Y17541600D01*
G37*
G36*
X28632200Y20226600D02*
X27982200Y21352400D01*
X29497800Y22227400D01*
X30147800Y21101600D01*
X28632200Y20226600D01*
G37*
G54D28*
X33315000Y13866000D03*
G54D23*
G36*
X34599500Y10975000D02*
X35574500Y10975000D01*
X35574500Y10025000D01*
X34599500Y10025000D01*
X34599500Y10975000D01*
G37*
G36*
X36425500Y10975000D02*
X37400500Y10975000D01*
X37400500Y10025000D01*
X36425500Y10025000D01*
X36425500Y10975000D01*
G37*
G36*
X38275500Y13400000D02*
X39600500Y13400000D01*
X39600500Y11600000D01*
X38275500Y11600000D01*
X38275500Y13400000D01*
G37*
G36*
X41399500Y13400000D02*
X42724500Y13400000D01*
X42724500Y11600000D01*
X41399500Y11600000D01*
X41399500Y13400000D01*
G37*
G54D31*
X44000000Y5540000D03*
X44000000Y8080000D03*
X44000000Y3000000D03*
X46540000Y3000000D03*
X46540000Y5540000D03*
X46540000Y8080000D03*
G54D30*
X27000000Y5000000D03*
X31860000Y5000000D03*
G54D28*
X30423000Y8310000D03*
X49168000Y3590000D03*
X52000000Y8750000D03*
X49250000Y10000000D03*
X51250000Y5750000D03*
X40762000Y8363000D03*
G54D23*
G36*
X31697800Y41583400D02*
X31047800Y40457600D01*
X29532200Y41332600D01*
X30182200Y42458400D01*
X31697800Y41583400D01*
G37*
G36*
X30147800Y38898400D02*
X29497800Y37772600D01*
X27982200Y38647600D01*
X28632200Y39773400D01*
X30147800Y38898400D01*
G37*
G36*
X26774500Y28455000D02*
X28399500Y28455000D01*
X28399500Y27735000D01*
X26774500Y27735000D01*
X26774500Y28455000D01*
G37*
G36*
X26774500Y29725000D02*
X28399500Y29725000D01*
X28399500Y29005000D01*
X26774500Y29005000D01*
X26774500Y29725000D01*
G37*
G36*
X26774500Y30995000D02*
X28399500Y30995000D01*
X28399500Y30275000D01*
X26774500Y30275000D01*
X26774500Y30995000D01*
G37*
G36*
X26774500Y32265000D02*
X28399500Y32265000D01*
X28399500Y31545000D01*
X26774500Y31545000D01*
X26774500Y32265000D01*
G37*
G54D28*
X27757000Y34668000D03*
X33315000Y46134000D03*
X30676000Y47393000D03*
G54D32*
G54D33*
G54D32*
G54D33*
G54D34*
G54D33*
G54D32*
G54D33*
G54D32*
G54D33*
G54D34*
G54D31*
G54D33*
G54D31*
G54D33*
M02*
