G04 start of page 2 for group 4 layer_idx 3 *
G04 Title: (unknown), top_silk *
G04 Creator: pcb-rnd 3.1.7b *
G04 CreationDate: 2026-08-02 08:38:31 UTC *
G04 For: Dad *
G04 Format: Gerber/RS-274X *
G04 PCB-Dimensions: 64000000 54000000 *
G04 PCB-Coordinate-Origin: lower left *
%MOMM*%
%FSLAX46Y46*%
%LNTOP_SILK_NONE_4*%
%ADD43C,0.250000*%
G54D43*
X22700000Y52080000D02*
X24000000Y50780000D01*
X25300000Y52080000D02*
X24000000Y50780000D01*
X25800000Y47840000D02*
X25800000Y46340000D01*
X24800000Y43800000D02*
X23200000Y43800000D01*
X25800000Y46340000D02*
X26700000Y46340000D01*
X27975000Y47840000D02*
X27075000Y47840000D01*
X27075000Y46340000D01*
X27975000Y46340000D01*
X27075000Y47090000D02*
X27675000Y47090000D01*
X28350000Y46340000D02*
X28350000Y47840000D01*
X28950000Y47840000D01*
X29925000Y47840000D02*
X30225000Y47840000D01*
X28950000Y47840000D02*
X29250000Y47540000D01*
X29925000Y47090000D02*
X29625000Y47540000D01*
X29925000Y47840000D01*
X29925000Y47090000D02*
X29625000Y46640000D01*
X30225000Y47840000D02*
X30525000Y47540000D01*
X30225000Y47090000D01*
X29925000Y47090000D01*
X29625000Y46640000D02*
X29925000Y46340000D01*
X30225000Y46340000D01*
X30525000Y46640000D01*
X30225000Y47090000D01*
X29250000Y47540000D02*
X29250000Y46640000D01*
X28950000Y46340000D01*
X28350000Y46340000D01*
X23062000Y41950000D02*
X23363000Y42250000D01*
X23363000Y40750000D01*
X24188000Y41950000D02*
X24488000Y42250000D01*
X31593000Y41551000D02*
X30207000Y42351000D01*
X36351000Y36207000D02*
X35551000Y37593000D01*
X24488000Y42250000D02*
X24788000Y42250000D01*
X25087000Y41950000D01*
X25087000Y41650000D01*
X24188000Y40750000D01*
X25087000Y40750000D01*
X43859000Y37275000D02*
X42959000Y37275000D01*
X42959000Y36525000D02*
X43559000Y36525000D01*
X44234000Y37275000D02*
X44834000Y37275000D01*
X45134000Y36975000D01*
X45659000Y36975000D02*
X45959000Y37275000D01*
X46784000Y36975000D02*
X47084000Y37275000D01*
X47384000Y37275000D01*
X47684000Y36975000D01*
X47684000Y36675000D01*
X23003000Y40750000D02*
X23723000Y40750000D01*
X34865000Y44259000D02*
X34865000Y42759000D01*
X35765000Y42759000D01*
X37040000Y44259000D02*
X36140000Y44259000D01*
X36140000Y42759000D01*
X37040000Y42759000D01*
X36140000Y43509000D02*
X36740000Y43509000D01*
X37415000Y42759000D02*
X37415000Y44259000D01*
X38015000Y44259000D01*
X38690000Y44259000D02*
X39590000Y44259000D01*
X38015000Y44259000D02*
X38315000Y43959000D01*
X38315000Y43059000D01*
X38015000Y42759000D01*
X37415000Y42759000D01*
X39590000Y44259000D02*
X38990000Y42759000D01*
X54962000Y48350000D02*
X54663000Y48650000D01*
X54362000Y48650000D01*
X54062000Y48350000D01*
X54062000Y47450000D01*
X54362000Y47150000D01*
X54663000Y47150000D01*
X54962000Y47450000D01*
X54962000Y47750000D01*
X54663000Y47750000D01*
X56057000Y47150000D02*
X56057000Y48650000D01*
X55337000Y47600000D01*
X56237000Y47600000D01*
X57013000Y46300000D02*
X56712000Y46300000D01*
X56413000Y46000000D01*
X56413000Y45700000D01*
X57312000Y46000000D02*
X57013000Y46300000D01*
X56413000Y45700000D02*
X56712000Y45550000D01*
X57013000Y45550000D01*
X57312000Y45400000D01*
X57688000Y46000000D02*
X57987000Y46300000D01*
X58288000Y46300000D01*
X58587000Y46000000D01*
X58587000Y45700000D01*
X57688000Y44800000D01*
X58587000Y44800000D01*
X57312000Y45400000D02*
X57312000Y45100000D01*
X57013000Y44800000D01*
X56712000Y44800000D01*
X56413000Y45100000D01*
X35050000Y30750000D02*
X35950000Y30750000D01*
X35500000Y30150000D01*
X35950000Y29850000D01*
X35950000Y29550000D02*
X35650000Y29250000D01*
X38090000Y33300000D02*
X38090000Y31800000D01*
X38990000Y31800000D01*
X39365000Y33300000D02*
X39365000Y31800000D01*
X40265000Y33300000D02*
X39365000Y33300000D01*
X39365000Y31800000D02*
X40265000Y31800000D01*
X39365000Y32550000D02*
X39965000Y32550000D01*
X40640000Y31800000D02*
X40640000Y33300000D01*
X41240000Y33300000D01*
X43340000Y33000000D02*
X43640000Y33300000D01*
X41240000Y33300000D02*
X41540000Y33000000D01*
X42065000Y33000000D02*
X42365000Y33300000D01*
X42365000Y31800000D01*
X42005000Y31800000D02*
X42725000Y31800000D01*
X43640000Y33300000D02*
X43640000Y31800000D01*
X43280000Y31800000D02*
X44000000Y31800000D01*
X41540000Y33000000D02*
X41540000Y32100000D01*
X41240000Y31800000D01*
X40640000Y31800000D01*
X37800000Y29200000D02*
X37800000Y30800000D01*
X35950000Y29850000D02*
X35950000Y29550000D01*
X35650000Y29250000D02*
X35350000Y29250000D01*
X35050000Y29550000D01*
X28312000Y29150000D02*
X28612000Y29150000D01*
X28913000Y28850000D01*
X29438000Y28850000D02*
X29738000Y29150000D01*
X22913000Y32950000D02*
X23812000Y32950000D01*
X24188000Y32950000D02*
X25087000Y32950000D01*
X23363000Y32950000D02*
X23363000Y31450000D01*
X24637000Y32950000D02*
X24637000Y31450000D01*
X26738000Y32950000D02*
X27188000Y31450000D01*
X27637000Y32950000D01*
X28163000Y32650000D02*
X28463000Y32950000D01*
X28463000Y31450000D01*
X28102000Y31450000D02*
X28823000Y31450000D01*
X22913000Y31450000D02*
X23812000Y31450000D01*
X23062000Y28400000D02*
X23663000Y28400000D01*
X24488000Y29150000D02*
X24788000Y29150000D01*
X24188000Y28850000D02*
X24488000Y29150000D01*
X24788000Y29150000D02*
X25087000Y28850000D01*
X25087000Y27950000D01*
X24788000Y27650000D01*
X24488000Y27650000D01*
X24188000Y27950000D01*
X24188000Y28850000D01*
X25762000Y29150000D02*
X26062000Y29150000D01*
X26887000Y28400000D02*
X27488000Y28400000D01*
X28312000Y27650000D02*
X28012000Y27950000D01*
X28012000Y28850000D01*
X28312000Y29150000D01*
X28913000Y28850000D02*
X28913000Y27950000D01*
X28612000Y27650000D01*
X28312000Y27650000D01*
X29738000Y29150000D02*
X29738000Y27650000D01*
X29377000Y27650000D02*
X30098000Y27650000D01*
X26062000Y29150000D02*
X26363000Y28850000D01*
X25762000Y28400000D02*
X25462000Y28850000D01*
X25762000Y29150000D01*
X26363000Y28850000D02*
X26062000Y28400000D01*
X25762000Y28400000D01*
X25462000Y27950000D01*
X25762000Y27650000D01*
X26363000Y27950000D02*
X26062000Y28400000D01*
X25762000Y27650000D02*
X26062000Y27650000D01*
X26363000Y27950000D01*
X24450000Y18950000D02*
X24150000Y19250000D01*
X23850000Y19250000D01*
X23550000Y18950000D01*
X23550000Y18050000D01*
X23850000Y17750000D01*
X24450000Y18050000D02*
X24450000Y18350000D01*
X24150000Y18650000D01*
X23850000Y18650000D01*
X23550000Y18350000D01*
X23200000Y16200000D02*
X24800000Y16200000D01*
X23850000Y17750000D02*
X24150000Y17750000D01*
X24450000Y18050000D01*
X22938000Y8070000D02*
X22938000Y9570000D01*
X23538000Y9570000D01*
X23837000Y9270000D01*
X23837000Y8370000D02*
X23538000Y8070000D01*
X22938000Y8070000D01*
X26212000Y8850000D02*
X26512000Y8850000D01*
X25913000Y8550000D02*
X26212000Y8850000D01*
X23837000Y9270000D02*
X23837000Y8370000D01*
X25113000Y9270000D02*
X25113000Y8970000D01*
X24212000Y9270000D02*
X24512000Y9570000D01*
X24812000Y9570000D01*
X25113000Y9270000D01*
X25113000Y8970000D02*
X24212000Y8070000D01*
X25113000Y8070000D01*
X26512000Y8850000D02*
X26812000Y8550000D01*
X27188000Y7350000D02*
X27188000Y8850000D01*
X28087000Y7350000D01*
X28087000Y8850000D01*
X28830000Y8700000D02*
X28530000Y8400000D01*
X28530000Y8100000D01*
X29430000Y8400000D02*
X29130000Y8700000D01*
X28830000Y8700000D01*
X28530000Y8100000D02*
X28830000Y7950000D01*
X29130000Y7950000D01*
X29430000Y7800000D01*
X29430000Y7500000D01*
X29130000Y7200000D01*
X28830000Y7200000D01*
X28530000Y7500000D01*
X29805000Y8700000D02*
X30045000Y7200000D01*
X30255000Y8100000D01*
X30465000Y7200000D01*
X30705000Y8700000D01*
X31230000Y8400000D02*
X31530000Y8700000D01*
X31530000Y7200000D01*
X31170000Y7200000D02*
X31890000Y7200000D01*
X26812000Y8550000D02*
X26812000Y7650000D01*
X25913000Y7650000D02*
X25913000Y8550000D01*
X26812000Y7650000D02*
X26512000Y7350000D01*
X26212000Y7350000D01*
X25913000Y7650000D01*
X35551000Y22407000D02*
X36351000Y23793000D01*
X30207000Y17649000D02*
X31593000Y18449000D01*
X37040000Y17241000D02*
X36140000Y17241000D01*
X34865000Y17241000D02*
X34865000Y15741000D01*
X36140000Y17241000D02*
X36140000Y15741000D01*
X37040000Y15741000D01*
X36140000Y16491000D02*
X36740000Y16491000D01*
X37415000Y15741000D02*
X37415000Y17241000D01*
X38015000Y17241000D01*
X40265000Y17241000D02*
X40565000Y17241000D01*
X40865000Y16941000D01*
X39965000Y16941000D02*
X40265000Y17241000D01*
X38015000Y17241000D02*
X38315000Y16941000D01*
X38840000Y16941000D02*
X39140000Y17241000D01*
X39140000Y15741000D01*
X40865000Y16941000D02*
X40865000Y16041000D01*
X40565000Y15741000D01*
X40265000Y15741000D01*
X39965000Y16041000D01*
X39965000Y16941000D01*
X41684000Y24225000D02*
X41684000Y22725000D01*
X42584000Y22725000D01*
X42959000Y22725000D02*
X43859000Y22725000D01*
X43859000Y24225000D02*
X42959000Y24225000D01*
X42959000Y23475000D02*
X43559000Y23475000D01*
X44234000Y24225000D02*
X44834000Y24225000D01*
X44234000Y22725000D02*
X44234000Y24225000D01*
X44834000Y24225000D02*
X45134000Y23925000D01*
X45134000Y23025000D01*
X44834000Y22725000D01*
X44234000Y22725000D01*
X45509000Y23025000D02*
X45809000Y22725000D01*
X46109000Y22725000D01*
X46409000Y23025000D01*
X46109000Y24225000D02*
X45809000Y24225000D01*
X45509000Y23925000D01*
X45509000Y23625000D01*
X46409000Y23025000D02*
X46409000Y23925000D01*
X46109000Y24225000D01*
X45509000Y23625000D02*
X45809000Y23325000D01*
X46109000Y23325000D01*
X46409000Y23625000D01*
X42959000Y24225000D02*
X42959000Y22725000D01*
X38315000Y16941000D02*
X38315000Y16041000D01*
X38015000Y15741000D01*
X37415000Y15741000D01*
X55212000Y10650000D02*
X54913000Y10350000D01*
X34865000Y15741000D02*
X35765000Y15741000D01*
X38780000Y15741000D02*
X39500000Y15741000D01*
X55812000Y10350000D02*
X55513000Y10650000D01*
X55212000Y10650000D01*
X54913000Y10350000D02*
X54913000Y9450000D01*
X55812000Y9450000D02*
X55812000Y9750000D01*
X55513000Y9750000D01*
X54913000Y9450000D02*
X55212000Y9150000D01*
X55513000Y9150000D01*
X55812000Y9450000D01*
X56188000Y10350000D02*
X56487000Y10650000D01*
X56788000Y10650000D01*
X57312000Y14900000D02*
X57013000Y15200000D01*
X56712000Y15200000D01*
X56413000Y14900000D01*
X56413000Y14600000D01*
X56788000Y10650000D02*
X57087000Y10350000D01*
X56413000Y14600000D02*
X56712000Y14450000D01*
X57013000Y14450000D01*
X57013000Y13700000D02*
X56712000Y13700000D01*
X56413000Y14000000D01*
X57013000Y14450000D02*
X57312000Y14300000D01*
X57312000Y14000000D01*
X57013000Y13700000D01*
X57778000Y13700000D02*
X58498000Y13700000D01*
X57837000Y14900000D02*
X58138000Y15200000D01*
X58138000Y13700000D01*
X57087000Y10350000D02*
X57087000Y10050000D01*
X56188000Y9150000D01*
X57087000Y9150000D01*
X17793000Y42351000D02*
X16407000Y41551000D01*
X19387000Y32950000D02*
X19688000Y32950000D01*
X19087000Y32650000D02*
X19387000Y32950000D01*
X16725000Y47684000D02*
X18225000Y47684000D01*
X19688000Y32950000D02*
X19988000Y32650000D01*
X19988000Y31750000D01*
X19087000Y31750000D02*
X19087000Y32650000D01*
X18225000Y47684000D02*
X18225000Y48584000D01*
X16725000Y50234000D02*
X16725000Y50834000D01*
X17025000Y51134000D01*
X17925000Y51134000D01*
X18225000Y50834000D01*
X18225000Y50234000D01*
X16725000Y49859000D02*
X16725000Y48959000D01*
X17475000Y48959000D02*
X17475000Y49559000D01*
X18225000Y50234000D02*
X16725000Y50234000D01*
X18225000Y52229000D02*
X16725000Y52229000D01*
X17775000Y51509000D01*
X17775000Y52409000D01*
X16725000Y48959000D02*
X18225000Y48959000D01*
X18225000Y49859000D01*
X16407000Y18449000D02*
X17793000Y17649000D01*
X16725000Y10141000D02*
X16725000Y10741000D01*
X17025000Y11041000D01*
X17025000Y11566000D02*
X16725000Y11866000D01*
X15700000Y7000000D02*
X16300000Y7000000D01*
X16725000Y9766000D02*
X16725000Y8866000D01*
X17475000Y8866000D02*
X17475000Y9466000D01*
X16000000Y6550000D02*
X16000000Y7450000D01*
X16725000Y7591000D02*
X18225000Y7591000D01*
X18225000Y8491000D01*
X16725000Y8866000D02*
X18225000Y8866000D01*
X18225000Y9766000D01*
X18225000Y10741000D02*
X18225000Y10141000D01*
X18225000Y11506000D02*
X18225000Y12226000D01*
X18225000Y10141000D02*
X16725000Y10141000D01*
X17025000Y11041000D02*
X17925000Y11041000D01*
X16725000Y11866000D02*
X18225000Y11866000D01*
X17925000Y11041000D02*
X18225000Y10741000D01*
X19988000Y31750000D02*
X19688000Y31450000D01*
X20387000Y9570000D02*
X20387000Y8070000D01*
X22562000Y9570000D02*
X21663000Y9570000D01*
X20387000Y8070000D02*
X21288000Y8070000D01*
X21663000Y9570000D02*
X21663000Y8070000D01*
X22562000Y8070000D01*
X21663000Y8820000D02*
X22262000Y8820000D01*
X19688000Y31450000D02*
X19387000Y31450000D01*
X19387000Y29150000D02*
X19688000Y29150000D01*
X19988000Y28850000D01*
X19988000Y27950000D01*
X19688000Y27650000D01*
X19387000Y27650000D01*
X20363000Y28850000D02*
X20663000Y29150000D01*
X20962000Y29150000D01*
X21262000Y28850000D01*
X22538000Y28850000D02*
X22238000Y29150000D01*
X21938000Y29150000D01*
X21637000Y28850000D01*
X21262000Y28850000D02*
X21262000Y28550000D01*
X21637000Y28850000D02*
X21637000Y27950000D01*
X21938000Y27650000D01*
X21938000Y28550000D02*
X21637000Y28250000D01*
X21938000Y27650000D02*
X22238000Y27650000D01*
X22538000Y27950000D01*
X22538000Y28250000D01*
X22238000Y28550000D01*
X21938000Y28550000D01*
X21262000Y28550000D02*
X20363000Y27650000D01*
X21262000Y27650000D01*
X19387000Y31450000D02*
X19087000Y31750000D01*
X18113000Y29150000D02*
X18413000Y29150000D01*
X18712000Y28850000D01*
X19087000Y28850000D02*
X19387000Y29150000D01*
X17812000Y28850000D02*
X18113000Y29150000D01*
X18712000Y28850000D02*
X18712000Y28550000D01*
X17812000Y27650000D01*
X18712000Y27650000D01*
X19387000Y27650000D02*
X19087000Y27950000D01*
X19087000Y28850000D01*
X20363000Y31450000D02*
X20363000Y32950000D01*
X20962000Y32950000D01*
X21262000Y32650000D01*
X20902000Y32050000D02*
X21262000Y31450000D01*
X21262000Y32650000D02*
X21262000Y32350000D01*
X20962000Y32050000D01*
X20363000Y32050000D01*
X21637000Y31450000D02*
X21637000Y32950000D01*
X22238000Y32950000D01*
X22538000Y32650000D01*
X22538000Y32500000D02*
X22238000Y32200000D01*
X21637000Y32200000D01*
X22238000Y32200000D02*
X22538000Y31900000D01*
X22538000Y31750000D01*
X22238000Y31450000D01*
X21637000Y31450000D01*
X22538000Y32650000D02*
X22538000Y32500000D01*
X11649000Y23793000D02*
X12449000Y22407000D01*
X54800000Y24470000D02*
X54500000Y24170000D01*
X54500000Y23270000D01*
X55400000Y24170000D02*
X55100000Y24470000D01*
X54800000Y24470000D01*
X54500000Y23270000D02*
X54800000Y22970000D01*
X55100000Y22970000D01*
X55400000Y23270000D01*
X55775000Y22970000D02*
X55775000Y24170000D01*
X56075000Y24470000D01*
X55775000Y23570000D02*
X56675000Y23570000D01*
X57050000Y24470000D02*
X57950000Y24470000D01*
X58925000Y24470000D02*
X58625000Y24470000D01*
X59550000Y29250000D02*
X59550000Y30750000D01*
X60150000Y30750000D01*
X60150000Y30000000D02*
X59550000Y30000000D01*
X60150000Y29250000D02*
X59550000Y29250000D01*
X56075000Y24470000D02*
X56375000Y24470000D01*
X59225000Y24170000D02*
X58925000Y24470000D01*
X58625000Y24470000D02*
X58325000Y24170000D01*
X60150000Y30750000D02*
X60450000Y30450000D01*
X60825000Y30750000D02*
X61725000Y30750000D01*
X60825000Y29250000D01*
X61725000Y29250000D01*
X62250000Y30450000D02*
X62550000Y30750000D01*
X62550000Y29250000D01*
X62190000Y29250000D02*
X62910000Y29250000D01*
X60450000Y30450000D02*
X60450000Y30300000D01*
X60150000Y30000000D01*
X60450000Y29700000D01*
X60450000Y29550000D01*
X60150000Y29250000D01*
X56375000Y24470000D02*
X56675000Y24170000D01*
X56675000Y22970000D01*
X57500000Y24470000D02*
X57500000Y22970000D01*
X58325000Y24170000D02*
X58325000Y23270000D01*
X58625000Y22970000D01*
X58925000Y22970000D01*
X59225000Y23270000D01*
X59600000Y24470000D02*
X59600000Y22970000D01*
X60500000Y24470000D02*
X60500000Y22970000D01*
X59600000Y23720000D02*
X60500000Y23720000D01*
X10200000Y30800000D02*
X10200000Y29200000D01*
X12350000Y30750000D02*
X12050000Y30450000D01*
X12050000Y30150000D01*
X12050000Y29550000D02*
X12350000Y29250000D01*
X12950000Y30450000D02*
X12650000Y30750000D01*
X12350000Y30750000D01*
X12050000Y30150000D02*
X12350000Y29850000D01*
X12650000Y29850000D01*
X12950000Y30150000D01*
X9741000Y16585000D02*
X9741000Y15685000D01*
X11241000Y15685000D01*
X11241000Y16585000D01*
X10491000Y15685000D02*
X10491000Y16285000D01*
X9700000Y7000000D02*
X10300000Y7000000D01*
X9741000Y14410000D02*
X11241000Y14410000D01*
X11241000Y15310000D01*
X11050000Y7925000D02*
X11050000Y8225000D01*
X11050000Y8900000D02*
X11050000Y9500000D01*
X11050000Y10475000D02*
X11050000Y10775000D01*
X11241000Y16960000D02*
X9741000Y16960000D01*
X9741000Y17560000D01*
X10041000Y17860000D01*
X10041000Y19135000D02*
X9741000Y18835000D01*
X9741000Y18535000D01*
X10041000Y18235000D01*
X10041000Y17860000D02*
X10941000Y17860000D01*
X10041000Y18235000D02*
X10941000Y18235000D01*
X11241000Y18535000D02*
X11241000Y18835000D01*
X10341000Y18835000D02*
X10341000Y18535000D01*
X10641000Y18235000D01*
X10941000Y17860000D02*
X11241000Y17560000D01*
X11241000Y16960000D01*
X10941000Y18235000D02*
X11241000Y18535000D01*
X11241000Y18835000D02*
X10941000Y19135000D01*
X10641000Y19135000D01*
X10341000Y18835000D01*
X7812000Y10350000D02*
X7513000Y10650000D01*
X8338000Y10350000D02*
X8637000Y10650000D01*
X7513000Y10650000D02*
X7213000Y10650000D01*
X6912000Y10350000D01*
X6912000Y9450000D01*
X7213000Y9150000D01*
X7513000Y9150000D01*
X7812000Y9450000D01*
X7812000Y9750000D01*
X7513000Y9750000D01*
X8637000Y10650000D02*
X8637000Y9150000D01*
X8277000Y9150000D02*
X8998000Y9150000D01*
X11050000Y9500000D02*
X11350000Y9800000D01*
X11350000Y10175000D02*
X11050000Y10475000D01*
X11050000Y10775000D02*
X11350000Y11075000D01*
X11350000Y9800000D02*
X12250000Y9800000D01*
X12550000Y9500000D01*
X12550000Y8900000D01*
X11350000Y11075000D02*
X11650000Y11075000D01*
X12550000Y10175000D01*
X12550000Y11075000D01*
X11050000Y6350000D02*
X11050000Y6950000D01*
X11350000Y7250000D01*
X11650000Y7250000D01*
X14950000Y6350000D02*
X13450000Y6350000D01*
X12550000Y6350000D02*
X11050000Y6350000D01*
X11650000Y7250000D02*
X11950000Y6950000D01*
X11950000Y6350000D01*
X12550000Y7625000D02*
X11350000Y7625000D01*
X11050000Y7925000D01*
X11950000Y7625000D02*
X11950000Y8525000D01*
X11050000Y8225000D02*
X11350000Y8525000D01*
X12550000Y8525000D01*
X12550000Y8900000D02*
X11050000Y8900000D01*
X13450000Y6950000D02*
X13750000Y7250000D01*
X14050000Y7250000D01*
X14950000Y7625000D02*
X13750000Y7625000D01*
X13450000Y7925000D01*
X13450000Y6350000D02*
X13450000Y6950000D01*
X14050000Y7250000D02*
X14350000Y6950000D01*
X14350000Y6350000D01*
X13450000Y7925000D02*
X13450000Y8225000D01*
X13450000Y8900000D02*
X13450000Y9500000D01*
X13450000Y8225000D02*
X13750000Y8525000D01*
X13450000Y9500000D02*
X13750000Y9800000D01*
X13750000Y10325000D02*
X13450000Y10625000D01*
X13750000Y9800000D02*
X14650000Y9800000D01*
X14950000Y9500000D01*
X13450000Y10625000D02*
X14950000Y10625000D01*
X14950000Y10265000D02*
X14950000Y10985000D01*
X13750000Y8525000D02*
X14950000Y8525000D01*
X14950000Y8900000D02*
X13450000Y8900000D01*
X14950000Y9500000D02*
X14950000Y8900000D01*
X14350000Y7625000D02*
X14350000Y8525000D01*
X8662000Y48350000D02*
X8362000Y48650000D01*
X8062000Y48650000D01*
X7762000Y48350000D01*
X7762000Y47450000D01*
X8662000Y47450000D02*
X8662000Y47750000D01*
X8362000Y47750000D01*
X4548000Y33300000D02*
X4548000Y31800000D01*
X5447000Y31800000D01*
X6723000Y33300000D02*
X5822000Y33300000D01*
X5822000Y31800000D01*
X6723000Y31800000D01*
X5822000Y32550000D02*
X6423000Y32550000D01*
X12350000Y29250000D02*
X12650000Y29250000D01*
X12950000Y29550000D01*
X12950000Y30450000D01*
X7098000Y31800000D02*
X7098000Y33300000D01*
X7697000Y33300000D01*
X9273000Y33300000D02*
X8373000Y33300000D01*
X7697000Y33300000D02*
X7998000Y33000000D01*
X8373000Y33300000D02*
X8373000Y32700000D01*
X8973000Y32700000D01*
X9273000Y32400000D01*
X9273000Y32100000D01*
X8973000Y31800000D01*
X8672000Y31800000D01*
X8373000Y32100000D01*
X7998000Y33000000D02*
X7998000Y32100000D01*
X7697000Y31800000D01*
X7098000Y31800000D01*
X7762000Y47450000D02*
X8062000Y47150000D01*
X8362000Y47150000D01*
X8662000Y47450000D01*
X9037000Y48650000D02*
X9938000Y48650000D01*
X9487000Y48050000D01*
X9938000Y47750000D01*
X9938000Y47450000D01*
X9637000Y47150000D01*
X9338000Y47150000D01*
X9037000Y47450000D01*
X9741000Y40865000D02*
X11241000Y40865000D01*
X11241000Y41765000D01*
X11241000Y42140000D02*
X11241000Y43040000D01*
X9741000Y43415000D02*
X9741000Y44015000D01*
X10041000Y44315000D01*
X10941000Y44315000D01*
X11241000Y44015000D01*
X11241000Y43415000D01*
X9741000Y43040000D02*
X9741000Y42140000D01*
X10491000Y42140000D02*
X10491000Y42740000D01*
X11241000Y43415000D02*
X9741000Y43415000D01*
X9741000Y44690000D02*
X9741000Y45590000D01*
X10341000Y45140000D01*
X10641000Y45590000D01*
X10941000Y45590000D01*
X11241000Y45290000D01*
X11241000Y44990000D01*
X10941000Y44690000D01*
X9741000Y42140000D02*
X11241000Y42140000D01*
X12449000Y37593000D02*
X11649000Y36207000D01*
X41684000Y37275000D02*
X41684000Y35775000D01*
X42584000Y35775000D01*
X42959000Y37275000D02*
X42959000Y35775000D01*
X43859000Y35775000D01*
X44234000Y35775000D02*
X44234000Y37275000D01*
X45134000Y36075000D02*
X44834000Y35775000D01*
X44234000Y35775000D01*
X54800000Y37030000D02*
X54500000Y36730000D01*
X54500000Y36430000D01*
X45134000Y36975000D02*
X45134000Y36075000D01*
X45959000Y37275000D02*
X45959000Y35775000D01*
X45599000Y35775000D02*
X46319000Y35775000D01*
X47684000Y36675000D02*
X46784000Y35775000D01*
X47684000Y35775000D01*
X55400000Y36730000D02*
X55100000Y37030000D01*
X54800000Y37030000D01*
X54500000Y36430000D02*
X54800000Y36280000D01*
X55100000Y36280000D01*
X55775000Y37030000D02*
X56675000Y37030000D01*
X55100000Y36280000D02*
X55400000Y36130000D01*
X55400000Y35830000D01*
X56225000Y37030000D02*
X56225000Y35530000D01*
X57050000Y36730000D02*
X57350000Y37030000D01*
X57050000Y35530000D02*
X57050000Y36730000D01*
X57350000Y37030000D02*
X57650000Y37030000D01*
X57950000Y36730000D01*
X57950000Y35530000D01*
X57050000Y36130000D02*
X57950000Y36130000D01*
X58325000Y35530000D02*
X58325000Y37030000D01*
X58925000Y37030000D01*
X59600000Y37030000D02*
X60500000Y37030000D01*
X58925000Y37030000D02*
X59225000Y36730000D01*
X59225000Y36430000D02*
X58925000Y36130000D01*
X58325000Y36130000D01*
X58865000Y36130000D02*
X59225000Y35530000D01*
X60050000Y37030000D02*
X60050000Y35530000D01*
X59225000Y36730000D02*
X59225000Y36430000D01*
X55400000Y35830000D02*
X55100000Y35530000D01*
X54800000Y35530000D02*
X54500000Y35830000D01*
X55100000Y35530000D02*
X54800000Y35530000D01*
M02*
