G04 start of page 2 for group 0 layer_idx 0 *
G04 Title: (unknown), top_copper *
G04 Creator: pcb-rnd 3.1.7b *
G04 CreationDate: 2026-08-02 13:36:58 UTC *
G04 For: Dad *
G04 Format: Gerber/RS-274X *
G04 PCB-Dimensions: 64000000 54000000 *
G04 PCB-Coordinate-Origin: lower left *
%MOMM*%
%FSLAX46Y46*%
%LNTOP_COPPER_NONE_0*%
%ADD22C,1.800000*%
%ADD21C,1.500000*%
%ADD20C,1.000000*%
%ADD19C,3.400000*%
%ADD18C,0.800000*%
%ADD17C,3.300000*%
%ADD16C,3.600000*%
%ADD15C,0.620000*%
%ADD14C,0.600000*%
%ADD13C,2.500000*%
%ADD12C,1.700000*%
%ADD11C,0.002000*%
G54D11*
G36*
X62117000Y52892000D02*
X62233000Y52869000D01*
X62344000Y52831000D01*
X62450000Y52779000D01*
X62548000Y52714000D01*
X62636000Y52636000D01*
X62714000Y52548000D01*
X62779000Y52450000D01*
X62831000Y52344000D01*
X62869000Y52233000D01*
X62892000Y52117000D01*
X62900000Y52000000D01*
X62900000Y2000000D01*
X62892000Y1883000D01*
X62869000Y1767000D01*
X62831000Y1656000D01*
X62779000Y1550000D01*
X62714000Y1452000D01*
X62636000Y1364000D01*
X62548000Y1286000D01*
X62450000Y1221000D01*
X62344000Y1169000D01*
X62233000Y1131000D01*
X62117000Y1108000D01*
X62000000Y1100000D01*
X60747425Y1100000D01*
X60747425Y1975879D01*
X61513000Y2487000D01*
X62206000Y3525000D01*
X62450000Y4750000D01*
X62206000Y5975000D01*
X61513000Y7013000D01*
X60747425Y7524121D01*
X60747425Y15075052D01*
X60750000Y15074849D01*
X61012051Y15095473D01*
X61267650Y15156837D01*
X61510503Y15257430D01*
X61734629Y15394775D01*
X61934510Y15565490D01*
X62105225Y15765371D01*
X62242570Y15989497D01*
X62343163Y16232350D01*
X62404527Y16487949D01*
X62420000Y16750000D01*
X62404527Y17012051D01*
X62343163Y17267650D01*
X62242570Y17510503D01*
X62105225Y17734629D01*
X61934510Y17934510D01*
X61734629Y18105225D01*
X61510503Y18242570D01*
X61267650Y18343163D01*
X61012051Y18404527D01*
X60750000Y18425151D01*
X60747425Y18424948D01*
X60747425Y19575052D01*
X60750000Y19574849D01*
X61012051Y19595473D01*
X61267650Y19656837D01*
X61510503Y19757430D01*
X61734629Y19894775D01*
X61934510Y20065490D01*
X62105225Y20265371D01*
X62242570Y20489497D01*
X62343163Y20732350D01*
X62404527Y20987949D01*
X62420000Y21250000D01*
X62404527Y21512051D01*
X62343163Y21767650D01*
X62242570Y22010503D01*
X62105225Y22234629D01*
X61934510Y22434510D01*
X61734629Y22605225D01*
X61510503Y22742570D01*
X61267650Y22843163D01*
X61012051Y22904527D01*
X60750000Y22925151D01*
X60747425Y22924948D01*
X60747425Y37075052D01*
X60750000Y37074849D01*
X61012051Y37095473D01*
X61267650Y37156837D01*
X61510503Y37257430D01*
X61734629Y37394775D01*
X61934510Y37565490D01*
X62105225Y37765371D01*
X62242570Y37989497D01*
X62343163Y38232350D01*
X62404527Y38487949D01*
X62420000Y38750000D01*
X62404527Y39012051D01*
X62343163Y39267650D01*
X62242570Y39510503D01*
X62105225Y39734629D01*
X61934510Y39934510D01*
X61734629Y40105225D01*
X61510503Y40242570D01*
X61267650Y40343163D01*
X61012051Y40404527D01*
X60750000Y40425151D01*
X60747425Y40424948D01*
X60747425Y41575052D01*
X60750000Y41574849D01*
X61012051Y41595473D01*
X61267650Y41656837D01*
X61510503Y41757430D01*
X61734629Y41894775D01*
X61934510Y42065490D01*
X62105225Y42265371D01*
X62242570Y42489497D01*
X62343163Y42732350D01*
X62404527Y42987949D01*
X62420000Y43250000D01*
X62404527Y43512051D01*
X62343163Y43767650D01*
X62242570Y44010503D01*
X62105225Y44234629D01*
X61934510Y44434510D01*
X61734629Y44605225D01*
X61510503Y44742570D01*
X61267650Y44843163D01*
X61012051Y44904527D01*
X60750000Y44925151D01*
X60747425Y44924948D01*
X60747425Y46475879D01*
X61513000Y46987000D01*
X62206000Y48025000D01*
X62450000Y49250000D01*
X62206000Y50475000D01*
X61513000Y51513000D01*
X60747425Y52024121D01*
X60747425Y52900000D01*
X62000000Y52900000D01*
X62117000Y52892000D01*
G37*
G36*
X60487949Y44904527D02*
X60232350Y44843163D01*
X59989497Y44742570D01*
X59765371Y44605225D01*
X59565490Y44434510D01*
X59394775Y44234629D01*
X59257430Y44010503D01*
X59156837Y43767650D01*
X59095473Y43512051D01*
X59074849Y43250000D01*
X59093129Y43017732D01*
X58992570Y43260503D01*
X58855225Y43484629D01*
X58684510Y43684510D01*
X58484629Y43855225D01*
X58260503Y43992570D01*
X58017650Y44093163D01*
X57762051Y44154527D01*
X57500000Y44175151D01*
X57237949Y44154527D01*
X56982350Y44093163D01*
X56739497Y43992570D01*
X56515371Y43855225D01*
X56315490Y43684510D01*
X56144775Y43484629D01*
X56007430Y43260503D01*
X55906837Y43017650D01*
X55906099Y43014577D01*
X55920000Y43250000D01*
X55904527Y43512051D01*
X55843163Y43767650D01*
X55742570Y44010503D01*
X55605380Y44234377D01*
X55699285Y44241767D01*
X55893662Y44288433D01*
X56078346Y44364932D01*
X56248790Y44469379D01*
X56400795Y44599205D01*
X56530621Y44751210D01*
X56635068Y44921654D01*
X56711567Y45106338D01*
X56758233Y45300715D01*
X56770000Y45500000D01*
X56758233Y45699285D01*
X56711567Y45893662D01*
X56635068Y46078346D01*
X56530621Y46248790D01*
X56400795Y46400795D01*
X56248790Y46530621D01*
X56078346Y46635068D01*
X55893662Y46711567D01*
X55699285Y46758233D01*
X55500000Y46773917D01*
X55300715Y46758233D01*
X55106338Y46711567D01*
X54921654Y46635068D01*
X54751210Y46530621D01*
X54599205Y46400795D01*
X54469379Y46248790D01*
X54364932Y46078346D01*
X54288433Y45893662D01*
X54241767Y45699285D01*
X54226083Y45500000D01*
X54241767Y45300715D01*
X54288433Y45106338D01*
X54364932Y44921654D01*
X54368504Y44915824D01*
X54250000Y44925151D01*
X53987949Y44904527D01*
X53732350Y44843163D01*
X53489497Y44742570D01*
X53265371Y44605225D01*
X53065490Y44434510D01*
X52894775Y44234629D01*
X52757430Y44010503D01*
X52656837Y43767650D01*
X52595473Y43512051D01*
X52574849Y43250000D01*
X52594771Y42996869D01*
X52434510Y43184510D01*
X52234629Y43355225D01*
X52010503Y43492570D01*
X51767650Y43593163D01*
X51512051Y43654527D01*
X51250000Y43675151D01*
X50987949Y43654527D01*
X50732350Y43593163D01*
X50489497Y43492570D01*
X50265371Y43355225D01*
X50065490Y43184510D01*
X49894775Y42984629D01*
X49757430Y42760503D01*
X49656837Y42517650D01*
X49595473Y42262051D01*
X49574849Y42000000D01*
X49595473Y41737949D01*
X49616068Y41652165D01*
X44762335Y46505898D01*
X44726488Y46542736D01*
X44693634Y46567297D01*
X44674511Y46584288D01*
X44654514Y46596543D01*
X44635719Y46610593D01*
X44606267Y46626109D01*
X44577882Y46643503D01*
X44556207Y46652481D01*
X44535452Y46663415D01*
X44511064Y46671180D01*
X44473179Y46686872D01*
X44423303Y46698846D01*
X33057425Y49591978D01*
X33057425Y52900000D01*
X60747425Y52900000D01*
X60747425Y52024121D01*
X60475000Y52206000D01*
X59250000Y52450000D01*
X58025000Y52206000D01*
X56987000Y51513000D01*
X56294000Y50475000D01*
X56050000Y49250000D01*
X56294000Y48025000D01*
X56987000Y46987000D01*
X58025000Y46294000D01*
X59250000Y46050000D01*
X60475000Y46294000D01*
X60747425Y46475879D01*
X60747425Y44924948D01*
X60487949Y44904527D01*
G37*
G36*
X58000000Y32124849D02*
X58262051Y32145473D01*
X58517650Y32206837D01*
X58760503Y32307430D01*
X58984629Y32444775D01*
X59184510Y32615490D01*
X59355225Y32815371D01*
X59492570Y33039497D01*
X59593163Y33282350D01*
X59654527Y33537949D01*
X59670000Y33800000D01*
X59654527Y34062051D01*
X59593163Y34317650D01*
X59492570Y34560503D01*
X59355225Y34784629D01*
X59184510Y34984510D01*
X58984629Y35155225D01*
X58760503Y35292570D01*
X58517650Y35393163D01*
X58262051Y35454527D01*
X58000000Y35475151D01*
X57997425Y35474948D01*
X57997425Y40901981D01*
X58017650Y40906837D01*
X58260503Y41007430D01*
X58484629Y41144775D01*
X58684510Y41315490D01*
X58855225Y41515371D01*
X58992570Y41739497D01*
X59093163Y41982350D01*
X59154527Y42237949D01*
X59170000Y42500000D01*
X59156099Y42735423D01*
X59156837Y42732350D01*
X59257430Y42489497D01*
X59394775Y42265371D01*
X59565490Y42065490D01*
X59765371Y41894775D01*
X59989497Y41757430D01*
X60232350Y41656837D01*
X60487949Y41595473D01*
X60747425Y41575052D01*
X60747425Y40424948D01*
X60487949Y40404527D01*
X60232350Y40343163D01*
X59989497Y40242570D01*
X59765371Y40105225D01*
X59565490Y39934510D01*
X59394775Y39734629D01*
X59257430Y39510503D01*
X59156837Y39267650D01*
X59095473Y39012051D01*
X59074849Y38750000D01*
X59095473Y38487949D01*
X59156837Y38232350D01*
X59257430Y37989497D01*
X59394775Y37765371D01*
X59565490Y37565490D01*
X59765371Y37394775D01*
X59989497Y37257430D01*
X60232350Y37156837D01*
X60487949Y37095473D01*
X60747425Y37075052D01*
X60747425Y22924948D01*
X60487949Y22904527D01*
X60232350Y22843163D01*
X59989497Y22742570D01*
X59765371Y22605225D01*
X59565490Y22434510D01*
X59394775Y22234629D01*
X59257430Y22010503D01*
X59156837Y21767650D01*
X59095473Y21512051D01*
X59074849Y21250000D01*
X59095473Y20987949D01*
X59156837Y20732350D01*
X59257430Y20489497D01*
X59394775Y20265371D01*
X59565490Y20065490D01*
X59765371Y19894775D01*
X59989497Y19757430D01*
X60232350Y19656837D01*
X60487949Y19595473D01*
X60747425Y19575052D01*
X60747425Y18424948D01*
X60487949Y18404527D01*
X60232350Y18343163D01*
X59989497Y18242570D01*
X59765371Y18105225D01*
X59565490Y17934510D01*
X59394775Y17734629D01*
X59257430Y17510503D01*
X59156837Y17267650D01*
X59095473Y17012051D01*
X59074849Y16750000D01*
X59095473Y16487949D01*
X59156837Y16232350D01*
X59257430Y15989497D01*
X59394775Y15765371D01*
X59565490Y15565490D01*
X59765371Y15394775D01*
X59989497Y15257430D01*
X60232350Y15156837D01*
X60487949Y15095473D01*
X60747425Y15075052D01*
X60747425Y7524121D01*
X60475000Y7706000D01*
X59250000Y7950000D01*
X58025000Y7706000D01*
X57997425Y7687590D01*
X57997425Y24525052D01*
X58000000Y24524849D01*
X58262051Y24545473D01*
X58517650Y24606837D01*
X58760503Y24707430D01*
X58984629Y24844775D01*
X59184510Y25015490D01*
X59355225Y25215371D01*
X59492570Y25439497D01*
X59593163Y25682350D01*
X59654527Y25937949D01*
X59670000Y26200000D01*
X59654527Y26462051D01*
X59593163Y26717650D01*
X59492570Y26960503D01*
X59355225Y27184629D01*
X59184510Y27384510D01*
X58984629Y27555225D01*
X58760503Y27692570D01*
X58517650Y27793163D01*
X58262051Y27854527D01*
X58000000Y27875151D01*
X57997425Y27874948D01*
X57997425Y32125052D01*
X58000000Y32124849D01*
G37*
G36*
X57997425Y1100000D02*
X57997425Y1812410D01*
X58025000Y1794000D01*
X59250000Y1550000D01*
X60475000Y1794000D01*
X60747425Y1975879D01*
X60747425Y1100000D01*
X57997425Y1100000D01*
G37*
G36*
X57737949Y35454527D02*
X57482350Y35393163D01*
X57239497Y35292570D01*
X57015371Y35155225D01*
X56815490Y34984510D01*
X56644775Y34784629D01*
X56507430Y34560503D01*
X56406837Y34317650D01*
X56379114Y34202176D01*
X56208443Y34884862D01*
X56206405Y34900316D01*
X56174193Y35008972D01*
X56167926Y35022104D01*
X56164629Y35032614D01*
X56144306Y35071595D01*
X56125380Y35111250D01*
X56118146Y35121771D01*
X56112236Y35133106D01*
X56086059Y35168436D01*
X56061169Y35204634D01*
X56053433Y35212470D01*
X56044768Y35224164D01*
X55963885Y35303546D01*
X55951192Y35312588D01*
X55498042Y35720423D01*
X55498042Y37639876D01*
X55605225Y37765371D01*
X55742570Y37989497D01*
X55843163Y38232350D01*
X55904527Y38487949D01*
X55920000Y38750000D01*
X55904527Y39012051D01*
X55843163Y39267650D01*
X55742570Y39510503D01*
X55605225Y39734629D01*
X55498042Y39860124D01*
X55498042Y40530000D01*
X56221803Y40530000D01*
X56250000Y40527781D01*
X56362878Y40536664D01*
X56362980Y40536670D01*
X56473179Y40563126D01*
X56577882Y40606496D01*
X56674511Y40665710D01*
X56760688Y40739312D01*
X56779090Y40760858D01*
X56941846Y40923614D01*
X56982350Y40906837D01*
X57237949Y40845473D01*
X57500000Y40824849D01*
X57762051Y40845473D01*
X57997425Y40901981D01*
X57997425Y35474948D01*
X57737949Y35454527D01*
G37*
G36*
X55498042Y1100000D02*
X55498042Y7226237D01*
X55500000Y7226083D01*
X55699285Y7241767D01*
X55893662Y7288433D01*
X56078346Y7364932D01*
X56248790Y7469379D01*
X56400795Y7599205D01*
X56530621Y7751210D01*
X56635068Y7921654D01*
X56711567Y8106338D01*
X56758233Y8300715D01*
X56770000Y8500000D01*
X56758233Y8699285D01*
X56711567Y8893662D01*
X56635068Y9078346D01*
X56530621Y9248790D01*
X56400795Y9400795D01*
X56248790Y9530621D01*
X56078346Y9635068D01*
X55893662Y9711567D01*
X55699285Y9758233D01*
X55500000Y9773917D01*
X55498042Y9773763D01*
X55498042Y15639876D01*
X55605225Y15765371D01*
X55742570Y15989497D01*
X55843163Y16232350D01*
X55904527Y16487949D01*
X55920000Y16750000D01*
X55904527Y17012051D01*
X55843163Y17267650D01*
X55742570Y17510503D01*
X55605225Y17734629D01*
X55498042Y17860124D01*
X55498042Y20139876D01*
X55605225Y20265371D01*
X55742570Y20489497D01*
X55843163Y20732350D01*
X55904527Y20987949D01*
X55920000Y21250000D01*
X55904527Y21512051D01*
X55843163Y21767650D01*
X55742570Y22010503D01*
X55605225Y22234629D01*
X55498042Y22360124D01*
X55498042Y24479810D01*
X55981420Y24963188D01*
X55994984Y24974080D01*
X56071162Y25057987D01*
X56077971Y25068379D01*
X56084289Y25075489D01*
X56108215Y25114533D01*
X56133276Y25152778D01*
X56137774Y25162770D01*
X56143503Y25172119D01*
X56161026Y25214421D01*
X56179797Y25256120D01*
X56182675Y25266686D01*
X56186873Y25276821D01*
X56197563Y25321348D01*
X56209579Y25365466D01*
X56210426Y25374927D01*
X56213329Y25387020D01*
X56222221Y25500000D01*
X56220856Y25517349D01*
X56452796Y33171395D01*
X56507430Y33039497D01*
X56644775Y32815371D01*
X56815490Y32615490D01*
X57015371Y32444775D01*
X57239497Y32307430D01*
X57482350Y32206837D01*
X57737949Y32145473D01*
X57997425Y32125052D01*
X57997425Y27874948D01*
X57737949Y27854527D01*
X57482350Y27793163D01*
X57239497Y27692570D01*
X57015371Y27555225D01*
X56815490Y27384510D01*
X56644775Y27184629D01*
X56507430Y26960503D01*
X56406837Y26717650D01*
X56345473Y26462051D01*
X56324849Y26200000D01*
X56345473Y25937949D01*
X56406837Y25682350D01*
X56507430Y25439497D01*
X56644775Y25215371D01*
X56815490Y25015490D01*
X57015371Y24844775D01*
X57239497Y24707430D01*
X57482350Y24606837D01*
X57737949Y24545473D01*
X57997425Y24525052D01*
X57997425Y7687590D01*
X56987000Y7013000D01*
X56294000Y5975000D01*
X56050000Y4750000D01*
X56294000Y3525000D01*
X56987000Y2487000D01*
X57997425Y1812410D01*
X57997425Y1100000D01*
X55498042Y1100000D01*
G37*
G36*
X55434510Y39934510D02*
X55234629Y40105225D01*
X55010503Y40242570D01*
X54767650Y40343163D01*
X54512051Y40404527D01*
X54250000Y40425151D01*
X53987949Y40404527D01*
X53732350Y40343163D01*
X53489497Y40242570D01*
X53265371Y40105225D01*
X53065490Y39934510D01*
X52894775Y39734629D01*
X52757430Y39510503D01*
X52656837Y39267650D01*
X52595473Y39012051D01*
X52574849Y38750000D01*
X52580450Y38678830D01*
X52565744Y38695382D01*
X52562225Y38699781D01*
X52535507Y38729413D01*
X52509116Y38759117D01*
X52505147Y38763086D01*
X52486439Y38783835D01*
X52477294Y38790939D01*
X50902165Y40366068D01*
X50987949Y40345473D01*
X51250000Y40324849D01*
X51512051Y40345473D01*
X51767650Y40406837D01*
X52010503Y40507430D01*
X52234629Y40644775D01*
X52434510Y40815490D01*
X52514288Y40908898D01*
X53766617Y40567354D01*
X53776822Y40563127D01*
X53887020Y40536671D01*
X53904337Y40535649D01*
X53921310Y40532079D01*
X54034587Y40528608D01*
X54045537Y40530000D01*
X55498042Y40530000D01*
X55498042Y39860124D01*
X55434510Y39934510D01*
G37*
G36*
X53963755Y37101282D02*
X53987949Y37095473D01*
X54250000Y37074849D01*
X54512051Y37095473D01*
X54767650Y37156837D01*
X55010503Y37257430D01*
X55234629Y37394775D01*
X55434510Y37565490D01*
X55498042Y37639876D01*
X55498042Y35720423D01*
X53963755Y37101282D01*
G37*
G36*
X55434510Y22434510D02*
X55234629Y22605225D01*
X55010503Y22742570D01*
X54767650Y22843163D01*
X54512051Y22904527D01*
X54250000Y22925151D01*
X53987949Y22904527D01*
X53902164Y22883932D01*
X55498042Y24479810D01*
X55498042Y22360124D01*
X55434510Y22434510D01*
G37*
G36*
X55434510Y17934510D02*
X55234629Y18105225D01*
X55010503Y18242570D01*
X54767650Y18343163D01*
X54512051Y18404527D01*
X54250000Y18425151D01*
X53987949Y18404527D01*
X53732350Y18343163D01*
X53489497Y18242570D01*
X53265371Y18105225D01*
X53065490Y17934510D01*
X52896343Y17736465D01*
X52944781Y20206821D01*
X53065490Y20065490D01*
X53265371Y19894775D01*
X53489497Y19757430D01*
X53732350Y19656837D01*
X53987949Y19595473D01*
X54250000Y19574849D01*
X54512051Y19595473D01*
X54767650Y19656837D01*
X55010503Y19757430D01*
X55234629Y19894775D01*
X55434510Y20065490D01*
X55498042Y20139876D01*
X55498042Y17860124D01*
X55434510Y17934510D01*
G37*
G36*
X51778001Y33993960D02*
X51864860Y34066367D01*
X51957908Y34130628D01*
X52056382Y34186217D01*
X52159477Y34232679D01*
X52266350Y34269634D01*
X52297396Y34280851D01*
X52326027Y34297369D01*
X52351721Y34318163D01*
X52373846Y34342720D01*
X52391858Y34370437D01*
X52405311Y34400629D01*
X52406752Y34406000D01*
X52833921Y34406000D01*
X52835477Y34400200D01*
X52849012Y34369823D01*
X52867133Y34341938D01*
X52889394Y34317230D01*
X52915245Y34296310D01*
X52944050Y34279691D01*
X52975286Y34268407D01*
X53082522Y34232679D01*
X53185617Y34186217D01*
X53284091Y34130628D01*
X53377139Y34066367D01*
X53463998Y33993960D01*
X53543959Y33913999D01*
X53616366Y33827140D01*
X53680627Y33734092D01*
X53736216Y33635618D01*
X53782678Y33532523D01*
X53819633Y33425650D01*
X53830852Y33394604D01*
X53847370Y33365973D01*
X53868164Y33340279D01*
X53890999Y33319705D01*
X53890999Y32824022D01*
X53867230Y32802607D01*
X53846309Y32776756D01*
X53829690Y32747950D01*
X53818406Y32716714D01*
X53782678Y32609478D01*
X53736216Y32506383D01*
X53680627Y32407909D01*
X53616366Y32314861D01*
X53543959Y32228002D01*
X53463998Y32148041D01*
X53377139Y32075634D01*
X53284091Y32011373D01*
X53185617Y31955784D01*
X53082522Y31909322D01*
X52975649Y31872367D01*
X52944605Y31861148D01*
X52915974Y31844630D01*
X52890280Y31823836D01*
X52868155Y31799279D01*
X52850144Y31771563D01*
X52836690Y31741371D01*
X52828125Y31709446D01*
X52824660Y31676574D01*
X52826380Y31643565D01*
X52833242Y31611231D01*
X52845078Y31580369D01*
X52861596Y31551738D01*
X52882390Y31526044D01*
X52906947Y31503919D01*
X52934663Y31485908D01*
X52964855Y31472454D01*
X52996780Y31463889D01*
X53029652Y31460424D01*
X53062661Y31462144D01*
X53094811Y31469627D01*
X53238224Y31517409D01*
X53376100Y31579546D01*
X53507797Y31653889D01*
X53632235Y31739830D01*
X53748399Y31836665D01*
X53855335Y31943601D01*
X53890999Y31986384D01*
X53890999Y31891375D01*
X51714525Y29714901D01*
X51714525Y31667479D01*
X51734202Y31653889D01*
X51865899Y31579546D01*
X52003775Y31517409D01*
X52146702Y31467986D01*
X52179172Y31460867D01*
X52212383Y31459137D01*
X52245455Y31462623D01*
X52277576Y31471241D01*
X52307952Y31484776D01*
X52335838Y31502898D01*
X52360545Y31525158D01*
X52381466Y31551009D01*
X52398085Y31579815D01*
X52409993Y31610866D01*
X52416897Y31643398D01*
X52418627Y31676609D01*
X52415141Y31709681D01*
X52406523Y31741802D01*
X52392988Y31772178D01*
X52374866Y31800064D01*
X52352606Y31824771D01*
X52326755Y31845692D01*
X52297949Y31862311D01*
X52266713Y31873594D01*
X52159477Y31909322D01*
X52056382Y31955784D01*
X51957908Y32011373D01*
X51864860Y32075634D01*
X51778001Y32148041D01*
X51714525Y32211517D01*
X51714525Y33930484D01*
X51778001Y33993960D01*
G37*
G36*
X51221374Y34406000D02*
X51615308Y34406000D01*
X51609764Y34402171D01*
X51493600Y34305336D01*
X51386664Y34198400D01*
X51289829Y34082236D01*
X51203888Y33957798D01*
X51129545Y33826101D01*
X51067408Y33688225D01*
X51017985Y33545298D01*
X51010868Y33512829D01*
X51009138Y33479618D01*
X51012624Y33446545D01*
X51021241Y33414425D01*
X51034777Y33384048D01*
X51052898Y33356163D01*
X51075159Y33331456D01*
X51101010Y33310535D01*
X51129815Y33293916D01*
X51160866Y33282008D01*
X51193397Y33275104D01*
X51226608Y33273374D01*
X51259681Y33276860D01*
X51291801Y33285477D01*
X51322178Y33299013D01*
X51350063Y33317134D01*
X51374770Y33339395D01*
X51395691Y33365246D01*
X51412310Y33394051D01*
X51423593Y33425287D01*
X51459321Y33532523D01*
X51505783Y33635618D01*
X51561372Y33734092D01*
X51625633Y33827140D01*
X51698040Y33913999D01*
X51714525Y33930484D01*
X51714525Y32211517D01*
X51698040Y32228002D01*
X51625633Y32314861D01*
X51561372Y32407909D01*
X51505783Y32506383D01*
X51459321Y32609478D01*
X51422366Y32716351D01*
X51411149Y32747395D01*
X51394631Y32776026D01*
X51373837Y32801720D01*
X51349280Y32823846D01*
X51321564Y32841857D01*
X51291372Y32855311D01*
X51259447Y32863876D01*
X51226575Y32867341D01*
X51193565Y32865621D01*
X51161231Y32858759D01*
X51130369Y32846923D01*
X51101738Y32830405D01*
X51076044Y32809611D01*
X51053918Y32785054D01*
X51035907Y32757338D01*
X51022453Y32727146D01*
X51013888Y32695221D01*
X51010423Y32662349D01*
X51012143Y32629339D01*
X51019626Y32597189D01*
X51067408Y32453776D01*
X51129545Y32315900D01*
X51203888Y32184203D01*
X51289829Y32059765D01*
X51386664Y31943601D01*
X51493600Y31836665D01*
X51609764Y31739830D01*
X51714525Y31667479D01*
X51714525Y29714901D01*
X48787052Y26787428D01*
X48765219Y26768781D01*
X48690595Y26681407D01*
X48630558Y26583436D01*
X48586586Y26477278D01*
X48559763Y26365550D01*
X48559757Y26365444D01*
X48550750Y26251000D01*
X48552999Y26222423D01*
X48552999Y17186375D01*
X43493762Y12127138D01*
X43493762Y17558368D01*
X43597235Y17629830D01*
X43713399Y17726665D01*
X43820335Y17833601D01*
X43917170Y17949765D01*
X44003111Y18074203D01*
X44077454Y18205900D01*
X44139591Y18343776D01*
X44189014Y18486703D01*
X44196133Y18519171D01*
X44197864Y18552382D01*
X44194377Y18585455D01*
X44185760Y18617575D01*
X44172224Y18647952D01*
X44154103Y18675837D01*
X44131843Y18700544D01*
X44105992Y18721465D01*
X44077186Y18738084D01*
X44046135Y18749993D01*
X44013603Y18756897D01*
X43980392Y18758628D01*
X43947319Y18755141D01*
X43915199Y18746524D01*
X43884822Y18732988D01*
X43856937Y18714867D01*
X43832230Y18692607D01*
X43811309Y18666756D01*
X43794690Y18637950D01*
X43783406Y18606714D01*
X43747678Y18499478D01*
X43701216Y18396383D01*
X43645627Y18297909D01*
X43581366Y18204861D01*
X43508959Y18118002D01*
X43493762Y18102805D01*
X43493762Y19819196D01*
X43508959Y19803999D01*
X43581366Y19717140D01*
X43645627Y19624092D01*
X43701216Y19525618D01*
X43747678Y19422523D01*
X43784633Y19315650D01*
X43795852Y19284604D01*
X43812370Y19255973D01*
X43833164Y19230279D01*
X43857721Y19208154D01*
X43885437Y19190143D01*
X43915630Y19176690D01*
X43947555Y19168125D01*
X43980427Y19164660D01*
X44013436Y19166379D01*
X44045770Y19173242D01*
X44076632Y19185078D01*
X44105263Y19201596D01*
X44130957Y19222390D01*
X44153082Y19246947D01*
X44171093Y19274663D01*
X44184546Y19304856D01*
X44193111Y19336781D01*
X44196576Y19369653D01*
X44194857Y19402662D01*
X44187373Y19434812D01*
X44139591Y19578225D01*
X44077454Y19716101D01*
X44003111Y19847798D01*
X43917170Y19972236D01*
X43820335Y20088400D01*
X43713399Y20195336D01*
X43597235Y20292171D01*
X43493762Y20363633D01*
X43493762Y26678388D01*
X51221374Y34406000D01*
G37*
G36*
X54942647Y30878273D02*
X54788979Y25807213D01*
X51992870Y23011104D01*
X51955233Y22974165D01*
X51932151Y22943012D01*
X51915712Y22924510D01*
X51902658Y22903207D01*
X51887764Y22883106D01*
X51873076Y22854933D01*
X51856498Y22827881D01*
X51846938Y22804800D01*
X51835371Y22782615D01*
X51827953Y22758966D01*
X51813129Y22723178D01*
X51800875Y22672139D01*
X51552252Y21677648D01*
X51539023Y21626943D01*
X51536503Y21594940D01*
X51530568Y21563400D01*
X51530079Y21511092D01*
X51309697Y10271648D01*
X51239497Y10242570D01*
X51015371Y10105225D01*
X50918664Y10022629D01*
X50904527Y10262051D01*
X50843163Y10517650D01*
X50742570Y10760503D01*
X50605225Y10984629D01*
X50434510Y11184510D01*
X50234629Y11355225D01*
X50075762Y11452579D01*
X50075762Y26011388D01*
X54942647Y30878273D01*
G37*
G36*
X50075762Y1100000D02*
X50075762Y2187368D01*
X50179235Y2258830D01*
X50295399Y2355665D01*
X50402335Y2462601D01*
X50499170Y2578765D01*
X50585111Y2703203D01*
X50659454Y2834900D01*
X50721591Y2972776D01*
X50771014Y3115703D01*
X50778133Y3148171D01*
X50779864Y3181382D01*
X50776377Y3214455D01*
X50767760Y3246575D01*
X50754224Y3276952D01*
X50736103Y3304837D01*
X50713843Y3329544D01*
X50687992Y3350465D01*
X50659186Y3367084D01*
X50628135Y3378993D01*
X50595603Y3385897D01*
X50562392Y3387628D01*
X50529319Y3384141D01*
X50497199Y3375524D01*
X50466822Y3361988D01*
X50438937Y3343867D01*
X50414230Y3321607D01*
X50393309Y3295756D01*
X50376690Y3266950D01*
X50365406Y3235714D01*
X50329678Y3128478D01*
X50283216Y3025383D01*
X50227627Y2926909D01*
X50163366Y2833861D01*
X50090959Y2747002D01*
X50075762Y2731805D01*
X50075762Y4448196D01*
X50090959Y4432999D01*
X50163366Y4346140D01*
X50227627Y4253092D01*
X50283216Y4154618D01*
X50329678Y4051523D01*
X50366633Y3944650D01*
X50377852Y3913604D01*
X50394370Y3884973D01*
X50415164Y3859279D01*
X50439721Y3837154D01*
X50467437Y3819143D01*
X50497630Y3805690D01*
X50529555Y3797125D01*
X50562427Y3793660D01*
X50595436Y3795379D01*
X50627770Y3802242D01*
X50658632Y3814078D01*
X50687263Y3830596D01*
X50712957Y3851390D01*
X50735082Y3875947D01*
X50753093Y3903663D01*
X50766546Y3933856D01*
X50775111Y3965781D01*
X50778576Y3998653D01*
X50776857Y4031662D01*
X50769373Y4063812D01*
X50738903Y4155264D01*
X50987949Y4095473D01*
X51250000Y4074849D01*
X51512051Y4095473D01*
X51767650Y4156837D01*
X52010503Y4257430D01*
X52234629Y4394775D01*
X52434510Y4565490D01*
X52605225Y4765371D01*
X52742570Y4989497D01*
X52843163Y5232350D01*
X52904527Y5487949D01*
X52920000Y5750000D01*
X52904527Y6012051D01*
X52843163Y6267650D01*
X52742570Y6510503D01*
X52605225Y6734629D01*
X52434510Y6934510D01*
X52247397Y7094320D01*
X52262051Y7095473D01*
X52517650Y7156837D01*
X52760503Y7257430D01*
X52984629Y7394775D01*
X53184510Y7565490D01*
X53355225Y7765371D01*
X53492570Y7989497D01*
X53593163Y8232350D01*
X53654527Y8487949D01*
X53670000Y8750000D01*
X53654527Y9012051D01*
X53593163Y9267650D01*
X53492570Y9510503D01*
X53355225Y9734629D01*
X53184510Y9934510D01*
X52984629Y10105225D01*
X52760503Y10242570D01*
X52749493Y10247130D01*
X52858844Y15824005D01*
X52894775Y15765371D01*
X53065490Y15565490D01*
X53265371Y15394775D01*
X53489497Y15257430D01*
X53732350Y15156837D01*
X53987949Y15095473D01*
X54250000Y15074849D01*
X54512051Y15095473D01*
X54767650Y15156837D01*
X55010503Y15257430D01*
X55234629Y15394775D01*
X55434510Y15565490D01*
X55498042Y15639876D01*
X55498042Y9773763D01*
X55300715Y9758233D01*
X55106338Y9711567D01*
X54921654Y9635068D01*
X54751210Y9530621D01*
X54599205Y9400795D01*
X54469379Y9248790D01*
X54364932Y9078346D01*
X54288433Y8893662D01*
X54241767Y8699285D01*
X54226083Y8500000D01*
X54241767Y8300715D01*
X54288433Y8106338D01*
X54364932Y7921654D01*
X54469379Y7751210D01*
X54599205Y7599205D01*
X54751210Y7469379D01*
X54921654Y7364932D01*
X55106338Y7288433D01*
X55300715Y7241767D01*
X55498042Y7226237D01*
X55498042Y1100000D01*
X50075762Y1100000D01*
G37*
G36*
X49778945Y16347571D02*
X49800780Y16366220D01*
X49875404Y16453593D01*
X49935441Y16551565D01*
X49979413Y16657722D01*
X50006236Y16769451D01*
X50015252Y16884000D01*
X50013000Y16912612D01*
X50013000Y25948626D01*
X50075762Y26011388D01*
X50075762Y11452579D01*
X50010503Y11492570D01*
X49767650Y11593163D01*
X49512051Y11654527D01*
X49250000Y11675151D01*
X48987949Y11654527D01*
X48732350Y11593163D01*
X48489497Y11492570D01*
X48265371Y11355225D01*
X48260240Y11350843D01*
X48260240Y14828866D01*
X49778945Y16347571D01*
G37*
G36*
X48260240Y1100000D02*
X48260240Y2187366D01*
X48281202Y2172889D01*
X48412899Y2098546D01*
X48550775Y2036409D01*
X48693702Y1986986D01*
X48726172Y1979867D01*
X48759383Y1978137D01*
X48792455Y1981623D01*
X48824576Y1990241D01*
X48854952Y2003776D01*
X48882838Y2021898D01*
X48907545Y2044158D01*
X48928466Y2070009D01*
X48945085Y2098815D01*
X48956993Y2129866D01*
X48963897Y2162398D01*
X48965627Y2195609D01*
X48962141Y2228681D01*
X48953523Y2260802D01*
X48939988Y2291178D01*
X48921866Y2319064D01*
X48899606Y2343771D01*
X48873755Y2364692D01*
X48844949Y2381311D01*
X48813713Y2392594D01*
X48706477Y2428322D01*
X48603382Y2474784D01*
X48504908Y2530373D01*
X48411860Y2594634D01*
X48325001Y2667041D01*
X48260240Y2731802D01*
X48260240Y4448199D01*
X48325001Y4512960D01*
X48411860Y4585367D01*
X48504908Y4649628D01*
X48603382Y4705217D01*
X48706477Y4751679D01*
X48813350Y4788634D01*
X48844396Y4799851D01*
X48873027Y4816369D01*
X48898721Y4837163D01*
X48920846Y4861720D01*
X48938858Y4889437D01*
X48952311Y4919629D01*
X48960876Y4951554D01*
X48964341Y4984426D01*
X48962622Y5017436D01*
X48955759Y5049770D01*
X48943923Y5080632D01*
X48927405Y5109263D01*
X48906611Y5134957D01*
X48882054Y5157082D01*
X48854337Y5175094D01*
X48824145Y5188547D01*
X48792220Y5197112D01*
X48759348Y5200577D01*
X48726338Y5198858D01*
X48694188Y5191374D01*
X48550775Y5143592D01*
X48412899Y5081455D01*
X48281202Y5007112D01*
X48260240Y4992635D01*
X48260240Y8649157D01*
X48265371Y8644775D01*
X48489497Y8507430D01*
X48732350Y8406837D01*
X48968508Y8350140D01*
X49686596Y6339494D01*
X49656837Y6267650D01*
X49595473Y6012051D01*
X49574849Y5750000D01*
X49595473Y5487949D01*
X49656837Y5232350D01*
X49678285Y5180571D01*
X49642297Y5193015D01*
X49609830Y5200132D01*
X49576619Y5201863D01*
X49543546Y5198376D01*
X49511426Y5189759D01*
X49481049Y5176224D01*
X49453164Y5158103D01*
X49428456Y5135842D01*
X49407536Y5109991D01*
X49390917Y5081186D01*
X49379008Y5050135D01*
X49372104Y5017604D01*
X49370373Y4984393D01*
X49373860Y4951320D01*
X49382477Y4919200D01*
X49396012Y4888823D01*
X49414133Y4860938D01*
X49436394Y4836230D01*
X49462245Y4815310D01*
X49491050Y4798691D01*
X49522286Y4787407D01*
X49629522Y4751679D01*
X49732617Y4705217D01*
X49831091Y4649628D01*
X49924139Y4585367D01*
X50010998Y4512960D01*
X50075762Y4448196D01*
X50075762Y2731805D01*
X50010998Y2667041D01*
X49924139Y2594634D01*
X49831091Y2530373D01*
X49732617Y2474784D01*
X49629522Y2428322D01*
X49522649Y2391367D01*
X49491605Y2380148D01*
X49462974Y2363630D01*
X49437280Y2342836D01*
X49415155Y2318279D01*
X49397144Y2290563D01*
X49383690Y2260371D01*
X49375125Y2228446D01*
X49371660Y2195574D01*
X49373380Y2162565D01*
X49380242Y2130231D01*
X49392078Y2099369D01*
X49408596Y2070738D01*
X49429390Y2045044D01*
X49453947Y2022919D01*
X49481663Y2004908D01*
X49511855Y1991454D01*
X49543780Y1982889D01*
X49576652Y1979424D01*
X49609661Y1981144D01*
X49641811Y1988627D01*
X49785224Y2036409D01*
X49923100Y2098546D01*
X50054797Y2172889D01*
X50075762Y2187368D01*
X50075762Y1100000D01*
X48260240Y1100000D01*
G37*
G36*
X43493762Y1100000D02*
X43493762Y10062388D01*
X48260240Y14828866D01*
X48260240Y11350843D01*
X48065490Y11184510D01*
X47894775Y10984629D01*
X47757430Y10760503D01*
X47656837Y10517650D01*
X47595473Y10262051D01*
X47574849Y10000000D01*
X47595473Y9737949D01*
X47656837Y9482350D01*
X47757430Y9239497D01*
X47894775Y9015371D01*
X48065490Y8815490D01*
X48260240Y8649157D01*
X48260240Y4992635D01*
X48156764Y4921171D01*
X48040600Y4824336D01*
X47933664Y4717400D01*
X47836829Y4601236D01*
X47750888Y4476798D01*
X47676545Y4345101D01*
X47614408Y4207225D01*
X47564985Y4064298D01*
X47557868Y4031829D01*
X47556138Y3998618D01*
X47559624Y3965545D01*
X47568241Y3933425D01*
X47581777Y3903048D01*
X47599898Y3875163D01*
X47622159Y3850456D01*
X47648010Y3829535D01*
X47676815Y3812916D01*
X47707866Y3801008D01*
X47740397Y3794104D01*
X47773608Y3792374D01*
X47806681Y3795860D01*
X47838801Y3804477D01*
X47869178Y3818013D01*
X47897063Y3836134D01*
X47921770Y3858395D01*
X47942691Y3884246D01*
X47959310Y3913051D01*
X47970593Y3944287D01*
X48006321Y4051523D01*
X48052783Y4154618D01*
X48108372Y4253092D01*
X48172633Y4346140D01*
X48245040Y4432999D01*
X48260240Y4448199D01*
X48260240Y2731802D01*
X48245040Y2747002D01*
X48172633Y2833861D01*
X48108372Y2926909D01*
X48052783Y3025383D01*
X48006321Y3128478D01*
X47969366Y3235351D01*
X47958149Y3266395D01*
X47941631Y3295026D01*
X47920837Y3320720D01*
X47896280Y3342846D01*
X47868564Y3360857D01*
X47838372Y3374311D01*
X47806447Y3382876D01*
X47773575Y3386341D01*
X47740565Y3384621D01*
X47708231Y3377759D01*
X47677369Y3365923D01*
X47648738Y3349405D01*
X47623044Y3328611D01*
X47600918Y3304054D01*
X47582907Y3276338D01*
X47569453Y3246146D01*
X47560888Y3214221D01*
X47557423Y3181349D01*
X47559143Y3148339D01*
X47566626Y3116189D01*
X47614408Y2972776D01*
X47676545Y2834900D01*
X47750888Y2703203D01*
X47836829Y2578765D01*
X47933664Y2462601D01*
X48040600Y2355665D01*
X48156764Y2258830D01*
X48260240Y2187366D01*
X48260240Y1100000D01*
X43493762Y1100000D01*
G37*
G36*
X41743001Y19883960D02*
X41829860Y19956367D01*
X41922908Y20020628D01*
X42021382Y20076217D01*
X42124477Y20122679D01*
X42231350Y20159634D01*
X42262396Y20170851D01*
X42291027Y20187369D01*
X42316721Y20208163D01*
X42338846Y20232720D01*
X42356858Y20260437D01*
X42370311Y20290629D01*
X42378876Y20322554D01*
X42382341Y20355426D01*
X42380622Y20388436D01*
X42373759Y20420770D01*
X42361923Y20451632D01*
X42345405Y20480263D01*
X42324611Y20505957D01*
X42300054Y20528082D01*
X42272337Y20546094D01*
X42242145Y20559547D01*
X42210220Y20568112D01*
X42177348Y20571577D01*
X42144338Y20569858D01*
X42112188Y20562374D01*
X41968775Y20514592D01*
X41830899Y20452455D01*
X41788868Y20428729D01*
X41804000Y20685000D01*
X41788527Y20947051D01*
X41727163Y21202650D01*
X41679525Y21317658D01*
X41679525Y21675349D01*
X41910650Y21730837D01*
X42153503Y21831430D01*
X42377629Y21968775D01*
X42577510Y22139490D01*
X42748225Y22339371D01*
X42885570Y22563497D01*
X42986163Y22806350D01*
X43047527Y23061949D01*
X43063000Y23324000D01*
X43047527Y23586051D01*
X42986163Y23841650D01*
X42885570Y24084503D01*
X42748225Y24308629D01*
X42577510Y24508510D01*
X42377629Y24679225D01*
X42153503Y24816570D01*
X42122999Y24829205D01*
X42122999Y25307625D01*
X43493762Y26678388D01*
X43493762Y20363633D01*
X43472797Y20378112D01*
X43341100Y20452455D01*
X43203224Y20514592D01*
X43060297Y20564015D01*
X43027830Y20571132D01*
X42994619Y20572863D01*
X42961546Y20569376D01*
X42929426Y20560759D01*
X42899049Y20547224D01*
X42871164Y20529103D01*
X42846456Y20506842D01*
X42825536Y20480991D01*
X42808917Y20452186D01*
X42797008Y20421135D01*
X42790104Y20388604D01*
X42788373Y20355393D01*
X42791860Y20322320D01*
X42800477Y20290200D01*
X42814012Y20259823D01*
X42832133Y20231938D01*
X42854394Y20207230D01*
X42880245Y20186310D01*
X42909050Y20169691D01*
X42940286Y20158407D01*
X43047522Y20122679D01*
X43150617Y20076217D01*
X43249091Y20020628D01*
X43342139Y19956367D01*
X43428998Y19883960D01*
X43493762Y19819196D01*
X43493762Y18102805D01*
X43428998Y18038041D01*
X43342139Y17965634D01*
X43249091Y17901373D01*
X43150617Y17845784D01*
X43047522Y17799322D01*
X42940649Y17762367D01*
X42909605Y17751148D01*
X42880974Y17734630D01*
X42855280Y17713836D01*
X42833155Y17689279D01*
X42815144Y17661563D01*
X42801690Y17631371D01*
X42793125Y17599446D01*
X42789660Y17566574D01*
X42791380Y17533565D01*
X42798242Y17501231D01*
X42810078Y17470369D01*
X42826596Y17441738D01*
X42847390Y17416044D01*
X42871947Y17393919D01*
X42899663Y17375908D01*
X42929855Y17362454D01*
X42961780Y17353889D01*
X42994652Y17350424D01*
X43027661Y17352144D01*
X43059811Y17359627D01*
X43203224Y17407409D01*
X43341100Y17469546D01*
X43472797Y17543889D01*
X43493762Y17558368D01*
X43493762Y12127138D01*
X41679525Y10312901D01*
X41679525Y17557479D01*
X41699202Y17543889D01*
X41830899Y17469546D01*
X41968775Y17407409D01*
X42111702Y17357986D01*
X42144172Y17350867D01*
X42177383Y17349137D01*
X42210455Y17352623D01*
X42242576Y17361241D01*
X42272952Y17374776D01*
X42300838Y17392898D01*
X42325545Y17415158D01*
X42346466Y17441009D01*
X42363085Y17469815D01*
X42374993Y17500866D01*
X42381897Y17533398D01*
X42383627Y17566609D01*
X42380141Y17599681D01*
X42371523Y17631802D01*
X42357988Y17662178D01*
X42339866Y17690064D01*
X42317606Y17714771D01*
X42291755Y17735692D01*
X42262949Y17752311D01*
X42231713Y17763594D01*
X42124477Y17799322D01*
X42021382Y17845784D01*
X41922908Y17901373D01*
X41829860Y17965634D01*
X41743001Y18038041D01*
X41679525Y18101517D01*
X41679525Y19820484D01*
X41743001Y19883960D01*
G37*
G36*
X41679525Y1100000D02*
X41679525Y6966653D01*
X41746629Y7007775D01*
X41946510Y7178490D01*
X42117225Y7378371D01*
X42254570Y7602497D01*
X42355163Y7845350D01*
X42416527Y8100949D01*
X42432000Y8363000D01*
X42416527Y8625051D01*
X42355163Y8880650D01*
X42342528Y8911154D01*
X43493762Y10062388D01*
X43493762Y1100000D01*
X41679525Y1100000D01*
G37*
G36*
X41626570Y21445503D02*
X41496946Y21657030D01*
X41655051Y21669473D01*
X41679525Y21675349D01*
X41679525Y21317658D01*
X41626570Y21445503D01*
G37*
G36*
X33057425Y1100000D02*
X33057425Y3306049D01*
X33080468Y3320170D01*
X33328225Y3531775D01*
X33539830Y3779532D01*
X33710072Y4057341D01*
X33834759Y4358362D01*
X33910821Y4675182D01*
X33930000Y5000000D01*
X33910821Y5324818D01*
X33834759Y5641638D01*
X33710072Y5942659D01*
X33539830Y6220468D01*
X33328225Y6468225D01*
X33080468Y6679830D01*
X33057425Y6693951D01*
X33057425Y12211121D01*
X33315000Y12190849D01*
X33577051Y12211473D01*
X33832650Y12272837D01*
X34075503Y12373430D01*
X34299629Y12510775D01*
X34499510Y12681490D01*
X34670225Y12881371D01*
X34807570Y13105497D01*
X34908163Y13348350D01*
X34969527Y13603949D01*
X34985000Y13866000D01*
X34975647Y14024397D01*
X35206350Y13928837D01*
X35461949Y13867473D01*
X35724000Y13846849D01*
X35986051Y13867473D01*
X36241650Y13928837D01*
X36484503Y14029430D01*
X36708629Y14166775D01*
X36908510Y14337490D01*
X37079225Y14537371D01*
X37216570Y14761497D01*
X37317163Y15004350D01*
X37378527Y15259949D01*
X37394000Y15522000D01*
X37378527Y15784051D01*
X37317163Y16039650D01*
X37216570Y16282503D01*
X37079225Y16506629D01*
X36908510Y16706510D01*
X36708629Y16877225D01*
X36484503Y17014570D01*
X36241650Y17115163D01*
X35986051Y17176527D01*
X35724000Y17197151D01*
X35461949Y17176527D01*
X35206350Y17115163D01*
X35175847Y17102528D01*
X33247434Y19030941D01*
X33228781Y19052781D01*
X33141407Y19127405D01*
X33057425Y19178869D01*
X33057425Y27875001D01*
X34693492Y27875001D01*
X36082505Y26485133D01*
X36101220Y26463220D01*
X36187794Y26389278D01*
X36188412Y26388729D01*
X36188501Y26388674D01*
X36188593Y26388596D01*
X36240357Y26356875D01*
X36286365Y26328662D01*
X36286464Y26328621D01*
X36286565Y26328559D01*
X36342967Y26305196D01*
X36392508Y26284658D01*
X36392609Y26284634D01*
X36392722Y26284587D01*
X36451892Y26270382D01*
X36504229Y26257800D01*
X36504337Y26257791D01*
X36504451Y26257764D01*
X36505375Y26257709D01*
X36618775Y26248749D01*
X36647490Y26251000D01*
X38400795Y26251000D01*
X38413430Y26220497D01*
X38550775Y25996371D01*
X38721490Y25796490D01*
X38921371Y25625775D01*
X39145497Y25488430D01*
X39388350Y25387837D01*
X39643949Y25326473D01*
X39906000Y25305849D01*
X40168051Y25326473D01*
X40423650Y25387837D01*
X40663000Y25486979D01*
X40663000Y24829205D01*
X40632497Y24816570D01*
X40408371Y24679225D01*
X40208490Y24508510D01*
X40037775Y24308629D01*
X39900430Y24084503D01*
X39799837Y23841650D01*
X39738473Y23586051D01*
X39717849Y23324000D01*
X39738473Y23061949D01*
X39799837Y22806350D01*
X39900430Y22563497D01*
X40030054Y22351970D01*
X39871949Y22339527D01*
X39616350Y22278163D01*
X39373497Y22177570D01*
X39149371Y22040225D01*
X39124853Y22019285D01*
X39137000Y22225000D01*
X39121527Y22487051D01*
X39060163Y22742650D01*
X38959570Y22985503D01*
X38822225Y23209629D01*
X38651510Y23409510D01*
X38451629Y23580225D01*
X38227503Y23717570D01*
X37984650Y23818163D01*
X37729051Y23879527D01*
X37467000Y23900151D01*
X37204949Y23879527D01*
X36949350Y23818163D01*
X36706497Y23717570D01*
X36482371Y23580225D01*
X36282490Y23409510D01*
X36111775Y23209629D01*
X35974430Y22985503D01*
X35873837Y22742650D01*
X35812473Y22487051D01*
X35791849Y22225000D01*
X35812473Y21962949D01*
X35873837Y21707350D01*
X35974430Y21464497D01*
X36111775Y21240371D01*
X36282490Y21040490D01*
X36482371Y20869775D01*
X36706497Y20732430D01*
X36949350Y20631837D01*
X37204949Y20570473D01*
X37467000Y20549849D01*
X37729051Y20570473D01*
X37984650Y20631837D01*
X38227503Y20732430D01*
X38451629Y20869775D01*
X38474959Y20889701D01*
X38458849Y20685000D01*
X38479473Y20422949D01*
X38540837Y20167350D01*
X38641430Y19924497D01*
X38778775Y19700371D01*
X38949490Y19500490D01*
X39149371Y19329775D01*
X39373497Y19192430D01*
X39616350Y19091837D01*
X39871949Y19030473D01*
X40134000Y19009849D01*
X40396051Y19030473D01*
X40651650Y19091837D01*
X40894503Y19192430D01*
X41007727Y19261814D01*
X41017898Y19246163D01*
X41040159Y19221456D01*
X41066010Y19200535D01*
X41094815Y19183916D01*
X41125866Y19172008D01*
X41158397Y19165104D01*
X41191608Y19163374D01*
X41224681Y19166860D01*
X41256801Y19175477D01*
X41287178Y19189013D01*
X41315063Y19207134D01*
X41339770Y19229395D01*
X41360691Y19255246D01*
X41377310Y19284051D01*
X41388593Y19315287D01*
X41424321Y19422523D01*
X41470783Y19525618D01*
X41526372Y19624092D01*
X41590633Y19717140D01*
X41663040Y19803999D01*
X41679525Y19820484D01*
X41679525Y18101517D01*
X41663040Y18118002D01*
X41590633Y18204861D01*
X41526372Y18297909D01*
X41470783Y18396383D01*
X41424321Y18499478D01*
X41387366Y18606351D01*
X41376149Y18637395D01*
X41359631Y18666026D01*
X41338837Y18691720D01*
X41314280Y18713846D01*
X41286564Y18731857D01*
X41256372Y18745311D01*
X41224447Y18753876D01*
X41191575Y18757341D01*
X41158565Y18755621D01*
X41126231Y18748759D01*
X41095369Y18736923D01*
X41066738Y18720405D01*
X41041044Y18699611D01*
X41018918Y18675054D01*
X41000907Y18647338D01*
X40987453Y18617146D01*
X40978888Y18585221D01*
X40975423Y18552349D01*
X40977143Y18519339D01*
X40984626Y18487189D01*
X41032408Y18343776D01*
X41094545Y18205900D01*
X41168888Y18074203D01*
X41254829Y17949765D01*
X41351664Y17833601D01*
X41458600Y17726665D01*
X41574764Y17629830D01*
X41679525Y17557479D01*
X41679525Y10312901D01*
X41310152Y9943528D01*
X41279650Y9956163D01*
X41024051Y10017527D01*
X40762000Y10038151D01*
X40499949Y10017527D01*
X40244350Y9956163D01*
X40001497Y9855570D01*
X39777371Y9718225D01*
X39577490Y9547510D01*
X39406775Y9347629D01*
X39269430Y9123503D01*
X39168837Y8880650D01*
X39107473Y8625051D01*
X39086849Y8363000D01*
X39107473Y8100949D01*
X39168837Y7845350D01*
X39269430Y7602497D01*
X39406775Y7378371D01*
X39577490Y7178490D01*
X39777371Y7007775D01*
X40001497Y6870430D01*
X40244350Y6769837D01*
X40499949Y6708473D01*
X40762000Y6687849D01*
X41024051Y6708473D01*
X41279650Y6769837D01*
X41522503Y6870430D01*
X41679525Y6966653D01*
X41679525Y1100000D01*
X33057425Y1100000D01*
G37*
G36*
X33043436Y19187442D02*
X32937278Y19231414D01*
X32825550Y19258237D01*
X32825499Y19258240D01*
X32711001Y19267251D01*
X32682411Y19265001D01*
X24549762Y19265001D01*
X24549762Y25199368D01*
X24653235Y25270830D01*
X24769399Y25367665D01*
X24876335Y25474601D01*
X24973170Y25590765D01*
X25059111Y25715203D01*
X25133454Y25846900D01*
X25195591Y25984776D01*
X25245014Y26127703D01*
X25252133Y26160171D01*
X25253864Y26193382D01*
X25250377Y26226455D01*
X25241760Y26258575D01*
X25228224Y26288952D01*
X25210103Y26316837D01*
X25187843Y26341544D01*
X25161992Y26362465D01*
X25133186Y26379084D01*
X25102135Y26390993D01*
X25069603Y26397897D01*
X25036392Y26399628D01*
X25003319Y26396141D01*
X24971199Y26387524D01*
X24940822Y26373988D01*
X24912937Y26355867D01*
X24888230Y26333607D01*
X24867309Y26307756D01*
X24850690Y26278950D01*
X24839406Y26247714D01*
X24803678Y26140478D01*
X24757216Y26037383D01*
X24701627Y25938909D01*
X24637366Y25845861D01*
X24564959Y25759002D01*
X24549762Y25743805D01*
X24549762Y27460196D01*
X24564959Y27444999D01*
X24637366Y27358140D01*
X24701627Y27265092D01*
X24757216Y27166618D01*
X24803678Y27063523D01*
X24840633Y26956650D01*
X24851852Y26925604D01*
X24868370Y26896973D01*
X24889164Y26871279D01*
X24913721Y26849154D01*
X24941437Y26831143D01*
X24971630Y26817690D01*
X25003555Y26809125D01*
X25036427Y26805660D01*
X25069436Y26807379D01*
X25101770Y26814242D01*
X25132632Y26826078D01*
X25161263Y26842596D01*
X25186957Y26863390D01*
X25209082Y26887947D01*
X25227093Y26915663D01*
X25240546Y26945856D01*
X25249111Y26977781D01*
X25252576Y27010653D01*
X25250857Y27043662D01*
X25243373Y27075812D01*
X25195591Y27219225D01*
X25133454Y27357101D01*
X25059111Y27488798D01*
X24973170Y27613236D01*
X24876335Y27729400D01*
X24769399Y27836336D01*
X24723016Y27875001D01*
X33057425Y27875001D01*
X33057425Y19178869D01*
X33043436Y19187442D01*
G37*
G36*
X22735525Y19265001D02*
X22735525Y25198479D01*
X22755202Y25184889D01*
X22886899Y25110546D01*
X23024775Y25048409D01*
X23167702Y24998986D01*
X23200172Y24991867D01*
X23233383Y24990137D01*
X23266455Y24993623D01*
X23298576Y25002241D01*
X23328952Y25015776D01*
X23356838Y25033898D01*
X23381545Y25056158D01*
X23402466Y25082009D01*
X23419085Y25110815D01*
X23430993Y25141866D01*
X23437897Y25174398D01*
X23439627Y25207609D01*
X23436141Y25240681D01*
X23427523Y25272802D01*
X23413988Y25303178D01*
X23395866Y25331064D01*
X23373606Y25355771D01*
X23347755Y25376692D01*
X23318949Y25393311D01*
X23287713Y25404594D01*
X23180477Y25440322D01*
X23077382Y25486784D01*
X22978908Y25542373D01*
X22885860Y25606634D01*
X22799001Y25679041D01*
X22735525Y25742517D01*
X22735525Y27461484D01*
X22799001Y27524960D01*
X22885860Y27597367D01*
X22978908Y27661628D01*
X23077382Y27717217D01*
X23180477Y27763679D01*
X23287350Y27800634D01*
X23318396Y27811851D01*
X23347027Y27828369D01*
X23372721Y27849163D01*
X23394846Y27873720D01*
X23395678Y27875001D01*
X23886792Y27875001D01*
X23888133Y27872938D01*
X23910394Y27848230D01*
X23936245Y27827310D01*
X23965050Y27810691D01*
X23996286Y27799407D01*
X24103522Y27763679D01*
X24206617Y27717217D01*
X24305091Y27661628D01*
X24398139Y27597367D01*
X24484998Y27524960D01*
X24549762Y27460196D01*
X24549762Y25743805D01*
X24484998Y25679041D01*
X24398139Y25606634D01*
X24305091Y25542373D01*
X24206617Y25486784D01*
X24103522Y25440322D01*
X23996649Y25403367D01*
X23965605Y25392148D01*
X23936974Y25375630D01*
X23911280Y25354836D01*
X23889155Y25330279D01*
X23871144Y25302563D01*
X23857690Y25272371D01*
X23849125Y25240446D01*
X23845660Y25207574D01*
X23847380Y25174565D01*
X23854242Y25142231D01*
X23866078Y25111369D01*
X23882596Y25082738D01*
X23903390Y25057044D01*
X23927947Y25034919D01*
X23955663Y25016908D01*
X23985855Y25003454D01*
X24017780Y24994889D01*
X24050652Y24991424D01*
X24083661Y24993144D01*
X24115811Y25000627D01*
X24259224Y25048409D01*
X24397100Y25110546D01*
X24528797Y25184889D01*
X24549762Y25199368D01*
X24549762Y19265001D01*
X22735525Y19265001D01*
G37*
G36*
X10873491Y19265001D02*
X10706510Y19460510D01*
X10506629Y19631225D01*
X10282503Y19768570D01*
X10039650Y19869163D01*
X9784051Y19930527D01*
X9522000Y19951151D01*
X9364475Y19938753D01*
X9459163Y20167350D01*
X9520527Y20422949D01*
X9536000Y20685000D01*
X9523853Y20890715D01*
X9548371Y20869775D01*
X9772497Y20732430D01*
X10015350Y20631837D01*
X10270949Y20570473D01*
X10533000Y20549849D01*
X10795051Y20570473D01*
X11050650Y20631837D01*
X11293503Y20732430D01*
X11517629Y20869775D01*
X11717510Y21040490D01*
X11888225Y21240371D01*
X12025570Y21464497D01*
X12126163Y21707350D01*
X12187527Y21962949D01*
X12203000Y22225000D01*
X12187527Y22487051D01*
X12126163Y22742650D01*
X12025570Y22985503D01*
X11888225Y23209629D01*
X11717510Y23409510D01*
X11517629Y23580225D01*
X11293503Y23717570D01*
X11050650Y23818163D01*
X10795051Y23879527D01*
X10533000Y23900151D01*
X10270949Y23879527D01*
X10015350Y23818163D01*
X9772497Y23717570D01*
X9548371Y23580225D01*
X9348490Y23409510D01*
X9177775Y23209629D01*
X9040430Y22985503D01*
X8939837Y22742650D01*
X8878473Y22487051D01*
X8857849Y22225000D01*
X8873959Y22020299D01*
X8850629Y22040225D01*
X8626503Y22177570D01*
X8383650Y22278163D01*
X8128051Y22339527D01*
X7866000Y22360151D01*
X7603949Y22339527D01*
X7348350Y22278163D01*
X7194919Y22214610D01*
X15748376Y30768754D01*
X15737849Y30635000D01*
X15758473Y30372949D01*
X15819837Y30117350D01*
X15920430Y29874497D01*
X16057775Y29650371D01*
X16228490Y29450490D01*
X16428371Y29279775D01*
X16652497Y29142430D01*
X16838582Y29065351D01*
X16807371Y29046225D01*
X16607490Y28875510D01*
X16436775Y28675629D01*
X16299430Y28451503D01*
X16198837Y28208650D01*
X16137473Y27953051D01*
X16116849Y27691000D01*
X16137473Y27428949D01*
X16198837Y27173350D01*
X16299430Y26930497D01*
X16436775Y26706371D01*
X16607490Y26506490D01*
X16807371Y26335775D01*
X17031497Y26198430D01*
X17274350Y26097837D01*
X17529949Y26036473D01*
X17792000Y26015849D01*
X18054051Y26036473D01*
X18309650Y26097837D01*
X18552503Y26198430D01*
X18776629Y26335775D01*
X18976510Y26506490D01*
X19147225Y26706371D01*
X19284570Y26930497D01*
X19385163Y27173350D01*
X19446527Y27428949D01*
X19462000Y27691000D01*
X19451136Y27875001D01*
X22560983Y27875001D01*
X22514600Y27836336D01*
X22407664Y27729400D01*
X22310829Y27613236D01*
X22224888Y27488798D01*
X22150545Y27357101D01*
X22088408Y27219225D01*
X22038985Y27076298D01*
X22031868Y27043829D01*
X22030138Y27010618D01*
X22033624Y26977545D01*
X22042241Y26945425D01*
X22055777Y26915048D01*
X22073898Y26887163D01*
X22096159Y26862456D01*
X22122010Y26841535D01*
X22150815Y26824916D01*
X22181866Y26813008D01*
X22214397Y26806104D01*
X22247608Y26804374D01*
X22280681Y26807860D01*
X22312801Y26816477D01*
X22343178Y26830013D01*
X22371063Y26848134D01*
X22395770Y26870395D01*
X22416691Y26896246D01*
X22433310Y26925051D01*
X22444593Y26956287D01*
X22480321Y27063523D01*
X22526783Y27166618D01*
X22582372Y27265092D01*
X22646633Y27358140D01*
X22719040Y27444999D01*
X22735525Y27461484D01*
X22735525Y25742517D01*
X22719040Y25759002D01*
X22646633Y25845861D01*
X22582372Y25938909D01*
X22526783Y26037383D01*
X22480321Y26140478D01*
X22443366Y26247351D01*
X22432149Y26278395D01*
X22415631Y26307026D01*
X22394837Y26332720D01*
X22370280Y26354846D01*
X22342564Y26372857D01*
X22312372Y26386311D01*
X22280447Y26394876D01*
X22247575Y26398341D01*
X22214565Y26396621D01*
X22182231Y26389759D01*
X22151369Y26377923D01*
X22122738Y26361405D01*
X22097044Y26340611D01*
X22074918Y26316054D01*
X22056907Y26288338D01*
X22043453Y26258146D01*
X22034888Y26226221D01*
X22031423Y26193349D01*
X22033143Y26160339D01*
X22040626Y26128189D01*
X22088408Y25984776D01*
X22150545Y25846900D01*
X22224888Y25715203D01*
X22310829Y25590765D01*
X22407664Y25474601D01*
X22514600Y25367665D01*
X22630764Y25270830D01*
X22735525Y25198479D01*
X22735525Y19265001D01*
X10873491Y19265001D01*
G37*
G36*
X32077527Y8572051D02*
X32016163Y8827650D01*
X31915570Y9070503D01*
X31778225Y9294629D01*
X31607510Y9494510D01*
X31407629Y9665225D01*
X31183503Y9802570D01*
X30940650Y9903163D01*
X30685051Y9964527D01*
X30423000Y9985151D01*
X30160949Y9964527D01*
X29905350Y9903163D01*
X29662497Y9802570D01*
X29438371Y9665225D01*
X29238490Y9494510D01*
X29067775Y9294629D01*
X28930430Y9070503D01*
X28917795Y9040000D01*
X23997425Y9040000D01*
X23997425Y9695052D01*
X24000000Y9694849D01*
X24262051Y9715473D01*
X24517650Y9776837D01*
X24760503Y9877430D01*
X24984629Y10014775D01*
X25184510Y10185490D01*
X25355225Y10385371D01*
X25492570Y10609497D01*
X25593163Y10852350D01*
X25654527Y11107949D01*
X25670000Y11370000D01*
X25654527Y11632051D01*
X25593163Y11887650D01*
X25492570Y12130503D01*
X25355225Y12354629D01*
X25184510Y12554510D01*
X24984629Y12725225D01*
X24760503Y12862570D01*
X24645997Y12910000D01*
X24760503Y12957430D01*
X24984629Y13094775D01*
X25184510Y13265490D01*
X25355225Y13465371D01*
X25492570Y13689497D01*
X25593163Y13932350D01*
X25654527Y14187949D01*
X25670000Y14450000D01*
X25654527Y14712051D01*
X25593163Y14967650D01*
X25492570Y15210503D01*
X25355225Y15434629D01*
X25184510Y15634510D01*
X24984629Y15805225D01*
X24760503Y15942570D01*
X24517650Y16043163D01*
X24262051Y16104527D01*
X24000000Y16125151D01*
X23997425Y16124948D01*
X23997425Y17805000D01*
X30692927Y17805000D01*
X30590490Y17717510D01*
X30419775Y17517629D01*
X30282430Y17293503D01*
X30181837Y17050650D01*
X30120473Y16795051D01*
X30099849Y16533000D01*
X30120473Y16270949D01*
X30181837Y16015350D01*
X30282430Y15772497D01*
X30419775Y15548371D01*
X30590490Y15348490D01*
X30790371Y15177775D01*
X31014497Y15040430D01*
X31257350Y14939837D01*
X31512949Y14878473D01*
X31775000Y14857849D01*
X31979701Y14873959D01*
X31959775Y14850629D01*
X31822430Y14626503D01*
X31721837Y14383650D01*
X31660473Y14128051D01*
X31639849Y13866000D01*
X31660473Y13603949D01*
X31721837Y13348350D01*
X31822430Y13105497D01*
X31959775Y12881371D01*
X32130490Y12681490D01*
X32330371Y12510775D01*
X32554497Y12373430D01*
X32797350Y12272837D01*
X33052949Y12211473D01*
X33057425Y12211121D01*
X33057425Y6693951D01*
X32802659Y6850072D01*
X32501638Y6974759D01*
X32184818Y7050821D01*
X31860000Y7076384D01*
X31535182Y7050821D01*
X31514181Y7045779D01*
X31607510Y7125490D01*
X31778225Y7325371D01*
X31915570Y7549497D01*
X32016163Y7792350D01*
X32077527Y8047949D01*
X32093000Y8310000D01*
X32077527Y8572051D01*
G37*
G36*
X16952375Y9040000D02*
X9380380Y16611995D01*
X9522000Y16600849D01*
X9784051Y16621473D01*
X10039650Y16682837D01*
X10282503Y16783430D01*
X10506629Y16920775D01*
X10706510Y17091490D01*
X10877225Y17291371D01*
X11014570Y17515497D01*
X11115163Y17758350D01*
X11126363Y17805000D01*
X15142927Y17805000D01*
X15040490Y17717510D01*
X14869775Y17517629D01*
X14732430Y17293503D01*
X14631837Y17050650D01*
X14570473Y16795051D01*
X14549849Y16533000D01*
X14570473Y16270949D01*
X14631837Y16015350D01*
X14732430Y15772497D01*
X14869775Y15548371D01*
X14889701Y15525041D01*
X14685000Y15541151D01*
X14422949Y15520527D01*
X14167350Y15459163D01*
X13924497Y15358570D01*
X13700371Y15221225D01*
X13500490Y15050510D01*
X13329775Y14850629D01*
X13192430Y14626503D01*
X13091837Y14383650D01*
X13030473Y14128051D01*
X13009849Y13866000D01*
X13030473Y13603949D01*
X13091837Y13348350D01*
X13192430Y13105497D01*
X13329775Y12881371D01*
X13500490Y12681490D01*
X13700371Y12510775D01*
X13924497Y12373430D01*
X14167350Y12272837D01*
X14422949Y12211473D01*
X14685000Y12190849D01*
X14947051Y12211473D01*
X15202650Y12272837D01*
X15445503Y12373430D01*
X15669629Y12510775D01*
X15869510Y12681490D01*
X16040225Y12881371D01*
X16177570Y13105497D01*
X16278163Y13348350D01*
X16339527Y13603949D01*
X16355000Y13866000D01*
X16339527Y14128051D01*
X16278163Y14383650D01*
X16177570Y14626503D01*
X16040225Y14850629D01*
X16020299Y14873959D01*
X16225000Y14857849D01*
X16487051Y14878473D01*
X16742650Y14939837D01*
X16985503Y15040430D01*
X17209629Y15177775D01*
X17409510Y15348490D01*
X17580225Y15548371D01*
X17717570Y15772497D01*
X17818163Y16015350D01*
X17879527Y16270949D01*
X17895000Y16533000D01*
X17879527Y16795051D01*
X17818163Y17050650D01*
X17717570Y17293503D01*
X17580225Y17517629D01*
X17409510Y17717510D01*
X17307073Y17805000D01*
X23997425Y17805000D01*
X23997425Y16124948D01*
X23737949Y16104527D01*
X23482350Y16043163D01*
X23239497Y15942570D01*
X23015371Y15805225D01*
X22815490Y15634510D01*
X22644775Y15434629D01*
X22507430Y15210503D01*
X22406837Y14967650D01*
X22345473Y14712051D01*
X22324849Y14450000D01*
X22345473Y14187949D01*
X22406837Y13932350D01*
X22507430Y13689497D01*
X22644775Y13465371D01*
X22815490Y13265490D01*
X23015371Y13094775D01*
X23239497Y12957430D01*
X23354003Y12910000D01*
X23239497Y12862570D01*
X23015371Y12725225D01*
X22815490Y12554510D01*
X22644775Y12354629D01*
X22507430Y12130503D01*
X22406837Y11887650D01*
X22345473Y11632051D01*
X22324849Y11370000D01*
X22345473Y11107949D01*
X22406837Y10852350D01*
X22507430Y10609497D01*
X22644775Y10385371D01*
X22815490Y10185490D01*
X23015371Y10014775D01*
X23239497Y9877430D01*
X23482350Y9776837D01*
X23737949Y9715473D01*
X23997425Y9695052D01*
X23997425Y9040000D01*
X16952375Y9040000D01*
G37*
G36*
X33057425Y52900000D02*
X33057425Y49591978D01*
X30704464Y50190914D01*
X30677149Y50200159D01*
X30570175Y50218442D01*
X30566476Y50219154D01*
X30565966Y50219161D01*
X30565439Y50219251D01*
X30507846Y50219953D01*
X30453157Y50220699D01*
X30452655Y50220626D01*
X30452117Y50220633D01*
X30395042Y50212305D01*
X30340991Y50204498D01*
X30340505Y50204347D01*
X30339975Y50204270D01*
X30336227Y50203021D01*
X30232741Y50170950D01*
X30206908Y50158228D01*
X29033330Y49688797D01*
X29031434Y49688355D01*
X28926442Y49645689D01*
X28899557Y49629461D01*
X28880177Y49620349D01*
X28855418Y49602818D01*
X28829418Y49587124D01*
X28809222Y49570108D01*
X28787686Y49554859D01*
X28765973Y49533669D01*
X28742749Y49514102D01*
X28729037Y49497623D01*
X28706579Y49475706D01*
X28638853Y49384839D01*
X28637953Y49383124D01*
X25657495Y45338217D01*
X25670000Y45550000D01*
X25654527Y45812051D01*
X25593163Y46067650D01*
X25492570Y46310503D01*
X25355225Y46534629D01*
X25184510Y46734510D01*
X24984629Y46905225D01*
X24760503Y47042570D01*
X24645997Y47090000D01*
X24760503Y47137430D01*
X24984629Y47274775D01*
X25184510Y47445490D01*
X25355225Y47645371D01*
X25492570Y47869497D01*
X25593163Y48112350D01*
X25654527Y48367949D01*
X25670000Y48630000D01*
X25654527Y48892051D01*
X25593163Y49147650D01*
X25492570Y49390503D01*
X25355225Y49614629D01*
X25184510Y49814510D01*
X24984629Y49985225D01*
X24760503Y50122570D01*
X24517650Y50223163D01*
X24262051Y50284527D01*
X24000000Y50305151D01*
X23737949Y50284527D01*
X23482350Y50223163D01*
X23239497Y50122570D01*
X23015371Y49985225D01*
X22815490Y49814510D01*
X22644775Y49614629D01*
X22507430Y49390503D01*
X22406837Y49147650D01*
X22345473Y48892051D01*
X22324849Y48630000D01*
X22345473Y48367949D01*
X22406837Y48112350D01*
X22507430Y47869497D01*
X22644775Y47645371D01*
X22815490Y47445490D01*
X23015371Y47274775D01*
X23239497Y47137430D01*
X23354003Y47090000D01*
X23239497Y47042570D01*
X23015371Y46905225D01*
X22815490Y46734510D01*
X22644775Y46534629D01*
X22507430Y46310503D01*
X22406837Y46067650D01*
X22345473Y45812051D01*
X22324849Y45550000D01*
X22345473Y45287949D01*
X22406837Y45032350D01*
X22507430Y44789497D01*
X22644775Y44565371D01*
X22815490Y44365490D01*
X23015371Y44194775D01*
X23239497Y44057430D01*
X23482350Y43956837D01*
X23737949Y43895473D01*
X24000000Y43874849D01*
X24262051Y43895473D01*
X24413630Y43931864D01*
X15452425Y34970659D01*
X15452425Y41981828D01*
X15464497Y41974430D01*
X15707350Y41873837D01*
X15962949Y41812473D01*
X16225000Y41791849D01*
X16487051Y41812473D01*
X16742650Y41873837D01*
X16985503Y41974430D01*
X17209629Y42111775D01*
X17409510Y42282490D01*
X17580225Y42482371D01*
X17717570Y42706497D01*
X17818163Y42949350D01*
X17879527Y43204949D01*
X17895000Y43467000D01*
X17879527Y43729051D01*
X17818163Y43984650D01*
X17717570Y44227503D01*
X17580225Y44451629D01*
X17409510Y44651510D01*
X17209629Y44822225D01*
X16985503Y44959570D01*
X16742650Y45060163D01*
X16487051Y45121527D01*
X16225000Y45142151D01*
X16020299Y45126041D01*
X16040225Y45149371D01*
X16177570Y45373497D01*
X16278163Y45616350D01*
X16339527Y45871949D01*
X16355000Y46134000D01*
X16339527Y46396051D01*
X16278163Y46651650D01*
X16177570Y46894503D01*
X16040225Y47118629D01*
X15869510Y47318510D01*
X15669629Y47489225D01*
X15452425Y47622328D01*
X15452425Y52900000D01*
X33057425Y52900000D01*
G37*
G36*
X15452425Y52900000D02*
X15452425Y47622328D01*
X15445503Y47626570D01*
X15202650Y47727163D01*
X14947051Y47788527D01*
X14685000Y47809151D01*
X14422949Y47788527D01*
X14167350Y47727163D01*
X13924497Y47626570D01*
X13700371Y47489225D01*
X13500490Y47318510D01*
X13329775Y47118629D01*
X13192430Y46894503D01*
X13091837Y46651650D01*
X13030473Y46396051D01*
X13009849Y46134000D01*
X13030473Y45871949D01*
X13091837Y45616350D01*
X13192430Y45373497D01*
X13329775Y45149371D01*
X13500490Y44949490D01*
X13700371Y44778775D01*
X13924497Y44641430D01*
X14167350Y44540837D01*
X14422949Y44479473D01*
X14685000Y44458849D01*
X14889701Y44474959D01*
X14869775Y44451629D01*
X14732430Y44227503D01*
X14631837Y43984650D01*
X14570473Y43729051D01*
X14549849Y43467000D01*
X14570473Y43204949D01*
X14631837Y42949350D01*
X14732430Y42706497D01*
X14869775Y42482371D01*
X15040490Y42282490D01*
X15240371Y42111775D01*
X15452425Y41981828D01*
X15452425Y34970659D01*
X11009048Y30527282D01*
X10104864Y29743656D01*
X10120000Y30000000D01*
X10104527Y30262051D01*
X10043163Y30517650D01*
X9942570Y30760503D01*
X9805225Y30984629D01*
X9634510Y31184510D01*
X9434629Y31355225D01*
X9210503Y31492570D01*
X9196925Y31498194D01*
X9196925Y36767949D01*
X9348490Y36590490D01*
X9548371Y36419775D01*
X9772497Y36282430D01*
X10015350Y36181837D01*
X10270949Y36120473D01*
X10533000Y36099849D01*
X10795051Y36120473D01*
X11050650Y36181837D01*
X11293503Y36282430D01*
X11517629Y36419775D01*
X11717510Y36590490D01*
X11888225Y36790371D01*
X12025570Y37014497D01*
X12126163Y37257350D01*
X12187527Y37512949D01*
X12203000Y37775000D01*
X12187527Y38037051D01*
X12126163Y38292650D01*
X12025570Y38535503D01*
X11888225Y38759629D01*
X11717510Y38959510D01*
X11517629Y39130225D01*
X11293503Y39267570D01*
X11050650Y39368163D01*
X10795051Y39429527D01*
X10533000Y39450151D01*
X10270949Y39429527D01*
X10015350Y39368163D01*
X9772497Y39267570D01*
X9548371Y39130225D01*
X9523853Y39109285D01*
X9536000Y39315000D01*
X9520527Y39577051D01*
X9459163Y39832650D01*
X9358570Y40075503D01*
X9221225Y40299629D01*
X9196925Y40328081D01*
X9196925Y44437596D01*
X9248790Y44469379D01*
X9400795Y44599205D01*
X9530621Y44751210D01*
X9635068Y44921654D01*
X9711567Y45106338D01*
X9758233Y45300715D01*
X9770000Y45500000D01*
X9758233Y45699285D01*
X9711567Y45893662D01*
X9635068Y46078346D01*
X9530621Y46248790D01*
X9400795Y46400795D01*
X9248790Y46530621D01*
X9196925Y46562404D01*
X9196925Y52900000D01*
X15452425Y52900000D01*
G37*
G36*
X26996808Y1100000D02*
X26996808Y2923867D01*
X27000000Y2923616D01*
X27324818Y2949179D01*
X27641638Y3025241D01*
X27942659Y3149928D01*
X28220468Y3320170D01*
X28468225Y3531775D01*
X28679830Y3779532D01*
X28850072Y4057341D01*
X28974759Y4358362D01*
X29050821Y4675182D01*
X29070000Y5000000D01*
X29050821Y5324818D01*
X28974759Y5641638D01*
X28850072Y5942659D01*
X28679830Y6220468D01*
X28468225Y6468225D01*
X28220468Y6679830D01*
X27942659Y6850072D01*
X27641638Y6974759D01*
X27324818Y7050821D01*
X27000000Y7076384D01*
X26996808Y7076133D01*
X26996808Y7580001D01*
X28917795Y7580001D01*
X28930430Y7549497D01*
X29067775Y7325371D01*
X29238490Y7125490D01*
X29438371Y6954775D01*
X29662497Y6817430D01*
X29905350Y6716837D01*
X30160949Y6655473D01*
X30423000Y6634849D01*
X30603499Y6649055D01*
X30391775Y6468225D01*
X30180170Y6220468D01*
X30009928Y5942659D01*
X29885241Y5641638D01*
X29809179Y5324818D01*
X29783616Y5000000D01*
X29809179Y4675182D01*
X29885241Y4358362D01*
X30009928Y4057341D01*
X30180170Y3779532D01*
X30391775Y3531775D01*
X30639532Y3320170D01*
X30917341Y3149928D01*
X31218362Y3025241D01*
X31535182Y2949179D01*
X31860000Y2923616D01*
X32184818Y2949179D01*
X32501638Y3025241D01*
X32802659Y3149928D01*
X33057425Y3306049D01*
X33057425Y1100000D01*
X26996808Y1100000D01*
G37*
G36*
X22136808Y1100000D02*
X22136808Y2923867D01*
X22140000Y2923616D01*
X22464818Y2949179D01*
X22781638Y3025241D01*
X23082659Y3149928D01*
X23360468Y3320170D01*
X23608225Y3531775D01*
X23819830Y3779532D01*
X23990072Y4057341D01*
X24114759Y4358362D01*
X24190821Y4675182D01*
X24210000Y5000000D01*
X24190821Y5324818D01*
X24114759Y5641638D01*
X23990072Y5942659D01*
X23819830Y6220468D01*
X23608225Y6468225D01*
X23360468Y6679830D01*
X23082659Y6850072D01*
X22781638Y6974759D01*
X22464818Y7050821D01*
X22140000Y7076384D01*
X22136808Y7076133D01*
X22136808Y7580001D01*
X26996808Y7580001D01*
X26996808Y7076133D01*
X26675182Y7050821D01*
X26358362Y6974759D01*
X26057341Y6850072D01*
X25779532Y6679830D01*
X25531775Y6468225D01*
X25320170Y6220468D01*
X25149928Y5942659D01*
X25025241Y5641638D01*
X24949179Y5324818D01*
X24923616Y5000000D01*
X24949179Y4675182D01*
X25025241Y4358362D01*
X25149928Y4057341D01*
X25320170Y3779532D01*
X25531775Y3531775D01*
X25779532Y3320170D01*
X26057341Y3149928D01*
X26358362Y3025241D01*
X26675182Y2949179D01*
X26996808Y2923867D01*
X26996808Y1100000D01*
X22136808Y1100000D01*
G37*
G36*
X15996577Y1100000D02*
X15996577Y1773422D01*
X16000000Y1773153D01*
X16348356Y1800569D01*
X16688134Y1882143D01*
X17010967Y2015865D01*
X17308908Y2198443D01*
X17574619Y2425381D01*
X17801557Y2691092D01*
X17984135Y2989033D01*
X18117857Y3311866D01*
X18199431Y3651644D01*
X18220000Y4000000D01*
X18199431Y4348356D01*
X18117857Y4688134D01*
X17984135Y5010967D01*
X17801557Y5308908D01*
X17574619Y5574619D01*
X17308908Y5801557D01*
X17010967Y5984135D01*
X16688134Y6117857D01*
X16348356Y6199431D01*
X16000000Y6226847D01*
X15996577Y6226578D01*
X15996577Y7931048D01*
X16113590Y7814035D01*
X16132221Y7792221D01*
X16219565Y7717622D01*
X16219594Y7717596D01*
X16317566Y7657559D01*
X16379751Y7631802D01*
X16423722Y7613588D01*
X16445353Y7608395D01*
X16535451Y7586764D01*
X16650001Y7577749D01*
X16678616Y7580001D01*
X22136808Y7580001D01*
X22136808Y7076133D01*
X21815182Y7050821D01*
X21498362Y6974759D01*
X21197341Y6850072D01*
X20919532Y6679830D01*
X20671775Y6468225D01*
X20460170Y6220468D01*
X20289928Y5942659D01*
X20165241Y5641638D01*
X20089179Y5324818D01*
X20063616Y5000000D01*
X20089179Y4675182D01*
X20165241Y4358362D01*
X20289928Y4057341D01*
X20460170Y3779532D01*
X20671775Y3531775D01*
X20919532Y3320170D01*
X21197341Y3149928D01*
X21498362Y3025241D01*
X21815182Y2949179D01*
X22136808Y2923867D01*
X22136808Y1100000D01*
X15996577Y1100000D01*
G37*
G36*
X11192503Y1100000D02*
X11192503Y2125213D01*
X11349028Y2234153D01*
X11500123Y2360572D01*
X11639428Y2499877D01*
X11765847Y2650972D01*
X11878387Y2812670D01*
X11976164Y2983700D01*
X12058409Y3162717D01*
X12124476Y3348315D01*
X12173845Y3539035D01*
X12178417Y3572036D01*
X12177528Y3605357D01*
X12171438Y3638129D01*
X12160296Y3669545D01*
X12144376Y3698831D01*
X12124071Y3725266D01*
X12099881Y3748199D01*
X12072401Y3767066D01*
X12042309Y3781401D01*
X12010343Y3790853D01*
X11977293Y3795188D01*
X11943972Y3794299D01*
X11911200Y3788209D01*
X11879784Y3777067D01*
X11850498Y3761147D01*
X11824063Y3740842D01*
X11801130Y3716652D01*
X11782263Y3689172D01*
X11767928Y3659080D01*
X11759115Y3626979D01*
X11720856Y3472126D01*
X11667341Y3321789D01*
X11600722Y3176782D01*
X11521521Y3038245D01*
X11430361Y2907268D01*
X11327960Y2784879D01*
X11215121Y2672040D01*
X11192503Y2653116D01*
X11192503Y5346885D01*
X11215121Y5327961D01*
X11327960Y5215122D01*
X11430361Y5092733D01*
X11521521Y4961756D01*
X11600722Y4823219D01*
X11667341Y4678212D01*
X11720856Y4527875D01*
X11760846Y4373389D01*
X11769589Y4341556D01*
X11783805Y4311715D01*
X11802514Y4284466D01*
X11825255Y4260478D01*
X11851469Y4240344D01*
X11880510Y4224558D01*
X11911662Y4213509D01*
X11944160Y4207470D01*
X11977202Y4206589D01*
X12009975Y4210887D01*
X12041673Y4220260D01*
X12071514Y4234476D01*
X12098763Y4253185D01*
X12122751Y4275926D01*
X12142885Y4302140D01*
X12158671Y4331181D01*
X12169720Y4362333D01*
X12175759Y4394831D01*
X12176640Y4427873D01*
X12171708Y4460512D01*
X12124476Y4651686D01*
X12058409Y4837284D01*
X11976164Y5016301D01*
X11878387Y5187331D01*
X11765847Y5349029D01*
X11639428Y5500124D01*
X11500123Y5639429D01*
X11349028Y5765848D01*
X11192503Y5874788D01*
X11192503Y12735122D01*
X15996577Y7931048D01*
X15996577Y6226578D01*
X15651644Y6199431D01*
X15311866Y6117857D01*
X14989033Y5984135D01*
X14691092Y5801557D01*
X14425381Y5574619D01*
X14198443Y5308908D01*
X14015865Y5010967D01*
X13882143Y4688134D01*
X13800569Y4348356D01*
X13773153Y4000000D01*
X13800569Y3651644D01*
X13882143Y3311866D01*
X14015865Y2989033D01*
X14198443Y2691092D01*
X14425381Y2425381D01*
X14691092Y2198443D01*
X14989033Y2015865D01*
X15311866Y1882143D01*
X15651644Y1800569D01*
X15996577Y1773422D01*
X15996577Y1100000D01*
X11192503Y1100000D01*
G37*
G36*
X9196925Y1100000D02*
X9196925Y1929414D01*
X9348314Y1875524D01*
X9539034Y1826155D01*
X9572037Y1821583D01*
X9605358Y1822472D01*
X9638130Y1828563D01*
X9669545Y1839705D01*
X9698831Y1855625D01*
X9725266Y1875929D01*
X9748199Y1900120D01*
X9767066Y1927599D01*
X9781401Y1957692D01*
X9790853Y1989658D01*
X9795188Y2022708D01*
X9794299Y2056029D01*
X9788208Y2088801D01*
X9777066Y2120216D01*
X9761146Y2149502D01*
X9740842Y2175937D01*
X9716651Y2198870D01*
X9689172Y2217737D01*
X9659079Y2232072D01*
X9626978Y2240885D01*
X9472125Y2279144D01*
X9321788Y2332659D01*
X9196925Y2390023D01*
X9196925Y5609978D01*
X9321788Y5667342D01*
X9472125Y5720857D01*
X9626611Y5760847D01*
X9658444Y5769588D01*
X9688285Y5783804D01*
X9715535Y5802513D01*
X9739522Y5825254D01*
X9759657Y5851468D01*
X9775443Y5880509D01*
X9786492Y5911662D01*
X9792531Y5944160D01*
X9793412Y5977202D01*
X9789114Y6009975D01*
X9779741Y6041673D01*
X9765525Y6071514D01*
X9746816Y6098764D01*
X9724075Y6122751D01*
X9697861Y6142886D01*
X9668820Y6158672D01*
X9637667Y6169721D01*
X9605169Y6175760D01*
X9572127Y6176641D01*
X9539488Y6171709D01*
X9348314Y6124477D01*
X9196925Y6070587D01*
X9196925Y7437596D01*
X9248790Y7469379D01*
X9400795Y7599205D01*
X9530621Y7751210D01*
X9635068Y7921654D01*
X9711567Y8106338D01*
X9758233Y8300715D01*
X9770000Y8500000D01*
X9758233Y8699285D01*
X9711567Y8893662D01*
X9635068Y9078346D01*
X9530621Y9248790D01*
X9400795Y9400795D01*
X9248790Y9530621D01*
X9196925Y9562404D01*
X9196925Y14730700D01*
X11192503Y12735122D01*
X11192503Y5874788D01*
X11187330Y5878388D01*
X11016300Y5976165D01*
X10837283Y6058410D01*
X10651685Y6124477D01*
X10460965Y6173846D01*
X10427965Y6178416D01*
X10394643Y6177527D01*
X10361872Y6171437D01*
X10330456Y6160295D01*
X10301170Y6144375D01*
X10274735Y6124071D01*
X10251802Y6099881D01*
X10232935Y6072401D01*
X10218600Y6042308D01*
X10209148Y6010343D01*
X10204813Y5977294D01*
X10205702Y5943972D01*
X10211792Y5911201D01*
X10222934Y5879785D01*
X10238854Y5850499D01*
X10259158Y5824064D01*
X10283348Y5801131D01*
X10310828Y5782264D01*
X10340921Y5767929D01*
X10373021Y5759116D01*
X10527874Y5720857D01*
X10678211Y5667342D01*
X10823218Y5600723D01*
X10961755Y5521522D01*
X11092732Y5430362D01*
X11192503Y5346885D01*
X11192503Y2653116D01*
X11092732Y2569639D01*
X10961755Y2478479D01*
X10823218Y2399278D01*
X10678211Y2332659D01*
X10527874Y2279144D01*
X10373388Y2239154D01*
X10341557Y2230411D01*
X10311716Y2216196D01*
X10284467Y2197487D01*
X10260479Y2174746D01*
X10240344Y2148532D01*
X10224558Y2119491D01*
X10213510Y2088339D01*
X10207470Y2055841D01*
X10206589Y2022799D01*
X10210887Y1990026D01*
X10220260Y1958328D01*
X10234475Y1928487D01*
X10253184Y1901238D01*
X10275925Y1877250D01*
X10302139Y1857115D01*
X10331180Y1841329D01*
X10362332Y1830281D01*
X10394830Y1824241D01*
X10427872Y1823360D01*
X10460511Y1828292D01*
X10651685Y1875524D01*
X10837283Y1941591D01*
X11016300Y2023836D01*
X11187330Y2121613D01*
X11192503Y2125213D01*
X11192503Y1100000D01*
X9196925Y1100000D01*
G37*
G36*
X4852350Y28406837D02*
X5107949Y28345473D01*
X5370000Y28324849D01*
X5632051Y28345473D01*
X5887650Y28406837D01*
X6130503Y28507430D01*
X6354629Y28644775D01*
X6554510Y28815490D01*
X6725225Y29015371D01*
X6862570Y29239497D01*
X6910000Y29354003D01*
X6957430Y29239497D01*
X7094775Y29015371D01*
X7265490Y28815490D01*
X7465371Y28644775D01*
X7689497Y28507430D01*
X7920539Y28411729D01*
X7750000Y28425151D01*
X7487949Y28404527D01*
X7232350Y28343163D01*
X6989497Y28242570D01*
X6765371Y28105225D01*
X6565490Y27934510D01*
X6394775Y27734629D01*
X6257430Y27510503D01*
X6156837Y27267650D01*
X6095473Y27012051D01*
X6074849Y26750000D01*
X6095473Y26487949D01*
X6156837Y26232350D01*
X6257430Y25989497D01*
X6394775Y25765371D01*
X6565490Y25565490D01*
X6765371Y25394775D01*
X6989497Y25257430D01*
X7232350Y25156837D01*
X7487949Y25095473D01*
X7750000Y25074849D01*
X8010782Y25095373D01*
X5365034Y22449413D01*
X5343219Y22430781D01*
X5268595Y22343407D01*
X5268581Y22343384D01*
X5268580Y22343383D01*
X5264340Y22336463D01*
X5208558Y22245436D01*
X5208549Y22245413D01*
X5208546Y22245409D01*
X5198886Y22222084D01*
X5164586Y22139278D01*
X5164580Y22139252D01*
X5164579Y22139250D01*
X5161676Y22127154D01*
X5137763Y22027550D01*
X5137762Y22027528D01*
X5137760Y22027521D01*
X5128749Y21912971D01*
X5130999Y21884397D01*
X5130999Y19127591D01*
X5128749Y19099001D01*
X5137764Y18984451D01*
X5164587Y18872722D01*
X5208559Y18766565D01*
X5268596Y18668593D01*
X5343220Y18581220D01*
X5365048Y18562577D01*
X9196925Y14730700D01*
X9196925Y9562404D01*
X9078346Y9635068D01*
X8893662Y9711567D01*
X8699285Y9758233D01*
X8500000Y9773917D01*
X8300715Y9758233D01*
X8106338Y9711567D01*
X7921654Y9635068D01*
X7751210Y9530621D01*
X7599205Y9400795D01*
X7469379Y9248790D01*
X7364932Y9078346D01*
X7288433Y8893662D01*
X7241767Y8699285D01*
X7226083Y8500000D01*
X7241767Y8300715D01*
X7288433Y8106338D01*
X7364932Y7921654D01*
X7469379Y7751210D01*
X7599205Y7599205D01*
X7751210Y7469379D01*
X7921654Y7364932D01*
X8106338Y7288433D01*
X8300715Y7241767D01*
X8500000Y7226083D01*
X8699285Y7241767D01*
X8893662Y7288433D01*
X9078346Y7364932D01*
X9196925Y7437596D01*
X9196925Y6070587D01*
X9162716Y6058410D01*
X8983699Y5976165D01*
X8812669Y5878388D01*
X8650971Y5765848D01*
X8499876Y5639429D01*
X8360571Y5500124D01*
X8234152Y5349029D01*
X8121612Y5187331D01*
X8023835Y5016301D01*
X7941590Y4837284D01*
X7935835Y4821116D01*
X7706000Y5975000D01*
X7013000Y7013000D01*
X5975000Y7706000D01*
X4750000Y7950000D01*
X4750000Y28449232D01*
X4852350Y28406837D01*
G37*
G36*
X9196925Y52900000D02*
X9196925Y46562404D01*
X9078346Y46635068D01*
X8893662Y46711567D01*
X8699285Y46758233D01*
X8500000Y46773917D01*
X8300715Y46758233D01*
X8106338Y46711567D01*
X7921654Y46635068D01*
X7751210Y46530621D01*
X7599205Y46400795D01*
X7469379Y46248790D01*
X7364932Y46078346D01*
X7288433Y45893662D01*
X7241767Y45699285D01*
X7226083Y45500000D01*
X7241767Y45300715D01*
X7288433Y45106338D01*
X7364932Y44921654D01*
X7469379Y44751210D01*
X7599205Y44599205D01*
X7751210Y44469379D01*
X7921654Y44364932D01*
X8106338Y44288433D01*
X8300715Y44241767D01*
X8500000Y44226083D01*
X8699285Y44241767D01*
X8893662Y44288433D01*
X9078346Y44364932D01*
X9196925Y44437596D01*
X9196925Y40328081D01*
X9050510Y40499510D01*
X8850629Y40670225D01*
X8626503Y40807570D01*
X8383650Y40908163D01*
X8128051Y40969527D01*
X7866000Y40990151D01*
X7603949Y40969527D01*
X7348350Y40908163D01*
X7105497Y40807570D01*
X6881371Y40670225D01*
X6681490Y40499510D01*
X6510775Y40299629D01*
X6373430Y40075503D01*
X6272837Y39832650D01*
X6211473Y39577051D01*
X6190849Y39315000D01*
X6211473Y39052949D01*
X6272837Y38797350D01*
X6373430Y38554497D01*
X6510775Y38330371D01*
X6681490Y38130490D01*
X6881371Y37959775D01*
X7105497Y37822430D01*
X7348350Y37721837D01*
X7603949Y37660473D01*
X7866000Y37639849D01*
X8128051Y37660473D01*
X8383650Y37721837D01*
X8626503Y37822430D01*
X8850629Y37959775D01*
X8873959Y37979701D01*
X8857849Y37775000D01*
X8878473Y37512949D01*
X8939837Y37257350D01*
X9040430Y37014497D01*
X9177775Y36790371D01*
X9196925Y36767949D01*
X9196925Y31498194D01*
X8967650Y31593163D01*
X8712051Y31654527D01*
X8450000Y31675151D01*
X8187949Y31654527D01*
X7932350Y31593163D01*
X7689497Y31492570D01*
X7465371Y31355225D01*
X7265490Y31184510D01*
X7094775Y30984629D01*
X6957430Y30760503D01*
X6910000Y30645997D01*
X6862570Y30760503D01*
X6725225Y30984629D01*
X6554510Y31184510D01*
X6354629Y31355225D01*
X6130503Y31492570D01*
X5887650Y31593163D01*
X5632051Y31654527D01*
X5370000Y31675151D01*
X5107949Y31654527D01*
X4852350Y31593163D01*
X4750000Y31550768D01*
X4750000Y46050000D01*
X5975000Y46294000D01*
X7013000Y46987000D01*
X7706000Y48025000D01*
X7950000Y49250000D01*
X7706000Y50475000D01*
X7013000Y51513000D01*
X5975000Y52206000D01*
X4750000Y52450000D01*
X4750000Y52900000D01*
X9196925Y52900000D01*
G37*
G36*
X4750000Y1100000D02*
X4750000Y1550000D01*
X5975000Y1794000D01*
X7013000Y2487000D01*
X7706000Y3525000D01*
X7859576Y4296026D01*
X7875930Y4274735D01*
X7900120Y4251802D01*
X7927600Y4232935D01*
X7957693Y4218599D01*
X7989658Y4209148D01*
X8022707Y4204813D01*
X8056028Y4205702D01*
X8088800Y4211793D01*
X8120216Y4222935D01*
X8149502Y4238854D01*
X8175936Y4259159D01*
X8198869Y4283349D01*
X8217736Y4310829D01*
X8232072Y4340922D01*
X8240884Y4373022D01*
X8279143Y4527875D01*
X8332658Y4678212D01*
X8399277Y4823219D01*
X8478478Y4961756D01*
X8569638Y5092733D01*
X8672039Y5215122D01*
X8784878Y5327961D01*
X8907267Y5430362D01*
X9038244Y5521522D01*
X9176781Y5600723D01*
X9196925Y5609978D01*
X9196925Y2390023D01*
X9176781Y2399278D01*
X9038244Y2478479D01*
X8907267Y2569639D01*
X8784878Y2672040D01*
X8672039Y2784879D01*
X8569638Y2907268D01*
X8478478Y3038245D01*
X8399277Y3176782D01*
X8332658Y3321789D01*
X8279143Y3472126D01*
X8239153Y3626612D01*
X8230412Y3658443D01*
X8216197Y3688284D01*
X8197488Y3715534D01*
X8174746Y3739521D01*
X8148533Y3759656D01*
X8119492Y3775442D01*
X8088339Y3786491D01*
X8055841Y3792531D01*
X8022799Y3793412D01*
X7990026Y3789114D01*
X7958328Y3779741D01*
X7928487Y3765526D01*
X7901237Y3746817D01*
X7877250Y3724075D01*
X7857115Y3697862D01*
X7841329Y3668821D01*
X7830280Y3637668D01*
X7824240Y3605170D01*
X7823359Y3572128D01*
X7828291Y3539489D01*
X7875523Y3348315D01*
X7941590Y3162717D01*
X8023835Y2983700D01*
X8121612Y2812670D01*
X8234152Y2650972D01*
X8360571Y2499877D01*
X8499876Y2360572D01*
X8650971Y2234153D01*
X8812669Y2121613D01*
X8983699Y2023836D01*
X9162716Y1941591D01*
X9196925Y1929414D01*
X9196925Y1100000D01*
X4750000Y1100000D01*
G37*
G36*
X2000000Y1100000D02*
X1883000Y1108000D01*
X1767000Y1131000D01*
X1656000Y1169000D01*
X1550000Y1221000D01*
X1452000Y1286000D01*
X1364000Y1364000D01*
X1286000Y1452000D01*
X1221000Y1550000D01*
X1169000Y1656000D01*
X1131000Y1767000D01*
X1108000Y1883000D01*
X1100000Y2000000D01*
X1100000Y52000000D01*
X1108000Y52117000D01*
X1131000Y52233000D01*
X1169000Y52344000D01*
X1221000Y52450000D01*
X1286000Y52548000D01*
X1364000Y52636000D01*
X1452000Y52714000D01*
X1550000Y52779000D01*
X1656000Y52831000D01*
X1767000Y52869000D01*
X1883000Y52892000D01*
X2000000Y52900000D01*
X4750000Y52900000D01*
X4750000Y52450000D01*
X3525000Y52206000D01*
X2487000Y51513000D01*
X1794000Y50475000D01*
X1550000Y49250000D01*
X1794000Y48025000D01*
X2487000Y46987000D01*
X3525000Y46294000D01*
X4750000Y46050000D01*
X4750000Y31550768D01*
X4609497Y31492570D01*
X4385371Y31355225D01*
X4185490Y31184510D01*
X4014775Y30984629D01*
X3877430Y30760503D01*
X3776837Y30517650D01*
X3715473Y30262051D01*
X3694849Y30000000D01*
X3715473Y29737949D01*
X3776837Y29482350D01*
X3877430Y29239497D01*
X4014775Y29015371D01*
X4185490Y28815490D01*
X4385371Y28644775D01*
X4609497Y28507430D01*
X4750000Y28449232D01*
X4750000Y7950000D01*
X3525000Y7706000D01*
X2487000Y7013000D01*
X1794000Y5975000D01*
X1550000Y4750000D01*
X1794000Y3525000D01*
X2487000Y2487000D01*
X3525000Y1794000D01*
X4750000Y1550000D01*
X4750000Y1100000D01*
X2000000Y1100000D01*
G37*
G54D12*
X8500000Y45500000D03*
G54D13*
X24000000Y48630000D03*
X14685000Y46134000D03*
X24000000Y45550000D03*
G54D14*
X25750000Y44250000D02*
X29250000Y49000000D01*
X30500000Y49500000D01*
X44250000Y46000000D01*
G54D13*
X31775000Y43467000D03*
G54D15*
X29774000Y42634000D02*
X30942000Y41467000D01*
X32604000Y41467000D02*
X34866000Y43730000D01*
X29495000Y39346000D02*
X36100000Y39346000D01*
G54D13*
X37467000Y37775000D03*
G54D15*
X30942000Y41467000D02*
X32604000Y41467000D01*
X36100000Y39346000D02*
X38478000Y41724000D01*
G54D12*
X55500000Y45500000D03*
G54D13*
X54250000Y38750000D03*
X54250000Y43250000D03*
G54D14*
X51250000Y42000000D02*
X54000000Y41250000D01*
G54D15*
X34866000Y43730000D02*
X44915000Y43730000D01*
X50919000Y37725000D01*
X48914000Y36898000D02*
X42852000Y36898000D01*
G54D14*
X44250000Y46000000D02*
X52000000Y38250000D01*
G54D15*
X50919000Y37725000D02*
X50919000Y35136000D01*
G54D14*
X52000000Y38250000D02*
X53000000Y37000000D01*
G54D15*
X50919000Y35136000D02*
X53387000Y35136000D01*
X42852000Y36898000D02*
X40622000Y34668000D01*
G54D14*
X53000000Y37000000D02*
X55500000Y34750000D01*
G54D12*
X8500000Y8500000D03*
G54D13*
X16225000Y16533000D03*
X14685000Y13866000D03*
G54D15*
X9781000Y18535000D02*
X32711000Y18535000D01*
X30423000Y8310000D02*
X16650000Y8310000D01*
G54D13*
X24000000Y14450000D03*
X24000000Y11370000D03*
X39550000Y30000000D03*
G54D15*
X41393000Y23324000D02*
X41393000Y25610000D01*
X34996000Y28605000D02*
X36619000Y26981000D01*
X39906000Y26981000D01*
G54D13*
X31775000Y16533000D03*
X33315000Y13866000D03*
G54D15*
X32711000Y18535000D02*
X35724000Y15522000D01*
X40622000Y34668000D02*
X27757000Y34668000D01*
G54D13*
X10533000Y22225000D03*
G54D15*
X9522000Y18276000D02*
X9781000Y18535000D01*
X5861000Y21913000D02*
X18309000Y34362000D01*
X18692000Y34362000D01*
G54D14*
X7750000Y26750000D02*
X11500000Y30000000D01*
G54D15*
X37726000Y18682000D02*
X29805000Y26602000D01*
X23642000Y26602000D01*
X17413000Y30635000D02*
X20784000Y30635000D01*
X17792000Y27691000D02*
X18705000Y28605000D01*
X34996000Y28605000D01*
X49283000Y16884000D02*
X40762000Y8363000D01*
G54D13*
X42630000Y30000000D03*
X37467000Y22225000D03*
X40134000Y20685000D03*
G54D15*
X41915000Y19632000D02*
X40965000Y18682000D01*
X37726000Y18682000D01*
X41915000Y19632000D02*
X42586000Y18961000D01*
G54D13*
X10533000Y37775000D03*
G54D15*
X20784000Y30635000D02*
X29495000Y39346000D01*
G54D14*
X11500000Y30000000D02*
X25750000Y44250000D01*
G54D13*
X16225000Y43467000D03*
X54250000Y16750000D03*
G54D14*
X52250000Y21500000D02*
X52000000Y8750000D01*
G54D15*
X52621000Y33071000D02*
X47907000Y28357000D01*
X47907000Y25624000D02*
X41915000Y19632000D01*
X53387000Y35136000D02*
X54621000Y33902000D01*
X54621000Y31589000D01*
X49283000Y26251000D01*
G54D14*
X52500000Y22500000D02*
X52250000Y21500000D01*
G54D13*
X54250000Y21250000D03*
G54D15*
X47907000Y28357000D02*
X47907000Y25624000D01*
G54D14*
X55500000Y25500000D02*
X52500000Y22500000D01*
G54D15*
X49283000Y26251000D02*
X49283000Y16884000D01*
X41393000Y25610000D02*
X50919000Y35136000D01*
G54D14*
X55500000Y34750000D02*
X55750000Y33750000D01*
X55500000Y25500000D01*
G54D13*
X40134000Y39315000D03*
X60750000Y38750000D03*
X60750000Y43250000D03*
G54D14*
X54000000Y41250000D02*
X56250000Y41250000D01*
X57500000Y42500000D01*
G54D12*
X55500000Y8500000D03*
G54D13*
X60750000Y16750000D03*
X60750000Y21250000D03*
X58000000Y26200000D03*
X58000000Y33800000D03*
X33315000Y46134000D03*
G54D15*
X30676000Y47393000D02*
X29774000Y46491000D01*
X29774000Y42634000D01*
G54D13*
X7866000Y20685000D03*
G54D16*
X16000000Y4000000D03*
G54D17*
X22140000Y5000000D03*
G54D15*
X16650000Y8310000D02*
X5861000Y19099000D01*
X5861000Y21913000D01*
G54D17*
X27000000Y5000000D03*
X31860000Y5000000D03*
G54D15*
X37726000Y7467000D02*
X31708000Y1450000D01*
X12550000Y1450000D01*
X10000000Y4000000D01*
X37726000Y18682000D02*
X37726000Y7467000D01*
X41602000Y3590000D01*
X49168000Y3590000D01*
G54D18*
X49250000Y10000000D02*
X50500000Y6500000D01*
X51250000Y5750000D01*
G54D13*
X8450000Y30000000D03*
X7866000Y39315000D03*
X5370000Y30000000D03*
X7750000Y26750000D03*
G54D16*
X10000000Y4000000D03*
G54D13*
X9522000Y18276000D03*
X57500000Y42500000D03*
X17792000Y27691000D03*
X18692000Y34362000D03*
X17413000Y30635000D03*
X23642000Y26602000D03*
X51250000Y42000000D03*
X38478000Y41724000D03*
X48914000Y36898000D03*
X41393000Y23324000D03*
X39906000Y26981000D03*
X42586000Y18961000D03*
X35724000Y15522000D03*
X52621000Y33071000D03*
X30423000Y8310000D03*
X49168000Y3590000D03*
X52000000Y8750000D03*
X49250000Y10000000D03*
X51250000Y5750000D03*
X40762000Y8363000D03*
X27757000Y34668000D03*
X30676000Y47393000D03*
G54D19*
G54D20*
G54D19*
G54D20*
G54D21*
G54D20*
G54D19*
G54D20*
G54D19*
G54D20*
G54D21*
G54D22*
G54D20*
G54D22*
G54D20*
M02*
